<svg width="392" height="362" viewBox="0 0 392 362" fill="none" xmlns="http://www.w3.org/2000/svg">
<path d="M180.646 0C81.0682 0 0 81.0682 0 180.646C0 280.234 81.0682 361.293 180.646 361.293C280.225 361.293 361.293 280.234 361.293 180.646C361.293 81.0682 280.225 0 180.646 0ZM180.646 31.423C263.251 31.423 329.88 98.0518 329.88 180.646C329.88 263.251 263.251 329.88 180.646 329.88C98.0422 329.88 31.4134 263.251 31.4134 180.646C31.4134 98.0518 98.0422 31.423 180.646 31.423Z" fill="#56B5CB"/>
<path d="M345.643 53.1686L344.981 53.1206C343.579 53.111 342.235 53.6486 341.189 54.6471C292.187 101.94 232.855 152.949 222.438 152.891C215.401 152.804 208.094 151.662 200.356 150.443L200.251 150.414C196.516 142.993 190.861 134.256 187.29 131.712C184.275 129.561 180.252 129.177 172.38 129.129L168.78 129.11C165.093 129.081 158.238 129.043 154.983 127.814L154.196 127.507C150.462 126.105 145.604 124.252 141.715 122.101L121.237 88.5375L121.151 88.6047C108.631 63.7581 92.0221 30.6742 87.9131 22.4848L86.9722 20.603C85.9833 18.6445 84.1112 17.2716 81.951 16.9164C80.7029 16.7148 79.4165 16.6188 78.13 16.5996C52.1697 16.4363 27.0447 56.452 24.2605 61.0123C22.8396 63.3453 22.9452 66.3023 24.5389 68.5489C37.9511 87.2606 56.9892 113.989 71.3903 134.534L91.6093 167.801C92.4446 175.164 92.771 187.444 92.9918 195.988C93.1742 202.555 93.3278 208.22 93.6063 212.07C94.3359 221.555 98.4834 227.92 101.824 233.057C103.274 235.284 104.657 237.396 105.521 239.451L105.866 240.622C107.892 247.784 110.177 255.906 118.222 259.122C121.179 260.313 126.988 261.897 133.584 262.915C133.747 263.635 133.948 264.336 134.227 265.008C136.867 271.661 143.482 274.34 144.221 274.618C144.941 274.887 145.776 275.012 147.111 275.021C149.521 275.04 153.774 274.666 158.584 273.85C159.179 279.102 162.04 283.297 166.85 285.716C169.288 286.945 172.284 287.579 175.759 287.617C186.695 287.685 201.768 281.463 204.533 278.381C206.098 276.644 214.94 261.417 217.234 251.423C232.787 239.691 245.902 225.549 254.389 211.369C291.476 193.108 388.424 145.633 388.952 145.374C391.093 144.317 392.293 142.033 391.938 139.671C390.652 131.222 378.372 56.9608 345.643 53.1686Z" fill="white"/>
<path d="M344.972 58.5546C344.972 58.5546 241.409 158.517 222.381 158.325C203.362 158.133 183.095 150.52 161.464 153.957C139.844 157.394 137.933 208.527 138.932 210.937C139.92 213.356 147.639 256.972 163.125 265.699C178.621 274.426 229.12 244.347 250.53 207.212C286.369 189.566 386.562 140.487 386.562 140.487C386.562 140.487 374.609 61.9916 344.972 58.5546Z" fill="white"/>
<path d="M387.282 138.644C359.411 152.305 278.036 192.11 249.896 205.964C249.656 206.069 249.445 206.28 249.311 206.511C231.137 238.049 189.738 265.949 169.846 265.814C167.398 265.795 165.372 265.344 163.826 264.47C151.23 257.385 143.703 224.982 141.226 214.326C140.66 211.878 140.41 210.869 140.247 210.485C139.728 208.44 140.439 179.014 150.558 163.605C153.717 158.795 157.471 156.011 161.685 155.339C165.545 154.725 169.519 154.456 173.82 154.475C182.509 154.533 191.035 155.877 199.291 157.192C207.288 158.45 214.825 159.65 222.4 159.727C239.796 159.832 331.867 72.7636 351.904 53.6582L350.752 50.442C320.404 79.5609 237.214 157.01 222.4 156.914C215.075 156.846 207.615 155.666 199.733 154.427C191.371 153.093 182.73 151.729 173.84 151.672C169.385 151.643 165.257 151.931 161.253 152.574C155.55 153.477 150.712 157.432 146.852 164.335C137.799 180.493 136.541 208.825 137.635 211.465C137.741 211.772 138.116 213.327 138.5 214.969C141.303 227.075 148.782 259.228 162.444 266.918C164.412 268.032 166.908 268.608 169.836 268.618C190.794 268.752 232.49 240.977 251.528 208.287C281.799 193.387 365.479 153.112 389.02 141.572L387.282 138.644Z" fill="#56B5CB"/>
<path d="M267.12 192.292C267.12 192.292 255.734 187.665 256.214 180.954C251.461 194.097 250.972 209.295 221.411 216.851C212.147 235.802 203.909 250.876 192.926 246.44C181.348 241.764 197.678 215.852 197.842 213.51C198.005 211.177 201.643 186.128 201.643 186.128L267.12 192.292Z" fill="white"/>
<path d="M267.043 192.503C264.384 191.562 261.849 190.334 259.506 188.615C258.345 187.761 257.241 186.762 256.348 185.485C255.445 184.237 254.802 182.615 254.812 180.858L257.538 181.434C256.761 183.488 256.079 185.572 255.407 187.703C254.735 189.834 253.976 191.975 253.17 194.097C252.287 196.2 251.355 198.312 250.107 200.27C248.946 202.267 247.467 204.101 245.864 205.772C245.096 206.645 244.174 207.356 243.3 208.124C242.465 208.93 241.486 209.535 240.555 210.217C239.623 210.917 238.625 211.484 237.617 212.041C236.618 212.617 235.639 213.193 234.583 213.634C232.528 214.643 230.407 215.478 228.256 216.217C226.134 217.024 223.936 217.532 221.766 218.204L222.669 217.465C220.7 221.545 218.703 225.626 216.524 229.648C214.364 233.662 212.012 237.627 209.026 241.256C207.519 243.061 205.877 244.798 203.832 246.21C201.864 247.621 199.329 248.648 196.708 248.619C195.403 248.619 194.116 248.351 192.926 247.909L192.484 247.755C192.129 247.611 192.177 247.611 191.994 247.525C191.735 247.39 191.505 247.294 191.217 247.112C190.583 246.699 189.997 246.238 189.546 245.72C187.645 243.55 187.357 240.747 187.463 238.366C187.837 233.508 189.508 229.149 191.274 224.925C192.158 222.813 193.146 220.749 194.145 218.713L195.633 215.67C196.084 214.652 196.747 213.634 196.747 212.914C197.4 208.344 198.062 203.928 198.868 199.445C199.617 194.99 200.481 190.535 201.374 186.09C201.403 185.946 201.547 185.85 201.701 185.879C201.835 185.908 201.931 186.033 201.921 186.167C201.509 190.689 201.086 195.192 200.568 199.694L199.041 213.135C198.936 214.729 198.254 215.66 197.832 216.707L196.353 219.779C195.374 221.814 194.443 223.84 193.578 225.914C191.898 230.013 190.381 234.286 190.122 238.5C190.036 240.574 190.391 242.619 191.582 243.896C191.87 244.241 192.196 244.462 192.484 244.673C192.676 244.798 192.983 244.933 193.223 245.058C193.31 245.086 193.578 245.24 193.502 245.182L193.857 245.307C194.798 245.634 195.758 245.845 196.718 245.816C200.616 245.826 204.053 242.715 206.751 239.403C209.458 235.985 211.762 232.135 213.951 228.237C216.13 224.31 218.156 220.288 220.153 216.227C220.336 215.871 220.643 215.612 220.998 215.507L221.075 215.487C223.168 214.844 225.318 214.374 227.354 213.606C229.418 212.905 231.463 212.127 233.402 211.177C234.42 210.773 235.351 210.217 236.282 209.689C237.223 209.17 238.174 208.652 239.028 208.008C239.911 207.375 240.823 206.808 241.601 206.088C242.398 205.378 243.262 204.735 243.963 203.928C245.441 202.402 246.805 200.75 247.89 198.897C249.051 197.112 249.925 195.134 250.779 193.147C252.354 189.095 253.477 184.804 254.898 180.493C255.148 179.754 255.925 179.35 256.645 179.6C257.221 179.792 257.596 180.31 257.605 180.887L257.625 181.059C257.241 183.162 258.661 185.552 260.562 187.386C262.463 189.239 264.777 190.814 267.216 192.071C267.331 192.129 267.379 192.263 267.331 192.388C267.273 192.494 267.149 192.532 267.043 192.503Z" fill="#56B5CB"/>
<path d="M165.401 264.758C165.401 264.758 160.178 276.26 169.298 280.858C178.419 285.467 198.83 276.596 200.501 274.752C202.171 272.89 214.787 250.069 212.06 245.25C209.324 240.449 197.419 253.439 195.691 255.945C193.982 258.46 174.857 261.484 174.857 261.484L165.401 264.758Z" fill="white"/>
<path d="M166.447 265.881C165.612 268.07 163.068 276.145 169.932 279.61C171.421 280.369 173.408 280.762 175.798 280.772C185.524 280.839 198.293 274.983 199.455 273.812C201.384 271.671 213.011 249.752 210.841 245.95C210.697 245.672 210.543 245.595 210.226 245.595C206.933 245.576 198.638 254.121 196.853 256.742C194.99 259.459 181.002 261.935 175.078 262.867L166.447 265.881ZM175.789 283.585C172.937 283.566 170.547 283.057 168.665 282.116C160.495 277.978 162.127 268.579 164.124 264.182C164.278 263.827 164.575 263.568 164.93 263.443L174.406 260.159C183.316 258.719 193.396 256.434 194.558 255.138C195.787 253.314 205.004 242.763 210.246 242.792C211.561 242.801 212.636 243.435 213.28 244.558C216.611 250.443 202.853 274.234 201.538 275.684C199.771 277.652 186.004 283.652 175.789 283.585Z" fill="#56B5CB"/>
<path d="M150.664 251.615C150.664 251.615 178.064 243.473 181.443 252.508C186.628 266.371 148.302 270.346 146.161 269.539C144.01 268.733 135.351 263.923 139.988 254.37C144.634 244.817 150.664 251.615 150.664 251.615Z" fill="white"/>
<path d="M147.14 270.989C146.401 270.989 145.892 270.931 145.662 270.855C145.422 270.759 140.016 268.656 137.981 263.529C136.79 260.534 137.031 257.241 138.73 253.756C139.075 253.064 139.911 252.776 140.602 253.112C141.303 253.448 141.591 254.284 141.245 254.985C139.92 257.74 139.69 260.255 140.583 262.483C141.908 265.814 145.412 267.754 146.66 268.224C148.82 268.656 172.678 266.064 179.043 258.594C180.541 256.857 180.877 255.023 180.128 252.997C177.987 247.323 161.167 249.963 151.067 252.968C150.308 253.18 149.531 252.767 149.329 252.028C149.089 251.279 149.521 250.491 150.26 250.28C153.198 249.397 179.014 242.052 182.759 252.018C183.978 255.301 183.21 258.46 180.512 261.148C173.225 268.387 152.996 271.027 147.14 270.989Z" fill="#56B5CB"/>
<path d="M117.906 218.08C117.906 218.08 116.812 236.446 150.808 249.656C162.156 250.683 173.225 245.336 168.041 238.145C162.837 230.964 144.673 232.001 144.183 229.773C143.674 227.536 131.683 187.415 123.081 190.756C114.498 194.097 117.906 218.08 117.906 218.08Z" fill="white"/>
<path d="M151.134 248.274C158.603 248.917 165.833 246.603 167.57 243.224C168.243 241.908 168.022 240.526 166.908 238.971C163.961 234.9 155.646 233.671 150.145 232.865C145.518 232.183 143.194 231.837 142.801 230.071C141.466 224.099 130.637 192.004 124.137 191.956C123.964 191.956 123.782 192.004 123.609 192.071C117.407 194.481 118.386 211.522 119.308 217.878C119.308 218.329 118.857 235.668 151.134 248.274ZM153.419 251.183C152.517 251.183 151.595 251.135 150.683 251.058C150.548 251.039 150.424 251.02 150.299 250.962C115.746 237.55 116.456 218.79 116.514 217.993C116.159 215.708 113.231 193.099 122.582 189.45C123.081 189.249 123.619 189.153 124.166 189.153C133.738 189.22 144.298 225.078 145.441 229.101C146.209 229.456 148.6 229.792 150.558 230.08C156.885 231.012 165.535 232.298 169.174 237.329C171.392 240.392 170.883 242.926 170.067 244.501C167.983 248.552 161.292 251.231 153.419 251.183Z" fill="#56B5CB"/>
<path d="M144.519 258.46C135.773 258.393 124.617 255.829 120.248 254.082C114.68 251.855 112.856 245.394 111.089 239.144L110.657 237.598C109.64 235.082 108.056 232.653 106.366 230.08C103.217 225.251 99.6454 219.76 99.0309 211.657C98.7429 207.922 98.5893 202.286 98.4261 195.739C98.0709 182.615 97.5908 164.613 95.6227 160.485C93.2417 155.531 50.9795 96.1125 28.9555 65.3807C28.6291 64.9199 28.6195 64.3246 28.8979 63.8254C29.9444 62.1165 54.7238 21.8896 78.0918 22.0336C79.0903 22.0528 80.0888 22.12 81.0873 22.2832C81.5385 22.3504 81.9033 22.6384 82.1145 23.0321C82.5658 23.9345 127.257 113.058 130.828 119.653C134.102 125.702 144.183 129.523 152.286 132.585L153.054 132.893C156.894 134.352 163.164 134.506 168.751 134.544L172.351 134.563C178.755 134.602 182.346 134.861 184.141 136.147C188.231 139.066 200.904 159.64 200.472 169.02C200.097 170.979 199.781 172.793 199.483 174.579C198.072 182.845 197.352 186.493 194.894 186.484C194.567 186.484 194.279 186.407 194.02 186.263L195.335 190.113C195.489 191.121 197.563 208.316 187.876 209.746C187.674 209.765 187.463 209.785 187.261 209.785C184.179 209.756 181.856 206.088 180.195 201.979C180.205 202.19 180.224 202.354 180.253 202.469C180.32 202.997 180.445 203.669 180.579 204.447C181.606 210.034 183.728 221.651 175.126 224.771C174.723 224.925 174.291 225.002 173.887 225.002C172.246 224.992 171.065 223.898 170.076 222.064C170.46 225.856 169.98 229.034 168.617 231.348C168.454 231.617 168.194 231.837 167.887 231.943C164.767 233.085 161.541 233.642 158.296 233.633C150.02 233.575 143.271 229.773 139.239 227.498C138.25 226.931 137.414 226.461 136.771 226.173C136.186 225.895 135.859 225.271 135.965 224.637C136.07 224.003 136.608 223.523 137.251 223.485C138.576 223.389 139.795 222.976 139.719 220.489C139.488 212.847 128.476 198.504 125.778 198.494C125.03 198.571 123.657 199.637 122.332 202.402C120.047 207.154 119 214.518 121.305 218.147C122.428 219.913 123.388 221.574 124.29 223.12C126.489 226.931 128.246 229.946 131.174 232.385C132.038 233.095 133.785 234.017 135.83 235.082C143.396 239.048 156.059 245.701 151.23 257.164C151.047 257.596 150.663 257.903 150.212 257.999C148.638 258.316 146.727 258.479 144.519 258.46Z" fill="white"/>
<path d="M184.948 134.995C182.836 133.498 179.206 133.21 172.361 133.162L170.595 133.152L168.761 133.142C163.308 133.114 157.173 132.96 153.553 131.577L152.776 131.289C144.894 128.294 135.091 124.578 132.067 119.001C128.956 113.25 86.8671 30.6454 77.8232 12.6441L76.0663 15.4955C83.8909 31.0966 126.374 114.354 129.6 120.325C133.229 127.036 144.001 130.944 152.555 134.208C156.606 135.734 162.866 135.917 168.742 135.946C169.971 135.955 171.171 135.955 172.342 135.975C177.402 136.003 181.712 136.138 183.316 137.29C187.079 139.968 199.474 160.197 199.07 168.962C197.64 176.259 196.709 185.092 194.913 185.072C194.51 185.072 194.088 184.66 193.607 183.728C192.542 181.635 191.217 176.816 189.191 171.881C186.138 164.421 182.375 156.558 182.375 156.558L194.011 190.564C194.011 190.564 196.113 207.116 187.674 208.344C187.549 208.373 187.405 208.373 187.271 208.373C181.808 208.344 178.582 191.111 178.582 191.111L162.933 164.172C162.933 164.172 171.488 181.155 176.72 192.628C178.707 196.987 178.688 201.49 178.851 202.661C179.427 206.885 183.239 220.336 174.656 223.456C174.387 223.552 174.147 223.6 173.897 223.6C170.105 223.571 168.905 211.974 164.738 203.419C160.552 194.779 154.734 188.25 151.048 185.946C155.771 192.004 158.68 197.035 162.482 204.197C168.137 214.825 170.547 225.347 167.407 230.628C164.22 231.799 161.167 232.25 158.306 232.221C148.34 232.154 140.65 226.375 137.347 224.886C148.859 224.118 130.886 197.121 125.798 197.092C125.74 197.083 125.683 197.092 125.644 197.092C120.767 197.63 116.168 212.674 120.124 218.886C124.07 225.098 125.932 229.85 130.281 233.469C134.64 237.07 155.502 243.406 149.944 256.626C148.379 256.943 146.535 257.068 144.519 257.049C136.167 257.001 125.068 254.505 120.767 252.776C115.429 250.636 113.941 243.934 111.992 237.204C108.833 229.293 101.335 223.475 100.433 211.551C99.5208 199.608 99.9528 166.255 96.8806 159.871C93.9236 153.726 31.98 66.8016 27.9861 61.2044L25.7683 64.2574C51.2869 99.9047 92.2531 156.722 94.346 161.09C96.2085 164.949 96.7078 183.488 97.0246 195.768C97.1974 202.325 97.351 207.989 97.639 211.753C98.2823 220.23 101.959 225.866 105.204 230.848C106.808 233.316 108.344 235.658 109.342 238.116L109.736 239.528C111.598 246.104 113.519 252.892 119.73 255.378C124.204 257.174 135.6 259.804 144.51 259.862C146.804 259.871 148.83 259.708 150.491 259.382C151.403 259.19 152.161 258.575 152.526 257.711C157.855 245.058 143.943 237.761 136.474 233.834C134.592 232.845 132.816 231.914 132.077 231.3C129.341 229.034 127.641 226.115 125.491 222.409C124.617 220.902 123.628 219.184 122.495 217.398C120.921 214.921 121.142 209.199 123.004 204.389C124.07 201.653 125.231 200.328 125.798 199.973C129.062 201.557 138.96 215.478 138.288 221.171C138.221 221.776 138.192 222.025 137.155 222.093C135.869 222.169 134.813 223.12 134.582 224.387C134.352 225.664 135.024 226.922 136.195 227.44C136.762 227.699 137.597 228.17 138.567 228.717C142.714 231.06 149.656 234.967 158.296 235.025C161.704 235.054 165.084 234.449 168.367 233.258C168.972 233.037 169.491 232.615 169.817 232.058C170.835 230.359 171.411 228.237 171.545 225.789C172.227 226.183 172.995 226.403 173.888 226.403C174.464 226.403 175.03 226.307 175.606 226.096C183.152 223.35 183.469 215.257 182.73 208.988C184.026 210.332 185.533 211.167 187.261 211.177C187.53 211.177 187.809 211.167 188.077 211.129C198.936 209.535 197.035 192.177 196.785 190.209C196.757 190.026 196.718 189.834 196.661 189.662L196.008 187.732C198.801 186.906 199.541 182.586 200.866 174.809C201.163 173.043 201.48 171.219 201.826 169.5C201.854 169.356 201.864 169.222 201.864 169.087C202.335 159.103 189.316 138.125 184.948 134.995Z" fill="#56B5CB"/>
<path d="M160.936 237.847C159.179 237.723 157.538 237.972 156.155 238.5C155.627 241.361 154.84 243.992 153.899 246.267C155.31 247.621 157.557 248.61 160.159 248.783C164.709 249.109 168.569 246.939 168.79 243.915C169.01 240.881 165.497 238.174 160.936 237.847Z" fill="white"/>
<path d="M154.513 246.133C155.924 247.333 157.96 248.101 160.197 248.264C164.469 248.552 168.079 246.536 168.271 243.867C168.367 242.6 167.666 241.313 166.332 240.286C164.93 239.201 163 238.519 160.898 238.375C159.39 238.27 157.912 238.452 156.606 238.884C156.117 241.505 155.406 243.934 154.513 246.133ZM160.974 249.349C160.965 249.349 160.965 249.349 160.965 249.349C160.686 249.349 160.398 249.33 160.11 249.301C157.509 249.128 155.118 248.159 153.524 246.651C153.361 246.498 153.323 246.267 153.409 246.056C154.36 243.771 155.118 241.198 155.636 238.404C155.665 238.231 155.8 238.078 155.963 238.011C157.47 237.435 159.198 237.185 160.974 237.329C163.279 237.492 165.41 238.241 166.975 239.451C168.597 240.708 169.433 242.312 169.308 243.953C169.097 247.045 165.506 249.368 160.974 249.349Z" fill="#56B5CB"/>
<path d="M172.908 253.737C171.382 254.284 170.076 255.119 169.106 256.079C169.721 258.69 170.047 261.215 170.095 263.5C171.804 264.115 174.06 264.115 176.336 263.299C180.32 261.868 182.768 258.585 181.827 255.945C180.877 253.305 176.893 252.316 172.908 253.737Z" fill="white"/>
<path d="M170.614 263.116C171.257 263.308 171.958 263.404 172.707 263.404H172.716C173.83 263.414 175.02 263.212 176.153 262.8C179.849 261.475 182.182 258.479 181.328 256.118C180.781 254.591 178.976 253.631 176.595 253.612C175.462 253.612 174.252 253.823 173.091 254.245C171.794 254.716 170.623 255.397 169.692 256.262C170.239 258.642 170.546 260.937 170.614 263.116ZM172.707 264.46C171.698 264.46 170.767 264.297 169.913 263.99C169.711 263.923 169.577 263.721 169.577 263.51C169.529 261.215 169.202 258.748 168.597 256.204C168.559 256.021 168.617 255.829 168.741 255.714C169.807 254.658 171.19 253.804 172.735 253.247C174.012 252.796 175.347 252.565 176.604 252.565C179.427 252.594 181.635 253.804 182.326 255.762C183.373 258.671 180.752 262.272 176.508 263.788C175.241 264.24 173.964 264.47 172.707 264.46Z" fill="#56B5CB"/>
<path d="M204.302 241.073C205.483 239.268 206.174 237.358 206.434 235.562C203.669 233.297 201.316 230.935 199.444 228.554C197.14 229.274 194.778 231.098 193.05 233.777C189.997 238.462 190.055 243.915 193.156 245.922C196.276 247.938 201.259 245.768 204.302 241.073Z" fill="white"/>
<path d="M199.282 229.13C197.074 229.908 194.971 231.684 193.445 234.036C192.024 236.234 191.256 238.644 191.284 240.843C191.294 242.965 192.062 244.635 193.435 245.509C194.117 245.96 194.913 246.181 195.797 246.2C198.59 246.21 201.768 244.097 203.909 240.814C204.937 239.211 205.628 237.473 205.916 235.764C203.362 233.642 201.125 231.415 199.282 229.13ZM195.787 247.15C194.721 247.15 193.752 246.872 192.897 246.315C191.256 245.269 190.343 243.32 190.315 240.862C190.286 238.462 191.121 235.86 192.638 233.508C194.347 230.868 196.786 228.89 199.291 228.103C199.483 228.035 199.704 228.103 199.829 228.247C201.711 230.647 204.044 232.989 206.741 235.188C206.876 235.303 206.933 235.466 206.914 235.63C206.626 237.569 205.877 239.547 204.716 241.332C202.402 244.894 198.907 247.179 195.787 247.15Z" fill="#56B5CB"/>
<path d="M212.415 247.746C212.204 247.554 211.964 247.39 211.705 247.246C209.448 246.171 206.29 248.043 204.648 251.452C204.014 252.757 203.698 254.092 203.688 255.33C205.647 256.55 207.336 257.884 208.767 259.257C210.677 254.898 212.213 250.588 212.415 247.746Z" fill="white"/>
<path d="M204.216 255.042C205.81 256.05 207.269 257.174 208.575 258.354C210.505 253.881 211.637 250.299 211.868 247.967C211.733 247.871 211.609 247.784 211.474 247.726C211.129 247.563 210.754 247.467 210.341 247.467C208.46 247.458 206.319 249.195 205.119 251.672C204.591 252.776 204.293 253.929 204.216 255.042ZM208.748 259.775C208.632 259.775 208.488 259.718 208.392 259.622C206.943 258.239 205.263 256.943 203.41 255.762C203.246 255.666 203.15 255.493 203.17 255.311C203.179 253.977 203.534 252.565 204.168 251.221C205.56 248.331 208.037 246.402 210.351 246.411C210.917 246.43 211.445 246.536 211.945 246.786C212.214 246.92 212.492 247.102 212.761 247.342C212.886 247.458 212.953 247.611 212.943 247.774C212.761 250.376 211.513 254.303 209.247 259.459C209.18 259.622 209.026 259.737 208.863 259.775C208.834 259.775 208.796 259.775 208.748 259.775Z" fill="#56B5CB"/>
<path d="M144.539 257.577C139.844 257.548 134.804 256.78 131.405 256.117C131.242 256.098 131.107 256.002 131.04 255.849C130.954 255.714 130.954 255.551 131.021 255.397C132.039 253.084 132.787 251.039 133.402 248.975C133.459 248.802 133.594 248.658 133.776 248.619C134.996 248.293 136.282 248.13 137.626 248.139C138.557 248.139 139.498 248.235 140.43 248.399C145.806 249.349 150.021 252.757 150.472 256.502C150.405 256.665 150.213 257.106 150.04 257.135C148.533 257.452 146.689 257.596 144.539 257.577Z" fill="white"/>
<path d="M137.635 247.621C136.243 247.611 134.899 247.774 133.641 248.101C133.286 248.197 133.008 248.466 132.902 248.821C132.297 250.866 131.548 252.892 130.531 255.186C130.406 255.474 130.425 255.82 130.569 256.098C130.713 256.377 130.982 256.588 131.299 256.646C134.717 257.298 139.786 258.076 144.538 258.105C146.708 258.124 148.599 257.97 150.145 257.654C150.491 257.586 150.779 257.356 150.913 257.039C150.932 256.982 150.951 256.905 150.971 256.857C151.038 256.694 151.028 256.626 150.999 256.454C150.519 252.412 146.209 248.879 140.525 247.88C139.555 247.717 138.576 247.621 137.635 247.621ZM137.626 248.658C138.509 248.677 139.411 248.754 140.333 248.917C145.604 249.848 149.55 253.093 149.953 256.569C149.953 256.588 149.943 256.598 149.943 256.626C148.378 256.943 146.545 257.068 144.538 257.049C140.487 257.02 135.763 256.425 131.5 255.599C132.393 253.593 133.229 251.452 133.91 249.128C135.053 248.821 136.31 248.658 137.626 248.658Z" fill="#56B5CB"/>
<path d="M168.214 200.712C168.214 200.712 168.463 200.395 168.847 199.944C169.231 199.502 169.779 198.955 170.326 198.437C170.883 197.918 171.459 197.409 171.958 197.083C172.448 196.747 172.812 196.574 172.812 196.574C172.889 196.545 172.966 196.574 173.004 196.641C173.024 196.68 173.024 196.728 173.004 196.766C173.004 196.766 172.832 197.15 172.486 197.63C172.15 198.12 171.603 198.686 170.998 199.185C170.393 199.694 169.721 200.136 169.174 200.395C168.627 200.635 168.243 200.75 168.243 200.75C168.233 200.76 168.214 200.75 168.204 200.731C168.204 200.722 168.204 200.722 168.214 200.712Z" fill="#56B5CB"/>
<path d="M182 190.276C182 190.276 182.221 190.007 182.595 189.642C182.96 189.306 183.479 188.922 183.987 188.548C184.506 188.193 184.995 187.837 185.399 187.578C185.783 187.329 186.08 187.146 186.08 187.146C186.148 187.098 186.234 187.127 186.272 187.194C186.301 187.223 186.301 187.261 186.301 187.309C186.292 187.29 186.234 187.665 185.927 188.116C185.658 188.577 185.12 189.047 184.544 189.402C183.959 189.738 183.344 190.007 182.855 190.142C182.375 190.247 182.029 190.314 182.029 190.314C182 190.314 181.99 190.305 181.99 190.286C181.99 190.286 181.99 190.276 182 190.276Z" fill="#56B5CB"/>
<path d="M155.089 212.223C155.157 212.262 156.578 211.273 157.845 210.101C158.488 209.525 159.131 208.93 159.65 208.527C160.178 208.114 160.581 207.864 160.581 207.864C160.648 207.826 160.725 207.836 160.773 207.912C160.802 207.951 160.802 208.008 160.783 208.047C160.783 208.047 160.591 208.469 160.207 209.045C159.823 209.621 159.208 210.293 158.498 210.879C157.768 211.455 156.962 211.935 156.27 212.127C155.569 212.319 155.099 212.262 155.099 212.262H155.08C155.061 212.262 155.051 212.252 155.051 212.233C155.051 212.223 155.061 212.204 155.08 212.223C155.089 212.223 155.089 212.223 155.089 212.223Z" fill="#56B5CB"/>
<path d="M194.702 270.614C194.337 270.451 194.116 270.23 193.857 270.326L194.059 269.856C194.942 270.374 195.614 271.123 196.238 271.805C196.843 272.535 197.419 273.207 198.043 273.946C198.101 274.004 198.101 274.08 198.043 274.138C198.005 274.176 197.966 274.176 197.918 274.176C196.901 273.927 196.104 273.207 195.46 272.496C194.827 271.757 194.299 270.989 193.703 270.259L193.665 270.211C193.569 270.096 193.579 269.933 193.694 269.837C193.761 269.798 193.847 269.77 193.915 269.779C194.404 269.875 194.539 270.374 194.731 270.576C194.731 270.595 194.731 270.605 194.731 270.614C194.721 270.614 194.702 270.614 194.702 270.614Z" fill="#56B5CB"/>
<path d="M197.64 271.085C197.64 271.085 197.812 271.123 198.072 271.21C198.321 271.306 198.58 271.498 198.811 271.699C199.022 271.93 199.195 272.179 199.262 272.439C199.348 272.669 199.329 272.89 199.329 272.89C199.329 272.986 199.252 273.072 199.156 273.072C199.137 273.072 199.137 273.072 199.128 273.072C199.128 273.072 198.926 273.044 198.686 272.928C198.456 272.823 198.225 272.621 198.033 272.371C197.851 272.112 197.716 271.824 197.649 271.575C197.592 271.315 197.592 271.114 197.592 271.114C197.592 271.095 197.611 271.085 197.62 271.085C197.62 271.085 197.62 271.085 197.64 271.085Z" fill="#56B5CB"/>
<path d="M128.803 200.501C128.803 200.501 139.393 213.154 140.593 213.26C145.95 213.702 161.388 219.164 158.047 228.41C155.992 233.988 128.889 228.41 128.889 228.41L128.803 200.501Z" fill="white"/>
<path d="M148.695 232.289C141.399 232.25 132.451 230.58 128.601 229.792C127.852 229.629 127.353 228.89 127.516 228.141C127.67 227.373 128.409 226.893 129.177 227.047C141.687 229.62 155.742 230.589 156.721 227.939C157.403 226.077 157.201 224.339 156.088 222.621C153.121 217.984 144.346 214.969 140.487 214.652C139.853 214.604 138.691 214.508 127.727 201.403C127.228 200.818 127.315 199.925 127.9 199.435C128.495 198.945 129.379 199.013 129.878 199.608C134.409 205.023 139.671 210.946 140.976 211.878C145.316 212.329 154.84 215.478 158.459 221.113C160.014 223.542 160.322 226.221 159.362 228.89C158.402 231.511 153.976 232.327 148.695 232.289Z" fill="#56B5CB"/>
<path d="M149.358 221.641C147.601 221.517 145.959 221.709 144.577 222.131C144.087 224.531 143.348 226.73 142.417 228.631C143.847 229.792 146.094 230.647 148.695 230.82C153.256 231.156 157.086 229.36 157.278 226.826C157.461 224.282 153.909 221.968 149.358 221.641Z" fill="white"/>
<path d="M143.012 228.487C144.452 229.514 146.506 230.196 148.724 230.349C152.997 230.647 156.635 228.986 156.798 226.787C156.952 224.55 153.525 222.419 149.31 222.121C147.783 222.006 146.286 222.141 144.99 222.515C144.519 224.666 143.866 226.672 143.012 228.487ZM149.665 231.348C149.329 231.348 148.993 231.329 148.657 231.3C146.084 231.127 143.684 230.292 142.109 229.015C141.937 228.871 141.879 228.621 141.975 228.429C142.906 226.509 143.636 224.358 144.106 222.035C144.135 221.853 144.279 221.718 144.442 221.67C145.902 221.209 147.63 221.037 149.377 221.161C154.283 221.517 157.96 224.003 157.758 226.855C157.566 229.437 154.091 231.367 149.665 231.348Z" fill="#56B5CB"/>
<path d="M121.362 96.3045C122.467 97.2549 135.571 122.802 135.571 122.802L94.9509 162.376L77.7561 136.531L121.362 96.3045Z" fill="#56B5CB"/>
<path d="M80.0409 136.81L95.2388 159.65L133.421 122.457C129.34 114.507 123.398 103.159 121.017 98.9927L80.0409 136.81ZM94.6531 165.103L75.4709 136.263L121.333 93.9427L122.505 94.97C123.417 95.7476 128.323 104.859 137.127 122.006L137.731 123.158L94.6531 165.103Z" fill="white"/>
<path d="M139.623 213.74C139.537 213.73 138.672 214.633 137.914 215.66C137.501 216.15 137.031 216.668 136.57 216.956C136.1 217.254 135.706 217.302 135.715 217.312L135.61 217.331C135.543 217.34 135.475 217.283 135.475 217.216C135.456 217.148 135.504 217.091 135.571 217.081C135.639 217.081 136.224 215.987 137.146 214.988C137.607 214.479 138.183 214.028 138.72 213.836C139.268 213.654 139.604 213.702 139.604 213.702H139.633C139.652 213.702 139.652 213.711 139.652 213.73C139.652 213.73 139.633 213.74 139.623 213.74Z" fill="#56B5CB"/>
<path d="M139.921 214.182C139.921 214.182 139.892 214.393 139.959 214.604C139.988 214.825 140.055 215.084 140.074 215.411C140.074 215.727 140.017 216.111 139.825 216.351C139.633 216.611 139.402 216.697 139.412 216.697L139.364 216.726C139.297 216.755 139.21 216.707 139.201 216.639C139.181 216.611 139.181 216.591 139.181 216.572C139.201 216.505 138.961 215.967 139.047 215.353C139.105 215.027 139.21 214.643 139.441 214.393C139.69 214.153 139.882 214.134 139.882 214.134C139.892 214.134 139.921 214.134 139.921 214.153C139.921 214.153 139.921 214.163 139.921 214.182Z" fill="#56B5CB"/>
<path d="M196.085 214.066C196.085 214.066 195.153 214.326 193.704 214.604C192.273 214.844 190.314 215.027 188.337 214.902C186.369 214.767 184.4 214.278 183.085 213.558C182.404 213.26 181.904 212.866 181.549 212.617C181.213 212.358 181.021 212.194 181.021 212.194C180.963 212.156 180.944 212.07 181.002 212.012C181.04 211.964 181.117 211.945 181.165 211.974C181.165 211.974 182.029 212.425 183.373 212.866C184.698 213.327 186.532 213.73 188.423 213.874C190.295 214.066 192.215 214.057 193.665 214.038C195.115 214.028 196.085 214.028 196.085 214.028C196.104 214.028 196.104 214.028 196.113 214.038C196.113 214.057 196.104 214.066 196.085 214.066Z" fill="#56B5CB"/>
<path d="M206.146 221.133C206.146 221.133 206.463 221.325 206.914 221.622C207.356 221.91 207.903 222.313 208.46 222.64C209.026 222.976 209.602 223.264 210.054 223.514C210.505 223.744 210.831 223.936 210.831 223.936C210.898 223.974 210.918 224.061 210.87 224.128C210.86 224.166 210.822 224.195 210.793 224.195C210.793 224.186 210.409 224.291 209.833 224.243C209.276 224.195 208.537 223.926 207.913 223.504C207.289 223.053 206.789 222.486 206.511 222.006C206.232 221.517 206.108 221.171 206.108 221.171C206.108 221.161 206.108 221.133 206.127 221.133C206.136 221.133 206.146 221.133 206.146 221.133Z" fill="#56B5CB"/>
</svg>
