<svg width="220" height="36" viewBox="0 0 220 36" fill="none" xmlns="http://www.w3.org/2000/svg">
<path d="M24.0363 9.5H35.1663C37.8263 9.5 40.1713 10.0133 42.2013 11.04C44.2547 12.0433 45.8413 13.4667 46.9613 15.31C48.1047 17.1533 48.6763 19.3 48.6763 21.75C48.6763 24.2 48.1047 26.3467 46.9613 28.19C45.8413 30.0333 44.2547 31.4683 42.2013 32.495C40.1713 33.4983 37.8263 34 35.1663 34H24.0363V9.5ZM34.8863 29.345C37.3363 29.345 39.2847 28.6683 40.7313 27.315C42.2013 25.9383 42.9363 24.0833 42.9363 21.75C42.9363 19.4167 42.2013 17.5733 40.7313 16.22C39.2847 14.8433 37.3363 14.155 34.8863 14.155H29.7063V29.345H34.8863ZM52.5674 15.17H58.0274V34H52.5674V15.17ZM55.2974 12.545C54.294 12.545 53.4774 12.2533 52.8474 11.67C52.2174 11.0867 51.9024 10.3633 51.9024 9.5C51.9024 8.63666 52.2174 7.91333 52.8474 7.33C53.4774 6.74666 54.294 6.455 55.2974 6.455C56.3007 6.455 57.1174 6.735 57.7474 7.295C58.3774 7.855 58.6924 8.555 58.6924 9.395C58.6924 10.305 58.3774 11.0633 57.7474 11.67C57.1174 12.2533 56.3007 12.545 55.2974 12.545ZM70.6897 14.89C73.6064 14.89 75.8464 15.59 77.4097 16.99C78.973 18.3667 79.7547 20.455 79.7547 23.255V34H74.6447V31.655C73.618 33.405 71.7047 34.28 68.9047 34.28C67.458 34.28 66.198 34.035 65.1247 33.545C64.0747 33.055 63.2697 32.3783 62.7097 31.515C62.1497 30.6517 61.8697 29.6717 61.8697 28.575C61.8697 26.825 62.523 25.4483 63.8297 24.445C65.1597 23.4417 67.2014 22.94 69.9547 22.94H74.2947C74.2947 21.75 73.933 20.84 73.2097 20.21C72.4864 19.5567 71.4014 19.23 69.9547 19.23C68.9514 19.23 67.9597 19.3933 66.9797 19.72C66.023 20.0233 65.2064 20.4433 64.5297 20.98L62.5697 17.165C63.5964 16.4417 64.8214 15.8817 66.2447 15.485C67.6914 15.0883 69.173 14.89 70.6897 14.89ZM70.2697 30.605C71.203 30.605 72.0314 30.395 72.7547 29.975C73.478 29.5317 73.9914 28.89 74.2947 28.05V26.125H70.5497C68.3097 26.125 67.1897 26.86 67.1897 28.33C67.1897 29.03 67.458 29.59 67.9947 30.01C68.5547 30.4067 69.313 30.605 70.2697 30.605ZM95.8263 14.89C97.5763 14.89 99.1629 15.2983 100.586 16.115C102.033 16.9083 103.165 18.04 103.981 19.51C104.798 20.9567 105.206 22.6483 105.206 24.585C105.206 26.5217 104.798 28.225 103.981 29.695C103.165 31.1417 102.033 32.2733 100.586 33.09C99.1629 33.8833 97.5763 34.28 95.8263 34.28C93.2363 34.28 91.2646 33.4633 89.9113 31.83V34H84.6963V8.03H90.1563V17.165C91.5329 15.6483 93.4229 14.89 95.8263 14.89ZM94.8813 29.8C96.2813 29.8 97.4246 29.3333 98.3113 28.4C99.2213 27.4433 99.6763 26.1717 99.6763 24.585C99.6763 22.9983 99.2213 21.7383 98.3113 20.805C97.4246 19.8483 96.2813 19.37 94.8813 19.37C93.4813 19.37 92.3263 19.8483 91.4163 20.805C90.5296 21.7383 90.0863 22.9983 90.0863 24.585C90.0863 26.1717 90.5296 27.4433 91.4163 28.4C92.3263 29.3333 93.4813 29.8 94.8813 29.8ZM108.861 15.17H114.321V34H108.861V15.17ZM111.591 12.545C110.588 12.545 109.771 12.2533 109.141 11.67C108.511 11.0867 108.196 10.3633 108.196 9.5C108.196 8.63666 108.511 7.91333 109.141 7.33C109.771 6.74666 110.588 6.455 111.591 6.455C112.595 6.455 113.411 6.735 114.041 7.295C114.671 7.855 114.986 8.555 114.986 9.395C114.986 10.305 114.671 11.0633 114.041 11.67C113.411 12.2533 112.595 12.545 111.591 12.545Z" fill="#F1F1F1"/>
<path d="M24.0363 9.5V8.5H23.0363V9.5H24.0363ZM42.2013 11.04L41.75 11.9324L41.7623 11.9385L42.2013 11.04ZM46.9613 15.31L46.1067 15.8293L46.1115 15.8371L46.9613 15.31ZM46.9613 28.19L46.1115 27.6629L46.1067 27.6707L46.9613 28.19ZM42.2013 32.495L42.6444 33.3915L42.6486 33.3894L42.2013 32.495ZM24.0363 34H23.0363V35H24.0363V34ZM40.7313 27.315L41.4145 28.0453L41.4149 28.0449L40.7313 27.315ZM40.7313 16.22L40.042 16.9444L40.048 16.9501L40.054 16.9557L40.7313 16.22ZM29.7063 14.155V13.155H28.7063V14.155H29.7063ZM29.7063 29.345H28.7063V30.345H29.7063V29.345ZM24.0363 10.5H35.1663V8.5H24.0363V10.5ZM35.1663 10.5C37.6961 10.5 39.8818 10.9875 41.75 11.9324L42.6527 10.1476C40.4609 9.03914 37.9566 8.5 35.1663 8.5V10.5ZM41.7623 11.9385C43.6544 12.863 45.0921 14.1594 46.1067 15.8293L47.816 14.7907C46.5906 12.7739 44.8549 11.2236 42.6404 10.1415L41.7623 11.9385ZM46.1115 15.8371C47.1444 17.5024 47.6763 19.4615 47.6763 21.75H49.6763C49.6763 19.1385 49.0649 16.8043 47.8112 14.7829L46.1115 15.8371ZM47.6763 21.75C47.6763 24.0385 47.1444 25.9976 46.1115 27.6629L47.8112 28.7171C49.0649 26.6957 49.6763 24.3615 49.6763 21.75H47.6763ZM46.1067 27.6707C45.0909 29.3427 43.6504 30.6525 41.7541 31.6006L42.6486 33.3894C44.859 32.2842 46.5918 30.724 47.816 28.7093L46.1067 27.6707ZM41.7583 31.5985C39.8881 32.5228 37.6994 33 35.1663 33V35C37.9533 35 40.4545 34.4738 42.6444 33.3915L41.7583 31.5985ZM35.1663 33H24.0363V35H35.1663V33ZM25.0363 34V9.5H23.0363V34H25.0363ZM34.8863 30.345C37.527 30.345 39.7412 29.6106 41.4145 28.0453L40.0482 26.5847C38.8282 27.726 37.1457 28.345 34.8863 28.345V30.345ZM41.4149 28.0449C43.1193 26.4487 43.9363 24.312 43.9363 21.75H41.9363C41.9363 23.8547 41.2834 25.428 40.0478 26.5851L41.4149 28.0449ZM43.9363 21.75C43.9363 19.1884 43.1193 17.0591 41.4087 15.4843L40.054 16.9557C41.2834 18.0875 41.9363 19.6449 41.9363 21.75H43.9363ZM41.4207 15.4956C39.748 13.9038 37.5316 13.155 34.8863 13.155V15.155C37.1411 15.155 38.8214 15.7829 40.042 16.9444L41.4207 15.4956ZM34.8863 13.155H29.7063V15.155H34.8863V13.155ZM28.7063 14.155V29.345H30.7063V14.155H28.7063ZM29.7063 30.345H34.8863V28.345H29.7063V30.345ZM52.5674 15.17V14.17H51.5674V15.17H52.5674ZM58.0274 15.17H59.0274V14.17H58.0274V15.17ZM58.0274 34V35H59.0274V34H58.0274ZM52.5674 34H51.5674V35H52.5674V34ZM52.8474 11.67L52.168 12.4038L52.168 12.4038L52.8474 11.67ZM52.8474 7.33L53.5268 8.06376L53.5268 8.06376L52.8474 7.33ZM57.7474 7.295L57.083 8.04241L57.083 8.04241L57.7474 7.295ZM57.7474 11.67L58.4268 12.4038L58.434 12.3971L58.441 12.3903L57.7474 11.67ZM52.5674 16.17H58.0274V14.17H52.5674V16.17ZM57.0274 15.17V34H59.0274V15.17H57.0274ZM58.0274 33H52.5674V35H58.0274V33ZM53.5674 34V15.17H51.5674V34H53.5674ZM55.2974 11.545C54.5007 11.545 53.9412 11.3199 53.5268 10.9362L52.168 12.4038C53.0136 13.1867 54.0874 13.545 55.2974 13.545V11.545ZM53.5268 10.9362C53.1025 10.5434 52.9024 10.0865 52.9024 9.5H50.9024C50.9024 10.6401 51.3323 11.63 52.168 12.4038L53.5268 10.9362ZM52.9024 9.5C52.9024 8.91348 53.1025 8.45665 53.5268 8.06376L52.168 6.59624C51.3323 7.37002 50.9024 8.35985 50.9024 9.5H52.9024ZM53.5268 8.06376C53.9412 7.68006 54.5007 7.455 55.2974 7.455V5.455C54.0874 5.455 53.0136 5.81327 52.168 6.59624L53.5268 8.06376ZM55.2974 7.455C56.1049 7.455 56.6697 7.67505 57.083 8.04241L58.4117 6.54759C57.565 5.79495 56.4965 5.455 55.2974 5.455V7.455ZM57.083 8.04241C57.5004 8.4134 57.6924 8.84177 57.6924 9.395H59.6924C59.6924 8.26823 59.2544 7.2966 58.4117 6.54759L57.083 8.04241ZM57.6924 9.395C57.6924 10.0456 57.4793 10.5399 57.0537 10.9497L58.441 12.3903C59.2755 11.5868 59.6924 10.5644 59.6924 9.395H57.6924ZM57.068 10.9362C56.6536 11.3199 56.0941 11.545 55.2974 11.545V13.545C56.5073 13.545 57.5812 13.1867 58.4268 12.4038L57.068 10.9362ZM77.4097 16.99L76.7426 17.735L76.7488 17.7405L77.4097 16.99ZM79.7547 34V35H80.7547V34H79.7547ZM74.6447 34H73.6447V35H74.6447V34ZM74.6447 31.655H75.6447V27.9742L73.7822 31.149L74.6447 31.655ZM65.1247 33.545L64.7018 34.4512L64.7094 34.4547L65.1247 33.545ZM62.7097 31.515L63.5487 30.9708L63.5487 30.9708L62.7097 31.515ZM63.8297 24.445L63.2274 23.6467L63.2207 23.6518L63.8297 24.445ZM74.2947 22.94V23.94H75.2947V22.94H74.2947ZM73.2097 20.21L72.5394 20.9521L72.5461 20.9582L72.5529 20.9641L73.2097 20.21ZM66.9797 19.72L67.282 20.6732L67.289 20.671L67.2959 20.6687L66.9797 19.72ZM64.5297 20.98L63.6402 21.437L64.1968 22.5203L65.1511 21.7635L64.5297 20.98ZM62.5697 17.165L61.9938 16.3475L61.2828 16.8484L61.6802 17.622L62.5697 17.165ZM66.2447 15.485L65.9803 14.5206L65.9762 14.5217L66.2447 15.485ZM72.7547 29.975L73.2568 30.8398L73.2671 30.8338L73.2773 30.8276L72.7547 29.975ZM74.2947 28.05L75.2353 28.3896L75.2947 28.225V28.05H74.2947ZM74.2947 26.125H75.2947V25.125H74.2947V26.125ZM67.9947 30.01L67.3784 30.7975L67.3972 30.8122L67.4167 30.826L67.9947 30.01ZM70.6897 15.89C73.4563 15.89 75.4234 16.5536 76.7426 17.7349L78.0768 16.245C76.2693 14.6264 73.7565 13.89 70.6897 13.89V15.89ZM76.7488 17.7405C78.0292 18.868 78.7547 20.6383 78.7547 23.255H80.7547C80.7547 20.2717 79.9169 17.8653 78.0706 16.2395L76.7488 17.7405ZM78.7547 23.255V34H80.7547V23.255H78.7547ZM79.7547 33H74.6447V35H79.7547V33ZM75.6447 34V31.655H73.6447V34H75.6447ZM73.7822 31.149C73.0002 32.4819 71.501 33.28 68.9047 33.28V35.28C71.9084 35.28 74.2359 34.3281 75.5072 32.161L73.7822 31.149ZM68.9047 33.28C67.5697 33.28 66.457 33.0539 65.54 32.6353L64.7094 34.4547C65.9391 35.0161 67.3464 35.28 68.9047 35.28V33.28ZM65.5476 32.6388C64.6455 32.2178 63.9942 31.6577 63.5487 30.9708L61.8707 32.0592C62.5452 33.099 63.5039 33.8922 64.7018 34.4512L65.5476 32.6388ZM63.5487 30.9708C63.1008 30.2803 62.8697 29.4918 62.8697 28.575H60.8697C60.8697 29.8515 61.1986 31.023 61.8707 32.0592L63.5487 30.9708ZM62.8697 28.575C62.8697 27.1133 63.3958 26.0389 64.4387 25.2382L63.2207 23.6518C61.6502 24.8577 60.8697 26.5367 60.8697 28.575H62.8697ZM64.4319 25.2433C65.5076 24.4319 67.2891 23.94 69.9547 23.94V21.94C67.1137 21.94 64.8118 22.4515 63.2275 23.6467L64.4319 25.2433ZM69.9547 23.94H74.2947V21.94H69.9547V23.94ZM75.2947 22.94C75.2947 21.5362 74.8589 20.3203 73.8665 19.4559L72.5529 20.9641C73.0072 21.3597 73.2947 21.9638 73.2947 22.94H75.2947ZM73.88 19.4679C72.9013 18.5839 71.5318 18.23 69.9547 18.23V20.23C71.271 20.23 72.0714 20.5294 72.5394 20.9521L73.88 19.4679ZM69.9547 18.23C68.8407 18.23 67.7424 18.4117 66.6635 18.7713L67.2959 20.6687C68.177 20.375 69.062 20.23 69.9547 20.23V18.23ZM66.6775 18.7668C65.6235 19.101 64.6942 19.5732 63.9083 20.1965L65.1511 21.7635C65.7185 21.3135 66.4226 20.9457 67.282 20.6732L66.6775 18.7668ZM65.4192 20.523L63.4592 16.708L61.6802 17.622L63.6402 21.437L65.4192 20.523ZM63.1457 17.9825C64.0641 17.3354 65.1809 16.8196 66.5132 16.4483L65.9762 14.5217C64.4618 14.9438 63.1287 15.5479 61.9938 16.3475L63.1457 17.9825ZM66.5091 16.4494C67.8687 16.0766 69.2614 15.89 70.6897 15.89V13.89C69.0847 13.89 67.5141 14.1 65.9803 14.5206L66.5091 16.4494ZM70.2697 31.605C71.3585 31.605 72.3639 31.3583 73.2568 30.8398L72.2526 29.1102C71.6989 29.4317 71.0476 29.605 70.2697 29.605V31.605ZM73.2773 30.8276C74.2048 30.2591 74.8592 29.431 75.2353 28.3896L73.3542 27.7104C73.1235 28.349 72.7513 28.8042 72.2321 29.1224L73.2773 30.8276ZM75.2947 28.05V26.125H73.2947V28.05H75.2947ZM74.2947 25.125H70.5497V27.125H74.2947V25.125ZM70.5497 25.125C69.3521 25.125 68.2803 25.3157 67.4811 25.8402C66.6084 26.4129 66.1897 27.2969 66.1897 28.33H68.1897C68.1897 27.8931 68.331 27.6746 68.5784 27.5123C68.8991 27.3018 69.5073 27.125 70.5497 27.125V25.125ZM66.1897 28.33C66.1897 29.3278 66.592 30.182 67.3784 30.7975L68.611 29.2225C68.3241 28.998 68.1897 28.7322 68.1897 28.33H66.1897ZM67.4167 30.826C68.2005 31.3812 69.1852 31.605 70.2697 31.605V29.605C69.4409 29.605 68.9089 29.4321 68.5727 29.194L67.4167 30.826ZM100.586 16.115L100.089 16.9824L100.097 16.9872L100.105 16.9918L100.586 16.115ZM103.981 19.51L103.107 19.9957L103.11 20.0016L103.981 19.51ZM103.981 29.695L104.852 30.1866L104.855 30.1806L103.981 29.695ZM100.586 33.09L101.073 33.9635L101.078 33.9608L100.586 33.09ZM89.9113 31.83L90.6813 31.192L88.9113 29.0557V31.83H89.9113ZM89.9113 34V35H90.9113V34H89.9113ZM84.6963 34H83.6963V35H84.6963V34ZM84.6963 8.03V7.03H83.6963V8.03H84.6963ZM90.1563 8.03H91.1563V7.03H90.1563V8.03ZM90.1563 17.165H89.1563V19.7546L90.8967 17.8371L90.1563 17.165ZM98.3113 28.4L97.5867 27.7108L97.5863 27.7113L98.3113 28.4ZM98.3113 20.805L97.5778 21.4848L97.5864 21.494L97.5953 21.5031L98.3113 20.805ZM91.4163 20.805L90.6917 20.1158L90.6913 20.1163L91.4163 20.805ZM91.4163 28.4L90.6828 29.0798L90.6914 29.089L90.7003 29.0981L91.4163 28.4ZM95.8263 15.89C97.4137 15.89 98.8268 16.2584 100.089 16.9824L101.084 15.2476C99.4991 14.3383 97.7389 13.89 95.8263 13.89V15.89ZM100.105 16.9918C101.383 17.6926 102.38 18.6872 103.107 19.9956L104.855 19.0244C103.949 17.3928 102.682 16.124 101.067 15.2382L100.105 16.9918ZM103.11 20.0016C103.829 21.275 104.206 22.7918 104.206 24.585H106.206C106.206 22.5049 105.767 20.6383 104.852 19.0184L103.11 20.0016ZM104.206 24.585C104.206 26.3778 103.829 27.9091 103.107 29.2094L104.855 30.1806C105.766 28.5409 106.206 26.6656 106.206 24.585H104.206ZM103.11 29.2034C102.383 30.4915 101.383 31.492 100.095 32.2192L101.078 33.9608C102.683 33.0546 103.946 31.7918 104.852 30.1866L103.11 29.2034ZM100.099 32.2165C98.8359 32.9208 97.4188 33.28 95.8263 33.28V35.28C97.7337 35.28 99.49 34.8459 101.073 33.9635L100.099 32.2165ZM95.8263 33.28C93.4618 33.28 91.8029 32.5456 90.6813 31.192L89.1412 32.468C90.7263 34.381 93.0108 35.28 95.8263 35.28V33.28ZM88.9113 31.83V34H90.9113V31.83H88.9113ZM89.9113 33H84.6963V35H89.9113V33ZM85.6963 34V8.03H83.6963V34H85.6963ZM84.6963 9.03H90.1563V7.03H84.6963V9.03ZM89.1563 8.03V17.165H91.1563V8.03H89.1563ZM90.8967 17.8371C92.0506 16.5658 93.6514 15.89 95.8263 15.89V13.89C93.1944 13.89 91.0152 14.7308 89.4158 16.4929L90.8967 17.8371ZM94.8813 30.8C96.5287 30.8 97.9432 30.2393 99.0363 29.0887L97.5863 27.7113C96.906 28.4273 96.0338 28.8 94.8813 28.8V30.8ZM99.0358 29.0892C100.157 27.9103 100.676 26.3733 100.676 24.585H98.6763C98.6763 25.97 98.2853 26.9763 97.5867 27.7108L99.0358 29.0892ZM100.676 24.585C100.676 22.7976 100.157 21.266 99.0273 20.1069L97.5953 21.5031C98.2851 22.2106 98.6763 23.199 98.6763 24.585H100.676ZM99.0447 20.1252C97.9538 18.9482 96.5368 18.37 94.8813 18.37V20.37C96.0257 20.37 96.8954 20.7485 97.5778 21.4848L99.0447 20.1252ZM94.8813 18.37C93.2259 18.37 91.8029 18.9477 90.6917 20.1158L92.1408 21.4942C92.8497 20.749 93.7367 20.37 94.8813 20.37V18.37ZM90.6913 20.1163C89.5891 21.2764 89.0863 22.8047 89.0863 24.585H91.0863C91.0863 23.1919 91.4701 22.2002 92.1413 21.4937L90.6913 20.1163ZM89.0863 24.585C89.0863 26.3663 89.5894 27.9 90.6828 29.0798L92.1497 27.7202C91.4698 26.9867 91.0863 25.9771 91.0863 24.585H89.0863ZM90.7003 29.0981C91.8134 30.2398 93.2338 30.8 94.8813 30.8V28.8C93.7287 28.8 92.8391 28.4269 92.1323 27.7019L90.7003 29.0981ZM108.861 15.17V14.17H107.861V15.17H108.861ZM114.321 15.17H115.321V14.17H114.321V15.17ZM114.321 34V35H115.321V34H114.321ZM108.861 34H107.861V35H108.861V34ZM109.141 11.67L108.462 12.4038L108.462 12.4038L109.141 11.67ZM109.141 7.33L109.821 8.06376L109.821 8.06376L109.141 7.33ZM114.041 7.295L113.377 8.04241L113.377 8.04241L114.041 7.295ZM114.041 11.67L114.721 12.4038L114.728 12.3971L114.735 12.3903L114.041 11.67ZM108.861 16.17H114.321V14.17H108.861V16.17ZM113.321 15.17V34H115.321V15.17H113.321ZM114.321 33H108.861V35H114.321V33ZM109.861 34V15.17H107.861V34H109.861ZM111.591 11.545C110.795 11.545 110.235 11.3199 109.821 10.9362L108.462 12.4038C109.308 13.1867 110.381 13.545 111.591 13.545V11.545ZM109.821 10.9362C109.396 10.5434 109.196 10.0865 109.196 9.5H107.196C107.196 10.6401 107.626 11.63 108.462 12.4038L109.821 10.9362ZM109.196 9.5C109.196 8.91348 109.396 8.45665 109.821 8.06376L108.462 6.59624C107.626 7.37002 107.196 8.35985 107.196 9.5H109.196ZM109.821 8.06376C110.235 7.68006 110.795 7.455 111.591 7.455V5.455C110.381 5.455 109.308 5.81327 108.462 6.59624L109.821 8.06376ZM111.591 7.455C112.399 7.455 112.964 7.67505 113.377 8.04241L114.706 6.54759C113.859 5.79495 112.79 5.455 111.591 5.455V7.455ZM113.377 8.04241C113.794 8.4134 113.986 8.84177 113.986 9.395H115.986C115.986 8.26823 115.548 7.2966 114.706 6.54759L113.377 8.04241ZM113.986 9.395C113.986 10.0456 113.773 10.5399 113.348 10.9497L114.735 12.3903C115.569 11.5868 115.986 10.5644 115.986 9.395H113.986ZM113.362 10.9362C112.948 11.3199 112.388 11.545 111.591 11.545V13.545C112.801 13.545 113.875 13.1867 114.721 12.4038L113.362 10.9362Z" fill="#81C6D6"/>
<path d="M121.427 8.5V6.5H119.427V8.5H121.427ZM127.097 8.5H129.097V6.5H127.097V8.5ZM127.097 28.38H125.097V30.38H127.097V28.38ZM139.382 28.38H141.382V26.38H139.382V28.38ZM139.382 33V35H141.382V33H139.382ZM121.427 33H119.427V35H121.427V33ZM121.427 10.5H127.097V6.5H121.427V10.5ZM125.097 8.5V28.38H129.097V8.5H125.097ZM127.097 30.38H139.382V26.38H127.097V30.38ZM137.382 28.38V33H141.382V28.38H137.382ZM139.382 31H121.427V35H139.382V31ZM123.427 33V8.5H119.427V33H123.427ZM142.166 14.17V12.17H140.166V14.17H142.166ZM147.626 14.17H149.626V12.17H147.626V14.17ZM147.626 33V35H149.626V33H147.626ZM142.166 33H140.166V35H142.166V33ZM142.446 10.67L141.087 12.1375L141.087 12.1375L142.446 10.67ZM142.446 6.33L143.804 7.79752L143.804 7.79752L142.446 6.33ZM147.346 6.295L146.017 7.78982L146.017 7.78982L147.346 6.295ZM147.346 10.67L148.704 12.1375L148.719 12.1242L148.733 12.1106L147.346 10.67ZM142.166 16.17H147.626V12.17H142.166V16.17ZM145.626 14.17V33H149.626V14.17H145.626ZM147.626 31H142.166V35H147.626V31ZM144.166 33V14.17H140.166V33H144.166ZM144.896 9.545C144.305 9.545 144.003 9.38655 143.804 9.20248L141.087 12.1375C142.148 13.1201 143.479 13.545 144.896 13.545V9.545ZM143.804 9.20248C143.586 9.00004 143.501 8.80971 143.501 8.5H139.501C139.501 9.91695 140.045 11.1733 141.087 12.1375L143.804 9.20248ZM143.501 8.5C143.501 8.19029 143.586 7.99996 143.804 7.79752L141.087 4.86248C140.045 5.8267 139.501 7.08304 139.501 8.5H143.501ZM143.804 7.79752C144.003 7.61345 144.305 7.455 144.896 7.455V3.455C143.479 3.455 142.148 3.87988 141.087 4.86248L143.804 7.79752ZM144.896 7.455C145.507 7.455 145.82 7.6151 146.017 7.78982L148.674 4.80018C147.611 3.85489 146.29 3.455 144.896 3.455V7.455ZM146.017 7.78982C146.222 7.97179 146.291 8.12854 146.291 8.395H150.291C150.291 6.98145 149.73 5.73821 148.674 4.80018L146.017 7.78982ZM146.291 8.395C146.291 8.78616 146.179 9.01648 145.958 9.22936L148.733 12.1106C149.772 11.1102 150.291 9.82384 150.291 8.395H146.291ZM145.987 9.20248C145.788 9.38655 145.486 9.545 144.896 9.545V13.545C146.312 13.545 147.643 13.1201 148.704 12.1375L145.987 9.20248ZM169.773 15.99L168.37 17.4159L168.376 17.4216L168.382 17.4272L169.773 15.99ZM171.943 33V35H173.943V33H171.943ZM166.483 33H164.483V35H166.483V33ZM165.503 19.735L163.998 21.052L164.008 21.0639L164.019 21.0756L165.503 19.735ZM159.378 19.91L160.812 21.3042L160.821 21.2943L160.831 21.2844L159.378 19.91ZM158.153 33V35H160.153V33H158.153ZM152.693 33H150.693V35H152.693V33ZM152.693 14.17V12.17H150.693V14.17H152.693ZM157.908 14.17H159.908V12.17H157.908V14.17ZM157.908 16.375H155.908V21.537L159.386 17.7225L157.908 16.375ZM160.603 14.555L161.332 16.4175L161.349 16.4107L161.366 16.4035L160.603 14.555ZM164.138 15.89C166.042 15.89 167.384 16.4456 168.37 17.4159L171.175 14.5641C169.315 12.7344 166.901 11.89 164.138 11.89V15.89ZM168.382 17.4272C169.313 18.3284 169.943 19.8035 169.943 22.22H173.943C173.943 19.1298 173.126 16.4516 171.164 14.5528L168.382 17.4272ZM169.943 22.22V33H173.943V22.22H169.943ZM171.943 31H166.483V35H171.943V31ZM168.483 33V23.06H164.483V33H168.483ZM168.483 23.06C168.483 21.3258 168.111 19.6383 166.987 18.3944L164.019 21.0756C164.202 21.2784 164.483 21.8076 164.483 23.06H168.483ZM167.008 18.418C165.884 17.1337 164.328 16.615 162.668 16.615V20.615C163.481 20.615 163.815 20.8429 163.998 21.052L167.008 18.418ZM162.668 16.615C160.837 16.615 159.18 17.2087 157.925 18.5356L160.831 21.2844C161.209 20.8846 161.746 20.615 162.668 20.615V16.615ZM157.944 18.5158C156.632 19.8649 156.153 21.7156 156.153 23.69H160.153C160.153 22.3044 160.49 21.6351 160.812 21.3042L157.944 18.5158ZM156.153 23.69V33H160.153V23.69H156.153ZM158.153 31H152.693V35H158.153V31ZM154.693 33V14.17H150.693V33H154.693ZM152.693 16.17H157.908V12.17H152.693V16.17ZM155.908 14.17V16.375H159.908V14.17H155.908ZM159.386 17.7225C159.887 17.1725 160.523 16.734 161.332 16.4175L159.874 12.6925C158.536 13.216 157.375 13.9908 156.43 15.0275L159.386 17.7225ZM161.366 16.4035C162.173 16.0702 163.089 15.89 164.138 15.89V11.89C162.62 11.89 161.179 12.1531 159.839 12.7065L161.366 16.4035ZM184.977 25.615L186.534 24.3602L185.147 22.6379L183.572 24.1913L184.977 25.615ZM182.352 28.205L180.947 26.7813L180.352 27.3687V28.205H182.352ZM182.352 33V35H184.352V33H182.352ZM176.892 33H174.892V35H176.892V33ZM176.892 7.03V5.03H174.892V7.03H176.892ZM182.352 7.03H184.352V5.03H182.352V7.03ZM182.352 21.73H180.352V26.3797L183.728 23.1819L182.352 21.73ZM190.332 14.17V12.17H189.535L188.957 12.7181L190.332 14.17ZM196.842 14.17L198.269 15.5716L201.611 12.17H196.842V14.17ZM189.002 22.15L187.575 20.7484L186.342 22.0039L187.43 23.387L189.002 22.15ZM197.542 33V35H201.661L199.114 31.763L197.542 33ZM190.927 33L189.37 34.2548L189.97 35H190.927V33ZM183.572 24.1913L180.947 26.7813L183.757 29.6287L186.382 27.0387L183.572 24.1913ZM180.352 28.205V33H184.352V28.205H180.352ZM182.352 31H176.892V35H182.352V31ZM178.892 33V7.03H174.892V33H178.892ZM176.892 9.03H182.352V5.03H176.892V9.03ZM180.352 7.03V21.73H184.352V7.03H180.352ZM183.728 23.1819L191.708 15.6219L188.957 12.7181L180.977 20.2781L183.728 23.1819ZM190.332 16.17H196.842V12.17H190.332V16.17ZM195.415 12.7684L187.575 20.7484L190.429 23.5516L198.269 15.5716L195.415 12.7684ZM187.43 23.387L195.97 34.237L199.114 31.763L190.574 20.913L187.43 23.387ZM197.542 31H190.927V35H197.542V31ZM192.484 31.7452L186.534 24.3602L183.42 26.8698L189.37 34.2548L192.484 31.7452Z" fill="white"/>
</svg>
