<svg width="350" height="350" viewBox="0 0 350 350" fill="none" xmlns="http://www.w3.org/2000/svg">
<path d="M174.335 340.235C265.422 340.235 339.262 297.603 339.262 245.014C339.262 192.425 265.422 149.793 174.335 149.793C83.2485 149.793 9.4082 192.425 9.4082 245.014C9.4082 297.603 83.2485 340.235 174.335 340.235Z" fill="#F0F0F0"/>
<path d="M269.052 278.054C258.237 271.81 258.237 261.688 269.052 255.444C279.867 249.2 297.402 249.2 308.217 255.444C319.032 261.688 319.032 271.81 308.217 278.054C297.402 284.298 279.867 284.298 269.052 278.054Z" fill="#E0E0E0"/>
<path d="M49.0838 278.922L20.6358 262.5C19.0328 261.576 19.0328 260.071 20.6358 259.147L186.109 163.611C187.008 163.155 188.002 162.918 189.01 162.918C190.019 162.918 191.013 163.155 191.912 163.611L220.367 180.033C221.97 180.957 221.97 182.462 220.367 183.386L54.8938 278.922C53.9933 279.378 52.9981 279.615 51.9888 279.615C50.9795 279.615 49.9844 279.378 49.0838 278.922Z" fill="#E0E0E0"/>
<path d="M151.34 249.648L175.798 235.508C178.318 234.052 179.578 232.148 179.578 230.237C179.578 228.326 179.578 226.835 179.578 226.835L154.21 212.527C153.502 212.069 152.911 211.449 152.488 210.719C152.065 209.989 151.82 209.17 151.774 208.327V178.164L109.074 202.846V232.995C109.123 233.837 109.369 234.655 109.793 235.385C110.216 236.114 110.804 236.734 111.51 237.195L133.098 249.627C138.124 252.56 146.3 252.56 151.34 249.648Z" fill="#56B5CB"/>
<g opacity="0.6">
<path opacity="0.6" d="M151.34 249.648L175.798 235.508C178.318 234.052 179.578 232.148 179.578 230.237C179.578 228.326 179.578 226.835 179.578 226.835L154.21 212.527C153.502 212.069 152.911 211.449 152.488 210.719C152.065 209.989 151.82 209.17 151.774 208.327V178.164L109.074 202.846V232.995C109.123 233.837 109.369 234.655 109.793 235.385C110.216 236.114 110.804 236.734 111.51 237.195L133.098 249.627C138.124 252.56 146.3 252.56 151.34 249.648Z" fill="black"/>
</g>
<path opacity="0.3" d="M119.315 238.336V241.724L111.489 237.209C110.783 236.749 110.195 236.129 109.773 235.399C109.351 234.669 109.107 233.851 109.06 233.009V202.846L117.194 198.149C117.362 200.214 117.544 202.349 117.719 204.449L112 207.739V231.294C112.045 232.137 112.29 232.957 112.713 233.687C113.137 234.417 113.727 235.036 114.436 235.494L119.315 238.336Z" fill="black"/>
<path d="M112 231.301C112.048 232.143 112.294 232.962 112.717 233.692C113.14 234.421 113.729 235.041 114.436 235.501L133.07 246.239C138.11 249.144 146.286 249.151 151.333 246.239L175.833 232.099C180.88 229.187 180.88 224.469 175.833 221.557L157.185 210.819C156.48 210.358 155.892 209.738 155.47 209.008C155.049 208.279 154.804 207.46 154.756 206.619V183.057L112.056 207.739L112 231.301Z" fill="#56B5CB"/>
<path opacity="0.3" d="M112 231.301C112.048 232.143 112.294 232.962 112.717 233.692C113.14 234.421 113.729 235.041 114.436 235.501L133.07 246.239C138.11 249.144 146.286 249.151 151.333 246.239L175.833 232.099C180.88 229.187 180.88 224.469 175.833 221.557L157.185 210.819C156.48 210.358 155.892 209.738 155.47 209.008C155.049 208.279 154.804 207.46 154.756 206.619V183.057L112.056 207.739L112 231.301Z" fill="black"/>
<path opacity="0.5" d="M162.12 213.696L157.157 210.833C156.452 210.372 155.865 209.752 155.443 209.022C155.021 208.293 154.776 207.474 154.728 206.633V183.057L112.028 207.739V231.301C112.076 232.143 112.322 232.962 112.745 233.692C113.168 234.421 113.757 235.041 114.464 235.501L119.364 238.301L162.12 213.696Z" fill="black"/>
<path d="M179.585 226.842V230.244C179.585 232.155 178.318 234.052 175.805 235.515L151.305 249.648C148.624 251.079 145.629 251.822 142.59 251.811V248.423C145.629 248.434 148.624 247.691 151.305 246.26L175.805 232.113C178.318 230.664 179.585 228.753 179.585 226.842Z" fill="#56B5CB"/>
<path opacity="0.5" d="M179.585 226.842V230.244C179.585 232.155 178.318 234.052 175.805 235.515L151.305 249.648C148.624 251.079 145.629 251.822 142.59 251.811V248.423C145.629 248.434 148.624 247.691 151.305 246.26L175.805 232.113C178.318 230.664 179.585 228.753 179.585 226.842Z" fill="black"/>
<path d="M43.4001 260.582C44.3232 261.028 45.3381 261.251 46.3631 261.232C47.3881 261.214 48.3944 260.955 49.3011 260.477L214.501 165.102C215.387 164.524 216.124 163.746 216.653 162.83C217.182 161.914 217.488 160.887 217.546 159.831V26.187C217.514 25.1597 217.241 24.1544 216.747 23.253C216.253 22.3516 215.553 21.5796 214.704 21C213.782 20.5537 212.768 20.3312 211.744 20.3507C210.72 20.3701 209.714 20.631 208.81 21.112L43.6101 116.515C42.7274 117.096 41.9946 117.878 41.4715 118.797C40.9484 119.715 40.6498 120.744 40.6001 121.8V255.423C40.6313 256.442 40.9009 257.439 41.3871 258.335C41.8734 259.231 42.5628 260.001 43.4001 260.582Z" fill="#56B5CB"/>
<path d="M49.3223 260.47L214.522 165.095C215.409 164.519 216.147 163.741 216.677 162.824C217.206 161.908 217.511 160.88 217.567 159.824V26.187C217.567 24.248 216.202 23.457 214.522 24.43L49.3223 119.805C48.4362 120.382 47.6986 121.161 47.1695 122.076C46.6405 122.992 46.3348 124.02 46.2773 125.076V258.713C46.2773 260.652 47.6423 261.443 49.3223 260.47Z" fill="#56B5CB"/>
<path opacity="0.5" d="M49.3223 260.47L214.522 165.095C215.409 164.519 216.147 163.741 216.677 162.824C217.206 161.908 217.511 160.88 217.567 159.824V26.187C217.567 24.248 216.202 23.457 214.522 24.43L49.3223 119.805C48.4362 120.382 47.6986 121.161 47.1695 122.076C46.6405 122.992 46.3348 124.02 46.2773 125.076V258.713C46.2773 260.652 47.6423 261.443 49.3223 260.47Z" fill="black"/>
<path d="M48.8741 263.942C48.0078 264.32 47.0698 264.506 46.1248 264.487C45.1798 264.467 44.2502 264.243 43.4001 263.83C42.5609 263.247 41.8703 262.475 41.384 261.577C40.8977 260.678 40.6292 259.678 40.6001 258.657V246.491L46.3051 249.795V261.961C46.2701 263.732 47.3971 264.537 48.8741 263.942Z" fill="#56B5CB"/>
<path opacity="0.5" d="M48.8741 263.942C48.0078 264.32 47.0698 264.506 46.1248 264.487C45.1798 264.467 44.2502 264.243 43.4001 263.83C42.5609 263.247 41.8703 262.475 41.384 261.577C40.8977 260.678 40.6292 259.678 40.6001 258.657V246.491L46.3051 249.795V261.961C46.2701 263.732 47.3971 264.537 48.8741 263.942Z" fill="black"/>
<path d="M46.27 249.795V261.961C46.27 263.9 47.67 264.684 49.315 263.718L214.515 168.343C215.397 167.768 216.132 166.994 216.661 166.084C217.19 165.173 217.498 164.151 217.56 163.1V150.878L46.27 249.795Z" fill="#56B5CB"/>
<path opacity="0.3" d="M46.2773 249.767V261.961C46.2773 263.9 47.6773 264.684 49.3223 263.718L214.522 168.343C215.403 167.767 216.137 166.993 216.664 166.083C217.192 165.172 217.499 164.151 217.56 163.1V150.878L46.2773 249.767Z" fill="black"/>
<path d="M51.9819 234.5V126.973C52.0145 126.34 52.1964 125.723 52.5127 125.173C52.8289 124.623 53.2707 124.156 53.8019 123.809L210 33.6001C211.008 33.0191 211.827 33.4881 211.827 34.6501V142.233C211.793 142.867 211.61 143.484 211.292 144.034C210.975 144.584 210.532 145.051 210 145.397L53.8089 235.585C52.8009 236.166 51.9819 235.69 51.9819 234.5Z" fill="#56B5CB"/>
<path d="M51.9819 234.5V126.973C52.0145 126.34 52.1964 125.723 52.5127 125.173C52.8289 124.623 53.2707 124.156 53.8019 123.809L210 33.6001C211.008 33.0191 211.827 33.4881 211.827 34.6501V142.233C211.793 142.867 211.61 143.484 211.292 144.034C210.975 144.584 210.532 145.051 210 145.397L53.8089 235.585C52.8009 236.166 51.9819 235.69 51.9819 234.5Z" fill="#263238"/>
<path d="M131.915 204.211C131.084 204.752 130.392 205.481 129.895 206.34C129.399 207.199 129.112 208.163 129.059 209.153C129.059 210.973 130.34 211.715 131.915 210.805C132.747 210.264 133.44 209.533 133.936 208.673C134.433 207.813 134.719 206.848 134.771 205.856C134.771 204.036 133.49 203.301 131.915 204.211Z" fill="#56B5CB"/>
<path opacity="0.7" d="M47.1731 122.066C46.6306 122.978 46.3205 124.009 46.2701 125.069V249.795L40.6001 246.491V121.8C40.6368 120.737 40.9453 119.7 41.4961 118.79L47.1731 122.066Z" fill="black"/>
<path opacity="0.3" d="M217.532 25.6831C217.315 24.1151 216.048 23.5831 214.515 24.4301L49.3151 119.805C48.4194 120.365 47.6801 121.143 47.1661 122.066L41.4541 118.769C41.9715 117.846 42.713 117.069 43.6101 116.508L208.81 21.1401C209.716 20.6589 210.722 20.3981 211.747 20.3786C212.773 20.3592 213.788 20.5817 214.711 21.0281C215.487 21.5568 216.141 22.246 216.627 23.0491C217.114 23.8522 217.423 24.7504 217.532 25.6831Z" fill="black"/>
<path d="M226.443 42.133C226.198 42.0098 225.923 41.9559 225.65 41.9768C225.376 41.9978 225.113 42.0929 224.889 42.252L69.013 132.3C68.398 132.707 67.8873 133.253 67.5225 133.894C67.1577 134.535 66.9489 135.252 66.913 135.989V242.858C66.8912 243.219 66.9628 243.579 67.121 243.904C67.2792 244.229 67.5186 244.508 67.816 244.713C68.159 244.902 69.993 245.966 70.539 246.26C70.7322 246.358 70.948 246.404 71.1645 246.391C71.3809 246.379 71.5902 246.31 71.771 246.19L227.612 156.142C228.227 155.735 228.738 155.189 229.103 154.548C229.467 153.907 229.676 153.19 229.712 152.453V45.031C229.743 44.7595 229.698 44.4847 229.582 44.2374C229.466 43.9901 229.283 43.7801 229.054 43.631C228.704 43.4 226.835 42.364 226.443 42.133Z" fill="#56B5CB"/>
<path d="M71.7362 133.812L227.619 43.7989C228.795 43.0989 229.719 43.6729 229.719 45.0309V152.453C229.683 153.189 229.475 153.907 229.11 154.548C228.745 155.189 228.234 155.735 227.619 156.142L71.7362 246.19C70.5602 246.89 69.6362 245.763 69.6362 244.405V137.501C69.6732 136.765 69.8825 136.047 70.2472 135.406C70.6119 134.766 71.1219 134.22 71.7362 133.812Z" fill="#FAFAFA"/>
<path d="M228.571 44.2049C228.984 44.2049 229.047 44.7229 229.047 45.0309V152.453C229.009 153.07 228.829 153.669 228.519 154.204C228.209 154.738 227.779 155.194 227.262 155.533L71.4002 245.581C71.2956 245.649 71.1748 245.687 71.0502 245.693C70.6582 245.693 70.3502 245.091 70.3502 244.405V137.501C70.384 136.884 70.5595 136.284 70.863 135.746C71.1665 135.208 71.5898 134.748 72.1002 134.4L227.969 44.4009C228.15 44.2845 228.357 44.217 228.571 44.2049ZM228.571 43.5049C228.234 43.5192 227.906 43.6205 227.619 43.7989L71.7362 133.812C71.1219 134.22 70.6119 134.766 70.2472 135.406C69.8825 136.047 69.6732 136.765 69.6362 137.501V244.405C69.6362 245.483 70.2382 246.393 71.0362 246.393C71.2834 246.388 71.5249 246.318 71.7362 246.19L227.612 156.142C228.227 155.735 228.738 155.189 229.103 154.548C229.468 153.907 229.676 153.189 229.712 152.453V45.0309C229.712 44.0649 229.236 43.5049 228.536 43.5049H228.571Z" fill="#E0E0E0"/>
<path d="M67.7741 244.713C68.0051 244.832 69.6641 245.777 70.3921 246.197C70.1307 245.98 69.9237 245.705 69.7876 245.394C69.6514 245.083 69.59 244.744 69.6081 244.405V144.48L66.8781 142.884V242.858C66.8555 243.218 66.9261 243.578 67.0831 243.903C67.24 244.228 67.478 244.507 67.7741 244.713Z" fill="#F0F0F0"/>
<path d="M229.747 45.0099C229.747 43.6659 228.788 43.1199 227.647 43.7989L71.7362 133.812C71.1219 134.22 70.6119 134.766 70.2472 135.406C69.8825 136.047 69.6732 136.765 69.6362 137.501V144.501L229.747 52.0099V45.0099Z" fill="#56B5CB"/>
<g opacity="0.4">
<path opacity="0.4" d="M227.619 43.799L71.7363 133.805C71.1107 134.199 70.5953 134.746 70.2383 135.394L67.5293 133.819C67.8857 133.194 68.3967 132.671 69.0133 132.3L224.889 42.252C225.112 42.0918 225.375 41.9954 225.649 41.9732C225.923 41.951 226.197 42.0038 226.443 42.126C226.821 42.364 228.592 43.365 229.047 43.61C228.812 43.5227 228.559 43.4943 228.31 43.5272C228.061 43.5601 227.824 43.6534 227.619 43.799Z" fill="white"/>
</g>
<path opacity="0.15" d="M66.8779 142.891V135.954C66.9067 135.198 67.131 134.462 67.5289 133.819L70.2449 135.387C69.8527 136.019 69.633 136.743 69.6079 137.487V144.487L66.8779 142.891Z" fill="black"/>
<path d="M196.875 125.594L103.516 179.494C103.062 179.789 102.684 180.186 102.413 180.654C102.142 181.123 101.985 181.649 101.955 182.189V208.957C101.985 209.497 102.142 210.023 102.413 210.491C102.684 210.96 103.062 211.357 103.516 211.652L106.239 213.22C106.723 213.465 107.258 213.592 107.8 213.592C108.342 213.592 108.877 213.465 109.361 213.22L202.706 159.32C203.16 159.024 203.538 158.625 203.809 158.155C204.081 157.686 204.237 157.159 204.267 156.618V129.843C204.237 129.303 204.081 128.777 203.809 128.308C203.538 127.84 203.16 127.443 202.706 127.148L199.976 125.58C199.494 125.339 198.963 125.215 198.424 125.217C197.885 125.22 197.355 125.349 196.875 125.594Z" fill="#56B5CB"/>
<path opacity="0.5" d="M204.267 129.605C204.155 128.8 203.504 128.506 202.72 128.961L109.361 182.861C108.901 183.147 108.522 183.547 108.262 184.023L102.417 180.649C102.679 180.181 103.054 179.786 103.509 179.501L196.875 125.601C197.358 125.356 197.891 125.228 198.432 125.228C198.974 125.228 199.507 125.356 199.99 125.601L202.72 127.169C203.136 127.442 203.489 127.8 203.756 128.22C204.023 128.64 204.197 129.112 204.267 129.605Z" fill="white"/>
<path d="M109.095 213.353C108.638 213.533 108.148 213.615 107.657 213.593C107.166 213.572 106.686 213.447 106.246 213.227L103.516 211.659C103.063 211.363 102.685 210.966 102.414 210.498C102.143 210.029 101.986 209.504 101.955 208.964V182.196C101.976 181.65 102.135 181.117 102.417 180.649L108.262 184.023C107.978 184.485 107.819 185.014 107.8 185.556V212.331C107.8 213.22 108.36 213.633 109.095 213.353Z" fill="#263238"/>
<path d="M109.361 182.861L202.72 128.961C203.581 128.464 204.281 128.863 204.281 129.857V156.632C204.251 157.173 204.094 157.7 203.823 158.17C203.552 158.639 203.174 159.038 202.72 159.334L109.375 213.234C108.514 213.731 107.814 213.325 107.814 212.331V185.563C107.842 185.023 107.997 184.497 108.265 184.028C108.534 183.558 108.909 183.159 109.361 182.861Z" fill="#56B5CB"/>
<path d="M172.123 139.888L103.523 179.501C103.069 179.786 102.693 180.181 102.431 180.649L108.276 184.023C108.536 183.547 108.915 183.147 109.375 182.861L177.975 143.255L172.123 139.888Z" fill="#455A64"/>
<path d="M177.961 143.255L109.361 182.861C108.907 183.157 108.529 183.556 108.258 184.025C107.987 184.495 107.83 185.022 107.8 185.563V212.324C107.8 213.318 108.5 213.724 109.361 213.227L177.961 173.621V143.255Z" fill="#37474F"/>
<path d="M125.181 179.599L160.58 159.166C162.043 158.319 163.233 158.921 163.233 160.51C163.168 161.402 162.893 162.267 162.43 163.033C161.968 163.799 161.332 164.446 160.573 164.92L125.181 185.36C123.718 186.207 122.521 185.605 122.521 184.016C122.587 183.123 122.862 182.258 123.324 181.49C123.786 180.723 124.422 180.075 125.181 179.599Z" fill="#56B5CB"/>
<path d="M132.433 186.368C132.44 186.36 132.448 186.355 132.457 186.35C132.466 186.346 132.476 186.344 132.486 186.344C132.496 186.344 132.505 186.346 132.515 186.35C132.524 186.355 132.532 186.36 132.538 186.368C132.57 186.416 132.584 186.472 132.58 186.529V190.512C132.581 190.897 132.548 191.281 132.482 191.66C132.424 192.006 132.326 192.345 132.188 192.668C132.063 192.964 131.898 193.242 131.698 193.494C131.501 193.728 131.264 193.924 130.998 194.075C130.79 194.211 130.547 194.284 130.298 194.285C130.203 194.277 130.111 194.251 130.026 194.206C129.942 194.161 129.868 194.1 129.808 194.026C129.655 193.82 129.554 193.58 129.514 193.326C129.447 192.987 129.417 192.642 129.423 192.297V188.307C129.423 188.237 129.437 188.168 129.465 188.104C129.482 188.046 129.52 187.997 129.57 187.964L130.011 187.705C130.025 187.692 130.044 187.684 130.064 187.684C130.083 187.684 130.102 187.692 130.116 187.705C130.149 187.752 130.163 187.809 130.158 187.866V191.8C130.153 192.016 130.174 192.233 130.221 192.444C130.241 192.579 130.299 192.706 130.389 192.808C130.421 192.845 130.461 192.875 130.505 192.895C130.55 192.914 130.599 192.923 130.648 192.92C130.768 192.912 130.884 192.873 130.984 192.808C131.109 192.734 131.222 192.642 131.32 192.535C131.429 192.409 131.519 192.267 131.586 192.115C131.665 191.935 131.724 191.748 131.761 191.555C131.802 191.324 131.821 191.09 131.817 190.855V186.914C131.819 186.844 131.836 186.775 131.866 186.711C131.883 186.653 131.921 186.604 131.971 186.571L132.433 186.368Z" fill="#FAFAFA"/>
<path d="M135.177 190.134C135.181 190.083 135.168 190.031 135.142 189.987C135.125 189.969 135.105 189.955 135.081 189.946C135.058 189.938 135.033 189.935 135.009 189.938C134.923 189.926 134.836 189.926 134.75 189.938L134.344 190.015C134.213 190.048 134.076 190.048 133.945 190.015C133.842 189.982 133.754 189.915 133.693 189.826C133.625 189.712 133.579 189.586 133.56 189.455C133.492 189.08 133.492 188.696 133.56 188.321C133.613 188.106 133.688 187.897 133.784 187.698C133.88 187.499 133.997 187.311 134.134 187.138C134.266 186.973 134.428 186.833 134.61 186.725C134.757 186.635 134.922 186.578 135.093 186.557C135.217 186.544 135.342 186.571 135.45 186.634C135.553 186.697 135.633 186.79 135.681 186.9C135.737 187.031 135.768 187.171 135.772 187.313C135.779 187.383 135.765 187.454 135.73 187.516C135.713 187.574 135.676 187.623 135.625 187.656L135.205 187.901C135.186 187.912 135.164 187.918 135.142 187.918C135.12 187.918 135.098 187.912 135.079 187.901L134.988 187.831C134.952 187.802 134.908 187.785 134.862 187.782C134.772 187.792 134.686 187.823 134.61 187.873C134.5 187.939 134.403 188.025 134.323 188.125C134.238 188.235 134.194 188.371 134.197 188.51C134.187 188.563 134.187 188.618 134.197 188.671C134.21 188.691 134.228 188.707 134.249 188.719C134.269 188.731 134.292 188.739 134.316 188.741C134.392 188.754 134.471 188.754 134.547 188.741L134.939 188.671C135.268 188.608 135.492 188.671 135.639 188.853C135.793 189.112 135.864 189.413 135.842 189.714C135.84 189.922 135.812 190.129 135.758 190.33C135.703 190.548 135.623 190.76 135.52 190.96C135.417 191.167 135.288 191.36 135.135 191.534C134.99 191.704 134.817 191.849 134.624 191.961C134.47 192.059 134.295 192.119 134.113 192.136C133.981 192.141 133.852 192.104 133.742 192.031C133.634 191.957 133.551 191.852 133.504 191.73C133.447 191.597 133.419 191.454 133.42 191.31C133.413 191.237 133.428 191.164 133.462 191.1C133.479 191.042 133.516 190.993 133.567 190.96L133.987 190.715C134.043 190.715 134.085 190.68 134.113 190.715L134.204 190.813C134.223 190.834 134.245 190.851 134.27 190.863C134.296 190.875 134.323 190.882 134.351 190.883C134.45 190.883 134.545 190.852 134.624 190.792C134.75 190.72 134.864 190.628 134.96 190.519C135.008 190.461 135.048 190.398 135.079 190.33C135.128 190.274 135.162 190.207 135.177 190.134Z" fill="#FAFAFA"/>
<path d="M136.605 188.237C136.604 187.873 136.634 187.51 136.696 187.152C136.755 186.815 136.846 186.484 136.969 186.165C137.072 185.879 137.213 185.608 137.389 185.36C137.536 185.147 137.727 184.968 137.949 184.835C138.111 184.726 138.309 184.683 138.502 184.716C138.673 184.756 138.823 184.858 138.922 185.003C139.054 185.193 139.147 185.407 139.195 185.633C139.262 185.927 139.295 186.228 139.293 186.529V186.963C139.295 187.036 139.279 187.108 139.244 187.173C139.227 187.231 139.19 187.28 139.139 187.313L137.319 188.37C137.315 188.493 137.331 188.616 137.368 188.734C137.395 188.813 137.444 188.884 137.508 188.937C137.566 188.983 137.638 189.005 137.711 189C137.796 188.99 137.877 188.961 137.949 188.916C138.055 188.859 138.15 188.783 138.229 188.692C138.301 188.611 138.362 188.522 138.411 188.426C138.441 188.371 138.474 188.317 138.509 188.265C138.539 188.229 138.575 188.199 138.614 188.174L139.048 187.922C139.063 187.91 139.082 187.904 139.101 187.904C139.12 187.904 139.138 187.91 139.153 187.922C139.172 187.944 139.185 187.97 139.192 187.998C139.199 188.026 139.2 188.055 139.195 188.083C139.188 188.22 139.159 188.354 139.111 188.482C139.051 188.676 138.971 188.864 138.873 189.042C138.764 189.247 138.632 189.439 138.481 189.616C138.331 189.796 138.151 189.95 137.949 190.071C137.784 190.179 137.586 190.226 137.389 190.204C137.217 190.163 137.067 190.058 136.969 189.91C136.831 189.698 136.738 189.46 136.696 189.21C136.633 188.89 136.602 188.564 136.605 188.237ZM137.949 186.004C137.842 186.062 137.748 186.143 137.676 186.242C137.599 186.34 137.535 186.448 137.487 186.564C137.438 186.68 137.398 186.799 137.368 186.921C137.344 187.032 137.327 187.144 137.319 187.257L138.551 186.557C138.544 186.46 138.53 186.365 138.509 186.27C138.498 186.185 138.465 186.106 138.411 186.039C138.39 186.009 138.363 185.983 138.332 185.964C138.301 185.945 138.266 185.932 138.229 185.927C138.13 185.919 138.03 185.946 137.949 186.004Z" fill="#FAFAFA"/>
<path d="M141.491 184.051C141.279 184.172 141.112 184.359 141.015 184.583C140.906 184.878 140.856 185.192 140.868 185.507V188.034C140.869 188.106 140.855 188.178 140.826 188.244C140.809 188.302 140.772 188.351 140.721 188.384L140.308 188.622C140.302 188.629 140.294 188.635 140.285 188.639C140.276 188.644 140.266 188.646 140.256 188.646C140.246 188.646 140.236 188.644 140.227 188.639C140.218 188.635 140.21 188.629 140.203 188.622C140.172 188.574 140.157 188.518 140.161 188.461V183.932C140.162 183.86 140.176 183.789 140.203 183.722C140.223 183.666 140.26 183.617 140.308 183.582L140.721 183.344C140.736 183.331 140.754 183.323 140.774 183.323C140.793 183.323 140.812 183.331 140.826 183.344C140.859 183.388 140.874 183.443 140.868 183.498V183.722C140.952 183.534 141.055 183.356 141.176 183.19C141.287 183.037 141.431 182.91 141.596 182.819L141.848 182.672C141.861 182.659 141.879 182.652 141.897 182.652C141.916 182.652 141.933 182.659 141.946 182.672C141.98 182.719 141.997 182.775 141.995 182.833V183.47C141.994 183.543 141.977 183.614 141.946 183.68C141.929 183.736 141.894 183.784 141.848 183.82L141.491 184.051Z" fill="#FAFAFA"/>
<path d="M146.713 183.715C146.72 183.708 146.728 183.702 146.737 183.697C146.746 183.693 146.756 183.691 146.766 183.691C146.775 183.691 146.785 183.693 146.794 183.697C146.803 183.702 146.811 183.708 146.818 183.715C146.849 183.763 146.864 183.819 146.86 183.876V184.576C146.86 184.648 146.845 184.719 146.818 184.786C146.794 184.838 146.758 184.884 146.713 184.919L144.319 186.319C144.305 186.332 144.286 186.34 144.267 186.34C144.247 186.34 144.228 186.332 144.214 186.319C144.183 186.274 144.168 186.22 144.172 186.165V179.865C144.172 179.793 144.187 179.722 144.214 179.655C144.234 179.6 144.271 179.554 144.319 179.522L144.76 179.263C144.774 179.25 144.793 179.242 144.813 179.242C144.832 179.242 144.851 179.25 144.865 179.263C144.896 179.308 144.911 179.362 144.907 179.417V184.744L146.713 183.715Z" fill="#FAFAFA"/>
<path d="M148.862 178.535C149.02 178.426 149.21 178.374 149.401 178.388C149.565 178.401 149.718 178.476 149.828 178.598C149.959 178.748 150.054 178.925 150.108 179.116C150.183 179.364 150.225 179.62 150.234 179.879C150.234 179.935 150.234 180.012 150.234 180.103V180.642C150.234 180.726 150.234 180.803 150.234 180.866C150.22 181.17 150.178 181.473 150.108 181.769C150.043 182.058 149.95 182.339 149.828 182.609C149.717 182.86 149.574 183.095 149.401 183.309C149.254 183.502 149.071 183.666 148.862 183.792C148.7 183.897 148.509 183.949 148.316 183.939C148.155 183.925 148.004 183.85 147.896 183.729C147.762 183.584 147.666 183.409 147.616 183.218C147.541 182.97 147.499 182.714 147.49 182.455C147.49 182.399 147.49 182.329 147.49 182.238V181.699C147.49 181.608 147.49 181.531 147.49 181.475C147.498 181.168 147.538 180.863 147.609 180.565C147.677 180.274 147.773 179.99 147.896 179.718C148.007 179.469 148.148 179.233 148.316 179.018C148.465 178.823 148.65 178.658 148.862 178.535ZM149.52 180.341C149.52 180.186 149.494 180.032 149.443 179.886C149.417 179.797 149.363 179.718 149.289 179.662C149.23 179.622 149.158 179.605 149.086 179.613C149.006 179.628 148.93 179.659 148.862 179.704C148.78 179.749 148.705 179.806 148.638 179.872C148.558 179.955 148.49 180.05 148.435 180.152C148.365 180.279 148.313 180.416 148.281 180.558C148.235 180.737 148.207 180.92 148.197 181.104C148.197 181.16 148.197 181.223 148.197 181.3V181.797C148.197 181.874 148.197 181.937 148.197 181.979C148.204 182.134 148.232 182.287 148.281 182.434C148.307 182.523 148.361 182.602 148.435 182.658C148.464 182.679 148.497 182.693 148.532 182.7C148.567 182.707 148.603 182.707 148.638 182.7C148.718 182.687 148.794 182.658 148.862 182.616C148.943 182.569 149.019 182.513 149.086 182.448C149.164 182.363 149.232 182.269 149.289 182.168C149.357 182.039 149.408 181.903 149.443 181.762C149.489 181.583 149.515 181.4 149.52 181.216C149.524 181.151 149.524 181.085 149.52 181.02V180.53C149.524 180.467 149.524 180.404 149.52 180.341Z" fill="#FAFAFA"/>
<path d="M152.376 182.63C152.466 182.575 152.546 182.507 152.614 182.427C152.699 182.328 152.771 182.22 152.831 182.105C152.901 181.964 152.955 181.816 152.992 181.664C153.035 181.492 153.056 181.316 153.055 181.139V180.782C153.055 180.852 152.985 180.936 152.936 181.034C152.888 181.136 152.832 181.235 152.768 181.328C152.695 181.426 152.616 181.52 152.53 181.608C152.442 181.7 152.341 181.778 152.229 181.839C152.157 181.888 152.076 181.922 151.991 181.939C151.905 181.956 151.817 181.955 151.732 181.937C151.577 181.888 151.443 181.787 151.354 181.65C151.24 181.469 151.157 181.27 151.109 181.062C151.05 180.798 151.017 180.528 151.011 180.257C151.011 180.166 151.011 180.054 151.011 179.921C151.011 179.788 151.011 179.676 151.011 179.578C151.02 179.27 151.053 178.964 151.109 178.661C151.167 178.363 151.249 178.07 151.354 177.786C151.453 177.539 151.58 177.304 151.732 177.086C151.861 176.893 152.031 176.731 152.229 176.61C152.322 176.554 152.424 176.514 152.53 176.491C152.609 176.476 152.69 176.476 152.768 176.491C152.83 176.508 152.888 176.54 152.936 176.582C152.981 176.616 153.021 176.656 153.055 176.701V176.477C153.056 176.405 153.07 176.334 153.097 176.267C153.117 176.212 153.154 176.166 153.202 176.134L153.615 175.889C153.629 175.876 153.648 175.868 153.668 175.868C153.687 175.868 153.706 175.876 153.72 175.889C153.754 175.936 153.771 175.992 153.769 176.05V180.6C153.788 181.281 153.662 181.959 153.398 182.588C153.192 183.082 152.834 183.499 152.376 183.778C152.22 183.875 152.042 183.93 151.858 183.939C151.713 183.948 151.569 183.911 151.445 183.834C151.327 183.745 151.231 183.63 151.165 183.498C151.097 183.338 151.059 183.167 151.053 182.994C151.047 182.921 151.061 182.848 151.095 182.784C151.112 182.726 151.15 182.677 151.2 182.644L151.571 182.434C151.58 182.425 151.59 182.418 151.601 182.413C151.613 182.408 151.625 182.405 151.638 182.405C151.65 182.405 151.663 182.408 151.674 182.413C151.685 182.418 151.696 182.425 151.704 182.434C151.739 182.47 151.769 182.51 151.795 182.553C151.838 182.628 151.908 182.683 151.991 182.707C152.075 182.77 152.201 182.7 152.376 182.63ZM151.718 179.235C151.718 179.422 151.718 179.604 151.718 179.781C151.698 180.061 151.778 180.338 151.942 180.565C152.005 180.619 152.084 180.648 152.166 180.648C152.248 180.648 152.328 180.619 152.39 180.565C152.593 180.433 152.752 180.243 152.845 180.019C152.973 179.727 153.044 179.413 153.055 179.095C153.055 178.99 153.055 178.864 153.055 178.717C153.055 178.57 153.055 178.444 153.055 178.353C153.069 178.102 152.995 177.854 152.845 177.653C152.783 177.596 152.702 177.564 152.618 177.564C152.533 177.564 152.452 177.596 152.39 177.653C152.191 177.785 152.035 177.972 151.942 178.192C151.798 178.521 151.722 178.876 151.718 179.235Z" fill="#FAFAFA"/>
<path d="M155.4 173.019C155.414 173.008 155.432 173.001 155.449 173.001C155.467 173.001 155.485 173.008 155.498 173.019C155.535 173.064 155.553 173.122 155.547 173.18V173.943C155.548 174.016 155.531 174.088 155.498 174.153C155.479 174.206 155.445 174.252 155.4 174.286L154.931 174.559C154.925 174.566 154.917 174.572 154.908 174.576C154.899 174.581 154.889 174.583 154.879 174.583C154.869 174.583 154.859 174.581 154.85 174.576C154.841 174.572 154.833 174.566 154.826 174.559C154.808 174.538 154.794 174.514 154.786 174.487C154.777 174.461 154.775 174.433 154.777 174.405V173.642C154.777 173.569 154.794 173.497 154.826 173.432C154.846 173.377 154.883 173.331 154.931 173.299L155.4 173.019ZM155.519 179.592C155.52 179.662 155.505 179.731 155.477 179.795C155.455 179.85 155.419 179.898 155.372 179.935L154.952 180.173C154.947 180.18 154.939 180.186 154.931 180.19C154.922 180.194 154.913 180.196 154.903 180.196C154.894 180.196 154.885 180.194 154.876 180.19C154.868 180.186 154.86 180.18 154.854 180.173C154.818 180.128 154.8 180.07 154.805 180.012V175.483C154.805 175.41 154.822 175.338 154.854 175.273C154.874 175.218 154.908 175.17 154.952 175.133L155.372 174.895C155.387 174.882 155.405 174.874 155.425 174.874C155.444 174.874 155.463 174.882 155.477 174.895C155.509 174.94 155.524 174.994 155.519 175.049V179.592Z" fill="#FAFAFA"/>
<path d="M159.201 177.457C159.201 177.529 159.187 177.6 159.159 177.667C159.14 177.721 159.103 177.768 159.054 177.8L158.634 178.045C158.621 178.058 158.604 178.065 158.585 178.065C158.567 178.065 158.549 178.058 158.536 178.045C158.5 178 158.482 177.942 158.487 177.884V175.42C158.509 175.129 158.456 174.838 158.333 174.573C158.235 174.398 158.081 174.37 157.864 174.496C157.648 174.641 157.487 174.856 157.409 175.105C157.292 175.435 157.236 175.784 157.241 176.134V178.605C157.241 178.677 157.227 178.748 157.199 178.815C157.182 178.873 157.145 178.922 157.094 178.955L156.681 179.193C156.675 179.2 156.667 179.206 156.658 179.21C156.649 179.215 156.639 179.217 156.629 179.217C156.619 179.217 156.609 179.215 156.6 179.21C156.591 179.206 156.583 179.2 156.576 179.193C156.544 179.148 156.529 179.094 156.534 179.039V174.51C156.533 174.438 156.548 174.366 156.576 174.3C156.593 174.242 156.631 174.193 156.681 174.16L157.094 173.922C157.101 173.914 157.109 173.908 157.118 173.904C157.127 173.9 157.137 173.898 157.147 173.898C157.157 173.898 157.167 173.9 157.176 173.904C157.185 173.908 157.193 173.914 157.199 173.922C157.231 173.969 157.245 174.026 157.241 174.083V174.3C157.333 174.087 157.446 173.883 157.577 173.691C157.693 173.514 157.849 173.368 158.032 173.264C158.192 173.147 158.39 173.097 158.585 173.124C158.663 173.143 158.735 173.179 158.798 173.229C158.861 173.278 158.912 173.34 158.949 173.411C159.051 173.6 159.117 173.807 159.145 174.02C159.183 174.298 159.201 174.579 159.201 174.86V177.457Z" fill="#FAFAFA"/>
<path d="M194.509 157.08L187.712 161L188.769 151.466C187.95 151.032 187.432 149.975 187.432 148.456C187.432 145.747 189.084 142.604 191.114 141.456C193.144 140.308 194.789 141.526 194.789 144.256C194.747 145.862 194.289 147.43 193.459 148.806L194.509 157.08Z" fill="#455A64"/>
<path d="M194.516 157.08L188.531 153.629L187.712 161.007L194.516 157.08Z" fill="#37474F"/>
<path d="M191.1 141.435C189.62 142.435 188.516 143.901 187.964 145.6L193.445 148.764C194.275 147.388 194.733 145.82 194.775 144.214C194.789 141.505 193.144 140.266 191.1 141.435Z" fill="#37474F"/>
<path d="M158.06 109.69C155.729 108.346 152.516 108.535 148.96 110.586C141.862 114.688 136.108 124.649 136.108 132.846C136.108 136.962 137.564 139.846 139.902 141.176L144.431 143.808C146.755 145.152 149.968 144.956 153.531 142.905C160.629 138.81 166.383 128.842 166.383 120.645C166.383 116.55 164.941 113.645 162.617 112.336" fill="#56B5CB"/>
<path d="M153.524 113.225C146.426 117.327 140.672 127.295 140.672 135.485C140.672 143.675 146.426 147.007 153.524 142.905C160.622 138.803 166.383 128.842 166.376 120.645C166.369 112.448 160.615 109.13 153.524 113.225Z" fill="#56B5CB"/>
<path d="M160.615 131.411V132.349C158.915 135.384 156.476 137.941 153.524 139.783C150.759 141.372 148.26 141.547 146.426 140.532V138.6C146.52 136.59 147.094 134.632 148.1 132.889C149.106 131.146 150.515 129.67 152.208 128.583L154.077 127.505C155.729 126.553 157.339 126.427 158.599 127.162C159.859 127.897 160.615 129.444 160.615 131.411Z" fill="#56B5CB"/>
<path opacity="0.4" d="M158.06 109.69L162.61 112.336C160.286 110.985 157.073 111.174 153.51 113.225C148.862 115.913 144.788 121.114 142.534 126.686L137.977 124.047C140.238 118.447 144.277 113.274 148.953 110.586C152.523 108.542 155.736 108.346 158.06 109.69Z" fill="white"/>
<path opacity="0.2" d="M144.27 143.703L139.909 141.176C137.571 139.846 136.115 136.976 136.115 132.846L140.672 135.492C140.7 139.482 142.044 142.324 144.27 143.703Z" fill="black"/>
<path opacity="0.1" d="M137.991 124.047L142.548 126.686C141.38 129.475 140.753 132.461 140.7 135.485L136.143 132.839C136.199 129.818 136.826 126.835 137.991 124.047Z" fill="black"/>
<path d="M151.9 127.064C151.466 127.069 151.038 126.958 150.661 126.742C150.207 126.439 149.843 126.019 149.607 125.526C149.372 125.033 149.274 124.486 149.324 123.942C149.384 122.667 149.748 121.424 150.386 120.318C151.024 119.212 151.918 118.276 152.992 117.586C153.424 117.241 153.95 117.035 154.5 116.994C155.051 116.953 155.601 117.079 156.079 117.356C156.557 117.633 156.941 118.047 157.179 118.545C157.418 119.044 157.5 119.602 157.416 120.148C157.356 121.423 156.991 122.665 156.353 123.771C155.715 124.877 154.822 125.814 153.748 126.504C153.193 126.851 152.555 127.044 151.9 127.064Z" fill="white"/>
<path d="M158.599 127.155C157.339 126.42 155.729 126.546 154.077 127.498L152.208 128.576C150.514 129.663 149.104 131.141 148.098 132.885C147.092 134.629 146.519 136.589 146.426 138.6V140.539C148.26 141.554 150.759 141.379 153.524 139.79C156.476 137.948 158.915 135.391 160.615 132.356V131.418C160.615 129.444 159.887 127.897 158.599 127.155Z" fill="white"/>
<path d="M302.505 248.255C302.505 248.255 303.436 240.079 307.503 233.73C311.57 227.381 317.156 223.426 322.371 223.013C327.586 222.6 331.8 227.402 326.221 230.713C320.642 234.024 310.73 237.37 306.166 249.69L302.505 248.255Z" fill="#56B5CB"/>
<path opacity="0.1" d="M302.505 248.255C302.505 248.255 303.436 240.079 307.503 233.73C311.57 227.381 317.156 223.426 322.371 223.013C327.586 222.6 331.8 227.402 326.221 230.713C320.642 234.024 310.73 237.37 306.166 249.69L302.505 248.255Z" fill="black"/>
<path d="M304.038 246.127H303.982C303.913 246.099 303.859 246.045 303.83 245.977C303.801 245.909 303.8 245.832 303.828 245.763C309.33 232.218 319.802 226.555 324.576 225.463C324.612 225.455 324.649 225.454 324.685 225.46C324.721 225.466 324.756 225.479 324.787 225.498C324.819 225.518 324.846 225.543 324.867 225.573C324.888 225.603 324.904 225.637 324.912 225.673C324.92 225.709 324.921 225.746 324.915 225.782C324.909 225.819 324.896 225.853 324.877 225.884C324.857 225.916 324.832 225.943 324.802 225.964C324.772 225.985 324.738 226.001 324.702 226.009C320.026 227.087 309.757 232.645 304.346 245.98C304.319 246.036 304.274 246.081 304.218 246.108C304.162 246.134 304.098 246.141 304.038 246.127Z" fill="white"/>
<path d="M331.884 246.288C331.415 247.352 330.253 247.912 329.175 248.346C328.097 248.78 326.921 249.249 326.333 250.257C325.157 252.287 327.089 255.157 325.829 257.124C325.532 257.52 325.159 257.852 324.73 258.1C324.302 258.348 323.828 258.506 323.337 258.566C322.532 258.713 321.713 258.713 320.901 258.783C320.512 258.778 320.124 258.747 319.739 258.692C318.608 258.44 317.425 258.565 316.372 259.049C314.755 259.959 314.272 261.996 313.278 263.571C312.671 264.498 311.87 265.284 310.932 265.873C309.993 266.463 308.938 266.843 307.839 266.987C307.139 267.078 305.739 267.211 305.039 266.798C304.984 266.771 304.933 266.738 304.885 266.7C304.78 266.588 304.654 266.441 304.598 266.364C304.594 266.348 304.594 266.331 304.598 266.315C304.311 265.258 304.78 264.166 304.801 263.074V262.878C304.752 261.611 304.717 260.351 304.689 259.091C304.628 256.758 304.605 254.424 304.619 252.091C304.619 250.579 304.451 248.927 305.095 247.506C305.795 245.938 307.559 245.903 308.224 244.37C308.49 243.754 308.63 243.103 308.889 242.48C309.289 241.574 309.93 240.796 310.743 240.229C311.555 239.663 312.507 239.33 313.495 239.267C316.568 239.113 319.319 241.598 322.392 241.367C323.183 241.304 323.96 241.059 324.744 240.919C327.229 240.45 330.106 241.157 331.506 243.264C331.813 243.698 332.009 244.201 332.075 244.729C332.14 245.256 332.075 245.792 331.884 246.288Z" fill="#56B5CB"/>
<path d="M304.29 261.464C304.224 261.444 304.168 261.4 304.134 261.34C304.1 261.28 304.09 261.209 304.108 261.142C308.35 245.224 325.108 242.942 329.049 243.208C329.083 243.21 329.117 243.218 329.149 243.234C329.18 243.249 329.208 243.27 329.23 243.296C329.253 243.322 329.271 243.353 329.282 243.386C329.292 243.419 329.297 243.453 329.294 243.488C329.287 243.556 329.254 243.619 329.201 243.663C329.149 243.707 329.082 243.73 329.014 243.726C325.171 243.453 308.763 245.7 304.612 261.282C304.592 261.348 304.548 261.404 304.487 261.438C304.427 261.472 304.356 261.481 304.29 261.464Z" fill="white"/>
<path d="M322.931 253.4C322.878 253.393 322.829 253.368 322.791 253.33C321.242 251.987 319.415 251.003 317.442 250.448C315.468 249.892 313.396 249.779 311.374 250.117C311.306 250.123 311.238 250.104 311.183 250.062C311.129 250.021 311.092 249.96 311.08 249.893C311.07 249.824 311.087 249.755 311.127 249.698C311.168 249.642 311.229 249.604 311.297 249.592C313.406 249.241 315.567 249.361 317.624 249.943C319.681 250.525 321.585 251.555 323.197 252.959C323.222 252.983 323.242 253.012 323.255 253.044C323.268 253.076 323.275 253.11 323.275 253.144C323.275 253.179 323.268 253.213 323.255 253.245C323.242 253.277 323.222 253.306 323.197 253.33C323.165 253.368 323.123 253.395 323.075 253.407C323.028 253.42 322.977 253.417 322.931 253.4Z" fill="white"/>
<path d="M263.984 56L266.21 56.854V51.954C266.21 48.062 269.311 47.131 272.678 49.077C276.052 51.023 278.782 55.748 278.782 59.64V60.34C279.251 60.1966 279.747 60.1612 280.232 60.2363C280.717 60.3115 281.178 60.4953 281.582 60.774C282.861 61.6077 283.924 62.7312 284.687 64.0533C285.45 65.3755 285.89 66.8589 285.971 68.383V68.705L289.079 70.497C289.92 71.0459 290.62 71.7849 291.122 72.6544C291.624 73.5239 291.915 74.4994 291.97 75.502C291.97 77.35 290.675 78.099 289.079 77.175L263.984 62.678C263.143 62.1304 262.443 61.3915 261.941 60.5216C261.44 59.6517 261.152 58.6756 261.1 57.673C261.1 55.832 262.381 55.083 263.984 56Z" fill="#E6E6E6"/>
<path d="M293.797 52.122L297.836 54.453C297.814 54.2765 297.802 54.0988 297.801 53.921V52.752C297.801 50.652 299.257 49.826 301.063 50.869C301.839 51.3441 302.503 51.9817 303.009 52.738C303.303 50.12 305.361 49.147 307.853 50.582C309.277 51.5086 310.463 52.7576 311.314 54.228C312.165 55.6983 312.658 57.3486 312.753 59.045V60.795C312.771 61.4942 312.63 62.1884 312.34 62.825L315.7 64.757C316.224 65.1042 316.658 65.5695 316.97 66.1154C317.281 66.6612 317.46 67.2724 317.492 67.9C317.492 69.055 316.68 69.524 315.679 68.95L293.797 56.35C293.268 56.0051 292.827 55.54 292.512 54.9925C292.197 54.4451 292.016 53.8308 291.984 53.2C291.984 52.017 292.796 51.548 293.797 52.122Z" fill="#E6E6E6"/>
<path d="M278.159 158.361C275.219 163.331 272.391 167.65 270.403 169.722C266.63 171.472 257.768 174.174 254.303 174.622C253.694 174.7 253.078 174.555 252.567 174.216C251.202 173.32 250.145 173.173 248.71 172.676C247.583 172.291 247.107 171.752 246.897 171.976C246.68 172.23 246.571 172.559 246.593 172.893C246.615 173.226 246.767 173.538 247.016 173.761C247.554 174.273 248.151 174.719 248.794 175.091C247.257 175.472 245.653 175.501 244.104 175.175C241.101 174.384 239.687 175.826 241.717 179.088C242.417 180.25 245.301 182.119 251.097 181.615C253.164 181.504 255.224 181.27 257.264 180.915C262.822 179.725 269.003 178.577 272.804 177.415C274.218 176.859 275.483 175.982 276.5 174.853C282.891 167.566 285.012 162.372 287.812 157.654L287.574 149.954C283.038 149.8 280.616 154.203 278.159 158.361Z" fill="#FFA8A7"/>
<path d="M288.351 149.8C287.036 149.615 285.695 149.793 284.474 150.315C283.252 150.837 282.197 151.683 281.421 152.761C278.313 156.744 272.811 166.306 272.811 166.306C272.811 166.306 274.61 171.101 279.468 171.906L287.273 161.364C287.273 161.364 290.969 154.042 288.351 149.8Z" fill="#455A64"/>
<path d="M305.228 257.278H300.139V266.35H305.228V257.278Z" fill="#FFA8A7"/>
<path d="M287.588 256.795L282.506 256.977L282.247 247.373L287.588 247.191V256.795Z" fill="#FFA8A7"/>
<path d="M305.942 178.745C305.942 183.799 305.2 224.518 305.2 224.518C305.312 225.974 306.6 228.662 306.341 234.255C305.956 241.85 305.445 261.814 305.445 261.814C304.571 262.261 303.607 262.503 302.626 262.523C301.645 262.542 300.672 262.338 299.782 261.926C299.782 261.926 295.652 233.926 294.742 226.429C293.944 219.856 291.9 198.1 291.9 198.1L289.149 223.818C289.732 226.577 289.944 229.402 289.779 232.218C289.541 235.718 287.903 253.834 287.903 253.834C287.024 254.353 286.038 254.664 285.02 254.746C284.003 254.827 282.98 254.676 282.03 254.303C282.03 254.303 279.132 227.003 279.076 223.797C279.006 220.157 280.77 178.703 280.77 178.703L305.942 178.745Z" fill="#37474F"/>
<path d="M300.139 263.732V262.976C299.649 263.193 298.522 267.687 296.499 269.605C294.896 271.131 292.712 272.888 292.152 274.589C291.592 276.29 295.197 277.333 296.702 277.06C298.438 276.738 301.462 275.457 302.218 274.26C302.974 273.063 303.331 271.327 303.947 270.459C304.563 269.591 305.984 268.625 306.313 267.617C306.415 266.674 306.318 265.72 306.026 264.817C305.788 263.879 305.536 262.85 305.228 262.941V263.515C304.51 264.104 303.608 264.421 302.68 264.411C301.938 264.474 300.132 264.32 300.139 263.732Z" fill="#263238"/>
<path d="M282.45 255.339C282.184 255.339 281.967 255.738 281.386 256.396C280.522 257.305 279.512 258.062 278.397 258.636C276.493 259.63 272.797 261.156 271.11 261.947C270.06 262.437 270.109 263.753 271.194 264.502C272.279 265.251 274.89 265.79 278.026 265.062C279.734 264.663 281.96 263.018 283.374 263.109C284.788 263.2 287.413 263.172 288.456 262.409C289.499 261.646 289.079 260.064 288.785 258.699C288.463 257.201 288.085 254.87 287.588 254.975V255.5C286.979 256.466 283.822 256.858 282.478 256.151L282.45 255.339Z" fill="#263238"/>
<path d="M291.9 198.1C289.253 197.233 286.832 195.787 284.816 193.865C284.816 193.865 286.216 196.532 290.248 199.017L289.38 221.984L291.9 198.1Z" fill="#263238"/>
<path d="M303.1 150.542C303.1 150.542 307.3 151.508 306.999 159.096L306.124 171.171V189.301C302.386 193.543 285.824 193.235 280.119 188.965C280.119 188.965 280.763 167.51 281.148 159.25C281.421 153.384 282.772 150.43 288.54 149.786L295.631 150.094L303.1 150.542Z" fill="#56B5CB"/>
<path d="M297.752 134.778C297.776 135.794 297.599 136.805 297.231 137.752C296.863 138.699 296.311 139.563 295.606 140.296C294.902 141.029 294.06 141.615 293.129 142.021C292.197 142.426 291.194 142.644 290.178 142.66C285.978 142.66 283.514 139.034 282.604 134.778C280.924 126.987 285.992 126.889 290.178 126.889C292.229 126.931 294.178 127.786 295.598 129.265C297.019 130.745 297.793 132.728 297.752 134.778Z" fill="#263238"/>
<path d="M301.616 137.963C301.616 137.963 300.454 143.647 299.985 144.585C299.69 145.15 299.188 145.578 298.585 145.782L298.669 141.785L301.616 137.963Z" fill="#263238"/>
<path d="M300.153 129.822C300.153 129.822 300.986 129.612 301.875 130.998C302.631 132.181 302.806 134.841 301.616 137.998L299.425 138.264L300.153 129.822Z" fill="#263238"/>
<path d="M300.958 130.977L303.646 131.026C303.664 130.852 303.647 130.677 303.594 130.51C303.541 130.343 303.455 130.19 303.34 130.058C303.224 129.927 303.084 129.82 302.925 129.746C302.767 129.672 302.596 129.631 302.421 129.626C302.053 129.631 301.701 129.772 301.431 130.021C301.161 130.271 300.992 130.611 300.958 130.977Z" fill="#263238"/>
<path d="M301.287 130.34L303.275 128.429C303.16 128.294 303.019 128.184 302.86 128.106C302.701 128.029 302.527 127.985 302.35 127.978C302.173 127.97 301.997 128 301.832 128.064C301.667 128.129 301.517 128.227 301.392 128.352C301.128 128.61 300.971 128.957 300.952 129.326C300.932 129.694 301.052 130.056 301.287 130.34Z" fill="#263238"/>
<path d="M298.767 138.229C299.208 138.502 299.831 137.627 300.377 137.032C300.923 136.437 302.617 135.891 303.499 137.823C304.381 139.755 302.876 141.666 301.616 142.296C299.355 143.416 298.641 141.785 298.641 141.785L298.452 150.787C295.274 155.687 288.064 155.533 290.661 150.549V147.812C289.593 147.99 288.508 148.046 287.427 147.98C285.663 147.7 284.557 146.251 284.018 144.263C283.164 141.071 282.835 138.495 283.563 132.216C284.361 125.342 292.047 125.265 296.163 128.016C300.279 130.767 298.767 138.229 298.767 138.229Z" fill="#FFA8A7"/>
<path d="M289.191 131.145C291.025 130.963 292.838 130.585 294.679 130.445C295.076 130.397 295.478 130.416 295.869 130.501C297.269 130.886 297.101 132.524 297.325 133.665C297.71 135.639 298.025 138.978 298.767 138.992C298.991 138.992 299.831 137.543 300.377 137.025C300.677 136.579 300.847 136.057 300.867 135.52C301.007 134.708 301.077 133.875 301.14 133.049C301.196 132.349 301.266 131.649 301.266 130.949C301.298 130.158 301.234 129.366 301.077 128.59C300.901 127.93 300.564 127.324 300.097 126.826L299.957 126.672C299.034 125.707 297.914 124.953 296.674 124.46C294.889 123.791 293.017 123.383 291.116 123.249C289.217 123.115 287.327 122.881 285.453 122.549C285.345 122.518 285.231 122.518 285.124 122.549C285.048 122.591 284.983 122.652 284.937 122.725C284.891 122.798 284.863 122.882 284.858 122.969C284.781 123.404 284.829 123.852 284.996 124.261C285.163 124.669 285.443 125.023 285.803 125.279C284.536 125.377 283.08 124.719 281.862 124.383C281.763 124.341 281.657 124.32 281.55 124.32C281.443 124.32 281.337 124.341 281.239 124.383C281.116 124.468 281.029 124.595 280.994 124.74C280.905 125.069 280.893 125.414 280.959 125.748C281.07 126.761 281.447 127.727 282.051 128.548C282.994 129.776 284.327 130.648 285.831 131.019C286.938 131.232 288.071 131.275 289.191 131.145Z" fill="#263238"/>
<path d="M290.668 147.812C290.668 147.812 294.602 146.986 295.974 146.223C296.791 145.776 297.455 145.093 297.878 144.263C297.671 145.097 297.303 145.882 296.793 146.573C295.792 147.917 290.668 148.897 290.668 148.897V147.812Z" fill="#F28F8F"/>
<path d="M291.613 137.2C291.605 137.416 291.683 137.626 291.83 137.785C291.977 137.944 292.181 138.038 292.397 138.047C292.568 138.061 292.74 138.023 292.89 137.938C293.039 137.853 293.159 137.724 293.235 137.57C293.31 137.415 293.337 137.241 293.312 137.071C293.286 136.901 293.21 136.742 293.094 136.616C292.977 136.489 292.824 136.401 292.657 136.363C292.489 136.325 292.313 136.338 292.153 136.401C291.993 136.465 291.856 136.575 291.76 136.717C291.663 136.86 291.612 137.028 291.613 137.2Z" fill="#263238"/>
<path d="M292.873 133.805L294.56 134.778C294.683 134.538 294.711 134.261 294.638 134.001C294.565 133.742 294.398 133.519 294.168 133.378C294.056 133.315 293.932 133.276 293.805 133.264C293.677 133.252 293.548 133.266 293.426 133.306C293.305 133.346 293.193 133.411 293.097 133.497C293.002 133.583 292.926 133.688 292.873 133.805Z" fill="#263238"/>
<path d="M291.018 142.877L289.219 143.577C289.255 143.7 289.316 143.815 289.398 143.914C289.481 144.012 289.583 144.093 289.697 144.151C289.812 144.209 289.938 144.242 290.066 144.25C290.195 144.257 290.323 144.237 290.444 144.193C290.689 144.087 290.884 143.893 290.991 143.648C291.097 143.404 291.107 143.128 291.018 142.877Z" fill="#F28F8F"/>
<path d="M284.375 134.526L285.915 133.294C285.846 133.186 285.755 133.095 285.648 133.025C285.541 132.955 285.421 132.908 285.295 132.887C285.169 132.867 285.04 132.873 284.916 132.906C284.792 132.938 284.677 132.997 284.578 133.077C284.372 133.252 284.238 133.496 284.2 133.763C284.163 134.03 284.225 134.302 284.375 134.526Z" fill="#263238"/>
<path d="M285.054 136.969C285.066 137.122 285.123 137.268 285.217 137.39C285.311 137.512 285.438 137.603 285.583 137.653C285.729 137.704 285.885 137.711 286.034 137.673C286.183 137.636 286.318 137.556 286.423 137.443C286.527 137.331 286.597 137.19 286.622 137.039C286.648 136.887 286.629 136.731 286.568 136.591C286.507 136.45 286.406 136.33 286.277 136.245C286.149 136.161 285.999 136.115 285.845 136.115C285.737 136.119 285.63 136.144 285.532 136.189C285.433 136.234 285.345 136.298 285.271 136.377C285.198 136.456 285.141 136.55 285.103 136.651C285.066 136.753 285.049 136.861 285.054 136.969Z" fill="#263238"/>
<path d="M289.275 136.311L289.184 141.288L286.356 140.644L289.275 136.311Z" fill="#F28F8F"/>
<path d="M222.117 177.996L226.506 175.462L228.242 173.355L223.86 175.889L222.117 177.996Z" fill="#56B5CB"/>
<path opacity="0.4" d="M222.117 177.996L226.506 175.462L228.242 173.355L223.86 175.889L222.117 177.996Z" fill="black"/>
<path d="M234.052 184.884L238.441 182.35L242.102 179.109L237.72 181.636L234.052 184.884Z" fill="#56B5CB"/>
<path opacity="0.4" d="M234.052 184.884L238.441 182.35L242.102 179.109L237.72 181.636L234.052 184.884Z" fill="black"/>
<path d="M271.334 193.627C272.372 195.018 273 196.672 273.147 198.401C272.114 197.007 271.486 195.355 271.334 193.627ZM281.533 193.76C280.056 183.715 274.659 173.782 268.233 170.065C265.146 168.28 262.29 168.217 260.001 169.554L255.871 171.934L255.64 172.074C255.456 172.175 255.278 172.287 255.108 172.41C254.769 172.644 254.45 172.906 254.156 173.194L254.016 173.327C253.89 173.453 253.757 173.6 253.638 173.74C253.519 173.88 253.337 174.097 253.197 174.286C252.9 174.677 252.631 175.089 252.392 175.518C252.266 175.735 252.147 175.966 252.035 176.218L215.964 155.4L211.582 157.927V160.727L211.953 160.937L212.303 161.14V161.7L211.603 162.113V163.737L216.902 174.937L222.138 177.968L223.881 175.868L228.501 178.633L231.154 183.176L234.08 184.863L237.741 181.615L242.235 184.212L243.747 190.449L251.3 194.817C251.673 196.404 252.141 197.968 252.7 199.5C252.749 199.654 252.812 199.815 252.875 199.99C255.381 206.57 259.364 212.205 263.858 214.802C264.397 215.121 264.961 215.395 265.545 215.621C265.854 215.744 266.169 215.849 266.49 215.936C266.77 216.011 267.05 216.074 267.33 216.125C268.214 216.286 269.12 216.286 270.004 216.125L270.368 216.034C270.542 215.999 270.713 215.95 270.879 215.887L271.271 215.733C271.41 215.683 271.543 215.62 271.67 215.544C271.799 215.488 271.926 215.425 272.048 215.355L272.23 215.243C272.263 215.232 272.294 215.216 272.321 215.194C273.322 214.62 275.786 213.192 276.458 212.814C279.79 210.882 281.946 205.996 281.946 199.087C281.94 197.304 281.802 195.523 281.533 193.76Z" fill="#56B5CB"/>
<path d="M270.053 202.104C268.317 201.103 266.917 198.135 266.917 195.475C266.917 192.815 268.317 191.464 270.053 192.458C271.789 193.452 273.182 196.427 273.182 199.094C273.182 201.761 271.782 203.105 270.053 202.104ZM277.144 196.287C275.674 186.249 270.277 176.309 263.844 172.599C260.862 170.877 258.104 170.751 255.864 171.934L255.633 172.074C255.449 172.175 255.271 172.287 255.101 172.41C254.761 172.644 254.443 172.906 254.149 173.194L254.009 173.327C253.883 173.453 253.75 173.6 253.631 173.74C253.512 173.88 253.33 174.097 253.19 174.286C252.893 174.677 252.624 175.089 252.385 175.518C252.259 175.735 252.14 175.966 252.028 176.218C251.375 177.571 250.904 179.004 250.628 180.481L211.575 157.927V160.727L211.946 160.937L212.296 161.14V161.7L211.596 162.113V163.737L216.895 174.937L222.131 177.968L223.874 175.868L228.494 178.633L231.147 183.176L234.073 184.863L237.734 181.615L242.228 184.212L243.74 190.449L251.3 194.817C251.673 196.404 252.141 197.968 252.7 199.5C252.749 199.654 252.812 199.815 252.875 199.99C255.381 206.57 259.364 212.205 263.858 214.802C264.396 215.121 264.961 215.395 265.545 215.621C265.854 215.744 266.169 215.849 266.49 215.936C266.77 216.011 267.05 216.074 267.33 216.125C268.214 216.286 269.12 216.286 270.004 216.125L270.368 216.034C270.542 215.999 270.713 215.95 270.879 215.887L271.271 215.733C271.409 215.683 271.543 215.62 271.67 215.544C271.799 215.488 271.925 215.425 272.048 215.355L272.23 215.243C272.263 215.232 272.294 215.216 272.321 215.194C275.513 213.178 277.564 208.362 277.564 201.621C277.552 199.835 277.412 198.053 277.144 196.287Z" fill="#56B5CB"/>
<path opacity="0.4" d="M273.182 199.087C273.182 201.754 271.782 203.105 270.053 202.104C268.324 201.103 266.917 198.142 266.917 195.475C266.917 192.808 268.317 191.457 270.053 192.458C270.553 192.762 270.988 193.162 271.334 193.634C271.484 195.362 272.112 197.015 273.147 198.408C273.173 198.633 273.184 198.86 273.182 199.087Z" fill="black"/>
<path opacity="0.4" d="M281.932 199.08C281.932 205.989 279.776 210.875 276.444 212.807C275.744 213.185 273.308 214.613 272.307 215.187C275.499 213.171 277.55 208.355 277.55 201.614C277.542 199.831 277.407 198.051 277.144 196.287C275.674 186.249 270.277 176.309 263.844 172.599C260.862 170.877 258.104 170.751 255.864 171.934L259.994 169.554C262.283 168.217 265.139 168.28 268.226 170.065C274.659 173.782 280.056 183.715 281.526 193.76C281.792 195.521 281.928 197.299 281.932 199.08Z" fill="white"/>
<path d="M277.55 201.6C277.55 208.341 275.499 213.157 272.307 215.173C273.308 214.599 275.772 213.171 276.444 212.793C279.776 210.861 281.932 205.975 281.932 199.066C281.932 198.814 281.932 198.555 281.932 198.296L277.55 200.83C277.543 201.103 277.55 201.355 277.55 201.6Z" fill="#56B5CB"/>
<path opacity="0.1" d="M277.55 201.6C277.55 208.341 275.499 213.157 272.307 215.173C273.308 214.599 275.772 213.171 276.444 212.793C279.776 210.861 281.932 205.975 281.932 199.066C281.932 198.814 281.932 198.555 281.932 198.296L277.55 200.83C277.543 201.103 277.55 201.355 277.55 201.6Z" fill="black"/>
<path opacity="0.15" d="M250.796 183.344V184.765L211.582 162.127L212.303 161.707V161.119L250.796 183.344Z" fill="black"/>
<path opacity="0.15" d="M250.796 183.932V184.765L211.582 162.127L212.303 161.707V161.7L250.796 183.932Z" fill="black"/>
<path opacity="0.15" d="M267.848 212.8C266.361 212.761 264.912 212.329 263.648 211.547C257.257 207.858 252.056 196.882 252.056 187.082C252.056 181.363 253.785 177.093 256.802 175.35C258.902 174.132 261.387 174.286 263.998 175.791C270.382 179.48 275.583 190.491 275.583 200.291C275.583 206.003 273.854 210.28 270.837 212.016C269.927 212.536 268.896 212.806 267.848 212.8ZM259.833 175.245C258.9 175.24 257.982 175.481 257.173 175.945C254.422 177.534 252.777 181.699 252.777 187.075C252.777 196.651 257.817 207.375 264.019 210.931C266.392 212.331 268.639 212.457 270.508 211.379C273.259 209.79 274.904 205.632 274.904 200.256C274.904 190.673 269.864 179.956 263.669 176.393C262.511 175.689 261.188 175.302 259.833 175.273V175.245Z" fill="black"/>
<path opacity="0.4" d="M252 176.204C251.347 177.557 250.876 178.99 250.6 180.467L211.547 157.913L215.929 155.386L252 176.204Z" fill="white"/>
<path d="M302.757 178.395C304.801 174.524 307.139 165.83 308.301 161.441C309.953 155.211 307.279 151.291 304.241 151.13C302.344 151.424 296.093 174.153 296.093 174.153C295.393 174.706 285.894 179.529 282.842 180.74C282.296 180.946 281.693 180.946 281.148 180.74C279.685 180.208 278.684 180.306 277.249 180.166C276.122 180.054 275.555 179.655 275.408 179.893C275.274 180.188 275.257 180.523 275.359 180.831C275.462 181.138 275.677 181.396 275.961 181.552C276.578 181.912 277.236 182.198 277.921 182.406C276.694 182.778 275.415 182.951 274.134 182.917C271.194 182.854 270.137 184.128 272.419 187.117C273.819 188.979 276.136 189.567 281.309 187.782C282.793 187.264 284.809 186.263 286.692 185.584C290.57 184.184 291.592 184.016 294.546 183.015C298.851 181.559 301.847 180.117 302.757 178.395Z" fill="#FFA8A7"/>
<path d="M303.1 150.542C304.885 150.787 306.6 151.186 307.657 152.642C308.714 154.098 309.561 156.142 308.525 161.707C307.732 165.621 306.67 169.475 305.347 173.243C305.347 173.243 301.189 175.021 296.772 170.513L299.81 158.767C299.81 158.767 300.3 151.13 303.1 150.542Z" fill="#455A64"/>
</svg>
