<svg width="302" height="270" viewBox="0 0 302 270" fill="none" xmlns="http://www.w3.org/2000/svg">
<path d="M249.19 60.9791C236.788 54.1881 223.867 51.4622 209.767 53.2077C192.399 55.3518 178.682 57.8785 162.063 51.4064C148.09 45.9704 135.329 37.8563 122.002 31.1291C94.7429 17.3 67.6826 13.0198 47.2459 40.2953C36.3739 54.8098 28.1163 71.4764 22.4173 89.0597C13.2033 117.427 5.63117 148.839 9.78388 178.466C15.0365 216.024 47.2459 233.655 85.7759 220.049C101.359 214.549 116.399 206.499 133.018 204.196C167.794 199.365 196.456 231.296 238.159 223.532C310.038 210.173 304.729 91.3871 249.19 60.9791Z" fill="#81C6D6"/>
<path opacity="0.7" d="M249.19 60.9791C236.788 54.1881 223.867 51.4622 209.767 53.2077C192.399 55.3518 178.682 57.8785 162.063 51.4064C148.09 45.9704 135.329 37.8563 122.002 31.1291C94.7429 17.3 67.6826 13.0198 47.2459 40.2953C36.3739 54.8098 28.1163 71.4764 22.4173 89.0597C13.2033 117.427 5.63117 148.839 9.78388 178.466C15.0365 216.024 47.2459 233.655 85.7759 220.049C101.359 214.549 116.399 206.499 133.018 204.196C167.794 199.365 196.456 231.296 238.159 223.532C310.038 210.173 304.729 91.3871 249.19 60.9791Z" fill="white"/>
<path d="M260.071 30.3799C255.01 27.614 252.714 29.9176 250.873 27.614C249.032 25.3105 255.935 19.3325 242.106 13.3546C242.106 13.3546 241.189 0.474023 222.322 0.0117256C203.456 -0.450571 208.541 12.8923 203.48 16.1124C198.418 19.3325 197.04 14.3031 191.978 17.4913C186.917 20.6796 189.22 27.1517 185.084 28.0684C180.947 28.985 175.415 23.9316 170.354 27.1517C165.292 30.3719 165.292 33.1297 162.997 33.1297C160.701 33.1297 156.094 31.2885 153.337 33.1297C150.579 34.9709 147.351 37.2745 147.351 37.2745H263.722C263.722 37.2745 265.133 33.1377 260.071 30.3799Z" fill="#81C6D6"/>
<path opacity="0.5" d="M260.071 30.3799C255.01 27.614 252.714 29.9176 250.873 27.614C249.032 25.3105 255.935 19.3325 242.106 13.3546C242.106 13.3546 241.189 0.474023 222.322 0.0117256C203.456 -0.450571 208.541 12.8923 203.48 16.1124C198.418 19.3325 197.04 14.3031 191.978 17.4913C186.917 20.6796 189.22 27.1517 185.084 28.0684C180.947 28.985 175.415 23.9316 170.354 27.1517C165.292 30.3719 165.292 33.1297 162.997 33.1297C160.701 33.1297 156.094 31.2885 153.337 33.1297C150.579 34.9709 147.351 37.2745 147.351 37.2745H263.722C263.722 37.2745 265.133 33.1377 260.071 30.3799Z" fill="white"/>
<path d="M128.1 133.783C124.545 131.846 122.927 133.456 121.636 131.846C120.345 130.236 125.191 126.028 115.499 121.827C115.499 121.827 114.853 112.78 101.598 112.454C88.3429 112.127 91.9057 121.5 88.3508 123.764C84.7959 126.028 83.8315 122.473 80.2766 124.736C76.7217 127 78.3317 131.519 75.4304 132.165C72.5291 132.811 68.6394 129.256 65.0686 131.519C61.4977 133.783 61.5137 135.72 59.9036 135.72C58.2936 135.72 55.0495 134.429 53.1126 135.72C51.1758 137.011 48.9121 138.629 48.9121 138.629H130.683C130.683 138.629 131.655 135.72 128.1 133.783Z" fill="white"/>
<path opacity="0.5" d="M128.1 133.783C124.545 131.846 122.927 133.456 121.636 131.846C120.345 130.236 125.191 126.028 115.499 121.827C115.499 121.827 114.853 112.78 101.598 112.454C88.3429 112.127 91.9057 121.5 88.3508 123.764C84.7959 126.028 83.8315 122.473 80.2766 124.736C76.7217 127 78.3317 131.519 75.4304 132.165C72.5291 132.811 68.6394 129.256 65.0686 131.519C61.4977 133.783 61.5137 135.72 59.9036 135.72C58.2936 135.72 55.0495 134.429 53.1126 135.72C51.1758 137.011 48.9121 138.629 48.9121 138.629H130.683C130.683 138.629 131.655 135.72 128.1 133.783Z" fill="white"/>
<path d="M229.161 268.463H279.535C278.571 262.302 274.609 263.386 274.083 253.837C273.82 249.054 278.276 243.076 277.885 236.764C277.566 231.559 272.441 226.226 272.043 220.272C271.684 214.9 276.028 208.938 275.637 203.151C275.231 197.684 270.058 192.431 269.572 186.74C269.125 181.161 273.414 175.175 272.903 169.563C272.393 163.952 267.109 158.795 266.527 153.263C265.945 147.58 270.098 141.459 269.46 136.023C268.791 130.244 263.339 125.254 262.597 119.93C261.8 114.008 265.634 107.679 264.734 102.562C263.626 96.2971 257.791 91.7618 256.564 87.1389C254.276 78.5226 254.563 70.2252 251.861 69.6832C248.984 69.1093 248.322 77.2473 246.138 86.3418C245.038 90.909 239.339 95.5399 238.399 101.813C237.641 106.89 241.674 113.067 241.013 118.966C240.423 124.25 235.107 129.327 234.589 135.074C234.102 140.478 238.414 146.432 237.992 152.084C237.578 157.575 232.413 162.812 232.07 168.392C231.727 173.971 236.159 179.805 235.856 185.313C235.545 190.956 230.484 196.289 230.221 201.717C229.95 207.464 234.485 213.258 234.262 218.583C234.015 224.489 229.025 229.893 228.842 235.058C228.619 241.323 233.218 247.102 233.074 251.876C232.771 262.238 228.029 260.078 227.861 268.415L229.161 268.463Z" fill="#81C6D6"/>
<path d="M250.784 86.238V266.135" stroke="black" stroke-miterlimit="10"/>
<path d="M258.651 105.097L250.45 112.182L243.738 103.231" stroke="black" stroke-miterlimit="10"/>
<path d="M258.651 136.413L250.45 143.491L243.738 134.548" stroke="black" stroke-miterlimit="10"/>
<path d="M258.651 165.857L250.45 172.943L243.738 163.992" stroke="black" stroke-miterlimit="10"/>
<path d="M258.651 200.904L250.45 207.982L243.738 199.039" stroke="black" stroke-miterlimit="10"/>
<path d="M258.651 236.317L250.45 243.395L243.738 234.452" stroke="black" stroke-miterlimit="10"/>
<path d="M194.847 268.463H233.735C232.986 263.68 229.933 264.541 229.527 257.176C229.32 253.462 232.755 248.871 232.46 243.993C232.213 240.008 228.26 235.855 227.949 231.24C227.67 227.095 231.049 222.472 230.722 218.025C230.412 213.8 226.402 209.751 226.044 205.359C225.685 200.967 229.009 196.424 228.618 192.096C228.228 187.768 224.139 183.783 223.708 179.518C223.262 175.127 226.466 170.408 225.972 166.2C225.454 161.744 221.245 157.894 220.679 153.789C220.042 149.214 223.023 144.328 222.321 140.383C221.469 135.544 216.965 132.037 216.025 128.475C214.255 121.827 214.478 115.411 212.39 114.996C210.166 114.55 209.656 120.831 207.974 127.861C207.129 131.384 202.722 134.963 201.996 139.817C201.414 143.738 204.523 148.505 204.013 153.056C203.559 157.137 199.462 161.027 199.055 165.49C198.68 169.659 202.012 174.258 201.685 178.618C201.367 182.858 197.389 186.899 197.11 191.203C196.831 195.508 200.299 200.019 200.035 204.267C199.772 208.516 195.891 212.74 195.691 216.933C195.476 221.364 198.975 225.836 198.808 229.949C198.617 234.508 194.767 238.716 194.623 242.702C194.448 247.532 198.003 252.003 197.891 255.678C197.652 263.649 193.994 262.015 193.866 268.431L194.847 268.463Z" fill="#81C6D6"/>
<path d="M211.546 127.805V266.669" stroke="black" stroke-miterlimit="10"/>
<path d="M217.61 142.359L211.282 147.827L206.101 140.917" stroke="black" stroke-miterlimit="10"/>
<path d="M217.61 166.526L211.282 171.994L206.101 165.092" stroke="black" stroke-miterlimit="10"/>
<path d="M217.61 189.259L211.282 194.726L206.101 187.824" stroke="black" stroke-miterlimit="10"/>
<path d="M217.61 216.311L211.282 221.779L206.101 214.868" stroke="black" stroke-miterlimit="10"/>
<path d="M217.61 243.65L211.282 249.11L206.101 242.208" stroke="black" stroke-miterlimit="10"/>
<path d="M160.184 268.088V106.938H168.688V268.088" fill="#2E353A"/>
<path d="M160.184 268.088V106.938H168.688V268.088" stroke="#2E353A" stroke-linecap="round" stroke-linejoin="round"/>
<path d="M155.937 268.088V106.938H164.441V268.088" fill="#81C6D6"/>
<path d="M155.937 268.088V106.938H164.441V268.088" stroke="#2E353A" stroke-linecap="round" stroke-linejoin="round"/>
<g style="mix-blend-mode:multiply" opacity="0.3">
<path d="M164.441 106.938H155.937V126.068H164.441V106.938Z" fill="#2E353A"/>
</g>
<path d="M192.225 44.0256H129.209L156.676 111.489H219.7V71.4925C219.7 67.8848 218.989 64.3125 217.608 60.9795C216.227 57.6466 214.203 54.6183 211.652 52.0677C209.101 49.517 206.072 47.494 202.738 46.1141C199.405 44.7343 195.833 44.0246 192.225 44.0256Z" fill="#81C6D6" stroke="#2E353A" stroke-linecap="round" stroke-linejoin="round"/>
<g style="mix-blend-mode:multiply" opacity="0.3">
<path d="M151.87 99.6765L156.652 111.489H219.7V71.4923C219.7 70.8866 219.7 70.2808 219.636 69.683H151.886L151.87 99.6765Z" fill="black"/>
</g>
<path d="M191.761 69.683H185.13" stroke="#2E353A" stroke-linecap="round" stroke-linejoin="round"/>
<path d="M219.637 69.683H199.567" stroke="#2E353A" stroke-linecap="round" stroke-linejoin="round"/>
<path d="M129.209 44.0256C136.496 44.0256 143.484 46.9203 148.637 52.0728C153.789 57.2253 156.684 64.2137 156.684 71.5004V111.497H101.734V71.4925C101.736 64.2071 104.632 57.2208 109.784 52.07C114.937 46.9192 121.924 44.0256 129.209 44.0256V44.0256Z" fill="#2E353A" stroke="#2E353A" stroke-linecap="round" stroke-linejoin="round"/>
<path d="M156.678 106.938H109.332V111.489H156.678V106.938Z" fill="#81C6D6" stroke="#2E353A" stroke-linecap="round" stroke-linejoin="round"/>
<path d="M156.676 106.938H58.6934V111.489H156.676V106.938Z" fill="#81C6D6" stroke="#2E353A" stroke-linecap="round" stroke-linejoin="round"/>
<path opacity="0.3" d="M156.678 106.938H109.332V111.489H156.678V106.938Z" fill="black"/>
<path d="M196.323 27.7655H176.659V41.5786H196.323V27.7655Z" fill="#2E353A" stroke="#2E353A" stroke-linecap="round" stroke-linejoin="round"/>
<path d="M178.254 27.7655H174.006V70.8069H178.254V27.7655Z" fill="white" stroke="#2E353A" stroke-linecap="round" stroke-linejoin="round"/>
<path d="M176.125 76.6494C178.766 76.6494 180.908 74.5082 180.908 71.867C180.908 69.2257 178.766 67.0846 176.125 67.0846C173.484 67.0846 171.343 69.2257 171.343 71.867C171.343 74.5082 173.484 76.6494 176.125 76.6494Z" fill="#2E353A" stroke="#2E353A" stroke-linecap="round" stroke-linejoin="round"/>
<path d="M105.99 55.073C117.085 60.7082 136.374 69.739 154.165 74.2822" stroke="white" stroke-linecap="round" stroke-linejoin="round" stroke-dasharray="2 4"/>
<path d="M96.6797 50.1709C96.6797 50.1709 100.235 52.1795 105.989 55.1047" stroke="#2E353A" stroke-linecap="round" stroke-linejoin="round" stroke-dasharray="2 4"/>
<path d="M92.6879 49.8761L100.666 30.9219L42.8076 16.8059L92.6879 49.8761Z" fill="white" stroke="#2E353A" stroke-width="1.2629" stroke-linecap="round" stroke-linejoin="round"/>
<path d="M96.5775 33.2175L92.6879 49.8761L42.8076 16.8059L96.5775 33.2175Z" fill="#81C6D6" stroke="#2E353A" stroke-width="1.2629" stroke-linecap="round" stroke-linejoin="round"/>
<path d="M96.5775 33.2175L87.499 40.9968L42.8076 16.8059L96.5775 33.2175Z" fill="white" stroke="#2E353A" stroke-width="1.2629" stroke-linecap="round" stroke-linejoin="round"/>
<path d="M100.666 30.9219L108.749 27.638L42.8076 16.8059L100.666 30.9219Z" fill="white" stroke="#2E353A" stroke-width="1.2629" stroke-linecap="round" stroke-linejoin="round"/>
<path d="M81.4492 46.927L83.3223 48.0748" stroke="#2E353A" stroke-linecap="round" stroke-linejoin="round"/>
<path d="M71.2305 40.6621L77.5034 44.504" stroke="#2E353A" stroke-linecap="round" stroke-linejoin="round"/>
<path d="M64.1846 86.1583V65.6021L122.992 75.0552L64.1846 86.1583Z" fill="white" stroke="#2E353A" stroke-width="1.2629" stroke-linecap="round" stroke-linejoin="round"/>
<path d="M67.062 69.3005L64.1846 86.1584L122.992 75.0553L67.062 69.3005Z" fill="#81C6D6" stroke="#2E353A" stroke-width="1.2629" stroke-linecap="round" stroke-linejoin="round"/>
<path d="M67.0625 69.3005L72.4108 79.9892L122.992 75.0553L67.0625 69.3005Z" fill="white" stroke="#2E353A" stroke-width="1.2629" stroke-linecap="round" stroke-linejoin="round"/>
<path d="M64.1839 65.6021L58.0146 59.4329L122.991 75.0553L64.1839 65.6021Z" fill="white" stroke="#2E353A" stroke-width="1.2629" stroke-linecap="round" stroke-linejoin="round"/>
<path d="M85.2422 85.7757L90.3434 84.7395" stroke="#2E353A" stroke-linecap="round" stroke-linejoin="round"/>
<path d="M67.3252 89.4184L80.15 86.812" stroke="#2E353A" stroke-linecap="round" stroke-linejoin="round"/>
<path d="M57.0985 84.8911C57.0985 84.8911 10.8688 92.8618 2.1011 134.309C-6.6666 175.756 39.5631 178.148 47.5337 158.221C55.5044 138.294 20.4336 130.324 12.4629 149.453C4.49229 168.583 28.4042 201.262 61.0838 202.857C88.2398 204.18 164.375 172.48 211.729 164.47C211.729 164.47 246.8 154.762 301 156.89" stroke="#2E353A" stroke-linecap="round" stroke-linejoin="round" stroke-dasharray="2 4"/>
<path d="M285.321 214.812H298.608" stroke="#2E353A" stroke-linecap="round" stroke-linejoin="round"/>
<path d="M285.321 234.468H298.608" stroke="#2E353A" stroke-linecap="round" stroke-linejoin="round"/>
<path d="M5.55273 233.942H283.728V215.339H5.55273" fill="white"/>
<path d="M5.55273 233.942H283.728V215.339H5.55273" stroke="#2E353A" stroke-linecap="round" stroke-linejoin="round"/>
<path d="M24.8887 268.216V174.625C24.8888 174.395 24.9355 174.168 25.0259 173.957C25.1164 173.746 25.2486 173.555 25.4147 173.397L32.684 166.55C33.0113 166.244 33.4464 166.08 33.8943 166.093C34.3423 166.107 34.7667 166.297 35.0752 166.622L41.4517 173.405C41.7409 173.721 41.9028 174.133 41.906 174.561V268.216" fill="#2E353A"/>
<path d="M24.8887 268.216V174.625C24.8888 174.395 24.9355 174.168 25.0259 173.957C25.1164 173.746 25.2486 173.555 25.4147 173.397L32.684 166.55C33.0113 166.244 33.4464 166.08 33.8943 166.093C34.3423 166.107 34.7667 166.297 35.0752 166.622L41.4517 173.405C41.7409 173.721 41.9028 174.133 41.906 174.561V268.216" stroke="#2E353A" stroke-linecap="round" stroke-linejoin="round"/>
<path d="M22.8242 269.013V174.624C22.824 174.394 22.8713 174.166 22.9632 173.955C23.0551 173.744 23.1896 173.554 23.3583 173.397L30.6275 166.55C30.7891 166.398 30.9792 166.279 31.1869 166.2C31.3946 166.121 31.6158 166.083 31.838 166.09C32.0601 166.097 32.2787 166.147 32.4813 166.238C32.6839 166.33 32.8665 166.46 33.0187 166.622L39.3952 173.405C39.6878 173.719 39.8502 174.132 39.8495 174.561V269.013" fill="white"/>
<path d="M22.8242 269.013V174.624C22.824 174.394 22.8713 174.166 22.9632 173.955C23.0551 173.744 23.1896 173.554 23.3583 173.397L30.6275 166.55C30.7891 166.398 30.9792 166.279 31.1869 166.2C31.3946 166.121 31.6158 166.083 31.838 166.09C32.0601 166.097 32.2787 166.147 32.4813 166.238C32.6839 166.33 32.8665 166.46 33.0187 166.622L39.3952 173.405C39.6878 173.719 39.8502 174.132 39.8495 174.561V269.013" stroke="#2E353A" stroke-linecap="round" stroke-linejoin="round"/>
<path d="M86.1836 268.216V174.624C86.1837 174.395 86.2304 174.168 86.3209 173.957C86.4113 173.746 86.5435 173.555 86.7096 173.397L93.9868 166.55C94.1484 166.398 94.3385 166.279 94.5463 166.2C94.754 166.121 94.9752 166.083 95.1973 166.09C95.4194 166.097 95.638 166.147 95.8406 166.238C96.0432 166.33 96.2259 166.46 96.378 166.622L102.755 173.405C103.047 173.719 103.21 174.132 103.209 174.561V268.216" fill="#2E353A"/>
<path d="M86.1836 268.216V174.624C86.1837 174.395 86.2304 174.168 86.3209 173.957C86.4113 173.746 86.5435 173.555 86.7096 173.397L93.9868 166.55C94.1484 166.398 94.3385 166.279 94.5463 166.2C94.754 166.121 94.9752 166.083 95.1973 166.09C95.4194 166.097 95.638 166.147 95.8406 166.238C96.0432 166.33 96.2259 166.46 96.378 166.622L102.755 173.405C103.047 173.719 103.21 174.132 103.209 174.561V268.216" stroke="#2E353A" stroke-linecap="round" stroke-linejoin="round"/>
<path d="M84.4619 269.013V174.625C84.4617 174.394 84.509 174.166 84.6009 173.955C84.6928 173.744 84.8273 173.554 84.9959 173.397L92.2652 166.55C92.5925 166.244 93.0276 166.08 93.4755 166.093C93.9235 166.107 94.3479 166.297 94.6564 166.622L101.033 173.405C101.328 173.718 101.493 174.131 101.495 174.561V269.013" fill="white"/>
<path d="M84.4619 269.013V174.625C84.4617 174.394 84.509 174.166 84.6009 173.955C84.6928 173.744 84.8273 173.554 84.9959 173.397L92.2652 166.55C92.5925 166.244 93.0276 166.08 93.4755 166.093C93.9235 166.107 94.3479 166.297 94.6564 166.622L101.033 173.405C101.328 173.718 101.493 174.131 101.495 174.561V269.013" stroke="#2E353A" stroke-linecap="round" stroke-linejoin="round"/>
<path d="M147.82 268.216V174.625C147.82 174.394 147.867 174.166 147.959 173.955C148.051 173.744 148.186 173.554 148.354 173.397L155.624 166.55C155.951 166.244 156.386 166.08 156.834 166.093C157.282 166.107 157.706 166.297 158.015 166.622L164.391 173.405C164.686 173.718 164.851 174.131 164.854 174.561V269.013" fill="#2E353A"/>
<path d="M147.82 268.216V174.625C147.82 174.394 147.867 174.166 147.959 173.955C148.051 173.744 148.186 173.554 148.354 173.397L155.624 166.55C155.951 166.244 156.386 166.08 156.834 166.093C157.282 166.107 157.706 166.297 158.015 166.622L164.391 173.405C164.686 173.718 164.851 174.131 164.854 174.561V269.013" stroke="#2E353A" stroke-linecap="round" stroke-linejoin="round"/>
<path d="M146.106 269.013V174.624C146.107 174.395 146.153 174.168 146.244 173.957C146.334 173.746 146.466 173.555 146.633 173.397L153.91 166.55C154.071 166.398 154.261 166.279 154.469 166.2C154.677 166.121 154.898 166.083 155.12 166.09C155.342 166.097 155.561 166.147 155.764 166.238C155.966 166.33 156.149 166.46 156.301 166.622L162.677 173.405C162.97 173.719 163.132 174.132 163.132 174.561V269.013" fill="white"/>
<path d="M146.106 269.013V174.624C146.107 174.395 146.153 174.168 146.244 173.957C146.334 173.746 146.466 173.555 146.633 173.397L153.91 166.55C154.071 166.398 154.261 166.279 154.469 166.2C154.677 166.121 154.898 166.083 155.12 166.09C155.342 166.097 155.561 166.147 155.764 166.238C155.966 166.33 156.149 166.46 156.301 166.622L162.677 173.405C162.97 173.719 163.132 174.132 163.132 174.561V269.013" stroke="#2E353A" stroke-linecap="round" stroke-linejoin="round"/>
<path d="M209.466 268.216V174.625C209.466 174.395 209.513 174.168 209.603 173.957C209.694 173.746 209.826 173.555 209.992 173.397L217.261 166.55C217.588 166.244 218.024 166.08 218.471 166.093C218.919 166.107 219.344 166.297 219.652 166.622L226.029 173.405C226.318 173.721 226.48 174.133 226.483 174.561V268.216" fill="#2E353A"/>
<path d="M209.466 268.216V174.625C209.466 174.395 209.513 174.168 209.603 173.957C209.694 173.746 209.826 173.555 209.992 173.397L217.261 166.55C217.588 166.244 218.024 166.08 218.471 166.093C218.919 166.107 219.344 166.297 219.652 166.622L226.029 173.405C226.318 173.721 226.48 174.133 226.483 174.561V268.216" stroke="#2E353A" stroke-linecap="round" stroke-linejoin="round"/>
<path d="M207.744 269.013V174.624C207.744 174.394 207.791 174.166 207.883 173.955C207.975 173.744 208.11 173.554 208.278 173.397L215.547 166.55C215.709 166.398 215.899 166.279 216.107 166.2C216.315 166.121 216.536 166.083 216.758 166.09C216.98 166.097 217.199 166.147 217.401 166.238C217.604 166.33 217.786 166.46 217.939 166.622L224.315 173.405C224.608 173.719 224.77 174.132 224.769 174.561V269.013" fill="white"/>
<path d="M207.744 269.013V174.624C207.744 174.394 207.791 174.166 207.883 173.955C207.975 173.744 208.11 173.554 208.278 173.397L215.547 166.55C215.709 166.398 215.899 166.279 216.107 166.2C216.315 166.121 216.536 166.083 216.758 166.09C216.98 166.097 217.199 166.147 217.401 166.238C217.604 166.33 217.786 166.46 217.939 166.622L224.315 173.405C224.608 173.719 224.77 174.132 224.769 174.561V269.013" stroke="#2E353A" stroke-linecap="round" stroke-linejoin="round"/>
<path d="M271.103 268.216V174.624C271.103 174.395 271.149 174.168 271.24 173.957C271.33 173.746 271.462 173.555 271.629 173.397L278.906 166.55C279.067 166.398 279.258 166.279 279.465 166.2C279.673 166.121 279.894 166.083 280.116 166.09C280.338 166.097 280.557 166.147 280.76 166.238C280.962 166.33 281.145 166.46 281.297 166.622L287.674 173.405C287.966 173.719 288.129 174.132 288.128 174.561V268.216" fill="#2E353A"/>
<path d="M271.103 268.216V174.624C271.103 174.395 271.149 174.168 271.24 173.957C271.33 173.746 271.462 173.555 271.629 173.397L278.906 166.55C279.067 166.398 279.258 166.279 279.465 166.2C279.673 166.121 279.894 166.083 280.116 166.09C280.338 166.097 280.557 166.147 280.76 166.238C280.962 166.33 281.145 166.46 281.297 166.622L287.674 173.405C287.966 173.719 288.129 174.132 288.128 174.561V268.216" stroke="#2E353A" stroke-linecap="round" stroke-linejoin="round"/>
<path d="M269.381 269.013V174.625C269.381 174.394 269.428 174.166 269.52 173.955C269.612 173.744 269.746 173.554 269.915 173.397L277.184 166.55C277.511 166.244 277.947 166.08 278.395 166.093C278.842 166.107 279.267 166.297 279.575 166.622L285.952 173.405C286.247 173.718 286.412 174.131 286.414 174.561V269.013" fill="white"/>
<path d="M269.381 269.013V174.625C269.381 174.394 269.428 174.166 269.52 173.955C269.612 173.744 269.746 173.554 269.915 173.397L277.184 166.55C277.511 166.244 277.947 166.08 278.395 166.093C278.842 166.107 279.267 166.297 279.575 166.622L285.952 173.405C286.247 173.718 286.412 174.131 286.414 174.561V269.013" stroke="#2E353A" stroke-linecap="round" stroke-linejoin="round"/>
<path d="M33.0117 166.622V173.445" stroke="#2E353A" stroke-linecap="round" stroke-linejoin="round"/>
<path d="M35.7461 170.145V186.294" stroke="#2E353A" stroke-linecap="round" stroke-linejoin="round"/>
<path d="M87.8184 171.468V191.897" stroke="#2E353A" stroke-linecap="round" stroke-linejoin="round"/>
<path d="M90.4551 168.83V177.725" stroke="#2E353A" stroke-linecap="round" stroke-linejoin="round"/>
<path d="M153.91 166.55V186.628" stroke="#2E353A" stroke-linecap="round" stroke-linejoin="round"/>
<path d="M157.696 168.168V197.835" stroke="#2E353A" stroke-linecap="round" stroke-linejoin="round"/>
<path d="M210.758 171.468V193.873" stroke="#2E353A" stroke-linecap="round" stroke-linejoin="round"/>
<path d="M219.324 168.83V174.433" stroke="#2E353A" stroke-linecap="round" stroke-linejoin="round"/>
<path d="M275.023 168.495V180.363" stroke="#2E353A" stroke-linecap="round" stroke-linejoin="round"/>
<path d="M282.277 169.818V204.092" stroke="#2E353A" stroke-linecap="round" stroke-linejoin="round"/>
<path d="M269.094 219.914H261.841" stroke="#2E353A" stroke-linecap="round" stroke-linejoin="round"/>
<path d="M269.092 225.517H243.714" stroke="#2E353A" stroke-linecap="round" stroke-linejoin="round"/>
<path d="M174.5 225.517H162.967" stroke="#2E353A" stroke-linecap="round" stroke-linejoin="round"/>
<path d="M113.858 225.517H102.324" stroke="#2E353A" stroke-linecap="round" stroke-linejoin="round"/>
<path d="M22.5618 222.552H11.0283" stroke="#2E353A" stroke-linecap="round" stroke-linejoin="round"/>
<path d="M22.5623 227.821H17.9473" stroke="#2E353A" stroke-linecap="round" stroke-linejoin="round"/>
<path d="M168.57 222.552H162.967" stroke="#2E353A" stroke-linecap="round" stroke-linejoin="round"/>
<path d="M107.266 228.809H101.663" stroke="#2E353A" stroke-linecap="round" stroke-linejoin="round"/>
<path d="M83.8641 228.809H78.2607" stroke="#2E353A" stroke-linecap="round" stroke-linejoin="round"/>
<path d="M291.498 225.517H286.557" stroke="#2E353A" stroke-linecap="round" stroke-linejoin="round"/>
<path d="M298.091 225.517H295.126" stroke="#2E353A" stroke-linecap="round" stroke-linejoin="round"/>
<path d="M39.5638 191.251C39.5638 191.251 37.5711 208.38 35.18 225.908C32.7888 243.435 37.1726 261.369 38.3682 262.963" stroke="#2E353A" stroke-linecap="round" stroke-linejoin="round"/>
<path d="M31.6807 225.923C32.0633 222.504 32.3821 220.344 32.3821 220.344" stroke="#2E353A" stroke-linecap="round" stroke-linejoin="round"/>
<path d="M37.5622 260.97C37.5622 260.97 30.3887 259.376 30.3887 246.623C30.3887 241.387 30.7234 236.022 31.122 231.479" stroke="#2E353A" stroke-linecap="round" stroke-linejoin="round"/>
<path d="M97.748 170.926C97.748 170.926 99.3422 172.122 96.5524 185.672C93.7627 199.222 94.1612 219.148 97.748 230.307" stroke="#2E353A" stroke-linecap="round" stroke-linejoin="round"/>
<path d="M101.736 196.034C101.736 196.034 97.7502 207.99 100.54 224.728" stroke="#2E353A" stroke-linecap="round" stroke-linejoin="round"/>
<path d="M147.167 203.598C147.167 203.598 149.16 215.155 151.152 227.103C153.145 239.051 151.551 255.797 149.957 260.173C148.363 264.549 146.769 268.144 146.769 268.144" stroke="#2E353A" stroke-linecap="round" stroke-linejoin="round"/>
<path d="M154.675 262.286C152.897 267.737 150.689 261.369 150.689 261.369" stroke="#2E353A" stroke-linecap="round" stroke-linejoin="round"/>
<path d="M154.604 221.54C154.604 221.54 158.358 240.916 156.238 255.503" stroke="#2E353A" stroke-linecap="round" stroke-linejoin="round"/>
<path d="M146.37 227.916C146.37 227.916 150.355 236.285 146.769 244.256" stroke="#2E353A" stroke-linecap="round" stroke-linejoin="round"/>
<path d="M220.735 229.096C221.269 231.532 221.969 233.929 222.832 236.269" stroke="#2E353A" stroke-linecap="round" stroke-linejoin="round"/>
<path d="M224.028 187.664C221.499 195.692 219.894 203.982 219.246 212.373C219.008 216.619 219.246 220.878 219.955 225.071" stroke="#2E353A" stroke-linecap="round" stroke-linejoin="round"/>
<path d="M216.455 224.313C216.455 224.313 220.042 237.863 222.035 242.646C224.027 247.428 223.23 258.978 220.839 264.557" stroke="#2E353A" stroke-linecap="round" stroke-linejoin="round"/>
<path d="M270.242 193.642C270.242 193.642 278.213 207.989 270.641 231.495" stroke="#2E353A" stroke-linecap="round" stroke-linejoin="round"/>
<path d="M277.567 218.144C277.615 222.624 277.216 228.299 275.423 233.081C271.836 242.646 270.242 245.834 270.242 245.834" stroke="#2E353A" stroke-linecap="round" stroke-linejoin="round"/>
<path d="M277.017 210.381C277.017 210.381 277.28 212.094 277.439 214.733" stroke="#2E353A" stroke-linecap="round" stroke-linejoin="round"/>
</svg>
