<svg viewBox="0 0 264 185" fill="none" xmlns="http://www.w3.org/2000/svg"><path opacity=".1" d="M11.1943 25.291c.4278 3.584 1.5208 7.0455 1.5303 10.6702C12.7603 47.8051 1.8795 55.0797.2137 66.7165c-.9885 6.9042 1.5731 13.9591 5.185 19.109 3.6119 5.15 8.217 8.8625 12.4586 13.0992C29.5931 110.668 38.639 126.472 43.9936 144.587c1.0717 3.64 1.9937 7.394 2.2978 11.279.221 2.824.1165 5.715.6179 8.473 1.9841 10.95 12.0451 15.199 20.5521 15.908 13.7011 1.124 27.4154-1.901 40.0966-8.843 2.852-1.57 5.796-3.352 8.856-2.91 2.448.355 4.632 2.103 6.78 3.694 6.326 4.689 13.058 8.35 20.05 10.903 3.874 1.412 7.939 2.485 11.896 1.569 11.881-2.768 18.195-21.799 29.853-25.96 8.065-2.878 16.458 2.149 23.691 7.67 7.233 5.52 14.699 11.878 23.049 11.894 11.14.019 20.298-11.116 27.855-21.924 1.585-2.269 3.196-4.642 3.951-7.564 1.533-5.931-.95-12.593-4.621-16.579-3.672-3.986-8.301-5.963-12.723-8.241-7.495-3.862-14.648-8.796-21.331-14.713-4.325-3.828-8.514-8.159-11.473-13.808-2.545-4.8707-4.073-10.5165-5.779-15.9896-3.74-11.9852-9.03-24.1649-17.862-29.7887-7.212-4.5944-15.588-4.0798-23.594-4.2021-11.795-.1727-23.891-2.0462-34.348-9.2517-8.833-6.0852-16.088-15.6915-25.051-21.444-14.2572-9.1418-30.5558-7.3498-45.9182-7.0046-7.383.1663-16.1585 1.1392-23.2492-2.0556-5.2443-2.3631-7.9437-7.193-13.9675-5.2472C15.3837 3.1033 9.8779 14.2348 11.1943 25.291z" fill="#56B5CB"/><path d="M235.999 117.294c-.383-1.27-.343-2.63.115-3.875.733-1.896 2.519-3.264 3.147-5.202 1.168-3.599-1.979-6.969-3.909-10.2312a17.187 17.187 0 01-2.3-10.0184c.301-3.7532 1.838-7.3427 1.955-11.1057.105-3.5065-1.031-6.9176-2.153-10.2408-.926-2.7465-1.869-5.5248-3.435-7.9634-2.962-4.6109-8.223-7.5089-13.633-7.9878-2.553-.2273-5.05.6035-7.56.2785-3.484-.4496-6.778-1.3537-10.331-1.4661-3.374-.1002-7.106.3275-9.405 2.8003-1.757 1.8937-2.319 4.628-3.927 6.6512-2.282 2.8712-6.272 3.8559-8.796 6.5144a9.2216 9.2216 0 00-2.222 4.1747 9.2303 9.2303 0 00.137 4.7271c.35 1.1337.922 2.1869 1.293 3.3134 1.561 4.7062-.489 9.7398-1.728 14.5389a2.201 2.201 0 00-.073 1.2217c.196.5865.811.8943 1.322 1.2413 1.671 1.1387 2.524 3.201 2.688 5.2169.164 2.016-.303 4.024-.762 5.994-1.171 5.007-2.635 10.37-6.493 13.701-.7-1.671-1.529-3.285-2.478-4.829-2.36-3.826-4.107-8.552-4.137-13.075a.2804.2804 0 010-.041c0-.245.013-.489.027-.733.306-5.3371 2.613-10.4856 2.561-15.7978 0-.43-.012-.8609-.036-1.2926-.301-4.5474-2.486-8.7527-4.99-12.5597-1.869-2.8418-3.976-5.5858-6.673-7.6555-4.171-3.1741-9.471-4.5523-14.679-5.2804-5.207-.7282-9.945-1.4124-15.193-1.7642-5.645-.3788-11.856-.5914-16.318 2.8833-5.818 4.5303-6.141 13.2805-10.5756 19.1694-2.639 3.504-6.8418 6.2114-8.2322 10.1919a24.6081 24.6081 0 01-.9383-2.9934c-.0147-.0684-.0293-.1343-.044-.2028a29.1362 29.1362 0 001.1314-14.9616 18.4239 18.4239 0 00.1686-2.4435 9.6211 9.6211 0 00-.2859-2.6414c-.628-2.38-2.3604-4.2835-4.0342-6.0893a17.8674 17.8674 0 00-1.9793-1.9181 29.0092 29.0092 0 00-49.7332 8.8248 29.0093 29.0093 0 00.2667 20.0086c-.215 1.6665-.8601 3.2865-2.0452 4.4619-.54.5351-1.2388 1.2046-1.1216 1.8888a.9222.9222 0 00.0782.5742c.1201.2133.2872.3963.4887.5352a8.7964 8.7964 0 005.9842 1.7837 25.018 25.018 0 0010.077 12.9355c0 .163-.0057.321-.0171.475 0 .271-.022.54-.0342.813V109.957c0-.025-8.5083 11.091-16.3715 11.504-4.198.22-7.8608 3.052-10.6366 6.289-3.333 3.885-5.3904 8.352-5.5663 9.589C14.2676 139.606 12 150.626 12 150.626h65.3249c-.7722 3.969-1.8131 9.024-1.8131 9.024H181.265a414.329 414.329 0 00-.768-9.202h13.295l-.014.081h61.332l3.89-5.838c-.965-17.009-10.998-26.36-23.001-27.397zM83.3041 98.2937a15.8425 15.8425 0 004.3984 1.5834c.667.1369 1.4123.2219 1.9816-.1515a2.277 2.277 0 00.7991-1.1313l.0293.0733c1.6494 4.1544 3.1766 8.4394 3.4722 12.9014.0269.421.044.841.0465 1.264a18.2752 18.2752 0 01-1.5419 7.394 142.7399 142.7399 0 01-15.9488-9.774l-.3445-.147c0 .027.1197.332.2614.848.0342.125.0709.261.1075.408a53.042 53.042 0 01-.9456-3.458l-.0953-.417a25.0584 25.0584 0 007.7801-9.3933z" fill="url(#paint0_linear)"/><path d="M196.915 50.3468c-3.32-.1002-6.995.3225-9.256 2.7562-1.73 1.862-2.282 4.5548-3.865 6.5462-2.246 2.8272-6.172 3.7948-8.66 6.4118a9.0721 9.0721 0 00-2.187 4.1092 9.0876 9.0876 0 00.134 4.6532c.345 1.1143.907 2.1528 1.274 3.2597 1.537 4.6427-.47 9.5859-1.711 14.3092a2.1585 2.1585 0 00-.071 1.2071c.191.5767.799.8797 1.3 1.2217 1.645 1.1216 2.485 3.1497 2.634 5.1314.149 1.9815-.298 3.9605-.75 5.8985-1.2 5.132-2.715 10.656-6.881 13.889-1.759 1.381-4.11 2.5-4.569 4.699-.538 2.575 1.92 4.765 4.278 5.93 6.923 3.421 14.96 3.47 22.532 4.995 6.668 1.344 13.32 3.89 20.069 3.02 3.008-.386 5.884-1.444 8.73-2.492l17.726-6.532c.5-.153.971-.39 1.392-.701 1.068-.89 1.105-2.58.523-3.844-.581-1.263-1.637-2.231-2.565-3.267-2.024-2.265-3.563-5.463-2.459-8.293.733-1.867 2.481-3.213 3.099-5.131 1.148-3.543-1.955-6.862-3.837-10.0725a16.9108 16.9108 0 01-2.262-9.8498c.295-3.6946 1.808-7.2279 1.918-10.9323.103-3.4503-1.014-6.8076-2.119-10.0795-.911-2.7025-1.84-5.4368-3.381-7.8388-2.916-4.5376-8.093-7.3892-13.42-7.8632-2.515-.2224-4.97.5938-7.441.2761-3.433-.4227-6.678-1.3122-10.175-1.4172z" fill="#F7D6C8"/><path d="M201.872 147.308s-20.095-12.599-12.281-27.123c1.809-3.357 2.608-6.534 2.771-9.434.043-.765.043-1.531 0-2.295v-.11c-.026-.394-.061-.782-.105-1.163-.931-7.6676-5.857-12.6646-5.857-12.6646s33.332-9.7276 27.751-.9578c-2.59 4.0708-1.815 8.0634-.081 12.1954.184.435.379.875.582 1.312 2.004 4.357 4.784 8.87 5.561 13.765 1.594 10.047-18.341 26.475-18.341 26.475z" fill="#EFB7B9"/><path opacity=".1" d="M214.151 93.5606c-2.59 4.0709-1.815 8.0634-.081 12.1954a22.5278 22.5278 0 01-10.724 3.545c-3.817.251-7.636-.474-11.096-2.108-.924-7.6775-5.85-12.6745-5.85-12.6745s33.335-9.7301 27.751-.9579z" fill="#000"/><path d="M201.87 108.872c12.419 0 22.487-10.0684 22.487-22.4879 0-12.4196-10.068-22.4877-22.487-22.4877-12.42 0-22.488 10.0681-22.488 22.4877 0 12.4195 10.068 22.4879 22.488 22.4879z" fill="#EFB7B9"/><path opacity=".1" d="M192.363 108.457v-.104l.026-.041c-.014.051-.024.099-.026.145zM201.872 147.308s-20.095-12.599-12.281-27.123c1.809-3.357 2.608-6.534 2.771-9.434.457 3.587 2.933 8.046 7.438 14.219 1.955 2.688 2.796 6.446 3.062 10.201l.447.325 2.199-1.329c.245-4.154 1.085-8.352 3.074-11.328 5.227-7.819 6.468-11.729 6.082-15.78 2.004 4.356 4.785 8.87 5.562 13.764 1.581 10.058-18.354 26.485-18.354 26.485z" fill="#000"/><path d="M234.088 117.045c-11.974-.87-19.548-10.165-19.548-10.165.637 4.354-.399 8.252-5.982 16.616-1.977 2.966-2.815 7.157-3.059 11.321l-2.2 1.329-.447-.325c-.266-3.753-1.104-7.516-3.061-10.202-5.581-7.655-8.064-12.679-7.417-16.667 0 0-6.14 9.967-18.101 10.766-11.961.799-22.009 9.251-22.969 24.721l3.826 5.264h37.745l-.014.08h60.354l3.842-5.749c-.961-16.89-10.996-26.119-22.969-26.989z" fill="#56B5CB"/><path opacity=".05" d="M234.088 117.045c-11.974-.87-19.548-10.165-19.548-10.165.637 4.354-.399 8.252-5.982 16.616-1.977 2.966-2.815 7.157-3.059 11.321l-2.2 1.329-.447-.325c-.266-3.753-1.104-7.516-3.061-10.202-5.581-7.655-8.064-12.679-7.417-16.667 0 0-6.14 9.967-18.101 10.766-11.961.799-22.009 9.251-22.969 24.721l3.826 5.264h37.745l-.014.08h60.354l3.842-5.749c-.961-16.89-10.996-26.119-22.969-26.989z" fill="#000"/><path opacity=".1" d="M217.073 75.5154c-.977 2.4191-2.712 4.4618-4.608 6.2554-2.62 2.4801-5.914 4.6646-9.515 4.496a14.5933 14.5933 0 004.107-6.7489c-2.272 1.3244-3.99 3.4209-6.16 4.9139-2.17 1.4929-5.236 2.2627-7.357.7037a22.054 22.054 0 009.204-8.6965c-5.15 1.3366-7.794 7.1375-12.435 9.7423-2.174 1.2218-4.718 1.6812-7.21 1.6274-1.772-.0367-3.746-.4496-4.733-1.9206-.577-.8552-.712-1.9304-.734-2.964-.107-4.6866 1.801-9.2853 4.741-12.9335 2.939-3.6481 6.842-6.4215 11.015-8.5743 1.486-.7672 3.035-1.4661 4.689-1.7104 2.058-.2981 4.154.1393 6.173.6035 2.624.6011 5.263 1.2609 7.68 2.4435 5.158 2.5535 7.411 7.1815 5.143 12.7625z" fill="#000"/><path d="M217.073 75.1949c-.977 2.4191-2.712 4.4619-4.608 6.2554-2.62 2.4802-5.914 4.6647-9.515 4.4961a14.594 14.594 0 004.107-6.749c-2.272 1.3244-3.99 3.4209-6.16 4.9139-2.17 1.493-5.236 2.2627-7.357.7037a22.0544 22.0544 0 009.204-8.6964c-5.15 1.3366-7.794 7.1375-12.435 9.7422-2.174 1.2218-4.718 1.6812-7.21 1.6274-1.772-.0366-3.746-.4496-4.733-1.9206-.577-.8552-.712-1.9304-.734-2.964-.107-4.6866 1.801-9.2853 4.741-12.9335 2.939-3.6481 6.842-6.4215 11.015-8.5743 1.486-.7672 3.035-1.4661 4.689-1.7104 2.058-.2981 4.154.1393 6.173.6035 2.624.6011 5.263 1.2609 7.68 2.4435 5.158 2.5486 7.411 7.1815 5.143 12.7625z" fill="#F7D6C8"/><path d="M62.0182 104.981c15.7664 0 28.5476-12.7808 28.5476-28.5472S77.7846 47.8863 62.0182 47.8863c-15.7663 0-28.5475 12.7811-28.5475 28.5475 0 15.7664 12.7812 28.5472 28.5475 28.5472z" fill="#C3705A"/><path d="M87.6168 131.376s-26.1455 6.698-26.7931 7.33c-.6475.633-22.0087 1.755-15.7899-11.323 2.2847-4.801 3.2352-11.323 3.5235-17.654.0122-.269.0245-.535.0342-.802.3934-10.6118-1.0043-20.4591-1.0043-20.4591s30.2995-11.9732 28.0686 6.2212c-.5571 4.5254-.0953 9.0729.9163 13.3489.3372 1.427.7331 2.822 1.1729 4.176 3.5382 10.908 9.8718 19.162 9.8718 19.162z" fill="#ECB4B6"/><path opacity=".1" d="M76.569 108.043a24.5635 24.5635 0 01-13.8512 4.82 24.568 24.568 0 01-14.1294-3.93c.3934-10.6127-1.0043-20.46-1.0043-20.46s30.2995-11.9732 28.0686 6.2212c-.5547 4.5278-.0928 9.0748.9163 13.3488z" fill="#000"/><path d="M61.9387 112.395c13.564 0 24.5597-10.996 24.5597-24.5598 0-13.564-10.9957-24.5597-24.5597-24.5597-13.5639 0-24.5597 10.9957-24.5597 24.5597 0 13.5638 10.9958 24.5598 24.5597 24.5598z" fill="#ECB4B6"/><path opacity=".1" d="M87.6168 131.376s-26.1455 6.698-26.7931 7.331c-.6475.633-22.0087 1.754-15.7899-11.323 2.2847-4.802 3.2352-11.324 3.5235-17.655.2444 3.309 2.1356 11.321 2.3776 13.987.0153.156.0465.31.0928.459.3543 1.185 1.6176 2.551 3.1399 3.846l.0904.076a11.6523 11.6523 0 006.7093 2.698 11.6421 11.6421 0 007.0086-1.782 61.7564 61.7564 0 006.2456-4.501c2.8442-2.348 3.7312-5.512 3.8412-8.307a17.793 17.793 0 00-.3177-4.003c3.5382 10.92 9.8718 19.174 9.8718 19.174z" fill="#000"/><path d="M120.632 149.879H13.9282s2.2334-10.845 2.551-13.078c.1735-1.222 2.1992-5.62 5.4808-9.439 2.7319-3.177 6.3361-5.975 10.4681-6.192 7.7337-.406 16.1076-11.323 16.1076-11.323.1857 3.176 2.1454 11.472 2.3922 14.194.0154.156.0465.31.0928.459.3543 1.186 1.6176 2.551 3.1399 3.847l.0905.075a11.6449 11.6449 0 0013.7178.919 62.1741 62.1741 0 006.2457-4.501c2.8442-2.348 3.7312-5.512 3.8411-8.308a18.3932 18.3932 0 00-.667-5.495c-.1393-.509-.2444-.807-.259-.834l.3396.145s14.4485 10.507 27.6847 14.802c1.552.505 3.015 1.247 4.34 2.2 1.073.775 2.061 1.662 2.947 2.646a27.3988 27.3988 0 014.398 6.766c3.069 6.505 3.793 13.117 3.793 13.117z" fill="#56B5CB"/><path opacity=".05" d="M120.632 149.879H13.9282s2.2334-10.845 2.551-13.078c.1735-1.222 2.1992-5.62 5.4808-9.439 2.7319-3.177 6.3361-5.975 10.4681-6.192 7.7337-.406 16.1076-11.323 16.1076-11.323.1857 3.176 2.1454 11.472 2.3922 14.194.0154.156.0465.31.0928.459.3543 1.186 1.6176 2.551 3.1399 3.847l.0905.075a11.6449 11.6449 0 0013.7178.919 62.1741 62.1741 0 006.2457-4.501c2.8442-2.348 3.7312-5.512 3.8411-8.308a18.3932 18.3932 0 00-.667-5.495c-.1393-.509-.2444-.807-.259-.834l.3396.145s14.4485 10.507 27.6847 14.802c1.552.505 3.015 1.247 4.34 2.2 1.073.775 2.061 1.662 2.947 2.646a27.3988 27.3988 0 014.398 6.766c3.069 6.505 3.793 13.117 3.793 13.117z" fill="#000"/><path opacity=".1" d="M73.7441 79.5883c.6353 2.4435 1.4661 5.1582 3.6481 6.4313a3.204 3.204 0 01.7991.5449c.5375.584.3738 1.4954.2932 2.2871-.2786 2.7172.8894 5.471 2.8051 7.4185 1.9157 1.9475 4.5083 3.1375 7.184 3.6848.6548.1341 1.3903.2201 1.9548-.149a2.2802 2.2802 0 00.8014-1.1509c.7453-1.9817.4301-4.2077-.193-6.231-.6231-2.0232-1.5419-3.9536-2.0135-6.0183-1.1215-4.8993.3641-9.9622 1.0337-14.9445.2223-1.6567.3518-3.3647-.0758-4.9799-.6182-2.3409-2.3238-4.2175-3.9707-5.9939-.887-.9554-1.7935-1.928-2.9322-2.5535-3.3574-1.8351-7.68-.2053-11.2646-1.5419-1.4344-.5351-2.6537-1.5125-4.0196-2.1991-2.9004-1.4661-6.3385-1.5468-9.5175-.8797-3.179.6671-6.1576 2.0379-9.1069 3.3965l-2.2554 1.0214c-3.1766 1.4661-6.5804 3.1228-8.2908 6.1894-1.8204 3.2645-1.3146 7.4429-3.1351 10.7075-.5522.9774-1.3219 1.9157-1.4661 3.0397-.0977.8112.1515 1.6225.3837 2.4068.5669 1.9084 1.0604 3.8706 1.0165 5.8645-.044 1.9939-.6793 4.0366-2.0917 5.4392-.5962.5913-1.3928 1.3488-1.0263 2.1039a1.584 1.584 0 00.4887.5278 8.653 8.653 0 008.242 1.2217c1.0703-.408 2.0819-1.0629 2.6879-2.0281a7.9386 7.9386 0 00.865-2.2676c.7721-2.876 1.5492-5.8009 1.4881-8.7795-.0342-1.7105-.347-3.4356-.0978-5.1314.2493-1.6958 1.2389-3.4429 2.8883-3.9096 1.2217-.3494 2.529.0733 3.8045.0611 1.8375-.0147 4.0905-2.0525 5.7936-1.4539 1.4661.518 2.6268 3.3232 3.8387 4.3983 3.074 2.7441 7.3648 4.1784 11.4406 3.4674z" fill="#000"/><path d="M73.745 79.2682c.6353 2.4435 1.4661 5.1583 3.6482 6.4313.2881.1373.5541.3168.7892.5327.5376.584.3739 1.4955.2933 2.2872-.2786 2.7171.8894 5.471 2.8051 7.4185 1.9157 1.9474 4.5083 3.1374 7.1839 3.6848.6549.1344 1.3904.2199 1.9548-.1491a2.2798 2.2798 0 00.8015-1.1509c.7453-1.9817.4301-4.2077-.193-6.2309-.6231-2.0233-1.5419-3.9536-2.0135-6.0184-1.1216-4.8992.3641-9.9622 1.0336-14.9445.2224-1.6567.3519-3.3647-.0757-4.9799-.6182-2.3409-2.3238-4.2175-3.9707-5.9939-.887-.9554-1.7936-1.928-2.9323-2.5535-3.3573-1.8351-7.6799-.2053-11.2645-1.5419-1.4344-.5351-2.6537-1.5125-4.0196-2.1991-2.9005-1.4661-6.3385-1.5468-9.5175-.8797-3.179.6671-6.1576 2.0379-9.107 3.3965l-2.226 1.0263c-3.1766 1.4661-6.5804 3.1228-8.2908 6.1894-1.8204 3.2645-1.3146 7.4429-3.135 10.7075-.5523.9774-1.322 1.9157-1.4662 3.0397-.0977.8112.1515 1.6225.3837 2.4068.5669 1.9084 1.0605 3.8706 1.0165 5.8645-.044 1.9939-.6793 4.0367-2.0917 5.4392-.5962.5914-1.3928 1.3488-1.0262 2.1039a1.582 1.582 0 00.4887.5278 8.6522 8.6522 0 008.2419 1.2217c1.0703-.408 2.0819-1.0629 2.6879-2.0281a7.939 7.939 0 00.865-2.2675c.7721-2.8761 1.5492-5.8009 1.4881-8.7796-.0342-1.7104-.347-3.4356-.0978-5.1314.2493-1.6958 1.2389-3.4429 2.8883-3.9096 1.2217-.3494 2.529.0733 3.8045.0611 1.8375-.0147 4.0905-2.0525 5.7936-1.4539 1.4661.518 2.6268 3.3232 3.8387 4.3983 3.0544 2.7539 7.3452 4.1882 11.421 3.4747z" fill="#C3705A"/><path d="M155.56 89.6999H99.579v48.0051h55.981V89.6999z" fill="#463A3E"/><path opacity=".05" d="M155.56 89.6999H99.579v48.0051h55.981V89.6999z" fill="#000"/><path d="M147.533 158.758H99.6399c.6181-3.487 2.4261-7.309 5.9501-11.428a42.2936 42.2936 0 006.749-10.801 42.536 42.536 0 001.222-3.149 46.1211 46.1211 0 002.147-9.633c0-.092.022-.185.032-.278.247-2.265.347-4.544.298-6.822v-.489a62.1254 62.1254 0 00-2.749-16.4742l-.061-.1906c-.52-1.6396-.901-2.5608-.901-2.5608s.95-.5156 2.519-1.2755l.132-.0636c5.769-2.7709 19.426-8.5522 25.447-4.4325l.097.066c2.107 1.5003 3.24 4.2541 2.708 8.8402v.054c0 .086-.02.169-.027.245a88.658 88.658 0 00-.457 9.515v.488c0 .745.008 1.499.024 2.263v.308c.049 2.468.159 5.016.313 7.602.213 3.584.516 7.235.865 10.817.149 1.532.31 3.054.489 4.552.019.176.039.357.058.53.206 1.826.418 3.614.636 5.349l.014.113c.831 6.89 1.75 12.906 2.388 16.855z" fill="#C17174"/><path opacity=".1" d="M143.209 100.078v.053c-.344 3.247-.507 6.51-.488 9.774v.489a23.3171 23.3171 0 01-12.328 7.478 23.3164 23.3164 0 01-14.368-1.203v-.489a62.0085 62.0085 0 00-2.81-16.6645c-.52-1.6396-.902-2.5608-.902-2.5608s.951-.5156 2.52-1.2755c5.713-2.7612 19.653-8.7234 25.669-4.4423 2.104 1.5003 3.237 4.2541 2.707 8.8411z" fill="#000"/><path d="M125.07 117.993c12.863 0 23.291-10.428 23.291-23.2917 0-12.8636-10.428-23.2915-23.291-23.2915-12.864 0-23.292 10.4279-23.292 23.2915 0 12.8637 10.428 23.2917 23.292 23.2917z" fill="#C17174"/><path opacity=".1" d="M126.303 158.6H76.6138s2.2333-10.845 2.551-13.078c.1735-1.222 2.1992-5.62 5.4808-9.439a24.1028 24.1028 0 0114.8272-5.261c9.5032-.142 12.2692 3.13 13.0192 5.549.262.811.329 1.673.195 2.514l1.799 2.605 11.817 17.11z" fill="#000"/><path d="M126.144 158.758H76.4556s2.2333-10.845 2.551-13.078c.1735-1.222 2.1991-5.62 5.4808-9.439a24.1028 24.1028 0 0114.8272-5.261c9.5024-.142 12.2684 3.13 13.0194 5.549.262.811.329 1.673.195 2.515l1.799 2.604 11.816 17.11z" fill="#56B5CB"/><path opacity=".1" d="M180.385 158.6h-52.062c2.483-5.283 8.99-19.368 9.352-22.625.139-1.261 1.483-2.443 3.262-3.448.562-.321 1.14-.613 1.732-.874l.108-.049c.326-.144.655-.276.989-.399a19.8368 19.8368 0 0113.928.11c4.274 1.625 9.774 3.815 14.055 5.865l.035.017c1.099.528 2.123 1.043 3.025 1.539 1.803.99 3.12 1.894 3.626 2.617.232.333.489 1.831.77 4.154.373 3.143.781 7.805 1.18 13.093z" fill="#000"/><path d="M180.543 158.758h-52.062c2.483-5.283 8.99-19.367 9.352-22.624.139-1.261 1.483-2.444 3.262-3.448.561-.322 1.14-.613 1.732-.875l.108-.049c.325-.143.655-.276.989-.398a19.8368 19.8368 0 0113.928.11c4.274 1.625 9.774 3.814 14.055 5.865l.035.017c1.099.527 2.123 1.043 3.025 1.539 1.803.99 3.12 1.894 3.626 2.617.232.332.489 1.83.77 4.154.376 3.142.782 7.807 1.18 13.092z" fill="#56B5CB"/><path opacity=".1" d="M172.164 133.211c0 .751-.02 1.503-.061 2.256-.023.366-.05.733-.083 1.099-.022.264-.049.526-.076.787l-.034.303c-.398 3.553-1.134 7.086-1.222 10.656v.506c-.017 3.352.526 6.654 1.261 9.94h-29.982c-.048-.608-.073-1.222-.066-1.825 0-.545.035-1.09.091-1.637.462-4.499 2.761-8.709 3.108-13.178l.015-.205c.022-.335.034-.672.029-1.01v-.09a17.2478 17.2478 0 00-.677-4.364c-.019-.071-.039-.142-.058-.213a44.021 44.021 0 00-1.467-4.154l-.107-.271c-.814-2.033-1.669-4.049-2.248-6.069-.46-1.505-.698-3.069-.706-4.643 0-.281.017-.562.039-.843.019-.23.046-.46.08-.692.054-.362.126-.722.215-1.077.489-1.926 1.533-3.731 2.532-5.52 1.112-1.992 2.172-3.961 2.363-6.055.024-.265.033-.531.027-.797a7.1292 7.1292 0 00-.098-1.021c-.257-1.486-1.021-2.822-1.649-4.193a26.737 26.737 0 01-.189-.42c0-.022-.019-.044-.026-.066-1.222-2.8227-1.931-5.8331-2.676-8.8288a20.5156 20.5156 0 00-.098-.3861c-.183-.7331-.371-1.4661-.572-2.1992-1.094-3.9975-2.653-8.0367-5.62-10.9225-2.966-2.8857-7.697-4.347-11.411-2.5094-3.213 1.6005-4.953 5.1826-5.737 8.6817-.785 3.4992-.848 7.1522-1.867 10.5927-.073.2508-.155.5009-.244.7501-.044.1271-.088.2444-.132.3836-.438 1.2462-.978 2.4802-1.559 3.7068l-.061.1296c-1.857 3.9515-4.015 7.8335-4.084 11.8045v.371c.013.944.156 1.882.426 2.786.488 1.627 1.373 3.047 2.404 4.398.204.266.412.529.626.79 1.026 1.26 2.14 2.482 3.115 3.782l.032.042c.741.96 1.367 2.004 1.864 3.11.59 1.386.898 2.875.906 4.381a11.361 11.361 0 01-.857 4.391c-.277.644-.594 1.269-.95 1.872-.628 1.085-1.32 2.141-1.865 3.27-.183.378-.347.764-.489 1.155-1.221 3.148-1.485 6.63-2.482 9.877a22.422 22.422 0 01-3.551 6.913H76.5278c.369-1.806 2.1992-10.752 2.4875-12.76.1735-1.222 2.1992-5.62 5.4808-9.44-.2761.218-.5424.438-.799.658a27.1801 27.1801 0 00-5.3195 6.123c.0708-.22.1441-.442.2174-.662.4472-1.334.931-2.656 1.4222-3.961 1.4221-3.758 3.0055-7.592 5.8399-10.441 1.6005-1.608 3.548-2.847 5.0728-4.525 2.6878-2.955 3.7996-7.047 3.7679-11.06 0-.415-.0171-.828-.044-1.241-.2908-4.398-1.7936-8.608-3.4209-12.7063-.8748-2.1991-1.8033-4.5107-1.7618-6.8418a7.6103 7.6103 0 01.0709-.9774c.6719-4.8308 5.5589-7.7239 8.4936-11.6213 4.3644-5.7984 4.6814-14.4167 10.4074-18.8688 4.398-3.4209 10.507-3.2107 16.061-2.8393 5.165.347 9.827 1.0189 14.954 1.7373 5.126.7184 10.329 2.0672 14.441 5.2267 2.656 2.0379 4.728 4.7379 6.568 7.5358 2.463 3.7483 4.616 7.8876 4.912 12.3617.022.3201.034.6377.034.9529.051 5.2291-2.219 10.297-2.519 15.5485-.013.244-.022.488-.025.733a.2539.2539 0 000 .039c-.054 4.552 1.694 9.331 4.071 13.195a35.3779 35.3779 0 015.224 18.289z" fill="#000"/><path d="M172.165 133.212c0 .645-.024 1.292-.061 1.935-.022.366-.05.733-.083 1.099-.032.367-.069.73-.11 1.09-.398 3.553-1.133 7.086-1.221 10.656v.824c.017 3.35.584 6.653 1.331 9.94h-30.026c-.056-.608-.09-1.222-.095-1.825-.006-.653.024-1.306.091-1.955.461-4.499 2.761-8.709 3.108-13.178.024-.327.041-.655.044-.977v-.23a17.4887 17.4887 0 00-.731-4.667 43.915 43.915 0 00-1.466-4.154c-.845-2.124-1.752-4.232-2.358-6.353a16.5063 16.5063 0 01-.706-4.333c-.007-.388.006-.776.039-1.163.019-.229.046-.459.081-.691.053-.363.125-.723.215-1.078.488-1.925 1.532-3.731 2.531-5.52 1.114-1.994 2.18-3.968 2.368-6.065.014-.158.022-.32.027-.488.011-.45-.021-.899-.098-1.342-.257-1.485-1.021-2.822-1.649-4.193-.064-.139-.127-.278-.189-.42-1.238-2.8394-1.954-5.8645-2.702-8.8945-.215-.865-.435-1.73-.667-2.5876-1.095-3.9976-2.654-8.0367-5.62-10.9225-2.967-2.8858-7.69-4.3177-11.402-2.4704-3.213 1.6005-4.953 5.1827-5.737 8.6818-.784 3.4991-.848 7.1521-1.867 10.5926-.112.3787-.244.7575-.369 1.1338-.454 1.2877-1.021 2.5657-1.617 3.8363-1.909 4.0535-4.13 8.0415-4.084 12.1245v.052c.013.943.156 1.881.426 2.785.488 1.628 1.373 3.047 2.404 4.398.204.266.412.529.626.79 1.038 1.275 2.164 2.509 3.147 3.824.741.96 1.367 2.004 1.864 3.11.59 1.386.898 2.876.906 4.382.008 1.506-.283 2.998-.857 4.391-.277.643-.594 1.268-.95 1.871-.628 1.085-1.32 2.141-1.865 3.27-.183.378-.347.765-.489 1.156-1.221 3.147-1.485 6.629-2.482 9.876a22.483 22.483 0 01-3.795 7.231H76.4556s2.2333-10.845 2.551-13.078c.1588-1.117 1.8717-4.887 4.6818-8.462.2443-.327.5229-.655.799-.977a27.3806 27.3806 0 00-5.8987 6.436l-.2174.342c.5082-1.562 1.0678-3.103 1.642-4.623 1.4221-3.758 3.0055-7.592 5.84-10.441 1.6005-1.608 3.548-2.847 5.0727-4.526 2.6097-2.876 3.7386-6.842 3.7679-10.751 0-.523 0-1.044-.0439-1.562-.2908-4.398-1.7936-8.608-3.421-12.7059-.8332-2.1063-1.7104-4.3005-1.7617-6.5339a7.932 7.932 0 01.0708-1.2877c.6744-4.804 5.5615-7.6849 8.4961-11.5945 4.3638-5.7985 4.6818-14.4167 10.4068-18.8688 4.398-3.4209 10.507-3.2108 16.061-2.8394 5.166.347 9.828 1.019 14.955 1.7374 5.126.7184 10.336 2.0647 14.443 5.2144 2.656 2.0501 4.728 4.738 6.568 7.5383 2.463 3.7483 4.616 7.8876 4.912 12.3617.029.4252.041.8495.034 1.2731-.041 5.1142-2.226 10.0843-2.519 15.2303-.02.347-.03.692-.025 1.041a.2539.2539 0 000 .039c.03 4.457 1.75 9.105 4.071 12.87a35.393 35.393 0 015.224 18.625z" fill="#463A3E"/><defs><linearGradient id="paint0_linear" x1="135.495" y1="159.645" x2="135.495" y2="46.9995" gradientUnits="userSpaceOnUse"><stop stop-color="gray" stop-opacity=".25"/><stop offset=".54" stop-color="gray" stop-opacity=".12"/><stop offset="1" stop-color="gray" stop-opacity=".1"/></linearGradient></defs></svg>