<svg width="300" height="300" viewBox="0 0 300 300" fill="none" xmlns="http://www.w3.org/2000/svg">
<path d="M150.102 283.92C226.417 283.92 288.282 248.203 288.282 204.144C288.282 160.085 226.417 124.368 150.102 124.368C73.7872 124.368 11.9219 160.085 11.9219 204.144C11.9219 248.203 73.7872 283.92 150.102 283.92Z" fill="#F5F5F5"/>
<path d="M72.6777 35.184L67.7097 38.046C67.7384 37.8292 67.7525 37.6107 67.7517 37.392V35.952C67.7517 33.39 65.9517 32.352 63.7437 33.636C62.7858 34.218 61.9667 35.0023 61.3437 35.934C60.9837 32.718 58.4577 31.518 55.3917 33.288C52.0737 35.202 49.3917 39.888 49.3917 43.686V45.84C49.3711 46.6979 49.5455 47.5493 49.9017 48.33L45.7797 50.73C45.1318 51.1517 44.5926 51.7203 44.2058 52.3896C43.819 53.059 43.5956 53.8101 43.5537 54.582C43.5537 56.004 44.5497 56.58 45.7797 55.872L72.6777 40.32C73.3256 39.8983 73.8648 39.3296 74.2516 38.6603C74.6384 37.991 74.8618 37.2399 74.9037 36.468C74.9037 35.046 73.9077 34.47 72.6777 35.184Z" fill="#EBEBEB"/>
<path d="M93.9175 49.644L90.1735 51.804C90.1924 51.6406 90.2024 51.4764 90.2035 51.312V50.226C90.2035 48.294 88.8475 47.514 87.1735 48.48C86.4546 48.9203 85.8404 49.5121 85.3735 50.214C85.0975 47.814 83.1895 46.878 80.8795 48.216C79.5598 49.0756 78.4614 50.2342 77.6733 51.5977C76.8852 52.9613 76.4296 54.4914 76.3435 56.064V57.69C76.3304 58.3367 76.4616 58.9783 76.7275 59.568L73.6195 61.368C73.1307 61.6872 72.724 62.117 72.4322 62.6225C72.1403 63.128 71.9715 63.6951 71.9395 64.278C71.9395 65.352 72.6895 65.784 73.6195 65.25L93.9175 53.532C94.4062 53.2128 94.8129 52.783 95.1047 52.2775C95.3966 51.7719 95.5654 51.2048 95.5975 50.622C95.5975 49.542 94.8475 49.11 93.9175 49.644Z" fill="#EBEBEB"/>
<path d="M62.2685 231.648L68.4665 228.048C68.4665 228.048 69.9845 214.782 68.9705 204.51C67.5545 190.074 58.2305 172.71 47.1065 176.784C35.9825 180.858 52.2005 195.6 55.8005 207.834C59.4005 220.068 62.2685 231.648 62.2685 231.648Z" fill="#81C6D6"/>
<path opacity="0.2" d="M62.2685 231.648L68.4665 228.048C68.4665 228.048 69.9845 214.782 68.9705 204.51C67.5545 190.074 58.2305 172.71 47.1065 176.784C35.9825 180.858 52.2005 195.6 55.8005 207.834C59.4005 220.068 62.2685 231.648 62.2685 231.648Z" fill="black"/>
<path d="M65.5265 230.142C65.4776 230.14 65.4295 230.129 65.385 230.109C65.3405 230.089 65.3003 230.06 65.2669 230.025C65.2335 229.989 65.2074 229.947 65.1901 229.901C65.1729 229.856 65.1649 229.807 65.1665 229.758C66.2525 197.676 50.2865 181.542 50.1245 181.386C50.0825 181.353 50.0479 181.312 50.0231 181.265C49.9982 181.217 49.9836 181.166 49.9803 181.112C49.9769 181.059 49.9848 181.006 50.0035 180.956C50.0222 180.906 50.0512 180.861 50.0887 180.823C50.1262 180.785 50.1713 180.755 50.221 180.736C50.2707 180.717 50.3239 180.708 50.3772 180.711C50.4304 180.714 50.4825 180.728 50.5299 180.752C50.5774 180.776 50.6191 180.81 50.6525 180.852C50.8145 181.008 67.0145 197.382 65.9165 229.782C65.9149 229.831 65.9036 229.88 65.8831 229.925C65.8625 229.97 65.8333 230.01 65.797 230.044C65.7607 230.077 65.718 230.103 65.6716 230.12C65.6252 230.137 65.5758 230.144 65.5265 230.142V230.142Z" fill="white"/>
<path d="M58.9622 234.21L63.3722 231.666C63.3722 231.666 64.1222 222.564 59.6582 211.5C55.7702 201.9 46.1342 193.89 41.2862 195.564C36.4382 197.238 36.5522 200.682 38.8862 204.288C41.2202 207.894 55.6682 216.492 58.9622 234.21Z" fill="#81C6D6"/>
<path d="M61.2898 233.244C61.1896 233.244 61.0934 233.204 61.0225 233.133C60.9516 233.062 60.9118 232.966 60.9118 232.866C61.0018 212.586 41.9578 198.876 41.7658 198.738C41.698 198.677 41.6552 198.592 41.6456 198.501C41.636 198.41 41.6602 198.319 41.7137 198.245C41.7671 198.171 41.846 198.119 41.9353 198.099C42.0246 198.079 42.1181 198.093 42.1978 198.138C42.3898 198.276 61.7518 212.214 61.6618 232.884C61.6587 232.981 61.6181 233.072 61.5487 233.139C61.4793 233.206 61.3864 233.244 61.2898 233.244V233.244Z" fill="white"/>
<path d="M177.961 206.016L139.561 228.216L139.471 228.168L124.861 219.726C123.589 218.909 122.58 217.744 121.952 216.37C121.324 214.995 121.105 213.47 121.321 211.974L126.721 183.822L165.121 161.622L159.721 189.774C159.505 191.27 159.724 192.795 160.352 194.17C160.98 195.544 161.989 196.709 163.261 197.526L177.961 206.016Z" fill="#37474F"/>
<path d="M126.738 183.822L121.362 211.728L159.774 189.558L164.742 163.746L162.318 163.26L126.738 183.822Z" fill="#263238"/>
<path d="M139.548 228.21L124.854 219.726C123.584 218.908 122.575 217.743 121.947 216.369C121.32 214.995 121.1 213.469 121.314 211.974L126.714 183.822L120.312 180.12L114.12 212.328C113.298 216.588 115.704 221.85 119.46 224.016L139.53 235.602L139.548 228.21Z" fill="#263238"/>
<path d="M177.96 206.016L139.548 228.21V235.608L177.96 213.414V206.016Z" fill="#455A64"/>
<path d="M215.539 23.586C217.303 24.606 218.737 27.186 218.737 29.376V147.252C218.672 148.436 218.33 149.588 217.736 150.615C217.143 151.642 216.316 152.515 215.323 153.162L68.4007 237.996C66.5167 239.082 63.5527 239.136 61.8007 238.116C60.0487 237.096 58.5967 234.516 58.5967 232.326V114.45C58.6615 113.265 59.0044 112.112 59.5975 111.084C60.1906 110.057 61.0173 109.183 62.0107 108.534L208.921 23.706C210.805 22.614 213.769 22.56 215.539 23.586Z" fill="#455A64"/>
<path d="M67.9923 238.2C66.1083 239.082 63.4263 239.064 61.7763 238.116C60.0063 237.096 58.5723 234.516 58.5723 232.326V114.45C58.6149 113.261 58.9597 112.103 59.5743 111.084L66.0003 114.786C65.3853 115.802 65.0403 116.959 64.9983 118.146V236.022C64.9803 238.044 66.2943 238.95 67.9923 238.2Z" fill="#263238"/>
<path d="M218.736 147.252V29.4C218.736 27.222 217.212 26.34 215.322 27.426L68.4003 112.236C67.4067 112.883 66.5797 113.756 65.9865 114.783C65.3934 115.81 65.0507 116.962 64.9863 118.146V236.022C64.9863 238.2 66.5163 239.082 68.4003 237.996L215.322 153.162C216.316 152.515 217.143 151.642 217.736 150.615C218.329 149.588 218.672 148.436 218.736 147.252V147.252Z" fill="#37474F"/>
<path d="M211.237 33.42L70.9146 114.48C70.12 114.998 69.4588 115.696 68.9845 116.518C68.5101 117.339 68.2361 118.261 68.1846 119.208V223.866C68.1846 225.606 69.3846 226.314 70.9146 225.444L211.243 144.384C212.037 143.866 212.698 143.168 213.173 142.346C213.647 141.525 213.921 140.603 213.973 139.656V34.998C213.973 33.258 212.749 32.55 211.237 33.42Z" fill="#81C6D6"/>
<path opacity="0.8" d="M211.237 33.42L70.9146 114.48C70.12 114.998 69.4588 115.696 68.9845 116.518C68.5101 117.339 68.2361 118.261 68.1846 119.208V223.866C68.1846 225.606 69.3846 226.314 70.9146 225.444L211.243 144.384C212.037 143.866 212.698 143.168 213.173 142.346C213.647 141.525 213.921 140.603 213.973 139.656V34.998C213.973 33.258 212.749 32.55 211.237 33.42Z" fill="white"/>
<path d="M78.1863 212.574C77.4423 212.574 76.9863 211.974 76.9863 210.948V128.064L205.158 54.072V136.608C205.108 137.488 204.852 138.343 204.412 139.106C203.971 139.869 203.357 140.517 202.62 141L79.2363 212.244C78.9209 212.443 78.559 212.557 78.1863 212.574V212.574Z" fill="#F5F5F5"/>
<path d="M204.858 54.6V136.62C204.807 137.449 204.564 138.255 204.147 138.974C203.731 139.692 203.152 140.304 202.458 140.76L79.0862 211.986C78.8155 212.157 78.5058 212.256 78.1862 212.274C77.3822 212.274 77.2982 211.35 77.2982 210.948V128.238L204.858 54.6ZM205.458 53.562L76.6982 127.902V210.948C76.6982 212.148 77.2982 212.874 78.1862 212.874C78.6122 212.859 79.0264 212.73 79.3862 212.502L202.764 141.27C203.548 140.76 204.201 140.071 204.669 139.261C205.137 138.451 205.408 137.542 205.458 136.608V53.55V53.562Z" fill="#E0E0E0"/>
<path d="M76.6982 127.89V139.548L205.458 65.208V53.55L76.6982 127.89Z" fill="#81C6D6"/>
<path d="M157.488 85.8V88.308C157.488 88.818 157.854 89.028 158.298 88.776L197.898 65.916V61.56L158.298 84.42C158.066 84.572 157.872 84.7756 157.732 85.015C157.591 85.2544 157.508 85.5231 157.488 85.8V85.8Z" fill="#FAFAFA"/>
<path d="M202.128 59.112C202.572 58.854 202.932 59.064 202.932 59.58V62.088C202.916 62.3675 202.835 62.6394 202.695 62.8821C202.555 63.1247 202.361 63.3315 202.128 63.486L197.886 65.934V61.56L202.128 59.112Z" fill="#455A64"/>
<path d="M201.811 62.55L201.343 62.406C201.389 62.2094 201.413 62.0081 201.415 61.806C201.436 61.6149 201.408 61.4216 201.332 61.2449C201.256 61.0682 201.136 60.9142 200.983 60.798C200.879 60.735 200.759 60.7017 200.638 60.7017C200.516 60.7017 200.397 60.735 200.293 60.798C199.991 61.0283 199.749 61.3267 199.585 61.6687C199.421 62.0108 199.341 62.3869 199.351 62.766C199.329 62.9579 199.358 63.152 199.434 63.3297C199.509 63.5073 199.629 63.6624 199.783 63.78C199.874 63.8318 199.978 63.8587 200.083 63.858C200.221 63.856 200.355 63.8166 200.473 63.744C200.832 63.4968 201.099 63.1384 201.235 62.724L201.709 62.868H201.763C201.8 62.8672 201.837 62.8546 201.867 62.832C201.897 62.8094 201.919 62.7779 201.931 62.742C201.935 62.7012 201.925 62.6603 201.903 62.6256C201.882 62.5909 201.849 62.5643 201.811 62.55V62.55ZM200.293 63.462C200.242 63.4921 200.184 63.5079 200.125 63.5079C200.066 63.5079 200.007 63.4921 199.957 63.462C199.86 63.3731 199.787 63.2624 199.742 63.1393C199.697 63.0161 199.682 62.884 199.699 62.754C199.694 62.4365 199.761 62.1219 199.895 61.8341C200.029 61.5462 200.226 61.2925 200.473 61.092C200.536 61.052 200.608 61.0292 200.683 61.026C200.724 61.0163 200.767 61.0163 200.809 61.026C200.904 61.1158 200.977 61.2265 201.021 61.3494C201.066 61.4723 201.082 61.604 201.067 61.734C201.08 62.0623 201.017 62.3892 200.883 62.689C200.749 62.9888 200.546 63.2534 200.293 63.462V63.462Z" fill="#FAFAFA"/>
<path d="M76.6982 122.256C76.7477 121.322 77.0169 120.413 77.484 119.603C77.9511 118.793 78.6029 118.105 79.3862 117.594L202.764 46.362C204.252 45.504 205.458 46.2 205.458 47.916V53.55L76.6982 127.89V122.256Z" fill="#37474F"/>
<path d="M190.308 56.46C189.941 56.6996 189.636 57.0221 189.417 57.4015C189.198 57.781 189.072 58.2066 189.048 58.644C189.048 59.454 189.612 59.778 190.308 59.376C190.677 59.1372 190.985 58.8142 191.205 58.4334C191.425 58.0527 191.551 57.6252 191.574 57.186C191.574 56.4 191.01 56.058 190.308 56.46Z" fill="#81C6D6"/>
<path d="M194.73 53.916C194.361 54.1542 194.055 54.4763 193.834 54.8559C193.614 55.2355 193.487 55.6618 193.464 56.1C193.464 56.904 194.028 57.234 194.73 56.832C195.097 56.5918 195.403 56.2683 195.622 55.8878C195.841 55.5072 195.967 55.0804 195.99 54.642C195.99 53.838 195.426 53.514 194.73 53.916Z" fill="#81C6D6"/>
<path d="M199.146 51.372C198.779 51.6115 198.474 51.9341 198.255 52.3135C198.036 52.6929 197.91 53.1186 197.886 53.556C197.886 54.36 198.45 54.69 199.146 54.288C199.513 54.0475 199.818 53.7239 200.037 53.3434C200.256 52.9629 200.382 52.5363 200.406 52.098C200.4 51.294 199.842 51 199.146 51.372Z" fill="#81C6D6"/>
<path d="M133.147 130.632L149.011 121.476C150.013 120.876 150.811 121.362 150.811 122.526V140.838C150.778 141.467 150.598 142.08 150.285 142.627C149.972 143.174 149.536 143.64 149.011 143.988L133.147 153.144C132.145 153.744 131.347 153.252 131.347 152.094V133.8C131.376 133.167 131.554 132.551 131.867 132C132.179 131.449 132.618 130.981 133.147 130.632Z" fill="#81C6D6"/>
<path d="M137.502 153.444L147.102 147.912C147.822 147.492 148.398 147.792 148.398 148.566C148.366 149.002 148.232 149.425 148.007 149.8C147.782 150.175 147.472 150.492 147.102 150.726L137.502 156.258C136.782 156.672 136.2 156.378 136.2 155.604C136.232 155.167 136.366 154.743 136.593 154.368C136.819 153.993 137.13 153.676 137.502 153.444V153.444Z" fill="#455A64"/>
<path d="M140.94 129.96C142.626 128.988 143.988 129.774 143.988 131.718C143.932 132.775 143.626 133.804 143.096 134.72C142.567 135.637 141.828 136.415 140.94 136.992C139.26 137.964 137.898 137.178 137.898 135.234C137.955 134.178 138.261 133.15 138.789 132.233C139.318 131.317 140.055 130.538 140.94 129.96V129.96Z" fill="#FAFAFA"/>
<path d="M146.946 140.346C146.946 137.16 144.702 135.738 141.942 137.346L140.214 138.348C137.448 139.944 135.21 143.82 135.21 147.012V147.87L146.946 141.102V140.346Z" fill="#FAFAFA"/>
<path d="M162.408 113.724L178.266 104.568C179.274 103.968 180.066 104.454 180.066 105.618V123.93C180.034 124.559 179.855 125.172 179.542 125.72C179.229 126.267 178.792 126.733 178.266 127.08L162.408 136.236C161.406 136.836 160.608 136.344 160.608 135.186V116.874C160.641 116.245 160.82 115.632 161.133 115.084C161.446 114.537 161.882 114.071 162.408 113.724V113.724Z" fill="#81C6D6"/>
<path opacity="0.2" d="M162.408 113.724L178.266 104.568C179.274 103.968 180.066 104.454 180.066 105.618V123.93C180.034 124.559 179.855 125.172 179.542 125.72C179.229 126.267 178.792 126.733 178.266 127.08L162.408 136.236C161.406 136.836 160.608 136.344 160.608 135.186V116.874C160.641 116.245 160.82 115.632 161.133 115.084C161.446 114.537 161.882 114.071 162.408 113.724V113.724Z" fill="black"/>
<path d="M166.764 136.536L176.364 131.004C177.078 130.59 177.66 130.884 177.66 131.658C177.628 132.094 177.495 132.517 177.27 132.893C177.044 133.268 176.734 133.585 176.364 133.818L166.764 139.35C166.044 139.764 165.462 139.47 165.462 138.696C165.494 138.259 165.628 137.835 165.854 137.46C166.081 137.085 166.392 136.768 166.764 136.536V136.536Z" fill="#455A64"/>
<path d="M170.202 113.052C171.888 112.08 173.25 112.866 173.25 114.81C173.194 115.867 172.888 116.896 172.359 117.813C171.829 118.729 171.09 119.507 170.202 120.084C168.522 121.056 167.16 120.27 167.16 118.326C167.218 117.27 167.523 116.242 168.051 115.326C168.58 114.41 169.317 113.631 170.202 113.052Z" fill="#FAFAFA"/>
<path d="M176.209 123.438C176.209 120.252 173.965 118.83 171.205 120.438L169.477 121.44C166.711 123.036 164.473 126.912 164.473 130.104V130.962L176.209 124.2V123.438Z" fill="#FAFAFA"/>
<path d="M103.914 147.498L119.778 138.342C120.78 137.742 121.578 138.234 121.578 139.392V157.704C121.547 158.334 121.367 158.947 121.054 159.494C120.742 160.041 120.305 160.507 119.778 160.854L103.914 170.01C102.912 170.61 102.114 170.124 102.114 168.96V150.648C102.147 150.019 102.327 149.406 102.64 148.859C102.953 148.312 103.389 147.846 103.914 147.498V147.498Z" fill="#81C6D6"/>
<path opacity="0.5" d="M103.914 147.498L119.778 138.342C120.78 137.742 121.578 138.234 121.578 139.392V157.704C121.547 158.334 121.367 158.947 121.054 159.494C120.742 160.041 120.305 160.507 119.778 160.854L103.914 170.01C102.912 170.61 102.114 170.124 102.114 168.96V150.648C102.147 150.019 102.327 149.406 102.64 148.859C102.953 148.312 103.389 147.846 103.914 147.498V147.498Z" fill="white"/>
<path d="M108.27 170.31L117.87 164.778C118.59 164.364 119.166 164.658 119.166 165.432C119.134 165.868 119.001 166.291 118.775 166.667C118.55 167.042 118.24 167.359 117.87 167.592L108.27 173.124C107.55 173.538 106.968 173.244 106.968 172.47C106.999 172.033 107.134 171.609 107.36 171.234C107.586 170.859 107.898 170.542 108.27 170.31V170.31Z" fill="#455A64"/>
<path d="M111.708 146.826C113.394 145.854 114.756 146.646 114.756 148.584C114.699 149.642 114.394 150.671 113.864 151.589C113.334 152.506 112.596 153.286 111.708 153.864C110.028 154.83 108.666 154.044 108.666 152.1C108.724 151.044 109.029 150.016 109.557 149.1C110.086 148.184 110.823 147.405 111.708 146.826Z" fill="#FAFAFA"/>
<path d="M117.714 157.2C117.714 154.008 115.47 152.592 112.71 154.2L111 155.202C108.234 156.798 105.996 160.68 105.996 163.872V164.73L117.732 157.956L117.714 157.2Z" fill="#FAFAFA"/>
</svg>
