<svg width="75" height="75" viewBox="0 0 75 75" fill="none" xmlns="http://www.w3.org/2000/svg">
<rect width="75" height="75" rx="37.5" fill="#FDFDFD"/>
<path d="M51.25 29.3333C51.25 25.6865 49.8013 22.1892 47.2227 19.6105C44.6441 17.0319 41.1467 15.5833 37.5 15.5833C33.8533 15.5833 30.3559 17.0319 27.7773 19.6105C25.1987 22.1892 23.75 25.6865 23.75 29.3333C23.75 45.3749 16.875 49.9583 16.875 49.9583H58.125C58.125 49.9583 51.25 45.3749 51.25 29.3333Z" stroke="#56B5CB" stroke-width="3.75" stroke-linecap="round" stroke-linejoin="round"/>
<path d="M41.4646 59.125C41.0617 59.8196 40.4834 60.3961 39.7876 60.7968C39.0918 61.1976 38.3029 61.4085 37.5 61.4085C36.697 61.4085 35.9082 61.1976 35.2124 60.7968C34.5166 60.3961 33.9383 59.8196 33.5354 59.125" stroke="#56B5CB" stroke-width="3.75" stroke-linecap="round" stroke-linejoin="round"/>
</svg>
