<svg width="80" height="73" viewBox="0 0 80 73" fill="none" xmlns="http://www.w3.org/2000/svg">
<rect width="80" height="72.12" rx="36.06" fill="#FDFDFD"/>
<path d="M51.8981 39.0708L51.4981 39.161C49.9981 39.6117 48.3981 38.9807 47.7981 37.6284L44.4981 29.6952C41.8981 23.3847 33.9981 20.3196 27.0981 22.934C20.5981 25.368 17.6981 32.2194 20.0981 38.1693L23.1981 45.8321C23.6981 47.1843 22.8981 48.6267 21.4981 49.0775L21.0981 49.1676C19.3981 49.7085 18.5981 51.5115 19.1981 53.0441L19.5981 54.0357C19.7981 54.4865 20.4981 54.8471 21.0981 54.5766L55.4981 43.1276C56.0981 42.9473 56.3981 42.2261 56.1981 41.6852L55.7981 40.6935C55.4981 39.2511 53.5981 38.4398 51.8981 39.0708ZM43.4981 50.4297L35.9981 52.9539C35.4981 53.1342 35.2981 53.6751 35.5981 54.0357C36.7981 55.8387 39.2981 56.5599 41.4981 55.8387C43.6981 55.1175 44.9981 53.0441 44.6981 51.0608C44.4981 50.61 43.8981 50.3396 43.4981 50.4297Z" fill="#56B5CB"/>
<path d="M66.3981 36.9072C68.0981 31.7687 67.1981 26.2695 64.0981 21.762C60.9981 17.1644 55.8981 14.0091 50.0981 13.0175C49.5981 12.9273 49.1981 13.1978 49.1981 13.5584L48.6981 16.0826C48.5981 16.4432 48.8981 16.7136 49.2981 16.8038C53.7981 17.6151 57.7981 20.1393 60.2981 23.7453C62.7981 27.3513 63.3981 31.6785 62.1981 35.7353C62.0981 36.0959 62.2981 36.4565 62.6981 36.5466L65.3981 37.358C65.8981 37.358 66.2981 37.2678 66.3981 36.9072Z" fill="#56B5CB"/>
<path d="M55.3981 26.4497C53.7981 24.1058 51.1981 22.5733 48.1981 22.0324C47.7981 21.9422 47.3981 22.2127 47.2981 22.5733L46.9981 25.1876C46.9981 25.5482 47.1981 25.8187 47.5981 25.9088C49.2981 26.2694 50.7981 27.1709 51.6981 28.5232C52.5981 29.8754 52.8981 31.4981 52.3981 32.9405C52.2981 33.211 52.4981 33.5716 52.7981 33.6617L55.4981 34.6534C55.8981 34.8337 56.2981 34.5632 56.4981 34.2026C57.3981 31.5883 56.9981 28.7936 55.3981 26.4497Z" fill="#56B5CB"/>
</svg>
