<svg width="80" height="73" viewBox="0 0 80 73" fill="none" xmlns="http://www.w3.org/2000/svg">
<rect width="80" height="72.12" rx="36.06" fill="#FDFDFD"/>
<path d="M41.9122 23.2012V32.6906C41.9122 33.0838 42.2657 33.4023 42.7017 33.4023C43.1376 33.4023 43.4911 33.0838 43.4911 32.6906V23.2012C43.4911 22.808 43.1376 22.4895 42.7017 22.4895C42.2657 22.4895 41.9122 22.808 41.9122 23.2012Z" fill="#56B5CB"/>
<path d="M21.0526 40.7725C21.4887 40.7725 21.8421 40.4539 21.8421 40.0608V20.3543C21.8421 18.897 22.9695 17.6734 24.4791 17.3529C24.4759 17.4041 24.4736 17.4556 24.4736 17.5075V36.9925C24.4736 37.3856 24.8271 37.7041 25.2631 37.7041C25.6991 37.7041 26.0525 37.3855 26.0525 36.9925V17.5075C26.0525 16.8534 26.6428 16.3213 27.3683 16.3213H32.9045C32.8987 16.3997 32.8947 16.4787 32.8947 16.5585C32.8947 18.5208 34.6654 20.1171 36.842 20.117H43.1578C45.3344 20.117 47.1051 18.5207 47.1051 16.5585C47.1051 16.4787 47.1011 16.3997 47.0954 16.3212H52.6315C53.3571 16.3212 53.9473 16.8533 53.9473 17.5074V20.3543C53.9473 20.7474 54.3008 21.0659 54.7368 21.0659C55.1728 21.0659 55.5262 20.7473 55.5262 20.3543V17.5074C55.5262 17.455 55.524 17.4032 55.5207 17.3516C56.7604 17.6117 57.757 18.4771 58.0639 19.6328C58.1507 19.9594 58.4743 20.179 58.8311 20.179C58.8919 20.179 58.9539 20.1726 59.0157 20.1593C59.4397 20.0677 59.701 19.6836 59.5996 19.3014C59.0694 17.305 57.133 15.9006 54.8653 15.8493C54.3339 15.2686 53.5299 14.8979 52.6317 14.8979H46.6477C45.9846 13.7702 44.6694 13 43.1579 13H36.8421C35.3304 13 34.0153 13.7702 33.3524 14.8979H27.3684C26.47 14.8979 25.6658 15.2689 25.1345 15.8498C22.4369 15.9117 20.2632 17.9078 20.2632 20.3543V40.0608C20.2632 40.454 20.6166 40.7725 21.0526 40.7725ZM36.8421 14.4234H43.1579C44.4638 14.4234 45.5263 15.3812 45.5263 16.5585C45.5263 17.7358 44.4639 18.6937 43.1579 18.6937H36.8421C35.5361 18.6937 34.4736 17.7359 34.4736 16.5585C34.4736 15.3813 35.5361 14.4234 36.8421 14.4234Z" fill="#56B5CB"/>
<path d="M36.2983 27.9458V32.6906C36.2983 33.0837 36.6519 33.4023 37.0878 33.4023C37.5238 33.4023 37.8772 33.0837 37.8772 32.6906V27.9458C37.8772 27.5526 37.5237 27.2341 37.0878 27.2341C36.6518 27.2341 36.2983 27.5527 36.2983 27.9458Z" fill="#56B5CB"/>
<path d="M47.5262 27.9458V30.7927C47.5262 31.1858 47.8798 31.5044 48.3157 31.5044C48.7516 31.5044 49.1051 31.1858 49.1051 30.7927V27.9458C49.1051 27.5526 48.7516 27.2341 48.3157 27.2341C47.8798 27.2341 47.5262 27.5527 47.5262 27.9458Z" fill="#56B5CB"/>
<path d="M37.8772 50.7206V39.3333C37.8772 38.9401 37.5237 38.6216 37.0878 38.6216C36.6518 38.6216 36.2983 38.9402 36.2983 39.3333V50.7206C36.2983 51.1138 36.6519 51.4323 37.0878 51.4323C37.5237 51.4323 37.8772 51.1138 37.8772 50.7206Z" fill="#56B5CB"/>
<path d="M43.4911 50.7206V39.3333C43.4911 38.9401 43.1376 38.6216 42.7017 38.6216C42.2657 38.6216 41.9122 38.9402 41.9122 39.3333V50.7206C41.9122 51.1138 42.2657 51.4323 42.7017 51.4323C43.1376 51.4323 43.4911 51.1138 43.4911 50.7206Z" fill="#56B5CB"/>
<path d="M49.1051 50.7206V41.2312C49.1051 40.8381 48.7516 40.5195 48.3157 40.5195C47.8798 40.5195 47.5262 40.8381 47.5262 41.2312V50.7206C47.5262 51.1138 47.8798 51.4323 48.3157 51.4323C48.7516 51.4323 49.1051 51.1138 49.1051 50.7206Z" fill="#56B5CB"/>
<path d="M32.2631 50.7206V41.2312C32.2631 40.8381 31.9096 40.5195 31.4737 40.5195C31.0376 40.5195 30.6842 40.8381 30.6842 41.2312V50.7206C30.6842 51.1138 31.0377 51.4323 31.4737 51.4323C31.9096 51.4323 32.2631 51.1138 32.2631 50.7206Z" fill="#56B5CB"/>
<path d="M58.9473 21.0659C55.6098 21.0659 52.8946 23.5136 52.8946 26.5224C52.8946 27.7707 53.3632 28.9215 54.1484 29.8421L50.0001 33.5818C49.6736 33.4664 49.3187 33.4024 48.9473 33.4024C47.6248 33.4024 46.5075 34.2063 46.1629 35.3003H33.837C33.4923 34.2063 32.375 33.4024 31.0526 33.4024C29.4564 33.4024 28.1579 34.5731 28.1579 36.012C28.1579 36.3467 28.229 36.6666 28.3569 36.961L22.4628 42.2746C22.0452 42.0636 21.5643 41.9428 21.0525 41.9428C19.4563 41.9428 18.1578 43.1135 18.1578 44.5524C18.1578 45.0138 18.2919 45.4472 18.5258 45.8238L15.2312 48.7939C14.9229 49.0718 14.9229 49.5224 15.2312 49.8004C15.3853 49.9393 15.5873 50.0088 15.7894 50.0088C15.9916 50.0088 16.1935 49.9393 16.3476 49.8003L19.6424 46.8301C20.0599 47.0411 20.5408 47.1619 21.0526 47.1619C22.6488 47.1619 23.9473 45.9912 23.9473 44.5523C23.9473 44.091 23.8133 43.6576 23.5794 43.281L29.323 38.1031C29.8058 38.4285 30.4046 38.6214 31.0526 38.6214C32.375 38.6214 33.4923 37.8174 33.837 36.7235H46.163C46.5076 37.8174 47.625 38.6214 48.9474 38.6214C50.5436 38.6214 51.8421 37.4507 51.8421 36.0118C51.8421 35.4277 51.6281 34.8878 51.2672 34.4526L55.265 30.8485C56.0885 31.4196 57.0787 31.8035 58.1578 31.9308V53.5673C58.1578 55.2679 56.6231 56.6514 54.7367 56.6514H25.2631C23.3768 56.6514 21.8421 55.2679 21.8421 53.5673V48.8226C21.8421 48.4294 21.4885 48.1109 21.0526 48.1109C20.6166 48.1109 20.2632 48.4294 20.2632 48.8226V53.5673C20.2632 56.0527 22.5062 58.0748 25.2631 58.0748H54.7368C57.4938 58.0748 59.7368 56.0527 59.7368 53.5673V31.9309C62.7022 31.581 65 29.2898 65 26.5224C64.9999 23.5136 62.2848 21.0659 58.9473 21.0659ZM21.0526 45.7385C20.3271 45.7385 19.7368 45.2065 19.7368 44.5523C19.7368 43.8982 20.327 43.3661 21.0526 43.3661C21.7782 43.3661 22.3684 43.8982 22.3684 44.5523C22.3684 45.2065 21.7781 45.7385 21.0526 45.7385ZM31.0526 37.198C30.327 37.198 29.7368 36.6659 29.7368 36.0118C29.7368 35.3577 30.327 34.8256 31.0526 34.8256C31.7782 34.8256 32.3684 35.3577 32.3684 36.0118C32.3684 36.6659 31.7782 37.198 31.0526 37.198ZM48.9473 37.198C48.2217 37.198 47.6315 36.6659 47.6315 36.0118C47.6315 35.3577 48.2217 34.8256 48.9473 34.8256C49.6729 34.8256 50.2631 35.3577 50.2631 36.0118C50.2631 36.6659 49.6729 37.198 48.9473 37.198ZM58.9473 30.5554C56.4805 30.5554 54.4736 28.7463 54.4736 26.5224C54.4736 24.2986 56.4804 22.4894 58.9473 22.4894C61.4141 22.4894 63.4209 24.2985 63.4209 26.5224C63.4209 28.7462 61.4141 30.5554 58.9473 30.5554Z" fill="#56B5CB"/>
<path d="M58.9473 23.9128C57.3511 23.9128 56.0526 25.0836 56.0526 26.5224C56.0526 27.9613 57.3511 29.132 58.9473 29.132C60.5435 29.132 61.8421 27.9613 61.8421 26.5224C61.8421 25.0836 60.5435 23.9128 58.9473 23.9128ZM58.9473 27.7086C58.2217 27.7086 57.6315 27.1765 57.6315 26.5224C57.6315 25.8683 58.2217 25.3362 58.9473 25.3362C59.6729 25.3362 60.2632 25.8683 60.2632 26.5224C60.2632 27.1765 59.6729 27.7086 58.9473 27.7086Z" fill="#56B5CB"/>
<path d="M25.2631 43.8407C24.8271 43.8407 24.4736 44.1592 24.4736 44.5524V51.6695C24.4736 53.1083 25.7722 54.2791 27.3684 54.2791H52.6315C54.2277 54.2791 55.5262 53.1083 55.5262 51.6695V33.7344C55.5262 33.3412 55.1727 33.0227 54.7368 33.0227C54.3007 33.0227 53.9473 33.3412 53.9473 33.7344V51.6695C53.9473 52.3236 53.3571 52.8557 52.6315 52.8557H27.3684C26.6428 52.8557 26.0525 52.3236 26.0525 51.6695V44.5524C26.0525 44.1592 25.699 43.8407 25.2631 43.8407Z" fill="#56B5CB"/>
</svg>
