<svg width="338" height="70" viewBox="0 0 338 426" fill="none" xmlns="http://www.w3.org/2000/svg">
<path d="M11.4502 108.42H326.58C332.64 108.42 337.57 113.34 337.57 119.41V302.74H0.470215V119.41C0.470215 113.35 5.39021 108.42 11.4602 108.42H11.4502Z" fill="#F9BB0D"/>
<path d="M337.91 119.66V305.8C337.91 311.38 333.99 316.06 328.76 317.21C328.66 317.24 328.55 317.27 328.43 317.29C327.71 317.43 326.97 317.5 326.21 317.5H12.1702C5.71021 317.5 0.470215 312.26 0.470215 305.8V119.74C0.470215 116.07 2.16022 112.8 4.80022 110.65L160.6 207.47C166.03 210.84 172.91 210.83 178.33 207.45L288.28 138.8L333.28 110.7L333.53 110.54C336.2 112.68 337.91 115.97 337.91 119.66Z" fill="#FFD44D"/>
<path d="M337.54 119.74V305.88C337.54 311.33 333.82 315.91 328.76 317.21C328.66 317.24 328.55 317.27 328.43 317.29C327.6 317.48 326.73 317.58 325.84 317.58H11.8001C5.3401 317.58 0.100098 312.34 0.100098 305.88V293.12H276.57C283.03 293.12 288.27 287.88 288.27 281.42V138.8L333.27 110.7C335.87 112.85 337.53 116.1 337.53 119.74H337.54Z" fill="#F9BB0D"/>
<path d="M268.28 34.85C268.11 34.01 267.68 33.23 267 32.71C267.68 33.23 268.11 34.01 268.28 34.85Z" fill="#0099F5"/>
<path d="M221.11 4.07006V10.0601H75.03V45.7401C75.03 47.1801 76.19 48.3401 77.63 48.3401H226.51V54.3301C226.51 57.1101 229.02 58.8001 230.95 57.3201L265.09 31.2601L267 32.7201L225.55 1.08006C223.62 -0.399942 221.11 1.30006 221.11 4.07006V4.07006Z" fill="#0099F5"/>
<path d="M267 32.7201L265.09 31.2601L230.95 57.3201C229.02 58.8001 226.51 57.1001 226.51 54.3301V48.3401H77.6301C76.1901 48.3401 75.0301 47.1801 75.0301 45.7401V10.0601H72.2301C71.8701 10.0601 71.5301 10.1301 71.2201 10.2601C71.0601 10.3301 70.9201 10.4101 70.7801 10.5001C70.0901 10.9701 69.6301 11.7601 69.6301 12.6601V58.7501C69.6301 60.1901 70.7901 61.3501 72.2301 61.3501H221.11V67.3401C221.11 70.1201 223.62 71.8101 225.55 70.3301L267 38.6901C267.68 38.1701 268.11 37.3901 268.28 36.5501C268.34 36.2701 268.37 35.9801 268.37 35.6901C268.37 34.5401 267.92 33.3901 267.01 32.7001L267 32.7201Z" fill="#007FCC"/>
<path d="M69.7202 391.149C69.8902 391.989 70.3202 392.769 71.0002 393.289C70.3202 392.769 69.8902 391.989 69.7202 391.149Z" fill="#0099F5"/>
<path d="M116.89 421.93V415.94H262.97V380.26C262.97 378.82 261.81 377.66 260.37 377.66H111.49V371.67C111.49 368.89 108.98 367.2 107.05 368.68L72.9102 394.74L71.0002 393.28L112.45 424.92C114.38 426.4 116.89 424.7 116.89 421.93V421.93Z" fill="#0099F5"/>
<path d="M71.0001 393.28L72.9101 394.74L107.05 368.68C108.98 367.2 111.49 368.9 111.49 371.67V377.66H260.37C261.81 377.66 262.97 378.82 262.97 380.26V415.94H265.77C266.13 415.94 266.47 415.87 266.78 415.74C266.94 415.67 267.08 415.59 267.22 415.5C267.91 415.03 268.37 414.24 268.37 413.34V367.25C268.37 365.81 267.21 364.65 265.77 364.65H116.89V358.66C116.89 355.88 114.38 354.19 112.45 355.67L71.0001 387.31C70.3201 387.83 69.8901 388.61 69.7201 389.45C69.6601 389.73 69.6301 390.02 69.6301 390.31C69.6301 391.46 70.0801 392.61 70.9901 393.3L71.0001 393.28Z" fill="#007FCC"/>
</svg>
