<svg width="70" height="70" viewBox="0 0 70 70" fill="none" xmlns="http://www.w3.org/2000/svg">
<path d="M41.6938 13.6784C41.6938 16.4918 43.9567 18.7934 46.7222 18.7934H63.4164C66.1819 18.7934 68.4447 16.4918 68.4447 13.6784V7.70229C68.4447 4.8889 66.1819 2.58726 63.4164 2.58726H46.7222C43.9567 2.58726 41.6938 4.8889 41.6938 7.70229V13.6784V13.6784Z" fill="#81C6D6"/>
<path d="M41.6938 29.8848C41.6938 32.6982 43.9567 34.9998 46.7222 34.9998H63.4164C66.1819 34.9998 68.4447 32.6982 68.4447 29.8848V23.9084C68.4447 21.0953 66.1819 18.7934 63.4164 18.7934H46.7222C43.9567 18.7934 41.6938 21.0953 41.6938 23.9084V29.8848Z" fill="#FFE177"/>
<path d="M41.6938 46.0911C41.6938 48.9043 43.9567 51.2062 46.7222 51.2062H63.4164C66.1819 51.2062 68.4447 48.9043 68.4447 46.0911V40.1148C68.4447 37.3016 66.1819 34.9998 63.4164 34.9998H46.7222C43.9567 34.9998 41.6938 37.3016 41.6938 40.1148V46.0911V46.0911Z" fill="#6CF5C2"/>
<path d="M41.6938 62.2975C41.6938 65.1109 43.9567 67.4125 46.7222 67.4125H63.4164C66.1819 67.4125 68.4447 65.1109 68.4447 62.2975V56.3214C68.4447 53.508 66.1819 51.2064 63.4164 51.2064H46.7222C43.9567 51.2064 41.6938 53.508 41.6938 56.3214V62.2975Z" fill="#FE646F"/>
<path d="M53.7747 6.85576C53.7747 3.95524 51.4417 1.5821 48.5904 1.5821H6.73958C3.88822 1.5821 1.5553 3.95524 1.5553 6.85576V63.1442C1.5553 66.0448 3.88822 68.4179 6.73958 68.4179H48.5904C51.4417 68.4179 53.7747 66.0448 53.7747 63.1442V6.85576Z" fill="#E8E8E8"/>
<path d="M13.8712 41.3119H41.4589C40.6524 37.4542 38.3224 34.1697 35.1399 32.1413C37.3722 30.0744 38.7736 27.0946 38.7736 23.7819C38.7736 17.5408 33.8 12.4815 27.6647 12.4815C21.5299 12.4815 16.5559 17.5408 16.5559 23.7819C16.5559 27.0946 17.9573 30.0744 20.1898 32.1413C17.0075 34.1697 14.6775 37.4542 13.8712 41.3119Z" fill="#C3C6C8"/>
<path d="M13.8713 42.894H41.4589C41.9282 42.894 42.3724 42.6787 42.6677 42.3076C42.963 41.9365 43.0778 41.4499 42.9802 40.9831C42.2347 37.4166 40.2696 34.1957 37.4902 31.9082C39.3113 29.6261 40.3289 26.7531 40.3289 23.7821C40.3289 16.6787 34.6478 10.8996 27.6648 10.8996C20.6817 10.8996 15.0006 16.6787 15.0006 23.7821C15.0006 26.7531 16.0184 29.6261 17.8393 31.9082C15.0601 34.1957 13.0951 37.4164 12.3498 40.9831C12.2521 41.4499 12.367 41.9368 12.6623 42.3076C12.9578 42.6787 13.402 42.894 13.8713 42.894ZM21.0156 33.482C21.4279 33.2194 21.6956 32.7754 21.7389 32.2824C21.7823 31.7894 21.5965 31.3042 21.2367 30.9711C19.2503 29.1321 18.1112 26.5117 18.1112 23.7819C18.1112 18.4232 22.3969 14.0636 27.6648 14.0636C32.9326 14.0636 37.2184 18.4232 37.2184 23.7819C37.2184 26.5117 36.0791 29.1321 34.0929 30.9711C33.7331 31.3042 33.5473 31.7894 33.5906 32.2824C33.6339 32.7754 33.9017 33.2192 34.3139 33.482C36.6269 34.9563 38.4064 37.1715 39.3779 39.7298H15.9516C16.9231 37.1715 18.7026 34.9561 21.0156 33.482ZM70 13.6784V7.70228C70 4.00946 67.0466 1.00516 63.4164 1.00516H52.0997C51.077 0.36789 49.8753 0 48.5906 0H6.73956C3.02347 0 0 3.07539 0 6.85575V63.1442C0 66.9246 3.02347 70 6.73956 70H48.5904C49.8753 70 51.0772 69.6319 52.1001 68.9944H63.4162C67.0464 68.9944 69.9998 65.9901 69.9998 62.2973V56.3212C69.9998 54.2718 69.0892 52.4356 67.6592 51.2062C69.0892 49.9768 69.9998 48.1405 69.9998 46.0911V40.1148C69.9998 38.0655 69.0892 36.2292 67.6592 34.9998C69.0892 33.7704 69.9998 31.9341 69.9998 29.8848V23.9087C69.9998 21.8593 69.0892 20.023 67.6592 18.7936C69.0894 17.564 70 15.7277 70 13.6784ZM52.2194 63.1442C52.2194 65.1797 50.5913 66.8358 48.5904 66.8358H6.73956C4.73864 66.8358 3.11057 65.1797 3.11057 63.1442V6.85575C3.11057 4.82033 4.73864 3.16419 6.73956 3.16419H48.5904C50.5913 3.16419 52.2194 4.82033 52.2194 6.85575V63.1442ZM66.8894 62.2975C66.8894 64.2456 65.3315 65.8304 63.4164 65.8304H54.7908C55.1377 65.0052 55.3301 64.0973 55.3301 63.1445V52.7885H63.4164C65.3315 52.7885 66.8894 54.3733 66.8894 56.3214V62.2975ZM66.8894 46.0911C66.8894 48.0392 65.3315 49.6241 63.4164 49.6241H55.3301V36.5819H63.4164C65.3315 36.5819 66.8894 38.1667 66.8894 40.1148V46.0911ZM66.8894 29.8848C66.8894 31.8328 65.3315 33.4177 63.4164 33.4177H55.3301V20.3755H63.4164C65.3315 20.3755 66.8894 21.9604 66.8894 23.9084V29.8848ZM66.8894 13.6784C66.8894 15.6265 65.3315 17.2113 63.4164 17.2113H55.3301V6.85575C55.3301 5.9027 55.1375 4.99479 54.7906 4.16935H63.4164C65.3315 4.16935 66.8894 5.75419 66.8894 7.70228V13.6784ZM8.38049 51.0836H46.9497V47.9194H8.38049V51.0836ZM13.2365 57.3411H42.0934V54.1769H13.2365V57.3411Z" fill="#071C2C"/>
</svg>
