<svg width="90" height="70" viewBox="0 0 95 70" fill="none" xmlns="http://www.w3.org/2000/svg">
<path d="M57.9062 25.2532C64.3335 25.2532 69.5439 20.0428 69.5439 13.6155C69.5439 7.18819 64.3335 1.97781 57.9062 1.97781C51.4788 1.97781 46.2685 7.18819 46.2685 13.6155C46.2685 20.0428 51.4788 25.2532 57.9062 25.2532Z" fill="#FFE1C2"/>
<path d="M60.1822 25.2525H55.6315C45.2577 25.2525 36.848 33.6622 36.848 44.0359V50.7448H78.9654V44.0359C78.9654 33.6622 70.5559 25.2525 60.1822 25.2525Z" fill="#00BCD4"/>
<path d="M23.0363 25.2532C29.4636 25.2532 34.674 20.0428 34.674 13.6155C34.674 7.18819 29.4636 1.97781 23.0363 1.97781C16.609 1.97781 11.3986 7.18819 11.3986 13.6155C11.3986 20.0428 16.609 25.2532 23.0363 25.2532Z" fill="#FFE1C2"/>
<path d="M25.3112 25.2525H20.7605C10.3868 25.2525 1.97707 33.6622 1.97707 44.0359V50.7448H44.0944V44.0359C44.0946 33.6622 35.6851 25.2525 25.3112 25.2525Z" fill="#81C6D6"/>
<path d="M78.9652 68.022C86.3109 68.022 92.2658 62.0671 92.2658 54.7214C92.2658 47.3757 86.3109 41.4208 78.9652 41.4208C71.6195 41.4208 65.6646 47.3757 65.6646 54.7214C65.6646 62.0671 71.6195 68.022 78.9652 68.022Z" fill="#FFE177"/>
<path d="M80.4449 39.5178C78.8305 32.2721 73.4198 26.4416 66.4158 24.2318C69.5255 21.7344 71.5217 17.9045 71.5217 13.615C71.5217 6.10775 65.4139 0.000183967 57.9067 0.000183967C50.3995 0.000183967 44.2919 6.10793 44.2919 13.615C44.2919 17.9052 46.2887 21.7359 49.3995 24.2333C45.9497 25.3217 42.8868 27.2883 40.4729 29.8698C38.0587 27.2877 34.9954 25.3206 31.545 24.232C34.6551 21.7346 36.6509 17.9047 36.6509 13.6148C36.6509 6.10756 30.5432 0 23.0359 0C15.5287 0 9.42116 6.10793 9.42116 13.615C9.42116 17.9045 11.4174 21.7348 14.527 24.2322C6.11585 26.8854 0 34.7594 0 44.0359V50.745C0 51.8369 0.885183 52.7223 1.97726 52.7223H63.8232C63.7371 53.3774 63.6879 54.0442 63.6879 54.7223C63.6879 63.1464 70.5415 70 78.9656 70C87.3896 70 94.243 63.1466 94.243 54.7223C94.2429 46.7975 88.1773 40.2643 80.4449 39.5178ZM48.2461 13.6148C48.2461 8.28804 52.5798 3.95434 57.9065 3.95434C63.2333 3.95434 67.5672 8.28804 67.5672 13.6148C67.5672 18.9415 63.2335 23.2752 57.9065 23.2752C52.5796 23.2752 48.2461 18.9417 48.2461 13.6148ZM13.3753 13.6148C13.3753 8.28804 17.709 3.95434 23.0358 3.95434C28.3625 3.95434 32.6964 8.28804 32.6964 13.6148C32.6964 18.9415 28.3627 23.2752 23.0358 23.2752C17.7092 23.2754 13.3753 18.9417 13.3753 13.6148ZM3.95433 44.0359C3.95433 34.769 11.4936 27.2297 20.7605 27.2297H25.3112C33.4141 27.2297 40.1957 32.994 41.7717 40.6375H30.7911C29.699 40.6375 28.8138 41.5228 28.8138 42.6147C28.8138 43.7066 29.699 44.592 30.7911 44.592H42.1174V48.7677H3.95433V44.0359ZM46.0719 48.7676V44.0357C46.0719 40.0067 44.9169 36.2426 42.9225 33.0553C46.0062 29.4903 50.5587 27.2296 55.6313 27.2296H60.182C67.9364 27.2296 74.4749 32.5107 76.4045 39.6635C71.2113 40.5439 66.9005 44.0504 64.8963 48.7674H46.0719V48.7676ZM78.9654 66.0453C72.7218 66.0453 67.6423 60.9659 67.6423 54.7222C67.6423 48.4788 72.7216 43.3992 78.9654 43.3992C85.209 43.3992 90.2883 48.4786 90.2883 54.7222C90.2885 60.9658 85.2088 66.0453 78.9654 66.0453Z" fill="#231F20"/>
<path d="M82.8444 52.7449H80.9425V50.8427C80.9425 49.7509 80.0573 48.8655 78.9652 48.8655C77.8731 48.8655 76.988 49.7509 76.988 50.8427V52.7447H75.086C73.9939 52.7447 73.1087 53.6301 73.1087 54.722C73.1087 55.8139 73.9939 56.6992 75.086 56.6992H76.988V58.6012C76.988 59.6931 77.8731 60.5785 78.9652 60.5785C80.0573 60.5785 80.9425 59.6931 80.9425 58.6012V56.6992H82.8444C83.9365 56.6992 84.8217 55.8139 84.8217 54.722C84.8217 53.6301 83.9365 52.7449 82.8444 52.7449Z" fill="#231F20"/>
<path d="M23.0359 40.6373H21.0371C19.9451 40.6373 19.0599 41.5226 19.0599 42.6145C19.0599 43.7064 19.9451 44.5918 21.0371 44.5918H23.0359C24.128 44.5918 25.0132 43.7064 25.0132 42.6145C25.0132 41.5226 24.128 40.6373 23.0359 40.6373Z" fill="#231F20"/>
</svg>
