<svg width="237" height="51" viewBox="0 0 237 51" fill="none" xmlns="http://www.w3.org/2000/svg">
<path d="M11.1896 44V12.5H25.4996C28.9196 12.5 31.9346 13.16 34.5446 14.48C37.1546 15.77 39.1946 17.585 40.6646 19.925C42.1346 22.265 42.8696 25.04 42.8696 28.25C42.8696 31.43 42.1346 34.205 40.6646 36.575C39.1946 38.915 37.1546 40.745 34.5446 42.065C31.9346 43.355 28.9196 44 25.4996 44H11.1896ZM18.4796 38.015H25.1396C27.2396 38.015 29.0546 37.625 30.5846 36.845C32.1446 36.035 33.3446 34.895 34.1846 33.425C35.0546 31.955 35.4896 30.23 35.4896 28.25C35.4896 26.24 35.0546 24.515 34.1846 23.075C33.3446 21.605 32.1446 20.48 30.5846 19.7C29.0546 18.89 27.2396 18.485 25.1396 18.485H18.4796V38.015ZM47.8723 44V19.79H54.8923V44H47.8723ZM51.3823 16.415C50.0923 16.415 49.0423 16.04 48.2323 15.29C47.4223 14.54 47.0173 13.61 47.0173 12.5C47.0173 11.39 47.4223 10.46 48.2323 9.71C49.0423 8.96 50.0923 8.585 51.3823 8.585C52.6723 8.585 53.7223 8.945 54.5323 9.665C55.3423 10.355 55.7473 11.255 55.7473 12.365C55.7473 13.535 55.3423 14.51 54.5323 15.29C53.7523 16.04 52.7023 16.415 51.3823 16.415ZM76.2575 44V39.275L75.8075 38.24V29.78C75.8075 28.28 75.3425 27.11 74.4125 26.27C73.5125 25.43 72.1175 25.01 70.2275 25.01C68.9375 25.01 67.6625 25.22 66.4025 25.64C65.1725 26.03 64.1225 26.57 63.2525 27.26L60.7325 22.355C62.0525 21.425 63.6425 20.705 65.5025 20.195C67.3625 19.685 69.2525 19.43 71.1725 19.43C74.8625 19.43 77.7275 20.3 79.7675 22.04C81.8075 23.78 82.8275 26.495 82.8275 30.185V44H76.2575ZM68.8775 44.36C66.9875 44.36 65.3675 44.045 64.0175 43.415C62.6675 42.755 61.6325 41.87 60.9125 40.76C60.1925 39.65 59.8325 38.405 59.8325 37.025C59.8325 35.585 60.1775 34.325 60.8675 33.245C61.5875 32.165 62.7125 31.325 64.2425 30.725C65.7725 30.095 67.7675 29.78 70.2275 29.78H76.6625V33.875H70.9925C69.3425 33.875 68.2025 34.145 67.5725 34.685C66.9725 35.225 66.6725 35.9 66.6725 36.71C66.6725 37.61 67.0175 38.33 67.7075 38.87C68.4275 39.38 69.4025 39.635 70.6325 39.635C71.8025 39.635 72.8525 39.365 73.7825 38.825C74.7125 38.255 75.3875 37.43 75.8075 36.35L76.8875 39.59C76.3775 41.15 75.4475 42.335 74.0975 43.145C72.7475 43.955 71.0075 44.36 68.8775 44.36ZM103.491 44.36C101.361 44.36 99.5309 43.91 98.0009 43.01C96.4709 42.11 95.3009 40.745 94.4909 38.915C93.6809 37.055 93.2759 34.715 93.2759 31.895C93.2759 29.045 93.6959 26.705 94.5359 24.875C95.4059 23.045 96.6059 21.68 98.1359 20.78C99.6659 19.88 101.451 19.43 103.491 19.43C105.771 19.43 107.811 19.94 109.611 20.96C111.441 21.98 112.881 23.42 113.931 25.28C115.011 27.14 115.551 29.345 115.551 31.895C115.551 34.415 115.011 36.605 113.931 38.465C112.881 40.325 111.441 41.78 109.611 42.83C107.811 43.85 105.771 44.36 103.491 44.36ZM89.1809 44V10.61H96.2009V24.695L95.7509 31.85L95.8859 39.05V44H89.1809ZM102.276 38.6C103.446 38.6 104.481 38.33 105.381 37.79C106.311 37.25 107.046 36.485 107.586 35.495C108.156 34.475 108.441 33.275 108.441 31.895C108.441 30.485 108.156 29.285 107.586 28.295C107.046 27.305 106.311 26.54 105.381 26C104.481 25.46 103.446 25.19 102.276 25.19C101.106 25.19 100.056 25.46 99.1259 26C98.1959 26.54 97.4609 27.305 96.9209 28.295C96.3809 29.285 96.1109 30.485 96.1109 31.895C96.1109 33.275 96.3809 34.475 96.9209 35.495C97.4609 36.485 98.1959 37.25 99.1259 37.79C100.056 38.33 101.106 38.6 102.276 38.6ZM120.25 44V19.79H127.27V44H120.25ZM123.76 16.415C122.47 16.415 121.42 16.04 120.61 15.29C119.8 14.54 119.395 13.61 119.395 12.5C119.395 11.39 119.8 10.46 120.61 9.71C121.42 8.96 122.47 8.585 123.76 8.585C125.05 8.585 126.1 8.945 126.91 9.665C127.72 10.355 128.125 11.255 128.125 12.365C128.125 13.535 127.72 14.51 126.91 15.29C126.13 16.04 125.08 16.415 123.76 16.415Z" fill="#424242"/>
<path d="M134.953 11.5V10H133.453V11.5H134.953ZM142.243 11.5H143.743V10H142.243V11.5ZM142.243 37.06H140.743V38.56H142.243V37.06ZM158.038 37.06H159.538V35.56H158.038V37.06ZM158.038 43V44.5H159.538V43H158.038ZM134.953 43H133.453V44.5H134.953V43ZM134.953 13H142.243V10H134.953V13ZM140.743 11.5V37.06H143.743V11.5H140.743ZM142.243 38.56H158.038V35.56H142.243V38.56ZM156.538 37.06V43H159.538V37.06H156.538ZM158.038 41.5H134.953V44.5H158.038V41.5ZM136.453 43V11.5H133.453V43H136.453ZM162.966 18.79V17.29H161.466V18.79H162.966ZM169.986 18.79H171.486V17.29H169.986V18.79ZM169.986 43V44.5H171.486V43H169.986ZM162.966 43H161.466V44.5H162.966V43ZM163.326 14.29L162.307 15.3906L162.307 15.3906L163.326 14.29ZM163.326 8.71L164.345 9.81064V9.81064L163.326 8.71ZM169.626 8.665L168.63 9.78611V9.78611L169.626 8.665ZM169.626 14.29L170.645 15.3906L170.656 15.3807L170.667 15.3705L169.626 14.29ZM162.966 20.29H169.986V17.29H162.966V20.29ZM168.486 18.79V43H171.486V18.79H168.486ZM169.986 41.5H162.966V44.5H169.986V41.5ZM164.466 43V18.79H161.466V43H164.466ZM166.476 13.915C165.496 13.915 164.832 13.6399 164.345 13.1894L162.307 15.3906C163.441 16.4401 164.876 16.915 166.476 16.915V13.915ZM164.345 13.1894C163.844 12.725 163.611 12.1948 163.611 11.5H160.611C160.611 13.0252 161.189 14.355 162.307 15.3906L164.345 13.1894ZM163.611 11.5C163.611 10.8052 163.844 10.275 164.345 9.81064L162.307 7.60936C161.189 8.64503 160.611 9.97478 160.611 11.5H163.611ZM164.345 9.81064C164.832 9.36008 165.496 9.085 166.476 9.085V6.085C164.876 6.085 163.441 6.55991 162.307 7.60936L164.345 9.81064ZM166.476 9.085C167.473 9.085 168.145 9.35508 168.63 9.78611L170.623 7.54389C169.488 6.53492 168.06 6.085 166.476 6.085V9.085ZM168.63 9.78611C169.121 10.2226 169.341 10.7152 169.341 11.365H172.341C172.341 9.85484 171.752 8.5474 170.623 7.54389L168.63 9.78611ZM169.341 11.365C169.341 12.1459 169.089 12.7249 168.586 13.2095L170.667 15.3705C171.784 14.2951 172.341 12.9241 172.341 11.365H169.341ZM168.607 13.1894C168.121 13.6399 167.456 13.915 166.476 13.915V16.915C168.076 16.915 169.512 16.4401 170.645 15.3906L168.607 13.1894ZM199.812 21.13L198.76 22.1994L198.768 22.2079L199.812 21.13ZM202.602 43V44.5H204.102V43H202.602ZM195.582 43H194.082V44.5H195.582V43ZM194.322 25.945L193.193 26.9328L193.2 26.9417L193.208 26.9504L194.322 25.945ZM186.447 26.17L187.522 27.2156L187.529 27.2083L187.536 27.2008L186.447 26.17ZM184.872 43V44.5H186.372V43H184.872ZM177.852 43H176.352V44.5H177.852V43ZM177.852 18.79V17.29H176.352V18.79H177.852ZM184.557 18.79H186.057V17.29H184.557V18.79ZM184.557 21.625H183.057V25.4965L185.665 22.6356L184.557 21.625ZM188.022 19.285L188.568 20.6819L188.581 20.6768L188.594 20.6714L188.022 19.285ZM192.567 19.93C195.244 19.93 197.257 20.7217 198.76 22.1994L200.863 20.0606C198.706 17.9383 195.889 16.93 192.567 16.93V19.93ZM198.768 22.2079C200.242 23.6338 201.102 25.8526 201.102 29.14H204.102C204.102 25.3474 203.101 22.2262 200.855 20.0521L198.768 22.2079ZM201.102 29.14V43H204.102V29.14H201.102ZM202.602 41.5H195.582V44.5H202.602V41.5ZM197.082 43V30.22H194.082V43H197.082ZM197.082 30.22C197.082 28.1193 196.627 26.26 195.435 24.9396L193.208 26.9504C193.696 27.49 194.082 28.4807 194.082 30.22H197.082ZM195.45 24.9572C194.258 23.594 192.584 23.005 190.677 23.005V26.005C191.949 26.005 192.705 26.376 193.193 26.9328L195.45 24.9572ZM190.677 23.005C188.566 23.005 186.736 23.6816 185.357 25.1392L187.536 27.2008C188.257 26.4384 189.247 26.005 190.677 26.005V23.005ZM185.371 25.1244C183.95 26.5862 183.372 28.6492 183.372 31.03H186.372C186.372 29.0908 186.843 27.9138 187.522 27.2156L185.371 25.1244ZM183.372 31.03V43H186.372V31.03H183.372ZM184.872 41.5H177.852V44.5H184.872V41.5ZM179.352 43V18.79H176.352V43H179.352ZM177.852 20.29H184.557V17.29H177.852V20.29ZM183.057 18.79V21.625H186.057V18.79H183.057ZM185.665 22.6356C186.429 21.7981 187.386 21.1443 188.568 20.6819L187.475 17.8881C185.897 18.5057 184.544 19.4119 183.448 20.6144L185.665 22.6356ZM188.594 20.6714C189.774 20.1839 191.092 19.93 192.567 19.93V16.93C190.741 16.93 189.029 17.2461 187.449 17.8986L188.594 20.6714ZM220.71 33.505L221.878 32.5639L220.837 31.2722L219.656 32.4372L220.71 33.505ZM217.335 36.835L216.281 35.7672L215.835 36.2078V36.835H217.335ZM217.335 43V44.5H218.835V43H217.335ZM210.315 43H208.815V44.5H210.315V43ZM210.315 9.61V8.11H208.815V9.61H210.315ZM217.335 9.61H218.835V8.11H217.335V9.61ZM217.335 28.51H215.835V31.9973L218.366 29.5989L217.335 28.51ZM227.595 18.79V17.29H226.997L226.563 17.7011L227.595 18.79ZM235.965 18.79L237.035 19.8412L239.541 17.29H235.965V18.79ZM225.885 29.05L224.815 27.9988L223.89 28.9404L224.706 29.9777L225.885 29.05ZM236.865 43V44.5H239.954L238.043 42.0723L236.865 43ZM228.36 43L227.192 43.9411L227.642 44.5H228.36V43ZM219.656 32.4372L216.281 35.7672L218.388 37.9028L221.763 34.5728L219.656 32.4372ZM215.835 36.835V43H218.835V36.835H215.835ZM217.335 41.5H210.315V44.5H217.335V41.5ZM211.815 43V9.61H208.815V43H211.815ZM210.315 11.11H217.335V8.11H210.315V11.11ZM215.835 9.61V28.51H218.835V9.61H215.835ZM218.366 29.5989L228.626 19.8789L226.563 17.7011L216.303 27.4211L218.366 29.5989ZM227.595 20.29H235.965V17.29H227.595V20.29ZM234.895 17.7388L224.815 27.9988L226.955 30.1012L237.035 19.8412L234.895 17.7388ZM224.706 29.9777L235.686 43.9277L238.043 42.0723L227.063 28.1223L224.706 29.9777ZM236.865 41.5H228.36V44.5H236.865V41.5ZM229.528 42.0589L221.878 32.5639L219.542 34.4461L227.192 43.9411L229.528 42.0589Z" fill="#424242"/>
</svg>
