<svg width="238" height="39" viewBox="0 0 238 39" fill="none" xmlns="http://www.w3.org/2000/svg"><path d="M132.953 5.5h7.29v25.56h15.795V37h-23.085V5.5zM160.966 12.79h7.02V37h-7.02V12.79zm3.51-3.375c-1.29 0-2.34-.375-3.15-1.125s-1.215-1.68-1.215-2.79.405-2.04 1.215-2.79 1.86-1.125 3.15-1.125c1.29 0 2.34.36 3.15 1.08.81.72 1.215 1.62 1.215 2.7 0 1.17-.405 2.145-1.215 2.925-.81.75-1.86 1.125-3.15 1.125zM190.566 12.43c3 0 5.415.9 7.245 2.7 1.86 1.8 2.79 4.47 2.79 8.01V37h-7.02V24.22c0-1.92-.42-3.345-1.26-4.275-.84-.96-2.055-1.44-3.645-1.44-1.77 0-3.18.555-4.23 1.665-1.05 1.08-1.575 2.7-1.575 4.86V37h-7.02V12.79h6.705v2.835c.93-1.02 2.085-1.8 3.465-2.34 1.38-.57 2.895-.855 4.545-.855zM218.71 27.505l-3.375 3.33V37h-7.02V3.61h7.02v18.9l10.26-9.72h8.37l-10.08 10.26L234.865 37h-8.505l-7.65-9.495z" fill="#81C6D6"/><path fill-rule="evenodd" clip-rule="evenodd" d="M131.453 4h10.29v25.56h15.795v8.94h-26.085V4zm8.79 27.06V5.5h-7.29V37h23.085v-5.94h-15.795zm19.223-19.77h10.02V38.5h-10.02V11.29zm9.19-1.9093l-.011.01c-1.133 1.0494-2.569 1.5243-4.169 1.5243-1.6 0-3.035-.4749-4.169-1.5243-1.118-1.0357-1.696-2.3655-1.696-3.8907s.578-2.855 1.696-3.8906C161.441.5599 162.876.085 164.476.085c1.584 0 3.012.45 4.147 1.459 1.129 1.0034 1.718 2.3109 1.718 3.821 0 1.5591-.558 2.9302-1.674 4.0055l-.011.0102zm15.4 4.9378a8.6926 8.6926 0 00-1.5 1.3065V12.79h-6.705V37h7.02V25.03c0-2.16.525-3.78 1.575-4.86 1.05-1.11 2.46-1.665 4.23-1.665 1.59 0 2.805.48 3.645 1.44.84.93 1.26 2.355 1.26 4.275V37h7.02V23.14c0-3.54-.93-6.21-2.79-8.01-1.83-1.8-4.245-2.7-7.245-2.7-1.65 0-3.165.285-4.545.855-.715.28-1.37.6245-1.965 1.0335zm0-1.7633c.446-.2487.915-.4693 1.406-.6619 1.576-.6489 3.284-.9633 5.104-.9633 3.32 0 6.136 1.007 8.293 3.1265 2.244 2.1739 3.242 5.2934 3.242 9.0835V38.5h-10.02V24.22c0-1.7393-.385-2.7299-.873-3.2695l-.008-.0088-.007-.0089c-.488-.5568-1.244-.9278-2.517-.9278-1.429 0-2.419.4335-3.14 1.1958l-.007.0075-.007.0073c-.679.6983-1.151 1.8752-1.151 3.8144V38.5h-10.02V11.29h9.705v1.2652zM226.36 37l-7.65-9.495-3.375 3.33V37h-7.02V3.61h7.02v18.9l10.26-9.72h8.37l-10.08 10.26L234.865 37h-8.505zm-.48-13.8404L237.954 38.5h-12.312l-7.06-8.7621-1.747 1.7244V38.5h-10.02V2.11h10.02v16.9127l8.162-7.7327h12.544L225.88 23.1596zM160.966 12.79V37h7.02V12.79h-7.02zm.36-4.5c.81.75 1.86 1.125 3.15 1.125 1.29 0 2.34-.375 3.15-1.125.81-.78 1.215-1.755 1.215-2.925 0-1.08-.405-1.98-1.215-2.7-.81-.72-1.86-1.08-3.15-1.08-1.29 0-2.34.375-3.15 1.125s-1.215 1.68-1.215 2.79.405 2.04 1.215 2.79z" fill="#fff"/><path d="M1.5 5.505h14.31c3.42 0 6.435.66 9.045 1.98 2.64 1.29 4.68 3.12 6.12 5.49 1.47 2.37 2.205 5.13 2.205 8.28 0 3.15-.735 5.91-2.205 8.28-1.44 2.37-3.48 4.215-6.12 5.535-2.61 1.29-5.625 1.935-9.045 1.935H1.5v-31.5zM15.45 31.02c3.15 0 5.655-.87 7.515-2.61 1.89-1.77 2.835-4.155 2.835-7.155s-.945-5.37-2.835-7.11c-1.86-1.77-4.365-2.655-7.515-2.655H8.79v19.53h6.66zM39.5327 12.795h7.02v24.21h-7.02v-24.21zm3.51-3.375c-1.29 0-2.34-.375-3.15-1.125s-1.215-1.68-1.215-2.79.405-2.04 1.215-2.79 1.86-1.125 3.15-1.125c1.29 0 2.34.36 3.15 1.08.81.72 1.215 1.62 1.215 2.7 0 1.17-.405 2.145-1.215 2.925-.81.75-1.86 1.125-3.15 1.125zM64.1829 12.435c3.75 0 6.63.9 8.64 2.7 2.01 1.77 3.015 4.455 3.015 8.055v13.815h-6.57V33.99c-1.32 2.25-3.78 3.375-7.38 3.375-1.86 0-3.48-.315-4.86-.945-1.35-.63-2.385-1.5-3.105-2.61-.72-1.11-1.08-2.37-1.08-3.78 0-2.25.84-4.02 2.52-5.31 1.71-1.29 4.335-1.935 7.875-1.935h5.58c0-1.53-.465-2.7-1.395-3.51-.93-.84-2.325-1.26-4.185-1.26-1.29 0-2.565.21-3.825.63-1.23.39-2.28.93-3.15 1.62l-2.52-4.905c1.32-.93 2.895-1.65 4.725-2.16 1.86-.51 3.765-.765 5.715-.765zm-.54 20.205c1.2 0 2.265-.27 3.195-.81.93-.57 1.59-1.395 1.98-2.475V26.88h-4.815c-2.88 0-4.32.945-4.32 2.835 0 .9.345 1.62 1.035 2.16.72.51 1.695.765 2.925.765zM97.8513 12.435c2.2497 0 4.2897.525 6.1197 1.575 1.86 1.02 3.315 2.475 4.365 4.365 1.05 1.86 1.575 4.035 1.575 6.525s-.525 4.68-1.575 6.57c-1.05 1.86-2.505 3.315-4.365 4.365-1.83 1.02-3.87 1.53-6.1197 1.53-3.33 0-5.865-1.05-7.605-3.15v2.79h-6.705V3.615h7.02V15.36c1.77-1.95 4.2-2.925 7.29-2.925zm-1.215 19.17c1.8 0 3.27-.6 4.4097-1.8 1.17-1.23 1.755-2.865 1.755-4.905s-.585-3.66-1.755-4.86c-1.1397-1.23-2.6097-1.845-4.4097-1.845-1.8 0-3.285.615-4.455 1.845-1.14 1.2-1.71 2.82-1.71 4.86 0 2.04.57 3.675 1.71 4.905 1.17 1.2 2.655 1.8 4.455 1.8zM115.961 12.795h7.02v24.21h-7.02v-24.21zm3.51-3.375c-1.29 0-2.34-.375-3.15-1.125s-1.215-1.68-1.215-2.79.405-2.04 1.215-2.79 1.86-1.125 3.15-1.125c1.29 0 2.34.36 3.15 1.08.81.72 1.215 1.62 1.215 2.7 0 1.17-.405 2.145-1.215 2.925-.81.75-1.86 1.125-3.15 1.125z" fill="#fff"/><path fill-rule="evenodd" clip-rule="evenodd" d="M92.1813 29.805c-1.14-1.23-1.71-2.865-1.71-4.905s.57-3.66 1.71-4.86c1.17-1.23 2.655-1.845 4.455-1.845 1.8 0 3.27.615 4.4097 1.845 1.17 1.2 1.755 2.82 1.755 4.86 0 2.04-.585 3.675-1.755 4.905-1.1397 1.2-2.6097 1.8-4.4097 1.8-1.8 0-3.285-.6-4.455-1.8zm9.1197-4.905c0 1.7376-.489 2.9745-1.3415 3.8712-.8304.8741-1.8944 1.3338-3.3232 1.3338-1.4214 0-2.5045-.4549-3.3676-1.3335-.822-.8942-1.2974-2.1324-1.2974-3.8715 0-1.7491.4812-2.9672 1.2975-3.8269.8682-.9123 1.951-1.3781 3.3675-1.3781 1.4167 0 2.4762.4652 3.3099 1.3646l.0129.014.0132.0135c.8397.8614 1.3287 2.074 1.3287 3.8129z" fill="#81C6D6"/><path fill-rule="evenodd" clip-rule="evenodd" d="M91.7463 37.4099c1.7261.9847 3.7825 1.4551 6.105 1.4551 2.4857 0 4.7807-.5662 6.8507-1.7198l.007-.004c2.098-1.1842 3.749-2.8359 4.934-4.9338l.005-.0089c1.191-2.1447 1.763-4.5926 1.763-7.2985 0-2.7035-.571-5.1394-1.766-7.2583-1.182-2.1257-2.834-3.7824-4.94-4.94-2.069-1.1842-4.365-1.7667-6.8537-1.7667-2.1744 0-4.1206.4409-5.79 1.3533V2.115h-10.02v36.39h9.705v-1.0951zM90.5613 15.36c.4562-.5026.9562-.9403 1.5-1.3134 1.5664-1.0744 3.4964-1.6116 5.79-1.6116 2.2497 0 4.2897.525 6.1197 1.575 1.86 1.02 3.315 2.475 4.365 4.365 1.05 1.86 1.575 4.035 1.575 6.525s-.525 4.68-1.575 6.57c-1.05 1.86-2.505 3.315-4.365 4.365-1.83 1.02-3.87 1.53-6.1197 1.53-2.4737 0-4.5087-.5794-6.105-1.7383-.5525-.4011-1.0525-.8717-1.5-1.4117v2.79h-6.705V3.615h7.02V15.36zM124.481 11.295h-10.02v27.21h10.02v-27.21zm-1.5 1.5h-7.02v24.21h7.02v-24.21zM123.64 9.3956l.011-.01.01-.0101c1.117-1.0754 1.675-2.4464 1.675-4.0055 0-1.5102-.59-2.8176-1.719-3.8211C122.482.5399 121.054.09 119.471.09c-1.6 0-3.036.475-4.169 1.5244-1.119 1.0356-1.696 2.3654-1.696 3.8906s.577 2.855 1.696 3.8906c1.133 1.0495 2.569 1.5244 4.169 1.5244 1.6 0 3.035-.4749 4.169-1.5244zm-7.319-1.1006c.81.75 1.86 1.125 3.15 1.125 1.29 0 2.34-.375 3.15-1.125.81-.78 1.215-1.755 1.215-2.925 0-1.08-.405-1.98-1.215-2.7-.81-.72-1.86-1.08-3.15-1.08-1.29 0-2.34.375-3.15 1.125s-1.215 1.68-1.215 2.79.405 2.04 1.215 2.79zM67.0634 21.285h-3.8255c-3.6715 0-6.6868.6597-8.7784 2.2375l-.0101.0078c-2.0757 1.5938-3.1065 3.8172-3.1065 6.4997 0 1.6798.4334 3.227 1.3215 4.5963.8918 1.3747 2.1573 2.4195 3.7292 3.153l.0114.0052c1.6145.7371 3.4554 1.0805 5.4829 1.0805 2.2782 0 4.2759-.422 5.88-1.3445v.9845h9.57V23.19c0-3.8724-1.0878-7.0328-3.5188-9.1765-2.376-2.1252-5.6636-3.0785-9.6362-3.0785-2.0825 0-4.121.2726-6.1117.8184l-.006.0017c-1.9666.548-3.7038 1.3342-5.1862 2.3787l-1.0665.7513 3.9511 7.6904 1.4314-1.1353c.7061-.56 1.5873-1.0217 2.6713-1.3654l.0105-.0033.0104-.0035c1.1117-.3705 2.2267-.553 3.3507-.553 1.6644 0 2.6326.3791 3.1796.8732l.01.009.0102.0089c.2566.2235.4721.507.6257.8789zM58.4679 13.2c-1.83.51-3.405 1.23-4.725 2.16l2.52 4.905c.3851-.3054.8054-.5814 1.261-.828.5737-.3106 1.2034-.5746 1.889-.792 1.26-.42 2.535-.63 3.825-.63 1.86 0 3.255.42 4.185 1.26.5982.521 1.004 1.191 1.2175 2.01.1183.4542.1775.9542.1775 1.5h-5.58c-3.54 0-6.165.645-7.875 1.935-1.68 1.29-2.52 3.06-2.52 5.31 0 1.41.36 2.67 1.08 3.78.72 1.11 1.755 1.98 3.105 2.61 1.38.63 3 .945 4.86.945 2.5175 0 4.4775-.5502 5.88-1.6505.6031-.4731 1.1031-1.0479 1.5-1.7245v3.015h6.57V23.19c0-3.6-1.005-6.285-3.015-8.055-2.01-1.8-4.89-2.7-8.64-2.7-1.95 0-3.855.255-5.715.765z" fill="#81C6D6"/><path fill-rule="evenodd" clip-rule="evenodd" d="M66.8379 31.83c.93-.57 1.59-1.395 1.98-2.475V26.88h-4.815c-2.88 0-4.32.945-4.32 2.835 0 .9.345 1.62 1.035 2.16.72.51 1.695.765 2.925.765 1.2 0 2.265-.27 3.195-.81zm-.7689-1.2881c.5539-.3434.9684-.817 1.2489-1.4702V28.38h-3.315c-1.3237 0-2.0559.2258-2.417.4628-.251.1647-.403.3743-.403.8722 0 .4397.1355.715.4314.9563.387.2626 1.0164.4687 2.0286.4687.9593 0 1.7539-.2116 2.4261-.5981zM48.0527 11.295h-10.02v27.21h10.02v-27.21zm-1.5 1.5v24.21h-7.02v-24.21h7.02z" fill="#81C6D6"/><path d="M47.2118 9.3956l.0108-.01-.309-2.015c-.1871.3337-.4274.6418-.7209.9244-.81.75-1.86 1.125-3.15 1.125-1.29 0-2.34-.375-3.15-1.125s-1.215-1.68-1.215-2.79.405-2.04 1.215-2.79 1.86-1.125 3.15-1.125c1.29 0 2.34.36 3.15 1.08l.9966-1.1211C46.0542.5399 44.6264.09 43.0427.09c-1.5999 0-3.0357.475-4.1691 1.5244-1.1185 1.0356-1.6959 2.3654-1.6959 3.8906s.5774 2.855 1.6959 3.8906c1.1334 1.0495 2.5692 1.5244 4.1691 1.5244 1.6 0 3.0357-.4749 4.1691-1.5244z" fill="#81C6D6"/><path d="M47.2002 4.1233c.1384.3848.2075.8004.2075 1.2467 0 .4706-.0655.9097-.1966 1.3172l.0115 2.6985.0106-.0102C48.3499 8.3 48.9077 6.929 48.9077 5.37c0-1.5102-.5895-2.8176-1.7184-3.8211l.0109 2.5744zM46.9136 7.3705l.309 2.0152-.0115-2.6985a3.7269 3.7269 0 01-.2975.6833z" fill="#81C6D6"/><path d="M47.1893 1.5489L46.1927 2.67c.4753.4224.8111.9069 1.0075 1.4533l-.0109-2.5744z" fill="#81C6D6"/><path fill-rule="evenodd" clip-rule="evenodd" d="M25.5228 6.1418C22.6723 4.7022 19.4215 4.005 15.81 4.005H0v34.5h15.81c3.6104 0 6.8598-.6817 9.7096-2.0903l.0062-.0031c2.8735-1.4367 5.1315-3.4676 6.7276-6.0918 1.6332-2.6358 2.4266-5.6751 2.4266-9.0648 0-3.3897-.7934-6.429-2.4266-9.0647-1.5962-2.6246-3.8553-4.6416-6.7306-6.0485zM33.18 21.255c0 3.15-.735 5.91-2.205 8.28-1.44 2.37-3.48 4.215-6.12 5.535-2.61 1.29-5.625 1.935-9.045 1.935H1.5v-31.5h14.31c3.42 0 6.435.66 9.045 1.98 2.64 1.29 4.68 3.12 6.12 5.49 1.47 2.37 2.205 5.13 2.205 8.28z" fill="#81C6D6"/><path fill-rule="evenodd" clip-rule="evenodd" d="M15.45 11.49c3.15 0 5.655.885 7.515 2.655 1.89 1.74 2.835 4.11 2.835 7.11s-.945 5.385-2.835 7.155c-1.86 1.74-4.365 2.61-7.515 2.61H8.79V11.49h6.66zm6.481 3.7416l.0089.0086.0091.0083c1.5291 1.4078 2.351 3.3489 2.351 6.0065 0 2.6567-.8223 4.6195-2.3603 6.0601-1.52 1.4216-3.6261 2.2049-6.4897 2.2049h-5.16V12.99h5.16c2.8571 0 4.9601.7943 6.481 2.2416z" fill="#81C6D6"/></svg>