<svg width="300" height="282" viewBox="0 0 300 282" fill="none" xmlns="http://www.w3.org/2000/svg">
<path d="M267.476 85.8658C262.215 127.812 225.468 169.689 185.053 196.658C80.6123 266.919 -20.3547 147.695 5.11331 104.874C24.2298 61.4421 83.8616 73.3716 109.229 56.2975C251.802 -40.345 272.42 50.7582 267.476 85.8658Z" fill="#81C6D6"/>
<path opacity="0.9" d="M267.476 85.8658C262.215 127.812 225.468 169.689 185.053 196.658C80.6123 266.919 -20.3547 147.695 5.11331 104.874C24.2298 61.4421 83.8616 73.3716 109.229 56.2975C251.802 -40.345 272.42 50.7582 267.476 85.8658Z" fill="white"/>
<path d="M150 281.781C232.843 281.781 300 277.86 300 273.023C300 268.187 232.843 264.266 150 264.266C67.1573 264.266 0 268.187 0 273.023C0 277.86 67.1573 281.781 150 281.781Z" fill="#F5F5F5"/>
<path d="M149.97 230.326H40.1137L34.1025 53.6515H143.959L149.97 230.326Z" fill="#81C6D6"/>
<path d="M155.455 224.841H45.599L39.5801 48.1665H149.436L155.455 224.841Z" fill="#81C6D6"/>
<path opacity="0.3" d="M155.455 224.841H45.599L39.5801 48.1665H149.436L155.455 224.841Z" fill="white"/>
<path d="M118.648 120.868C130.41 108.903 129.91 89.3371 117.53 77.1673C105.15 64.9974 85.5789 64.8317 73.8164 76.7971C62.0539 88.7625 62.5544 108.328 74.9341 120.498C87.3139 132.668 106.885 132.833 118.648 120.868Z" fill="#81C6D6"/>
<path d="M121.739 98.8395C121.898 103.049 120.979 107.23 119.07 110.986C117.01 115.033 113.863 118.426 109.983 120.785C106.102 123.143 101.64 124.374 97.0991 124.339C92.4511 124.313 87.8915 123.066 83.8776 120.723C79.8637 118.379 76.5367 115.021 74.2304 110.986C72.08 107.288 70.8786 103.115 70.7336 98.8395C70.5909 95.5246 71.1236 92.2152 72.2995 89.1125C73.4753 86.0098 75.2696 83.1785 77.5735 80.7907C79.8774 78.4029 82.6426 76.5084 85.7013 75.2224C88.76 73.9363 92.0482 73.2856 95.3661 73.3096C102.201 73.358 108.755 76.0376 113.667 80.7918C118.578 85.546 121.469 92.0095 121.739 98.8395Z" fill="white"/>
<path opacity="0.6" d="M119.055 110.986C116.995 115.033 113.848 118.426 109.967 120.785C106.086 123.143 101.625 124.374 97.0835 124.339C92.4355 124.313 87.8759 123.067 83.862 120.723C79.8481 118.379 76.5212 115.021 74.2148 110.986C80.7576 106.525 88.4995 104.154 96.4182 104.185C104.464 104.203 112.331 106.566 119.055 110.986Z" fill="#81C6D6"/>
<path opacity="0.6" d="M104.18 98.2034C108.505 93.8036 108.321 86.6092 103.769 82.1342C99.2164 77.6593 92.0199 77.5984 87.6947 81.9982C83.3695 86.398 83.5535 93.5924 88.1057 98.0673C92.6578 102.542 99.8544 102.603 104.18 98.2034Z" fill="#81C6D6"/>
<path d="M133.383 160.862H63.3069L62.835 146.936H132.911L133.383 160.862Z" fill="white"/>
<path d="M134.234 185.75H64.1506L63.6787 171.824H133.762L134.234 185.75Z" fill="white"/>
<path d="M107.188 173.743L90.2996 176.064C90.1385 176.082 89.9829 176.134 89.8426 176.215C89.7023 176.296 89.5804 176.406 89.4845 176.537C89.3886 176.667 89.3208 176.817 89.2853 176.975C89.2498 177.133 89.2475 177.297 89.2784 177.456L91.4987 188.774C91.5714 189.107 91.7657 189.4 92.0434 189.596C92.3212 189.792 92.6623 189.877 92.9996 189.834L109.888 187.513C110.049 187.493 110.204 187.44 110.343 187.357C110.483 187.275 110.603 187.164 110.698 187.033C110.793 186.902 110.861 186.752 110.895 186.594C110.93 186.436 110.932 186.272 110.901 186.113L108.689 174.795C108.616 174.463 108.422 174.171 108.144 173.976C107.866 173.781 107.525 173.698 107.188 173.743ZM102.337 185.208L99.2428 185.618L98.9411 181.967C98.6222 181.829 98.3412 181.616 98.1217 181.347C97.9023 181.077 97.7508 180.759 97.6801 180.419C97.6232 180.156 97.6223 179.883 97.6774 179.619C97.7325 179.356 97.8423 179.106 97.9998 178.887C98.1573 178.669 98.359 178.485 98.5917 178.349C98.8245 178.214 99.0832 178.128 99.3511 178.098C99.9006 178.028 100.457 178.166 100.909 178.485C101.362 178.804 101.678 179.282 101.796 179.824C101.863 180.151 101.842 180.489 101.736 180.806C101.63 181.122 101.443 181.405 101.192 181.626L102.337 185.208Z" fill="#81C6D6"/>
<path d="M105.517 173.132C105.218 173.17 104.916 173.095 104.67 172.922C104.424 172.748 104.251 172.49 104.186 172.196L103.97 171.089C103.66 169.58 102.814 168.233 101.588 167.3C100.362 166.367 98.8384 165.91 97.3009 166.014C96.5251 166.059 95.7678 166.269 95.0806 166.632C94.3934 166.995 93.7923 167.501 93.3182 168.117C92.8441 168.733 92.508 169.443 92.3329 170.201C92.1578 170.958 92.1477 171.744 92.3033 172.505L92.5508 173.782C92.5797 173.923 92.5786 174.069 92.5478 174.21C92.517 174.351 92.457 174.484 92.3718 174.601C92.2866 174.717 92.178 174.815 92.053 174.887C91.9279 174.959 91.7892 175.004 91.6457 175.019C91.3465 175.061 91.0427 174.988 90.7957 174.814C90.5487 174.64 90.3768 174.379 90.315 174.083L90.1061 173.008C89.8937 172.003 89.8867 170.965 90.0854 169.958C90.2842 168.95 90.6847 167.993 91.2628 167.143C91.8409 166.294 92.5847 165.571 93.4495 165.017C94.3143 164.462 95.2823 164.088 96.2952 163.918C98.4915 163.549 100.745 164.04 102.589 165.289C104.433 166.538 105.725 168.449 106.198 170.625L106.445 171.894C106.474 172.037 106.472 172.185 106.44 172.327C106.408 172.47 106.346 172.604 106.258 172.721C106.171 172.838 106.059 172.935 105.932 173.006C105.804 173.076 105.662 173.119 105.517 173.132Z" fill="#81C6D6"/>
<path d="M122.668 205.253H77.0468L76.7451 196.186H122.359L122.668 205.253Z" fill="#81C6D6"/>
<path d="M100.659 153.899C100.673 154.23 100.619 154.56 100.501 154.869C100.383 155.179 100.204 155.461 99.9741 155.699C99.7441 155.937 99.4681 156.126 99.1629 156.254C98.8578 156.382 98.5297 156.447 98.1988 156.444C97.5166 156.439 96.8625 156.172 96.3716 155.698C95.8807 155.225 95.5904 154.581 95.5607 153.899C95.547 153.568 95.6007 153.238 95.7184 152.929C95.8361 152.62 96.0154 152.337 96.2455 152.099C96.4755 151.861 96.7515 151.673 97.0567 151.544C97.3618 151.416 97.6898 151.351 98.0208 151.354C98.7035 151.357 99.3587 151.624 99.85 152.098C100.341 152.572 100.631 153.217 100.659 153.899Z" fill="#263238"/>
<path d="M89.657 153.899C89.6718 154.23 89.6189 154.561 89.5016 154.87C89.3843 155.18 89.205 155.463 88.9747 155.701C88.7445 155.939 88.4681 156.128 88.1624 156.256C87.8567 156.384 87.5282 156.448 87.1969 156.444C86.5155 156.439 85.8623 156.172 85.3726 155.698C84.883 155.224 84.5943 154.58 84.5665 153.899C84.5529 153.568 84.6066 153.238 84.7243 152.929C84.842 152.62 85.0213 152.337 85.2514 152.099C85.4814 151.861 85.7573 151.673 86.0625 151.544C86.3677 151.416 86.6957 151.351 87.0267 151.354C87.7086 151.357 88.3629 151.624 88.853 152.098C89.3431 152.572 89.6311 153.218 89.657 153.899Z" fill="#263238"/>
<path d="M78.7264 153.899C78.74 154.23 78.6863 154.56 78.5686 154.869C78.4509 155.179 78.2716 155.461 78.0416 155.699C77.8115 155.937 77.5356 156.126 77.2304 156.254C76.9252 156.382 76.5972 156.447 76.2662 156.444C75.5843 156.441 74.93 156.174 74.4399 155.7C73.9498 155.226 73.6618 154.581 73.6359 153.899C73.6222 153.568 73.6759 153.238 73.7936 152.929C73.9113 152.62 74.0907 152.337 74.3207 152.099C74.5507 151.861 74.8267 151.673 75.1319 151.544C75.437 151.416 75.765 151.351 76.096 151.354C76.778 151.357 77.4322 151.624 77.9223 152.098C78.4124 152.572 78.7005 153.218 78.7264 153.899Z" fill="#263238"/>
<path d="M111.62 153.899C111.634 154.23 111.58 154.56 111.463 154.869C111.345 155.179 111.166 155.461 110.936 155.699C110.705 155.937 110.43 156.126 110.124 156.254C109.819 156.382 109.491 156.447 109.16 156.444C108.478 156.441 107.824 156.174 107.334 155.7C106.844 155.226 106.556 154.581 106.53 153.899C106.518 153.569 106.574 153.241 106.693 152.933C106.812 152.625 106.993 152.345 107.223 152.109C107.454 151.874 107.73 151.687 108.035 151.561C108.34 151.435 108.668 151.373 108.998 151.377C109.674 151.382 110.324 151.647 110.811 152.116C111.299 152.585 111.589 153.223 111.62 153.899Z" fill="#263238"/>
<path d="M122.583 153.899C122.598 154.23 122.545 154.561 122.427 154.87C122.31 155.18 122.131 155.463 121.901 155.701C121.67 155.939 121.394 156.128 121.088 156.256C120.782 156.384 120.454 156.448 120.123 156.444C119.441 156.439 118.788 156.172 118.298 155.698C117.809 155.224 117.52 154.58 117.492 153.899C117.479 153.568 117.532 153.238 117.65 152.929C117.768 152.62 117.947 152.337 118.177 152.099C118.407 151.861 118.683 151.673 118.988 151.544C119.293 151.416 119.621 151.351 119.952 151.354C120.634 151.357 121.289 151.624 121.779 152.098C122.269 152.572 122.557 153.218 122.583 153.899Z" fill="#263238"/>
<path d="M214.914 85.8348C215.943 87.4904 216.802 89.0686 217.683 90.7165C218.565 92.3643 219.362 94.0199 220.144 95.7142C221.738 99.1448 223.057 102.697 224.089 106.336C224.228 106.793 224.329 107.28 224.445 107.752L224.615 108.471L224.7 108.827L224.801 109.415C224.975 110.749 224.894 112.104 224.561 113.407C224.027 115.431 223.215 117.37 222.147 119.171C220.238 122.442 217.931 125.465 215.277 128.168L212.02 125.708C213.655 122.703 215.11 119.603 216.376 116.424C216.94 115.024 217.337 113.562 217.56 112.069C217.631 111.613 217.61 111.147 217.498 110.699L217.188 109.756C217.065 109.369 216.949 108.982 216.802 108.587C215.625 105.396 214.264 102.275 212.724 99.2419C211.177 96.1474 209.514 93.0528 207.851 90.0976L214.914 85.8348Z" fill="#FF8B7B"/>
<path d="M212.849 124.633L209.29 126.513L213.375 131.294C213.375 131.294 215.928 129.568 216.044 126.938L212.849 124.633Z" fill="#FF8B7B"/>
<path d="M204.517 129.46L208.888 132.934L213.375 131.294L209.29 126.512L204.517 129.46Z" fill="#FF8B7B"/>
<path d="M189.569 60.5214C189.484 60.9547 189.182 61.2564 188.904 61.2022C188.625 61.1481 188.463 60.7458 188.548 60.3203C188.633 59.8948 188.935 59.5467 189.221 59.6395C189.507 59.7323 189.654 60.0882 189.569 60.5214Z" fill="#263238"/>
<path d="M189.221 61.2642C188.442 62.4759 187.5 63.5745 186.421 64.5289C186.676 64.793 186.985 64.9989 187.327 65.1324C187.668 65.266 188.035 65.324 188.401 65.3025L189.221 61.2642Z" fill="#FF5652"/>
<path d="M187.829 76.4428V71.3678L194.544 72.1414C194.544 72.1414 194.436 76.5047 190.676 77.789L187.829 76.4428Z" fill="#FF8B7B"/>
<path d="M189.763 67.7162L194.49 69.0778L194.575 72.1801L187.86 71.3677L189.763 67.7162Z" fill="#FF8B7B"/>
<path opacity="0.2" d="M194.49 69.0778L189.763 67.7162L188.843 69.4801C188.893 70.8699 189.327 72.2187 190.098 73.3767C190.868 74.5348 191.944 75.4568 193.206 76.0405C194.018 74.9061 194.493 73.5651 194.575 72.1723L194.49 69.0778Z" fill="black"/>
<path d="M191.628 58.4559C191.678 58.4546 191.726 58.4392 191.767 58.4117C191.809 58.3841 191.841 58.3455 191.861 58.3002C191.882 58.2549 191.889 58.2048 191.882 58.1557C191.875 58.1066 191.854 58.0605 191.822 58.0227C191.55 57.7158 191.209 57.4784 190.826 57.3304C190.444 57.1823 190.032 57.1279 189.625 57.1717C189.558 57.183 189.498 57.2203 189.459 57.2755C189.42 57.3306 189.404 57.399 189.416 57.4656C189.427 57.5328 189.464 57.5929 189.519 57.6333C189.574 57.6737 189.642 57.6912 189.71 57.6823C190.032 57.6506 190.358 57.6965 190.66 57.8163C190.961 57.9361 191.23 58.1262 191.443 58.3708C191.466 58.3966 191.495 58.4175 191.527 58.4321C191.559 58.4467 191.593 58.4548 191.628 58.4559Z" fill="#263238"/>
<path d="M201.515 68.3507C200.742 72.3349 200.262 77.8509 203.062 80.5045C203.062 80.5045 201.979 84.5429 194.552 84.5429C186.422 84.5429 190.646 80.9996 190.646 80.9996C194.026 79.9475 193.995 76.1025 193.222 73.008L201.515 68.3507Z" fill="#FF8B7B"/>
<path d="M204.571 83.1658C205.298 82.1446 205.267 78.9031 204.493 78.3306C203.248 77.41 197.902 77.1934 190.715 78.8489C191.489 81.9899 189.825 83.63 189.825 83.63L204.571 83.1658Z" fill="#81C6D6"/>
<path d="M228.755 266.834C228.534 266.912 228.3 266.945 228.066 266.932C227.833 266.919 227.604 266.859 227.393 266.757C227.314 266.683 227.259 266.586 227.237 266.479C227.214 266.372 227.226 266.261 227.27 266.161C227.294 266.078 227.336 266 227.394 265.935C227.451 265.869 227.522 265.817 227.602 265.782C228.337 265.426 230.024 266.115 230.101 266.146C230.124 266.155 230.144 266.171 230.158 266.192C230.171 266.213 230.179 266.237 230.178 266.262C230.178 266.287 230.172 266.311 230.16 266.333C230.147 266.354 230.13 266.373 230.109 266.386C229.673 266.577 229.219 266.727 228.755 266.834ZM227.865 265.96C227.814 265.972 227.765 265.99 227.718 266.014C227.67 266.032 227.627 266.061 227.592 266.098C227.557 266.136 227.531 266.181 227.517 266.231C227.447 266.463 227.517 266.54 227.564 266.564C227.858 266.811 228.941 266.564 229.706 266.277C229.124 266.036 228.495 265.928 227.865 265.96Z" fill="#81C6D6"/>
<path d="M230.077 266.393H230.015C229.396 266.215 228.081 265.279 228.065 264.668C228.065 264.571 228.098 264.477 228.158 264.401C228.219 264.325 228.303 264.272 228.398 264.25C228.49 264.216 228.588 264.202 228.686 264.21C228.783 264.219 228.878 264.248 228.963 264.297C229.69 264.668 230.154 266.169 230.17 266.239C230.181 266.257 230.186 266.279 230.186 266.301C230.186 266.322 230.181 266.344 230.17 266.362C230.158 266.375 230.143 266.384 230.127 266.389C230.111 266.394 230.094 266.396 230.077 266.393ZM228.53 264.467H228.468C228.313 264.521 228.313 264.599 228.313 264.637C228.313 265.001 229.195 265.736 229.86 266.03C229.698 265.597 229.342 264.738 228.87 264.483C228.765 264.435 228.646 264.429 228.537 264.467H228.53Z" fill="#81C6D6"/>
<path d="M188.571 267.747C187.875 267.747 187.202 267.647 186.978 267.337C186.919 267.255 186.888 267.156 186.888 267.055C186.888 266.954 186.919 266.855 186.978 266.772C187.022 266.697 187.081 266.631 187.152 266.579C187.222 266.527 187.303 266.49 187.388 266.471C188.293 266.223 190.196 267.306 190.274 267.353C190.297 267.364 190.316 267.384 190.328 267.408C190.339 267.431 190.342 267.458 190.335 267.484C190.333 267.511 190.321 267.535 190.303 267.555C190.285 267.574 190.261 267.588 190.235 267.592C189.686 267.693 189.129 267.745 188.571 267.747ZM187.713 266.687C187.631 266.674 187.547 266.674 187.465 266.687C187.413 266.698 187.363 266.719 187.319 266.75C187.275 266.781 187.238 266.82 187.21 266.865C187.117 267.028 187.156 267.105 187.21 267.151C187.465 267.507 188.835 267.515 189.848 267.368C189.186 267.007 188.462 266.775 187.713 266.687Z" fill="#81C6D6"/>
<path d="M190.228 267.592H190.174C189.516 267.299 188.216 266.123 188.317 265.504C188.317 265.357 188.441 265.179 188.797 265.148C188.924 265.133 189.053 265.144 189.175 265.182C189.298 265.219 189.411 265.281 189.508 265.364C190.004 265.957 190.302 266.69 190.359 267.461C190.359 267.483 190.354 267.505 190.345 267.525C190.336 267.545 190.322 267.563 190.305 267.577C190.281 267.589 190.255 267.594 190.228 267.592ZM188.897 265.388H188.82C188.588 265.388 188.572 265.496 188.572 265.527C188.51 265.898 189.392 266.827 190.065 267.229C190.006 266.608 189.755 266.021 189.346 265.55C189.219 265.442 189.056 265.384 188.89 265.388H188.897Z" fill="#81C6D6"/>
<path d="M196.2 267.469H190.761L190.22 254.866H195.658L196.2 267.469Z" fill="#FF8B7B"/>
<path d="M236.143 264.947L230.828 266.099L225.482 254.363L230.805 253.211L236.143 264.947Z" fill="#FF8B7B"/>
<path d="M230.309 265.566L236.29 264.274C236.394 264.251 236.503 264.265 236.599 264.313C236.694 264.361 236.771 264.44 236.816 264.537L238.889 269.039C238.944 269.148 238.973 269.269 238.972 269.391C238.972 269.513 238.943 269.634 238.887 269.742C238.831 269.851 238.75 269.945 238.651 270.016C238.552 270.088 238.437 270.135 238.317 270.153C236.228 270.563 235.183 270.664 232.561 271.229C230.944 271.584 227.292 272.474 225.056 272.954C222.821 273.433 222.055 271.29 222.929 270.896C226.836 269.109 228.46 267.538 229.52 266.076C229.712 265.815 229.993 265.633 230.309 265.566Z" fill="#263238"/>
<path d="M190.801 266.834H196.742C196.85 266.835 196.955 266.872 197.039 266.939C197.123 267.007 197.182 267.101 197.206 267.206L198.282 272.041C198.313 272.158 198.317 272.28 198.293 272.399C198.268 272.518 198.216 272.629 198.141 272.723C198.066 272.818 197.969 272.894 197.859 272.945C197.749 272.996 197.629 273.02 197.508 273.016C195.365 272.977 192.271 272.853 189.578 272.853C186.422 272.853 183.707 273.023 180.009 273.023C177.773 273.023 177.154 270.764 178.09 270.556C182.345 269.627 185.826 269.527 189.501 267.26C189.887 267.001 190.337 266.854 190.801 266.834Z" fill="#263238"/>
<path d="M212.795 81.75C217.893 82.9182 222.078 95.9384 222.078 95.9384L211.889 103.729C209.245 100.901 207.379 97.4361 206.474 93.6717C204.671 86.8482 207.58 80.5431 212.795 81.75Z" fill="#81C6D6"/>
<path opacity="0.4" d="M212.795 81.75C217.893 82.9182 222.078 95.9384 222.078 95.9384L211.889 103.729C209.245 100.901 207.379 97.4361 206.474 93.6717C204.671 86.8482 207.58 80.5431 212.795 81.75Z" fill="black"/>
<path d="M185.973 97.2768C184.704 98.6461 183.435 99.8685 182.105 101.145C181.447 101.764 180.782 102.383 180.101 102.978L179.072 103.884L178.817 104.108L178.376 104.464C177.922 104.826 177.419 105.123 176.883 105.346C176.285 105.599 175.644 105.731 174.995 105.733C174.441 105.735 173.89 105.638 173.37 105.446C172.793 105.227 172.267 104.892 171.823 104.464C171.256 103.91 170.841 103.22 170.616 102.46C170.499 102.085 170.423 101.699 170.392 101.307C170.351 100.849 170.351 100.388 170.392 99.9304C170.43 99.559 170.477 99.2341 170.539 98.9324C170.75 97.8775 171.051 96.8423 171.436 95.8378C171.784 94.883 172.185 93.9481 172.635 93.0373C173.13 92.0548 173.602 91.3353 174.074 90.5152C175.991 87.3752 178.178 84.4087 180.611 81.6494C183.02 78.9064 185.674 76.3893 188.541 74.1296L191.388 77.0617C189.392 79.7385 187.427 82.6087 185.609 85.4324C183.8 88.2402 182.147 91.1458 180.658 94.1358C180.325 94.863 179.884 95.6831 179.675 96.2711C179.399 96.9541 179.158 97.6513 178.956 98.3599C178.761 98.9979 178.613 99.6496 178.515 100.309C178.51 100.413 178.51 100.516 178.515 100.619C178.515 100.681 178.515 100.712 178.515 100.549C178.502 100.376 178.468 100.204 178.414 100.039C178.247 99.4902 177.941 98.9944 177.525 98.5997C177.155 98.2598 176.721 97.9968 176.248 97.8261C175.833 97.6687 175.393 97.5875 174.948 97.5862C174.521 97.5811 174.098 97.6627 173.703 97.8261C173.569 97.8806 173.44 97.9453 173.316 98.0195L173.61 97.7487L174.546 96.8977L176.395 95.1648C177.617 94.012 178.848 92.782 180.008 91.637L185.973 97.2768Z" fill="#FF8B7B"/>
<path opacity="0.2" d="M208.424 91.3121C211.194 94.0508 212.099 99.0485 212.292 103.381L211.844 103.729C209.199 100.901 207.333 97.4361 206.428 93.6717C206.327 93.2694 206.235 92.8981 206.165 92.4571L208.424 91.3121Z" fill="black"/>
<path d="M180.565 87.1655C179.451 93.0451 178.755 105.122 181.981 129.027H211.116C211.317 124.563 208.509 102.762 212.818 81.7113C209.598 81.0931 206.342 80.6823 203.07 80.4813C198.947 80.2448 194.814 80.2448 190.692 80.4813C189.33 80.6051 187.984 80.8062 186.824 81.0151C185.28 81.2858 183.856 82.0188 182.738 83.1171C181.62 84.2154 180.863 85.6271 180.565 87.1655Z" fill="#81C6D6"/>
<path opacity="0.4" d="M180.565 87.1655C179.451 93.0451 178.755 105.122 181.981 129.027H211.116C211.317 124.563 208.509 102.762 212.818 81.7113C209.598 81.0931 206.342 80.6823 203.07 80.4813C198.947 80.2448 194.814 80.2448 190.692 80.4813C189.33 80.6051 187.984 80.8062 186.824 81.0151C185.28 81.2858 183.856 82.0188 182.738 83.1171C181.62 84.2154 180.863 85.6271 180.565 87.1655Z" fill="black"/>
<path opacity="0.2" d="M185.021 95.8843L179.76 94.6233C179.597 97.8107 179.582 101.756 179.814 106.638C182.236 103.884 185.33 99.5823 185.021 95.8843Z" fill="black"/>
<path opacity="0.2" d="M190.22 254.866L190.498 261.365H195.945L195.666 254.866H190.22Z" fill="black"/>
<path opacity="0.2" d="M230.805 253.211L225.482 254.363L228.237 260.413L233.559 259.26L230.805 253.211Z" fill="black"/>
<path d="M204.099 62.533C202.707 67.7472 202.15 70.8727 198.931 73.0389C194.096 76.3346 188.062 72.5593 187.907 67.051C187.737 62.0765 190.05 54.3788 195.643 53.3267C196.873 53.096 198.14 53.1821 199.327 53.5769C200.514 53.9717 201.58 54.6622 202.426 55.5832C203.272 56.5043 203.87 57.6256 204.162 58.8415C204.455 60.0574 204.433 61.3278 204.099 62.533Z" fill="#FF8B7B"/>
<path d="M191.891 62.7263C191.628 62.0301 190.429 56.6378 191.558 55.2375C192.688 53.8373 205.569 54.8507 207.472 56.7229C210.636 59.8175 208.439 62.6026 204.981 66.1845C202.382 68.8767 202.281 71.9094 200.966 72.3736C198.645 73.1472 195.102 72.42 194.39 69.9676C193.678 67.5151 191.891 62.7263 191.891 62.7263Z" fill="#263238"/>
<path d="M205.909 50.588C201.36 48.6539 192.827 50.7969 188.216 49.6829C188.157 51.3974 188.721 53.0752 189.803 54.4063C190.886 55.7373 192.413 56.6317 194.103 56.9241C197.928 57.653 201.814 58.0131 205.708 57.9994C210.768 57.7673 209.777 52.2359 205.909 50.588Z" fill="#263238"/>
<path d="M206.621 56.8853C208.283 57.0489 209.956 56.7292 211.441 55.9647C212.292 58.0226 207.611 58.5873 206.621 56.8853Z" fill="#263238"/>
<path d="M194.366 62.9429C194.262 64.2846 193.718 65.5544 192.819 66.5558C191.628 67.8632 190.39 67.0432 190.181 65.4572C189.995 64.0183 190.382 61.5891 191.837 60.8928C193.291 60.1965 194.467 61.326 194.366 62.9429Z" fill="#FF8B7B"/>
<path d="M192.309 129.05C192.309 129.05 198.498 170.633 201.878 186.214C205.584 203.273 225.498 259.709 225.498 259.709L235.238 257.597C235.238 257.597 221.312 211.597 218.218 187.746C215.819 169.426 211.108 129.035 211.108 129.035L192.309 129.05Z" fill="#81C6D6"/>
<path d="M223.162 256.468C223.123 256.468 224.98 259.995 224.98 259.995L235.934 257.62L235.014 254.325L223.162 256.468Z" fill="#263238"/>
<path opacity="0.3" d="M196.216 143.865C203.356 145.265 202.598 171.894 201.739 185.595C199.681 175.909 196.664 157.28 194.606 144.058C195.105 143.812 195.673 143.744 196.216 143.865Z" fill="black"/>
<path d="M181.981 129.05C181.981 129.05 181.207 169.736 181.826 186.299C182.445 203.559 188.471 260.073 188.471 260.073H197.693C197.693 260.073 198.026 204.565 198.467 187.614C198.915 169.14 201.144 129.019 201.144 129.019L181.981 129.05Z" fill="#81C6D6"/>
<path d="M186.7 256.437C186.654 256.437 187.218 260.258 187.218 260.258H198.428L198.738 256.847L186.7 256.437Z" fill="#263238"/>
<path d="M191.969 88.9758C194.576 96.0081 179.25 104.294 179.25 104.294L172.612 95.7838C172.612 95.7838 177.076 86.9489 182.492 82.9724C189.184 78.0676 189.98 83.6222 191.969 88.9758Z" fill="#81C6D6"/>
<path opacity="0.4" d="M191.969 88.9758C194.576 96.0081 179.25 104.294 179.25 104.294L172.612 95.7838C172.612 95.7838 177.076 86.9489 182.492 82.9724C189.184 78.0676 189.98 83.6222 191.969 88.9758Z" fill="black"/>
<path d="M252.019 35.5872C267.439 35.5872 279.94 27.6207 279.94 17.7936C279.94 7.96646 267.439 0 252.019 0C236.599 0 224.099 7.96646 224.099 17.7936C224.099 27.6207 236.599 35.5872 252.019 35.5872Z" fill="#81C6D6"/>
<path d="M241.947 26.7523C240.107 26.7464 238.329 26.0924 236.924 24.9053C235.519 23.7183 234.577 22.074 234.264 20.2615C233.957 18.2982 234.399 16.2911 235.505 14.6396C236.61 12.9881 238.297 11.8133 240.229 11.3492C241.815 10.9839 243.475 11.1247 244.977 11.7519C246.478 12.3792 247.745 13.4613 248.6 14.8461L266.525 11.1481C267.214 10.9972 267.934 11.1118 268.542 11.4689C269.15 11.826 269.601 12.3994 269.805 13.0745C269.899 13.4294 269.919 13.7997 269.865 14.1628C269.811 14.5259 269.683 14.8742 269.49 15.1862C269.297 15.4983 269.042 15.7677 268.741 15.9779C268.44 16.1881 268.099 16.3347 267.74 16.4088L267.275 16.5017C267.206 16.514 267.141 16.5421 267.085 16.5837C267.029 16.6253 266.983 16.6793 266.95 16.7415C266.922 16.8047 266.907 16.8733 266.907 16.9426C266.907 17.012 266.922 17.0806 266.95 17.1438L267.268 17.9638C267.374 18.2296 267.384 18.5242 267.297 18.7967C267.209 19.0693 267.029 19.3028 266.788 19.4569C266.598 19.5744 266.437 19.7338 266.318 19.9228C266.198 20.1118 266.124 20.3256 266.099 20.5478C266.077 20.8028 265.974 21.0441 265.806 21.2372C265.638 21.4304 265.413 21.5654 265.163 21.6231L264.8 21.7005C264.548 21.7471 264.287 21.7122 264.056 21.6009C263.826 21.4896 263.636 21.3077 263.515 21.0816C263.355 20.8117 263.114 20.5987 262.827 20.4723C262.539 20.3458 262.22 20.3121 261.912 20.376C261.605 20.4399 261.325 20.5981 261.112 20.8286C260.898 21.059 260.762 21.3503 260.723 21.6618C260.701 21.9152 260.6 22.1552 260.433 22.3471C260.266 22.539 260.042 22.6729 259.794 22.7294L259.431 22.8068C259.179 22.8521 258.919 22.8167 258.688 22.7055C258.458 22.5944 258.268 22.4132 258.146 22.1879C258.031 21.996 257.874 21.8316 257.689 21.706C257.503 21.5805 257.292 21.4967 257.071 21.4607C256.774 21.4248 256.499 21.2817 256.3 21.0581C256.101 20.8344 255.99 20.5457 255.988 20.246V19.3641C255.985 19.2951 255.967 19.2276 255.935 19.1662C255.904 19.1048 255.859 19.051 255.805 19.0084C255.75 18.9658 255.687 18.9354 255.62 18.9194C255.553 18.9033 255.483 18.902 255.416 18.9154L249.698 20.0913C249.465 21.6752 248.75 23.1488 247.649 24.3116C246.549 25.4744 245.117 26.2699 243.548 26.5898C243.021 26.6976 242.484 26.752 241.947 26.7523ZM240.399 12.0533C238.645 12.4631 237.11 13.5226 236.105 15.0184C235.101 16.5142 234.7 18.3351 234.984 20.1145C235.288 21.77 236.175 23.2619 237.483 24.3204C238.792 25.3789 240.437 25.9341 242.119 25.8855C243.802 25.8369 245.411 25.1877 246.657 24.0554C247.902 22.9231 248.701 21.3825 248.909 19.7122V19.4337L255.214 18.1572C255.395 18.1135 255.584 18.1105 255.766 18.1487C255.948 18.1868 256.119 18.265 256.267 18.3776C256.416 18.4902 256.537 18.6343 256.622 18.7996C256.708 18.9649 256.755 19.1472 256.762 19.3332V20.2151C256.763 20.3201 256.801 20.4213 256.869 20.5016C256.937 20.582 257.03 20.6365 257.133 20.6561C257.471 20.7045 257.794 20.8293 258.077 21.021C258.36 21.2127 258.595 21.4662 258.765 21.7624C258.806 21.8459 258.872 21.9145 258.954 21.9589C259.036 22.0032 259.129 22.0211 259.222 22.0099L259.578 21.9326C259.668 21.9094 259.748 21.8577 259.807 21.7852C259.865 21.7128 259.899 21.6234 259.903 21.5303C259.951 21.0487 260.152 20.5951 260.475 20.235C260.799 19.8749 261.229 19.627 261.702 19.5271C262.176 19.4272 262.669 19.4805 263.11 19.6792C263.552 19.878 263.918 20.212 264.158 20.6329C264.197 20.7157 264.262 20.7841 264.342 20.8285C264.423 20.8729 264.515 20.891 264.606 20.8804L264.978 20.8031C265.066 20.7784 265.145 20.7262 265.202 20.6538C265.259 20.5815 265.292 20.4928 265.295 20.4008C265.333 20.0611 265.448 19.7347 265.632 19.4464C265.816 19.1581 266.063 18.9156 266.355 18.7375C266.44 18.676 266.502 18.5878 266.532 18.4869C266.561 18.386 266.556 18.2781 266.517 18.1804L266.2 17.3604C266.134 17.1913 266.106 17.01 266.118 16.829C266.13 16.6481 266.181 16.4719 266.268 16.3127C266.355 16.1536 266.476 16.0154 266.622 15.9077C266.768 15.8 266.935 15.7255 267.113 15.6893L267.585 15.5888C267.84 15.5343 268.082 15.4289 268.296 15.2788C268.509 15.1288 268.691 14.9371 268.829 14.7154C268.967 14.4937 269.058 14.2464 269.099 13.9884C269.139 13.7304 269.126 13.4669 269.062 13.2137C268.911 12.7268 268.582 12.3151 268.14 12.0611C267.698 11.8071 267.176 11.7297 266.68 11.8444L248.252 15.6739L248.112 15.434C247.372 14.116 246.223 13.0747 244.838 12.4676C243.454 11.8605 241.909 11.7205 240.438 12.0687L240.399 12.0533ZM241.947 23.8744C240.986 23.8851 240.042 23.6163 239.231 23.1008C238.272 22.4709 237.561 21.5279 237.219 20.4324C236.877 19.3368 236.926 18.1567 237.357 17.0931C237.788 16.0295 238.574 15.1482 239.582 14.5996C240.59 14.051 241.757 13.869 242.884 14.0846C244.011 14.3002 245.029 14.9 245.763 15.7819C246.498 16.6638 246.903 17.773 246.912 18.9206C246.92 20.0682 246.529 21.183 245.807 22.0751C245.085 22.9671 244.076 23.5812 242.952 23.8125C242.623 23.8721 242.289 23.898 241.954 23.8899L241.947 23.8744ZM241.947 14.7378C241.658 14.7394 241.371 14.7679 241.088 14.8229C240.549 14.9377 240.038 15.1575 239.584 15.4698C239.13 15.7821 238.742 16.1808 238.442 16.6431C238.142 17.1054 237.936 17.6222 237.836 18.1641C237.736 18.7059 237.743 19.2622 237.858 19.8012C237.973 20.3402 238.192 20.8512 238.505 21.3052C238.817 21.7592 239.216 22.1473 239.678 22.4472C240.14 22.7471 240.657 22.9531 241.199 23.0533C241.741 23.1535 242.297 23.1459 242.836 23.0311C243.645 22.8627 244.386 22.4585 244.966 21.8695C245.546 21.2805 245.938 20.533 246.094 19.7214C246.249 18.9097 246.161 18.0701 245.84 17.3086C245.519 16.547 244.98 15.8974 244.291 15.4418C243.606 14.9863 242.8 14.7464 241.977 14.7532L241.947 14.7378Z" fill="white"/>
<path opacity="0.6" d="M229.297 46.0235C234.365 46.0235 238.473 43.405 238.473 40.1749C238.473 36.9447 234.365 34.3262 229.297 34.3262C224.23 34.3262 220.122 36.9447 220.122 40.1749C220.122 43.405 224.23 46.0235 229.297 46.0235Z" fill="#81C6D6"/>
<path opacity="0.3" d="M214.699 48.4218C216.78 48.4218 218.467 47.348 218.467 46.0235C218.467 44.699 216.78 43.6252 214.699 43.6252C212.618 43.6252 210.932 44.699 210.932 46.0235C210.932 47.348 212.618 48.4218 214.699 48.4218Z" fill="#81C6D6"/>
</svg>
