<svg width="214" height="46" viewBox="0 0 214 46" fill="none" xmlns="http://www.w3.org/2000/svg">
<path d="M149.575 17.3225H154.048V33.0051H163.739V36.6497H149.575V17.3225Z" fill="#81C6D6"/>
<path d="M166.763 21.7953H171.07V36.6497H166.763V21.7953ZM168.917 19.7246C168.125 19.7246 167.481 19.4945 166.984 19.0343C166.487 18.5741 166.238 18.0035 166.238 17.3225C166.238 16.6414 166.487 16.0708 166.984 15.6106C167.481 15.1504 168.125 14.9203 168.917 14.9203C169.708 14.9203 170.352 15.1412 170.849 15.583C171.346 16.0248 171.595 16.577 171.595 17.2396C171.595 17.9575 171.346 18.5557 170.849 19.0343C170.352 19.4945 169.708 19.7246 168.917 19.7246Z" fill="#81C6D6"/>
<path d="M184.925 21.5744C186.765 21.5744 188.247 22.1267 189.37 23.2311C190.511 24.3355 191.082 25.9737 191.082 28.1457V36.6497H186.774V28.8084C186.774 27.6303 186.517 26.756 186.001 26.1854C185.486 25.5964 184.74 25.3018 183.765 25.3018C182.679 25.3018 181.814 25.6424 181.17 26.3234C180.525 26.9861 180.203 27.98 180.203 29.3053V36.6497H175.896V21.7953H180.01V23.5348C180.58 22.9089 181.289 22.4304 182.136 22.099C182.983 21.7493 183.912 21.5744 184.925 21.5744Z" fill="#81C6D6"/>
<path d="M202.192 30.8239L200.121 32.8671V36.6497H195.814V16.1628H200.121V27.7592L206.417 21.7953H211.552L205.367 28.0905L212.104 36.6497H206.886L202.192 30.8239Z" fill="#81C6D6"/>
<path fill-rule="evenodd" clip-rule="evenodd" d="M148.655 16.4021H154.968V32.0848H164.66V37.57H148.655V16.4021ZM154.048 33.0051V17.3224H149.575V36.6497H163.739V33.0051H154.048ZM165.843 20.875H171.991V37.57H165.843V20.875ZM171.481 19.7035L171.475 19.7096C170.779 20.3535 169.898 20.6449 168.917 20.6449C167.935 20.6449 167.054 20.3535 166.359 19.7096C165.672 19.0742 165.318 18.2583 165.318 17.3224C165.318 16.3866 165.672 15.5707 166.359 14.9353C167.054 14.2914 167.935 14 168.917 14C169.888 14 170.764 14.2761 171.461 14.8951C172.153 15.5108 172.515 16.313 172.515 17.2396C172.515 18.1962 172.173 19.0374 171.488 19.6972L171.481 19.7035ZM180.93 22.7331C180.591 22.9662 180.285 23.2334 180.01 23.5348V21.7953H175.896V36.6497H180.203V29.3053C180.203 27.98 180.525 26.9861 181.17 26.3234C181.814 25.6424 182.679 25.3018 183.765 25.3018C184.741 25.3018 185.486 25.5963 186.001 26.1854C186.517 26.756 186.774 27.6303 186.774 28.8084V36.6497H191.082V28.1457C191.082 25.9737 190.511 24.3355 189.37 23.2311C188.247 22.1266 186.765 21.5744 184.925 21.5744C183.912 21.5744 182.983 21.7493 182.136 22.099C181.697 22.2708 181.295 22.4822 180.93 22.7331ZM180.93 21.6513C181.204 21.4986 181.492 21.3633 181.793 21.2451C182.76 20.847 183.807 20.6541 184.925 20.6541C186.962 20.6541 188.689 21.2719 190.013 22.5724C191.389 23.9062 192.002 25.8202 192.002 28.1457V37.57H185.854V28.8084C185.854 27.7412 185.617 27.1333 185.318 26.8023L185.314 26.7969L185.309 26.7914C185.01 26.4498 184.546 26.2222 183.765 26.2222C182.888 26.2222 182.281 26.4881 181.838 26.9559L181.834 26.9605L181.829 26.965C181.413 27.3934 181.124 28.1155 181.124 29.3053V37.57H174.976V20.875H180.93V21.6513ZM206.886 36.6497L202.192 30.8239L200.121 32.8671V36.6497H195.814V16.1628H200.121V27.7592L206.417 21.7953H211.552L205.367 28.0905L212.104 36.6497H206.886ZM206.592 28.1577L214 37.57H206.446L202.114 32.1939L201.042 33.2519V37.57H194.894V15.2425H201.042V25.6195L206.05 20.875H213.747L206.592 28.1577ZM166.763 21.7953V36.6497H171.07V21.7953H166.763ZM166.984 19.0343C167.481 19.4945 168.125 19.7245 168.917 19.7245C169.708 19.7245 170.352 19.4945 170.849 19.0343C171.346 18.5557 171.595 17.9575 171.595 17.2396C171.595 16.577 171.346 16.0248 170.849 15.583C170.352 15.1412 169.708 14.9203 168.917 14.9203C168.125 14.9203 167.481 15.1504 166.984 15.6106C166.487 16.0708 166.238 16.6414 166.238 17.3224C166.238 18.0035 166.487 18.5741 166.984 19.0343Z" fill="white"/>
<path d="M68.9203 17.3255H77.7004C79.7988 17.3255 81.6487 17.7305 83.2501 18.5404C84.8699 19.3319 86.1215 20.4547 87.0051 21.9088C87.907 23.363 88.358 25.0564 88.358 26.9891C88.358 28.9219 87.907 30.6153 87.0051 32.0694C86.1215 33.5236 84.8699 34.6556 83.2501 35.4655C81.6487 36.257 79.7988 36.6527 77.7004 36.6527H68.9203V17.3255ZM77.4795 32.9806C79.4122 32.9806 80.9492 32.4468 82.0904 31.3792C83.2501 30.2932 83.8299 28.8298 83.8299 26.9891C83.8299 25.1484 83.2501 23.6943 82.0904 22.6267C80.9492 21.5407 79.4122 20.9977 77.4795 20.9977H73.3932V32.9806H77.4795Z" fill="white"/>
<path d="M92.2558 21.7984H96.563V36.6527H92.2558V21.7984ZM94.4094 19.7276C93.6179 19.7276 92.9737 19.4975 92.4767 19.0373C91.9797 18.5772 91.7312 18.0066 91.7312 17.3255C91.7312 16.6444 91.9797 16.0738 92.4767 15.6137C92.9737 15.1535 93.6179 14.9234 94.4094 14.9234C95.2009 14.9234 95.8451 15.1443 96.3421 15.5861C96.8391 16.0278 97.0876 16.58 97.0876 17.2427C97.0876 17.9605 96.8391 18.5588 96.3421 19.0373C95.8451 19.4975 95.2009 19.7276 94.4094 19.7276Z" fill="white"/>
<path d="M107.38 21.5775C109.681 21.5775 111.448 22.1297 112.681 23.2341C113.915 24.3201 114.531 25.9675 114.531 28.1764V36.6527H110.5V34.8029C109.69 36.1834 108.181 36.8736 105.972 36.8736C104.831 36.8736 103.837 36.6804 102.99 36.2938C102.162 35.9073 101.527 35.3735 101.085 34.6924C100.643 34.0114 100.422 33.2383 100.422 32.3731C100.422 30.9926 100.938 29.9066 101.969 29.1151C103.018 28.3236 104.628 27.9279 106.8 27.9279H110.224C110.224 26.9891 109.939 26.2713 109.368 25.7743C108.798 25.2589 107.942 25.0012 106.8 25.0012C106.009 25.0012 105.227 25.13 104.454 25.3877C103.699 25.627 103.055 25.9583 102.521 26.3817L100.975 23.3722C101.785 22.8016 102.751 22.3598 103.874 22.0469C105.015 21.734 106.184 21.5775 107.38 21.5775ZM107.049 33.9745C107.785 33.9745 108.439 33.8089 109.009 33.4776C109.58 33.1278 109.985 32.6216 110.224 31.959V30.4404H107.27C105.503 30.4404 104.619 31.0202 104.619 32.1799C104.619 32.7321 104.831 33.1738 105.254 33.5052C105.696 33.8181 106.294 33.9745 107.049 33.9745Z" fill="white"/>
<path d="M128.038 21.5775C129.418 21.5775 130.67 21.8996 131.793 22.5439C132.934 23.1697 133.827 24.0624 134.471 25.2221C135.115 26.3633 135.438 27.6978 135.438 29.2256C135.438 30.7533 135.115 32.097 134.471 33.2567C133.827 34.3979 132.934 35.2906 131.793 35.9349C130.67 36.5607 129.418 36.8736 128.038 36.8736C125.995 36.8736 124.439 36.2294 123.372 34.9409V36.6527H119.258V16.1659H123.565V23.3722C124.651 22.1757 126.142 21.5775 128.038 21.5775ZM127.292 33.3395C128.397 33.3395 129.299 32.9714 129.998 32.2351C130.716 31.4804 131.075 30.4772 131.075 29.2256C131.075 27.9739 130.716 26.9799 129.998 26.2436C129.299 25.489 128.397 25.1116 127.292 25.1116C126.188 25.1116 125.277 25.489 124.559 26.2436C123.86 26.9799 123.51 27.9739 123.51 29.2256C123.51 30.4772 123.86 31.4804 124.559 32.2351C125.277 32.9714 126.188 33.3395 127.292 33.3395Z" fill="white"/>
<path d="M139.149 21.7984H143.456V36.6527H139.149V21.7984ZM141.303 19.7276C140.511 19.7276 139.867 19.4975 139.37 19.0373C138.873 18.5772 138.625 18.0066 138.625 17.3255C138.625 16.6444 138.873 16.0738 139.37 15.6137C139.867 15.1535 140.511 14.9234 141.303 14.9234C142.094 14.9234 142.739 15.1443 143.235 15.5861C143.732 16.0278 143.981 16.58 143.981 17.2427C143.981 17.9605 143.732 18.5588 143.235 19.0373C142.739 19.4975 142.094 19.7276 141.303 19.7276Z" fill="white"/>
<path fill-rule="evenodd" clip-rule="evenodd" d="M124.559 32.2358C123.86 31.4811 123.51 30.4779 123.51 29.2262C123.51 27.9746 123.86 26.9806 124.559 26.2443C125.277 25.4896 126.188 25.1123 127.293 25.1123C128.397 25.1123 129.299 25.4896 129.998 26.2443C130.716 26.9806 131.075 27.9746 131.075 29.2262C131.075 30.4779 130.716 31.4811 129.998 32.2358C129.299 32.972 128.397 33.3402 127.293 33.3402C126.188 33.3402 125.277 32.972 124.559 32.2358ZM130.155 29.2262C130.155 30.2923 129.855 31.0513 129.331 31.6014C128.822 32.1378 128.169 32.4198 127.293 32.4198C126.42 32.4198 125.756 32.1407 125.226 31.6017C124.722 31.053 124.43 30.2933 124.43 29.2262C124.43 28.153 124.725 27.4057 125.226 26.8782C125.759 26.3184 126.423 26.0326 127.293 26.0326C128.162 26.0326 128.812 26.3181 129.323 26.8699L129.331 26.8785L129.339 26.8868C129.855 27.4153 130.155 28.1593 130.155 29.2262Z" fill="#297081"/>
<path fill-rule="evenodd" clip-rule="evenodd" d="M124.292 36.9019C125.351 37.506 126.613 37.7946 128.038 37.7946C129.563 37.7946 130.971 37.4473 132.241 36.7395L132.245 36.737C133.533 36.0104 134.546 34.997 135.273 33.7098L135.276 33.7043C136.007 32.3884 136.358 30.8864 136.358 29.2262C136.358 27.5675 136.007 26.0729 135.274 24.7728C134.549 23.4686 133.535 22.4521 132.243 21.7418C130.974 21.0152 129.565 20.6578 128.038 20.6578C126.704 20.6578 125.51 20.9283 124.485 21.4881V15.2462H118.338V37.5738H124.292V36.9019ZM123.565 23.3728C123.845 23.0645 124.152 22.7959 124.485 22.567C125.447 21.9078 126.631 21.5782 128.038 21.5782C129.419 21.5782 130.67 21.9003 131.793 22.5445C132.934 23.1704 133.827 24.0631 134.471 25.2227C135.115 26.364 135.438 27.6985 135.438 29.2262C135.438 30.754 135.115 32.0977 134.471 33.2573C133.827 34.3986 132.934 35.2913 131.793 35.9355C130.67 36.5614 129.419 36.8743 128.038 36.8743C126.52 36.8743 125.272 36.5188 124.292 35.8078C123.953 35.5616 123.646 35.2729 123.372 34.9416V36.6534H119.258V16.1665H123.565V23.3728Z" fill="#297081"/>
<path fill-rule="evenodd" clip-rule="evenodd" d="M144.377 20.8787H138.229V37.5738H144.377V20.8787ZM143.456 21.799H139.149V36.6534H143.456V21.799Z" fill="#297081"/>
<path fill-rule="evenodd" clip-rule="evenodd" d="M143.861 19.7133L143.867 19.7072L143.874 19.701C144.559 19.0412 144.901 18.2 144.901 17.2433C144.901 16.3168 144.54 15.5146 143.847 14.8988C143.151 14.2798 142.274 14.0037 141.303 14.0037C140.321 14.0037 139.44 14.2951 138.745 14.939C138.059 15.5745 137.704 16.3904 137.704 17.3262C137.704 18.262 138.059 19.0779 138.745 19.7133C139.44 20.3572 140.321 20.6486 141.303 20.6486C142.284 20.6486 143.165 20.3572 143.861 19.7133ZM139.37 19.038C139.867 19.4982 140.511 19.7283 141.303 19.7283C142.094 19.7283 142.739 19.4982 143.236 19.038C143.733 18.5594 143.981 17.9612 143.981 17.2433C143.981 16.5807 143.733 16.0285 143.236 15.5867C142.739 15.145 142.094 14.9241 141.303 14.9241C140.511 14.9241 139.867 15.1542 139.37 15.6143C138.873 16.0745 138.625 16.6451 138.625 17.3262C138.625 18.0072 138.873 18.5778 139.37 19.038Z" fill="#297081"/>
<path fill-rule="evenodd" clip-rule="evenodd" d="M109.148 27.0082H106.8C104.548 27.0082 102.698 27.413 101.414 28.3811L101.408 28.3858C100.135 29.3637 99.5021 30.7279 99.5021 32.3738C99.5021 33.4045 99.768 34.3538 100.313 35.1939C100.86 36.0374 101.637 36.6784 102.601 37.1285L102.608 37.1317C103.599 37.584 104.728 37.7946 105.972 37.7946C107.37 37.7946 108.596 37.5357 109.58 36.9697V37.5738H115.452V28.177C115.452 25.8011 114.784 23.862 113.293 22.5467C111.835 21.2428 109.818 20.6578 107.38 20.6578C106.103 20.6578 104.852 20.8251 103.63 21.1599L103.627 21.161C102.42 21.4973 101.354 21.9796 100.445 22.6205L99.7903 23.0815L102.214 27.8L103.093 27.1035C103.526 26.7599 104.067 26.4766 104.732 26.2657L104.738 26.2636L104.745 26.2615C105.427 26.0342 106.111 25.9222 106.8 25.9222C107.822 25.9222 108.416 26.1548 108.751 26.4579L108.757 26.4635L108.764 26.469C108.921 26.6061 109.053 26.78 109.148 27.0082ZM103.874 22.0475C102.751 22.3605 101.785 22.8022 100.975 23.3728L102.521 26.3824C102.757 26.195 103.015 26.0256 103.295 25.8743C103.647 25.6837 104.033 25.5218 104.454 25.3884C105.227 25.1307 106.009 25.0018 106.8 25.0018C107.942 25.0018 108.798 25.2595 109.368 25.7749C109.735 26.0946 109.984 26.5057 110.115 27.0082C110.188 27.2869 110.224 27.5937 110.224 27.9285H106.8C104.628 27.9285 103.018 28.3243 101.969 29.1158C100.938 29.9073 100.422 30.9933 100.422 32.3738C100.422 33.2389 100.643 34.012 101.085 34.6931C101.527 35.3741 102.162 35.9079 102.99 36.2945C103.837 36.681 104.831 36.8743 105.972 36.8743C107.517 36.8743 108.719 36.5367 109.58 35.8616C109.95 35.5713 110.257 35.2186 110.5 34.8035V36.6534H114.531V28.177C114.531 25.9682 113.915 24.3208 112.681 23.2348C111.448 22.1304 109.681 21.5782 107.38 21.5782C106.184 21.5782 105.015 21.7346 103.874 22.0475Z" fill="#297081"/>
<path fill-rule="evenodd" clip-rule="evenodd" d="M109.009 33.4782C109.58 33.1285 109.985 32.6223 110.224 31.9597V30.4411H107.27C105.503 30.4411 104.619 31.0209 104.619 32.1805C104.619 32.7327 104.831 33.1745 105.254 33.5058C105.696 33.8188 106.294 33.9752 107.049 33.9752C107.785 33.9752 108.439 33.8095 109.009 33.4782ZM108.538 32.6879C108.877 32.4772 109.132 32.1866 109.304 31.7858V31.3614H107.27C106.458 31.3614 106.008 31.5 105.787 31.6454C105.633 31.7465 105.54 31.8751 105.54 32.1805C105.54 32.4503 105.623 32.6192 105.804 32.7673C106.042 32.9284 106.428 33.0549 107.049 33.0549C107.638 33.0549 108.125 32.925 108.538 32.6879Z" fill="#297081"/>
<path fill-rule="evenodd" clip-rule="evenodd" d="M97.4834 20.8787H91.3355V37.5738H97.4834V20.8787ZM96.5631 21.799V36.6534H92.2558V21.799H96.5631Z" fill="#297081"/>
<path d="M96.9675 19.7133L96.9741 19.7072L96.7845 18.4708C96.6696 18.6756 96.5222 18.8646 96.3422 19.038C95.8452 19.4982 95.2009 19.7283 94.4094 19.7283C93.6179 19.7283 92.9737 19.4982 92.4767 19.038C91.9797 18.5778 91.7312 18.0072 91.7312 17.3262C91.7312 16.6451 91.9797 16.0745 92.4767 15.6143C92.9737 15.1542 93.6179 14.9241 94.4094 14.9241C95.2009 14.9241 95.8452 15.145 96.3422 15.5867L96.9536 14.8988C96.2572 14.2798 95.3811 14.0037 94.4094 14.0037C93.4278 14.0037 92.5468 14.2951 91.8514 14.939C91.1651 15.5745 90.8109 16.3904 90.8109 17.3262C90.8109 18.262 91.1651 19.0779 91.8514 19.7133C92.5468 20.3572 93.4278 20.6486 94.4094 20.6486C95.3911 20.6486 96.272 20.3572 96.9675 19.7133Z" fill="#297081"/>
<path d="M96.9603 16.4784C97.0452 16.7145 97.0876 16.9695 97.0876 17.2433C97.0876 17.5321 97.0474 17.8015 96.967 18.0516L96.9741 19.7072L96.9806 19.701C97.6657 19.0412 98.008 18.2 98.008 17.2433C98.008 16.3168 97.6463 15.5146 96.9536 14.8988L96.9603 16.4784Z" fill="#297081"/>
<path d="M96.7845 18.4708L96.9741 19.7072L96.967 18.0516C96.9199 18.1979 96.8591 18.3377 96.7845 18.4708Z" fill="#297081"/>
<path d="M96.9536 14.8988L96.3422 15.5867C96.6338 15.8459 96.8398 16.1431 96.9603 16.4784L96.9536 14.8988Z" fill="#297081"/>
<path fill-rule="evenodd" clip-rule="evenodd" d="M83.6598 17.7169C81.9109 16.8336 79.9163 16.4058 77.7004 16.4058H68V37.5738H77.7004C79.9157 37.5738 81.9094 37.1555 83.6579 36.2912L83.6617 36.2894C85.4248 35.4078 86.8102 34.1617 87.7895 32.5516C88.7916 30.9344 89.2784 29.0696 89.2784 26.9898C89.2784 24.91 88.7916 23.0452 87.7895 21.428C86.8101 19.8177 85.424 18.5801 83.6598 17.7169ZM88.358 26.9898C88.358 28.9225 87.9071 30.616 87.0051 32.0701C86.1216 33.5242 84.8699 34.6563 83.2501 35.4662C81.6487 36.2577 79.7988 36.6534 77.7004 36.6534H68.9203V17.3262H77.7004C79.7988 17.3262 81.6487 17.7311 83.2501 18.541C84.8699 19.3325 86.1216 20.4553 87.0051 21.9095C87.9071 23.3636 88.358 25.0571 88.358 26.9898Z" fill="#297081"/>
<path fill-rule="evenodd" clip-rule="evenodd" d="M77.4796 20.9983C79.4123 20.9983 80.9493 21.5414 82.0905 22.6274C83.2501 23.695 83.8299 25.1491 83.8299 26.9898C83.8299 28.8305 83.2501 30.2938 82.0905 31.3798C80.9493 32.4474 79.4123 32.9812 77.4796 32.9812H73.3932V20.9983H77.4796ZM81.456 23.2941L81.4615 23.2993L81.4671 23.3045C82.4053 24.1682 82.9096 25.3592 82.9096 26.9898C82.9096 28.6198 82.405 29.8241 81.4614 30.7081C80.5288 31.5803 79.2366 32.0609 77.4796 32.0609H74.3136V21.9187H77.4796C79.2326 21.9187 80.5229 22.4061 81.456 23.2941Z" fill="#297081"/>
<path d="M48.2954 6.77742C51.9444 12.1883 49.3228 21.5254 44.3275 29.6748C39.3323 37.8571 31.9634 44.9177 24.2402 45.1156C16.517 45.3136 8.36869 38.7149 3.86941 30.7965C-0.594445 22.9111 -1.4447 13.706 2.62945 8.06416C6.66818 2.4223 15.6667 0.343725 25.1259 0.0797784C34.6204 -0.217161 44.611 1.33352 48.2954 6.77742Z" fill="white"/>
<path d="M24.9 6.69183C16.6315 6.69183 9.90002 12.9937 9.90002 20.7344C9.90002 28.4759 16.6315 34.777 24.9 34.777C33.1685 34.777 39.9 28.4759 39.9 20.7344C39.9 12.9937 33.1685 6.69183 24.9 6.69183ZM24.9 9.13451C31.7591 9.13451 37.2916 14.3139 37.2916 20.7344C37.2916 27.1557 31.7591 32.3351 24.9 32.3351C18.041 32.3351 12.5084 27.1557 12.5084 20.7344C12.5084 14.3139 18.041 9.13451 24.9 9.13451Z" fill="#56B5CB"/>
<path d="M38.6005 10.8249L38.5455 10.8211C38.4291 10.8204 38.3175 10.8622 38.2306 10.9398C34.1618 14.6161 29.2351 18.5813 28.3702 18.5768C27.7858 18.5701 27.1791 18.4813 26.5366 18.3865L26.5278 18.3842C26.2177 17.8073 25.7482 17.1282 25.4516 16.9304C25.2013 16.7633 24.8673 16.7334 24.2136 16.7297L23.9146 16.7282C23.6085 16.7259 23.0393 16.723 22.7691 16.6274L22.7037 16.6035C22.3936 16.4946 21.9902 16.3505 21.6673 16.1834L19.9669 13.5743L19.9598 13.5795C18.9202 11.648 17.5411 9.07625 17.1999 8.43964L17.1217 8.29337C17.0396 8.14112 16.8842 8.0344 16.7048 8.00678C16.6012 7.99111 16.4944 7.98365 16.3875 7.98216C14.2319 7.96947 12.1457 11.0801 11.9145 11.4346C11.7965 11.6159 11.8053 11.8458 11.9376 12.0204C13.0513 13.475 14.6321 15.5527 15.8279 17.1498L17.5068 19.7358C17.5761 20.3082 17.6033 21.2628 17.6216 21.927C17.6367 22.4375 17.6495 22.8778 17.6726 23.1771C17.7332 23.9144 18.0776 24.4092 18.355 24.8085C18.4754 24.9816 18.5902 25.1458 18.6619 25.3055L18.6906 25.3966C18.8588 25.9533 19.0486 26.5847 19.7166 26.8347C19.9622 26.9273 20.4445 27.0504 20.9921 27.1295C21.0057 27.1855 21.0224 27.24 21.0455 27.2922C21.2648 27.8094 21.814 28.0176 21.8754 28.0393C21.9352 28.0602 22.0046 28.0699 22.1154 28.0706C22.3155 28.0721 22.6686 28.043 23.068 27.9796C23.1174 28.3878 23.355 28.7139 23.7544 28.902C23.9569 28.9975 24.2056 29.0468 24.4942 29.0498C25.4022 29.055 26.6538 28.5714 26.8834 28.3318C27.0133 28.1967 27.7475 27.0131 27.9381 26.2362C29.2295 25.3242 30.3185 24.2249 31.0232 23.1226C34.1028 21.7031 42.1528 18.0126 42.1967 17.9924C42.3745 17.9103 42.4741 17.7327 42.4446 17.5491C42.3378 16.8924 41.3182 11.1196 38.6005 10.8249Z" fill="white"/>
<path d="M38.5448 11.2435C38.5448 11.2435 29.9455 19.0141 28.3654 18.9992C26.7862 18.9843 25.1033 18.3924 23.3072 18.6596C21.512 18.9268 21.3533 22.9017 21.4362 23.089C21.5183 23.2771 22.1593 26.6676 23.4452 27.3459C24.7318 28.0243 28.9251 25.6862 30.7028 22.7994C33.6787 21.4277 41.9983 17.6126 41.9983 17.6126C41.9983 17.6126 41.0058 11.5107 38.5448 11.2435Z" fill="white"/>
<path d="M42.058 17.4693C39.7438 18.5313 32.9867 21.6255 30.6502 22.7024C30.6302 22.7106 30.6127 22.727 30.6015 22.745C29.0924 25.1966 25.6549 27.3654 24.0032 27.3549C23.7999 27.3534 23.6317 27.3183 23.5033 27.2504C22.4574 26.6997 21.8324 24.1809 21.6267 23.3524C21.5797 23.1621 21.559 23.0838 21.5454 23.0539C21.5024 22.895 21.5614 20.6075 22.4016 19.4097C22.6639 19.0358 22.9756 18.8194 23.3255 18.7671C23.646 18.7193 23.9761 18.6985 24.3332 18.6999C25.0547 18.7044 25.7626 18.8089 26.4482 18.9112C27.1122 19.0089 27.738 19.1022 28.367 19.1082C29.8115 19.1164 37.4566 12.3481 39.1203 10.8629L39.0247 10.6129C36.5048 12.8765 29.5971 18.897 28.367 18.8895C27.7587 18.8843 27.1393 18.7925 26.4848 18.6962C25.7905 18.5925 25.073 18.4865 24.3348 18.482C23.9649 18.4798 23.6221 18.5022 23.2897 18.5522C22.8161 18.6223 22.4144 18.9298 22.0939 19.4664C21.3421 20.7224 21.2377 22.9248 21.3286 23.13C21.3373 23.1539 21.3684 23.2748 21.4003 23.4025C21.6331 24.3436 22.2541 26.8429 23.3885 27.4407C23.5519 27.5273 23.7592 27.5721 24.0024 27.5728C25.7426 27.5833 29.2048 25.4242 30.7857 22.883C33.2992 21.7247 40.2476 18.594 42.2023 17.6969L42.058 17.4693Z" fill="#56B5CB"/>
<path d="M32.0803 21.6396C32.0803 21.6396 31.1348 21.2799 31.1747 20.7582C30.7801 21.7799 30.7394 22.9614 28.2849 23.5487C27.5156 25.0219 26.8316 26.1936 25.9196 25.8488C24.9582 25.4854 26.3142 23.4711 26.3277 23.289C26.3413 23.1076 26.6434 21.1605 26.6434 21.1605L32.0803 21.6396Z" fill="white"/>
<path d="M32.074 21.656C31.8532 21.5829 31.6427 21.4873 31.4482 21.3538C31.3517 21.2873 31.2601 21.2097 31.1859 21.1105C31.111 21.0134 31.0576 20.8873 31.0584 20.7507L31.2848 20.7955C31.2202 20.9552 31.1636 21.1172 31.1078 21.2829C31.052 21.4485 30.989 21.615 30.922 21.7799C30.8487 21.9433 30.7714 22.1075 30.6677 22.2598C30.5713 22.415 30.4485 22.5576 30.3154 22.6874C30.2516 22.7553 30.1751 22.8106 30.1025 22.8703C30.0332 22.9329 29.9519 22.98 29.8745 23.033C29.7972 23.0874 29.7143 23.1315 29.6306 23.1748C29.5477 23.2195 29.4664 23.2643 29.3787 23.2986C29.2081 23.377 29.0319 23.4419 28.8533 23.4994C28.6771 23.5621 28.4946 23.6016 28.3144 23.6539L28.3894 23.5964C28.2259 23.9136 28.0601 24.2308 27.8792 24.5435C27.6998 24.8554 27.5045 25.1637 27.2565 25.4458C27.1314 25.5861 26.9951 25.7212 26.8253 25.8309C26.6618 25.9406 26.4514 26.0204 26.2337 26.0182C26.1253 26.0182 26.0185 25.9973 25.9197 25.963L25.883 25.951C25.8535 25.9398 25.8575 25.9398 25.8423 25.9331C25.8208 25.9227 25.8017 25.9152 25.7778 25.901C25.7251 25.8689 25.6765 25.8331 25.639 25.7928C25.4812 25.6241 25.4573 25.4062 25.4661 25.2211C25.4971 24.8435 25.6359 24.5047 25.7825 24.1763C25.8559 24.0121 25.938 23.8517 26.0209 23.6934L26.1445 23.4569C26.1819 23.3777 26.2369 23.2986 26.2369 23.2427C26.2911 22.8874 26.3462 22.5441 26.4131 22.1956C26.4753 21.8493 26.547 21.503 26.6212 21.1575C26.6236 21.1463 26.6355 21.1388 26.6483 21.1411C26.6595 21.1433 26.6674 21.153 26.6666 21.1634C26.6323 21.515 26.5973 21.865 26.5542 22.215L26.4275 23.2598C26.4187 23.3837 26.3621 23.4561 26.327 23.5375L26.2043 23.7763C26.1229 23.9345 26.0456 24.092 25.9739 24.2532C25.8344 24.5718 25.7084 24.904 25.6869 25.2316C25.6797 25.3928 25.7092 25.5518 25.808 25.651C25.832 25.6779 25.8591 25.695 25.883 25.7115C25.8989 25.7212 25.9244 25.7316 25.9444 25.7413C25.9515 25.7436 25.9739 25.7555 25.9675 25.751L25.997 25.7607C26.0751 25.7861 26.1548 25.8025 26.2345 25.8003C26.5582 25.801 26.8436 25.5592 27.0676 25.3017C27.2924 25.0361 27.4837 24.7368 27.6655 24.4338C27.8465 24.1285 28.0147 23.8158 28.1805 23.5001C28.1956 23.4725 28.2212 23.4524 28.2507 23.4442L28.257 23.4427C28.4308 23.3927 28.6094 23.3561 28.7784 23.2964C28.9498 23.2419 29.1196 23.1815 29.2806 23.1076C29.3651 23.0762 29.4425 23.033 29.5198 22.9919C29.5979 22.9516 29.6768 22.9113 29.7478 22.8613C29.8211 22.812 29.8969 22.768 29.9614 22.712C30.0276 22.6568 30.0993 22.6068 30.1575 22.5441C30.2803 22.4255 30.3935 22.2971 30.4836 22.1531C30.5801 22.0142 30.6526 21.8605 30.7235 21.706C30.8543 21.3911 30.9476 21.0575 31.0655 20.7224C31.0863 20.6649 31.1508 20.6336 31.2106 20.653C31.2585 20.6679 31.2896 20.7082 31.2904 20.753L31.2919 20.7664C31.2601 20.9298 31.378 21.1157 31.5359 21.2582C31.6937 21.4023 31.8859 21.5247 32.0883 21.6224C32.0979 21.6269 32.1019 21.6374 32.0979 21.6471C32.0931 21.6553 32.0828 21.6582 32.074 21.656Z" fill="#56B5CB"/>
<path d="M23.6341 27.2727C23.6341 27.2727 23.2004 28.1668 23.9578 28.5243C24.7151 28.8825 26.4099 28.1929 26.5486 28.0496C26.6873 27.9049 27.7349 26.1309 27.5085 25.7562C27.2813 25.3831 26.2927 26.3928 26.1492 26.5876C26.0073 26.7832 24.4193 27.0182 24.4193 27.0182L23.6341 27.2727Z" fill="white"/>
<path d="M23.721 27.3601C23.6516 27.5302 23.4403 28.1579 24.0103 28.4273C24.1339 28.4863 24.2989 28.5169 24.4974 28.5176C25.305 28.5228 26.3653 28.0676 26.4617 27.9765C26.6219 27.8101 27.5873 26.1063 27.4072 25.8107C27.3952 25.7891 27.3825 25.7831 27.3562 25.7831C27.0827 25.7816 26.3939 26.4458 26.2457 26.6496C26.091 26.8608 24.9295 27.0533 24.4376 27.1257L23.721 27.3601ZM24.4966 28.7363C24.2599 28.7348 24.0614 28.6952 23.9051 28.6221C23.2267 28.3004 23.3622 27.5698 23.528 27.228C23.5408 27.2004 23.5655 27.1802 23.595 27.1705L24.3818 26.9153C25.1216 26.8033 25.9587 26.6257 26.0551 26.5249C26.1572 26.3831 26.9225 25.563 27.3578 25.5652C27.467 25.5659 27.5563 25.6152 27.6097 25.7025C27.8863 26.16 26.7439 28.0094 26.6347 28.1221C26.488 28.275 25.3448 28.7415 24.4966 28.7363Z" fill="#56B5CB"/>
<path d="M22.4104 26.2512C22.4104 26.2512 24.6856 25.618 24.9662 26.3206C25.3966 27.3989 22.2143 27.708 22.0365 27.6453C21.8579 27.5826 21.1388 27.2085 21.5239 26.4655C21.9097 25.7225 22.4104 26.2512 22.4104 26.2512Z" fill="white"/>
<path d="M22.1178 27.7571C22.0564 27.7571 22.0142 27.7526 21.9951 27.7467C21.9751 27.7392 21.5263 27.5758 21.3573 27.1772C21.2585 26.9444 21.2784 26.6884 21.4195 26.4175C21.4482 26.3637 21.5175 26.3414 21.5749 26.3675C21.6331 26.3936 21.657 26.4585 21.6284 26.513C21.5183 26.7272 21.4992 26.9227 21.5733 27.0959C21.6834 27.3548 21.9743 27.5056 22.078 27.5422C22.2573 27.5758 24.2384 27.3743 24.7669 26.7936C24.8913 26.6585 24.9192 26.516 24.857 26.3585C24.6792 25.9175 23.2825 26.1227 22.4439 26.3563C22.3809 26.3727 22.3163 26.3406 22.2996 26.2831C22.2797 26.2249 22.3155 26.1637 22.3769 26.1473C22.6209 26.0787 24.7645 25.5077 25.0754 26.2824C25.1767 26.5376 25.1129 26.7832 24.8889 26.9921C24.2838 27.5549 22.6041 27.7601 22.1178 27.7571Z" fill="#56B5CB"/>
<path d="M19.6903 23.6442C19.6903 23.6442 19.5995 25.0719 22.4223 26.0989C23.3646 26.1787 24.2838 25.763 23.8533 25.204C23.4212 24.6458 21.9129 24.7264 21.8723 24.5532C21.83 24.3794 20.8343 21.2605 20.12 21.5202C19.4073 21.78 19.6903 23.6442 19.6903 23.6442Z" fill="white"/>
<path d="M22.4495 25.9914C23.0697 26.0414 23.67 25.8615 23.8143 25.5988C23.8701 25.4965 23.8517 25.3891 23.7593 25.2682C23.5145 24.9517 22.8242 24.8562 22.3674 24.7935C21.9831 24.7405 21.7902 24.7137 21.7575 24.5763C21.6467 24.1121 20.7475 21.6172 20.2078 21.6135C20.1934 21.6135 20.1783 21.6172 20.1639 21.6224C19.6489 21.8098 19.7302 23.1345 19.8068 23.6285C19.8068 23.6636 19.7693 25.0114 22.4495 25.9914ZM22.6392 26.2175C22.5643 26.2175 22.4877 26.2138 22.412 26.2078C22.4008 26.2063 22.3905 26.2048 22.3801 26.2003C19.511 25.1577 19.57 23.6994 19.5748 23.6375C19.5453 23.4599 19.3022 21.7023 20.0786 21.4187C20.1201 21.403 20.1647 21.3956 20.2102 21.3956C21.005 21.4008 21.8819 24.1883 21.9767 24.501C22.0405 24.5286 22.239 24.5547 22.4016 24.5771C22.927 24.6495 23.6453 24.7495 23.9474 25.1406C24.1316 25.3786 24.0893 25.5757 24.0215 25.6981C23.8485 26.013 23.2929 26.2212 22.6392 26.2175Z" fill="#56B5CB"/>
<path d="M21.9002 26.7832C21.1739 26.778 20.2476 26.5787 19.8849 26.4429C19.4225 26.2697 19.271 25.7675 19.1244 25.2816L19.0885 25.1614C19.004 24.9659 18.8724 24.7771 18.7321 24.5771C18.4707 24.2017 18.1741 23.7748 18.1231 23.1449C18.0992 22.8546 18.0864 22.4165 18.0729 21.9075C18.0434 20.8873 18.0035 19.488 17.8401 19.1671C17.6424 18.782 14.1331 14.1631 12.3044 11.7741C12.2773 11.7383 12.2765 11.692 12.2996 11.6532C12.3865 11.5204 14.444 8.39332 16.3844 8.40451C16.4673 8.406 16.5502 8.41123 16.6331 8.42391C16.6706 8.42914 16.7009 8.45153 16.7184 8.48213C16.7559 8.55228 20.4668 15.4803 20.7634 15.993C21.0352 16.4632 21.8723 16.7602 22.5451 16.9983L22.6089 17.0222C22.9278 17.1356 23.4483 17.1476 23.9123 17.1505L24.2113 17.152C24.743 17.155 25.0411 17.1752 25.1902 17.2752C25.5298 17.502 26.5821 19.1014 26.5462 19.8305C26.5151 19.9828 26.4888 20.1238 26.4641 20.2627C26.3469 20.9052 26.2871 21.1888 26.0831 21.1881C26.056 21.1881 26.032 21.1821 26.0105 21.1709L26.1197 21.4702C26.1325 21.5486 26.3047 22.8852 25.5003 22.9964C25.4836 22.9979 25.466 22.9994 25.4493 22.9994C25.1934 22.9971 25.0005 22.7121 24.8626 22.3926C24.8634 22.409 24.865 22.4217 24.8673 22.4307C24.8729 22.4717 24.8833 22.524 24.8944 22.5844C24.9797 23.0188 25.1559 23.9218 24.4416 24.1644C24.4082 24.1763 24.3723 24.1823 24.3388 24.1823C24.2025 24.1815 24.1044 24.0965 24.0223 23.9539C24.0542 24.2487 24.0143 24.4957 23.9011 24.6756C23.8876 24.6965 23.8661 24.7137 23.8406 24.7219C23.5815 24.8107 23.3136 24.854 23.0442 24.8532C22.357 24.8487 21.7966 24.5532 21.4617 24.3763C21.3796 24.3323 21.3103 24.2957 21.2569 24.2733C21.2082 24.2517 21.1811 24.2032 21.1899 24.1539C21.1987 24.1047 21.2433 24.0674 21.2967 24.0644C21.4067 24.0569 21.508 24.0248 21.5016 23.8315C21.4825 23.2375 20.5681 22.1225 20.3441 22.1217C20.2819 22.1277 20.1679 22.2105 20.0579 22.4255C19.8681 22.7949 19.7812 23.3673 19.9726 23.6494C20.0658 23.7867 20.1456 23.9159 20.2205 24.036C20.4031 24.3323 20.5489 24.5666 20.7921 24.7562C20.8638 24.8114 21.0089 24.8831 21.1787 24.9659C21.8069 25.2741 22.8584 25.7913 22.4574 26.6824C22.4423 26.716 22.4104 26.7399 22.3729 26.7474C22.2422 26.772 22.0835 26.7847 21.9002 26.7832Z" fill="white"/>
<path d="M25.2571 17.1857C25.0818 17.0693 24.7804 17.0469 24.212 17.0431L24.0653 17.0424L23.9131 17.0416C23.4603 17.0394 22.9509 17.0275 22.6503 16.92L22.5858 16.8976C21.9313 16.6648 21.1173 16.3759 20.8662 15.9423C20.6079 15.4953 17.113 9.07402 16.3621 7.67468L16.2162 7.89634C16.8659 9.10909 20.3935 15.5811 20.6613 16.0453C20.9627 16.567 21.8571 16.8707 22.5674 17.1245C22.9038 17.2431 23.4236 17.2573 23.9115 17.2596C24.0135 17.2603 24.1132 17.2603 24.2104 17.2618C24.6306 17.264 24.9885 17.2745 25.1216 17.364C25.4341 17.5723 26.4633 19.1447 26.4298 19.8261C26.311 20.3933 26.2337 21.0799 26.0846 21.0784C26.0512 21.0784 26.0161 21.0463 25.9762 20.974C25.8877 20.8113 25.7777 20.4366 25.6095 20.053C25.356 19.4731 25.0435 18.8619 25.0435 18.8619L26.0097 21.5053C26.0097 21.5053 26.1843 22.792 25.4836 22.8875C25.4732 22.8897 25.4612 22.8897 25.4501 22.8897C24.9965 22.8875 24.7286 21.5479 24.7286 21.5479L23.4292 19.4537C23.4292 19.4537 24.1395 20.7739 24.574 21.6658C24.739 22.0046 24.7374 22.3546 24.7509 22.4457C24.7988 22.7741 25.1152 23.8196 24.4026 24.0622C24.3802 24.0697 24.3603 24.0734 24.3396 24.0734C24.0247 24.0711 23.925 23.1696 23.5791 22.5046C23.2315 21.833 22.7484 21.3255 22.4423 21.1464C22.8345 21.6173 23.076 22.0083 23.3917 22.5651C23.8613 23.3913 24.0614 24.2092 23.8007 24.6197C23.536 24.7107 23.2825 24.7458 23.0449 24.7436C22.2174 24.7383 21.5789 24.2891 21.3047 24.1734C22.2605 24.1137 20.7681 22.0151 20.3456 22.0128C20.3409 22.0121 20.3361 22.0128 20.3329 22.0128C19.9279 22.0546 19.5461 23.2241 19.8745 23.7069C20.2021 24.1898 20.3568 24.5592 20.7179 24.8406C21.0799 25.1205 22.8122 25.613 22.3506 26.6407C22.2206 26.6653 22.0676 26.675 21.9002 26.6735C21.2066 26.6698 20.285 26.4758 19.9279 26.3414C19.4847 26.175 19.3611 25.6541 19.1993 25.1309C18.937 24.5159 18.3144 24.0637 18.2394 23.1368C18.1637 22.2084 18.1996 19.6157 17.9445 19.1194C17.699 18.6417 12.5555 11.8846 12.2238 11.4495L12.0397 11.6869C14.1586 14.4579 17.5602 18.8746 17.734 19.2142C17.8887 19.5142 17.9301 20.9553 17.9564 21.9098C17.9708 22.4196 17.9836 22.8599 18.0075 23.1524C18.0609 23.8114 18.3662 24.2495 18.6357 24.6369C18.7688 24.8287 18.8963 25.0108 18.9792 25.2018L19.0119 25.3115C19.1666 25.8227 19.326 26.3504 19.8418 26.5437C20.2133 26.6832 21.1596 26.8877 21.8994 26.8922C22.0899 26.893 22.2581 26.8803 22.396 26.8549C22.4718 26.84 22.5347 26.7922 22.565 26.725C23.0075 25.7414 21.8523 25.1742 21.2321 24.869C21.0759 24.7921 20.9284 24.7197 20.867 24.6719C20.6398 24.4958 20.4987 24.2689 20.3201 23.9808C20.2476 23.8637 20.1655 23.7301 20.0714 23.5913C19.9407 23.3987 19.959 22.9539 20.1137 22.58C20.2021 22.3673 20.2986 22.2643 20.3456 22.2367C20.6167 22.3599 21.4386 23.442 21.3828 23.8846C21.3772 23.9316 21.3748 23.951 21.2887 23.9562C21.1819 23.9622 21.0942 24.0361 21.0751 24.1346C21.0559 24.2338 21.1117 24.3316 21.209 24.3719C21.256 24.3921 21.3254 24.4286 21.4059 24.4712C21.7503 24.6533 22.3267 24.957 23.0441 24.9615C23.3271 24.9637 23.6078 24.9167 23.8804 24.8242C23.9306 24.807 23.9737 24.7742 24.0008 24.7309C24.0853 24.5988 24.1331 24.4339 24.1443 24.2435C24.2009 24.2741 24.2646 24.2913 24.3388 24.2913C24.3866 24.2913 24.4336 24.2838 24.4815 24.2674C25.1081 24.054 25.1344 23.4248 25.073 22.9375C25.1806 23.042 25.3058 23.1069 25.4493 23.1077C25.4716 23.1077 25.4947 23.1069 25.517 23.1039C26.4187 22.98 26.2608 21.6307 26.2401 21.4777C26.2377 21.4635 26.2345 21.4486 26.2297 21.4352L26.1755 21.2852C26.4075 21.221 26.4689 20.8851 26.5789 20.2806C26.6036 20.1433 26.6299 20.0015 26.6586 19.8679C26.661 19.8567 26.6618 19.8463 26.6618 19.8358C26.7009 19.0597 25.6199 17.429 25.2571 17.1857Z" fill="#56B5CB"/>
<path d="M23.2634 25.1809C23.1175 25.1712 22.9812 25.1906 22.8664 25.2317C22.8226 25.4542 22.7572 25.6589 22.6791 25.8359C22.7963 25.9412 22.9828 26.0182 23.1988 26.0316C23.5767 26.057 23.8972 25.8882 23.9155 25.6529C23.9339 25.4169 23.6421 25.2063 23.2634 25.1809Z" fill="white"/>
<path d="M22.73 25.8255C22.8472 25.9189 23.0162 25.9786 23.202 25.9913C23.5567 26.0137 23.8565 25.8569 23.8724 25.6492C23.8804 25.5506 23.8222 25.4505 23.7114 25.3706C23.595 25.2862 23.4348 25.2332 23.2602 25.222C23.135 25.2138 23.0123 25.2279 22.9038 25.2616C22.8632 25.4655 22.8042 25.6544 22.73 25.8255ZM23.2666 26.0757C23.2658 26.0757 23.2658 26.0757 23.2658 26.0757C23.2426 26.0757 23.2187 26.0742 23.1948 26.072C22.9788 26.0585 22.7803 25.9831 22.6479 25.8658C22.6344 25.8539 22.6312 25.836 22.6384 25.8195C22.7173 25.6417 22.7803 25.4416 22.8233 25.2242C22.8257 25.2108 22.8369 25.1988 22.8504 25.1936C22.9756 25.1488 23.1191 25.1294 23.2666 25.1406C23.4579 25.1533 23.6349 25.2115 23.7648 25.3056C23.8995 25.4035 23.9689 25.5282 23.9585 25.6559C23.941 25.8965 23.6428 26.0772 23.2666 26.0757Z" fill="#56B5CB"/>
<path d="M24.2575 26.4161C24.1307 26.4586 24.0223 26.5236 23.9418 26.5983C23.9928 26.8015 24.0199 26.9979 24.0239 27.1757C24.1658 27.2235 24.3531 27.2235 24.5421 27.16C24.8729 27.0487 25.0762 26.7933 24.9981 26.5878C24.9191 26.3824 24.5883 26.3055 24.2575 26.4161Z" fill="white"/>
<path d="M24.0669 27.1458C24.1204 27.1608 24.1786 27.1682 24.2407 27.1682H24.2415C24.334 27.169 24.4329 27.1533 24.5269 27.1212C24.8338 27.0181 25.0276 26.7851 24.9566 26.6013C24.9112 26.4826 24.7613 26.4079 24.5636 26.4064C24.4695 26.4064 24.3691 26.4228 24.2726 26.4557C24.165 26.4923 24.0677 26.5453 23.9904 26.6125C24.0359 26.7978 24.0614 26.9763 24.0669 27.1458ZM24.2407 27.2504C24.157 27.2504 24.0797 27.2377 24.0088 27.2138C23.992 27.2086 23.9808 27.1929 23.9808 27.1765C23.9769 26.9979 23.9498 26.806 23.8995 26.608C23.8963 26.5938 23.9011 26.5789 23.9115 26.5699C24 26.4878 24.1148 26.4213 24.2431 26.378C24.3492 26.3429 24.46 26.325 24.5644 26.325C24.7988 26.3272 24.9821 26.4213 25.0395 26.5737C25.1264 26.8 24.9088 27.0801 24.5564 27.1981C24.4512 27.2332 24.3452 27.2511 24.2407 27.2504Z" fill="#56B5CB"/>
<path d="M26.8643 25.4322C26.9623 25.2918 27.0197 25.1432 27.0412 25.0035C26.8116 24.8273 26.6163 24.6436 26.4609 24.4584C26.2696 24.5144 26.0734 24.6563 25.93 24.8647C25.6764 25.2291 25.6812 25.6532 25.9387 25.8093C26.1978 25.9661 26.6116 25.7973 26.8643 25.4322Z" fill="white"/>
<path d="M26.4474 24.5033C26.264 24.5637 26.0895 24.7019 25.9627 24.8848C25.8447 25.0558 25.7809 25.2433 25.7833 25.4143C25.7841 25.5793 25.8479 25.7092 25.9619 25.7772C26.0185 25.8123 26.0847 25.8294 26.158 25.8309C26.39 25.8317 26.6539 25.6674 26.8316 25.412C26.9169 25.2873 26.9743 25.1522 26.9983 25.0192C26.7862 24.8542 26.6005 24.681 26.4474 24.5033ZM26.1572 25.9049C26.0687 25.9049 25.9882 25.8832 25.9173 25.8399C25.7809 25.7585 25.7052 25.6069 25.7028 25.4158C25.7004 25.2291 25.7698 25.0267 25.8957 24.8438C26.0376 24.6384 26.2401 24.4846 26.4482 24.4234C26.4641 24.4181 26.4825 24.4234 26.4928 24.4346C26.6491 24.6212 26.8428 24.8034 27.0668 24.9744C27.078 24.9834 27.0828 24.9961 27.0812 25.0088C27.0573 25.1596 26.9951 25.3135 26.8986 25.4523C26.7065 25.7294 26.4163 25.9071 26.1572 25.9049Z" fill="#56B5CB"/>
<path d="M27.5379 25.9504C27.5203 25.9355 27.5004 25.9228 27.4789 25.9116C27.2915 25.8279 27.0293 25.9736 26.893 26.2388C26.8403 26.3403 26.814 26.4442 26.8132 26.5405C26.9759 26.6354 27.1162 26.7392 27.2349 26.846C27.3936 26.5069 27.5211 26.1715 27.5379 25.9504Z" fill="white"/>
<path d="M26.8571 26.5181C26.9894 26.5965 27.1106 26.6839 27.219 26.7757C27.3793 26.4277 27.4733 26.1491 27.4925 25.9676C27.4813 25.9601 27.471 25.9534 27.4598 25.9489C27.4311 25.9362 27.4 25.9287 27.3657 25.9287C27.2095 25.928 27.0317 26.0632 26.9321 26.2559C26.8882 26.3418 26.8635 26.4314 26.8571 26.5181ZM27.2334 26.8863C27.2238 26.8863 27.2119 26.8818 27.2039 26.8743C27.0835 26.7668 26.944 26.6659 26.7902 26.5741C26.7766 26.5666 26.7686 26.5532 26.7702 26.539C26.771 26.4351 26.8005 26.3253 26.8531 26.2208C26.9687 25.9959 27.1744 25.8458 27.3665 25.8466C27.4136 25.8481 27.4574 25.8563 27.4989 25.8757C27.5212 25.8861 27.5443 25.9003 27.5666 25.919C27.577 25.928 27.5826 25.9399 27.5818 25.9526C27.5666 26.155 27.463 26.4605 27.2748 26.8616C27.2693 26.8743 27.2565 26.8833 27.243 26.8863C27.2406 26.8863 27.2374 26.8863 27.2334 26.8863Z" fill="#56B5CB"/>
<path d="M21.9017 26.7161C21.5119 26.7139 21.0934 26.654 20.8112 26.6024C20.7976 26.6009 20.7864 26.5935 20.7809 26.5815C20.7737 26.571 20.7737 26.5583 20.7793 26.5463C20.8638 26.3661 20.926 26.2068 20.977 26.046C20.9818 26.0325 20.9929 26.0213 21.0081 26.0183C21.1093 25.9929 21.2161 25.9802 21.3277 25.9809C21.4051 25.9809 21.4832 25.9884 21.5605 26.0011C22.007 26.0752 22.3569 26.3407 22.3944 26.6323C22.3888 26.6451 22.3729 26.6795 22.3585 26.6817C22.2334 26.7064 22.0803 26.7176 21.9017 26.7161Z" fill="white"/>
<path d="M21.3286 25.9406C21.213 25.9398 21.1014 25.9525 20.997 25.9779C20.9675 25.9854 20.9444 26.0063 20.9356 26.0339C20.8854 26.193 20.8232 26.3506 20.7387 26.5292C20.7283 26.5516 20.7299 26.5785 20.7419 26.6001C20.7538 26.6218 20.7762 26.6382 20.8025 26.6427C21.0863 26.6935 21.5072 26.754 21.9018 26.7562C22.082 26.7577 22.239 26.7458 22.3674 26.7211C22.396 26.7159 22.42 26.698 22.4311 26.6733C22.4327 26.6688 22.4343 26.6629 22.4359 26.6591C22.4415 26.6464 22.4407 26.6412 22.4383 26.6278C22.3984 26.3133 22.0405 26.0384 21.5686 25.9608C21.488 25.9481 21.4067 25.9406 21.3286 25.9406ZM21.3278 26.0213C21.4012 26.0227 21.4761 26.0287 21.5526 26.0414C21.9903 26.1139 22.3179 26.3663 22.3514 26.6367C22.3514 26.6382 22.3506 26.639 22.3506 26.6412C22.2207 26.6659 22.0684 26.6756 21.9018 26.6741C21.5654 26.6718 21.1732 26.6255 20.8192 26.5613C20.8933 26.4052 20.9627 26.2386 21.0193 26.0579C21.1142 26.0339 21.2186 26.0213 21.3278 26.0213Z" fill="#56B5CB"/>
<path d="M23.8676 22.296C23.8676 22.296 23.8883 22.2712 23.9202 22.236C23.9521 22.2014 23.9976 22.1586 24.043 22.1181C24.0892 22.0775 24.1371 22.0377 24.1785 22.0122C24.2192 21.9859 24.2495 21.9724 24.2495 21.9724C24.2559 21.9702 24.2622 21.9724 24.2654 21.9777C24.267 21.9807 24.267 21.9844 24.2654 21.9874C24.2654 21.9874 24.2511 22.0175 24.2224 22.055C24.1945 22.0933 24.149 22.1376 24.0988 22.1766C24.0486 22.2164 23.9928 22.251 23.9473 22.2712C23.9019 22.29 23.87 22.299 23.87 22.299C23.8692 22.2998 23.8676 22.299 23.8668 22.2975C23.8668 22.2968 23.8668 22.2968 23.8676 22.296Z" fill="#56B5CB"/>
<path d="M25.0124 21.4843C25.0124 21.4843 25.0307 21.4633 25.0618 21.4348C25.0921 21.4085 25.1352 21.3785 25.1774 21.3492C25.2205 21.3214 25.2611 21.2936 25.2946 21.2734C25.3265 21.2539 25.3512 21.2396 25.3512 21.2396C25.3568 21.2358 25.364 21.2381 25.3671 21.2433C25.3695 21.2456 25.3695 21.2486 25.3695 21.2524C25.3687 21.2509 25.364 21.2801 25.3384 21.3154C25.3161 21.3515 25.2715 21.3882 25.2237 21.416C25.175 21.4423 25.124 21.4633 25.0833 21.4738C25.0435 21.4821 25.0148 21.4873 25.0148 21.4873C25.0124 21.4873 25.0116 21.4866 25.0116 21.4851C25.0116 21.4851 25.0116 21.4843 25.0124 21.4843Z" fill="#56B5CB"/>
<path d="M22.7778 23.1901C22.7834 23.1931 22.9014 23.116 23.0066 23.0246C23.0601 22.9797 23.1135 22.9333 23.1565 22.9018C23.2004 22.8696 23.2338 22.8502 23.2338 22.8502C23.2394 22.8472 23.2458 22.8479 23.2498 22.8539C23.2522 22.8569 23.2522 22.8614 23.2506 22.8644C23.2506 22.8644 23.2346 22.8973 23.2028 22.9423C23.1709 22.9872 23.1198 23.0396 23.0609 23.0853C23.0003 23.1302 22.9333 23.1677 22.8759 23.1827C22.8177 23.1976 22.7786 23.1931 22.7786 23.1931H22.777C22.7755 23.1931 22.7747 23.1924 22.7747 23.1909C22.7747 23.1901 22.7755 23.1886 22.777 23.1901C22.7778 23.1901 22.7778 23.1901 22.7778 23.1901Z" fill="#56B5CB"/>
<path d="M26.0671 27.7283C26.0368 27.7155 26.0185 27.6983 25.997 27.7058L26.0137 27.6691C26.087 27.7095 26.1429 27.7679 26.1947 27.8211C26.2449 27.878 26.2927 27.9305 26.3445 27.9881C26.3493 27.9926 26.3493 27.9986 26.3445 28.0031C26.3414 28.0061 26.3382 28.0061 26.3342 28.0061C26.2497 27.9866 26.1835 27.9305 26.1301 27.875C26.0775 27.8174 26.0336 27.7575 25.9842 27.7006L25.981 27.6968C25.973 27.6878 25.9738 27.6751 25.9834 27.6676C25.989 27.6646 25.9962 27.6624 26.0017 27.6631C26.0424 27.6706 26.0536 27.7095 26.0695 27.7253C26.0695 27.7268 26.0695 27.7275 26.0695 27.7283C26.0687 27.7283 26.0671 27.7283 26.0671 27.7283Z" fill="#56B5CB"/>
<path d="M26.311 27.7646C26.311 27.7646 26.3253 27.7676 26.3469 27.7744C26.3676 27.7819 26.3891 27.7969 26.4083 27.8128C26.4258 27.8308 26.4401 27.8504 26.4457 27.8707C26.4529 27.8888 26.4513 27.9061 26.4513 27.9061C26.4513 27.9136 26.4449 27.9204 26.4369 27.9204C26.4354 27.9204 26.4354 27.9204 26.4346 27.9204C26.4346 27.9204 26.4178 27.9181 26.3979 27.9091C26.3788 27.9008 26.3596 27.885 26.3437 27.8654C26.3285 27.8451 26.3174 27.8225 26.3118 27.803C26.307 27.7826 26.307 27.7668 26.307 27.7668C26.307 27.7653 26.3086 27.7646 26.3094 27.7646C26.3094 27.7646 26.3094 27.7646 26.311 27.7646Z" fill="#56B5CB"/>
<path d="M20.5952 22.2778C20.5952 22.2778 21.4745 23.2614 21.5742 23.2696C22.019 23.3039 23.3009 23.7286 23.0235 24.4473C22.8529 24.8809 20.6024 24.4473 20.6024 24.4473L20.5952 22.2778Z" fill="white"/>
<path d="M22.2469 24.7488C21.6411 24.7458 20.8981 24.6159 20.5784 24.5547C20.5162 24.5421 20.4748 24.4846 20.4883 24.4264C20.5011 24.3667 20.5624 24.3294 20.6262 24.3413C21.665 24.5413 22.8321 24.6167 22.9134 24.4107C22.97 24.2659 22.9532 24.1308 22.8608 23.9973C22.6144 23.6368 21.8858 23.4024 21.5653 23.3778C21.5127 23.3741 21.4162 23.3666 20.5058 22.3479C20.4644 22.3024 20.4716 22.233 20.5202 22.1949C20.5696 22.1568 20.643 22.1621 20.6844 22.2083C21.0607 22.6293 21.4976 23.0897 21.606 23.1621C21.9663 23.1972 22.7571 23.442 23.0577 23.8801C23.1868 24.0689 23.2123 24.2771 23.1326 24.4846C23.0529 24.6883 22.6854 24.7518 22.2469 24.7488Z" fill="#56B5CB"/>
<path d="M22.302 23.9211C22.1561 23.9114 22.0198 23.9264 21.905 23.9593C21.8643 24.1463 21.8029 24.3175 21.7256 24.4656C21.8444 24.5561 22.0309 24.6227 22.247 24.6361C22.6256 24.6623 22.9437 24.5224 22.9596 24.325C22.9748 24.1268 22.6798 23.9466 22.302 23.9211Z" fill="white"/>
<path d="M21.775 24.4537C21.8946 24.5336 22.0652 24.5867 22.2493 24.5986C22.6041 24.6218 22.9062 24.4925 22.9198 24.3215C22.9325 24.1475 22.6479 23.9816 22.298 23.9585C22.1712 23.9495 22.0468 23.96 21.9392 23.9891C21.9002 24.1564 21.8459 24.3125 21.775 24.4537ZM22.3275 24.6763C22.2995 24.6763 22.2716 24.6748 22.2437 24.6726C22.0301 24.6591 21.8308 24.5941 21.7001 24.4948C21.6857 24.4836 21.6809 24.4642 21.6889 24.4492C21.7662 24.2998 21.8268 24.1325 21.8659 23.9518C21.8683 23.9376 21.8802 23.9271 21.8938 23.9234C22.015 23.8875 22.1584 23.8741 22.3035 23.8838C22.7109 23.9114 23.0162 24.1049 22.9995 24.3267C22.9835 24.5277 22.695 24.6778 22.3275 24.6763Z" fill="#56B5CB"/>
<path d="M19.9773 14.178C20.069 14.2519 21.1571 16.2378 21.1571 16.2378L17.7842 19.3141L16.3564 17.305L19.9773 14.178Z" fill="#56B5CB"/>
<path d="M16.5462 17.3267L17.8082 19.1022L20.9786 16.211C20.6398 15.593 20.1463 14.7109 19.9486 14.387L16.5462 17.3267ZM17.7595 19.5261L16.1667 17.2842L19.9749 13.9944L20.0722 14.0743C20.1479 14.1348 20.5553 14.843 21.2863 16.1759L21.3366 16.2655L17.7595 19.5261Z" fill="white"/>
<path d="M21.4935 23.3069C21.4864 23.3062 21.4146 23.3767 21.3516 23.4571C21.3174 23.4953 21.2783 23.5359 21.24 23.5584C21.201 23.5817 21.1683 23.5854 21.1691 23.5862L21.1603 23.5877C21.1547 23.5884 21.1492 23.5839 21.1492 23.5787C21.1476 23.5734 21.1515 23.5689 21.1571 23.5682C21.1627 23.5682 21.2113 23.4826 21.2879 23.4045C21.3261 23.3647 21.374 23.3294 21.4186 23.3144C21.464 23.3002 21.492 23.3039 21.492 23.3039H21.4943C21.4959 23.3039 21.4959 23.3047 21.4959 23.3062C21.4959 23.3062 21.4943 23.3069 21.4935 23.3069Z" fill="#56B5CB"/>
<path d="M21.5183 23.3413C21.5183 23.3413 21.5159 23.3578 21.5215 23.3743C21.5239 23.3916 21.5295 23.4119 21.5311 23.4375C21.5311 23.4622 21.5263 23.4923 21.5104 23.5111C21.4944 23.5314 21.4753 23.5381 21.4761 23.5381L21.4721 23.5404C21.4665 23.5426 21.4593 23.5389 21.4585 23.5336C21.4569 23.5314 21.4569 23.5299 21.4569 23.5284C21.4585 23.5231 21.4386 23.481 21.4458 23.4329C21.4506 23.4074 21.4593 23.3773 21.4785 23.3578C21.4992 23.339 21.5151 23.3375 21.5151 23.3375C21.5159 23.3375 21.5183 23.3375 21.5183 23.339C21.5183 23.339 21.5183 23.3398 21.5183 23.3413Z" fill="#56B5CB"/>
<path d="M26.1819 23.333C26.1819 23.333 26.1046 23.3532 25.9842 23.3749C25.8654 23.3937 25.7028 23.4079 25.5386 23.3982C25.3752 23.3877 25.2117 23.3495 25.1025 23.2932C25.0459 23.27 25.0045 23.2393 24.975 23.2198C24.9471 23.1996 24.9311 23.1868 24.9311 23.1868C24.9263 23.1838 24.9247 23.1771 24.9295 23.1726C24.9327 23.1688 24.9391 23.1673 24.9431 23.1696C24.9431 23.1696 25.0148 23.2048 25.1264 23.2393C25.2364 23.2753 25.3887 23.3067 25.5458 23.318C25.7012 23.333 25.8606 23.3322 25.981 23.3307C26.1014 23.33 26.1819 23.33 26.1819 23.33C26.1835 23.33 26.1835 23.33 26.1843 23.3307C26.1843 23.3322 26.1835 23.333 26.1819 23.333Z" fill="#56B5CB"/>
<path d="M27.0173 23.8816C27.0173 23.8816 27.0437 23.8966 27.0811 23.9199C27.1178 23.9424 27.1632 23.9739 27.2095 23.9995C27.2565 24.0257 27.3043 24.0483 27.3418 24.0678C27.3793 24.0858 27.4064 24.1008 27.4064 24.1008C27.412 24.1038 27.4136 24.1106 27.4096 24.1158C27.4088 24.1188 27.4056 24.1211 27.4032 24.1211C27.4032 24.1203 27.3713 24.1286 27.3235 24.1248C27.2772 24.1211 27.2159 24.1001 27.164 24.067C27.1122 24.0317 27.0708 23.9874 27.0476 23.9499C27.0245 23.9116 27.0142 23.8846 27.0142 23.8846C27.0142 23.8838 27.0142 23.8816 27.0158 23.8816C27.0166 23.8816 27.0173 23.8816 27.0173 23.8816Z" fill="#56B5CB"/>
</svg>
