<svg width="343" height="85" viewBox="0 0 343 85" fill="none" xmlns="http://www.w3.org/2000/svg">
<path d="M42.2633 0C18.9664 0 0 18.9664 0 42.2633C0 65.5624 18.9664 84.5265 42.2633 84.5265C65.5602 84.5265 84.5265 65.5624 84.5265 42.2633C84.5265 18.9664 65.5602 0 42.2633 0ZM42.2633 7.3516C61.589 7.3516 77.1772 22.9398 77.1772 42.2633C77.1772 61.589 61.589 77.1772 42.2633 77.1772C22.9375 77.1772 7.34935 61.589 7.34935 42.2633C7.34935 22.9398 22.9375 7.3516 42.2633 7.3516Z" fill="#56B5CB"/>
<path d="M80.8652 12.4391L80.7102 12.4279C80.3823 12.4256 80.0679 12.5514 79.823 12.785C68.3587 23.8494 54.4776 35.7832 52.0406 35.7697C50.3942 35.7495 48.6849 35.4822 46.8745 35.1969L46.8498 35.1902C45.976 33.4539 44.653 31.4099 43.8175 30.8147C43.1122 30.3116 42.1711 30.2217 40.3292 30.2105L39.4869 30.206C38.6244 30.1993 37.0207 30.1903 36.2592 29.9028L36.0751 29.8309C35.2013 29.503 34.0648 29.0695 33.1551 28.5663L28.3641 20.7138L28.3439 20.7296C25.4149 14.9166 21.5291 7.17639 20.5677 5.26044L20.3476 4.82019C20.1163 4.36198 19.6783 4.04078 19.1729 3.95768C18.8809 3.91051 18.5799 3.88805 18.2789 3.88355C12.2054 3.84537 6.32724 13.2073 5.67586 14.2742C5.34343 14.82 5.36814 15.5118 5.741 16.0374C8.87885 20.4151 13.3329 26.6683 16.7021 31.4751L21.4325 39.2579C21.6279 40.9807 21.7043 43.8535 21.7559 45.8526C21.7986 47.3889 21.8346 48.7142 21.8997 49.6149C22.0704 51.834 23.0407 53.3232 23.8224 54.5249C24.1615 55.046 24.485 55.5402 24.6871 56.0208L24.768 56.2949C25.2419 57.9705 25.7765 59.8707 27.6588 60.6232C28.3506 60.9017 29.7095 61.2723 31.2526 61.5104C31.2908 61.6789 31.338 61.8428 31.4031 62.0001C32.0208 63.5566 33.5684 64.1833 33.7413 64.2484C33.9098 64.3113 34.1052 64.3405 34.4174 64.3428C34.9812 64.3473 35.9762 64.2597 37.1015 64.0687C37.2408 65.2974 37.9101 66.2789 39.0355 66.845C39.606 67.1325 40.3068 67.2807 41.1199 67.2897C43.6782 67.3054 47.2046 65.8499 47.8515 65.1289C48.2177 64.7224 50.2863 61.16 50.8232 58.8218C54.4619 56.077 57.5301 52.7684 59.5157 49.4509C68.1925 45.1787 90.874 34.0716 90.9975 34.011C91.4984 33.7639 91.7792 33.2293 91.6961 32.6768C91.3951 30.7002 88.5223 13.3263 80.8652 12.4391Z" fill="white"/>
<path d="M80.7081 13.6992C80.7081 13.6992 56.4791 37.0859 52.0272 37.041C47.5776 36.9961 42.8361 35.2149 37.7755 36.019C32.7172 36.8231 32.2702 48.7861 32.5038 49.3498C32.7352 49.9159 34.5411 60.12 38.1641 62.1618C41.7894 64.2035 53.604 57.1664 58.6129 48.4783C66.9977 44.3499 90.4384 32.8677 90.4384 32.8677C90.4384 32.8677 87.6419 14.5033 80.7081 13.6992Z" fill="white"/>
<path d="M90.6069 32.4364C84.0864 35.6327 65.0481 44.9452 58.4647 48.1863C58.4086 48.211 58.3592 48.2605 58.3277 48.3144C54.0758 55.6929 44.3904 62.2202 39.7365 62.1887C39.1637 62.1842 38.6898 62.0787 38.3281 61.8743C35.3812 60.2166 33.6202 52.6359 33.0407 50.1427C32.9082 49.5699 32.8498 49.3341 32.8116 49.2443C32.6903 48.7658 32.8565 41.8814 35.224 38.2764C35.9629 37.1511 36.8412 36.4997 37.8272 36.3425C38.7302 36.1987 39.6601 36.1358 40.6664 36.1403C42.6991 36.1538 44.6937 36.4682 46.6253 36.776C48.4964 37.0702 50.2596 37.351 52.0318 37.3689C56.1018 37.3937 77.6422 17.0235 82.3299 12.5536L82.0604 11.8012C74.9603 18.6137 55.4976 36.7333 52.0318 36.7108C50.318 36.6951 48.5727 36.4188 46.7287 36.1291C44.7723 35.8169 42.7508 35.4979 40.6708 35.4844C39.6286 35.4777 38.6628 35.5451 37.7262 35.6956C36.392 35.9067 35.2599 36.8321 34.357 38.4471C32.2389 42.2273 31.9446 48.8557 32.2007 49.4734C32.2254 49.5452 32.313 49.9091 32.4028 50.2932C33.0587 53.1256 34.8084 60.6479 38.0047 62.447C38.4651 62.7076 39.0491 62.8424 39.7342 62.8446C44.6375 62.8761 54.3925 56.378 58.8466 48.7299C65.9286 45.2439 85.5059 35.8214 91.0135 33.1215L90.6069 32.4364Z" fill="#56B5CB"/>
<path d="M62.4941 44.9878C62.4941 44.9878 59.8302 43.9052 59.9425 42.3351C58.8307 45.4101 58.7161 48.9657 51.8003 50.7334C49.6328 55.1673 47.7056 58.6937 45.136 57.656C42.4272 56.5622 46.2478 50.4998 46.286 49.9518C46.3242 49.406 47.1755 43.5458 47.1755 43.5458L62.4941 44.9878Z" fill="white"/>
<path d="M62.4762 45.0373C61.854 44.8171 61.261 44.5296 60.7129 44.1276C60.4412 43.9277 60.1829 43.6941 59.974 43.3953C59.7628 43.1033 59.6123 42.7237 59.6146 42.3127L60.2525 42.4475C60.0706 42.9281 59.9111 43.4155 59.7538 43.9142C59.5966 44.4128 59.4192 44.9137 59.2305 45.4101C59.0239 45.902 58.806 46.3962 58.514 46.8544C58.2422 47.3216 57.8963 47.7506 57.5212 48.1414C57.3415 48.3458 57.1259 48.512 56.9215 48.6917C56.7261 48.8804 56.497 49.0219 56.2791 49.1814C56.0612 49.3453 55.8276 49.4779 55.5918 49.6081C55.3582 49.7429 55.1291 49.8777 54.882 49.981C54.4013 50.2168 53.9049 50.4123 53.4018 50.5852C52.9054 50.7739 52.391 50.8929 51.8834 51.0502L52.0945 50.8772C51.6341 51.8318 51.1669 52.7864 50.657 53.7276C50.1516 54.6664 49.6013 55.5941 48.9028 56.4431C48.5501 56.8654 48.166 57.272 47.6876 57.6021C47.2272 57.9323 46.6342 58.1727 46.021 58.1659C45.7155 58.1659 45.4145 58.103 45.136 57.9997L45.0327 57.9638C44.9496 57.9301 44.9608 57.9301 44.9181 57.9099C44.8575 57.8784 44.8036 57.8559 44.7362 57.8133C44.5879 57.7167 44.4509 57.6089 44.3454 57.4876C43.9006 56.98 43.8332 56.3241 43.858 55.767C43.9456 54.6305 44.3364 53.6108 44.7497 52.6225C44.9563 52.1283 45.1877 51.6454 45.4213 51.1692L45.7694 50.4572C45.875 50.2191 46.03 49.981 46.03 49.8125C46.1827 48.7434 46.3377 47.7102 46.5264 46.6612C46.7016 45.619 46.9037 44.5768 47.1126 43.5368C47.1193 43.5031 47.153 43.4807 47.189 43.4874C47.2204 43.4942 47.2429 43.5234 47.2406 43.5548C47.144 44.6127 47.0452 45.6662 46.9239 46.7196L46.5668 49.8642C46.5421 50.2371 46.3826 50.4549 46.2838 50.6998L45.9379 51.4185C45.7088 51.8947 45.4909 52.3686 45.2887 52.8538C44.8957 53.8129 44.5408 54.8124 44.4801 55.7985C44.4599 56.2837 44.543 56.7621 44.8215 57.0608C44.8889 57.1417 44.9653 57.1933 45.0327 57.2428C45.0776 57.272 45.1495 57.3034 45.2056 57.3326C45.2258 57.3393 45.2887 57.3753 45.2708 57.3618L45.3539 57.391C45.574 57.4674 45.7986 57.5168 46.0232 57.51C46.9352 57.5123 47.7393 56.7845 48.3704 56.0096C49.0038 55.21 49.5429 54.3093 50.055 53.3974C50.5649 52.4787 51.0388 51.5376 51.506 50.5875C51.5487 50.5043 51.6206 50.4437 51.7037 50.419L51.7217 50.4145C52.2113 50.264 52.7145 50.154 53.1906 49.9743C53.6736 49.8103 54.152 49.6284 54.6057 49.406C54.8438 49.3116 55.0617 49.1814 55.2795 49.0578C55.4997 48.9365 55.722 48.8153 55.9219 48.6648C56.1286 48.5165 56.342 48.384 56.5239 48.2155C56.7103 48.0493 56.9125 47.8988 57.0765 47.7102C57.4224 47.353 57.7413 46.9667 57.9951 46.5332C58.2669 46.1154 58.4713 45.6527 58.6712 45.1877C59.0396 44.2399 59.3024 43.2359 59.6348 42.2273C59.6932 42.0544 59.8751 41.96 60.0436 42.0184C60.1784 42.0634 60.266 42.1847 60.2682 42.3194L60.2727 42.3599C60.1829 42.8518 60.5153 43.4111 60.96 43.8401C61.4048 44.2736 61.9461 44.6419 62.5166 44.9362C62.5435 44.9497 62.5548 44.9811 62.5435 45.0103C62.5301 45.035 62.5009 45.044 62.4762 45.0373Z" fill="#56B5CB"/>
<path d="M38.6964 61.9417C38.6964 61.9417 37.4745 64.6325 39.6083 65.7084C41.7421 66.7866 46.5174 64.7111 46.9083 64.2799C47.2991 63.8441 50.2505 58.5051 49.6126 57.3775C48.9725 56.2544 46.1872 59.2935 45.7829 59.8797C45.3831 60.4682 40.9088 61.1757 40.9088 61.1757L38.6964 61.9417Z" fill="white"/>
<path d="M38.9413 62.2045C38.7459 62.7166 38.1507 64.6056 39.7567 65.4164C40.1048 65.5939 40.5698 65.686 41.1291 65.6882C43.4044 65.7039 46.3918 64.3338 46.6635 64.0598C47.115 63.5589 49.8351 58.431 49.3275 57.5415C49.2938 57.4763 49.2578 57.4584 49.1837 57.4584C48.4133 57.4539 46.4726 59.4529 46.0548 60.0661C45.6191 60.7018 42.3465 61.2813 40.9606 61.4992L38.9413 62.2045ZM41.1268 66.3463C40.4597 66.3418 39.9004 66.2228 39.4602 66.0027C37.5487 65.0346 37.9306 62.8356 38.3978 61.8069C38.4337 61.7238 38.5033 61.6631 38.5864 61.6339L40.8034 60.8658C42.8878 60.5288 45.2462 59.9943 45.518 59.691C45.8055 59.2643 47.9618 56.7958 49.1882 56.8025C49.4959 56.8047 49.7475 56.953 49.898 57.2158C50.6774 58.5927 47.4587 64.1586 47.151 64.4978C46.7377 64.9582 43.5167 66.3621 41.1268 66.3463Z" fill="#56B5CB"/>
<path d="M35.2487 58.8667C35.2487 58.8667 41.6591 56.962 42.4498 59.0756C43.6627 62.319 34.6961 63.2489 34.1952 63.0602C33.6921 62.8716 31.6661 61.7462 32.751 59.5113C33.8381 57.2764 35.2487 58.8667 35.2487 58.8667Z" fill="white"/>
<path d="M34.4241 63.3994C34.2511 63.3994 34.1321 63.3859 34.0782 63.3679C34.022 63.3455 32.7575 62.8536 32.2813 61.6541C32.0027 60.9533 32.0589 60.1829 32.4565 59.3676C32.5373 59.2058 32.7327 59.1385 32.8945 59.2171C33.0584 59.2957 33.1258 59.4911 33.045 59.6551C32.735 60.2997 32.6811 60.8882 32.89 61.4093C33.1999 62.1887 34.0198 62.6424 34.3118 62.7525C34.8172 62.8536 40.3988 62.2471 41.888 60.4996C42.2384 60.0931 42.317 59.6641 42.1418 59.1901C41.6409 57.8627 37.7057 58.4803 35.3428 59.1834C35.1653 59.2328 34.9834 59.1362 34.9362 58.9633C34.88 58.7881 34.9811 58.6039 35.1541 58.5545C35.8414 58.3478 41.8812 56.6295 42.7572 58.961C43.0425 59.7292 42.8628 60.4682 42.2316 61.0971C40.5268 62.7907 35.7942 63.4084 34.4241 63.3994Z" fill="#56B5CB"/>
<path d="M27.5849 51.021C27.5849 51.021 27.3289 55.3178 35.2824 58.4085C37.9374 58.6488 40.5272 57.3977 39.3143 55.7154C38.0969 54.0353 33.8472 54.2778 33.7326 53.7567C33.6136 53.2334 30.8081 43.8468 28.7956 44.6285C26.7876 45.4101 27.5849 51.021 27.5849 51.021Z" fill="white"/>
<path d="M35.3589 58.085C37.1064 58.2355 38.7978 57.6942 39.2043 56.9036C39.3615 56.5959 39.3099 56.2724 39.0493 55.9085C38.3598 54.9562 36.4146 54.6687 35.1276 54.48C34.0449 54.3205 33.5014 54.2397 33.4093 53.8264C33.0971 52.4293 30.5634 44.9204 29.0428 44.9092C29.0024 44.9092 28.9597 44.9204 28.9193 44.9362C27.4683 45.4999 27.6974 49.4868 27.913 50.9738C27.913 51.0793 27.8074 55.1359 35.3589 58.085ZM35.8935 58.7656C35.6824 58.7656 35.4668 58.7544 35.2534 58.7364C35.2219 58.7319 35.1927 58.7274 35.1635 58.714C27.0797 55.5761 27.2459 51.1872 27.2594 51.0007C27.1763 50.4662 26.4912 45.1765 28.6789 44.323C28.7957 44.2758 28.9215 44.2533 29.0495 44.2533C31.2889 44.2691 33.7597 52.6584 34.027 53.5995C34.2067 53.6826 34.766 53.7612 35.2242 53.8286C36.7044 54.0465 38.7281 54.3475 39.5794 55.5244C40.0983 56.241 39.9792 56.8339 39.7883 57.2023C39.3009 58.1502 37.7353 58.7768 35.8935 58.7656Z" fill="#56B5CB"/>
<path d="M33.811 60.4682C31.7648 60.4525 29.1548 59.8528 28.1328 59.444C26.8301 58.9229 26.4033 57.4112 25.99 55.949L25.8889 55.5873C25.6508 54.9989 25.2802 54.4306 24.8849 53.8286C24.1482 52.6988 23.3126 51.414 23.1689 49.5183C23.1015 48.6445 23.0655 47.3261 23.0274 45.7942C22.9442 42.7237 22.8319 38.5122 22.3715 37.5464C21.8144 36.3874 11.927 22.4861 6.77432 15.2962C6.69795 15.1884 6.69571 15.0491 6.76085 14.9323C7.00567 14.5325 12.8029 5.12118 18.27 5.15488C18.5036 5.15937 18.7372 5.17509 18.9708 5.21327C19.0764 5.229 19.1618 5.29638 19.2112 5.38847C19.3167 5.59961 29.7725 26.4505 30.6081 27.9936C31.374 29.4086 33.7324 30.3026 35.6282 31.0191L35.8079 31.091C36.7063 31.4324 38.173 31.4683 39.4803 31.4773L40.3226 31.4818C41.8208 31.4908 42.6608 31.5515 43.0808 31.8524C44.0377 32.5353 47.0026 37.3487 46.9015 39.5432C46.8139 40.0014 46.7398 40.4259 46.6702 40.8437C46.34 42.7776 46.1715 43.6312 45.5965 43.6289C45.5201 43.6289 45.4528 43.611 45.3921 43.5773L45.6998 44.478C45.7358 44.7138 46.2209 48.7366 43.9546 49.0713C43.9074 49.0758 43.858 49.0803 43.8108 49.0803C43.0898 49.0736 42.5463 48.2155 42.1577 47.2542C42.1599 47.3036 42.1644 47.3418 42.1712 47.3687C42.1869 47.4923 42.2161 47.6495 42.2475 47.8314C42.4879 49.1387 42.9843 51.8565 40.9717 52.5865C40.8774 52.6224 40.7763 52.6404 40.682 52.6404C40.2979 52.6382 40.0216 52.3821 39.7903 51.9531C39.8801 52.8403 39.7678 53.5838 39.4488 54.1251C39.4107 54.188 39.35 54.2397 39.2781 54.2644C38.5481 54.5317 37.7934 54.6619 37.0342 54.6597C35.0981 54.6462 33.519 53.7567 32.5757 53.2244C32.3443 53.0919 32.1489 52.9818 31.9984 52.9144C31.8614 52.8493 31.785 52.7033 31.8097 52.5551C31.8344 52.4068 31.9602 52.2945 32.1107 52.2855C32.4207 52.2631 32.7059 52.1665 32.688 51.5847C32.6341 49.7968 30.0578 46.4411 29.4266 46.4388C29.2514 46.4568 28.9302 46.7061 28.6202 47.353C28.0856 48.4649 27.8408 50.1876 28.3799 51.0367C28.6427 51.45 28.8673 51.8385 29.0784 52.2002C29.5928 53.0919 30.0038 53.7972 30.6889 54.3677C30.8911 54.5339 31.2999 54.7495 31.7783 54.9989C33.5482 55.9265 36.5109 57.4831 35.3811 60.165C35.3384 60.266 35.2486 60.3379 35.143 60.3604C34.7746 60.4345 34.3277 60.4727 33.811 60.4682Z" fill="white"/>
<path d="M43.2697 31.5829C42.7756 31.2325 41.9265 31.1651 40.325 31.1539L39.9118 31.1516L39.4827 31.1494C38.2069 31.1427 36.7717 31.1067 35.9249 30.7833L35.7429 30.7159C33.8989 30.0151 31.6055 29.1458 30.898 27.8408C30.1703 26.4954 20.3232 7.16966 18.2074 2.95816L17.7963 3.62526C19.6269 7.27523 29.5661 26.7537 30.3208 28.1508C31.1698 29.7209 33.69 30.635 35.6913 31.3987C36.6391 31.7559 38.1036 31.7985 39.4782 31.8053C39.7658 31.8075 40.0465 31.8075 40.3206 31.812C41.5043 31.8187 42.5128 31.8502 42.8879 32.1197C43.7684 32.7464 46.6681 37.479 46.5738 39.5297C46.2391 41.2368 46.0212 43.3032 45.6012 43.2987C45.5069 43.2987 45.408 43.2022 45.2957 42.9843C45.0464 42.4946 44.7365 41.3671 44.2625 40.2126C43.5482 38.4673 42.6678 36.6277 42.6678 36.6277L45.3901 44.5835C45.3901 44.5835 45.882 48.4559 43.9076 48.7434C43.8784 48.7501 43.8447 48.7501 43.8133 48.7501C42.5352 48.7434 41.7805 44.7116 41.7805 44.7116L38.1193 38.4089C38.1193 38.4089 40.1206 42.3823 41.3448 45.0664C41.8097 46.0862 41.8052 47.1396 41.8434 47.4137C41.9782 48.402 42.8699 51.5488 40.8619 52.2788C40.799 52.3012 40.7428 52.3125 40.6844 52.3125C39.7972 52.3057 39.5164 49.5924 38.5416 47.5911C37.5623 45.5696 36.2011 44.0422 35.3386 43.5031C36.4437 44.9204 37.1243 46.0974 38.0138 47.773C39.3367 50.2595 39.9005 52.7213 39.166 53.9566C38.4203 54.2307 37.706 54.3362 37.0367 54.3295C34.7052 54.3138 32.9061 52.9616 32.1334 52.6135C34.8265 52.4338 30.6217 46.1176 29.4313 46.1109C29.4178 46.1087 29.4043 46.1109 29.3954 46.1109C28.2543 46.2367 27.1784 49.7564 28.1038 51.2096C29.027 52.6629 29.4627 53.7747 30.4802 54.6215C31.5 55.4638 36.3808 56.9463 35.0803 60.0392C34.7142 60.1133 34.2829 60.1425 33.8113 60.138C31.8571 60.1268 29.2606 59.5428 28.2543 59.1385C27.0055 58.6376 26.6573 57.0698 26.2013 55.4953C25.4624 53.6444 23.7081 52.2833 23.497 49.4936C23.2836 46.6994 23.3847 38.8963 22.6659 37.4026C21.9741 35.9651 7.48206 15.6286 6.54767 14.3191L6.02881 15.0334C11.999 23.3733 21.5833 36.6659 22.073 37.6879C22.5087 38.5908 22.6255 42.9281 22.6996 45.8009C22.7401 47.335 22.776 48.6603 22.8434 49.5407C22.9939 51.5241 23.8541 52.8426 24.6133 54.0083C24.9884 54.5856 25.3478 55.1336 25.5814 55.7086L25.6735 56.0388C26.1093 57.5774 26.5585 59.1654 28.0117 59.7472C29.0584 60.1672 31.7246 60.7827 33.809 60.7961C34.3458 60.7984 34.8198 60.7602 35.2083 60.6838C35.4217 60.6389 35.5992 60.4951 35.6845 60.293C36.9311 57.3326 33.6765 55.6255 31.929 54.7069C31.4887 54.4755 31.0732 54.2576 30.9003 54.1139C30.2601 53.5838 29.8625 52.901 29.3594 52.034C29.155 51.6813 28.9237 51.2793 28.6586 50.8615C28.2903 50.282 28.3419 48.9433 28.7777 47.818C29.027 47.1778 29.2988 46.8678 29.4313 46.7847C30.195 47.1554 32.5107 50.4122 32.3535 51.7442C32.3378 51.8857 32.331 51.9441 32.0885 51.9598C31.7875 51.9778 31.5404 52.2002 31.4865 52.4967C31.4326 52.7954 31.5898 53.0896 31.8639 53.2109C31.9964 53.2716 32.1918 53.3816 32.4186 53.5097C33.389 54.0577 35.0129 54.9719 37.0345 54.9854C37.8318 54.9921 38.6225 54.8506 39.3907 54.5721C39.5322 54.5204 39.6534 54.4216 39.7298 54.2913C39.9679 53.8938 40.1027 53.3974 40.1341 52.8246C40.2936 52.9167 40.4733 52.9683 40.6822 52.9683C40.8169 52.9683 40.9495 52.9459 41.0842 52.8965C42.8497 52.2541 42.9238 50.3606 42.7509 48.8939C43.0541 49.2083 43.4067 49.4037 43.811 49.406C43.8739 49.406 43.9391 49.4037 44.002 49.3947C46.5423 49.0219 46.0976 44.9609 46.0392 44.5004C46.0325 44.4577 46.0235 44.4128 46.01 44.3724L45.8573 43.9209C46.5109 43.7278 46.6839 42.717 46.9938 40.8976C47.0634 40.4843 47.1376 40.0576 47.2184 39.6555C47.2252 39.6218 47.2274 39.5904 47.2274 39.5589C47.3375 37.2229 44.2917 32.3151 43.2697 31.5829Z" fill="#56B5CB"/>
<path d="M37.6518 55.6457C37.2407 55.6165 36.8567 55.6749 36.5332 55.7985C36.4097 56.4678 36.2255 57.0833 36.0054 57.6156C36.3356 57.9323 36.8611 58.1637 37.4699 58.2041C38.5345 58.2805 39.4375 57.7728 39.4891 57.0653C39.5408 56.3555 38.7187 55.7221 37.6518 55.6457Z" fill="white"/>
<path d="M36.1492 57.5842C36.4794 57.8649 36.9555 58.0446 37.4789 58.0828C38.4784 58.1502 39.323 57.6785 39.3679 57.0541C39.3903 56.7576 39.2264 56.4566 38.9142 56.2163C38.5862 55.9624 38.1348 55.803 37.6429 55.7693C37.2902 55.7446 36.9443 55.7872 36.6388 55.8883C36.5243 56.5015 36.3581 57.0698 36.1492 57.5842ZM37.6608 58.3366C37.6586 58.3366 37.6586 58.3366 37.6586 58.3366C37.5934 58.3366 37.5261 58.3321 37.4587 58.3254C36.85 58.2849 36.2907 58.0581 35.9178 57.7054C35.8796 57.6695 35.8707 57.6156 35.8909 57.5662C36.1132 57.0316 36.2907 56.4296 36.412 55.776C36.4187 55.7356 36.4502 55.6996 36.4883 55.6839C36.841 55.5492 37.2453 55.4908 37.6608 55.5244C38.1999 55.5626 38.6985 55.7378 39.0647 56.0208C39.4443 56.3151 39.6397 56.6902 39.6105 57.0743C39.5611 57.7975 38.721 58.3411 37.6608 58.3366Z" fill="#56B5CB"/>
<path d="M40.4527 59.3631C40.0956 59.4911 39.7901 59.6865 39.5632 59.9111C39.707 60.5221 39.7834 61.1128 39.7946 61.6474C40.1944 61.7912 40.7222 61.7912 41.2546 61.6002C42.1867 61.2656 42.7595 60.4974 42.5394 59.8797C42.317 59.262 41.3848 59.0307 40.4527 59.3631Z" fill="white"/>
<path d="M39.9161 61.5576C40.0666 61.6025 40.2305 61.625 40.4057 61.625H40.408C40.6685 61.6272 40.9471 61.58 41.2121 61.4835C42.0769 61.1735 42.6227 60.4727 42.4228 59.9202C42.2947 59.563 41.8725 59.3384 41.3154 59.3339C41.0504 59.3339 40.7674 59.3833 40.4956 59.4822C40.1924 59.5922 39.9183 59.7517 39.7005 59.9538C39.8285 60.5109 39.9004 61.0477 39.9161 61.5576ZM40.4057 61.872C40.1699 61.872 39.952 61.8339 39.7521 61.762C39.705 61.7463 39.6735 61.6991 39.6735 61.6497C39.6623 61.1128 39.5859 60.5356 39.4444 59.9404C39.4354 59.8977 39.4489 59.8528 39.4781 59.8258C39.7274 59.5787 40.0509 59.3788 40.4125 59.2486C40.7112 59.143 41.0234 59.0891 41.3177 59.0891C41.978 59.0958 42.4947 59.3788 42.6564 59.837C42.9012 60.5176 42.288 61.3599 41.2952 61.7148C40.9987 61.8204 40.7 61.8743 40.4057 61.872Z" fill="#56B5CB"/>
<path d="M47.7978 56.4004C48.0741 55.9782 48.2358 55.5312 48.2965 55.1111C47.6496 54.5811 47.0993 54.0285 46.6613 53.4715C46.1222 53.6399 45.5697 54.0667 45.1654 54.6934C44.4511 55.7895 44.4646 57.0653 45.1901 57.5347C45.9201 58.0064 47.0858 57.4988 47.7978 56.4004Z" fill="white"/>
<path d="M46.6232 53.6063C46.1066 53.7882 45.6147 54.2037 45.2576 54.754C44.9251 55.2684 44.7454 55.8322 44.7522 56.3465C44.7544 56.8429 44.9341 57.2338 45.2553 57.4382C45.4148 57.5437 45.6012 57.5954 45.8079 57.5999C46.4615 57.6021 47.205 57.108 47.7058 56.3398C47.9462 55.9647 48.1079 55.5582 48.1753 55.1583C47.5778 54.6619 47.0545 54.1408 46.6232 53.6063ZM45.8056 57.8223C45.5563 57.8223 45.3294 57.7571 45.1295 57.6268C44.7454 57.382 44.5321 56.9261 44.5253 56.351C44.5186 55.7895 44.714 55.1808 45.0689 54.6305C45.4687 54.0128 46.0392 53.5501 46.6255 53.3659C46.6704 53.3502 46.722 53.3659 46.7512 53.3996C47.1915 53.9612 47.7373 54.5092 48.3685 55.0236C48.3999 55.0505 48.4134 55.0887 48.4089 55.1269C48.3415 55.5806 48.1663 56.0433 47.8945 56.4611C47.3532 57.2944 46.5356 57.829 45.8056 57.8223Z" fill="#56B5CB"/>
<path d="M49.696 57.9615C49.6466 57.9166 49.5905 57.8784 49.5298 57.8447C49.002 57.5931 48.263 58.0311 47.8789 58.8285C47.7307 59.134 47.6565 59.4462 47.6543 59.736C48.1125 60.0212 48.5078 60.3334 48.8425 60.6546C49.2895 59.6349 49.6489 58.6264 49.696 57.9615Z" fill="white"/>
<path d="M47.7771 59.6686C48.15 59.9044 48.4914 60.1672 48.7969 60.4435C49.2484 59.3968 49.5134 58.559 49.5673 58.0132C49.5359 57.9907 49.5067 57.9705 49.4752 57.957C49.3944 57.9188 49.3068 57.8964 49.2102 57.8964C48.7699 57.8941 48.269 58.3007 47.9883 58.8802C47.8647 59.1385 47.7951 59.408 47.7771 59.6686ZM48.8373 60.7759C48.8104 60.7759 48.7767 60.7624 48.7542 60.74C48.415 60.4165 48.022 60.1133 47.5885 59.837C47.5503 59.8146 47.5278 59.7741 47.5323 59.7315C47.5346 59.4192 47.6177 59.0891 47.7659 58.7746C48.0916 58.0985 48.6711 57.647 49.2124 57.6493C49.3449 57.6538 49.4685 57.6785 49.5853 57.7369C49.6482 57.7683 49.7133 57.811 49.7762 57.8672C49.8054 57.8941 49.8211 57.9301 49.8189 57.9682C49.7762 58.5769 49.4842 59.4956 48.9541 60.7018C48.9384 60.74 48.9024 60.7669 48.8643 60.7759C48.8575 60.7759 48.8485 60.7759 48.8373 60.7759Z" fill="#56B5CB"/>
<path d="M33.8157 60.2615C32.7173 60.2548 31.5381 60.0751 30.743 59.9201C30.7048 59.9156 30.6733 59.8932 30.6576 59.8572C30.6374 59.8258 30.6374 59.7876 30.6531 59.7517C30.8912 59.2104 31.0664 58.7319 31.2102 58.249C31.2236 58.2086 31.2551 58.1749 31.2978 58.1659C31.583 58.0895 31.884 58.0513 32.1985 58.0536C32.4163 58.0536 32.6365 58.0761 32.8543 58.1142C34.1122 58.3366 35.0982 59.134 35.2038 60.01C35.1881 60.0482 35.1432 60.1515 35.1027 60.1582C34.7501 60.2323 34.3188 60.266 33.8157 60.2615Z" fill="white"/>
<path d="M32.2005 57.9323C31.8749 57.9301 31.5604 57.9682 31.2662 58.0446C31.183 58.0671 31.1179 58.13 31.0932 58.2131C30.9517 58.6915 30.7765 59.1654 30.5384 59.7023C30.5092 59.7696 30.5137 59.8505 30.5474 59.9156C30.5811 59.9808 30.644 60.0302 30.7181 60.0437C31.5177 60.1964 32.7037 60.3783 33.8155 60.3851C34.3231 60.3896 34.7656 60.3536 35.1273 60.2795C35.2081 60.2638 35.2755 60.2099 35.3069 60.1358C35.3114 60.1223 35.3159 60.1043 35.3204 60.0931C35.3361 60.0549 35.3339 60.0392 35.3272 59.9987C35.2149 59.0531 34.2063 58.2265 32.8766 57.9929C32.6498 57.9548 32.4207 57.9323 32.2005 57.9323ZM32.1983 58.1749C32.4049 58.1794 32.6161 58.1973 32.8317 58.2355C34.0648 58.4534 34.988 59.2126 35.0823 60.0257C35.0823 60.0302 35.0801 60.0324 35.0801 60.0392C34.714 60.1133 34.285 60.1425 33.8155 60.138C32.8676 60.1313 31.7625 59.992 30.7653 59.7988C30.9742 59.3294 31.1696 58.8285 31.329 58.2849C31.5963 58.2131 31.8906 58.1749 32.1983 58.1749Z" fill="#56B5CB"/>
<path d="M39.3543 46.9577C39.3543 46.9577 39.4127 46.8836 39.5025 46.778C39.5924 46.6747 39.7204 46.5467 39.8484 46.4254C39.9787 46.3041 40.1135 46.185 40.2303 46.1087C40.3448 46.0301 40.4302 45.9896 40.4302 45.9896C40.4482 45.9829 40.4661 45.9896 40.4751 46.0054C40.4796 46.0143 40.4796 46.0256 40.4751 46.0346C40.4751 46.0346 40.4347 46.1244 40.3538 46.2367C40.2752 46.3513 40.1472 46.4838 40.0057 46.6006C39.8642 46.7196 39.7069 46.8229 39.5789 46.8836C39.4509 46.9397 39.361 46.9667 39.361 46.9667C39.3588 46.9689 39.3543 46.9667 39.3521 46.9622C39.3521 46.96 39.3521 46.96 39.3543 46.9577Z" fill="#56B5CB"/>
<path d="M42.5801 44.5161C42.5801 44.5161 42.6318 44.4532 42.7194 44.3679C42.8047 44.2893 42.926 44.1994 43.0451 44.1118C43.1664 44.0287 43.2809 43.9456 43.3753 43.885C43.4651 43.8266 43.5347 43.7839 43.5347 43.7839C43.5505 43.7727 43.5707 43.7794 43.5797 43.7951C43.5864 43.8019 43.5864 43.8109 43.5864 43.8221C43.5841 43.8176 43.5707 43.9052 43.4988 44.0108C43.4359 44.1186 43.3101 44.2286 43.1754 44.3117C43.0383 44.3904 42.8946 44.4532 42.78 44.4847C42.6677 44.5094 42.5869 44.5251 42.5869 44.5251C42.5801 44.5251 42.5779 44.5229 42.5779 44.5184C42.5779 44.5184 42.5779 44.5161 42.5801 44.5161Z" fill="#56B5CB"/>
<path d="M36.2841 49.6508C36.2999 49.6598 36.6323 49.4284 36.9288 49.1544C37.0793 49.0196 37.2298 48.8804 37.351 48.786C37.4746 48.6895 37.5689 48.6311 37.5689 48.6311C37.5846 48.6221 37.6026 48.6243 37.6138 48.6423C37.6206 48.6513 37.6206 48.6648 37.6161 48.6737C37.6161 48.6737 37.5712 48.7726 37.4813 48.9073C37.3915 49.0421 37.2477 49.1993 37.0815 49.3364C36.9108 49.4711 36.7221 49.5834 36.5604 49.6283C36.3964 49.6733 36.2864 49.6598 36.2864 49.6598H36.2819C36.2774 49.6598 36.2751 49.6575 36.2751 49.6531C36.2751 49.6508 36.2774 49.6463 36.2819 49.6508C36.2841 49.6508 36.2841 49.6508 36.2841 49.6508Z" fill="#56B5CB"/>
<path d="M45.5516 63.3118C45.4662 63.2736 45.4146 63.2219 45.3539 63.2444L45.4011 63.1343C45.6078 63.2556 45.765 63.4308 45.911 63.5903C46.0525 63.761 46.1873 63.9182 46.3333 64.0912C46.3467 64.1047 46.3467 64.1226 46.3333 64.1361C46.3243 64.1451 46.3153 64.1451 46.3041 64.1451C46.066 64.0867 45.8795 63.9182 45.729 63.752C45.5808 63.5791 45.4573 63.3994 45.318 63.2287L45.309 63.2174C45.2866 63.1905 45.2888 63.1523 45.3158 63.1298C45.3315 63.1208 45.3517 63.1141 45.3674 63.1164C45.482 63.1388 45.5134 63.2556 45.5583 63.3028C45.5583 63.3073 45.5583 63.3095 45.5583 63.3118C45.5561 63.3118 45.5516 63.3118 45.5516 63.3118Z" fill="#56B5CB"/>
<path d="M46.2388 63.4218C46.2388 63.4218 46.2792 63.4308 46.3398 63.451C46.3982 63.4735 46.4589 63.5184 46.5128 63.5656C46.5622 63.6195 46.6026 63.6779 46.6184 63.7385C46.6386 63.7925 46.6341 63.8441 46.6341 63.8441C46.6341 63.8666 46.6161 63.8868 46.5937 63.8868C46.5892 63.8868 46.5892 63.8868 46.5869 63.8868C46.5869 63.8868 46.5398 63.8801 46.4836 63.8531C46.4297 63.8284 46.3758 63.7812 46.3309 63.7228C46.2882 63.6622 46.2567 63.5948 46.241 63.5364C46.2275 63.4758 46.2275 63.4286 46.2275 63.4286C46.2275 63.4241 46.232 63.4218 46.2343 63.4218C46.2343 63.4218 46.2343 63.4218 46.2388 63.4218Z" fill="#56B5CB"/>
<path d="M30.1343 46.9083C30.1343 46.9083 32.6118 49.8687 32.8925 49.8934C34.1459 49.9967 37.7577 51.2748 36.976 53.4378C36.4953 54.7428 30.1545 53.4378 30.1545 53.4378L30.1343 46.9083Z" fill="white"/>
<path d="M34.788 54.3452C33.081 54.3362 30.9876 53.9454 30.0869 53.7612C29.9117 53.723 29.7949 53.5501 29.8331 53.3749C29.869 53.1952 30.0419 53.0829 30.2216 53.1188C33.1484 53.7208 36.4367 53.9477 36.6658 53.3277C36.8253 52.892 36.7781 52.4854 36.5176 52.0834C35.8235 50.9985 33.7705 50.2932 32.8676 50.2191C32.7193 50.2078 32.4476 50.1854 29.8825 47.1194C29.7657 46.9824 29.7859 46.7735 29.9229 46.659C30.0622 46.5444 30.2688 46.5601 30.3856 46.6994C31.4458 47.9662 32.6767 49.3521 32.9821 49.5699C33.9974 49.6755 36.2256 50.4122 37.0723 51.7307C37.4362 52.299 37.5081 52.9257 37.2835 53.5501C37.0589 54.1633 36.0234 54.3542 34.788 54.3452Z" fill="#56B5CB"/>
<path d="M34.943 51.8543C34.532 51.8251 34.1479 51.87 33.8245 51.9688C33.7099 52.5303 33.537 53.0447 33.3191 53.4894C33.6538 53.7612 34.1794 53.9611 34.7881 54.0016C35.855 54.0802 36.7512 53.6602 36.7961 53.0672C36.8388 52.4719 36.0077 51.9306 34.943 51.8543Z" fill="white"/>
<path d="M33.4585 53.4558C33.7954 53.6961 34.2761 53.8556 34.7949 53.8915C35.7945 53.9612 36.6457 53.5726 36.6839 53.0582C36.7199 52.5349 35.918 52.0362 34.9319 51.9666C34.5748 51.9396 34.2244 51.9711 33.9212 52.0587C33.8111 52.5618 33.6584 53.0313 33.4585 53.4558ZM35.0151 54.1251C34.9364 54.1251 34.8578 54.1206 34.7792 54.1139C34.1772 54.0735 33.6157 53.8781 33.2473 53.5793C33.2069 53.5456 33.1934 53.4872 33.2159 53.4423C33.4338 52.9931 33.6045 52.4899 33.7145 51.9464C33.7213 51.9037 33.755 51.8723 33.7932 51.861C34.1346 51.7532 34.5389 51.7128 34.9477 51.742C36.0954 51.8251 36.9557 52.4068 36.9085 53.0739C36.8636 53.6781 36.0505 54.1296 35.0151 54.1251Z" fill="#56B5CB"/>
<path d="M28.3931 22.531C28.6514 22.7533 31.7174 28.7303 31.7174 28.7303L22.214 37.9889L18.1912 31.9423L28.3931 22.531Z" fill="#56B5CB"/>
<path d="M18.7261 32.0074L22.2818 37.351L31.2147 28.6495C30.26 26.7897 28.8697 24.1347 28.3126 23.1599L18.7261 32.0074ZM22.1448 38.6268L17.657 31.8794L28.3868 21.9784L28.6608 22.2188C28.8742 22.4007 30.022 24.5323 32.0817 28.5439L32.2232 28.8134L22.1448 38.6268Z" fill="white"/>
<path d="M32.6657 50.0057C32.6454 50.0035 32.4433 50.2146 32.2659 50.4549C32.1693 50.5695 32.0592 50.6908 31.9514 50.7582C31.8413 50.8278 31.7492 50.839 31.7515 50.8413L31.7268 50.8458C31.7111 50.848 31.6953 50.8345 31.6953 50.8188C31.6908 50.8031 31.7021 50.7896 31.7178 50.7874C31.7335 50.7874 31.8705 50.5313 32.0862 50.2977C32.194 50.1787 32.3287 50.0731 32.4545 50.0282C32.5826 49.9855 32.6612 49.9967 32.6612 49.9967H32.6679C32.6724 49.9967 32.6724 49.999 32.6724 50.0035C32.6724 50.0035 32.6679 50.0057 32.6657 50.0057Z" fill="#56B5CB"/>
<path d="M32.7354 50.109C32.7354 50.109 32.7287 50.1584 32.7444 50.2078C32.7511 50.2595 32.7669 50.3201 32.7714 50.3965C32.7714 50.4706 32.7579 50.5605 32.713 50.6166C32.668 50.6773 32.6141 50.6975 32.6164 50.6975L32.6051 50.7042C32.5894 50.711 32.5692 50.6997 32.567 50.684C32.5625 50.6773 32.5625 50.6728 32.5625 50.6683C32.567 50.6526 32.5108 50.5268 32.531 50.383C32.5445 50.3067 32.5692 50.2168 32.6231 50.1584C32.6815 50.1023 32.7264 50.0978 32.7264 50.0978C32.7287 50.0978 32.7354 50.0978 32.7354 50.1023C32.7354 50.1023 32.7354 50.1045 32.7354 50.109Z" fill="#56B5CB"/>
<path d="M45.875 50.0821C45.875 50.0821 45.6571 50.1427 45.3179 50.2078C44.9832 50.264 44.525 50.3067 44.0623 50.2775C43.6019 50.246 43.1414 50.1315 42.8337 49.963C42.6742 49.8934 42.5574 49.8013 42.4743 49.7429C42.3957 49.6822 42.3508 49.6441 42.3508 49.6441C42.3373 49.6351 42.3328 49.6149 42.3463 49.6014C42.3553 49.5902 42.3732 49.5857 42.3845 49.5924C42.3845 49.5924 42.5866 49.698 42.9011 49.8013C43.211 49.9091 43.64 50.0034 44.0825 50.0371C44.5205 50.0821 44.9698 50.0798 45.3089 50.0753C45.6481 50.0731 45.875 50.0731 45.875 50.0731C45.8794 50.0731 45.8794 50.0731 45.8817 50.0753C45.8817 50.0798 45.8794 50.0821 45.875 50.0821Z" fill="#56B5CB"/>
<path d="M48.2292 51.7352C48.2292 51.7352 48.3033 51.7801 48.4089 51.8498C48.5122 51.9171 48.6402 52.0115 48.7705 52.0878C48.903 52.1665 49.0378 52.2338 49.1434 52.2922C49.2489 52.3461 49.3253 52.3911 49.3253 52.3911C49.341 52.4001 49.3455 52.4203 49.3343 52.436C49.3321 52.445 49.3231 52.4517 49.3163 52.4517C49.3163 52.4495 49.2265 52.4742 49.0917 52.4629C48.9614 52.4517 48.7885 52.3888 48.6425 52.29C48.4965 52.1844 48.3797 52.0519 48.3146 51.9396C48.2494 51.825 48.2202 51.7442 48.2202 51.7442C48.2202 51.7419 48.2202 51.7352 48.2247 51.7352C48.227 51.7352 48.2292 51.7352 48.2292 51.7352Z" fill="#56B5CB"/>
<path d="M237.953 28.415H245.243V53.975H261.038V59.915H237.953V28.415Z" fill="#81C6D6"/>
<path d="M265.966 35.705H272.986V59.915H265.966V35.705ZM269.476 32.33C268.186 32.33 267.136 31.955 266.326 31.205C265.516 30.455 265.111 29.525 265.111 28.415C265.111 27.305 265.516 26.375 266.326 25.625C267.136 24.875 268.186 24.5 269.476 24.5C270.766 24.5 271.816 24.86 272.626 25.58C273.436 26.3 273.841 27.2 273.841 28.28C273.841 29.45 273.436 30.425 272.626 31.205C271.816 31.955 270.766 32.33 269.476 32.33Z" fill="#81C6D6"/>
<path d="M295.566 35.345C298.566 35.345 300.981 36.245 302.811 38.045C304.671 39.845 305.601 42.515 305.601 46.055V59.915H298.581V47.135C298.581 45.215 298.161 43.79 297.321 42.86C296.481 41.9 295.266 41.42 293.676 41.42C291.906 41.42 290.496 41.975 289.446 43.085C288.396 44.165 287.871 45.785 287.871 47.945V59.915H280.851V35.705H287.556V38.54C288.486 37.52 289.641 36.74 291.021 36.2C292.401 35.63 293.916 35.345 295.566 35.345Z" fill="#81C6D6"/>
<path d="M323.71 50.42L320.335 53.75V59.915H313.315V26.525H320.335V45.425L330.595 35.705H338.965L328.885 45.965L339.865 59.915H331.36L323.71 50.42Z" fill="#81C6D6"/>
<path fill-rule="evenodd" clip-rule="evenodd" d="M236.453 26.915H246.743V52.475H262.538V61.415H236.453V26.915ZM245.243 53.975V28.415H237.953V59.915H261.038V53.975H245.243ZM264.466 34.205H274.486V61.415H264.466V34.205ZM273.656 32.2957L273.645 32.3056C272.512 33.3551 271.076 33.83 269.476 33.83C267.876 33.83 266.441 33.3551 265.307 32.3056C264.189 31.27 263.611 29.9402 263.611 28.415C263.611 26.8898 264.189 25.56 265.307 24.5244C266.441 23.4749 267.876 23 269.476 23C271.06 23 272.488 23.4499 273.623 24.4589C274.752 25.4624 275.341 26.7698 275.341 28.28C275.341 29.8391 274.783 31.2101 273.667 32.2855L273.656 32.2957ZM289.056 37.2335C288.504 37.6133 288.004 38.0488 287.556 38.54V35.705H280.851V59.915H287.871V47.945C287.871 45.785 288.396 44.165 289.446 43.085C290.496 41.975 291.906 41.42 293.676 41.42C295.266 41.42 296.481 41.9 297.321 42.86C298.161 43.79 298.581 45.215 298.581 47.135V59.915H305.601V46.055C305.601 42.515 304.671 39.845 302.811 38.045C300.981 36.245 298.566 35.345 295.566 35.345C293.916 35.345 292.401 35.63 291.021 36.2C290.306 36.48 289.651 36.8245 289.056 37.2335ZM289.056 35.4702C289.502 35.2215 289.971 35.0009 290.462 34.8083C292.038 34.1594 293.746 33.845 295.566 33.845C298.886 33.845 301.702 34.852 303.859 36.9714C306.103 39.1454 307.101 42.2649 307.101 46.055V61.415H297.081V47.135C297.081 45.3957 296.696 44.405 296.208 43.8654L296.2 43.8567L296.193 43.8478C295.705 43.291 294.949 42.92 293.676 42.92C292.247 42.92 291.257 43.3534 290.536 44.1158L290.529 44.1233L290.522 44.1306C289.843 44.8288 289.371 46.0058 289.371 47.945V61.415H279.351V34.205H289.056V35.4702ZM331.36 59.915L323.71 50.42L320.335 53.75V59.915H313.315V26.525H320.335V45.425L330.595 35.705H338.965L328.885 45.965L339.865 59.915H331.36ZM330.88 46.0746L342.954 61.415H330.642L323.582 52.6528L321.835 54.3772V61.415H311.815V25.025H321.835V41.9377L329.997 34.205H342.541L330.88 46.0746ZM265.966 35.705V59.915H272.986V35.705H265.966ZM266.326 31.205C267.136 31.955 268.186 32.33 269.476 32.33C270.766 32.33 271.816 31.955 272.626 31.205C273.436 30.425 273.841 29.45 273.841 28.28C273.841 27.2 273.436 26.3 272.626 25.58C271.816 24.86 270.766 24.5 269.476 24.5C268.186 24.5 267.136 24.875 266.326 25.625C265.516 26.375 265.111 27.305 265.111 28.415C265.111 29.525 265.516 30.455 266.326 31.205Z" fill="white"/>
<path d="M106.5 28.42H120.81C124.23 28.42 127.245 29.08 129.855 30.4C132.495 31.69 134.535 33.52 135.975 35.89C137.445 38.26 138.18 41.02 138.18 44.17C138.18 47.32 137.445 50.08 135.975 52.45C134.535 54.82 132.495 56.665 129.855 57.985C127.245 59.275 124.23 59.92 120.81 59.92H106.5V28.42ZM120.45 53.935C123.6 53.935 126.105 53.065 127.965 51.325C129.855 49.555 130.8 47.17 130.8 44.17C130.8 41.17 129.855 38.8 127.965 37.06C126.105 35.29 123.6 34.405 120.45 34.405H113.79V53.935H120.45Z" fill="white"/>
<path d="M144.533 35.71H151.553V59.92H144.533V35.71ZM148.043 32.335C146.753 32.335 145.703 31.96 144.893 31.21C144.083 30.46 143.678 29.53 143.678 28.42C143.678 27.31 144.083 26.38 144.893 25.63C145.703 24.88 146.753 24.505 148.043 24.505C149.333 24.505 150.383 24.865 151.193 25.585C152.003 26.305 152.408 27.205 152.408 28.285C152.408 29.455 152.003 30.43 151.193 31.21C150.383 31.96 149.333 32.335 148.043 32.335Z" fill="white"/>
<path d="M169.183 35.35C172.933 35.35 175.813 36.25 177.823 38.05C179.833 39.82 180.838 42.505 180.838 46.105V59.92H174.268V56.905C172.948 59.155 170.488 60.28 166.888 60.28C165.028 60.28 163.408 59.965 162.028 59.335C160.678 58.705 159.643 57.835 158.923 56.725C158.203 55.615 157.843 54.355 157.843 52.945C157.843 50.695 158.683 48.925 160.363 47.635C162.073 46.345 164.698 45.7 168.238 45.7H173.818C173.818 44.17 173.353 43 172.423 42.19C171.493 41.35 170.098 40.93 168.238 40.93C166.948 40.93 165.673 41.14 164.413 41.56C163.183 41.95 162.133 42.49 161.263 43.18L158.743 38.275C160.063 37.345 161.638 36.625 163.468 36.115C165.328 35.605 167.233 35.35 169.183 35.35ZM168.643 55.555C169.843 55.555 170.908 55.285 171.838 54.745C172.768 54.175 173.428 53.35 173.818 52.27V49.795H169.003C166.123 49.795 164.683 50.74 164.683 52.63C164.683 53.53 165.028 54.25 165.718 54.79C166.438 55.3 167.413 55.555 168.643 55.555Z" fill="white"/>
<path d="M202.851 35.35C205.101 35.35 207.141 35.875 208.971 36.925C210.831 37.945 212.286 39.4 213.336 41.29C214.386 43.15 214.911 45.325 214.911 47.815C214.911 50.305 214.386 52.495 213.336 54.385C212.286 56.245 210.831 57.7 208.971 58.75C207.141 59.77 205.101 60.28 202.851 60.28C199.521 60.28 196.986 59.23 195.246 57.13V59.92H188.541V26.53H195.561V38.275C197.331 36.325 199.761 35.35 202.851 35.35ZM201.636 54.52C203.436 54.52 204.906 53.92 206.046 52.72C207.216 51.49 207.801 49.855 207.801 47.815C207.801 45.775 207.216 44.155 206.046 42.955C204.906 41.725 203.436 41.11 201.636 41.11C199.836 41.11 198.351 41.725 197.181 42.955C196.041 44.155 195.471 45.775 195.471 47.815C195.471 49.855 196.041 51.49 197.181 52.72C198.351 53.92 199.836 54.52 201.636 54.52Z" fill="white"/>
<path d="M220.961 35.71H227.981V59.92H220.961V35.71ZM224.471 32.335C223.181 32.335 222.131 31.96 221.321 31.21C220.511 30.46 220.106 29.53 220.106 28.42C220.106 27.31 220.511 26.38 221.321 25.63C222.131 24.88 223.181 24.505 224.471 24.505C225.761 24.505 226.811 24.865 227.621 25.585C228.431 26.305 228.836 27.205 228.836 28.285C228.836 29.455 228.431 30.43 227.621 31.21C226.811 31.96 225.761 32.335 224.471 32.335Z" fill="white"/>
<path fill-rule="evenodd" clip-rule="evenodd" d="M197.181 52.72C196.041 51.49 195.471 49.855 195.471 47.815C195.471 45.775 196.041 44.155 197.181 42.955C198.351 41.725 199.836 41.11 201.636 41.11C203.436 41.11 204.906 41.725 206.046 42.955C207.216 44.155 207.801 45.775 207.801 47.815C207.801 49.855 207.216 51.49 206.046 52.72C204.906 53.92 203.436 54.52 201.636 54.52C199.836 54.52 198.351 53.92 197.181 52.72ZM206.301 47.815C206.301 49.5525 205.812 50.7895 204.959 51.6862C204.129 52.5603 203.065 53.02 201.636 53.02C200.215 53.02 199.132 52.565 198.269 51.6865C197.447 50.7922 196.971 49.5541 196.971 47.815C196.971 46.0658 197.452 44.8478 198.269 43.9881C199.137 43.0757 200.22 42.61 201.636 42.61C203.053 42.61 204.113 43.0752 204.946 43.9746L204.959 43.9885L204.972 44.0021C205.812 44.8634 206.301 46.076 206.301 47.815Z" fill="#81C6D6"/>
<path fill-rule="evenodd" clip-rule="evenodd" d="M196.746 60.3249C198.472 61.3095 200.529 61.78 202.851 61.78C205.337 61.78 207.632 61.2138 209.702 60.0602L209.709 60.0562C211.807 58.8719 213.458 57.2202 214.643 55.1224L214.648 55.1134C215.839 52.9688 216.411 50.5208 216.411 47.815C216.411 45.1115 215.84 42.6756 214.645 40.5567C213.463 38.431 211.811 36.7743 209.705 35.6167C207.636 34.4325 205.34 33.85 202.851 33.85C200.677 33.85 198.731 34.2908 197.061 35.2032V25.03H187.041V61.42H196.746V60.3249ZM195.561 38.275C196.017 37.7724 196.517 37.3346 197.061 36.9616C198.628 35.8872 200.558 35.35 202.851 35.35C205.101 35.35 207.141 35.875 208.971 36.925C210.831 37.945 212.286 39.4 213.336 41.29C214.386 43.15 214.911 45.325 214.911 47.815C214.911 50.305 214.386 52.495 213.336 54.385C212.286 56.245 210.831 57.7 208.971 58.75C207.141 59.77 205.101 60.28 202.851 60.28C200.378 60.28 198.343 59.7006 196.746 58.5417C196.194 58.1406 195.694 57.67 195.246 57.13V59.92H188.541V26.53H195.561V38.275Z" fill="#81C6D6"/>
<path fill-rule="evenodd" clip-rule="evenodd" d="M229.481 34.21H219.461V61.42H229.481V34.21ZM227.981 35.71H220.961V59.92H227.981V35.71Z" fill="#81C6D6"/>
<path fill-rule="evenodd" clip-rule="evenodd" d="M228.64 32.3106L228.651 32.3006L228.661 32.2905C229.778 31.2151 230.336 29.8441 230.336 28.285C230.336 26.7748 229.746 25.4674 228.617 24.4639C227.482 23.4549 226.054 23.005 224.471 23.005C222.871 23.005 221.435 23.4799 220.302 24.5293C219.183 25.565 218.606 26.8948 218.606 28.42C218.606 29.9452 219.183 31.2749 220.302 32.3106C221.435 33.3601 222.871 33.835 224.471 33.835C226.071 33.835 227.506 33.3601 228.64 32.3106ZM221.321 31.21C222.131 31.96 223.181 32.335 224.471 32.335C225.761 32.335 226.811 31.96 227.621 31.21C228.431 30.43 228.836 29.455 228.836 28.285C228.836 27.205 228.431 26.305 227.621 25.585C226.811 24.865 225.761 24.505 224.471 24.505C223.181 24.505 222.131 24.88 221.321 25.63C220.511 26.38 220.106 27.31 220.106 28.42C220.106 29.53 220.511 30.46 221.321 31.21Z" fill="#81C6D6"/>
<path fill-rule="evenodd" clip-rule="evenodd" d="M172.063 44.2H168.238C164.566 44.2 161.551 44.8597 159.46 46.4375L159.449 46.4453C157.374 48.0391 156.343 50.2625 156.343 52.945C156.343 54.6247 156.776 56.172 157.664 57.5413C158.556 58.916 159.822 59.9607 161.394 60.6943L161.405 60.6995C163.02 61.4366 164.86 61.78 166.888 61.78C169.166 61.78 171.164 61.3579 172.768 60.4354V61.42H182.338V46.105C182.338 42.2326 181.25 39.0722 178.819 36.9285C176.443 34.8033 173.156 33.85 169.183 33.85C167.1 33.85 165.062 34.1225 163.071 34.6684L163.065 34.67C161.099 35.2181 159.361 36.0043 157.879 37.0488L156.813 37.8001L160.764 45.4905L162.195 44.3552C162.901 43.7952 163.782 43.3335 164.866 42.9898L164.877 42.9865L164.887 42.983C165.999 42.6125 167.114 42.43 168.238 42.43C169.902 42.43 170.87 42.8091 171.417 43.3031L171.428 43.3122L171.438 43.3211C171.694 43.5446 171.91 43.828 172.063 44.2ZM163.468 36.115C161.638 36.625 160.063 37.345 158.743 38.275L161.263 43.18C161.648 42.8746 162.068 42.5986 162.524 42.3519C163.098 42.0414 163.727 41.7774 164.413 41.56C165.673 41.14 166.948 40.93 168.238 40.93C170.098 40.93 171.493 41.35 172.423 42.19C173.021 42.711 173.427 43.381 173.64 44.2C173.759 44.6542 173.818 45.1542 173.818 45.7H168.238C164.698 45.7 162.073 46.345 160.363 47.635C158.683 48.925 157.843 50.695 157.843 52.945C157.843 54.355 158.203 55.615 158.923 56.725C159.643 57.835 160.678 58.705 162.028 59.335C163.408 59.965 165.028 60.28 166.888 60.28C169.405 60.28 171.365 59.7298 172.768 58.6295C173.371 58.1564 173.871 57.5815 174.268 56.905V59.92H180.838V46.105C180.838 42.505 179.833 39.82 177.823 38.05C175.813 36.25 172.933 35.35 169.183 35.35C167.233 35.35 165.328 35.605 163.468 36.115Z" fill="#81C6D6"/>
<path fill-rule="evenodd" clip-rule="evenodd" d="M171.838 54.745C172.768 54.175 173.428 53.35 173.818 52.27V49.795H169.003C166.123 49.795 164.683 50.74 164.683 52.63C164.683 53.53 165.028 54.25 165.718 54.79C166.438 55.3 167.413 55.555 168.643 55.555C169.843 55.555 170.908 55.285 171.838 54.745ZM171.069 53.4568C171.623 53.1135 172.037 52.6399 172.318 51.9867V51.295H169.003C167.679 51.295 166.947 51.5208 166.586 51.7578C166.335 51.9225 166.183 52.1321 166.183 52.63C166.183 53.0696 166.318 53.345 166.614 53.5863C167.001 53.8489 167.631 54.055 168.643 54.055C169.602 54.055 170.397 53.8433 171.069 53.4568Z" fill="#81C6D6"/>
<path fill-rule="evenodd" clip-rule="evenodd" d="M153.053 34.21H143.033V61.42H153.053V34.21ZM151.553 35.71V59.92H144.533V35.71H151.553Z" fill="#81C6D6"/>
<path d="M152.212 32.3106L152.223 32.3006L151.914 30.2855C151.726 30.6193 151.486 30.9274 151.193 31.21C150.383 31.96 149.333 32.335 148.043 32.335C146.753 32.335 145.703 31.96 144.893 31.21C144.083 30.46 143.678 29.53 143.678 28.42C143.678 27.31 144.083 26.38 144.893 25.63C145.703 24.88 146.753 24.505 148.043 24.505C149.333 24.505 150.383 24.865 151.193 25.585L152.189 24.4639C151.054 23.4549 149.626 23.005 148.043 23.005C146.443 23.005 145.007 23.4799 143.874 24.5293C142.755 25.565 142.178 26.8948 142.178 28.42C142.178 29.9452 142.755 31.2749 143.874 32.3106C145.007 33.3601 146.443 33.835 148.043 33.835C149.643 33.835 151.078 33.3601 152.212 32.3106Z" fill="#81C6D6"/>
<path d="M152.2 27.0382C152.339 27.4231 152.408 27.8387 152.408 28.285C152.408 28.7556 152.342 29.1947 152.211 29.6022L152.223 32.3006L152.233 32.2905C153.35 31.2151 153.908 29.8441 153.908 28.285C153.908 26.7748 153.318 25.4674 152.189 24.4639L152.2 27.0382Z" fill="#81C6D6"/>
<path d="M151.914 30.2855L152.223 32.3006L152.211 29.6022C152.134 29.8408 152.035 30.0686 151.914 30.2855Z" fill="#81C6D6"/>
<path d="M152.189 24.4639L151.193 25.585C151.668 26.0074 152.004 26.4919 152.2 27.0382L152.189 24.4639Z" fill="#81C6D6"/>
<path fill-rule="evenodd" clip-rule="evenodd" d="M130.523 29.0568C127.672 27.6172 124.422 26.92 120.81 26.92H105V61.42H120.81C124.42 61.42 127.67 60.7382 130.52 59.3297L130.526 59.3266C133.399 57.8899 135.657 55.859 137.253 53.2347C138.887 50.599 139.68 47.5597 139.68 44.17C139.68 40.7803 138.887 37.741 137.253 35.1053C135.657 32.4807 133.398 30.4637 130.523 29.0568ZM138.18 44.17C138.18 47.32 137.445 50.08 135.975 52.45C134.535 54.82 132.495 56.665 129.855 57.985C127.245 59.275 124.23 59.92 120.81 59.92H106.5V28.42H120.81C124.23 28.42 127.245 29.08 129.855 30.4C132.495 31.69 134.535 33.52 135.975 35.89C137.445 38.26 138.18 41.02 138.18 44.17Z" fill="#81C6D6"/>
<path fill-rule="evenodd" clip-rule="evenodd" d="M120.45 34.405C123.6 34.405 126.105 35.29 127.965 37.06C129.855 38.8 130.8 41.17 130.8 44.17C130.8 47.17 129.855 49.555 127.965 51.325C126.105 53.065 123.6 53.935 120.45 53.935H113.79V34.405H120.45ZM126.931 38.1466L126.94 38.1551L126.949 38.1635C128.478 39.5713 129.3 41.5124 129.3 44.17C129.3 46.8267 128.478 48.7895 126.94 50.2301C125.42 51.6517 123.314 52.435 120.45 52.435H115.29V35.905H120.45C123.307 35.905 125.41 36.6993 126.931 38.1466Z" fill="#81C6D6"/>
</svg>
