<svg viewBox="0 0 237 171" fill="none" xmlns="http://www.w3.org/2000/svg"><g clip-path="url(#clip0)"><path opacity=".1" d="M137.701 30.1189c-15.194-.5281-29.676-5.4333-43.4841-10.799C80.4089 13.9542 66.723 8.0081 51.885 5.1649c-9.54-1.8308-20.4503-2.0882-28.1355 3.0265-7.3972 4.9205-9.7865 13.4153-11.0718 21.2969-.9666 5.9308-1.5274 12.1715 1.1151 17.7248 1.8395 3.8536 5.1038 7.0939 7.3622 10.7859 7.8555 12.8458 2.3021 28.6876-6.2123 41.2409C10.9496 105.131 6.317 110.737 3.236 117.002c-3.081 6.265-4.5082 13.441-1.8111 19.83 2.673 6.328 9.0402 11.09 15.9399 14.435 14.0132 6.788 30.5248 8.73 46.6263 9.843 35.6417 2.437 71.4759 1.381 107.2109.325 13.226-.393 26.51-.788 39.519-2.837 7.225-1.136 14.686-2.939 19.931-7.29 6.658-5.525 8.31-14.877 3.847-21.805-7.484-11.617-28.177-14.504-33.409-26.973-2.878-6.8621.078-14.508 4.264-20.8731 8.974-13.6531 24.022-25.6326 24.814-41.2409.545-10.7204-6.688-21.454-17.873-26.5272-11.722-5.322-27.979-4.65-36.626 4.1459-8.905 9.0621-24.555 12.549-37.968 12.0842z" fill="#56B5CB"/><path d="M52.8607 158.208s-12.0013-9.073-14.2685-20.614a22.8126 22.8126 0 00-7.0284-12.593 38.3989 38.3989 0 00-5.6231-4.189" stroke="#535461" stroke-width="2" stroke-miterlimit="10"/><path d="M24.4722 113.541c1.0518 1.423 1.5274 7.452 1.5274 7.452s-5.6231-2.215-6.6771-3.635a3.2057 3.2057 0 01-.5951-2.38 3.203 3.203 0 011.2618-2.103 3.2056 3.2056 0 012.3795-.596 3.2046 3.2046 0 012.1035 1.262zM34.557 118.272c.1091 1.765-2.7647 7.085-2.7647 7.085s-3.5196-4.918-3.6309-6.683a3.205 3.205 0 01.8099-2.295 3.2018 3.2018 0 012.1885-1.063 3.2027 3.2027 0 013.395 2.956h.0022zM44.3324 131.87c-.7942 1.58-5.9635 4.722-5.9635 4.722s-.5521-6.022.2422-7.602a3.2067 3.2067 0 011.8575-1.559 3.2014 3.2014 0 012.4175.19 3.2008 3.2008 0 011.5921 1.829 3.2017 3.2017 0 01-.1458 2.42zM49.4153 143.819c-.5172 1.691-5.0799 5.661-5.0799 5.661s-1.5645-5.842-1.0474-7.535a3.2037 3.2037 0 011.5601-1.892 3.2006 3.2006 0 012.4408-.234c.8125.248 1.493.809 1.8918 1.56a3.202 3.202 0 01.2346 2.44zM26.5902 129.634c1.7457.236 7.2641-2.256 7.2641-2.256s-4.6565-3.858-6.4109-4.094a3.206 3.206 0 00-2.37.628 3.2046 3.2046 0 00-1.2315 2.12 3.2018 3.2018 0 00.6283 2.37 3.201 3.201 0 002.12 1.232zM32.7117 143.536c1.7457-.299 6.256-4.325 6.256-4.325s-5.5992-2.287-7.3427-1.988a3.2096 3.2096 0 00-1.1761.443 3.188 3.188 0 00-.9154.861 3.197 3.197 0 00-.5137 1.146c-.0939.413-.1051.84-.0331 1.257.0721.416.226.815.4528 1.172.2268.357.5221.665.8689.908.3467.242.738.413 1.1512.504.4133.09.8403.097 1.2565.022h-.0044zM40.5114 156.233c1.7696 0 6.8974-3.205 6.8974-3.205s-5.13-3.201-6.8996-3.201a3.203 3.203 0 00-2.2651 5.468 3.202 3.202 0 002.2651.938h.0022z" fill="#56B5CB"/><path d="M169.449 79.7348s7.397-13.1033 18.547-16.8783a22.8126 22.8126 0 0011.548-8.6387 38.2641 38.2641 0 003.401-6.1382" stroke="#535461" stroke-width="2" stroke-miterlimit="10"/><path d="M209.943 45.6792c-1.27 1.2307-7.181 2.505-7.181 2.505s1.451-5.8697 2.721-7.1026a3.2033 3.2033 0 014.488.108 3.204 3.204 0 01.905 2.2506 3.208 3.208 0 01-.933 2.239zM206.601 56.2907c-1.745.3447-7.39-1.7981-7.39-1.7981s4.407-4.1459 6.142-4.4841a3.2046 3.2046 0 012.445.4445c.357.2332.664.5354.903.8889.239.3534.405.7511.488 1.1696.083.4184.082.8493-.004 1.2673-.085.418-.254.8146-.495 1.1667-.241.352-.55.6523-.908.8833-.359.231-.76.3881-1.181.4619zM194.434 67.7856c-1.671-.5782-5.47-5.2827-5.47-5.2827s5.891-1.3486 7.567-.7703c.403.1336.775.3458 1.095.6243.319.2785.581.6179.769.9983.187.3803.298.7942.324 1.2176a3.2015 3.2015 0 01-.809 2.335 3.1912 3.1912 0 01-1.008.756 3.2035 3.2035 0 01-2.468.1218zM183.253 74.4102c-1.745-.288-6.275-4.2921-6.275-4.2921s5.584-2.326 7.327-2.038c.839.138 1.589.6037 2.085 1.2947a3.2056 3.2056 0 01-.736 4.4745 3.207 3.207 0 01-2.39.5587l-.011.0022zM194.281 49.9037c-.003 1.7696 3.207 6.904 3.207 6.904s3.206-5.1278 3.206-6.8953a3.2055 3.2055 0 00-.22-1.2513 3.2117 3.2117 0 00-.688-1.0676 3.21 3.21 0 00-1.049-.7161 3.2058 3.2058 0 00-2.491 0 3.1996 3.1996 0 00-1.049.7161 3.1961 3.1961 0 00-.688 1.0676 3.2055 3.2055 0 00-.22 1.2513l-.008-.0087zM181.313 57.8158c.528 1.6889 5.119 5.6275 5.119 5.6275s1.527-5.8522.995-7.5411a3.203 3.203 0 00-5.832-.4691 3.1995 3.1995 0 00-.277 2.3827h-.005zM169.777 67.2358c.236 1.7456 4.094 6.4087 4.094 6.4087s2.489-5.5097 2.254-7.2619a3.206 3.206 0 00-.386-1.2085 3.1972 3.1972 0 00-.825-.964 3.1993 3.1993 0 00-1.134-.5683 3.2046 3.2046 0 00-3.409 1.1789 3.2032 3.2032 0 00-.594 2.4151z" fill="#56B5CB"/><path opacity=".25" d="M209.943 45.6792c-1.27 1.2307-7.181 2.505-7.181 2.505s1.451-5.8697 2.721-7.1026a3.2033 3.2033 0 014.488.108 3.204 3.204 0 01.905 2.2506 3.208 3.208 0 01-.933 2.239zM206.601 56.2907c-1.745.3447-7.39-1.7981-7.39-1.7981s4.407-4.1459 6.142-4.4841a3.2046 3.2046 0 012.445.4445c.357.2332.664.5354.903.8889.239.3534.405.7511.488 1.1696.083.4184.082.8493-.004 1.2673-.085.418-.254.8146-.495 1.1667-.241.352-.55.6523-.908.8833-.359.231-.76.3881-1.181.4619zM194.434 67.7856c-1.671-.5782-5.47-5.2827-5.47-5.2827s5.891-1.3486 7.567-.7703c.403.1336.775.3458 1.095.6243.319.2785.581.6179.769.9983.187.3803.298.7942.324 1.2176a3.2015 3.2015 0 01-.809 2.335 3.1912 3.1912 0 01-1.008.756 3.2035 3.2035 0 01-2.468.1218zM183.253 74.4102c-1.745-.288-6.275-4.2921-6.275-4.2921s5.584-2.326 7.327-2.038c.839.138 1.589.6037 2.085 1.2947a3.2056 3.2056 0 01-.736 4.4745 3.207 3.207 0 01-2.39.5587l-.011.0022zM194.281 49.9037c-.003 1.7696 3.207 6.904 3.207 6.904s3.206-5.1278 3.206-6.8953a3.2055 3.2055 0 00-.22-1.2513 3.2117 3.2117 0 00-.688-1.0676 3.21 3.21 0 00-1.049-.7161 3.2058 3.2058 0 00-2.491 0 3.1996 3.1996 0 00-1.049.7161 3.1961 3.1961 0 00-.688 1.0676 3.2055 3.2055 0 00-.22 1.2513l-.008-.0087zM181.313 57.8158c.528 1.6889 5.119 5.6275 5.119 5.6275s1.527-5.8522.995-7.5411a3.203 3.203 0 00-5.832-.4691 3.1995 3.1995 0 00-.277 2.3827h-.005zM169.777 67.2358c.236 1.7456 4.094 6.4087 4.094 6.4087s2.489-5.5097 2.254-7.2619a3.206 3.206 0 00-.386-1.2085 3.1972 3.1972 0 00-.825-.964 3.1993 3.1993 0 00-1.134-.5683 3.2046 3.2046 0 00-3.409 1.1789 3.2032 3.2032 0 00-.594 2.4151z" fill="#464646"/><path d="M169.873 79.4749s1.453-14.9776 10.107-22.9421a22.8213 22.8213 0 007.057-12.5774c.423-2.3033.635-4.6407.631-6.9826" stroke="#535461" stroke-width="2" stroke-miterlimit="10"/><path d="M193.093 31.9192c-.655 1.6409-5.552 5.202-5.552 5.202s-1.052-5.9548-.39-7.5957a3.2023 3.2023 0 011.718-1.7492 3.206 3.206 0 012.453-.0216 3.2034 3.2034 0 011.749 1.7188c.332.7822.34 1.6643.022 2.4522v-.0065zM194.339 42.9866c-1.446 1.0168-7.484 1.3507-7.484 1.3507s2.352-5.573 3.799-6.5898a3.2012 3.2012 0 012.422-.599 3.2057 3.2057 0 012.117 1.32c.246.3505.42.7469.511 1.1657.091.4188.096.8516.017 1.2727-.08.4211-.243.8219-.48 1.1788a3.2097 3.2097 0 01-.902.8987v.0022zM187.867 58.431c-1.763.1484-7.144-2.6184-7.144-2.6184s4.845-3.6222 6.608-3.7706a3.2022 3.2022 0 013.46 2.9239 3.1971 3.1971 0 01-.745 2.336 3.203 3.203 0 01-2.179 1.1248v.0043zM180.336 69.0119c-1.713.4364-7.483-1.3681-7.483-1.3681s4.161-4.3881 5.874-4.8332a3.2023 3.2023 0 012.428.3395 3.2002 3.2002 0 011.477 1.9571 3.2073 3.2073 0 01-.339 2.428 3.2047 3.2047 0 01-1.957 1.4767zM180.489 42.1399c.715 1.6169 5.721 5.0188 5.721 5.0188s.851-5.9876.135-7.6046a3.2025 3.2025 0 00-4.194-1.5632 3.206 3.206 0 00-1.677 1.7392 3.198 3.198 0 00.015 2.4163v-.0065zM171.838 54.6256c1.168 1.3289 6.959 3.0702 6.959 3.0702s-.978-5.968-2.145-7.2968a3.2174 3.2174 0 00-.991-.7792 3.207 3.207 0 00-1.216-.3362 3.198 3.198 0 00-1.25.1588 3.2004 3.2004 0 00-1.858 1.6312 3.1967 3.1967 0 00-.319 1.2198c-.025.4237.035.8481.176 1.2485s.36.7687.644 1.0837zM165.099 67.9187c.925 1.5056 6.339 4.2004 6.339 4.2004s.045-6.0465-.873-7.5543a3.2059 3.2059 0 00-1.981-1.368 3.2022 3.2022 0 00-2.374.3979 3.2005 3.2005 0 00-1.427 1.9389 3.2045 3.2045 0 00.327 2.3851h-.011z" fill="#56B5CB"/><path d="M158.745 20.8189c.362-1.3288.798-2.6643 1.104-4.0106-.367 1.3463-.805 2.6861-1.104 4.0106z" fill="url(#paint0_linear)"/><path d="M157.122 33.619c-.031-.0523-.053-.1047-.077-.1527 0-.0218-.021-.0393-.03-.0611a1.3916 1.3916 0 01-.146.0589 3.4 3.4 0 01-.295.1004c-.1.0283-.142.0436-.218.0611a1.2616 1.2616 0 01-.194.0502l.017.0392c.081-.0174.159-.0327.24-.0545l.022.2706c.092 0 .177-.0131.26-.0131.039-.0022.078-.0022.117 0h.437c-.046-.0982-.094-.2008-.133-.299zm44.296 70.509c-1.026-1.381-3.073-16.2063-3.073-16.2063s-4.026-10.5415-2.928-14.7485c1.097-4.207-2.998-14.9711-2.998-14.9711s-2.706-1.1761-2.852-2.9218c0 0-11.048-3.4913-11.565-6.1098-.419-2.1471-7.271-3.6876-9.732-4.1742-.751-3.0287-1.506-5.8545-2.062-7.3972-.151-.4801-.293-.8946-.423-1.222-.941-2.4002-3.847-2.6184-5.955-2.4264a3.2535 3.2535 0 00-.5-1.1412.6255.6255 0 00-.199-.3033 1.1131 1.1131 0 00-.144-.1048.6853.6853 0 00-.148-.1876 1.0703 1.0703 0 00-.196-.1397 1.4008 1.4008 0 00-.157-.072 2.1282 2.1282 0 00-.391-.1069 3.205 3.205 0 00-.471-.0611 2.876 2.876 0 001.006-.7354 2.102 2.102 0 00.412-.7593c.069-.232.1-.4738.092-.7157a1.8898 1.8898 0 01-.197.2815c.092-.9667-.419-1.9486-.711-2.9109a8.615 8.615 0 01-.192-3.8513c.292-1.9333 1.017-3.8885 1.508-5.8567a.1786.1786 0 000-.0327c.257-.9775.417-1.9782.475-2.9872.085-2.0359-.436-4.0674-1.274-5.9222-.744-1.643-1.842-3.26-3.522-3.9277-1.248-.504-2.647-.4233-3.991-.5062-3.015-.1877-5.891-1.2481-8.759-2.2126-2.867-.9645-5.817-1.8417-8.835-1.6736-3.017.168-6.123 1.6234-7.499 4.2942-.437.8336-.688 1.761-1.209 2.5443-.978 1.4773-2.728 2.217-4.188 3.236-1.459 1.019-2.745 2.4657-3.273 4.1918a5.5982 5.5982 0 00-.118 2.8694c.048.2146.109.426.184.6328.207.5765.53 1.1045.949 1.5514.316.3303.679.6119 1.078.8357.5.2775 1.036.486 1.593.6197-.02.0655-.04.1353-.061.203a9.4843 9.4843 0 00-.099.3382c-.072.2684-.139.5411-.196.8161a.2899.2899 0 000 .0589 17.7633 17.7633 0 00-.401 3.7771c-.001.6005.03 1.2007.091 1.798.873 8.8548 8.183 15.8396 17.214 16.2935.31.0152.622.024.939.024h.436c.142.1876.282.3797.415.5673.133.1877.255.3797.371.5673l-.317-.3273-.316-.2902c-.086.1177-.181.228-.286.3295a5.2775 5.2775 0 00-.631-.1789c-.905-.2008-2.284-.275-4.1.2727-1.669.4997-3.709 1.5275-6.096 3.4804l-11.633 6.9826-6.293 3.8273-2.267 5.5425s-1.704 6.5854-3.6 14.131a3.4518 3.4518 0 00-.219.0698 4.0753 4.0753 0 00-.462-.0262 4.253 4.253 0 00-4.2597 4.0826c-3.7706 4.5824-3.9844 9.1647-3.0985 11.2682a3.006 3.006 0 00.3011.5608c.5805.8379 1.6649 2.9981 2.7647 5.3004-.0284.19-.0458.349-.0545.469a1.161 1.161 0 000 .118s.6546 9.887-1.5275 12.721c-.4779.618-.4059 1.429 0 2.328 1.462 3.234 7.2424 7.553 7.2424 7.553s6.932-.038 10.795-.459c-.011.389-.02.775-.029 1.152-.087 3.815-.087 7.011-.087 7.011l-.144 4s-1.309 8.429-1.964 10.753c-.412 1.458.063 14.954.478 24.876h68.303c.803-5.87-.33-23.704-.33-23.704s-1.076-4.611-1.115-8.63a.032.032 0 01-.003-.014c0-.005.001-.01.003-.014 0-.352 0-.694.013-1.03l.496-.018.89-.03h.081s.021-.083.072-.219c.117-.337.278-.657.477-.953.38-.561.974-1.111 1.866-1.148.493-.02 1.257-.419 2.119-1.008.006.001.012.001.017 0 2.32-1.569 5.386-4.464 6.13-4.94 1.023-.655 5.924-5.019 5.924-5.019s.731-.925 1.51-2.04l.028-.039c.969-1.397 1.999-3.066 1.746-3.592-.436-.943.292-3.197.292-3.197 2.276-4.165-.135-9.686-1.16-11.067zm-42.195-67.1159a.8588.8588 0 01.039.2008c-.054-.072-.109-.1484-.163-.2182l-.053-.0699-.037-.0523.083-.1135v.0153a.7502.7502 0 01.131.2378zm-.733-1.9333c-.238.048-.426.0917-.548.1244-.155-.2749-.303-.5499-.436-.8292.35.203.679.439.984.7048zm-.41.3448a.029.029 0 010-.0131l.017.0131c.09.0589.177.1156.258.1745.072.0524.137.1026.203.155-.044.0763-.092.1549-.14.2182-.076-.12-.148-.2357-.218-.3557-.044-.048-.083-.1135-.12-.192zm-1.31-2.6927a6.4572 6.4572 0 011.268 0c.059 0 .112.0109.164.0197.118.0183.234.0482.347.0894.258.3608.416.7829.46 1.2242l-.118.0174-.115.0218c-.218.0371-.437.0742-.607.1091l-.218.0459c-.29.0632-.458.1112-.465.1134-.028-.0589-.057-.1134-.087-.1702-.048-.0938-.098-.1898-.142-.2836-.044-.0939-.1-.2008-.146-.299-.031-.0523-.052-.1047-.076-.1527 0-.0218-.022-.0393-.031-.0611a.4868.4868 0 01-.033-.072c-.133-.2706-.255-.5412-.373-.8074-.013-.0262-.024-.0545-.035-.0807l.166-.0109v.0567l.041.24zM104.709 168.093c-.018-3.249-.253-6.765-.908-10.064-.279-1.403-.567-2.806-.86-4.185-.074-.345-.146-.685-.218-1.026l-.672.09h-.061c-1.833-8.643-3.7489-16.259-3.7489-16.259s-3.8055-14.53-3.3647-15.689c.0567-.15-.0153-.556-.1768-1.152-.9208-3.304-4.7656-12.407-6.1097-15.519 0-.013-.0109-.028-.0153-.039-.2182-.521-.3753-.873-.4233-.975l.3164-4.6438.0174-.2793.0415-.5935-.0175-.0153.0175-.2749s-3.3211-2.7232-8.9464-4.6892a22.1614 22.1614 0 00-.6787-.2291c.2815-1.8788.6546-3.9998 1.1412-6.0662.0459-.2073.0961-.408.1484-.6109.0458-.203.0982-.3994.1506-.5979.0829-.323.1724-.6416.264-.9558.3033-.096.6023-.2029.8968-.3164l.1135-.0436a16.1038 16.1038 0 009.8193-18.7657 16.0148 16.0148 0 00-2.8105-5.9243 13.4613 13.4613 0 00-.3142-.4037c-.107-.1331-.2357-.2815-.3557-.4167.6306-1.4337 1.3747-2.7974 1.4358-4.1918a4.3024 4.3024 0 000-.5302v-.0218c-.0808-.8969-.4779-1.8046-1.4031-2.7582-1.3507-1.3987-3.2731-2.1078-5.1955-2.4482-1.9224-.3404-3.8818-.3492-5.8152-.5783-3.2054-.384-6.3279-1.3725-9.5334-1.6758a22.6521 22.6521 0 00-11.5278 1.9639c-2.385 1.091-4.8005 2.9981-4.9445 5.6144-.1179 2.1624 1.3878 4.2354 1.0081 6.3716-.3775 2.0991-2.5159 3.751-2.3283 5.8741.072.8292.4975 1.5711 1.03 2.2323.1833.2182.3775.4364.5782.6546.7768.8226 1.6322 1.6125 2.0664 2.649.0175.0436.0349.0873.0502.1309.3688 1.0234.2029 2.3174-.7092 2.9043a.0321.0321 0 01.0109.0153c.0131.0175.0262.0305.0371.048a.0147.0147 0 000-.0109 2.3873 2.3873 0 001.246.7768l.1855.0567c-.1506.1637-.2924.3339-.4364.5128l-.0939.1244a9.094 9.094 0 00-.6546 1.0147c-.1113.1963-.2182.3927-.3077.5891a7.4023 7.4023 0 00-.6437 1.8919c-.2334 1.4445.096 2.9501-.2575 4.3641-.4364 1.7456-1.8176 3.0854-2.5966 4.7067-1.4751 3.0549-.6393 6.64-.3426 10.0134.4037 4.5825-.2509 9.1845-.9034 13.7365-.3462 2.42-.6924 4.843-1.0386 7.268-.8728 6.087-1.7457 12.173-2.6185 18.259-.3186 2.231-.6961 4.583-2.182 6.304h.0152s0 .014-.0152.018c.446.195.9205.317 1.4052.362 1.9399.194 3.9953-.744 5.741-1.77a27.0685 27.0685 0 003.9124-2.747c-.1789.655-.3709 1.368-.576 2.136a.1345.1345 0 010 .022c-2.4636 9.383-6.4262 26.584-6.4262 26.584s-.36.749-.827 1.864h61.534c-.72-.873-1.39-1.709-1.914-2.383l-.211-.303zM59.1473 81.3341c.0153-.0262.0262-.0502.0415-.0742v.4735c0 .0305 0 0 0 0 0 .0895-.0196.1789-.0349.2684v.0196l.2182.0808.2531.1047a65.4842 65.4842 0 004.5431 1.6038c.1571.0502.3164.0982.4757.144l.0327.2706c.0393.2771.0764.5586.1113.8401v.0218c.0982.779.1942 1.5558.2793 2.3152 0 0-4.0063-1.5275-3.9561.7921a1.1205 1.1205 0 000 .1243 1.0442 1.0442 0 000 .1659c.0371 1.8067.6022 2.8781.7157 3.428a.1543.1543 0 01-.0349.0611 1.193 1.193 0 00-.096.6742 6.641 6.641 0 00.0916 1.1653c-.1178.072-.2334.144-.3491.2182-.0873.0545-.1702.1156-.2553.1767a32.4014 32.4014 0 00-2.0926-5.394c-.6001-1.2351-1.2743-2.5225-1.2678-3.8775 0-.0873 0-.1768.011-.2663a4.5831 4.5831 0 01.2225-1.1543 5.759 5.759 0 01.1659-.4189c.1426-.3267.3021-.6457.4778-.9558.1135-.2051.2335-.408.3492-.6131.037-.0611.072-.1244.1069-.1855l-.0088-.0087zM157.122 33.619c-.031-.0523-.053-.1047-.077-.1527 0-.0218-.021-.0393-.03-.0611a1.3916 1.3916 0 01-.146.0589 3.4 3.4 0 01-.295.1004c-.1.0283-.142.0436-.218.0611l-.194.0502.017.0392c.081-.0174.159-.0327.24-.0545l.022.2706c.092 0 .177-.0131.26-.0131h.554c-.046-.0982-.094-.2008-.133-.299z" fill="url(#paint1_linear)"/><path d="M109.443 65.6691l-1.309.5783s-8.5343 33.1542-8.5343 35.8336c0 2.68 18.0953 17.59 18.0953 17.59l2.824-19.058s-4.054-43.7048-11.076-34.9439z" fill="#E8F5FF"/><path d="M149.137 55.1231l-7.561-3.9452a15.135 15.135 0 00-2.217-5.0514c-1.106-1.5973-2.577-3.1662-4.41-3.9845-4.632-2.0773 19.595-12.981 19.595-12.981.382 1.3098.831 2.599 1.347 3.8622 1.248 3.0811 3.318 7.0655 5.987 8.2002 4.537 1.9311-12.741 13.8997-12.741 13.8997z" fill="#FFC1C7"/><path opacity=".1" d="M155.89 33.0232a18.057 18.057 0 01-6.154 9.2155 18.0619 18.0619 0 01-10.377 3.8878c-1.106-1.5973-2.577-3.1662-4.41-3.9845-4.632-2.0773 19.595-12.981 19.595-12.981.382 1.3098.831 2.599 1.346 3.8622z" fill="#464646"/><path d="M156.571 27.518a18.0518 18.0518 0 01-3.04 10.0306 18.0524 18.0524 0 01-27.776 2.7393 18.0468 18.0468 0 01-4.941-9.2435 18.0535 18.0535 0 011.027-10.4308 18.056 18.056 0 016.65-8.1018 18.0498 18.0498 0 0110.03-3.0416 17.969 17.969 0 016.92 1.3514 17.9611 17.9611 0 015.867 3.9101 17.9809 17.9809 0 013.911 5.8666 17.967 17.967 0 011.352 6.9197z" fill="#FFC1C7"/><path d="M159.176 52.8058l-4.923 11.4863-4.342 7.6241h-13.9l-4.054-10.4237 1.643-10.8098h10.616l6.854-.3863 2.315-.7724 1.492.8466 4.299 2.4352z" fill="#575A89"/><path opacity=".1" d="M157.482 37.4942s3.07.6546.32 2.9087c-2.749 2.2541-12.234 9.4221-12.234 9.4221s3.332 2.9676 2.642 6.4436l11.039-6.1534 1.964-9.8454s.22-2.9589-3.731-2.7756z" fill="#464646"/><path opacity=".1" d="M147.739 49.8252l-7.022 1.1587s1.449 5.357.725 6.8779c-.022.0472-.04.0961-.055.1462l-2.865 7.7441 2.147 6.0814 7.433-10.1357-2.534-3.836s2.678-3.5481 4.27-4.7788c1.593-1.2306-2.099-3.2578-2.099-3.2578z" fill="#464646"/><path d="M147.739 49.5263l-7.022 1.1565s1.449 5.357.725 6.8778c-.022.0473-.04.0962-.055.1462l-2.865 7.7442 2.147 6.0814 7.433-10.1422-2.534-3.8361s2.678-3.548 4.27-4.7787c1.593-1.2307-2.099-3.2491-2.099-3.2491z" fill="#DCE6F2"/><path d="M157.776 36.9161s3.07.6546.319 2.9087c-2.752 2.254-12.527 10.0003-12.527 10.0003s3.62 2.3894 2.932 5.8632l11.039-6.1512 1.964-9.8454s.218-2.9589-3.727-2.7756z" fill="#575A89"/><path opacity=".1" d="M139.841 46.8094s.67 1.2525 3.626 3.511c0 0-4.922 2.6184-3.039 6.2996l-7.531-1.9639-1.158-3.62 8.102-4.2267z" fill="#464646"/><path d="M139.551 46.5216s.67 1.2525 3.627 3.5109c0 0-4.923 2.6054-3.04 6.2974l-7.528-1.9638-1.158-3.6179 8.099-4.2266z" fill="#575A89"/><path opacity=".1" d="M159.176 52.806l-4.923 11.4863-4.333 7.6241h-13.909l-4.054-10.4237 1.641-10.8098h2.952c-.048 2.5224.873 5.4856.814 6.5876-.1 1.8111 2.702 11.5823 2.702 11.5823s5.863-9.4832 8.178-10.3276c1.455-.5303 4.539-4.9424 6.631-8.1544l4.301 2.4352z" fill="#464646"/><path d="M178.569 113.251l-.499.628s3.62 18.17 2.618 22.297c-.17.743-.267 1.502-.29 2.265v.032c-.177 4.199 1.091 9.647 1.091 9.647s1.013 16.06.436 22.665h-67.779c-.397-9.767-.824-22.42-.436-23.823.655-2.316 1.964-10.714 1.964-10.714l.144-3.98s0-3.847.118-8.133c.05-1.927.124-3.949.231-5.743.137-2.256.329-4.157.593-5.091.163-.708.257-1.43.28-2.156 0-.067 0-.137.013-.207 0-.218.022-.454.03-.696v-.218c.042-1.406.027-3.073-.019-4.801v-.286c-.037-1.296-.092-2.618-.153-3.875-.19-3.9277-.436-7.2488-.436-7.2488L108.15 66.232l2.243-5.525 6.226-3.8142 11.51-6.9499c5.614-4.615 9.311-4.0608 10.72-3.5546.137.0468.271.1014.402.1637.044.0218.078.0393.111.0589.045.0212.088.046.129.0742a2.6648 2.6648 0 00-.978.8052 3.5688 3.5688 0 00-.604 1.3092 5.9999 5.9999 0 00-.155.8925c-.028.3164-.039.6437-.039.9732a16.77 16.77 0 00.185 2.158v.048c.072.5106.162 1.0103.249 1.4795a.0964.0964 0 000 .024c.1.5477.201 1.0539.268 1.4903.013.0786.024.1506.035.2182.048.2884.071.5805.068.8728.025.706.12 1.4078.284 2.0948.056.2881.122.5957.194.9165.098.4364.205.9121.321 1.3965.063.2662.13.5412.2.8139.027.1091.055.2182.081.3295l.044.1724c.464 1.8482.969 3.6877 1.278 4.8005.184.6546.299 1.0583.299 1.0583s3.287-5.3133 5.909-8.3376c.04-.0437.075-.0851.112-.1244a14.05 14.05 0 01.759-.8117c.535-.5325 1.015-.9121 1.401-1.0518.082-.0302.162-.0674.238-.1113 1.073-.6088 2.806-2.8192 4.427-5.1344.159-.2182.314-.456.471-.6808.36-.5193.71-1.0408 1.039-1.5405.253-.3818.495-.7528.725-1.1063 1.091-1.6976 1.859-2.9632 1.859-2.9632l1.514-.0677.264-.0131h.177l6.875-.3185s.297.0501.786.1483c.026 0 .052 0 .081.0175 2.439.4844 9.217 2.0184 9.631 4.1459.507 2.6054 11.439 6.0814 11.439 6.0814.144 1.7456 2.821 2.8956 2.821 2.8956s4.054 10.7139 2.97 14.9122c-1.071 4.1459 2.789 14.4016 2.891 14.6896l-.74.9339-18.301 23.1495z" fill="#E8F5FF"/><path opacity=".1" d="M157.48 36.7328s6.692-1.8984 8.213 2.0097c1.521 3.908 4.923 19.6908 4.923 19.6908s-8.833 1.6649-11.148 0a6.6713 6.6713 0 00-4.707-1.2307l-4.995 3.4018-1.475-.4364s7.991-11.8791 9.728-15.9159c1.737-4.0368 2.324-5.8413-.539-7.5193z" fill="#464646"/><path d="M157.189 35.86s6.697-1.8984 8.225 2.0096c1.527 3.9081 4.922 19.6909 4.922 19.6909s-8.83 1.6649-11.148 0a6.6626 6.6626 0 00-4.704-1.2307l-4.999 3.4018-1.475-.4364s7.99-11.8791 9.727-15.9159c1.737-4.0368 2.315-5.837-.548-7.5193z" fill="#E8F5FF"/><path opacity=".1" d="M112.268 98.8232s4.994 1.2308 5.937 4.0538c.943 2.824-3.692 2.896-3.692 2.896s-2.824-4.995-2.245-6.9498zM130.87 119.671s-12.232 25.047-9.409 27.437c2.824 2.389 9.409-27.437 9.409-27.437zM147.738 101.213s9.774 24.33 7.818 28.087c-1.955 3.758 4.199 0 4.199 0l-12.017-28.087z" fill="#464646"/><path d="M161.348 125.246s-33.01 1.593-23.38 11.873c9.629 10.279 29.39.436 29.39.436l-6.01-12.309z" fill="#FFC1C7"/><path opacity=".1" d="M156.571 27.5179a17.9705 17.9705 0 01-1.368 6.8997c-.303.0349-.607.0567-.899.0698-.437-.9579-.203-2.0642-.194-3.1181.008-1.054-.38-2.2934-1.395-2.5771-2.023-.5695-3.419 3.212-5.413 2.5291-1.528-.5194-1.129-2.8367-2.008-4.1743-.696-1.0583-2.09-1.3573-3.175-2.0206-2.306-1.4162-2.236-3.6811-3.308-5.8239-1.121-2.2454-3.491-1.582-5.549-.2575-1.562 1.0081-2.911 2.3588-4.582 3.1618-1.447.6982-3.072.9514-4.676.9885a10.2774 10.2774 0 01-2.933-.3099 18.0493 18.0493 0 017.394-10.3546 18.0527 18.0527 0 0123.615 3.0817 18.0563 18.0563 0 014.489 11.9054h.002z" fill="#464646"/><path d="M133.269 18.4668c-1.564 1.0081-2.911 2.3566-4.582 3.164-1.447.696-3.072.9492-4.676.9863-1.964.0436-4.079-.3012-5.42-1.7195-1.233-1.3092-1.528-3.3233-1.006-5.0406.521-1.7172 1.771-3.1421 3.24-4.1742 1.468-1.0322 3.173-1.7457 4.146-3.223.515-.7811.764-1.702 1.191-2.5333 1.368-2.66 4.445-4.1001 7.419-4.279 2.974-.179 5.922.707 8.755 1.667 2.832.9602 5.686 2.0163 8.675 2.2149 1.332.0829 2.715 0 3.95.504 1.661.6743 2.749 2.2868 3.491 3.9277.832 1.8504 1.349 3.871 1.262 5.8916-.184 4.3139-3.034 8.5471-1.781 12.6799.332 1.102.954 2.2323.622 3.3342-.485 1.6082-2.56 1.9748-4.238 2.0511-.436-.9579-.203-2.0664-.194-3.1181.009-1.0518-.38-2.2934-1.392-2.577-2.025-.5652-3.422 3.2098-5.412 2.529-1.516-.5215-1.123-2.8367-2.005-4.1743-.696-1.0605-2.092-1.3572-3.175-2.0206-2.306-1.4161-2.236-3.6811-3.308-5.8239-1.13-2.2563-3.502-1.5929-5.562-.2662z" fill="#99607E"/><path d="M101.261 101.501l-1.6654.58s.6544 9.845-1.5274 12.669c-2.182 2.824 7.1658 9.843 7.1658 9.843s12.813-.072 13.175-1.091c.362-1.019-.654-18.242-.654-18.242s-6.878-2.679-6.3-6.9496c0 0-2.099 10.0616-5.211 9.6276-3.111-.435-6.644-3.033-4.983-6.437z" fill="#E8F5FF"/><path opacity=".1" d="M106.814 110.984c2.426 0 4.393-1.799 4.393-4.017 0-2.219-1.967-4.018-4.393-4.018-2.426 0-4.392 1.799-4.392 4.018 0 2.218 1.966 4.017 4.392 4.017z" fill="#464646"/><path d="M111.616 101.791s-.872-26.6386-8.47-20.7034c-7.5983 5.9352-7.6725 13.0334-6.2258 15.1304 1.4468 2.0969 6.0858 12.595 6.0858 12.595.726.42 1.541.663 2.378.708.838.045 1.674-.109 2.44-.45a5.2981 5.2981 0 001.969-1.51c.528-.651.894-1.419 1.068-2.239l.755-3.531z" fill="#FFC1C7"/><path opacity=".1" d="M159.014 34.3151a.6453.6453 0 00-.197-.3011c-.375-.3426-1.182-.4626-2.4-.3579l.05.5761c1.624-.1397 1.945.1833 1.986.2378v.0546l.05.072c.203.272.346.5833.421.914.075.3307.081.6734.016 1.0062-.356 1.7784-2.54 3.1945-2.562 3.2098l-.053.0305-.032.0502c-.943 1.3987-6.274 5.3461-7.668 6.3673l-.122-.1397c-.624.5412-6.11 5.3439-6.407 7.1834-.192 1.1543-1.492 1.6016-1.964 1.726-.497-.3775-2.112-1.6627-2.952-3.1029-.788-1.3551 2.383-3.9997 2.662-5.0318l-.436-.4474c-.046.1659-4.118 3.9714-2.985 5.9156.907 1.5602 2.566 2.8956 3.146 3.3364-.185 1.6845-1.339 11.5758-3.114 13.9194-2.203 2.913-4.056 17.5939-3.851 22.7196.181 4.554-1.008 13.1558-4.979 16.8498a6.3713 6.3713 0 01-2.427 1.474c-.909.302-1.875.395-2.826.272h-.096c-.056 0-5.817.589-10.657-3.492-3.96-3.332-6.203-8.7693-6.67-16.1665h-.096l-.04-2.1537a4.1996 4.1996 0 002.698-1.6105 4.1933 4.1933 0 00.826-3.0317 4.201 4.201 0 00-1.508-2.7564 4.201 4.201 0 00-5.81.4656 4.2015 4.2015 0 00.248 5.8229 4.2004 4.2004 0 002.92 1.1603h.048l.039 2.1406-.192.0131c.481 7.6372 2.837 13.2863 6.983 16.7753a16.1436 16.1436 0 0011.262 3.686c.29.032.581.048.872.048 1.873.01 3.675-.715 5.019-2.018 4.183-3.895 5.455-12.8136 5.257-17.5225-.218-5.4311 1.726-19.584 3.677-22.161 1.911-2.529 3.07-12.3832 3.273-14.2925.691-.1942 2.256-.8073 2.522-2.4002.192-1.1522 3.856-4.7024 6.11-6.6684l-.068-.0786c1.213-.8859 4.986-3.6789 6.856-5.4726.581-.5564 1.157-1.1128 1.759-1.6431.724-.6415 1.645-1.6605 1.887-2.865.083-.3976.083-.8079.002-1.2057a2.9783 2.9783 0 00-.477-1.1073z" fill="#464646"/><path d="M139.493 55.4765c-.092-.0632-2.265-1.6191-3.354-3.4913-1.13-1.9442 2.941-5.7475 2.985-5.9133l.437.4473c-.278 1.0299-3.448 3.6768-2.66 5.0296.992 1.7086 3.083 3.2033 3.105 3.2186l-.513.7091z" fill="#353146"/><path d="M148.341 46.5979l-.34-.4692c.07-.0502 6.924-5.0078 8.004-6.6116l.035-.048.05-.0328c.022-.0152 2.206-1.4292 2.562-3.2098.065-.3324.06-.6749-.015-1.0053a2.4163 2.4163 0 00-.422-.9127l-.05-.0742v-.0524c-.044-.0567-.364-.3775-1.988-.2378l-.05-.5783c1.22-.1047 2.025.0153 2.4.3579a.6562.6562 0 01.199.3033 2.9823 2.9823 0 01.493 2.3152c-.242 1.2066-1.161 2.2257-1.888 2.865-.6.5303-1.178 1.091-1.756 1.6431-2.193 2.1013-6.994 5.5752-7.234 5.7476zM104.529 88.2771l-.578.0106.064 3.5148.578-.0106-.064-3.5148z" fill="#E8F5FF"/><path d="M103.904 88.8098c2.331 0 4.222-1.8904 4.222-4.2223 0-2.3319-1.891-4.2223-4.222-4.2223-2.332 0-4.2227 1.8904-4.2227 4.2223 0 2.3319 1.8907 4.2223 4.2227 4.2223z" fill="#56B5CB"/><path d="M103.903 88.0942c1.936 0 3.506-1.57 3.506-3.5066 0-1.9367-1.57-3.5066-3.506-3.5066-1.937 0-3.507 1.5699-3.507 3.5066 0 1.9366 1.57 3.5066 3.507 3.5066z" fill="#E8F5FF"/><path d="M122.923 111.468c-.292.001-.583-.015-.873-.046a16.1712 16.1712 0 01-11.262-3.685c-4.146-3.491-6.498-9.1342-6.982-16.7779l.872-.0546c.467 7.3972 2.711 12.8375 6.673 16.1665 4.84 4.07 10.599 3.492 10.655 3.492h.096a6.392 6.392 0 002.827-.273 6.388 6.388 0 002.428-1.473c3.969-3.694 5.158-12.2959 4.977-16.8498-.218-5.13 1.634-19.8109 3.84-22.7218 1.931-2.5508 3.129-14.0481 3.143-14.1637l.032-.3273.323-.0568c.02 0 1.905-.3578 2.141-1.7674.305-1.8373 5.782-6.64 6.404-7.1834l.57.6546c-2.263 1.9639-5.927 5.5163-6.11 6.6706-.266 1.5973-1.831 2.2082-2.52 2.4003-.219 1.9114-1.369 11.7634-3.273 14.2924-1.951 2.577-3.895 16.7299-3.677 22.161.187 4.7089-1.072 13.6293-5.255 17.5223a7.16 7.16 0 01-5.029 2.02z" fill="#353146"/><g opacity=".1" fill="#464646"><path opacity=".1" d="M158.431 22.3594c.358-1.3223.79-2.6534 1.091-3.9931-.36 1.3463-.795 2.6708-1.091 3.9931zM154.78 32.7505c-.436-.9579-.203-2.0664-.194-3.1182.009-1.0517-.38-2.2824-1.392-2.577-2.025-.5651-3.422 3.212-5.412 2.529-1.527-.5215-1.123-2.8367-2.005-4.1743-.696-1.0604-2.09-1.3572-3.173-2.0205-2.308-1.4162-2.238-3.6812-3.308-5.824-1.123-2.2475-3.491-1.5841-5.551-.2574-1.564 1.0081-2.911 2.3588-4.582 3.1639-1.447.6961-3.072.9492-4.676.9863-1.953.0459-4.079-.3011-5.421-1.7194-1.034-1.0911-1.407-2.6905-1.193-4.1896-.037.1026-.07.2051-.103.3077-.523 1.7173-.218 3.7357 1.006 5.0405 1.342 1.4184 3.468 1.7631 5.421 1.7195 1.606-.0371 3.229-.2902 4.678-.9863 1.676-.8073 3.022-2.1559 4.582-3.164 2.06-1.3267 4.43-1.99 5.551.2575 1.07 2.1428 1.002 4.4078 3.308 5.8239 1.091.6546 2.477.9601 3.175 2.0206.873 1.342.487 3.6528 2.006 4.1743 1.987.6808 3.384-3.0942 5.409-2.529 1.012.2837 1.403 1.5274 1.392 2.577-.011 1.0496-.238 2.1602.194 3.1182 1.678-.0764 3.753-.4365 4.24-2.0512.067-.2317.098-.4724.092-.7135-.71 1.2241-2.534 1.5383-4.044 1.606z"/></g><path opacity=".1" d="M194.217 86.5165l2.533 2.6796s2.027 14.7659 3.04 16.1469c1.012 1.382 3.404 6.876 1.158 11.002 0 0-.724 2.246-.29 3.186.434.941-3.256 5.647-3.256 5.647s-4.85 4.343-5.865 4.995c-1.015.652-6.369 5.863-8.178 5.935-1.809.072-2.401 2.318-2.401 2.318l-10.207.362s-5.639-.295-6.865.502c0 0 .655-8.615-5.645-14.262l8.034-2.896s3.042-1.309 3.983-2.677a4.909 4.909 0 012.4-1.809s2.243-1.593 2.315-2.462c.072-.868 2.743-1.933 2.743-1.933l-1.512-12.907.796-21.4276s2.534-17.954 7.891-16.9394c5.356 1.0147 9.326 24.5395 9.326 24.5395z" fill="#464646"/><path d="M195.089 86.5165l2.533 2.6796s2.028 14.7659 3.04 16.1469c1.013 1.382 3.404 6.876 1.159 11.002 0 0-.722 2.246-.288 3.186.434.941-3.258 5.647-3.258 5.647s-4.851 4.343-5.865 4.995c-1.015.652-6.37 5.863-8.179 5.935-1.809.072-2.4 2.318-2.4 2.318l-10.208.362s-5.643-.295-6.864.502c0 0 .654-8.615-5.645-14.262l8.034-2.896s3.042-1.309 3.982-2.677a4.9136 4.9136 0 012.4-1.809s2.244-1.593 2.316-2.462c.072-.868 2.742-1.933 2.742-1.933l-1.512-12.907.797-21.4276s2.533-17.954 7.89-16.9394c5.357 1.0147 9.326 24.5395 9.326 24.5395z" fill="#E8F5FF"/><path opacity=".1" d="M185.672 108.163s7.456-1.964 9.411.436c1.955 2.4-9.411-.436-9.411-.436zM183.934 111.455c2.534 1.774 10.352 1.846 10.352 1.846l-10.352-1.846zM187.77 120.323c.218.072 5.375 5.575 7.539 3.91 2.165-1.665-7.539-3.91-7.539-3.91zM118.329 74.1376s1.515 10.426.768 14.6723c-.746 4.2463 1.977 9.5072 1.977 9.5072l-2.745-24.1795z" fill="#464646"/><path d="M84.8043 78.3774c-1.7457 1.3682-3.02 4.6064-3.943 8.1653-1.6104 6.208-2.1363 13.4067-2.1363 13.4067s-13.8998-3.1859-12.8874-4.6326c.6372-.9099-.2182-7.766-.9317-12.7367-.4255-2.9371-.8052-5.2173-.8052-5.2173s25.4823-2.7516 20.7036 1.0146z" fill="#FFCCD0"/><path opacity=".1" d="M84.8043 78.0871c-1.7457 1.3704-3.02 4.6064-3.943 8.1653a16.0384 16.0384 0 01-15.9554-3.9604c-.4255-2.9393-.8052-5.2195-.8052-5.2195s25.4823-2.7494 20.7036 1.0146z" fill="#464646"/><path d="M92.2745 70.2886a16.077 16.077 0 01-13.3681 15.8536 16.0778 16.0778 0 01-17.8756-10.5123 16.0774 16.0774 0 0127.7066-15.3963 16.0683 16.0683 0 013.5371 10.055z" fill="#FFCCD0"/><path opacity=".1" d="M104.949 170.785h-4.583l-.3858-8.093-.4037-8.377s1.0405-.155 2.6995-.386l.67-.09H103c.362 1.7.72 3.446 1.065 5.189.574 3.096.873 6.235.892 9.383v.642c.014.582 0 1.165-.008 1.732z" fill="#464646"/><path d="M104.07 170.785H46.603c.2488-.565.4146-.907.4146-.907s4.5976-20.115 6.9346-28.625a.1154.1154 0 000-.022c.292-1.156.6445-2.295 1.0561-3.414.0266-.077.061-.15.1026-.219 1.1565-1.881 2.6054-3.908.5782-6.803-2.0271-2.896-1.3092-15.637-1.3092-15.637s2.4614-10.86 5.0667-16.6512a7.7911 7.7911 0 011.654-2.4002 6.7682 6.7682 0 01.7245-.6154 6.3672 6.3672 0 01.6066-.4037l.0414-.0261a8.7533 8.7533 0 013.5634-1.1063 10.1656 10.1656 0 012.673.0741c4.2244.6197 7.6066 1.6562 10.2949 2.8367 7.2859 3.2011 9.492 7.4911 9.5356 7.5801l.0175.037c.2924.683 4.5692 10.669 6.1098 15.327.3993 1.213.6175 2.067.5302 2.3-.4364 1.157 3.3298 15.635 3.3298 15.635s1.7457 6.982 3.4917 15.167c.076.34.148.681.218 1.026.312 1.486.622 3 .921 4.512.579 3.117.878 6.279.892 9.448.032.988.039 1.95.02 2.887z" fill="#FF748E"/><path opacity=".1" d="M65.6931 88.9756s-3.9648-1.5274-3.9168.7899c.048 2.3174.9667 3.4258.6765 3.7641-.2903.3382.144 2.3653.144 2.3653s5.3569 0 7.8183 1.1085c2.4614 1.1085 11.5344 3.3296 12.693 4.0066 1.1587.676 5.4552 3.709 5.4552 3.709l.3862-5.743s-4.4405-3.668-11.7264-5.549c-7.2859-1.8809-11.53-4.4514-11.53-4.4514z" fill="#464646"/><path d="M65.6931 88.6854s-3.9648-1.5275-3.9168.7899c.048 2.3173.9667 3.4258.6765 3.764-.2903.3382.144 2.3654.144 2.3654s5.3569 0 7.8183 1.1107c2.4613 1.1106 11.5343 3.3296 12.693 4.0036 1.1587.675 5.4552 3.71 5.4552 3.71l.3905-5.7258s-4.4405-3.668-11.7263-5.549c-7.2859-1.8809-11.5344-4.4688-11.5344-4.4688z" fill="#FF748E"/><path opacity=".1" d="M77.6613 102.507s7.5761 8.202 7.1898 10.473c-.3862 2.272-7.1898-10.473-7.1898-10.473zM65.3546 132.137s-5.5533 5.116-7.1898 5.407c-1.6366.29 1.2547 1.254 3.1356.484 1.8809-.77 5.8915-2.797 5.8915-2.797l-1.8373-3.094z" fill="#464646"/><path d="M106.326 170.785H93.3751c-1.8111-1.571-3.5241-3.026-4.6151-3.901-1.7456-1.401-3.0047-3.463-3.8077-5.121a21.5634 21.5634 0 01-.4713-1.052 17.599 17.599 0 01-.6285-1.691l9.5902-5.695c.53.45 1.028.937 1.4904 1.457l.1156.133c.5324.629 1.0016 1.342 1.043 1.927.0481.681 1.9421 3.315 3.8776 5.844 1.9637 2.572 3.9757 5.031 4.1087 5.197 0 0 .332.452.873 1.146.382.502.853 1.104 1.375 1.756z" fill="#FFCCD0"/><path opacity=".1" d="M88.7377 60.2334c-.4605 1.0387-.8729 2.1166-.934 3.2731-.1724 3.3386.107 10.8034-3.5895 12.4792-1.8307.8249-3.7902-.9863-5.7977-1.0299-1.4445-.0306-2.7691.8859-3.6506 2.0315-.8816 1.1456-1.4293 2.505-2.0686 3.8012a25.9777 25.9777 0 01-2.0053 3.3822 8.521 8.521 0 01-.7419.9361 16.0736 16.0736 0 01-9.275-10.6423A16.073 16.073 0 0183.048 55.7573a16.075 16.075 0 015.6897 4.4848v-.0087z" fill="#464646"/><path d="M87.5142 62.9175c-.1746 3.3386.1069 10.8034-3.5917 12.477-1.8307.8248-3.7902-.9841-5.7977-1.0277-1.4446-.0328-2.7669.8859-3.6506 2.0293-.8838 1.1434-1.4271 2.505-2.0686 3.8033a26.018 26.018 0 01-2.0053 3.3822c-.4495.6372-.947 1.2765-1.6388 1.6344-1.2044.6284-2.6642.2749-3.956-.1288a64.757 64.757 0 01-4.9533-1.7849 4.9938 4.9938 0 00.0567-.7419c-.048.0916-.1003.1767-.1527.2684l-.1026.1789c-.1854.3273-.3666.6546-.5324.9907a6.3743 6.3743 0 00-.1789.3949 5.0183 5.0183 0 00-.4081 1.5624c-.1113 1.4554.6066 2.8366 1.2438 4.1459 2.4505 5.0645 3.9648 10.9864 2.121 16.3004-.7987 2.31-2.1821 4.364-3.1924 6.596a21.3119 21.3119 0 00-1.4903 12.608c.504 2.644 1.5143 5.263 1.2656 7.945-.4364 4.615-4.4165 8.049-8.4032 10.41-2.1536 1.27-4.7896 2.401-7.0764 1.397 1.4576-1.702 1.833-4.057 2.1472-6.278.8597-6.059 1.7216-12.121 2.5857-18.185.3448-2.414.6888-4.827 1.0321-7.24.6415-4.535 1.2918-9.119.8903-13.6818-.2924-3.3625-1.1172-6.9324.3404-9.9764.7703-1.6125 2.1428-2.9479 2.5705-4.6848.3513-1.4118.024-2.9131.2553-4.3511a7.4076 7.4076 0 01.6371-1.8853 9.2665 9.2665 0 011.462-2.23c-.5848-.1702-1.1303-.4037-1.462-.8925.9383-.611 1.0802-1.9878.6547-3.0221-.4255-1.0343-1.2766-1.8221-2.0425-2.6381-.7659-.8161-1.5034-1.7675-1.5994-2.8804-.1855-2.1187 1.9311-3.7596 2.3043-5.85.3774-2.1276-1.1151-4.1961-.9951-6.3498.1397-2.6032 2.5312-4.4951 4.8922-5.5927a22.2572 22.2572 0 0111.4078-1.9638c3.1815.3011 6.2604 1.2852 9.4331 1.6671 1.9136.2182 3.8535.24 5.7541.576 1.9005.3361 3.8055 1.0453 5.1431 2.4396 3.5262 3.6768-.6983 6.7033-.899 10.5786z" fill="#FFE0D0"/><path opacity=".1" d="M84.5633 161.765c-1.1128-.483-3.1378-.195-6.6138-1.253-3.476-1.058-4.1459-5.841-4.1459-5.841v-.016c-.0415-.109-.3644-.82-2.5509-3.312-2.4155-2.751-7.6372-16.649-7.6372-16.649s-4.6303-4.973-4.4841-6.806c.1462-1.833-.8226-6.71-.7266-12.165.096-5.455 10.4237-9.073 10.4237-9.073 19.8851-3.524 15.2024 19.401 14.6721 21.138-.5302 1.737 2.2214 6.428 2.2214 6.428-.3884 2.043 1.5929 5.204 1.5929 5.204s.48 2.798.5782 3.86c.0055.05.0164.098.0328.144.3185 1.002 2.9152 1.91 3.9713 2.462 1.1107.58 4.6827 5.647 4.6827 5.647.7703 3.72-10.9081 10.72-12.0166 10.232z" fill="#464646"/><path d="M85.1418 160.892c-1.1107-.484-3.1378-.194-6.6117-1.255-3.4738-1.06-4.1459-5.839-4.1459-5.839v-.015c-.0393-.111-.3644-.821-2.5508-3.313-2.4156-2.751-7.6373-16.651-7.6373-16.651s-4.6303-4.971-4.4863-6.804c.144-1.832-.8204-6.709-.7244-12.16.096-5.451 10.4171-9.067 10.4171-9.067 19.8852-3.524 15.2025 19.401 14.6722 21.138-.5302 1.737 2.2214 6.428 2.2214 6.428-.3884 2.043 1.5929 5.205 1.5929 5.205s.48 2.797.5804 3.86a.5526.5526 0 00.0306.144c.3185 1.001 2.9152 1.909 3.9735 2.461 1.1085.578 4.6827 5.647 4.6827 5.647.7746 3.714-10.9038 10.714-12.0144 10.221z" fill="#FF748E"/><path opacity=".1" d="M69.7957 117.757s8.6867 9.165 10.9539 9.165c2.2671 0-10.9539-9.165-10.9539-9.165z" fill="#464646"/><path d="M85.1415 160.892c-1.1107-.485-3.1378-.194-6.6117-1.255-3.4738-1.06-4.1459-5.839-4.1459-5.839v-.015c2.3021-1.528 8.1325-5.842 10.4303-7.419 1.6169-1.106 2.937-2.732 3.7095-3.81.3185 1.002 2.9152 1.909 3.9735 2.461 1.1085.579 4.6827 5.647 4.6827 5.647.7506 3.723-10.9278 10.723-12.0384 10.23z" fill="#FF748E"/><g opacity=".1" fill="#464646"><path opacity=".1" d="M53.473 75.9769c.0109.0174.0262.0327.0393.0501a5.4763 5.4763 0 01.2027-.2442 1.6198 1.6198 0 01-.242.1941zM58.5364 85.9796c.0917-1.211.7397-2.278 1.3463-3.3429-.3971-.1527-.7942-.3076-1.187-.4691a4.9379 4.9379 0 00.0567-.7397c-.6131 1.091-1.2808 2.1646-1.3747 3.3931-.1112 1.4576.6067 2.8366 1.2438 4.1459 2.4527 5.0624 3.9648 10.9845 2.121 16.3001-.8008 2.309-2.1821 4.364-3.1924 6.596a21.3047 21.3047 0 00-1.4881 12.606c.4996 2.647 1.5121 5.263 1.2634 7.945-.4364 4.615-4.4143 8.05-8.4031 10.408-1.63.965-3.535 1.849-5.357 1.785a6.5449 6.5449 0 01-.563.775c2.289 1.01 4.9228-.127 7.0764-1.401 3.991-2.357 7.9777-5.782 8.4141-10.406.2487-2.682-.7637-5.298-1.2656-7.945a21.322 21.322 0 011.4838-12.606c1.0037-2.23 2.4002-4.288 3.1923-6.596 1.8439-5.316.3295-11.2379-2.1209-16.3003-.635-1.3179-1.3573-2.6904-1.246-4.1481z"/><path opacity=".1" d="M88.4084 52.3651a6.2985 6.2985 0 00-.6895-.611c2.6447 3.4302-1.1739 6.3454-1.3638 10.0374-.1702 3.3386.1091 10.8055-3.5895 12.477-1.8285.827-3.7902-.9841-5.7955-1.0278-1.4467-.0305-2.7691.8881-3.6528 2.0315-.8837 1.1434-1.4271 2.505-2.0664 3.8011a26.1253 26.1253 0 01-2.0075 3.3822c-.4364.6394-.947 1.2765-1.6409 1.6366-1.2001.6262-2.6599.2749-3.9539-.131a61.8933 61.8933 0 01-3.7401-1.3092 4.7159 4.7159 0 01-.0567.6786 63.8014 63.8014 0 004.9555 1.7849c1.2917.4059 2.7515.7572 3.9539.131.6917-.3601 1.1935-.9994 1.6409-1.6388a25.7028 25.7028 0 002.0053-3.38c.6415-1.2961 1.1827-2.6599 2.0686-3.8033.8859-1.1434 2.206-2.0598 3.6506-2.0293 2.0075.0437 3.9691 1.8548 5.7977 1.0278 3.6986-1.6715 3.4171-9.1384 3.5895-12.477.2008-3.8818 4.4252-6.9062.8946-10.5807z"/></g><path opacity=".1" d="M59.6562 83.01c-.1855.3273-.3666.6546-.5324.9906a6.4106 6.4106 0 00-.179.395c-1.1434-1.1522-3.9277-3.8906-5.4813-4.7394a9.3058 9.3058 0 011.462-2.2301s3.7029 1.9573 4.7307 5.5839z" fill="#464646"/><path d="M59.7587 82.831c-.8575-3.8819-4.8332-5.9832-4.8332-5.9832a9.2591 9.2591 0 00-1.462 2.2301c1.6387.8968 4.6587 3.9037 5.6603 4.9227l.6349-1.1696z" fill="#FF748E"/></g><defs><linearGradient id="paint0_linear" x1="159.297" y1="20.8189" x2="159.297" y2="16.8083" gradientUnits="userSpaceOnUse"><stop stop-color="gray" stop-opacity=".25"/><stop offset=".54" stop-color="gray" stop-opacity=".12"/><stop offset="1" stop-color="gray" stop-opacity=".1"/></linearGradient><linearGradient id="paint1_linear" x1="100107" y1="143689" x2="100107" y2="10018.3" gradientUnits="userSpaceOnUse"><stop stop-color="gray" stop-opacity=".25"/><stop offset=".54" stop-color="gray" stop-opacity=".12"/><stop offset="1" stop-color="gray" stop-opacity=".1"/></linearGradient><clipPath id="clip0"><path fill="#fff" d="M0 0h237v170.783H0z"/></clipPath></defs></svg>