<svg width="319" height="497" viewBox="0 0 319 497" fill="none" xmlns="http://www.w3.org/2000/svg">
<g filter="url(#filter0_d_3092_1084)">
<rect x="5" y="1" width="309" height="487" rx="10" fill="#F8F7F7"/>
<rect x="4.5" y="0.5" width="310" height="488" rx="10.5" stroke="#F1F1F1"/>
</g>
<path d="M70.692 316V303.4H72.618L78.126 312.598H77.118L82.536 303.4H84.462L84.48 316H82.266L82.248 306.874H82.716L78.108 314.56H77.064L72.384 306.874H72.924V316H70.692ZM92.1854 316.126C91.1174 316.126 90.1814 315.916 89.3774 315.496C88.5854 315.064 87.9674 314.476 87.5234 313.732C87.0914 312.988 86.8754 312.142 86.8754 311.194C86.8754 310.234 87.0854 309.388 87.5054 308.656C87.9374 307.912 88.5254 307.33 89.2694 306.91C90.0254 306.49 90.8834 306.28 91.8434 306.28C92.7794 306.28 93.6134 306.484 94.3454 306.892C95.0774 307.3 95.6534 307.876 96.0734 308.62C96.4934 309.364 96.7034 310.24 96.7034 311.248C96.7034 311.344 96.6974 311.452 96.6854 311.572C96.6854 311.692 96.6794 311.806 96.6674 311.914H88.6574V310.42H95.4794L94.5974 310.888C94.6094 310.336 94.4954 309.85 94.2554 309.43C94.0154 309.01 93.6854 308.68 93.2654 308.44C92.8574 308.2 92.3834 308.08 91.8434 308.08C91.2914 308.08 90.8054 308.2 90.3854 308.44C89.9774 308.68 89.6534 309.016 89.4134 309.448C89.1854 309.868 89.0714 310.366 89.0714 310.942V311.302C89.0714 311.878 89.2034 312.388 89.4674 312.832C89.7314 313.276 90.1034 313.618 90.5834 313.858C91.0634 314.098 91.6154 314.218 92.2394 314.218C92.7794 314.218 93.2654 314.134 93.6974 313.966C94.1294 313.798 94.5134 313.534 94.8494 313.174L96.0554 314.56C95.6234 315.064 95.0774 315.454 94.4174 315.73C93.7694 315.994 93.0254 316.126 92.1854 316.126ZM101.835 316.126C101.031 316.126 100.257 316.024 99.5127 315.82C98.7807 315.604 98.1987 315.346 97.7667 315.046L98.6307 313.336C99.0627 313.612 99.5787 313.84 100.179 314.02C100.779 314.2 101.379 314.29 101.979 314.29C102.687 314.29 103.197 314.194 103.509 314.002C103.833 313.81 103.995 313.552 103.995 313.228C103.995 312.964 103.887 312.766 103.671 312.634C103.455 312.49 103.173 312.382 102.825 312.31C102.477 312.238 102.087 312.172 101.655 312.112C101.235 312.052 100.809 311.974 100.377 311.878C99.9567 311.77 99.5727 311.62 99.2247 311.428C98.8767 311.224 98.5947 310.954 98.3787 310.618C98.1627 310.282 98.0547 309.838 98.0547 309.286C98.0547 308.674 98.2287 308.146 98.5767 307.702C98.9247 307.246 99.4107 306.898 100.035 306.658C100.671 306.406 101.421 306.28 102.285 306.28C102.933 306.28 103.587 306.352 104.247 306.496C104.907 306.64 105.453 306.844 105.885 307.108L105.021 308.818C104.565 308.542 104.103 308.356 103.635 308.26C103.179 308.152 102.723 308.098 102.267 308.098C101.583 308.098 101.073 308.2 100.737 308.404C100.413 308.608 100.251 308.866 100.251 309.178C100.251 309.466 100.359 309.682 100.575 309.826C100.791 309.97 101.073 310.084 101.421 310.168C101.769 310.252 102.153 310.324 102.573 310.384C103.005 310.432 103.431 310.51 103.851 310.618C104.271 310.726 104.655 310.876 105.003 311.068C105.363 311.248 105.651 311.506 105.867 311.842C106.083 312.178 106.191 312.616 106.191 313.156C106.191 313.756 106.011 314.278 105.651 314.722C105.303 315.166 104.805 315.514 104.157 315.766C103.509 316.006 102.735 316.126 101.835 316.126ZM111.098 316.126C110.294 316.126 109.52 316.024 108.776 315.82C108.044 315.604 107.462 315.346 107.03 315.046L107.894 313.336C108.326 313.612 108.842 313.84 109.442 314.02C110.042 314.2 110.642 314.29 111.242 314.29C111.95 314.29 112.46 314.194 112.772 314.002C113.096 313.81 113.258 313.552 113.258 313.228C113.258 312.964 113.15 312.766 112.934 312.634C112.718 312.49 112.436 312.382 112.088 312.31C111.74 312.238 111.35 312.172 110.918 312.112C110.498 312.052 110.072 311.974 109.64 311.878C109.22 311.77 108.836 311.62 108.488 311.428C108.14 311.224 107.858 310.954 107.642 310.618C107.426 310.282 107.318 309.838 107.318 309.286C107.318 308.674 107.492 308.146 107.84 307.702C108.188 307.246 108.674 306.898 109.298 306.658C109.934 306.406 110.684 306.28 111.548 306.28C112.196 306.28 112.85 306.352 113.51 306.496C114.17 306.64 114.716 306.844 115.148 307.108L114.284 308.818C113.828 308.542 113.366 308.356 112.898 308.26C112.442 308.152 111.986 308.098 111.53 308.098C110.846 308.098 110.336 308.2 110 308.404C109.676 308.608 109.514 308.866 109.514 309.178C109.514 309.466 109.622 309.682 109.838 309.826C110.054 309.97 110.336 310.084 110.684 310.168C111.032 310.252 111.416 310.324 111.836 310.384C112.268 310.432 112.694 310.51 113.114 310.618C113.534 310.726 113.918 310.876 114.266 311.068C114.626 311.248 114.914 311.506 115.13 311.842C115.346 312.178 115.454 312.616 115.454 313.156C115.454 313.756 115.274 314.278 114.914 314.722C114.566 315.166 114.068 315.514 113.42 315.766C112.772 316.006 111.998 316.126 111.098 316.126ZM123.314 316V314.056L123.188 313.642V310.24C123.188 309.58 122.99 309.07 122.594 308.71C122.198 308.338 121.598 308.152 120.794 308.152C120.254 308.152 119.72 308.236 119.192 308.404C118.676 308.572 118.238 308.806 117.878 309.106L116.996 307.468C117.512 307.072 118.124 306.778 118.832 306.586C119.552 306.382 120.296 306.28 121.064 306.28C122.456 306.28 123.53 306.616 124.286 307.288C125.054 307.948 125.438 308.974 125.438 310.366V316H123.314ZM120.29 316.126C119.57 316.126 118.94 316.006 118.4 315.766C117.86 315.514 117.44 315.172 117.14 314.74C116.852 314.296 116.708 313.798 116.708 313.246C116.708 312.706 116.834 312.22 117.086 311.788C117.35 311.356 117.776 311.014 118.364 310.762C118.952 310.51 119.732 310.384 120.704 310.384H123.494V311.878H120.866C120.098 311.878 119.582 312.004 119.318 312.256C119.054 312.496 118.922 312.796 118.922 313.156C118.922 313.564 119.084 313.888 119.408 314.128C119.732 314.368 120.182 314.488 120.758 314.488C121.31 314.488 121.802 314.362 122.234 314.11C122.678 313.858 122.996 313.486 123.188 312.994L123.566 314.344C123.35 314.908 122.96 315.346 122.396 315.658C121.844 315.97 121.142 316.126 120.29 316.126ZM132.699 319.618C131.811 319.618 130.941 319.498 130.089 319.258C129.249 319.03 128.559 318.694 128.019 318.25L129.027 316.558C129.447 316.906 129.975 317.182 130.611 317.386C131.259 317.602 131.913 317.71 132.573 317.71C133.629 317.71 134.403 317.464 134.895 316.972C135.387 316.492 135.633 315.766 135.633 314.794V313.084L135.813 310.906L135.741 308.728V306.388H137.883V314.542C137.883 316.282 137.439 317.56 136.551 318.376C135.663 319.204 134.379 319.618 132.699 319.618ZM132.411 315.568C131.499 315.568 130.671 315.376 129.927 314.992C129.195 314.596 128.613 314.05 128.181 313.354C127.761 312.658 127.551 311.842 127.551 310.906C127.551 309.982 127.761 309.172 128.181 308.476C128.613 307.78 129.195 307.24 129.927 306.856C130.671 306.472 131.499 306.28 132.411 306.28C133.227 306.28 133.959 306.442 134.607 306.766C135.255 307.09 135.771 307.594 136.155 308.278C136.551 308.962 136.749 309.838 136.749 310.906C136.749 311.974 136.551 312.856 136.155 313.552C135.771 314.236 135.255 314.746 134.607 315.082C133.959 315.406 133.227 315.568 132.411 315.568ZM132.753 313.66C133.317 313.66 133.821 313.546 134.265 313.318C134.709 313.078 135.051 312.754 135.291 312.346C135.543 311.926 135.669 311.446 135.669 310.906C135.669 310.366 135.543 309.892 135.291 309.484C135.051 309.064 134.709 308.746 134.265 308.53C133.821 308.302 133.317 308.188 132.753 308.188C132.189 308.188 131.679 308.302 131.223 308.53C130.779 308.746 130.431 309.064 130.179 309.484C129.939 309.892 129.819 310.366 129.819 310.906C129.819 311.446 129.939 311.926 130.179 312.346C130.431 312.754 130.779 313.078 131.223 313.318C131.679 313.546 132.189 313.66 132.753 313.66ZM145.359 316.126C144.291 316.126 143.355 315.916 142.551 315.496C141.759 315.064 141.141 314.476 140.697 313.732C140.265 312.988 140.049 312.142 140.049 311.194C140.049 310.234 140.259 309.388 140.679 308.656C141.111 307.912 141.699 307.33 142.443 306.91C143.199 306.49 144.057 306.28 145.017 306.28C145.953 306.28 146.787 306.484 147.519 306.892C148.251 307.3 148.827 307.876 149.247 308.62C149.667 309.364 149.877 310.24 149.877 311.248C149.877 311.344 149.871 311.452 149.859 311.572C149.859 311.692 149.853 311.806 149.841 311.914H141.831V310.42H148.653L147.771 310.888C147.783 310.336 147.669 309.85 147.429 309.43C147.189 309.01 146.859 308.68 146.439 308.44C146.031 308.2 145.557 308.08 145.017 308.08C144.465 308.08 143.979 308.2 143.559 308.44C143.151 308.68 142.827 309.016 142.587 309.448C142.359 309.868 142.245 310.366 142.245 310.942V311.302C142.245 311.878 142.377 312.388 142.641 312.832C142.905 313.276 143.277 313.618 143.757 313.858C144.237 314.098 144.789 314.218 145.413 314.218C145.953 314.218 146.439 314.134 146.871 313.966C147.303 313.798 147.687 313.534 148.023 313.174L149.229 314.56C148.797 315.064 148.251 315.454 147.591 315.73C146.943 315.994 146.199 316.126 145.359 316.126ZM152.039 316V306.388H154.181V309.034L153.929 308.26C154.217 307.612 154.667 307.12 155.279 306.784C155.903 306.448 156.677 306.28 157.601 306.28V308.422C157.505 308.398 157.415 308.386 157.331 308.386C157.247 308.374 157.163 308.368 157.079 308.368C156.227 308.368 155.549 308.62 155.045 309.124C154.541 309.616 154.289 310.354 154.289 311.338V316H152.039ZM159.509 316V306.388H161.759V316H159.509ZM160.643 304.804C160.223 304.804 159.875 304.672 159.599 304.408C159.335 304.144 159.203 303.826 159.203 303.454C159.203 303.07 159.335 302.752 159.599 302.5C159.875 302.236 160.223 302.104 160.643 302.104C161.063 302.104 161.405 302.23 161.669 302.482C161.945 302.722 162.083 303.028 162.083 303.4C162.083 303.796 161.951 304.132 161.687 304.408C161.423 304.672 161.075 304.804 160.643 304.804ZM169.23 316.126C168.162 316.126 167.226 315.916 166.422 315.496C165.63 315.064 165.012 314.476 164.568 313.732C164.136 312.988 163.92 312.142 163.92 311.194C163.92 310.234 164.13 309.388 164.55 308.656C164.982 307.912 165.57 307.33 166.314 306.91C167.07 306.49 167.928 306.28 168.888 306.28C169.824 306.28 170.658 306.484 171.39 306.892C172.122 307.3 172.698 307.876 173.118 308.62C173.538 309.364 173.748 310.24 173.748 311.248C173.748 311.344 173.742 311.452 173.73 311.572C173.73 311.692 173.724 311.806 173.712 311.914H165.702V310.42H172.524L171.642 310.888C171.654 310.336 171.54 309.85 171.3 309.43C171.06 309.01 170.73 308.68 170.31 308.44C169.902 308.2 169.428 308.08 168.888 308.08C168.336 308.08 167.85 308.2 167.43 308.44C167.022 308.68 166.698 309.016 166.458 309.448C166.23 309.868 166.116 310.366 166.116 310.942V311.302C166.116 311.878 166.248 312.388 166.512 312.832C166.776 313.276 167.148 313.618 167.628 313.858C168.108 314.098 168.66 314.218 169.284 314.218C169.824 314.218 170.31 314.134 170.742 313.966C171.174 313.798 171.558 313.534 171.894 313.174L173.1 314.56C172.668 315.064 172.122 315.454 171.462 315.73C170.814 315.994 170.07 316.126 169.23 316.126Z" fill="#505050"/>
<path d="M68.91 360L74.58 347.4H76.884L82.572 360H80.124L75.246 348.642H76.182L71.322 360H68.91ZM71.52 357.084L72.15 355.248H78.954L79.584 357.084H71.52ZM83.9584 360V346.644H86.2084V360H83.9584ZM93.6795 360.126C92.6115 360.126 91.6755 359.916 90.8715 359.496C90.0795 359.064 89.4615 358.476 89.0175 357.732C88.5855 356.988 88.3695 356.142 88.3695 355.194C88.3695 354.234 88.5795 353.388 88.9995 352.656C89.4315 351.912 90.0195 351.33 90.7635 350.91C91.5195 350.49 92.3775 350.28 93.3375 350.28C94.2735 350.28 95.1075 350.484 95.8395 350.892C96.5715 351.3 97.1475 351.876 97.5675 352.62C97.9875 353.364 98.1975 354.24 98.1975 355.248C98.1975 355.344 98.1915 355.452 98.1795 355.572C98.1795 355.692 98.1735 355.806 98.1615 355.914H90.1515V354.42H96.9735L96.0915 354.888C96.1035 354.336 95.9895 353.85 95.7495 353.43C95.5095 353.01 95.1795 352.68 94.7595 352.44C94.3515 352.2 93.8775 352.08 93.3375 352.08C92.7855 352.08 92.2995 352.2 91.8795 352.44C91.4715 352.68 91.1475 353.016 90.9075 353.448C90.6795 353.868 90.5655 354.366 90.5655 354.942V355.302C90.5655 355.878 90.6975 356.388 90.9615 356.832C91.2255 357.276 91.5975 357.618 92.0775 357.858C92.5575 358.098 93.1095 358.218 93.7335 358.218C94.2735 358.218 94.7595 358.134 95.1915 357.966C95.6235 357.798 96.0075 357.534 96.3435 357.174L97.5495 358.56C97.1175 359.064 96.5715 359.454 95.9115 359.73C95.2635 359.994 94.5195 360.126 93.6795 360.126ZM100.359 360V350.388H102.501V353.034L102.249 352.26C102.537 351.612 102.987 351.12 103.599 350.784C104.223 350.448 104.997 350.28 105.921 350.28V352.422C105.825 352.398 105.735 352.386 105.651 352.386C105.567 352.374 105.483 352.368 105.399 352.368C104.547 352.368 103.869 352.62 103.365 353.124C102.861 353.616 102.609 354.354 102.609 355.338V360H100.359ZM111.799 360.126C110.743 360.126 109.927 359.856 109.351 359.316C108.775 358.764 108.487 357.954 108.487 356.886V348.264H110.737V356.832C110.737 357.288 110.851 357.642 111.079 357.894C111.319 358.146 111.649 358.272 112.069 358.272C112.573 358.272 112.993 358.14 113.329 357.876L113.959 359.478C113.695 359.694 113.371 359.856 112.987 359.964C112.603 360.072 112.207 360.126 111.799 360.126ZM106.903 352.26V350.46H113.311V352.26H106.903ZM120.012 360.126C118.944 360.126 118.008 359.916 117.204 359.496C116.412 359.064 115.794 358.476 115.35 357.732C114.918 356.988 114.702 356.142 114.702 355.194C114.702 354.234 114.912 353.388 115.332 352.656C115.764 351.912 116.352 351.33 117.096 350.91C117.852 350.49 118.71 350.28 119.67 350.28C120.606 350.28 121.44 350.484 122.172 350.892C122.904 351.3 123.48 351.876 123.9 352.62C124.32 353.364 124.53 354.24 124.53 355.248C124.53 355.344 124.524 355.452 124.512 355.572C124.512 355.692 124.506 355.806 124.494 355.914H116.484V354.42H123.306L122.424 354.888C122.436 354.336 122.322 353.85 122.082 353.43C121.842 353.01 121.512 352.68 121.092 352.44C120.684 352.2 120.21 352.08 119.67 352.08C119.118 352.08 118.632 352.2 118.212 352.44C117.804 352.68 117.48 353.016 117.24 353.448C117.012 353.868 116.898 354.366 116.898 354.942V355.302C116.898 355.878 117.03 356.388 117.294 356.832C117.558 357.276 117.93 357.618 118.41 357.858C118.89 358.098 119.442 358.218 120.066 358.218C120.606 358.218 121.092 358.134 121.524 357.966C121.956 357.798 122.34 357.534 122.676 357.174L123.882 358.56C123.45 359.064 122.904 359.454 122.244 359.73C121.596 359.994 120.852 360.126 120.012 360.126ZM129.661 360.126C128.857 360.126 128.083 360.024 127.339 359.82C126.607 359.604 126.025 359.346 125.593 359.046L126.457 357.336C126.889 357.612 127.405 357.84 128.005 358.02C128.605 358.2 129.205 358.29 129.805 358.29C130.513 358.29 131.023 358.194 131.335 358.002C131.659 357.81 131.821 357.552 131.821 357.228C131.821 356.964 131.713 356.766 131.497 356.634C131.281 356.49 130.999 356.382 130.651 356.31C130.303 356.238 129.913 356.172 129.481 356.112C129.061 356.052 128.635 355.974 128.203 355.878C127.783 355.77 127.399 355.62 127.051 355.428C126.703 355.224 126.421 354.954 126.205 354.618C125.989 354.282 125.881 353.838 125.881 353.286C125.881 352.674 126.055 352.146 126.403 351.702C126.751 351.246 127.237 350.898 127.861 350.658C128.497 350.406 129.247 350.28 130.111 350.28C130.759 350.28 131.413 350.352 132.073 350.496C132.733 350.64 133.279 350.844 133.711 351.108L132.847 352.818C132.391 352.542 131.929 352.356 131.461 352.26C131.005 352.152 130.549 352.098 130.093 352.098C129.409 352.098 128.899 352.2 128.563 352.404C128.239 352.608 128.077 352.866 128.077 353.178C128.077 353.466 128.185 353.682 128.401 353.826C128.617 353.97 128.899 354.084 129.247 354.168C129.595 354.252 129.979 354.324 130.399 354.384C130.831 354.432 131.257 354.51 131.677 354.618C132.097 354.726 132.481 354.876 132.829 355.068C133.189 355.248 133.477 355.506 133.693 355.842C133.909 356.178 134.017 356.616 134.017 357.156C134.017 357.756 133.837 358.278 133.477 358.722C133.129 359.166 132.631 359.514 131.983 359.766C131.335 360.006 130.561 360.126 129.661 360.126Z" fill="#505050"/>
<path d="M76.578 404.18C75.594 404.18 74.688 404.024 73.86 403.712C73.044 403.388 72.33 402.938 71.718 402.362C71.106 401.774 70.632 401.084 70.296 400.292C69.96 399.5 69.792 398.636 69.792 397.7C69.792 396.764 69.96 395.9 70.296 395.108C70.632 394.316 71.106 393.632 71.718 393.056C72.342 392.468 73.068 392.018 73.896 391.706C74.724 391.382 75.63 391.22 76.614 391.22C77.682 391.22 78.642 391.394 79.494 391.742C80.358 392.09 81.084 392.6 81.672 393.272L80.196 394.712C79.704 394.22 79.17 393.86 78.594 393.632C78.03 393.392 77.406 393.272 76.722 393.272C76.062 393.272 75.45 393.38 74.886 393.596C74.322 393.812 73.836 394.118 73.428 394.514C73.02 394.91 72.702 395.378 72.474 395.918C72.258 396.458 72.15 397.052 72.15 397.7C72.15 398.336 72.258 398.924 72.474 399.464C72.702 400.004 73.02 400.478 73.428 400.886C73.836 401.282 74.316 401.588 74.868 401.804C75.42 402.02 76.032 402.128 76.704 402.128C77.328 402.128 77.928 402.032 78.504 401.84C79.092 401.636 79.65 401.3 80.178 400.832L81.51 402.578C80.85 403.106 80.082 403.508 79.206 403.784C78.342 404.048 77.466 404.18 76.578 404.18ZM79.296 402.272V397.556H81.51V402.578L79.296 402.272ZM84.3803 404V394.388H86.5223V397.034L86.2703 396.26C86.5583 395.612 87.0083 395.12 87.6203 394.784C88.2443 394.448 89.0183 394.28 89.9423 394.28V396.422C89.8463 396.398 89.7563 396.386 89.6723 396.386C89.5883 396.374 89.5043 396.368 89.4203 396.368C88.5683 396.368 87.8903 396.62 87.3863 397.124C86.8823 397.616 86.6303 398.354 86.6303 399.338V404H84.3803ZM97.0875 404V402.056L96.9615 401.642V398.24C96.9615 397.58 96.7635 397.07 96.3675 396.71C95.9715 396.338 95.3715 396.152 94.5675 396.152C94.0275 396.152 93.4935 396.236 92.9655 396.404C92.4495 396.572 92.0115 396.806 91.6515 397.106L90.7695 395.468C91.2855 395.072 91.8975 394.778 92.6055 394.586C93.3255 394.382 94.0695 394.28 94.8375 394.28C96.2295 394.28 97.3035 394.616 98.0595 395.288C98.8275 395.948 99.2115 396.974 99.2115 398.366V404H97.0875ZM94.0635 404.126C93.3435 404.126 92.7135 404.006 92.1735 403.766C91.6335 403.514 91.2135 403.172 90.9135 402.74C90.6255 402.296 90.4815 401.798 90.4815 401.246C90.4815 400.706 90.6075 400.22 90.8595 399.788C91.1235 399.356 91.5495 399.014 92.1375 398.762C92.7255 398.51 93.5055 398.384 94.4775 398.384H97.2675V399.878H94.6395C93.8715 399.878 93.3555 400.004 93.0915 400.256C92.8275 400.496 92.6955 400.796 92.6955 401.156C92.6955 401.564 92.8575 401.888 93.1815 402.128C93.5055 402.368 93.9555 402.488 94.5315 402.488C95.0835 402.488 95.5755 402.362 96.0075 402.11C96.4515 401.858 96.7695 401.486 96.9615 400.994L97.3395 402.344C97.1235 402.908 96.7335 403.346 96.1695 403.658C95.6175 403.97 94.9155 404.126 94.0635 404.126ZM107.427 404.126C106.647 404.126 105.933 403.946 105.285 403.586C104.649 403.226 104.139 402.686 103.755 401.966C103.383 401.234 103.197 400.31 103.197 399.194C103.197 398.066 103.377 397.142 103.737 396.422C104.109 395.702 104.613 395.168 105.249 394.82C105.885 394.46 106.611 394.28 107.427 394.28C108.375 394.28 109.209 394.484 109.929 394.892C110.661 395.3 111.237 395.87 111.657 396.602C112.089 397.334 112.305 398.198 112.305 399.194C112.305 400.19 112.089 401.06 111.657 401.804C111.237 402.536 110.661 403.106 109.929 403.514C109.209 403.922 108.375 404.126 107.427 404.126ZM102.099 407.492V394.388H104.241V396.656L104.169 399.212L104.349 401.768V407.492H102.099ZM107.175 402.2C107.715 402.2 108.195 402.08 108.615 401.84C109.047 401.6 109.389 401.252 109.641 400.796C109.893 400.34 110.019 399.806 110.019 399.194C110.019 398.57 109.893 398.036 109.641 397.592C109.389 397.136 109.047 396.788 108.615 396.548C108.195 396.308 107.715 396.188 107.175 396.188C106.635 396.188 106.149 396.308 105.717 396.548C105.285 396.788 104.943 397.136 104.691 397.592C104.439 398.036 104.313 398.57 104.313 399.194C104.313 399.806 104.439 400.34 104.691 400.796C104.943 401.252 105.285 401.6 105.717 401.84C106.149 402.08 106.635 402.2 107.175 402.2ZM119.893 394.28C120.661 394.28 121.345 394.43 121.945 394.73C122.557 395.03 123.037 395.492 123.385 396.116C123.733 396.728 123.907 397.52 123.907 398.492V404H121.657V398.78C121.657 397.928 121.453 397.292 121.045 396.872C120.649 396.452 120.091 396.242 119.371 396.242C118.843 396.242 118.375 396.35 117.967 396.566C117.559 396.782 117.241 397.106 117.013 397.538C116.797 397.958 116.689 398.492 116.689 399.14V404H114.439V390.644H116.689V396.98L116.203 396.188C116.539 395.576 117.025 395.108 117.661 394.784C118.309 394.448 119.053 394.28 119.893 394.28ZM126.761 404V394.388H129.011V404H126.761ZM127.895 392.804C127.475 392.804 127.127 392.672 126.851 392.408C126.587 392.144 126.455 391.826 126.455 391.454C126.455 391.07 126.587 390.752 126.851 390.5C127.127 390.236 127.475 390.104 127.895 390.104C128.315 390.104 128.657 390.23 128.921 390.482C129.197 390.722 129.335 391.028 129.335 391.4C129.335 391.796 129.203 392.132 128.939 392.408C128.675 392.672 128.327 392.804 127.895 392.804ZM136.032 404.126C135.108 404.126 134.274 403.922 133.53 403.514C132.798 403.106 132.222 402.536 131.802 401.804C131.382 401.06 131.172 400.19 131.172 399.194C131.172 398.198 131.382 397.334 131.802 396.602C132.222 395.87 132.798 395.3 133.53 394.892C134.274 394.484 135.108 394.28 136.032 394.28C136.86 394.28 137.586 394.46 138.21 394.82C138.846 395.168 139.344 395.702 139.704 396.422C140.076 397.142 140.262 398.066 140.262 399.194C140.262 400.31 140.07 401.234 139.686 401.966C139.314 402.686 138.81 403.226 138.174 403.586C137.538 403.946 136.824 404.126 136.032 404.126ZM136.284 402.2C136.824 402.2 137.31 402.08 137.742 401.84C138.174 401.6 138.516 401.252 138.768 400.796C139.02 400.34 139.146 399.806 139.146 399.194C139.146 398.57 139.02 398.036 138.768 397.592C138.516 397.136 138.174 396.788 137.742 396.548C137.31 396.308 136.824 396.188 136.284 396.188C135.744 396.188 135.258 396.308 134.826 396.548C134.406 396.788 134.07 397.136 133.818 397.592C133.566 398.036 133.44 398.57 133.44 399.194C133.44 399.806 133.566 400.34 133.818 400.796C134.07 401.252 134.406 401.6 134.826 401.84C135.258 402.08 135.744 402.2 136.284 402.2ZM139.11 407.492V401.768L139.29 399.212L139.218 396.656V394.388H141.36V407.492H139.11ZM148.372 404.126C147.556 404.126 146.836 403.976 146.212 403.676C145.588 403.364 145.102 402.896 144.754 402.272C144.406 401.636 144.232 400.838 144.232 399.878V394.388H146.482V399.572C146.482 400.436 146.674 401.084 147.058 401.516C147.454 401.936 148.012 402.146 148.732 402.146C149.26 402.146 149.716 402.038 150.1 401.822C150.496 401.606 150.802 401.282 151.018 400.85C151.246 400.418 151.36 399.884 151.36 399.248V394.388H153.61V404H151.468V401.408L151.846 402.2C151.522 402.824 151.048 403.304 150.424 403.64C149.8 403.964 149.116 404.126 148.372 404.126ZM161.074 404.126C160.006 404.126 159.07 403.916 158.266 403.496C157.474 403.064 156.856 402.476 156.412 401.732C155.98 400.988 155.764 400.142 155.764 399.194C155.764 398.234 155.974 397.388 156.394 396.656C156.826 395.912 157.414 395.33 158.158 394.91C158.914 394.49 159.772 394.28 160.732 394.28C161.668 394.28 162.502 394.484 163.234 394.892C163.966 395.3 164.542 395.876 164.962 396.62C165.382 397.364 165.592 398.24 165.592 399.248C165.592 399.344 165.586 399.452 165.574 399.572C165.574 399.692 165.568 399.806 165.556 399.914H157.546V398.42H164.368L163.486 398.888C163.498 398.336 163.384 397.85 163.144 397.43C162.904 397.01 162.574 396.68 162.154 396.44C161.746 396.2 161.272 396.08 160.732 396.08C160.18 396.08 159.694 396.2 159.274 396.44C158.866 396.68 158.542 397.016 158.302 397.448C158.074 397.868 157.96 398.366 157.96 398.942V399.302C157.96 399.878 158.092 400.388 158.356 400.832C158.62 401.276 158.992 401.618 159.472 401.858C159.952 402.098 160.504 402.218 161.128 402.218C161.668 402.218 162.154 402.134 162.586 401.966C163.018 401.798 163.402 401.534 163.738 401.174L164.944 402.56C164.512 403.064 163.966 403.454 163.306 403.73C162.658 403.994 161.914 404.126 161.074 404.126ZM176.796 404.126C175.872 404.126 175.038 403.922 174.294 403.514C173.562 403.094 172.986 402.518 172.566 401.786C172.146 401.054 171.936 400.19 171.936 399.194C171.936 398.198 172.146 397.334 172.566 396.602C172.986 395.87 173.562 395.3 174.294 394.892C175.038 394.484 175.872 394.28 176.796 394.28C177.6 394.28 178.32 394.46 178.956 394.82C179.592 395.168 180.096 395.702 180.468 396.422C180.84 397.142 181.026 398.066 181.026 399.194C181.026 400.31 180.846 401.234 180.486 401.966C180.126 402.686 179.628 403.226 178.992 403.586C178.356 403.946 177.624 404.126 176.796 404.126ZM177.066 402.2C177.606 402.2 178.086 402.08 178.506 401.84C178.938 401.6 179.28 401.252 179.532 400.796C179.796 400.34 179.928 399.806 179.928 399.194C179.928 398.57 179.796 398.036 179.532 397.592C179.28 397.136 178.938 396.788 178.506 396.548C178.086 396.308 177.606 396.188 177.066 396.188C176.526 396.188 176.04 396.308 175.608 396.548C175.188 396.788 174.846 397.136 174.582 397.592C174.33 398.036 174.204 398.57 174.204 399.194C174.204 399.806 174.33 400.34 174.582 400.796C174.846 401.252 175.188 401.6 175.608 401.84C176.04 402.08 176.526 402.2 177.066 402.2ZM179.982 404V401.732L180.072 399.176L179.892 396.62V390.644H182.124V404H179.982ZM189.603 404.126C188.535 404.126 187.599 403.916 186.795 403.496C186.003 403.064 185.385 402.476 184.941 401.732C184.509 400.988 184.293 400.142 184.293 399.194C184.293 398.234 184.503 397.388 184.923 396.656C185.355 395.912 185.943 395.33 186.687 394.91C187.443 394.49 188.301 394.28 189.261 394.28C190.197 394.28 191.031 394.484 191.763 394.892C192.495 395.3 193.071 395.876 193.491 396.62C193.911 397.364 194.121 398.24 194.121 399.248C194.121 399.344 194.115 399.452 194.103 399.572C194.103 399.692 194.097 399.806 194.085 399.914H186.075V398.42H192.897L192.015 398.888C192.027 398.336 191.913 397.85 191.673 397.43C191.433 397.01 191.103 396.68 190.683 396.44C190.275 396.2 189.801 396.08 189.261 396.08C188.709 396.08 188.223 396.2 187.803 396.44C187.395 396.68 187.071 397.016 186.831 397.448C186.603 397.868 186.489 398.366 186.489 398.942V399.302C186.489 399.878 186.621 400.388 186.885 400.832C187.149 401.276 187.521 401.618 188.001 401.858C188.481 402.098 189.033 402.218 189.657 402.218C190.197 402.218 190.683 402.134 191.115 401.966C191.547 401.798 191.931 401.534 192.267 401.174L193.473 402.56C193.041 403.064 192.495 403.454 191.835 403.73C191.187 403.994 190.443 404.126 189.603 404.126ZM205.325 404.126C204.401 404.126 203.567 403.922 202.823 403.514C202.091 403.094 201.515 402.518 201.095 401.786C200.675 401.054 200.465 400.19 200.465 399.194C200.465 398.198 200.675 397.334 201.095 396.602C201.515 395.87 202.091 395.3 202.823 394.892C203.567 394.484 204.401 394.28 205.325 394.28C206.129 394.28 206.849 394.46 207.485 394.82C208.121 395.168 208.625 395.702 208.997 396.422C209.369 397.142 209.555 398.066 209.555 399.194C209.555 400.31 209.375 401.234 209.015 401.966C208.655 402.686 208.157 403.226 207.521 403.586C206.885 403.946 206.153 404.126 205.325 404.126ZM205.595 402.2C206.135 402.2 206.615 402.08 207.035 401.84C207.467 401.6 207.809 401.252 208.061 400.796C208.325 400.34 208.457 399.806 208.457 399.194C208.457 398.57 208.325 398.036 208.061 397.592C207.809 397.136 207.467 396.788 207.035 396.548C206.615 396.308 206.135 396.188 205.595 396.188C205.055 396.188 204.569 396.308 204.137 396.548C203.717 396.788 203.375 397.136 203.111 397.592C202.859 398.036 202.733 398.57 202.733 399.194C202.733 399.806 202.859 400.34 203.111 400.796C203.375 401.252 203.717 401.6 204.137 401.84C204.569 402.08 205.055 402.2 205.595 402.2ZM208.511 404V401.732L208.601 399.176L208.421 396.62V390.644H210.653V404H208.511ZM217.935 404.126C216.951 404.126 216.075 403.916 215.307 403.496C214.539 403.064 213.933 402.476 213.489 401.732C213.045 400.988 212.823 400.142 212.823 399.194C212.823 398.234 213.045 397.388 213.489 396.656C213.933 395.912 214.539 395.33 215.307 394.91C216.075 394.49 216.951 394.28 217.935 394.28C218.931 394.28 219.813 394.49 220.581 394.91C221.361 395.33 221.967 395.906 222.399 396.638C222.843 397.37 223.065 398.222 223.065 399.194C223.065 400.142 222.843 400.988 222.399 401.732C221.967 402.476 221.361 403.064 220.581 403.496C219.813 403.916 218.931 404.126 217.935 404.126ZM217.935 402.2C218.487 402.2 218.979 402.08 219.411 401.84C219.843 401.6 220.179 401.252 220.419 400.796C220.671 400.34 220.797 399.806 220.797 399.194C220.797 398.57 220.671 398.036 220.419 397.592C220.179 397.136 219.843 396.788 219.411 396.548C218.979 396.308 218.493 396.188 217.953 396.188C217.401 396.188 216.909 396.308 216.477 396.548C216.057 396.788 215.721 397.136 215.469 397.592C215.217 398.036 215.091 398.57 215.091 399.194C215.091 399.806 215.217 400.34 215.469 400.796C215.721 401.252 216.057 401.6 216.477 401.84C216.909 402.08 217.395 402.2 217.935 402.2ZM230.67 394.28C231.438 394.28 232.122 394.43 232.722 394.73C233.334 395.03 233.814 395.492 234.162 396.116C234.51 396.728 234.684 397.52 234.684 398.492V404H232.434V398.78C232.434 397.928 232.23 397.292 231.822 396.872C231.426 396.452 230.868 396.242 230.148 396.242C229.62 396.242 229.152 396.35 228.744 396.566C228.336 396.782 228.018 397.106 227.79 397.538C227.574 397.958 227.466 398.492 227.466 399.14V404H225.216V394.388H227.358V396.98L226.98 396.188C227.316 395.576 227.802 395.108 228.438 394.784C229.086 394.448 229.83 394.28 230.67 394.28ZM242.993 394.28C243.761 394.28 244.445 394.43 245.045 394.73C245.657 395.03 246.137 395.492 246.485 396.116C246.833 396.728 247.007 397.52 247.007 398.492V404H244.757V398.78C244.757 397.928 244.553 397.292 244.145 396.872C243.749 396.452 243.191 396.242 242.471 396.242C241.943 396.242 241.475 396.35 241.067 396.566C240.659 396.782 240.341 397.106 240.113 397.538C239.897 397.958 239.789 398.492 239.789 399.14V404H237.539V394.388H239.681V396.98L239.303 396.188C239.639 395.576 240.125 395.108 240.761 394.784C241.409 394.448 242.153 394.28 242.993 394.28ZM254.396 404.126C253.328 404.126 252.392 403.916 251.588 403.496C250.796 403.064 250.178 402.476 249.734 401.732C249.302 400.988 249.086 400.142 249.086 399.194C249.086 398.234 249.296 397.388 249.716 396.656C250.148 395.912 250.736 395.33 251.48 394.91C252.236 394.49 253.094 394.28 254.054 394.28C254.99 394.28 255.824 394.484 256.556 394.892C257.288 395.3 257.864 395.876 258.284 396.62C258.704 397.364 258.914 398.24 258.914 399.248C258.914 399.344 258.908 399.452 258.896 399.572C258.896 399.692 258.89 399.806 258.878 399.914H250.868V398.42H257.69L256.808 398.888C256.82 398.336 256.706 397.85 256.466 397.43C256.226 397.01 255.896 396.68 255.476 396.44C255.068 396.2 254.594 396.08 254.054 396.08C253.502 396.08 253.016 396.2 252.596 396.44C252.188 396.68 251.864 397.016 251.624 397.448C251.396 397.868 251.282 398.366 251.282 398.942V399.302C251.282 399.878 251.414 400.388 251.678 400.832C251.942 401.276 252.314 401.618 252.794 401.858C253.274 402.098 253.826 402.218 254.45 402.218C254.99 402.218 255.476 402.134 255.908 401.966C256.34 401.798 256.724 401.534 257.06 401.174L258.266 402.56C257.834 403.064 257.288 403.454 256.628 403.73C255.98 403.994 255.236 404.126 254.396 404.126ZM252.488 393.074L254.918 390.608H257.564L254.432 393.074H252.488ZM265.594 404.126C264.526 404.126 263.59 403.916 262.786 403.496C261.994 403.064 261.376 402.476 260.932 401.732C260.5 400.988 260.284 400.142 260.284 399.194C260.284 398.234 260.494 397.388 260.914 396.656C261.346 395.912 261.934 395.33 262.678 394.91C263.434 394.49 264.292 394.28 265.252 394.28C266.188 394.28 267.022 394.484 267.754 394.892C268.486 395.3 269.062 395.876 269.482 396.62C269.902 397.364 270.112 398.24 270.112 399.248C270.112 399.344 270.106 399.452 270.094 399.572C270.094 399.692 270.088 399.806 270.076 399.914H262.066V398.42H268.888L268.006 398.888C268.018 398.336 267.904 397.85 267.664 397.43C267.424 397.01 267.094 396.68 266.674 396.44C266.266 396.2 265.792 396.08 265.252 396.08C264.7 396.08 264.214 396.2 263.794 396.44C263.386 396.68 263.062 397.016 262.822 397.448C262.594 397.868 262.48 398.366 262.48 398.942V399.302C262.48 399.878 262.612 400.388 262.876 400.832C263.14 401.276 263.512 401.618 263.992 401.858C264.472 402.098 265.024 402.218 265.648 402.218C266.188 402.218 266.674 402.134 267.106 401.966C267.538 401.798 267.922 401.534 268.258 401.174L269.464 402.56C269.032 403.064 268.486 403.454 267.826 403.73C267.178 403.994 266.434 404.126 265.594 404.126ZM275.243 404.126C274.439 404.126 273.665 404.024 272.921 403.82C272.189 403.604 271.607 403.346 271.175 403.046L272.039 401.336C272.471 401.612 272.987 401.84 273.587 402.02C274.187 402.2 274.787 402.29 275.387 402.29C276.095 402.29 276.605 402.194 276.917 402.002C277.241 401.81 277.403 401.552 277.403 401.228C277.403 400.964 277.295 400.766 277.079 400.634C276.863 400.49 276.581 400.382 276.233 400.31C275.885 400.238 275.495 400.172 275.063 400.112C274.643 400.052 274.217 399.974 273.785 399.878C273.365 399.77 272.981 399.62 272.633 399.428C272.285 399.224 272.003 398.954 271.787 398.618C271.571 398.282 271.463 397.838 271.463 397.286C271.463 396.674 271.637 396.146 271.985 395.702C272.333 395.246 272.819 394.898 273.443 394.658C274.079 394.406 274.829 394.28 275.693 394.28C276.341 394.28 276.995 394.352 277.655 394.496C278.315 394.64 278.861 394.844 279.293 395.108L278.429 396.818C277.973 396.542 277.511 396.356 277.043 396.26C276.587 396.152 276.131 396.098 275.675 396.098C274.991 396.098 274.481 396.2 274.145 396.404C273.821 396.608 273.659 396.866 273.659 397.178C273.659 397.466 273.767 397.682 273.983 397.826C274.199 397.97 274.481 398.084 274.829 398.168C275.177 398.252 275.561 398.324 275.981 398.384C276.413 398.432 276.839 398.51 277.259 398.618C277.679 398.726 278.063 398.876 278.411 399.068C278.771 399.248 279.059 399.506 279.275 399.842C279.491 400.178 279.599 400.616 279.599 401.156C279.599 401.756 279.419 402.278 279.059 402.722C278.711 403.166 278.213 403.514 277.565 403.766C276.917 404.006 276.143 404.126 275.243 404.126Z" fill="#505050"/>
<path d="M31.256 254V237.2H34.376V254H31.256ZM45.9041 241.04C46.9281 241.04 47.8401 241.24 48.6401 241.64C49.4561 242.04 50.0961 242.656 50.5601 243.488C51.0241 244.304 51.2561 245.36 51.2561 246.656V254H48.2561V247.04C48.2561 245.904 47.9841 245.056 47.4401 244.496C46.9121 243.936 46.1681 243.656 45.2081 243.656C44.5041 243.656 43.8801 243.8 43.3361 244.088C42.7921 244.376 42.3681 244.808 42.0641 245.384C41.7761 245.944 41.6321 246.656 41.6321 247.52V254H38.6321V241.184H41.4881V244.64L40.9841 243.584C41.4321 242.768 42.0801 242.144 42.9281 241.712C43.7921 241.264 44.7841 241.04 45.9041 241.04ZM60.9652 254.168C59.6212 254.168 58.4212 253.888 57.3652 253.328C56.3252 252.752 55.5092 251.968 54.9172 250.976C54.3252 249.984 54.0292 248.856 54.0292 247.592C54.0292 246.312 54.3252 245.184 54.9172 244.208C55.5092 243.216 56.3252 242.44 57.3652 241.88C58.4212 241.32 59.6212 241.04 60.9652 241.04C62.2132 241.04 63.3092 241.296 64.2532 241.808C65.2132 242.304 65.9412 243.04 66.4372 244.016L64.1332 245.36C63.7492 244.752 63.2772 244.304 62.7172 244.016C62.1732 243.728 61.5812 243.584 60.9412 243.584C60.2052 243.584 59.5412 243.744 58.9492 244.064C58.3572 244.384 57.8932 244.848 57.5572 245.456C57.2212 246.048 57.0532 246.76 57.0532 247.592C57.0532 248.424 57.2212 249.144 57.5572 249.752C57.8932 250.344 58.3572 250.8 58.9492 251.12C59.5412 251.44 60.2052 251.6 60.9412 251.6C61.5812 251.6 62.1732 251.456 62.7172 251.168C63.2772 250.88 63.7492 250.432 64.1332 249.824L66.4372 251.168C65.9412 252.128 65.2132 252.872 64.2532 253.4C63.3092 253.912 62.2132 254.168 60.9652 254.168ZM68.9133 254V236.192H71.9133V254H68.9133ZM81.2748 254.168C80.1868 254.168 79.2268 253.968 78.3948 253.568C77.5628 253.152 76.9148 252.528 76.4508 251.696C75.9868 250.848 75.7548 249.784 75.7548 248.504V241.184H78.7548V248.096C78.7548 249.248 79.0108 250.112 79.5228 250.688C80.0508 251.248 80.7948 251.528 81.7548 251.528C82.4588 251.528 83.0668 251.384 83.5788 251.096C84.1068 250.808 84.5148 250.376 84.8028 249.8C85.1068 249.224 85.2588 248.512 85.2588 247.664V241.184H88.2588V254H85.4028V250.544L85.9068 251.6C85.4748 252.432 84.8428 253.072 84.0108 253.52C83.1788 253.952 82.2668 254.168 81.2748 254.168ZM96.1468 254.168C95.0748 254.168 94.0428 254.032 93.0508 253.76C92.0748 253.472 91.2988 253.128 90.7228 252.728L91.8748 250.448C92.4508 250.816 93.1388 251.12 93.9388 251.36C94.7388 251.6 95.5388 251.72 96.3388 251.72C97.2828 251.72 97.9628 251.592 98.3788 251.336C98.8108 251.08 99.0268 250.736 99.0268 250.304C99.0268 249.952 98.8828 249.688 98.5948 249.512C98.3068 249.32 97.9308 249.176 97.4668 249.08C97.0028 248.984 96.4828 248.896 95.9068 248.816C95.3468 248.736 94.7788 248.632 94.2028 248.504C93.6428 248.36 93.1308 248.16 92.6668 247.904C92.2028 247.632 91.8268 247.272 91.5388 246.824C91.2508 246.376 91.1068 245.784 91.1068 245.048C91.1068 244.232 91.3388 243.528 91.8027 242.936C92.2668 242.328 92.9148 241.864 93.7467 241.544C94.5948 241.208 95.5948 241.04 96.7468 241.04C97.6108 241.04 98.4828 241.136 99.3628 241.328C100.243 241.52 100.971 241.792 101.547 242.144L100.395 244.424C99.7868 244.056 99.1708 243.808 98.5468 243.68C97.9388 243.536 97.3308 243.464 96.7228 243.464C95.8108 243.464 95.1308 243.6 94.6828 243.872C94.2508 244.144 94.0348 244.488 94.0348 244.904C94.0348 245.288 94.1788 245.576 94.4668 245.768C94.7548 245.96 95.1308 246.112 95.5948 246.224C96.0588 246.336 96.5708 246.432 97.1308 246.512C97.7068 246.576 98.2748 246.68 98.8348 246.824C99.3948 246.968 99.9068 247.168 100.371 247.424C100.851 247.664 101.235 248.008 101.523 248.456C101.811 248.904 101.955 249.488 101.955 250.208C101.955 251.008 101.715 251.704 101.235 252.296C100.771 252.888 100.107 253.352 99.2428 253.688C98.3788 254.008 97.3468 254.168 96.1468 254.168Z" fill="#505050"/>
<path d="M54.3333 300L38.2917 316.042L31 308.75" stroke="#97E174" stroke-width="3" stroke-linecap="round" stroke-linejoin="round"/>
<path d="M52.3333 344L36.2917 360.042L29 352.75" stroke="#97E174" stroke-width="3" stroke-linecap="round" stroke-linejoin="round"/>
<path d="M52.3333 388L36.2917 404.042L29 396.75" stroke="#97E174" stroke-width="3" stroke-linecap="round" stroke-linejoin="round"/>
<path d="M32.692 111V98.4H37.876C38.992 98.4 39.946 98.58 40.738 98.94C41.542 99.3 42.16 99.816 42.592 100.488C43.024 101.16 43.24 101.958 43.24 102.882C43.24 103.806 43.024 104.604 42.592 105.276C42.16 105.948 41.542 106.464 40.738 106.824C39.946 107.184 38.992 107.364 37.876 107.364H33.988L35.032 106.266V111H32.692ZM35.032 106.518L33.988 105.384H37.768C38.8 105.384 39.574 105.168 40.09 104.736C40.618 104.292 40.882 103.674 40.882 102.882C40.882 102.078 40.618 101.46 40.09 101.028C39.574 100.596 38.8 100.38 37.768 100.38H33.988L35.032 99.228V106.518ZM49.6456 111.126C48.6616 111.126 47.7856 110.916 47.0176 110.496C46.2496 110.064 45.6436 109.476 45.1996 108.732C44.7556 107.988 44.5336 107.142 44.5336 106.194C44.5336 105.234 44.7556 104.388 45.1996 103.656C45.6436 102.912 46.2496 102.33 47.0176 101.91C47.7856 101.49 48.6616 101.28 49.6456 101.28C50.6416 101.28 51.5236 101.49 52.2916 101.91C53.0716 102.33 53.6776 102.906 54.1096 103.638C54.5536 104.37 54.7756 105.222 54.7756 106.194C54.7756 107.142 54.5536 107.988 54.1096 108.732C53.6776 109.476 53.0716 110.064 52.2916 110.496C51.5236 110.916 50.6416 111.126 49.6456 111.126ZM49.6456 109.2C50.1976 109.2 50.6896 109.08 51.1216 108.84C51.5536 108.6 51.8896 108.252 52.1296 107.796C52.3816 107.34 52.5076 106.806 52.5076 106.194C52.5076 105.57 52.3816 105.036 52.1296 104.592C51.8896 104.136 51.5536 103.788 51.1216 103.548C50.6896 103.308 50.2036 103.188 49.6636 103.188C49.1116 103.188 48.6196 103.308 48.1876 103.548C47.7676 103.788 47.4316 104.136 47.1796 104.592C46.9276 105.036 46.8016 105.57 46.8016 106.194C46.8016 106.806 46.9276 107.34 47.1796 107.796C47.4316 108.252 47.7676 108.6 48.1876 108.84C48.6196 109.08 49.1056 109.2 49.6456 109.2ZM60.9952 111.126C60.1792 111.126 59.4592 110.976 58.8352 110.676C58.2112 110.364 57.7252 109.896 57.3772 109.272C57.0292 108.636 56.8552 107.838 56.8552 106.878V101.388H59.1052V106.572C59.1052 107.436 59.2972 108.084 59.6812 108.516C60.0772 108.936 60.6352 109.146 61.3552 109.146C61.8832 109.146 62.3392 109.038 62.7232 108.822C63.1192 108.606 63.4252 108.282 63.6412 107.85C63.8692 107.418 63.9832 106.884 63.9832 106.248V101.388H66.2332V111H64.0912V108.408L64.4692 109.2C64.1452 109.824 63.6712 110.304 63.0472 110.64C62.4232 110.964 61.7392 111.126 60.9952 111.126ZM69.1791 111V101.388H71.3211V104.034L71.0691 103.26C71.3571 102.612 71.8071 102.12 72.4191 101.784C73.0431 101.448 73.8171 101.28 74.7411 101.28V103.422C74.6451 103.398 74.5551 103.386 74.4711 103.386C74.3871 103.374 74.3031 103.368 74.2191 103.368C73.3671 103.368 72.6891 103.62 72.1851 104.124C71.6811 104.616 71.4291 105.354 71.4291 106.338V111H69.1791ZM81.7123 111V97.644H83.9623V111H81.7123ZM91.4335 111.126C90.3655 111.126 89.4295 110.916 88.6255 110.496C87.8335 110.064 87.2155 109.476 86.7715 108.732C86.3395 107.988 86.1235 107.142 86.1235 106.194C86.1235 105.234 86.3335 104.388 86.7535 103.656C87.1855 102.912 87.7735 102.33 88.5175 101.91C89.2735 101.49 90.1315 101.28 91.0915 101.28C92.0275 101.28 92.8615 101.484 93.5935 101.892C94.3255 102.3 94.9015 102.876 95.3215 103.62C95.7415 104.364 95.9515 105.24 95.9515 106.248C95.9515 106.344 95.9455 106.452 95.9335 106.572C95.9335 106.692 95.9275 106.806 95.9155 106.914H87.9055V105.42H94.7275L93.8455 105.888C93.8575 105.336 93.7435 104.85 93.5035 104.43C93.2635 104.01 92.9335 103.68 92.5135 103.44C92.1055 103.2 91.6315 103.08 91.0915 103.08C90.5395 103.08 90.0535 103.2 89.6335 103.44C89.2255 103.68 88.9015 104.016 88.6615 104.448C88.4335 104.868 88.3195 105.366 88.3195 105.942V106.302C88.3195 106.878 88.4515 107.388 88.7155 107.832C88.9795 108.276 89.3515 108.618 89.8315 108.858C90.3115 109.098 90.8635 109.218 91.4875 109.218C92.0275 109.218 92.5135 109.134 92.9455 108.966C93.3775 108.798 93.7615 108.534 94.0975 108.174L95.3035 109.56C94.8715 110.064 94.3255 110.454 93.6655 110.73C93.0175 110.994 92.2735 111.126 91.4335 111.126ZM101.083 111.126C100.279 111.126 99.5047 111.024 98.7607 110.82C98.0287 110.604 97.4467 110.346 97.0147 110.046L97.8787 108.336C98.3107 108.612 98.8267 108.84 99.4267 109.02C100.027 109.2 100.627 109.29 101.227 109.29C101.935 109.29 102.445 109.194 102.757 109.002C103.081 108.81 103.243 108.552 103.243 108.228C103.243 107.964 103.135 107.766 102.919 107.634C102.703 107.49 102.421 107.382 102.073 107.31C101.725 107.238 101.335 107.172 100.903 107.112C100.483 107.052 100.057 106.974 99.6247 106.878C99.2047 106.77 98.8207 106.62 98.4727 106.428C98.1247 106.224 97.8427 105.954 97.6267 105.618C97.4107 105.282 97.3027 104.838 97.3027 104.286C97.3027 103.674 97.4767 103.146 97.8247 102.702C98.1727 102.246 98.6587 101.898 99.2827 101.658C99.9187 101.406 100.669 101.28 101.533 101.28C102.181 101.28 102.835 101.352 103.495 101.496C104.155 101.64 104.701 101.844 105.133 102.108L104.269 103.818C103.813 103.542 103.351 103.356 102.883 103.26C102.427 103.152 101.971 103.098 101.515 103.098C100.831 103.098 100.321 103.2 99.9847 103.404C99.6607 103.608 99.4987 103.866 99.4987 104.178C99.4987 104.466 99.6067 104.682 99.8227 104.826C100.039 104.97 100.321 105.084 100.669 105.168C101.017 105.252 101.401 105.324 101.821 105.384C102.253 105.432 102.679 105.51 103.099 105.618C103.519 105.726 103.903 105.876 104.251 106.068C104.611 106.248 104.899 106.506 105.115 106.842C105.331 107.178 105.439 107.616 105.439 108.156C105.439 108.756 105.259 109.278 104.899 109.722C104.551 110.166 104.053 110.514 103.405 110.766C102.757 111.006 101.983 111.126 101.083 111.126ZM116.419 111.126C115.495 111.126 114.661 110.922 113.917 110.514C113.185 110.094 112.609 109.518 112.189 108.786C111.769 108.054 111.559 107.19 111.559 106.194C111.559 105.198 111.769 104.334 112.189 103.602C112.609 102.87 113.185 102.3 113.917 101.892C114.661 101.484 115.495 101.28 116.419 101.28C117.223 101.28 117.943 101.46 118.579 101.82C119.215 102.168 119.719 102.702 120.091 103.422C120.463 104.142 120.649 105.066 120.649 106.194C120.649 107.31 120.469 108.234 120.109 108.966C119.749 109.686 119.251 110.226 118.615 110.586C117.979 110.946 117.247 111.126 116.419 111.126ZM116.689 109.2C117.229 109.2 117.709 109.08 118.129 108.84C118.561 108.6 118.903 108.252 119.155 107.796C119.419 107.34 119.551 106.806 119.551 106.194C119.551 105.57 119.419 105.036 119.155 104.592C118.903 104.136 118.561 103.788 118.129 103.548C117.709 103.308 117.229 103.188 116.689 103.188C116.149 103.188 115.663 103.308 115.231 103.548C114.811 103.788 114.469 104.136 114.205 104.592C113.953 105.036 113.827 105.57 113.827 106.194C113.827 106.806 113.953 107.34 114.205 107.796C114.469 108.252 114.811 108.6 115.231 108.84C115.663 109.08 116.149 109.2 116.689 109.2ZM119.605 111V108.732L119.695 106.176L119.515 103.62V97.644H121.747V111H119.605ZM124.708 111V101.388H126.958V111H124.708ZM125.842 99.804C125.422 99.804 125.074 99.672 124.798 99.408C124.534 99.144 124.402 98.826 124.402 98.454C124.402 98.07 124.534 97.752 124.798 97.5C125.074 97.236 125.422 97.104 125.842 97.104C126.262 97.104 126.604 97.23 126.868 97.482C127.144 97.722 127.282 98.028 127.282 98.4C127.282 98.796 127.15 99.132 126.886 99.408C126.622 99.672 126.274 99.804 125.842 99.804ZM135.834 111V109.056L135.708 108.642V105.24C135.708 104.58 135.51 104.07 135.114 103.71C134.718 103.338 134.118 103.152 133.314 103.152C132.774 103.152 132.24 103.236 131.712 103.404C131.196 103.572 130.758 103.806 130.398 104.106L129.516 102.468C130.032 102.072 130.644 101.778 131.352 101.586C132.072 101.382 132.816 101.28 133.584 101.28C134.976 101.28 136.05 101.616 136.806 102.288C137.574 102.948 137.958 103.974 137.958 105.366V111H135.834ZM132.81 111.126C132.09 111.126 131.46 111.006 130.92 110.766C130.38 110.514 129.96 110.172 129.66 109.74C129.372 109.296 129.228 108.798 129.228 108.246C129.228 107.706 129.354 107.22 129.606 106.788C129.87 106.356 130.296 106.014 130.884 105.762C131.472 105.51 132.252 105.384 133.224 105.384H136.014V106.878H133.386C132.618 106.878 132.102 107.004 131.838 107.256C131.574 107.496 131.442 107.796 131.442 108.156C131.442 108.564 131.604 108.888 131.928 109.128C132.252 109.368 132.702 109.488 133.278 109.488C133.83 109.488 134.322 109.362 134.754 109.11C135.198 108.858 135.516 108.486 135.708 107.994L136.086 109.344C135.87 109.908 135.48 110.346 134.916 110.658C134.364 110.97 133.662 111.126 132.81 111.126ZM146.173 111.126C145.357 111.126 144.631 110.946 143.995 110.586C143.359 110.226 142.855 109.686 142.483 108.966C142.123 108.234 141.943 107.31 141.943 106.194C141.943 105.066 142.129 104.142 142.501 103.422C142.885 102.702 143.395 102.168 144.031 101.82C144.679 101.46 145.393 101.28 146.173 101.28C147.121 101.28 147.955 101.484 148.675 101.892C149.407 102.3 149.983 102.87 150.403 103.602C150.835 104.334 151.051 105.198 151.051 106.194C151.051 107.19 150.835 108.054 150.403 108.786C149.983 109.518 149.407 110.094 148.675 110.514C147.955 110.922 147.121 111.126 146.173 111.126ZM140.845 111V97.644H143.095V103.62L142.915 106.176L142.987 108.732V111H140.845ZM145.921 109.2C146.461 109.2 146.941 109.08 147.361 108.84C147.793 108.6 148.135 108.252 148.387 107.796C148.639 107.34 148.765 106.806 148.765 106.194C148.765 105.57 148.639 105.036 148.387 104.592C148.135 104.136 147.793 103.788 147.361 103.548C146.941 103.308 146.461 103.188 145.921 103.188C145.381 103.188 144.895 103.308 144.463 103.548C144.031 103.788 143.689 104.136 143.437 104.592C143.185 105.036 143.059 105.57 143.059 106.194C143.059 106.806 143.185 107.34 143.437 107.796C143.689 108.252 144.031 108.6 144.463 108.84C144.895 109.08 145.381 109.2 145.921 109.2ZM157.703 111.126C156.635 111.126 155.699 110.916 154.895 110.496C154.103 110.064 153.485 109.476 153.041 108.732C152.609 107.988 152.393 107.142 152.393 106.194C152.393 105.234 152.603 104.388 153.023 103.656C153.455 102.912 154.043 102.33 154.787 101.91C155.543 101.49 156.401 101.28 157.361 101.28C158.297 101.28 159.131 101.484 159.863 101.892C160.595 102.3 161.171 102.876 161.591 103.62C162.011 104.364 162.221 105.24 162.221 106.248C162.221 106.344 162.215 106.452 162.203 106.572C162.203 106.692 162.197 106.806 162.185 106.914H154.175V105.42H160.997L160.115 105.888C160.127 105.336 160.013 104.85 159.773 104.43C159.533 104.01 159.203 103.68 158.783 103.44C158.375 103.2 157.901 103.08 157.361 103.08C156.809 103.08 156.323 103.2 155.903 103.44C155.495 103.68 155.171 104.016 154.931 104.448C154.703 104.868 154.589 105.366 154.589 105.942V106.302C154.589 106.878 154.721 107.388 154.985 107.832C155.249 108.276 155.621 108.618 156.101 108.858C156.581 109.098 157.133 109.218 157.757 109.218C158.297 109.218 158.783 109.134 159.215 108.966C159.647 108.798 160.031 108.534 160.367 108.174L161.573 109.56C161.141 110.064 160.595 110.454 159.935 110.73C159.287 110.994 158.543 111.126 157.703 111.126ZM155.795 100.074L158.225 97.608H160.871L157.739 100.074H155.795ZM168 111.126C166.944 111.126 166.128 110.856 165.552 110.316C164.976 109.764 164.688 108.954 164.688 107.886V99.264H166.938V107.832C166.938 108.288 167.052 108.642 167.28 108.894C167.52 109.146 167.85 109.272 168.27 109.272C168.774 109.272 169.194 109.14 169.53 108.876L170.16 110.478C169.896 110.694 169.572 110.856 169.188 110.964C168.804 111.072 168.408 111.126 168 111.126ZM163.104 103.26V101.46H169.512V103.26H163.104ZM172.011 111V101.388H174.261V111H172.011ZM173.145 99.804C172.725 99.804 172.377 99.672 172.101 99.408C171.837 99.144 171.705 98.826 171.705 98.454C171.705 98.07 171.837 97.752 172.101 97.5C172.377 97.236 172.725 97.104 173.145 97.104C173.565 97.104 173.907 97.23 174.171 97.482C174.447 97.722 174.585 98.028 174.585 98.4C174.585 98.796 174.453 99.132 174.189 99.408C173.925 99.672 173.577 99.804 173.145 99.804ZM181.282 111.126C180.358 111.126 179.524 110.922 178.78 110.514C178.048 110.106 177.472 109.536 177.052 108.804C176.632 108.06 176.422 107.19 176.422 106.194C176.422 105.198 176.632 104.334 177.052 103.602C177.472 102.87 178.048 102.3 178.78 101.892C179.524 101.484 180.358 101.28 181.282 101.28C182.11 101.28 182.836 101.46 183.46 101.82C184.096 102.168 184.594 102.702 184.954 103.422C185.326 104.142 185.512 105.066 185.512 106.194C185.512 107.31 185.32 108.234 184.936 108.966C184.564 109.686 184.06 110.226 183.424 110.586C182.788 110.946 182.074 111.126 181.282 111.126ZM181.534 109.2C182.074 109.2 182.56 109.08 182.992 108.84C183.424 108.6 183.766 108.252 184.018 107.796C184.27 107.34 184.396 106.806 184.396 106.194C184.396 105.57 184.27 105.036 184.018 104.592C183.766 104.136 183.424 103.788 182.992 103.548C182.56 103.308 182.074 103.188 181.534 103.188C180.994 103.188 180.508 103.308 180.076 103.548C179.656 103.788 179.32 104.136 179.068 104.592C178.816 105.036 178.69 105.57 178.69 106.194C178.69 106.806 178.816 107.34 179.068 107.796C179.32 108.252 179.656 108.6 180.076 108.84C180.508 109.08 180.994 109.2 181.534 109.2ZM184.36 114.492V108.768L184.54 106.212L184.468 103.656V101.388H186.61V114.492H184.36ZM193.622 111.126C192.806 111.126 192.086 110.976 191.462 110.676C190.838 110.364 190.352 109.896 190.004 109.272C189.656 108.636 189.482 107.838 189.482 106.878V101.388H191.732V106.572C191.732 107.436 191.924 108.084 192.308 108.516C192.704 108.936 193.262 109.146 193.982 109.146C194.51 109.146 194.966 109.038 195.35 108.822C195.746 108.606 196.052 108.282 196.268 107.85C196.496 107.418 196.61 106.884 196.61 106.248V101.388H198.86V111H196.718V108.408L197.096 109.2C196.772 109.824 196.298 110.304 195.674 110.64C195.05 110.964 194.366 111.126 193.622 111.126ZM206.324 111.126C205.256 111.126 204.32 110.916 203.516 110.496C202.724 110.064 202.106 109.476 201.662 108.732C201.23 107.988 201.014 107.142 201.014 106.194C201.014 105.234 201.224 104.388 201.644 103.656C202.076 102.912 202.664 102.33 203.408 101.91C204.164 101.49 205.022 101.28 205.982 101.28C206.918 101.28 207.752 101.484 208.484 101.892C209.216 102.3 209.792 102.876 210.212 103.62C210.632 104.364 210.842 105.24 210.842 106.248C210.842 106.344 210.836 106.452 210.824 106.572C210.824 106.692 210.818 106.806 210.806 106.914H202.796V105.42H209.618L208.736 105.888C208.748 105.336 208.634 104.85 208.394 104.43C208.154 104.01 207.824 103.68 207.404 103.44C206.996 103.2 206.522 103.08 205.982 103.08C205.43 103.08 204.944 103.2 204.524 103.44C204.116 103.68 203.792 104.016 203.552 104.448C203.324 104.868 203.21 105.366 203.21 105.942V106.302C203.21 106.878 203.342 107.388 203.606 107.832C203.87 108.276 204.242 108.618 204.722 108.858C205.202 109.098 205.754 109.218 206.378 109.218C206.918 109.218 207.404 109.134 207.836 108.966C208.268 108.798 208.652 108.534 208.988 108.174L210.194 109.56C209.762 110.064 209.216 110.454 208.556 110.73C207.908 110.994 207.164 111.126 206.324 111.126ZM215.973 111.126C215.169 111.126 214.395 111.024 213.651 110.82C212.919 110.604 212.337 110.346 211.905 110.046L212.769 108.336C213.201 108.612 213.717 108.84 214.317 109.02C214.917 109.2 215.517 109.29 216.117 109.29C216.825 109.29 217.335 109.194 217.647 109.002C217.971 108.81 218.133 108.552 218.133 108.228C218.133 107.964 218.025 107.766 217.809 107.634C217.593 107.49 217.311 107.382 216.963 107.31C216.615 107.238 216.225 107.172 215.793 107.112C215.373 107.052 214.947 106.974 214.515 106.878C214.095 106.77 213.711 106.62 213.363 106.428C213.015 106.224 212.733 105.954 212.517 105.618C212.301 105.282 212.193 104.838 212.193 104.286C212.193 103.674 212.367 103.146 212.715 102.702C213.063 102.246 213.549 101.898 214.173 101.658C214.809 101.406 215.559 101.28 216.423 101.28C217.071 101.28 217.725 101.352 218.385 101.496C219.045 101.64 219.591 101.844 220.023 102.108L219.159 103.818C218.703 103.542 218.241 103.356 217.773 103.26C217.317 103.152 216.861 103.098 216.405 103.098C215.721 103.098 215.211 103.2 214.875 103.404C214.551 103.608 214.389 103.866 214.389 104.178C214.389 104.466 214.497 104.682 214.713 104.826C214.929 104.97 215.211 105.084 215.559 105.168C215.907 105.252 216.291 105.324 216.711 105.384C217.143 105.432 217.569 105.51 217.989 105.618C218.409 105.726 218.793 105.876 219.141 106.068C219.501 106.248 219.789 106.506 220.005 106.842C220.221 107.178 220.329 107.616 220.329 108.156C220.329 108.756 220.149 109.278 219.789 109.722C219.441 110.166 218.943 110.514 218.295 110.766C217.647 111.006 216.873 111.126 215.973 111.126Z" fill="#56B5CB"/>
<path d="M32.071 58V32.1H43.282C45.6007 32.1 47.5987 32.4823 49.276 33.247C50.9533 33.987 52.2483 35.06 53.161 36.466C54.0737 37.872 54.53 39.5493 54.53 41.498C54.53 43.422 54.0737 45.087 53.161 46.493C52.2483 47.899 50.9533 48.9843 49.276 49.749C47.5987 50.489 45.6007 50.859 43.282 50.859H35.401L38.065 48.158V58H32.071ZM38.065 48.824L35.401 45.975H42.949C44.799 45.975 46.1803 45.5803 47.093 44.791C48.0057 44.0017 48.462 42.904 48.462 41.498C48.462 40.0673 48.0057 38.9573 47.093 38.168C46.1803 37.3787 44.799 36.984 42.949 36.984H35.401L38.065 34.135V48.824ZM70.4316 58V54.115L70.0616 53.264V46.308C70.0616 45.0747 69.6793 44.1127 68.9146 43.422C68.1746 42.7313 67.0276 42.386 65.4736 42.386C64.413 42.386 63.3646 42.5587 62.3286 42.904C61.3173 43.2247 60.454 43.6687 59.7386 44.236L57.6666 40.203C58.752 39.4383 60.0593 38.8463 61.5886 38.427C63.118 38.0077 64.672 37.798 66.2506 37.798C69.2846 37.798 71.6403 38.5133 73.3176 39.944C74.995 41.3747 75.8336 43.607 75.8336 46.641V58H70.4316ZM64.3636 58.296C62.8096 58.296 61.4776 58.037 60.3676 57.519C59.2576 56.9763 58.4066 56.2487 57.8146 55.336C57.2226 54.4233 56.9266 53.3997 56.9266 52.265C56.9266 51.081 57.2103 50.045 57.7776 49.157C58.3696 48.269 59.2946 47.5783 60.5526 47.085C61.8106 46.567 63.451 46.308 65.4736 46.308H70.7646V49.675H66.1026C64.746 49.675 63.8086 49.897 63.2906 50.341C62.7973 50.785 62.5506 51.34 62.5506 52.006C62.5506 52.746 62.8343 53.338 63.4016 53.782C63.9936 54.2013 64.7953 54.411 65.8066 54.411C66.7686 54.411 67.632 54.189 68.3966 53.745C69.1613 53.2763 69.7163 52.598 70.0616 51.71L70.9496 54.374C70.5303 55.6567 69.7656 56.631 68.6556 57.297C67.5456 57.963 66.115 58.296 64.3636 58.296ZM89.1976 58.296C86.8542 58.296 85.0289 57.704 83.7216 56.52C82.4142 55.3113 81.7606 53.523 81.7606 51.155V33.691H87.5326V51.081C87.5326 51.9197 87.7546 52.5733 88.1986 53.042C88.6426 53.486 89.2469 53.708 90.0116 53.708C90.9242 53.708 91.7012 53.4613 92.3426 52.968L93.8966 57.038C93.3046 57.4573 92.5892 57.778 91.7506 58C90.9366 58.1973 90.0856 58.296 89.1976 58.296ZM78.6896 42.978V38.538H92.4906V42.978H78.6896ZM97.1367 58V38.094H102.909V58H97.1367ZM100.023 35.319C98.962 35.319 98.0987 35.0107 97.4327 34.394C96.7667 33.7773 96.4337 33.0127 96.4337 32.1C96.4337 31.1873 96.7667 30.4227 97.4327 29.806C98.0987 29.1893 98.962 28.881 100.023 28.881C101.083 28.881 101.947 29.177 102.613 29.769C103.279 30.3363 103.612 31.0763 103.612 31.989C103.612 32.951 103.279 33.7527 102.613 34.394C101.971 35.0107 101.108 35.319 100.023 35.319ZM118.145 58.296C115.875 58.296 113.877 57.852 112.151 56.964C110.449 56.076 109.129 54.8673 108.192 53.338C107.254 51.784 106.786 50.0203 106.786 48.047C106.786 46.049 107.242 44.2853 108.155 42.756C109.092 41.202 110.362 39.9933 111.966 39.13C113.569 38.242 115.382 37.798 117.405 37.798C119.353 37.798 121.105 38.2173 122.659 39.056C124.237 39.87 125.483 41.054 126.396 42.608C127.308 44.1373 127.765 45.975 127.765 48.121C127.765 48.343 127.752 48.602 127.728 48.898C127.703 49.1693 127.678 49.4283 127.654 49.675H111.485V46.308H124.62L122.4 47.307C122.4 46.271 122.19 45.3707 121.771 44.606C121.351 43.8413 120.772 43.2493 120.032 42.83C119.292 42.386 118.428 42.164 117.442 42.164C116.455 42.164 115.579 42.386 114.815 42.83C114.075 43.2493 113.495 43.8537 113.076 44.643C112.656 45.4077 112.447 46.3203 112.447 47.381V48.269C112.447 49.3543 112.681 50.3163 113.15 51.155C113.643 51.969 114.321 52.598 115.185 53.042C116.073 53.4613 117.109 53.671 118.293 53.671C119.353 53.671 120.278 53.5107 121.068 53.19C121.882 52.8693 122.622 52.3883 123.288 51.747L126.359 55.077C125.446 56.113 124.299 56.9147 122.918 57.482C121.536 58.0247 119.945 58.296 118.145 58.296ZM143.706 37.798C145.285 37.798 146.691 38.1187 147.924 38.76C149.182 39.3767 150.169 40.3387 150.884 41.646C151.6 42.9287 151.957 44.5813 151.957 46.604V58H146.185V47.492C146.185 45.8887 145.828 44.7047 145.112 43.94C144.422 43.1753 143.435 42.793 142.152 42.793C141.24 42.793 140.413 42.9903 139.673 43.385C138.958 43.755 138.391 44.3347 137.971 45.124C137.577 45.9133 137.379 46.9247 137.379 48.158V58H131.607V38.094H137.12V43.607L136.084 41.942C136.8 40.61 137.823 39.5863 139.155 38.871C140.487 38.1557 142.004 37.798 143.706 37.798ZM165.329 58.296C162.986 58.296 161.161 57.704 159.853 56.52C158.546 55.3113 157.892 53.523 157.892 51.155V33.691H163.664V51.081C163.664 51.9197 163.886 52.5733 164.33 53.042C164.774 53.486 165.379 53.708 166.143 53.708C167.056 53.708 167.833 53.4613 168.474 52.968L170.028 57.038C169.436 57.4573 168.721 57.778 167.882 58C167.068 58.1973 166.217 58.296 165.329 58.296ZM154.821 42.978V38.538H168.622V42.978H154.821Z" fill="#505050"/>
<path d="M109.804 188.126C109.024 188.126 108.31 187.946 107.662 187.586C107.026 187.226 106.516 186.686 106.132 185.966C105.76 185.234 105.574 184.31 105.574 183.194C105.574 182.066 105.754 181.142 106.114 180.422C106.486 179.702 106.99 179.168 107.626 178.82C108.262 178.46 108.988 178.28 109.804 178.28C110.752 178.28 111.586 178.484 112.306 178.892C113.038 179.3 113.614 179.87 114.034 180.602C114.466 181.334 114.682 182.198 114.682 183.194C114.682 184.19 114.466 185.06 114.034 185.804C113.614 186.536 113.038 187.106 112.306 187.514C111.586 187.922 110.752 188.126 109.804 188.126ZM104.476 191.492V178.388H106.618V180.656L106.546 183.212L106.726 185.768V191.492H104.476ZM109.552 186.2C110.092 186.2 110.572 186.08 110.992 185.84C111.424 185.6 111.766 185.252 112.018 184.796C112.27 184.34 112.396 183.806 112.396 183.194C112.396 182.57 112.27 182.036 112.018 181.592C111.766 181.136 111.424 180.788 110.992 180.548C110.572 180.308 110.092 180.188 109.552 180.188C109.012 180.188 108.526 180.308 108.094 180.548C107.662 180.788 107.32 181.136 107.068 181.592C106.816 182.036 106.69 182.57 106.69 183.194C106.69 183.806 106.816 184.34 107.068 184.796C107.32 185.252 107.662 185.6 108.094 185.84C108.526 186.08 109.012 186.2 109.552 186.2ZM122.615 188V186.056L122.489 185.642V182.24C122.489 181.58 122.291 181.07 121.895 180.71C121.499 180.338 120.899 180.152 120.095 180.152C119.555 180.152 119.021 180.236 118.493 180.404C117.977 180.572 117.539 180.806 117.179 181.106L116.297 179.468C116.813 179.072 117.425 178.778 118.133 178.586C118.853 178.382 119.597 178.28 120.365 178.28C121.757 178.28 122.831 178.616 123.587 179.288C124.355 179.948 124.739 180.974 124.739 182.366V188H122.615ZM119.591 188.126C118.871 188.126 118.241 188.006 117.701 187.766C117.161 187.514 116.741 187.172 116.441 186.74C116.153 186.296 116.009 185.798 116.009 185.246C116.009 184.706 116.135 184.22 116.387 183.788C116.651 183.356 117.077 183.014 117.665 182.762C118.253 182.51 119.033 182.384 120.005 182.384H122.795V183.878H120.167C119.399 183.878 118.883 184.004 118.619 184.256C118.355 184.496 118.223 184.796 118.223 185.156C118.223 185.564 118.385 185.888 118.709 186.128C119.033 186.368 119.483 186.488 120.059 186.488C120.611 186.488 121.103 186.362 121.535 186.11C121.979 185.858 122.297 185.486 122.489 184.994L122.867 186.344C122.651 186.908 122.261 187.346 121.697 187.658C121.145 187.97 120.443 188.126 119.591 188.126ZM127.626 188V178.388H129.768V181.034L129.516 180.26C129.804 179.612 130.254 179.12 130.866 178.784C131.49 178.448 132.264 178.28 133.188 178.28V180.422C133.092 180.398 133.002 180.386 132.918 180.386C132.834 180.374 132.75 180.368 132.666 180.368C131.814 180.368 131.136 180.62 130.632 181.124C130.128 181.616 129.876 182.354 129.876 183.338V188H127.626ZM152.292 178.28C153.06 178.28 153.738 178.43 154.326 178.73C154.926 179.03 155.394 179.492 155.73 180.116C156.066 180.728 156.234 181.52 156.234 182.492V188H153.984V182.78C153.984 181.928 153.798 181.292 153.426 180.872C153.054 180.452 152.52 180.242 151.824 180.242C151.332 180.242 150.894 180.35 150.51 180.566C150.138 180.782 149.844 181.1 149.628 181.52C149.424 181.94 149.322 182.474 149.322 183.122V188H147.072V182.78C147.072 181.928 146.886 181.292 146.514 180.872C146.142 180.452 145.608 180.242 144.912 180.242C144.42 180.242 143.982 180.35 143.598 180.566C143.226 180.782 142.932 181.1 142.716 181.52C142.512 181.94 142.41 182.474 142.41 183.122V188H140.16V178.388H142.302V180.944L141.924 180.188C142.248 179.564 142.716 179.09 143.328 178.766C143.952 178.442 144.66 178.28 145.452 178.28C146.352 178.28 147.132 178.502 147.792 178.946C148.464 179.39 148.908 180.062 149.124 180.962L148.242 180.656C148.554 179.936 149.07 179.36 149.79 178.928C150.51 178.496 151.344 178.28 152.292 178.28ZM163.446 188.126C162.462 188.126 161.586 187.916 160.818 187.496C160.05 187.064 159.444 186.476 159 185.732C158.556 184.988 158.334 184.142 158.334 183.194C158.334 182.234 158.556 181.388 159 180.656C159.444 179.912 160.05 179.33 160.818 178.91C161.586 178.49 162.462 178.28 163.446 178.28C164.442 178.28 165.324 178.49 166.092 178.91C166.872 179.33 167.478 179.906 167.91 180.638C168.354 181.37 168.576 182.222 168.576 183.194C168.576 184.142 168.354 184.988 167.91 185.732C167.478 186.476 166.872 187.064 166.092 187.496C165.324 187.916 164.442 188.126 163.446 188.126ZM163.446 186.2C163.998 186.2 164.49 186.08 164.922 185.84C165.354 185.6 165.69 185.252 165.93 184.796C166.182 184.34 166.308 183.806 166.308 183.194C166.308 182.57 166.182 182.036 165.93 181.592C165.69 181.136 165.354 180.788 164.922 180.548C164.49 180.308 164.004 180.188 163.464 180.188C162.912 180.188 162.42 180.308 161.988 180.548C161.568 180.788 161.232 181.136 160.98 181.592C160.728 182.036 160.602 182.57 160.602 183.194C160.602 183.806 160.728 184.34 160.98 184.796C161.232 185.252 161.568 185.6 161.988 185.84C162.42 186.08 162.906 186.2 163.446 186.2ZM170.728 188V178.388H172.978V188H170.728ZM171.862 176.804C171.442 176.804 171.094 176.672 170.818 176.408C170.554 176.144 170.422 175.826 170.422 175.454C170.422 175.07 170.554 174.752 170.818 174.5C171.094 174.236 171.442 174.104 171.862 174.104C172.282 174.104 172.624 174.23 172.888 174.482C173.164 174.722 173.302 175.028 173.302 175.4C173.302 175.796 173.17 176.132 172.906 176.408C172.642 176.672 172.294 176.804 171.862 176.804ZM178.901 188.126C178.097 188.126 177.323 188.024 176.579 187.82C175.847 187.604 175.265 187.346 174.833 187.046L175.697 185.336C176.129 185.612 176.645 185.84 177.245 186.02C177.845 186.2 178.445 186.29 179.045 186.29C179.753 186.29 180.263 186.194 180.575 186.002C180.899 185.81 181.061 185.552 181.061 185.228C181.061 184.964 180.953 184.766 180.737 184.634C180.521 184.49 180.239 184.382 179.891 184.31C179.543 184.238 179.153 184.172 178.721 184.112C178.301 184.052 177.875 183.974 177.443 183.878C177.023 183.77 176.639 183.62 176.291 183.428C175.943 183.224 175.661 182.954 175.445 182.618C175.229 182.282 175.121 181.838 175.121 181.286C175.121 180.674 175.295 180.146 175.643 179.702C175.991 179.246 176.477 178.898 177.101 178.658C177.737 178.406 178.487 178.28 179.351 178.28C179.999 178.28 180.653 178.352 181.313 178.496C181.973 178.64 182.519 178.844 182.951 179.108L182.087 180.818C181.631 180.542 181.169 180.356 180.701 180.26C180.245 180.152 179.789 180.098 179.333 180.098C178.649 180.098 178.139 180.2 177.803 180.404C177.479 180.608 177.317 180.866 177.317 181.178C177.317 181.466 177.425 181.682 177.641 181.826C177.857 181.97 178.139 182.084 178.487 182.168C178.835 182.252 179.219 182.324 179.639 182.384C180.071 182.432 180.497 182.51 180.917 182.618C181.337 182.726 181.721 182.876 182.069 183.068C182.429 183.248 182.717 183.506 182.933 183.842C183.149 184.178 183.257 184.616 183.257 185.156C183.257 185.756 183.077 186.278 182.717 186.722C182.369 187.166 181.871 187.514 181.223 187.766C180.575 188.006 179.801 188.126 178.901 188.126Z" fill="#505050"/>
<path d="M42.56 190.48C40.2667 190.48 38.2133 189.92 36.4 188.8C34.5867 187.653 33.16 186 32.12 183.84C31.08 181.68 30.56 179.067 30.56 176C30.56 172.933 31.08 170.32 32.12 168.16C33.16 166 34.5867 164.36 36.4 163.24C38.2133 162.093 40.2667 161.52 42.56 161.52C44.88 161.52 46.9333 162.093 48.72 163.24C50.5333 164.36 51.96 166 53 168.16C54.04 170.32 54.56 172.933 54.56 176C54.56 179.067 54.04 181.68 53 183.84C51.96 186 50.5333 187.653 48.72 188.8C46.9333 189.92 44.88 190.48 42.56 190.48ZM42.56 185C43.6533 185 44.6 184.693 45.4 184.08C46.2267 183.467 46.8667 182.493 47.32 181.16C47.8 179.827 48.04 178.107 48.04 176C48.04 173.893 47.8 172.173 47.32 170.84C46.8667 169.507 46.2267 168.533 45.4 167.92C44.6 167.307 43.6533 167 42.56 167C41.4933 167 40.5467 167.307 39.72 167.92C38.92 168.533 38.28 169.507 37.8 170.84C37.3467 172.173 37.12 173.893 37.12 176C37.12 178.107 37.3467 179.827 37.8 181.16C38.28 182.493 38.92 183.467 39.72 184.08C40.5467 184.693 41.4933 185 42.56 185ZM57.3484 180.44V177.08H78.9084V180.44H57.3484ZM57.3484 174.92V171.56H78.9084V174.92H57.3484ZM76.3884 190.48C74.2018 190.48 72.1751 190.133 70.3084 189.44C68.4684 188.72 66.8684 187.707 65.5084 186.4C64.1484 185.093 63.0951 183.56 62.3484 181.8C61.6018 180.04 61.2284 178.107 61.2284 176C61.2284 173.893 61.6018 171.96 62.3484 170.2C63.0951 168.44 64.1484 166.907 65.5084 165.6C66.8684 164.293 68.4684 163.293 70.3084 162.6C72.1751 161.88 74.2018 161.52 76.3884 161.52C78.8151 161.52 81.0151 161.947 82.9884 162.8C84.9618 163.627 86.6018 164.853 87.9084 166.48L83.7884 170.32C82.8284 169.227 81.7618 168.413 80.5884 167.88C79.4151 167.32 78.1218 167.04 76.7084 167.04C75.4018 167.04 74.2018 167.253 73.1084 167.68C72.0151 168.107 71.0684 168.72 70.2684 169.52C69.4684 170.32 68.8418 171.267 68.3884 172.36C67.9618 173.453 67.7484 174.667 67.7484 176C67.7484 177.333 67.9618 178.547 68.3884 179.64C68.8418 180.733 69.4684 181.68 70.2684 182.48C71.0684 183.28 72.0151 183.893 73.1084 184.32C74.2018 184.747 75.4018 184.96 76.7084 184.96C78.1218 184.96 79.4151 184.693 80.5884 184.16C81.7618 183.6 82.8284 182.76 83.7884 181.64L87.9084 185.48C86.6018 187.107 84.9618 188.347 82.9884 189.2C81.0151 190.053 78.8151 190.48 76.3884 190.48Z" fill="#505050"/>
<line x1="32.5" y1="69.5" x2="134.5" y2="69.5" stroke="#56B5CB" stroke-width="3" stroke-linecap="round"/>
<defs>
<filter id="filter0_d_3092_1084" x="0" y="0" width="319" height="497" filterUnits="userSpaceOnUse" color-interpolation-filters="sRGB">
<feFlood flood-opacity="0" result="BackgroundImageFix"/>
<feColorMatrix in="SourceAlpha" type="matrix" values="0 0 0 0 0 0 0 0 0 0 0 0 0 0 0 0 0 0 127 0" result="hardAlpha"/>
<feOffset dy="4"/>
<feGaussianBlur stdDeviation="2"/>
<feComposite in2="hardAlpha" operator="out"/>
<feColorMatrix type="matrix" values="0 0 0 0 0.904167 0 0 0 0 0.904167 0 0 0 0 0.904167 0 0 0 1 0"/>
<feBlend mode="normal" in2="BackgroundImageFix" result="effect1_dropShadow_3092_1084"/>
<feBlend mode="normal" in="SourceGraphic" in2="effect1_dropShadow_3092_1084" result="shape"/>
</filter>
</defs>
</svg>
