<svg width="319" height="497" viewBox="0 0 319 497" fill="none" xmlns="http://www.w3.org/2000/svg">
<g filter="url(#filter0_d_3094_1140)">
<rect x="5" y="1" width="309" height="487" rx="10" fill="#F8F7F7"/>
<rect x="4.5" y="0.5" width="310" height="488" rx="10.5" stroke="#F1F1F1"/>
</g>
<path d="M74.598 449.18C73.614 449.18 72.672 449.042 71.772 448.766C70.872 448.478 70.158 448.112 69.63 447.668L70.44 445.85C70.944 446.246 71.568 446.576 72.312 446.84C73.056 447.104 73.818 447.236 74.598 447.236C75.258 447.236 75.792 447.164 76.2 447.02C76.608 446.876 76.908 446.684 77.1 446.444C77.292 446.192 77.388 445.91 77.388 445.598C77.388 445.214 77.25 444.908 76.974 444.68C76.698 444.44 76.338 444.254 75.894 444.122C75.462 443.978 74.976 443.846 74.436 443.726C73.908 443.606 73.374 443.468 72.834 443.312C72.306 443.144 71.82 442.934 71.376 442.682C70.944 442.418 70.59 442.07 70.314 441.638C70.038 441.206 69.9 440.654 69.9 439.982C69.9 439.298 70.08 438.674 70.44 438.11C70.812 437.534 71.37 437.078 72.114 436.742C72.87 436.394 73.824 436.22 74.976 436.22C75.732 436.22 76.482 436.316 77.226 436.508C77.97 436.7 78.618 436.976 79.17 437.336L78.432 439.154C77.868 438.818 77.286 438.572 76.686 438.416C76.086 438.248 75.51 438.164 74.958 438.164C74.31 438.164 73.782 438.242 73.374 438.398C72.978 438.554 72.684 438.758 72.492 439.01C72.312 439.262 72.222 439.55 72.222 439.874C72.222 440.258 72.354 440.57 72.618 440.81C72.894 441.038 73.248 441.218 73.68 441.35C74.124 441.482 74.616 441.614 75.156 441.746C75.696 441.866 76.23 442.004 76.758 442.16C77.298 442.316 77.784 442.52 78.216 442.772C78.66 443.024 79.014 443.366 79.278 443.798C79.554 444.23 79.692 444.776 79.692 445.436C79.692 446.108 79.506 446.732 79.134 447.308C78.774 447.872 78.216 448.328 77.46 448.676C76.704 449.012 75.75 449.18 74.598 449.18ZM85.8643 449.126C85.0483 449.126 84.3283 448.976 83.7043 448.676C83.0803 448.364 82.5943 447.896 82.2463 447.272C81.8983 446.636 81.7243 445.838 81.7243 444.878V439.388H83.9743V444.572C83.9743 445.436 84.1663 446.084 84.5503 446.516C84.9463 446.936 85.5043 447.146 86.2243 447.146C86.7523 447.146 87.2083 447.038 87.5923 446.822C87.9883 446.606 88.2943 446.282 88.5103 445.85C88.7383 445.418 88.8523 444.884 88.8523 444.248V439.388H91.1023V449H88.9603V446.408L89.3383 447.2C89.0143 447.824 88.5403 448.304 87.9163 448.64C87.2923 448.964 86.6083 449.126 85.8643 449.126ZM94.0483 449V439.388H96.2983V449H94.0483ZM95.1823 437.804C94.7623 437.804 94.4143 437.672 94.1383 437.408C93.8743 437.144 93.7423 436.826 93.7423 436.454C93.7423 436.07 93.8743 435.752 94.1383 435.5C94.4143 435.236 94.7623 435.104 95.1823 435.104C95.6023 435.104 95.9443 435.23 96.2083 435.482C96.4843 435.722 96.6223 436.028 96.6223 436.4C96.6223 436.796 96.4903 437.132 96.2263 437.408C95.9623 437.672 95.6143 437.804 95.1823 437.804ZM101.807 449L97.6854 439.388H100.025L103.571 447.866H102.419L106.091 439.388H108.251L104.129 449H101.807ZM109.658 449V439.388H111.908V449H109.658ZM110.792 437.804C110.372 437.804 110.024 437.672 109.748 437.408C109.484 437.144 109.352 436.826 109.352 436.454C109.352 436.07 109.484 435.752 109.748 435.5C110.024 435.236 110.372 435.104 110.792 435.104C111.212 435.104 111.554 435.23 111.818 435.482C112.094 435.722 112.232 436.028 112.232 436.4C112.232 436.796 112.1 437.132 111.836 437.408C111.572 437.672 111.224 437.804 110.792 437.804ZM125.163 449.126C124.383 449.126 123.669 448.946 123.021 448.586C122.385 448.226 121.875 447.686 121.491 446.966C121.119 446.234 120.933 445.31 120.933 444.194C120.933 443.066 121.113 442.142 121.473 441.422C121.845 440.702 122.349 440.168 122.985 439.82C123.621 439.46 124.347 439.28 125.163 439.28C126.111 439.28 126.945 439.484 127.665 439.892C128.397 440.3 128.973 440.87 129.393 441.602C129.825 442.334 130.041 443.198 130.041 444.194C130.041 445.19 129.825 446.06 129.393 446.804C128.973 447.536 128.397 448.106 127.665 448.514C126.945 448.922 126.111 449.126 125.163 449.126ZM119.835 452.492V439.388H121.977V441.656L121.905 444.212L122.085 446.768V452.492H119.835ZM124.911 447.2C125.451 447.2 125.931 447.08 126.351 446.84C126.783 446.6 127.125 446.252 127.377 445.796C127.629 445.34 127.755 444.806 127.755 444.194C127.755 443.57 127.629 443.036 127.377 442.592C127.125 442.136 126.783 441.788 126.351 441.548C125.931 441.308 125.451 441.188 124.911 441.188C124.371 441.188 123.885 441.308 123.453 441.548C123.021 441.788 122.679 442.136 122.427 442.592C122.175 443.036 122.049 443.57 122.049 444.194C122.049 444.806 122.175 445.34 122.427 445.796C122.679 446.252 123.021 446.6 123.453 446.84C123.885 447.08 124.371 447.2 124.911 447.2ZM132.175 449V435.644H134.425V449H132.175ZM141.446 449.126C140.63 449.126 139.91 448.976 139.286 448.676C138.662 448.364 138.176 447.896 137.828 447.272C137.48 446.636 137.306 445.838 137.306 444.878V439.388H139.556V444.572C139.556 445.436 139.748 446.084 140.132 446.516C140.528 446.936 141.086 447.146 141.806 447.146C142.334 447.146 142.79 447.038 143.174 446.822C143.57 446.606 143.876 446.282 144.092 445.85C144.32 445.418 144.434 444.884 144.434 444.248V439.388H146.684V449H144.542V446.408L144.92 447.2C144.596 447.824 144.122 448.304 143.498 448.64C142.874 448.964 142.19 449.126 141.446 449.126ZM152.6 449.126C151.796 449.126 151.022 449.024 150.278 448.82C149.546 448.604 148.964 448.346 148.532 448.046L149.396 446.336C149.828 446.612 150.344 446.84 150.944 447.02C151.544 447.2 152.144 447.29 152.744 447.29C153.452 447.29 153.962 447.194 154.274 447.002C154.598 446.81 154.76 446.552 154.76 446.228C154.76 445.964 154.652 445.766 154.436 445.634C154.22 445.49 153.938 445.382 153.59 445.31C153.242 445.238 152.852 445.172 152.42 445.112C152 445.052 151.574 444.974 151.142 444.878C150.722 444.77 150.338 444.62 149.99 444.428C149.642 444.224 149.36 443.954 149.144 443.618C148.928 443.282 148.82 442.838 148.82 442.286C148.82 441.674 148.994 441.146 149.342 440.702C149.69 440.246 150.176 439.898 150.8 439.658C151.436 439.406 152.186 439.28 153.05 439.28C153.698 439.28 154.352 439.352 155.012 439.496C155.672 439.64 156.218 439.844 156.65 440.108L155.786 441.818C155.33 441.542 154.868 441.356 154.4 441.26C153.944 441.152 153.488 441.098 153.032 441.098C152.348 441.098 151.838 441.2 151.502 441.404C151.178 441.608 151.016 441.866 151.016 442.178C151.016 442.466 151.124 442.682 151.34 442.826C151.556 442.97 151.838 443.084 152.186 443.168C152.534 443.252 152.918 443.324 153.338 443.384C153.77 443.432 154.196 443.51 154.616 443.618C155.036 443.726 155.42 443.876 155.768 444.068C156.128 444.248 156.416 444.506 156.632 444.842C156.848 445.178 156.956 445.616 156.956 446.156C156.956 446.756 156.776 447.278 156.416 447.722C156.068 448.166 155.57 448.514 154.922 448.766C154.274 449.006 153.5 449.126 152.6 449.126ZM158.894 449V439.388H161.144V449H158.894ZM160.028 437.804C159.608 437.804 159.26 437.672 158.984 437.408C158.72 437.144 158.588 436.826 158.588 436.454C158.588 436.07 158.72 435.752 158.984 435.5C159.26 435.236 159.608 435.104 160.028 435.104C160.448 435.104 160.79 435.23 161.054 435.482C161.33 435.722 161.468 436.028 161.468 436.4C161.468 436.796 161.336 437.132 161.072 437.408C160.808 437.672 160.46 437.804 160.028 437.804ZM168.615 449.126C167.547 449.126 166.611 448.916 165.807 448.496C165.015 448.064 164.397 447.476 163.953 446.732C163.521 445.988 163.305 445.142 163.305 444.194C163.305 443.234 163.515 442.388 163.935 441.656C164.367 440.912 164.955 440.33 165.699 439.91C166.455 439.49 167.313 439.28 168.273 439.28C169.209 439.28 170.043 439.484 170.775 439.892C171.507 440.3 172.083 440.876 172.503 441.62C172.923 442.364 173.133 443.24 173.133 444.248C173.133 444.344 173.127 444.452 173.115 444.572C173.115 444.692 173.109 444.806 173.097 444.914H165.087V443.42H171.909L171.027 443.888C171.039 443.336 170.925 442.85 170.685 442.43C170.445 442.01 170.115 441.68 169.695 441.44C169.287 441.2 168.813 441.08 168.273 441.08C167.721 441.08 167.235 441.2 166.815 441.44C166.407 441.68 166.083 442.016 165.843 442.448C165.615 442.868 165.501 443.366 165.501 443.942V444.302C165.501 444.878 165.633 445.388 165.897 445.832C166.161 446.276 166.533 446.618 167.013 446.858C167.493 447.098 168.045 447.218 168.669 447.218C169.209 447.218 169.695 447.134 170.127 446.966C170.559 446.798 170.943 446.534 171.279 446.174L172.485 447.56C172.053 448.064 171.507 448.454 170.847 448.73C170.199 448.994 169.455 449.126 168.615 449.126ZM179.362 449.126C178.546 449.126 177.826 448.976 177.202 448.676C176.578 448.364 176.092 447.896 175.744 447.272C175.396 446.636 175.222 445.838 175.222 444.878V439.388H177.472V444.572C177.472 445.436 177.664 446.084 178.048 446.516C178.444 446.936 179.002 447.146 179.722 447.146C180.25 447.146 180.706 447.038 181.09 446.822C181.486 446.606 181.792 446.282 182.008 445.85C182.236 445.418 182.35 444.884 182.35 444.248V439.388H184.6V449H182.458V446.408L182.836 447.2C182.512 447.824 182.038 448.304 181.414 448.64C180.79 448.964 180.106 449.126 179.362 449.126ZM187.546 449V439.388H189.688V442.034L189.436 441.26C189.724 440.612 190.174 440.12 190.786 439.784C191.41 439.448 192.184 439.28 193.108 439.28V441.422C193.012 441.398 192.922 441.386 192.838 441.386C192.754 441.374 192.67 441.368 192.586 441.368C191.734 441.368 191.056 441.62 190.552 442.124C190.048 442.616 189.796 443.354 189.796 444.338V449H187.546ZM198.075 449.126C197.271 449.126 196.497 449.024 195.753 448.82C195.021 448.604 194.439 448.346 194.007 448.046L194.871 446.336C195.303 446.612 195.819 446.84 196.419 447.02C197.019 447.2 197.619 447.29 198.219 447.29C198.927 447.29 199.437 447.194 199.749 447.002C200.073 446.81 200.235 446.552 200.235 446.228C200.235 445.964 200.127 445.766 199.911 445.634C199.695 445.49 199.413 445.382 199.065 445.31C198.717 445.238 198.327 445.172 197.895 445.112C197.475 445.052 197.049 444.974 196.617 444.878C196.197 444.77 195.813 444.62 195.465 444.428C195.117 444.224 194.835 443.954 194.619 443.618C194.403 443.282 194.295 442.838 194.295 442.286C194.295 441.674 194.469 441.146 194.817 440.702C195.165 440.246 195.651 439.898 196.275 439.658C196.911 439.406 197.661 439.28 198.525 439.28C199.173 439.28 199.827 439.352 200.487 439.496C201.147 439.64 201.693 439.844 202.125 440.108L201.261 441.818C200.805 441.542 200.343 441.356 199.875 441.26C199.419 441.152 198.963 441.098 198.507 441.098C197.823 441.098 197.313 441.2 196.977 441.404C196.653 441.608 196.491 441.866 196.491 442.178C196.491 442.466 196.599 442.682 196.815 442.826C197.031 442.97 197.313 443.084 197.661 443.168C198.009 443.252 198.393 443.324 198.813 443.384C199.245 443.432 199.671 443.51 200.091 443.618C200.511 443.726 200.895 443.876 201.243 444.068C201.603 444.248 201.891 444.506 202.107 444.842C202.323 445.178 202.431 445.616 202.431 446.156C202.431 446.756 202.251 447.278 201.891 447.722C201.543 448.166 201.045 448.514 200.397 448.766C199.749 449.006 198.975 449.126 198.075 449.126ZM214.671 449.126C213.891 449.126 213.177 448.946 212.529 448.586C211.893 448.226 211.383 447.686 210.999 446.966C210.627 446.234 210.441 445.31 210.441 444.194C210.441 443.066 210.621 442.142 210.981 441.422C211.353 440.702 211.857 440.168 212.493 439.82C213.129 439.46 213.855 439.28 214.671 439.28C215.619 439.28 216.453 439.484 217.173 439.892C217.905 440.3 218.481 440.87 218.901 441.602C219.333 442.334 219.549 443.198 219.549 444.194C219.549 445.19 219.333 446.06 218.901 446.804C218.481 447.536 217.905 448.106 217.173 448.514C216.453 448.922 215.619 449.126 214.671 449.126ZM209.343 452.492V439.388H211.485V441.656L211.413 444.212L211.593 446.768V452.492H209.343ZM214.419 447.2C214.959 447.2 215.439 447.08 215.859 446.84C216.291 446.6 216.633 446.252 216.885 445.796C217.137 445.34 217.263 444.806 217.263 444.194C217.263 443.57 217.137 443.036 216.885 442.592C216.633 442.136 216.291 441.788 215.859 441.548C215.439 441.308 214.959 441.188 214.419 441.188C213.879 441.188 213.393 441.308 212.961 441.548C212.529 441.788 212.187 442.136 211.935 442.592C211.683 443.036 211.557 443.57 211.557 444.194C211.557 444.806 211.683 445.34 211.935 445.796C212.187 446.252 212.529 446.6 212.961 446.84C213.393 447.08 213.879 447.2 214.419 447.2ZM227.482 449V447.056L227.356 446.642V443.24C227.356 442.58 227.158 442.07 226.762 441.71C226.366 441.338 225.766 441.152 224.962 441.152C224.422 441.152 223.888 441.236 223.36 441.404C222.844 441.572 222.406 441.806 222.046 442.106L221.164 440.468C221.68 440.072 222.292 439.778 223 439.586C223.72 439.382 224.464 439.28 225.232 439.28C226.624 439.28 227.698 439.616 228.454 440.288C229.222 440.948 229.606 441.974 229.606 443.366V449H227.482ZM224.458 449.126C223.738 449.126 223.108 449.006 222.568 448.766C222.028 448.514 221.608 448.172 221.308 447.74C221.02 447.296 220.876 446.798 220.876 446.246C220.876 445.706 221.002 445.22 221.254 444.788C221.518 444.356 221.944 444.014 222.532 443.762C223.12 443.51 223.9 443.384 224.872 443.384H227.662V444.878H225.034C224.266 444.878 223.75 445.004 223.486 445.256C223.222 445.496 223.09 445.796 223.09 446.156C223.09 446.564 223.252 446.888 223.576 447.128C223.9 447.368 224.35 447.488 224.926 447.488C225.478 447.488 225.97 447.362 226.402 447.11C226.846 446.858 227.164 446.486 227.356 445.994L227.734 447.344C227.518 447.908 227.128 448.346 226.564 448.658C226.012 448.97 225.31 449.126 224.458 449.126ZM236.112 449.126C235.056 449.126 234.24 448.856 233.664 448.316C233.088 447.764 232.8 446.954 232.8 445.886V437.264H235.05V445.832C235.05 446.288 235.164 446.642 235.392 446.894C235.632 447.146 235.962 447.272 236.382 447.272C236.886 447.272 237.306 447.14 237.642 446.876L238.272 448.478C238.008 448.694 237.684 448.856 237.3 448.964C236.916 449.072 236.52 449.126 236.112 449.126ZM231.216 441.26V439.46H237.624V441.26H231.216ZM240.122 449V439.388H242.372V449H240.122ZM241.256 437.804C240.836 437.804 240.488 437.672 240.212 437.408C239.948 437.144 239.816 436.826 239.816 436.454C239.816 436.07 239.948 435.752 240.212 435.5C240.488 435.236 240.836 435.104 241.256 435.104C241.676 435.104 242.018 435.23 242.282 435.482C242.558 435.722 242.696 436.028 242.696 436.4C242.696 436.796 242.564 437.132 242.3 437.408C242.036 437.672 241.688 437.804 241.256 437.804ZM249.844 449.126C248.776 449.126 247.84 448.916 247.036 448.496C246.244 448.064 245.626 447.476 245.182 446.732C244.75 445.988 244.534 445.142 244.534 444.194C244.534 443.234 244.744 442.388 245.164 441.656C245.596 440.912 246.184 440.33 246.928 439.91C247.684 439.49 248.542 439.28 249.502 439.28C250.438 439.28 251.272 439.484 252.004 439.892C252.736 440.3 253.312 440.876 253.732 441.62C254.152 442.364 254.362 443.24 254.362 444.248C254.362 444.344 254.356 444.452 254.344 444.572C254.344 444.692 254.338 444.806 254.326 444.914H246.316V443.42H253.138L252.256 443.888C252.268 443.336 252.154 442.85 251.914 442.43C251.674 442.01 251.344 441.68 250.924 441.44C250.516 441.2 250.042 441.08 249.502 441.08C248.95 441.08 248.464 441.2 248.044 441.44C247.636 441.68 247.312 442.016 247.072 442.448C246.844 442.868 246.73 443.366 246.73 443.942V444.302C246.73 444.878 246.862 445.388 247.126 445.832C247.39 446.276 247.762 446.618 248.242 446.858C248.722 447.098 249.274 447.218 249.898 447.218C250.438 447.218 250.924 447.134 251.356 446.966C251.788 446.798 252.172 446.534 252.508 446.174L253.714 447.56C253.282 448.064 252.736 448.454 252.076 448.73C251.428 448.994 250.684 449.126 249.844 449.126ZM261.977 439.28C262.745 439.28 263.429 439.43 264.029 439.73C264.641 440.03 265.121 440.492 265.469 441.116C265.817 441.728 265.991 442.52 265.991 443.492V449H263.741V443.78C263.741 442.928 263.537 442.292 263.129 441.872C262.733 441.452 262.175 441.242 261.455 441.242C260.927 441.242 260.459 441.35 260.051 441.566C259.643 441.782 259.325 442.106 259.097 442.538C258.881 442.958 258.773 443.492 258.773 444.14V449H256.523V439.388H258.665V441.98L258.287 441.188C258.623 440.576 259.109 440.108 259.745 439.784C260.393 439.448 261.137 439.28 261.977 439.28ZM272.463 449.126C271.407 449.126 270.591 448.856 270.015 448.316C269.439 447.764 269.151 446.954 269.151 445.886V437.264H271.401V445.832C271.401 446.288 271.515 446.642 271.743 446.894C271.983 447.146 272.313 447.272 272.733 447.272C273.237 447.272 273.657 447.14 273.993 446.876L274.623 448.478C274.359 448.694 274.035 448.856 273.651 448.964C273.267 449.072 272.871 449.126 272.463 449.126ZM267.567 441.26V439.46H273.975V441.26H267.567ZM279.444 449.126C278.64 449.126 277.866 449.024 277.122 448.82C276.39 448.604 275.808 448.346 275.376 448.046L276.24 446.336C276.672 446.612 277.188 446.84 277.788 447.02C278.388 447.2 278.988 447.29 279.588 447.29C280.296 447.29 280.806 447.194 281.118 447.002C281.442 446.81 281.604 446.552 281.604 446.228C281.604 445.964 281.496 445.766 281.28 445.634C281.064 445.49 280.782 445.382 280.434 445.31C280.086 445.238 279.696 445.172 279.264 445.112C278.844 445.052 278.418 444.974 277.986 444.878C277.566 444.77 277.182 444.62 276.834 444.428C276.486 444.224 276.204 443.954 275.988 443.618C275.772 443.282 275.664 442.838 275.664 442.286C275.664 441.674 275.838 441.146 276.186 440.702C276.534 440.246 277.02 439.898 277.644 439.658C278.28 439.406 279.03 439.28 279.894 439.28C280.542 439.28 281.196 439.352 281.856 439.496C282.516 439.64 283.062 439.844 283.494 440.108L282.63 441.818C282.174 441.542 281.712 441.356 281.244 441.26C280.788 441.152 280.332 441.098 279.876 441.098C279.192 441.098 278.682 441.2 278.346 441.404C278.022 441.608 277.86 441.866 277.86 442.178C277.86 442.466 277.968 442.682 278.184 442.826C278.4 442.97 278.682 443.084 279.03 443.168C279.378 443.252 279.762 443.324 280.182 443.384C280.614 443.432 281.04 443.51 281.46 443.618C281.88 443.726 282.264 443.876 282.612 444.068C282.972 444.248 283.26 444.506 283.476 444.842C283.692 445.178 283.8 445.616 283.8 446.156C283.8 446.756 283.62 447.278 283.26 447.722C282.912 448.166 282.414 448.514 281.766 448.766C281.118 449.006 280.344 449.126 279.444 449.126Z" fill="#505050"/>
<path d="M70.692 316V303.4H72.618L78.126 312.598H77.118L82.536 303.4H84.462L84.48 316H82.266L82.248 306.874H82.716L78.108 314.56H77.064L72.384 306.874H72.924V316H70.692ZM92.1854 316.126C91.1174 316.126 90.1814 315.916 89.3774 315.496C88.5854 315.064 87.9674 314.476 87.5234 313.732C87.0914 312.988 86.8754 312.142 86.8754 311.194C86.8754 310.234 87.0854 309.388 87.5054 308.656C87.9374 307.912 88.5254 307.33 89.2694 306.91C90.0254 306.49 90.8834 306.28 91.8434 306.28C92.7794 306.28 93.6134 306.484 94.3454 306.892C95.0774 307.3 95.6534 307.876 96.0734 308.62C96.4934 309.364 96.7034 310.24 96.7034 311.248C96.7034 311.344 96.6974 311.452 96.6854 311.572C96.6854 311.692 96.6794 311.806 96.6674 311.914H88.6574V310.42H95.4794L94.5974 310.888C94.6094 310.336 94.4954 309.85 94.2554 309.43C94.0154 309.01 93.6854 308.68 93.2654 308.44C92.8574 308.2 92.3834 308.08 91.8434 308.08C91.2914 308.08 90.8054 308.2 90.3854 308.44C89.9774 308.68 89.6534 309.016 89.4134 309.448C89.1854 309.868 89.0714 310.366 89.0714 310.942V311.302C89.0714 311.878 89.2034 312.388 89.4674 312.832C89.7314 313.276 90.1034 313.618 90.5834 313.858C91.0634 314.098 91.6154 314.218 92.2394 314.218C92.7794 314.218 93.2654 314.134 93.6974 313.966C94.1294 313.798 94.5134 313.534 94.8494 313.174L96.0554 314.56C95.6234 315.064 95.0774 315.454 94.4174 315.73C93.7694 315.994 93.0254 316.126 92.1854 316.126ZM101.835 316.126C101.031 316.126 100.257 316.024 99.5127 315.82C98.7807 315.604 98.1987 315.346 97.7667 315.046L98.6307 313.336C99.0627 313.612 99.5787 313.84 100.179 314.02C100.779 314.2 101.379 314.29 101.979 314.29C102.687 314.29 103.197 314.194 103.509 314.002C103.833 313.81 103.995 313.552 103.995 313.228C103.995 312.964 103.887 312.766 103.671 312.634C103.455 312.49 103.173 312.382 102.825 312.31C102.477 312.238 102.087 312.172 101.655 312.112C101.235 312.052 100.809 311.974 100.377 311.878C99.9567 311.77 99.5727 311.62 99.2247 311.428C98.8767 311.224 98.5947 310.954 98.3787 310.618C98.1627 310.282 98.0547 309.838 98.0547 309.286C98.0547 308.674 98.2287 308.146 98.5767 307.702C98.9247 307.246 99.4107 306.898 100.035 306.658C100.671 306.406 101.421 306.28 102.285 306.28C102.933 306.28 103.587 306.352 104.247 306.496C104.907 306.64 105.453 306.844 105.885 307.108L105.021 308.818C104.565 308.542 104.103 308.356 103.635 308.26C103.179 308.152 102.723 308.098 102.267 308.098C101.583 308.098 101.073 308.2 100.737 308.404C100.413 308.608 100.251 308.866 100.251 309.178C100.251 309.466 100.359 309.682 100.575 309.826C100.791 309.97 101.073 310.084 101.421 310.168C101.769 310.252 102.153 310.324 102.573 310.384C103.005 310.432 103.431 310.51 103.851 310.618C104.271 310.726 104.655 310.876 105.003 311.068C105.363 311.248 105.651 311.506 105.867 311.842C106.083 312.178 106.191 312.616 106.191 313.156C106.191 313.756 106.011 314.278 105.651 314.722C105.303 315.166 104.805 315.514 104.157 315.766C103.509 316.006 102.735 316.126 101.835 316.126ZM111.098 316.126C110.294 316.126 109.52 316.024 108.776 315.82C108.044 315.604 107.462 315.346 107.03 315.046L107.894 313.336C108.326 313.612 108.842 313.84 109.442 314.02C110.042 314.2 110.642 314.29 111.242 314.29C111.95 314.29 112.46 314.194 112.772 314.002C113.096 313.81 113.258 313.552 113.258 313.228C113.258 312.964 113.15 312.766 112.934 312.634C112.718 312.49 112.436 312.382 112.088 312.31C111.74 312.238 111.35 312.172 110.918 312.112C110.498 312.052 110.072 311.974 109.64 311.878C109.22 311.77 108.836 311.62 108.488 311.428C108.14 311.224 107.858 310.954 107.642 310.618C107.426 310.282 107.318 309.838 107.318 309.286C107.318 308.674 107.492 308.146 107.84 307.702C108.188 307.246 108.674 306.898 109.298 306.658C109.934 306.406 110.684 306.28 111.548 306.28C112.196 306.28 112.85 306.352 113.51 306.496C114.17 306.64 114.716 306.844 115.148 307.108L114.284 308.818C113.828 308.542 113.366 308.356 112.898 308.26C112.442 308.152 111.986 308.098 111.53 308.098C110.846 308.098 110.336 308.2 110 308.404C109.676 308.608 109.514 308.866 109.514 309.178C109.514 309.466 109.622 309.682 109.838 309.826C110.054 309.97 110.336 310.084 110.684 310.168C111.032 310.252 111.416 310.324 111.836 310.384C112.268 310.432 112.694 310.51 113.114 310.618C113.534 310.726 113.918 310.876 114.266 311.068C114.626 311.248 114.914 311.506 115.13 311.842C115.346 312.178 115.454 312.616 115.454 313.156C115.454 313.756 115.274 314.278 114.914 314.722C114.566 315.166 114.068 315.514 113.42 315.766C112.772 316.006 111.998 316.126 111.098 316.126ZM123.314 316V314.056L123.188 313.642V310.24C123.188 309.58 122.99 309.07 122.594 308.71C122.198 308.338 121.598 308.152 120.794 308.152C120.254 308.152 119.72 308.236 119.192 308.404C118.676 308.572 118.238 308.806 117.878 309.106L116.996 307.468C117.512 307.072 118.124 306.778 118.832 306.586C119.552 306.382 120.296 306.28 121.064 306.28C122.456 306.28 123.53 306.616 124.286 307.288C125.054 307.948 125.438 308.974 125.438 310.366V316H123.314ZM120.29 316.126C119.57 316.126 118.94 316.006 118.4 315.766C117.86 315.514 117.44 315.172 117.14 314.74C116.852 314.296 116.708 313.798 116.708 313.246C116.708 312.706 116.834 312.22 117.086 311.788C117.35 311.356 117.776 311.014 118.364 310.762C118.952 310.51 119.732 310.384 120.704 310.384H123.494V311.878H120.866C120.098 311.878 119.582 312.004 119.318 312.256C119.054 312.496 118.922 312.796 118.922 313.156C118.922 313.564 119.084 313.888 119.408 314.128C119.732 314.368 120.182 314.488 120.758 314.488C121.31 314.488 121.802 314.362 122.234 314.11C122.678 313.858 122.996 313.486 123.188 312.994L123.566 314.344C123.35 314.908 122.96 315.346 122.396 315.658C121.844 315.97 121.142 316.126 120.29 316.126ZM132.699 319.618C131.811 319.618 130.941 319.498 130.089 319.258C129.249 319.03 128.559 318.694 128.019 318.25L129.027 316.558C129.447 316.906 129.975 317.182 130.611 317.386C131.259 317.602 131.913 317.71 132.573 317.71C133.629 317.71 134.403 317.464 134.895 316.972C135.387 316.492 135.633 315.766 135.633 314.794V313.084L135.813 310.906L135.741 308.728V306.388H137.883V314.542C137.883 316.282 137.439 317.56 136.551 318.376C135.663 319.204 134.379 319.618 132.699 319.618ZM132.411 315.568C131.499 315.568 130.671 315.376 129.927 314.992C129.195 314.596 128.613 314.05 128.181 313.354C127.761 312.658 127.551 311.842 127.551 310.906C127.551 309.982 127.761 309.172 128.181 308.476C128.613 307.78 129.195 307.24 129.927 306.856C130.671 306.472 131.499 306.28 132.411 306.28C133.227 306.28 133.959 306.442 134.607 306.766C135.255 307.09 135.771 307.594 136.155 308.278C136.551 308.962 136.749 309.838 136.749 310.906C136.749 311.974 136.551 312.856 136.155 313.552C135.771 314.236 135.255 314.746 134.607 315.082C133.959 315.406 133.227 315.568 132.411 315.568ZM132.753 313.66C133.317 313.66 133.821 313.546 134.265 313.318C134.709 313.078 135.051 312.754 135.291 312.346C135.543 311.926 135.669 311.446 135.669 310.906C135.669 310.366 135.543 309.892 135.291 309.484C135.051 309.064 134.709 308.746 134.265 308.53C133.821 308.302 133.317 308.188 132.753 308.188C132.189 308.188 131.679 308.302 131.223 308.53C130.779 308.746 130.431 309.064 130.179 309.484C129.939 309.892 129.819 310.366 129.819 310.906C129.819 311.446 129.939 311.926 130.179 312.346C130.431 312.754 130.779 313.078 131.223 313.318C131.679 313.546 132.189 313.66 132.753 313.66ZM145.359 316.126C144.291 316.126 143.355 315.916 142.551 315.496C141.759 315.064 141.141 314.476 140.697 313.732C140.265 312.988 140.049 312.142 140.049 311.194C140.049 310.234 140.259 309.388 140.679 308.656C141.111 307.912 141.699 307.33 142.443 306.91C143.199 306.49 144.057 306.28 145.017 306.28C145.953 306.28 146.787 306.484 147.519 306.892C148.251 307.3 148.827 307.876 149.247 308.62C149.667 309.364 149.877 310.24 149.877 311.248C149.877 311.344 149.871 311.452 149.859 311.572C149.859 311.692 149.853 311.806 149.841 311.914H141.831V310.42H148.653L147.771 310.888C147.783 310.336 147.669 309.85 147.429 309.43C147.189 309.01 146.859 308.68 146.439 308.44C146.031 308.2 145.557 308.08 145.017 308.08C144.465 308.08 143.979 308.2 143.559 308.44C143.151 308.68 142.827 309.016 142.587 309.448C142.359 309.868 142.245 310.366 142.245 310.942V311.302C142.245 311.878 142.377 312.388 142.641 312.832C142.905 313.276 143.277 313.618 143.757 313.858C144.237 314.098 144.789 314.218 145.413 314.218C145.953 314.218 146.439 314.134 146.871 313.966C147.303 313.798 147.687 313.534 148.023 313.174L149.229 314.56C148.797 315.064 148.251 315.454 147.591 315.73C146.943 315.994 146.199 316.126 145.359 316.126ZM152.039 316V306.388H154.181V309.034L153.929 308.26C154.217 307.612 154.667 307.12 155.279 306.784C155.903 306.448 156.677 306.28 157.601 306.28V308.422C157.505 308.398 157.415 308.386 157.331 308.386C157.247 308.374 157.163 308.368 157.079 308.368C156.227 308.368 155.549 308.62 155.045 309.124C154.541 309.616 154.289 310.354 154.289 311.338V316H152.039ZM159.509 316V306.388H161.759V316H159.509ZM160.643 304.804C160.223 304.804 159.875 304.672 159.599 304.408C159.335 304.144 159.203 303.826 159.203 303.454C159.203 303.07 159.335 302.752 159.599 302.5C159.875 302.236 160.223 302.104 160.643 302.104C161.063 302.104 161.405 302.23 161.669 302.482C161.945 302.722 162.083 303.028 162.083 303.4C162.083 303.796 161.951 304.132 161.687 304.408C161.423 304.672 161.075 304.804 160.643 304.804ZM169.23 316.126C168.162 316.126 167.226 315.916 166.422 315.496C165.63 315.064 165.012 314.476 164.568 313.732C164.136 312.988 163.92 312.142 163.92 311.194C163.92 310.234 164.13 309.388 164.55 308.656C164.982 307.912 165.57 307.33 166.314 306.91C167.07 306.49 167.928 306.28 168.888 306.28C169.824 306.28 170.658 306.484 171.39 306.892C172.122 307.3 172.698 307.876 173.118 308.62C173.538 309.364 173.748 310.24 173.748 311.248C173.748 311.344 173.742 311.452 173.73 311.572C173.73 311.692 173.724 311.806 173.712 311.914H165.702V310.42H172.524L171.642 310.888C171.654 310.336 171.54 309.85 171.3 309.43C171.06 309.01 170.73 308.68 170.31 308.44C169.902 308.2 169.428 308.08 168.888 308.08C168.336 308.08 167.85 308.2 167.43 308.44C167.022 308.68 166.698 309.016 166.458 309.448C166.23 309.868 166.116 310.366 166.116 310.942V311.302C166.116 311.878 166.248 312.388 166.512 312.832C166.776 313.276 167.148 313.618 167.628 313.858C168.108 314.098 168.66 314.218 169.284 314.218C169.824 314.218 170.31 314.134 170.742 313.966C171.174 313.798 171.558 313.534 171.894 313.174L173.1 314.56C172.668 315.064 172.122 315.454 171.462 315.73C170.814 315.994 170.07 316.126 169.23 316.126Z" fill="#505050"/>
<path d="M68.91 358L74.58 345.4H76.884L82.572 358H80.124L75.246 346.642H76.182L71.322 358H68.91ZM71.52 355.084L72.15 353.248H78.954L79.584 355.084H71.52ZM83.9584 358V344.644H86.2084V358H83.9584ZM93.6795 358.126C92.6115 358.126 91.6755 357.916 90.8715 357.496C90.0795 357.064 89.4615 356.476 89.0175 355.732C88.5855 354.988 88.3695 354.142 88.3695 353.194C88.3695 352.234 88.5795 351.388 88.9995 350.656C89.4315 349.912 90.0195 349.33 90.7635 348.91C91.5195 348.49 92.3775 348.28 93.3375 348.28C94.2735 348.28 95.1075 348.484 95.8395 348.892C96.5715 349.3 97.1475 349.876 97.5675 350.62C97.9875 351.364 98.1975 352.24 98.1975 353.248C98.1975 353.344 98.1915 353.452 98.1795 353.572C98.1795 353.692 98.1735 353.806 98.1615 353.914H90.1515V352.42H96.9735L96.0915 352.888C96.1035 352.336 95.9895 351.85 95.7495 351.43C95.5095 351.01 95.1795 350.68 94.7595 350.44C94.3515 350.2 93.8775 350.08 93.3375 350.08C92.7855 350.08 92.2995 350.2 91.8795 350.44C91.4715 350.68 91.1475 351.016 90.9075 351.448C90.6795 351.868 90.5655 352.366 90.5655 352.942V353.302C90.5655 353.878 90.6975 354.388 90.9615 354.832C91.2255 355.276 91.5975 355.618 92.0775 355.858C92.5575 356.098 93.1095 356.218 93.7335 356.218C94.2735 356.218 94.7595 356.134 95.1915 355.966C95.6235 355.798 96.0075 355.534 96.3435 355.174L97.5495 356.56C97.1175 357.064 96.5715 357.454 95.9115 357.73C95.2635 357.994 94.5195 358.126 93.6795 358.126ZM100.359 358V348.388H102.501V351.034L102.249 350.26C102.537 349.612 102.987 349.12 103.599 348.784C104.223 348.448 104.997 348.28 105.921 348.28V350.422C105.825 350.398 105.735 350.386 105.651 350.386C105.567 350.374 105.483 350.368 105.399 350.368C104.547 350.368 103.869 350.62 103.365 351.124C102.861 351.616 102.609 352.354 102.609 353.338V358H100.359ZM111.799 358.126C110.743 358.126 109.927 357.856 109.351 357.316C108.775 356.764 108.487 355.954 108.487 354.886V346.264H110.737V354.832C110.737 355.288 110.851 355.642 111.079 355.894C111.319 356.146 111.649 356.272 112.069 356.272C112.573 356.272 112.993 356.14 113.329 355.876L113.959 357.478C113.695 357.694 113.371 357.856 112.987 357.964C112.603 358.072 112.207 358.126 111.799 358.126ZM106.903 350.26V348.46H113.311V350.26H106.903ZM120.012 358.126C118.944 358.126 118.008 357.916 117.204 357.496C116.412 357.064 115.794 356.476 115.35 355.732C114.918 354.988 114.702 354.142 114.702 353.194C114.702 352.234 114.912 351.388 115.332 350.656C115.764 349.912 116.352 349.33 117.096 348.91C117.852 348.49 118.71 348.28 119.67 348.28C120.606 348.28 121.44 348.484 122.172 348.892C122.904 349.3 123.48 349.876 123.9 350.62C124.32 351.364 124.53 352.24 124.53 353.248C124.53 353.344 124.524 353.452 124.512 353.572C124.512 353.692 124.506 353.806 124.494 353.914H116.484V352.42H123.306L122.424 352.888C122.436 352.336 122.322 351.85 122.082 351.43C121.842 351.01 121.512 350.68 121.092 350.44C120.684 350.2 120.21 350.08 119.67 350.08C119.118 350.08 118.632 350.2 118.212 350.44C117.804 350.68 117.48 351.016 117.24 351.448C117.012 351.868 116.898 352.366 116.898 352.942V353.302C116.898 353.878 117.03 354.388 117.294 354.832C117.558 355.276 117.93 355.618 118.41 355.858C118.89 356.098 119.442 356.218 120.066 356.218C120.606 356.218 121.092 356.134 121.524 355.966C121.956 355.798 122.34 355.534 122.676 355.174L123.882 356.56C123.45 357.064 122.904 357.454 122.244 357.73C121.596 357.994 120.852 358.126 120.012 358.126ZM129.661 358.126C128.857 358.126 128.083 358.024 127.339 357.82C126.607 357.604 126.025 357.346 125.593 357.046L126.457 355.336C126.889 355.612 127.405 355.84 128.005 356.02C128.605 356.2 129.205 356.29 129.805 356.29C130.513 356.29 131.023 356.194 131.335 356.002C131.659 355.81 131.821 355.552 131.821 355.228C131.821 354.964 131.713 354.766 131.497 354.634C131.281 354.49 130.999 354.382 130.651 354.31C130.303 354.238 129.913 354.172 129.481 354.112C129.061 354.052 128.635 353.974 128.203 353.878C127.783 353.77 127.399 353.62 127.051 353.428C126.703 353.224 126.421 352.954 126.205 352.618C125.989 352.282 125.881 351.838 125.881 351.286C125.881 350.674 126.055 350.146 126.403 349.702C126.751 349.246 127.237 348.898 127.861 348.658C128.497 348.406 129.247 348.28 130.111 348.28C130.759 348.28 131.413 348.352 132.073 348.496C132.733 348.64 133.279 348.844 133.711 349.108L132.847 350.818C132.391 350.542 131.929 350.356 131.461 350.26C131.005 350.152 130.549 350.098 130.093 350.098C129.409 350.098 128.899 350.2 128.563 350.404C128.239 350.608 128.077 350.866 128.077 351.178C128.077 351.466 128.185 351.682 128.401 351.826C128.617 351.97 128.899 352.084 129.247 352.168C129.595 352.252 129.979 352.324 130.399 352.384C130.831 352.432 131.257 352.51 131.677 352.618C132.097 352.726 132.481 352.876 132.829 353.068C133.189 353.248 133.477 353.506 133.693 353.842C133.909 354.178 134.017 354.616 134.017 355.156C134.017 355.756 133.837 356.278 133.477 356.722C133.129 357.166 132.631 357.514 131.983 357.766C131.335 358.006 130.561 358.126 129.661 358.126Z" fill="#505050"/>
<path d="M76.578 403.18C75.594 403.18 74.688 403.024 73.86 402.712C73.044 402.388 72.33 401.938 71.718 401.362C71.106 400.774 70.632 400.084 70.296 399.292C69.96 398.5 69.792 397.636 69.792 396.7C69.792 395.764 69.96 394.9 70.296 394.108C70.632 393.316 71.106 392.632 71.718 392.056C72.342 391.468 73.068 391.018 73.896 390.706C74.724 390.382 75.63 390.22 76.614 390.22C77.682 390.22 78.642 390.394 79.494 390.742C80.358 391.09 81.084 391.6 81.672 392.272L80.196 393.712C79.704 393.22 79.17 392.86 78.594 392.632C78.03 392.392 77.406 392.272 76.722 392.272C76.062 392.272 75.45 392.38 74.886 392.596C74.322 392.812 73.836 393.118 73.428 393.514C73.02 393.91 72.702 394.378 72.474 394.918C72.258 395.458 72.15 396.052 72.15 396.7C72.15 397.336 72.258 397.924 72.474 398.464C72.702 399.004 73.02 399.478 73.428 399.886C73.836 400.282 74.316 400.588 74.868 400.804C75.42 401.02 76.032 401.128 76.704 401.128C77.328 401.128 77.928 401.032 78.504 400.84C79.092 400.636 79.65 400.3 80.178 399.832L81.51 401.578C80.85 402.106 80.082 402.508 79.206 402.784C78.342 403.048 77.466 403.18 76.578 403.18ZM79.296 401.272V396.556H81.51V401.578L79.296 401.272ZM84.3803 403V393.388H86.5223V396.034L86.2703 395.26C86.5583 394.612 87.0083 394.12 87.6203 393.784C88.2443 393.448 89.0183 393.28 89.9423 393.28V395.422C89.8463 395.398 89.7563 395.386 89.6723 395.386C89.5883 395.374 89.5043 395.368 89.4203 395.368C88.5683 395.368 87.8903 395.62 87.3863 396.124C86.8823 396.616 86.6303 397.354 86.6303 398.338V403H84.3803ZM97.0875 403V401.056L96.9615 400.642V397.24C96.9615 396.58 96.7635 396.07 96.3675 395.71C95.9715 395.338 95.3715 395.152 94.5675 395.152C94.0275 395.152 93.4935 395.236 92.9655 395.404C92.4495 395.572 92.0115 395.806 91.6515 396.106L90.7695 394.468C91.2855 394.072 91.8975 393.778 92.6055 393.586C93.3255 393.382 94.0695 393.28 94.8375 393.28C96.2295 393.28 97.3035 393.616 98.0595 394.288C98.8275 394.948 99.2115 395.974 99.2115 397.366V403H97.0875ZM94.0635 403.126C93.3435 403.126 92.7135 403.006 92.1735 402.766C91.6335 402.514 91.2135 402.172 90.9135 401.74C90.6255 401.296 90.4815 400.798 90.4815 400.246C90.4815 399.706 90.6075 399.22 90.8595 398.788C91.1235 398.356 91.5495 398.014 92.1375 397.762C92.7255 397.51 93.5055 397.384 94.4775 397.384H97.2675V398.878H94.6395C93.8715 398.878 93.3555 399.004 93.0915 399.256C92.8275 399.496 92.6955 399.796 92.6955 400.156C92.6955 400.564 92.8575 400.888 93.1815 401.128C93.5055 401.368 93.9555 401.488 94.5315 401.488C95.0835 401.488 95.5755 401.362 96.0075 401.11C96.4515 400.858 96.7695 400.486 96.9615 399.994L97.3395 401.344C97.1235 401.908 96.7335 402.346 96.1695 402.658C95.6175 402.97 94.9155 403.126 94.0635 403.126ZM107.427 403.126C106.647 403.126 105.933 402.946 105.285 402.586C104.649 402.226 104.139 401.686 103.755 400.966C103.383 400.234 103.197 399.31 103.197 398.194C103.197 397.066 103.377 396.142 103.737 395.422C104.109 394.702 104.613 394.168 105.249 393.82C105.885 393.46 106.611 393.28 107.427 393.28C108.375 393.28 109.209 393.484 109.929 393.892C110.661 394.3 111.237 394.87 111.657 395.602C112.089 396.334 112.305 397.198 112.305 398.194C112.305 399.19 112.089 400.06 111.657 400.804C111.237 401.536 110.661 402.106 109.929 402.514C109.209 402.922 108.375 403.126 107.427 403.126ZM102.099 406.492V393.388H104.241V395.656L104.169 398.212L104.349 400.768V406.492H102.099ZM107.175 401.2C107.715 401.2 108.195 401.08 108.615 400.84C109.047 400.6 109.389 400.252 109.641 399.796C109.893 399.34 110.019 398.806 110.019 398.194C110.019 397.57 109.893 397.036 109.641 396.592C109.389 396.136 109.047 395.788 108.615 395.548C108.195 395.308 107.715 395.188 107.175 395.188C106.635 395.188 106.149 395.308 105.717 395.548C105.285 395.788 104.943 396.136 104.691 396.592C104.439 397.036 104.313 397.57 104.313 398.194C104.313 398.806 104.439 399.34 104.691 399.796C104.943 400.252 105.285 400.6 105.717 400.84C106.149 401.08 106.635 401.2 107.175 401.2ZM119.893 393.28C120.661 393.28 121.345 393.43 121.945 393.73C122.557 394.03 123.037 394.492 123.385 395.116C123.733 395.728 123.907 396.52 123.907 397.492V403H121.657V397.78C121.657 396.928 121.453 396.292 121.045 395.872C120.649 395.452 120.091 395.242 119.371 395.242C118.843 395.242 118.375 395.35 117.967 395.566C117.559 395.782 117.241 396.106 117.013 396.538C116.797 396.958 116.689 397.492 116.689 398.14V403H114.439V389.644H116.689V395.98L116.203 395.188C116.539 394.576 117.025 394.108 117.661 393.784C118.309 393.448 119.053 393.28 119.893 393.28ZM126.761 403V393.388H129.011V403H126.761ZM127.895 391.804C127.475 391.804 127.127 391.672 126.851 391.408C126.587 391.144 126.455 390.826 126.455 390.454C126.455 390.07 126.587 389.752 126.851 389.5C127.127 389.236 127.475 389.104 127.895 389.104C128.315 389.104 128.657 389.23 128.921 389.482C129.197 389.722 129.335 390.028 129.335 390.4C129.335 390.796 129.203 391.132 128.939 391.408C128.675 391.672 128.327 391.804 127.895 391.804ZM136.032 403.126C135.108 403.126 134.274 402.922 133.53 402.514C132.798 402.106 132.222 401.536 131.802 400.804C131.382 400.06 131.172 399.19 131.172 398.194C131.172 397.198 131.382 396.334 131.802 395.602C132.222 394.87 132.798 394.3 133.53 393.892C134.274 393.484 135.108 393.28 136.032 393.28C136.86 393.28 137.586 393.46 138.21 393.82C138.846 394.168 139.344 394.702 139.704 395.422C140.076 396.142 140.262 397.066 140.262 398.194C140.262 399.31 140.07 400.234 139.686 400.966C139.314 401.686 138.81 402.226 138.174 402.586C137.538 402.946 136.824 403.126 136.032 403.126ZM136.284 401.2C136.824 401.2 137.31 401.08 137.742 400.84C138.174 400.6 138.516 400.252 138.768 399.796C139.02 399.34 139.146 398.806 139.146 398.194C139.146 397.57 139.02 397.036 138.768 396.592C138.516 396.136 138.174 395.788 137.742 395.548C137.31 395.308 136.824 395.188 136.284 395.188C135.744 395.188 135.258 395.308 134.826 395.548C134.406 395.788 134.07 396.136 133.818 396.592C133.566 397.036 133.44 397.57 133.44 398.194C133.44 398.806 133.566 399.34 133.818 399.796C134.07 400.252 134.406 400.6 134.826 400.84C135.258 401.08 135.744 401.2 136.284 401.2ZM139.11 406.492V400.768L139.29 398.212L139.218 395.656V393.388H141.36V406.492H139.11ZM148.372 403.126C147.556 403.126 146.836 402.976 146.212 402.676C145.588 402.364 145.102 401.896 144.754 401.272C144.406 400.636 144.232 399.838 144.232 398.878V393.388H146.482V398.572C146.482 399.436 146.674 400.084 147.058 400.516C147.454 400.936 148.012 401.146 148.732 401.146C149.26 401.146 149.716 401.038 150.1 400.822C150.496 400.606 150.802 400.282 151.018 399.85C151.246 399.418 151.36 398.884 151.36 398.248V393.388H153.61V403H151.468V400.408L151.846 401.2C151.522 401.824 151.048 402.304 150.424 402.64C149.8 402.964 149.116 403.126 148.372 403.126ZM161.074 403.126C160.006 403.126 159.07 402.916 158.266 402.496C157.474 402.064 156.856 401.476 156.412 400.732C155.98 399.988 155.764 399.142 155.764 398.194C155.764 397.234 155.974 396.388 156.394 395.656C156.826 394.912 157.414 394.33 158.158 393.91C158.914 393.49 159.772 393.28 160.732 393.28C161.668 393.28 162.502 393.484 163.234 393.892C163.966 394.3 164.542 394.876 164.962 395.62C165.382 396.364 165.592 397.24 165.592 398.248C165.592 398.344 165.586 398.452 165.574 398.572C165.574 398.692 165.568 398.806 165.556 398.914H157.546V397.42H164.368L163.486 397.888C163.498 397.336 163.384 396.85 163.144 396.43C162.904 396.01 162.574 395.68 162.154 395.44C161.746 395.2 161.272 395.08 160.732 395.08C160.18 395.08 159.694 395.2 159.274 395.44C158.866 395.68 158.542 396.016 158.302 396.448C158.074 396.868 157.96 397.366 157.96 397.942V398.302C157.96 398.878 158.092 399.388 158.356 399.832C158.62 400.276 158.992 400.618 159.472 400.858C159.952 401.098 160.504 401.218 161.128 401.218C161.668 401.218 162.154 401.134 162.586 400.966C163.018 400.798 163.402 400.534 163.738 400.174L164.944 401.56C164.512 402.064 163.966 402.454 163.306 402.73C162.658 402.994 161.914 403.126 161.074 403.126ZM176.796 403.126C175.872 403.126 175.038 402.922 174.294 402.514C173.562 402.094 172.986 401.518 172.566 400.786C172.146 400.054 171.936 399.19 171.936 398.194C171.936 397.198 172.146 396.334 172.566 395.602C172.986 394.87 173.562 394.3 174.294 393.892C175.038 393.484 175.872 393.28 176.796 393.28C177.6 393.28 178.32 393.46 178.956 393.82C179.592 394.168 180.096 394.702 180.468 395.422C180.84 396.142 181.026 397.066 181.026 398.194C181.026 399.31 180.846 400.234 180.486 400.966C180.126 401.686 179.628 402.226 178.992 402.586C178.356 402.946 177.624 403.126 176.796 403.126ZM177.066 401.2C177.606 401.2 178.086 401.08 178.506 400.84C178.938 400.6 179.28 400.252 179.532 399.796C179.796 399.34 179.928 398.806 179.928 398.194C179.928 397.57 179.796 397.036 179.532 396.592C179.28 396.136 178.938 395.788 178.506 395.548C178.086 395.308 177.606 395.188 177.066 395.188C176.526 395.188 176.04 395.308 175.608 395.548C175.188 395.788 174.846 396.136 174.582 396.592C174.33 397.036 174.204 397.57 174.204 398.194C174.204 398.806 174.33 399.34 174.582 399.796C174.846 400.252 175.188 400.6 175.608 400.84C176.04 401.08 176.526 401.2 177.066 401.2ZM179.982 403V400.732L180.072 398.176L179.892 395.62V389.644H182.124V403H179.982ZM189.603 403.126C188.535 403.126 187.599 402.916 186.795 402.496C186.003 402.064 185.385 401.476 184.941 400.732C184.509 399.988 184.293 399.142 184.293 398.194C184.293 397.234 184.503 396.388 184.923 395.656C185.355 394.912 185.943 394.33 186.687 393.91C187.443 393.49 188.301 393.28 189.261 393.28C190.197 393.28 191.031 393.484 191.763 393.892C192.495 394.3 193.071 394.876 193.491 395.62C193.911 396.364 194.121 397.24 194.121 398.248C194.121 398.344 194.115 398.452 194.103 398.572C194.103 398.692 194.097 398.806 194.085 398.914H186.075V397.42H192.897L192.015 397.888C192.027 397.336 191.913 396.85 191.673 396.43C191.433 396.01 191.103 395.68 190.683 395.44C190.275 395.2 189.801 395.08 189.261 395.08C188.709 395.08 188.223 395.2 187.803 395.44C187.395 395.68 187.071 396.016 186.831 396.448C186.603 396.868 186.489 397.366 186.489 397.942V398.302C186.489 398.878 186.621 399.388 186.885 399.832C187.149 400.276 187.521 400.618 188.001 400.858C188.481 401.098 189.033 401.218 189.657 401.218C190.197 401.218 190.683 401.134 191.115 400.966C191.547 400.798 191.931 400.534 192.267 400.174L193.473 401.56C193.041 402.064 192.495 402.454 191.835 402.73C191.187 402.994 190.443 403.126 189.603 403.126ZM205.325 403.126C204.401 403.126 203.567 402.922 202.823 402.514C202.091 402.094 201.515 401.518 201.095 400.786C200.675 400.054 200.465 399.19 200.465 398.194C200.465 397.198 200.675 396.334 201.095 395.602C201.515 394.87 202.091 394.3 202.823 393.892C203.567 393.484 204.401 393.28 205.325 393.28C206.129 393.28 206.849 393.46 207.485 393.82C208.121 394.168 208.625 394.702 208.997 395.422C209.369 396.142 209.555 397.066 209.555 398.194C209.555 399.31 209.375 400.234 209.015 400.966C208.655 401.686 208.157 402.226 207.521 402.586C206.885 402.946 206.153 403.126 205.325 403.126ZM205.595 401.2C206.135 401.2 206.615 401.08 207.035 400.84C207.467 400.6 207.809 400.252 208.061 399.796C208.325 399.34 208.457 398.806 208.457 398.194C208.457 397.57 208.325 397.036 208.061 396.592C207.809 396.136 207.467 395.788 207.035 395.548C206.615 395.308 206.135 395.188 205.595 395.188C205.055 395.188 204.569 395.308 204.137 395.548C203.717 395.788 203.375 396.136 203.111 396.592C202.859 397.036 202.733 397.57 202.733 398.194C202.733 398.806 202.859 399.34 203.111 399.796C203.375 400.252 203.717 400.6 204.137 400.84C204.569 401.08 205.055 401.2 205.595 401.2ZM208.511 403V400.732L208.601 398.176L208.421 395.62V389.644H210.653V403H208.511ZM217.935 403.126C216.951 403.126 216.075 402.916 215.307 402.496C214.539 402.064 213.933 401.476 213.489 400.732C213.045 399.988 212.823 399.142 212.823 398.194C212.823 397.234 213.045 396.388 213.489 395.656C213.933 394.912 214.539 394.33 215.307 393.91C216.075 393.49 216.951 393.28 217.935 393.28C218.931 393.28 219.813 393.49 220.581 393.91C221.361 394.33 221.967 394.906 222.399 395.638C222.843 396.37 223.065 397.222 223.065 398.194C223.065 399.142 222.843 399.988 222.399 400.732C221.967 401.476 221.361 402.064 220.581 402.496C219.813 402.916 218.931 403.126 217.935 403.126ZM217.935 401.2C218.487 401.2 218.979 401.08 219.411 400.84C219.843 400.6 220.179 400.252 220.419 399.796C220.671 399.34 220.797 398.806 220.797 398.194C220.797 397.57 220.671 397.036 220.419 396.592C220.179 396.136 219.843 395.788 219.411 395.548C218.979 395.308 218.493 395.188 217.953 395.188C217.401 395.188 216.909 395.308 216.477 395.548C216.057 395.788 215.721 396.136 215.469 396.592C215.217 397.036 215.091 397.57 215.091 398.194C215.091 398.806 215.217 399.34 215.469 399.796C215.721 400.252 216.057 400.6 216.477 400.84C216.909 401.08 217.395 401.2 217.935 401.2ZM230.67 393.28C231.438 393.28 232.122 393.43 232.722 393.73C233.334 394.03 233.814 394.492 234.162 395.116C234.51 395.728 234.684 396.52 234.684 397.492V403H232.434V397.78C232.434 396.928 232.23 396.292 231.822 395.872C231.426 395.452 230.868 395.242 230.148 395.242C229.62 395.242 229.152 395.35 228.744 395.566C228.336 395.782 228.018 396.106 227.79 396.538C227.574 396.958 227.466 397.492 227.466 398.14V403H225.216V393.388H227.358V395.98L226.98 395.188C227.316 394.576 227.802 394.108 228.438 393.784C229.086 393.448 229.83 393.28 230.67 393.28ZM242.993 393.28C243.761 393.28 244.445 393.43 245.045 393.73C245.657 394.03 246.137 394.492 246.485 395.116C246.833 395.728 247.007 396.52 247.007 397.492V403H244.757V397.78C244.757 396.928 244.553 396.292 244.145 395.872C243.749 395.452 243.191 395.242 242.471 395.242C241.943 395.242 241.475 395.35 241.067 395.566C240.659 395.782 240.341 396.106 240.113 396.538C239.897 396.958 239.789 397.492 239.789 398.14V403H237.539V393.388H239.681V395.98L239.303 395.188C239.639 394.576 240.125 394.108 240.761 393.784C241.409 393.448 242.153 393.28 242.993 393.28ZM254.396 403.126C253.328 403.126 252.392 402.916 251.588 402.496C250.796 402.064 250.178 401.476 249.734 400.732C249.302 399.988 249.086 399.142 249.086 398.194C249.086 397.234 249.296 396.388 249.716 395.656C250.148 394.912 250.736 394.33 251.48 393.91C252.236 393.49 253.094 393.28 254.054 393.28C254.99 393.28 255.824 393.484 256.556 393.892C257.288 394.3 257.864 394.876 258.284 395.62C258.704 396.364 258.914 397.24 258.914 398.248C258.914 398.344 258.908 398.452 258.896 398.572C258.896 398.692 258.89 398.806 258.878 398.914H250.868V397.42H257.69L256.808 397.888C256.82 397.336 256.706 396.85 256.466 396.43C256.226 396.01 255.896 395.68 255.476 395.44C255.068 395.2 254.594 395.08 254.054 395.08C253.502 395.08 253.016 395.2 252.596 395.44C252.188 395.68 251.864 396.016 251.624 396.448C251.396 396.868 251.282 397.366 251.282 397.942V398.302C251.282 398.878 251.414 399.388 251.678 399.832C251.942 400.276 252.314 400.618 252.794 400.858C253.274 401.098 253.826 401.218 254.45 401.218C254.99 401.218 255.476 401.134 255.908 400.966C256.34 400.798 256.724 400.534 257.06 400.174L258.266 401.56C257.834 402.064 257.288 402.454 256.628 402.73C255.98 402.994 255.236 403.126 254.396 403.126ZM252.488 392.074L254.918 389.608H257.564L254.432 392.074H252.488ZM265.594 403.126C264.526 403.126 263.59 402.916 262.786 402.496C261.994 402.064 261.376 401.476 260.932 400.732C260.5 399.988 260.284 399.142 260.284 398.194C260.284 397.234 260.494 396.388 260.914 395.656C261.346 394.912 261.934 394.33 262.678 393.91C263.434 393.49 264.292 393.28 265.252 393.28C266.188 393.28 267.022 393.484 267.754 393.892C268.486 394.3 269.062 394.876 269.482 395.62C269.902 396.364 270.112 397.24 270.112 398.248C270.112 398.344 270.106 398.452 270.094 398.572C270.094 398.692 270.088 398.806 270.076 398.914H262.066V397.42H268.888L268.006 397.888C268.018 397.336 267.904 396.85 267.664 396.43C267.424 396.01 267.094 395.68 266.674 395.44C266.266 395.2 265.792 395.08 265.252 395.08C264.7 395.08 264.214 395.2 263.794 395.44C263.386 395.68 263.062 396.016 262.822 396.448C262.594 396.868 262.48 397.366 262.48 397.942V398.302C262.48 398.878 262.612 399.388 262.876 399.832C263.14 400.276 263.512 400.618 263.992 400.858C264.472 401.098 265.024 401.218 265.648 401.218C266.188 401.218 266.674 401.134 267.106 400.966C267.538 400.798 267.922 400.534 268.258 400.174L269.464 401.56C269.032 402.064 268.486 402.454 267.826 402.73C267.178 402.994 266.434 403.126 265.594 403.126ZM275.243 403.126C274.439 403.126 273.665 403.024 272.921 402.82C272.189 402.604 271.607 402.346 271.175 402.046L272.039 400.336C272.471 400.612 272.987 400.84 273.587 401.02C274.187 401.2 274.787 401.29 275.387 401.29C276.095 401.29 276.605 401.194 276.917 401.002C277.241 400.81 277.403 400.552 277.403 400.228C277.403 399.964 277.295 399.766 277.079 399.634C276.863 399.49 276.581 399.382 276.233 399.31C275.885 399.238 275.495 399.172 275.063 399.112C274.643 399.052 274.217 398.974 273.785 398.878C273.365 398.77 272.981 398.62 272.633 398.428C272.285 398.224 272.003 397.954 271.787 397.618C271.571 397.282 271.463 396.838 271.463 396.286C271.463 395.674 271.637 395.146 271.985 394.702C272.333 394.246 272.819 393.898 273.443 393.658C274.079 393.406 274.829 393.28 275.693 393.28C276.341 393.28 276.995 393.352 277.655 393.496C278.315 393.64 278.861 393.844 279.293 394.108L278.429 395.818C277.973 395.542 277.511 395.356 277.043 395.26C276.587 395.152 276.131 395.098 275.675 395.098C274.991 395.098 274.481 395.2 274.145 395.404C273.821 395.608 273.659 395.866 273.659 396.178C273.659 396.466 273.767 396.682 273.983 396.826C274.199 396.97 274.481 397.084 274.829 397.168C275.177 397.252 275.561 397.324 275.981 397.384C276.413 397.432 276.839 397.51 277.259 397.618C277.679 397.726 278.063 397.876 278.411 398.068C278.771 398.248 279.059 398.506 279.275 398.842C279.491 399.178 279.599 399.616 279.599 400.156C279.599 400.756 279.419 401.278 279.059 401.722C278.711 402.166 278.213 402.514 277.565 402.766C276.917 403.006 276.143 403.126 275.243 403.126Z" fill="#505050"/>
<path d="M31.256 254V237.2H34.376V254H31.256ZM45.9041 241.04C46.9281 241.04 47.8401 241.24 48.6401 241.64C49.4561 242.04 50.0961 242.656 50.5601 243.488C51.0241 244.304 51.2561 245.36 51.2561 246.656V254H48.2561V247.04C48.2561 245.904 47.9841 245.056 47.4401 244.496C46.9121 243.936 46.1681 243.656 45.2081 243.656C44.5041 243.656 43.8801 243.8 43.3361 244.088C42.7921 244.376 42.3681 244.808 42.0641 245.384C41.7761 245.944 41.6321 246.656 41.6321 247.52V254H38.6321V241.184H41.4881V244.64L40.9841 243.584C41.4321 242.768 42.0801 242.144 42.9281 241.712C43.7921 241.264 44.7841 241.04 45.9041 241.04ZM60.9652 254.168C59.6212 254.168 58.4212 253.888 57.3652 253.328C56.3252 252.752 55.5092 251.968 54.9172 250.976C54.3252 249.984 54.0292 248.856 54.0292 247.592C54.0292 246.312 54.3252 245.184 54.9172 244.208C55.5092 243.216 56.3252 242.44 57.3652 241.88C58.4212 241.32 59.6212 241.04 60.9652 241.04C62.2132 241.04 63.3092 241.296 64.2532 241.808C65.2132 242.304 65.9412 243.04 66.4372 244.016L64.1332 245.36C63.7492 244.752 63.2772 244.304 62.7172 244.016C62.1732 243.728 61.5812 243.584 60.9412 243.584C60.2052 243.584 59.5412 243.744 58.9492 244.064C58.3572 244.384 57.8932 244.848 57.5572 245.456C57.2212 246.048 57.0532 246.76 57.0532 247.592C57.0532 248.424 57.2212 249.144 57.5572 249.752C57.8932 250.344 58.3572 250.8 58.9492 251.12C59.5412 251.44 60.2052 251.6 60.9412 251.6C61.5812 251.6 62.1732 251.456 62.7172 251.168C63.2772 250.88 63.7492 250.432 64.1332 249.824L66.4372 251.168C65.9412 252.128 65.2132 252.872 64.2532 253.4C63.3092 253.912 62.2132 254.168 60.9652 254.168ZM68.9133 254V236.192H71.9133V254H68.9133ZM81.2748 254.168C80.1868 254.168 79.2268 253.968 78.3948 253.568C77.5628 253.152 76.9148 252.528 76.4508 251.696C75.9868 250.848 75.7548 249.784 75.7548 248.504V241.184H78.7548V248.096C78.7548 249.248 79.0108 250.112 79.5228 250.688C80.0508 251.248 80.7948 251.528 81.7548 251.528C82.4588 251.528 83.0668 251.384 83.5788 251.096C84.1068 250.808 84.5148 250.376 84.8028 249.8C85.1068 249.224 85.2588 248.512 85.2588 247.664V241.184H88.2588V254H85.4028V250.544L85.9068 251.6C85.4748 252.432 84.8428 253.072 84.0108 253.52C83.1788 253.952 82.2668 254.168 81.2748 254.168ZM96.1468 254.168C95.0748 254.168 94.0428 254.032 93.0508 253.76C92.0748 253.472 91.2988 253.128 90.7228 252.728L91.8748 250.448C92.4508 250.816 93.1388 251.12 93.9388 251.36C94.7388 251.6 95.5388 251.72 96.3388 251.72C97.2828 251.72 97.9628 251.592 98.3788 251.336C98.8108 251.08 99.0268 250.736 99.0268 250.304C99.0268 249.952 98.8828 249.688 98.5948 249.512C98.3068 249.32 97.9308 249.176 97.4668 249.08C97.0028 248.984 96.4828 248.896 95.9068 248.816C95.3468 248.736 94.7788 248.632 94.2028 248.504C93.6428 248.36 93.1308 248.16 92.6668 247.904C92.2028 247.632 91.8268 247.272 91.5388 246.824C91.2508 246.376 91.1068 245.784 91.1068 245.048C91.1068 244.232 91.3388 243.528 91.8027 242.936C92.2668 242.328 92.9148 241.864 93.7467 241.544C94.5948 241.208 95.5948 241.04 96.7468 241.04C97.6108 241.04 98.4828 241.136 99.3628 241.328C100.243 241.52 100.971 241.792 101.547 242.144L100.395 244.424C99.7868 244.056 99.1708 243.808 98.5468 243.68C97.9388 243.536 97.3308 243.464 96.7228 243.464C95.8108 243.464 95.1308 243.6 94.6828 243.872C94.2508 244.144 94.0348 244.488 94.0348 244.904C94.0348 245.288 94.1788 245.576 94.4668 245.768C94.7548 245.96 95.1308 246.112 95.5948 246.224C96.0588 246.336 96.5708 246.432 97.1308 246.512C97.7068 246.576 98.2748 246.68 98.8348 246.824C99.3948 246.968 99.9068 247.168 100.371 247.424C100.851 247.664 101.235 248.008 101.523 248.456C101.811 248.904 101.955 249.488 101.955 250.208C101.955 251.008 101.715 251.704 101.235 252.296C100.771 252.888 100.107 253.352 99.2428 253.688C98.3788 254.008 97.3468 254.168 96.1468 254.168Z" fill="#505050"/>
<path d="M54.3333 300L38.2917 316.042L31 308.75" stroke="#97E174" stroke-width="3" stroke-linecap="round" stroke-linejoin="round"/>
<path d="M52.3333 344L36.2917 360.042L29 352.75" stroke="#97E174" stroke-width="3" stroke-linecap="round" stroke-linejoin="round"/>
<path d="M52.3333 388L36.2917 404.042L29 396.75" stroke="#97E174" stroke-width="3" stroke-linecap="round" stroke-linejoin="round"/>
<path d="M54.3333 434L38.2917 450.042L31 442.75" stroke="#97E174" stroke-width="3" stroke-linecap="round" stroke-linejoin="round"/>
<path d="M24.692 111V98.4H29.876C30.992 98.4 31.946 98.58 32.738 98.94C33.542 99.3 34.16 99.816 34.592 100.488C35.024 101.16 35.24 101.958 35.24 102.882C35.24 103.806 35.024 104.604 34.592 105.276C34.16 105.948 33.542 106.464 32.738 106.824C31.946 107.184 30.992 107.364 29.876 107.364H25.988L27.032 106.266V111H24.692ZM27.032 106.518L25.988 105.384H29.768C30.8 105.384 31.574 105.168 32.09 104.736C32.618 104.292 32.882 103.674 32.882 102.882C32.882 102.078 32.618 101.46 32.09 101.028C31.574 100.596 30.8 100.38 29.768 100.38H25.988L27.032 99.228V106.518ZM41.6456 111.126C40.6616 111.126 39.7856 110.916 39.0176 110.496C38.2496 110.064 37.6436 109.476 37.1996 108.732C36.7556 107.988 36.5336 107.142 36.5336 106.194C36.5336 105.234 36.7556 104.388 37.1996 103.656C37.6436 102.912 38.2496 102.33 39.0176 101.91C39.7856 101.49 40.6616 101.28 41.6456 101.28C42.6416 101.28 43.5236 101.49 44.2916 101.91C45.0716 102.33 45.6776 102.906 46.1096 103.638C46.5536 104.37 46.7756 105.222 46.7756 106.194C46.7756 107.142 46.5536 107.988 46.1096 108.732C45.6776 109.476 45.0716 110.064 44.2916 110.496C43.5236 110.916 42.6416 111.126 41.6456 111.126ZM41.6456 109.2C42.1976 109.2 42.6896 109.08 43.1216 108.84C43.5536 108.6 43.8896 108.252 44.1296 107.796C44.3816 107.34 44.5076 106.806 44.5076 106.194C44.5076 105.57 44.3816 105.036 44.1296 104.592C43.8896 104.136 43.5536 103.788 43.1216 103.548C42.6896 103.308 42.2036 103.188 41.6636 103.188C41.1116 103.188 40.6196 103.308 40.1876 103.548C39.7676 103.788 39.4316 104.136 39.1796 104.592C38.9276 105.036 38.8016 105.57 38.8016 106.194C38.8016 106.806 38.9276 107.34 39.1796 107.796C39.4316 108.252 39.7676 108.6 40.1876 108.84C40.6196 109.08 41.1056 109.2 41.6456 109.2ZM52.9952 111.126C52.1792 111.126 51.4592 110.976 50.8352 110.676C50.2112 110.364 49.7252 109.896 49.3772 109.272C49.0292 108.636 48.8552 107.838 48.8552 106.878V101.388H51.1052V106.572C51.1052 107.436 51.2972 108.084 51.6812 108.516C52.0772 108.936 52.6352 109.146 53.3552 109.146C53.8832 109.146 54.3392 109.038 54.7232 108.822C55.1192 108.606 55.4252 108.282 55.6412 107.85C55.8692 107.418 55.9832 106.884 55.9832 106.248V101.388H58.2332V111H56.0912V108.408L56.4692 109.2C56.1452 109.824 55.6712 110.304 55.0472 110.64C54.4232 110.964 53.7392 111.126 52.9952 111.126ZM61.1791 111V101.388H63.3211V104.034L63.0691 103.26C63.3571 102.612 63.8071 102.12 64.4191 101.784C65.0431 101.448 65.8171 101.28 66.7411 101.28V103.422C66.6451 103.398 66.5551 103.386 66.4711 103.386C66.3871 103.374 66.3031 103.368 66.2191 103.368C65.3671 103.368 64.6891 103.62 64.1851 104.124C63.6811 104.616 63.4291 105.354 63.4291 106.338V111H61.1791ZM73.7123 111V97.644H75.9623V111H73.7123ZM83.4335 111.126C82.3655 111.126 81.4295 110.916 80.6255 110.496C79.8335 110.064 79.2155 109.476 78.7715 108.732C78.3395 107.988 78.1235 107.142 78.1235 106.194C78.1235 105.234 78.3335 104.388 78.7535 103.656C79.1855 102.912 79.7735 102.33 80.5175 101.91C81.2735 101.49 82.1315 101.28 83.0915 101.28C84.0275 101.28 84.8615 101.484 85.5935 101.892C86.3255 102.3 86.9015 102.876 87.3215 103.62C87.7415 104.364 87.9515 105.24 87.9515 106.248C87.9515 106.344 87.9455 106.452 87.9335 106.572C87.9335 106.692 87.9275 106.806 87.9155 106.914H79.9055V105.42H86.7275L85.8455 105.888C85.8575 105.336 85.7435 104.85 85.5035 104.43C85.2635 104.01 84.9335 103.68 84.5135 103.44C84.1055 103.2 83.6315 103.08 83.0915 103.08C82.5395 103.08 82.0535 103.2 81.6335 103.44C81.2255 103.68 80.9015 104.016 80.6615 104.448C80.4335 104.868 80.3195 105.366 80.3195 105.942V106.302C80.3195 106.878 80.4515 107.388 80.7155 107.832C80.9795 108.276 81.3515 108.618 81.8315 108.858C82.3115 109.098 82.8635 109.218 83.4875 109.218C84.0275 109.218 84.5135 109.134 84.9455 108.966C85.3775 108.798 85.7615 108.534 86.0975 108.174L87.3035 109.56C86.8715 110.064 86.3255 110.454 85.6655 110.73C85.0175 110.994 84.2735 111.126 83.4335 111.126ZM93.0827 111.126C92.2787 111.126 91.5047 111.024 90.7607 110.82C90.0287 110.604 89.4467 110.346 89.0147 110.046L89.8787 108.336C90.3107 108.612 90.8267 108.84 91.4267 109.02C92.0267 109.2 92.6267 109.29 93.2267 109.29C93.9347 109.29 94.4447 109.194 94.7567 109.002C95.0807 108.81 95.2427 108.552 95.2427 108.228C95.2427 107.964 95.1347 107.766 94.9187 107.634C94.7027 107.49 94.4207 107.382 94.0727 107.31C93.7247 107.238 93.3347 107.172 92.9027 107.112C92.4827 107.052 92.0567 106.974 91.6247 106.878C91.2047 106.77 90.8207 106.62 90.4727 106.428C90.1247 106.224 89.8427 105.954 89.6267 105.618C89.4107 105.282 89.3027 104.838 89.3027 104.286C89.3027 103.674 89.4767 103.146 89.8247 102.702C90.1727 102.246 90.6587 101.898 91.2827 101.658C91.9187 101.406 92.6687 101.28 93.5327 101.28C94.1807 101.28 94.8347 101.352 95.4947 101.496C96.1547 101.64 96.7007 101.844 97.1327 102.108L96.2687 103.818C95.8127 103.542 95.3507 103.356 94.8827 103.26C94.4267 103.152 93.9707 103.098 93.5147 103.098C92.8307 103.098 92.3207 103.2 91.9847 103.404C91.6607 103.608 91.4987 103.866 91.4987 104.178C91.4987 104.466 91.6067 104.682 91.8227 104.826C92.0387 104.97 92.3207 105.084 92.6687 105.168C93.0167 105.252 93.4007 105.324 93.8207 105.384C94.2527 105.432 94.6787 105.51 95.0987 105.618C95.5187 105.726 95.9027 105.876 96.2507 106.068C96.6107 106.248 96.8987 106.506 97.1147 106.842C97.3307 107.178 97.4387 107.616 97.4387 108.156C97.4387 108.756 97.2587 109.278 96.8987 109.722C96.5507 110.166 96.0527 110.514 95.4047 110.766C94.7567 111.006 93.9827 111.126 93.0827 111.126ZM109.679 111.126C108.899 111.126 108.185 110.946 107.537 110.586C106.901 110.226 106.391 109.686 106.007 108.966C105.635 108.234 105.449 107.31 105.449 106.194C105.449 105.066 105.629 104.142 105.989 103.422C106.361 102.702 106.865 102.168 107.501 101.82C108.137 101.46 108.863 101.28 109.679 101.28C110.627 101.28 111.461 101.484 112.181 101.892C112.913 102.3 113.489 102.87 113.909 103.602C114.341 104.334 114.557 105.198 114.557 106.194C114.557 107.19 114.341 108.06 113.909 108.804C113.489 109.536 112.913 110.106 112.181 110.514C111.461 110.922 110.627 111.126 109.679 111.126ZM104.351 114.492V101.388H106.493V103.656L106.421 106.212L106.601 108.768V114.492H104.351ZM109.427 109.2C109.967 109.2 110.447 109.08 110.867 108.84C111.299 108.6 111.641 108.252 111.893 107.796C112.145 107.34 112.271 106.806 112.271 106.194C112.271 105.57 112.145 105.036 111.893 104.592C111.641 104.136 111.299 103.788 110.867 103.548C110.447 103.308 109.967 103.188 109.427 103.188C108.887 103.188 108.401 103.308 107.969 103.548C107.537 103.788 107.195 104.136 106.943 104.592C106.691 105.036 106.565 105.57 106.565 106.194C106.565 106.806 106.691 107.34 106.943 107.796C107.195 108.252 107.537 108.6 107.969 108.84C108.401 109.08 108.887 109.2 109.427 109.2ZM116.691 111V101.388H118.833V104.034L118.581 103.26C118.869 102.612 119.319 102.12 119.931 101.784C120.555 101.448 121.329 101.28 122.253 101.28V103.422C122.157 103.398 122.067 103.386 121.983 103.386C121.899 103.374 121.815 103.368 121.731 103.368C120.879 103.368 120.201 103.62 119.697 104.124C119.193 104.616 118.941 105.354 118.941 106.338V111H116.691ZM128.394 111.126C127.41 111.126 126.534 110.916 125.766 110.496C124.998 110.064 124.392 109.476 123.948 108.732C123.504 107.988 123.282 107.142 123.282 106.194C123.282 105.234 123.504 104.388 123.948 103.656C124.392 102.912 124.998 102.33 125.766 101.91C126.534 101.49 127.41 101.28 128.394 101.28C129.39 101.28 130.272 101.49 131.04 101.91C131.82 102.33 132.426 102.906 132.858 103.638C133.302 104.37 133.524 105.222 133.524 106.194C133.524 107.142 133.302 107.988 132.858 108.732C132.426 109.476 131.82 110.064 131.04 110.496C130.272 110.916 129.39 111.126 128.394 111.126ZM128.394 109.2C128.946 109.2 129.438 109.08 129.87 108.84C130.302 108.6 130.638 108.252 130.878 107.796C131.13 107.34 131.256 106.806 131.256 106.194C131.256 105.57 131.13 105.036 130.878 104.592C130.638 104.136 130.302 103.788 129.87 103.548C129.438 103.308 128.952 103.188 128.412 103.188C127.86 103.188 127.368 103.308 126.936 103.548C126.516 103.788 126.18 104.136 125.928 104.592C125.676 105.036 125.55 105.57 125.55 106.194C125.55 106.806 125.676 107.34 125.928 107.796C126.18 108.252 126.516 108.6 126.936 108.84C127.368 109.08 127.854 109.2 128.394 109.2ZM135.981 111V100.848C135.981 99.84 136.275 99.036 136.863 98.436C137.463 97.824 138.315 97.518 139.419 97.518C139.815 97.518 140.187 97.56 140.535 97.644C140.895 97.728 141.195 97.86 141.435 98.04L140.823 99.732C140.655 99.6 140.463 99.504 140.247 99.444C140.031 99.372 139.809 99.336 139.581 99.336C139.113 99.336 138.759 99.468 138.519 99.732C138.279 99.984 138.159 100.368 138.159 100.884V101.964L138.231 102.972V111H135.981ZM134.397 103.26V101.46H140.805V103.26H134.397ZM146.697 111.126C145.629 111.126 144.693 110.916 143.889 110.496C143.097 110.064 142.479 109.476 142.035 108.732C141.603 107.988 141.387 107.142 141.387 106.194C141.387 105.234 141.597 104.388 142.017 103.656C142.449 102.912 143.037 102.33 143.781 101.91C144.537 101.49 145.395 101.28 146.355 101.28C147.291 101.28 148.125 101.484 148.857 101.892C149.589 102.3 150.165 102.876 150.585 103.62C151.005 104.364 151.215 105.24 151.215 106.248C151.215 106.344 151.209 106.452 151.197 106.572C151.197 106.692 151.191 106.806 151.179 106.914H143.169V105.42H149.991L149.109 105.888C149.121 105.336 149.007 104.85 148.767 104.43C148.527 104.01 148.197 103.68 147.777 103.44C147.369 103.2 146.895 103.08 146.355 103.08C145.803 103.08 145.317 103.2 144.897 103.44C144.489 103.68 144.165 104.016 143.925 104.448C143.697 104.868 143.583 105.366 143.583 105.942V106.302C143.583 106.878 143.715 107.388 143.979 107.832C144.243 108.276 144.615 108.618 145.095 108.858C145.575 109.098 146.127 109.218 146.751 109.218C147.291 109.218 147.777 109.134 148.209 108.966C148.641 108.798 149.025 108.534 149.361 108.174L150.567 109.56C150.135 110.064 149.589 110.454 148.929 110.73C148.281 110.994 147.537 111.126 146.697 111.126ZM156.346 111.126C155.542 111.126 154.768 111.024 154.024 110.82C153.292 110.604 152.71 110.346 152.278 110.046L153.142 108.336C153.574 108.612 154.09 108.84 154.69 109.02C155.29 109.2 155.89 109.29 156.49 109.29C157.198 109.29 157.708 109.194 158.02 109.002C158.344 108.81 158.506 108.552 158.506 108.228C158.506 107.964 158.398 107.766 158.182 107.634C157.966 107.49 157.684 107.382 157.336 107.31C156.988 107.238 156.598 107.172 156.166 107.112C155.746 107.052 155.32 106.974 154.888 106.878C154.468 106.77 154.084 106.62 153.736 106.428C153.388 106.224 153.106 105.954 152.89 105.618C152.674 105.282 152.566 104.838 152.566 104.286C152.566 103.674 152.74 103.146 153.088 102.702C153.436 102.246 153.922 101.898 154.546 101.658C155.182 101.406 155.932 101.28 156.796 101.28C157.444 101.28 158.098 101.352 158.758 101.496C159.418 101.64 159.964 101.844 160.396 102.108L159.532 103.818C159.076 103.542 158.614 103.356 158.146 103.26C157.69 103.152 157.234 103.098 156.778 103.098C156.094 103.098 155.584 103.2 155.248 103.404C154.924 103.608 154.762 103.866 154.762 104.178C154.762 104.466 154.87 104.682 155.086 104.826C155.302 104.97 155.584 105.084 155.932 105.168C156.28 105.252 156.664 105.324 157.084 105.384C157.516 105.432 157.942 105.51 158.362 105.618C158.782 105.726 159.166 105.876 159.514 106.068C159.874 106.248 160.162 106.506 160.378 106.842C160.594 107.178 160.702 107.616 160.702 108.156C160.702 108.756 160.522 109.278 160.162 109.722C159.814 110.166 159.316 110.514 158.668 110.766C158.02 111.006 157.246 111.126 156.346 111.126ZM165.61 111.126C164.806 111.126 164.032 111.024 163.288 110.82C162.556 110.604 161.974 110.346 161.542 110.046L162.406 108.336C162.838 108.612 163.354 108.84 163.954 109.02C164.554 109.2 165.154 109.29 165.754 109.29C166.462 109.29 166.972 109.194 167.284 109.002C167.608 108.81 167.77 108.552 167.77 108.228C167.77 107.964 167.662 107.766 167.446 107.634C167.23 107.49 166.948 107.382 166.6 107.31C166.252 107.238 165.862 107.172 165.43 107.112C165.01 107.052 164.584 106.974 164.152 106.878C163.732 106.77 163.348 106.62 163 106.428C162.652 106.224 162.37 105.954 162.154 105.618C161.938 105.282 161.83 104.838 161.83 104.286C161.83 103.674 162.004 103.146 162.352 102.702C162.7 102.246 163.186 101.898 163.81 101.658C164.446 101.406 165.196 101.28 166.06 101.28C166.708 101.28 167.362 101.352 168.022 101.496C168.682 101.64 169.228 101.844 169.66 102.108L168.796 103.818C168.34 103.542 167.878 103.356 167.41 103.26C166.954 103.152 166.498 103.098 166.042 103.098C165.358 103.098 164.848 103.2 164.512 103.404C164.188 103.608 164.026 103.866 164.026 104.178C164.026 104.466 164.134 104.682 164.35 104.826C164.566 104.97 164.848 105.084 165.196 105.168C165.544 105.252 165.928 105.324 166.348 105.384C166.78 105.432 167.206 105.51 167.626 105.618C168.046 105.726 168.43 105.876 168.778 106.068C169.138 106.248 169.426 106.506 169.642 106.842C169.858 107.178 169.966 107.616 169.966 108.156C169.966 108.756 169.786 109.278 169.426 109.722C169.078 110.166 168.58 110.514 167.932 110.766C167.284 111.006 166.51 111.126 165.61 111.126ZM171.904 111V101.388H174.154V111H171.904ZM173.038 99.804C172.618 99.804 172.27 99.672 171.994 99.408C171.73 99.144 171.598 98.826 171.598 98.454C171.598 98.07 171.73 97.752 171.994 97.5C172.27 97.236 172.618 97.104 173.038 97.104C173.458 97.104 173.8 97.23 174.064 97.482C174.34 97.722 174.478 98.028 174.478 98.4C174.478 98.796 174.346 99.132 174.082 99.408C173.818 99.672 173.47 99.804 173.038 99.804ZM181.427 111.126C180.443 111.126 179.567 110.916 178.799 110.496C178.031 110.064 177.425 109.476 176.981 108.732C176.537 107.988 176.315 107.142 176.315 106.194C176.315 105.234 176.537 104.388 176.981 103.656C177.425 102.912 178.031 102.33 178.799 101.91C179.567 101.49 180.443 101.28 181.427 101.28C182.423 101.28 183.305 101.49 184.073 101.91C184.853 102.33 185.459 102.906 185.891 103.638C186.335 104.37 186.557 105.222 186.557 106.194C186.557 107.142 186.335 107.988 185.891 108.732C185.459 109.476 184.853 110.064 184.073 110.496C183.305 110.916 182.423 111.126 181.427 111.126ZM181.427 109.2C181.979 109.2 182.471 109.08 182.903 108.84C183.335 108.6 183.671 108.252 183.911 107.796C184.163 107.34 184.289 106.806 184.289 106.194C184.289 105.57 184.163 105.036 183.911 104.592C183.671 104.136 183.335 103.788 182.903 103.548C182.471 103.308 181.985 103.188 181.445 103.188C180.893 103.188 180.401 103.308 179.969 103.548C179.549 103.788 179.213 104.136 178.961 104.592C178.709 105.036 178.583 105.57 178.583 106.194C178.583 106.806 178.709 107.34 178.961 107.796C179.213 108.252 179.549 108.6 179.969 108.84C180.401 109.08 180.887 109.2 181.427 109.2ZM194.162 101.28C194.93 101.28 195.614 101.43 196.214 101.73C196.826 102.03 197.306 102.492 197.654 103.116C198.002 103.728 198.176 104.52 198.176 105.492V111H195.926V105.78C195.926 104.928 195.722 104.292 195.314 103.872C194.918 103.452 194.36 103.242 193.64 103.242C193.112 103.242 192.644 103.35 192.236 103.566C191.828 103.782 191.51 104.106 191.282 104.538C191.066 104.958 190.958 105.492 190.958 106.14V111H188.708V101.388H190.85V103.98L190.472 103.188C190.808 102.576 191.294 102.108 191.93 101.784C192.578 101.448 193.322 101.28 194.162 101.28ZM205.566 111.126C204.498 111.126 203.562 110.916 202.758 110.496C201.966 110.064 201.348 109.476 200.904 108.732C200.472 107.988 200.256 107.142 200.256 106.194C200.256 105.234 200.466 104.388 200.886 103.656C201.318 102.912 201.906 102.33 202.65 101.91C203.406 101.49 204.264 101.28 205.224 101.28C206.16 101.28 206.994 101.484 207.726 101.892C208.458 102.3 209.034 102.876 209.454 103.62C209.874 104.364 210.084 105.24 210.084 106.248C210.084 106.344 210.078 106.452 210.066 106.572C210.066 106.692 210.06 106.806 210.048 106.914H202.038V105.42H208.86L207.978 105.888C207.99 105.336 207.876 104.85 207.636 104.43C207.396 104.01 207.066 103.68 206.646 103.44C206.238 103.2 205.764 103.08 205.224 103.08C204.672 103.08 204.186 103.2 203.766 103.44C203.358 103.68 203.034 104.016 202.794 104.448C202.566 104.868 202.452 105.366 202.452 105.942V106.302C202.452 106.878 202.584 107.388 202.848 107.832C203.112 108.276 203.484 108.618 203.964 108.858C204.444 109.098 204.996 109.218 205.62 109.218C206.16 109.218 206.646 109.134 207.078 108.966C207.51 108.798 207.894 108.534 208.23 108.174L209.436 109.56C209.004 110.064 208.458 110.454 207.798 110.73C207.15 110.994 206.406 111.126 205.566 111.126ZM212.246 111V97.644H214.496V111H212.246ZM220.419 111.126C219.615 111.126 218.841 111.024 218.097 110.82C217.365 110.604 216.783 110.346 216.351 110.046L217.215 108.336C217.647 108.612 218.163 108.84 218.763 109.02C219.363 109.2 219.963 109.29 220.563 109.29C221.271 109.29 221.781 109.194 222.093 109.002C222.417 108.81 222.579 108.552 222.579 108.228C222.579 107.964 222.471 107.766 222.255 107.634C222.039 107.49 221.757 107.382 221.409 107.31C221.061 107.238 220.671 107.172 220.239 107.112C219.819 107.052 219.393 106.974 218.961 106.878C218.541 106.77 218.157 106.62 217.809 106.428C217.461 106.224 217.179 105.954 216.963 105.618C216.747 105.282 216.639 104.838 216.639 104.286C216.639 103.674 216.813 103.146 217.161 102.702C217.509 102.246 217.995 101.898 218.619 101.658C219.255 101.406 220.005 101.28 220.869 101.28C221.517 101.28 222.171 101.352 222.831 101.496C223.491 101.64 224.037 101.844 224.469 102.108L223.605 103.818C223.149 103.542 222.687 103.356 222.219 103.26C221.763 103.152 221.307 103.098 220.851 103.098C220.167 103.098 219.657 103.2 219.321 103.404C218.997 103.608 218.835 103.866 218.835 104.178C218.835 104.466 218.943 104.682 219.159 104.826C219.375 104.97 219.657 105.084 220.005 105.168C220.353 105.252 220.737 105.324 221.157 105.384C221.589 105.432 222.015 105.51 222.435 105.618C222.855 105.726 223.239 105.876 223.587 106.068C223.947 106.248 224.235 106.506 224.451 106.842C224.667 107.178 224.775 107.616 224.775 108.156C224.775 108.756 224.595 109.278 224.235 109.722C223.887 110.166 223.389 110.514 222.741 110.766C222.093 111.006 221.319 111.126 220.419 111.126Z" fill="#56B5CB"/>
<path d="M36.466 57.444C34.468 57.444 32.6057 57.1233 30.879 56.482C29.177 55.816 27.697 54.8787 26.439 53.67C25.181 52.4613 24.1943 51.043 23.479 49.415C22.7883 47.787 22.443 45.9987 22.443 44.05C22.443 42.1013 22.7883 40.313 23.479 38.685C24.1943 37.057 25.181 35.6387 26.439 34.43C27.7217 33.2213 29.214 32.2963 30.916 31.655C32.618 30.989 34.4803 30.656 36.503 30.656C38.7477 30.656 40.7703 31.0507 42.571 31.84C44.3963 32.6047 45.9257 33.7393 47.159 35.244L43.311 38.796C42.423 37.7847 41.4363 37.0323 40.351 36.539C39.2657 36.021 38.0817 35.762 36.799 35.762C35.5903 35.762 34.4803 35.9593 33.469 36.354C32.4577 36.7487 31.582 37.316 30.842 38.056C30.102 38.796 29.5223 39.6717 29.103 40.683C28.7083 41.6943 28.511 42.8167 28.511 44.05C28.511 45.2833 28.7083 46.4057 29.103 47.417C29.5223 48.4283 30.102 49.304 30.842 50.044C31.582 50.784 32.4577 51.3513 33.469 51.746C34.4803 52.1407 35.5903 52.338 36.799 52.338C38.0817 52.338 39.2657 52.0913 40.351 51.598C41.4363 51.08 42.423 50.303 43.311 49.267L47.159 52.819C45.9257 54.3237 44.3963 55.4707 42.571 56.26C40.7703 57.0493 38.7353 57.444 36.466 57.444ZM59.5852 57.296C57.4639 57.296 55.5769 56.852 53.9242 55.964C52.2962 55.076 51.0012 53.8673 50.0392 52.338C49.1019 50.784 48.6332 49.0203 48.6332 47.047C48.6332 45.049 49.1019 43.2853 50.0392 41.756C51.0012 40.202 52.2962 38.9933 53.9242 38.13C55.5769 37.242 57.4639 36.798 59.5852 36.798C61.6819 36.798 63.5566 37.242 65.2092 38.13C66.8619 38.9933 68.1569 40.1897 69.0942 41.719C70.0316 43.2483 70.5002 45.0243 70.5002 47.047C70.5002 49.0203 70.0316 50.784 69.0942 52.338C68.1569 53.8673 66.8619 55.076 65.2092 55.964C63.5566 56.852 61.6819 57.296 59.5852 57.296ZM59.5852 52.56C60.5472 52.56 61.4106 52.338 62.1752 51.894C62.9399 51.45 63.5442 50.821 63.9882 50.007C64.4322 49.1683 64.6542 48.1817 64.6542 47.047C64.6542 45.8877 64.4322 44.901 63.9882 44.087C63.5442 43.273 62.9399 42.644 62.1752 42.2C61.4106 41.756 60.5472 41.534 59.5852 41.534C58.6232 41.534 57.7599 41.756 56.9952 42.2C56.2306 42.644 55.6139 43.273 55.1452 44.087C54.7012 44.901 54.4792 45.8877 54.4792 47.047C54.4792 48.1817 54.7012 49.1683 55.1452 50.007C55.6139 50.821 56.2306 51.45 56.9952 51.894C57.7599 52.338 58.6232 52.56 59.5852 52.56ZM74.3583 57V37.094H79.8713V42.718L79.0943 41.09C79.6863 39.684 80.636 38.6233 81.9433 37.908C83.2507 37.168 84.8417 36.798 86.7163 36.798V42.126C86.4697 42.1013 86.2477 42.089 86.0503 42.089C85.853 42.0643 85.6433 42.052 85.4213 42.052C83.8427 42.052 82.56 42.5083 81.5733 43.421C80.6113 44.309 80.1303 45.7027 80.1303 47.602V57H74.3583ZM101.951 57.296C100.273 57.296 98.8055 56.926 97.5475 56.186C96.2895 55.446 95.3028 54.3237 94.5875 52.819C93.8968 51.2897 93.5515 49.3657 93.5515 47.047C93.5515 44.7037 93.8845 42.7797 94.5505 41.275C95.2165 39.7703 96.1785 38.648 97.4365 37.908C98.6945 37.168 100.199 36.798 101.951 36.798C103.825 36.798 105.503 37.2297 106.983 38.093C108.487 38.9317 109.671 40.1157 110.535 41.645C111.423 43.1743 111.867 44.975 111.867 47.047C111.867 49.1437 111.423 50.9567 110.535 52.486C109.671 54.0153 108.487 55.1993 106.983 56.038C105.503 56.8767 103.825 57.296 101.951 57.296ZM90.1845 64.178V37.094H95.6975V41.164L95.5865 47.084L95.9565 52.967V64.178H90.1845ZM100.952 52.56C101.914 52.56 102.765 52.338 103.505 51.894C104.269 51.45 104.874 50.821 105.318 50.007C105.786 49.1683 106.021 48.1817 106.021 47.047C106.021 45.8877 105.786 44.901 105.318 44.087C104.874 43.273 104.269 42.644 103.505 42.2C102.765 41.756 101.914 41.534 100.952 41.534C99.9895 41.534 99.1262 41.756 98.3615 42.2C97.5968 42.644 96.9925 43.273 96.5485 44.087C96.1045 44.901 95.8825 45.8877 95.8825 47.047C95.8825 48.1817 96.1045 49.1683 96.5485 50.007C96.9925 50.821 97.5968 51.45 98.3615 51.894C99.1262 52.338 99.9895 52.56 100.952 52.56ZM122.427 57.296C120.725 57.296 119.085 57.0987 117.506 56.704C115.952 56.2847 114.719 55.7667 113.806 55.15L115.73 51.006C116.643 51.5733 117.716 52.042 118.949 52.412C120.207 52.7573 121.441 52.93 122.649 52.93C123.981 52.93 124.919 52.7697 125.461 52.449C126.029 52.1283 126.312 51.6843 126.312 51.117C126.312 50.6483 126.09 50.303 125.646 50.081C125.227 49.8343 124.66 49.6493 123.944 49.526C123.229 49.4027 122.44 49.2793 121.576 49.156C120.738 49.0327 119.887 48.8723 119.023 48.675C118.16 48.453 117.371 48.1323 116.655 47.713C115.94 47.2937 115.36 46.7263 114.916 46.011C114.497 45.2957 114.287 44.3707 114.287 43.236C114.287 41.978 114.645 40.868 115.36 39.906C116.1 38.944 117.161 38.1917 118.542 37.649C119.924 37.0817 121.576 36.798 123.5 36.798C124.857 36.798 126.238 36.946 127.644 37.242C129.05 37.538 130.222 37.9697 131.159 38.537L129.235 42.644C128.273 42.0767 127.299 41.6943 126.312 41.497C125.35 41.275 124.413 41.164 123.5 41.164C122.218 41.164 121.28 41.3367 120.688 41.682C120.096 42.0273 119.8 42.4713 119.8 43.014C119.8 43.5073 120.01 43.8773 120.429 44.124C120.873 44.3707 121.453 44.568 122.168 44.716C122.884 44.864 123.661 44.9997 124.499 45.123C125.363 45.2217 126.226 45.382 127.089 45.604C127.953 45.826 128.73 46.1467 129.42 46.566C130.136 46.9607 130.715 47.5157 131.159 48.231C131.603 48.9217 131.825 49.8343 131.825 50.969C131.825 52.2023 131.455 53.3 130.715 54.262C129.975 55.1993 128.902 55.9393 127.496 56.482C126.115 57.0247 124.425 57.296 122.427 57.296ZM171.358 36.798C172.937 36.798 174.331 37.1187 175.539 37.76C176.773 38.3767 177.735 39.3387 178.425 40.646C179.141 41.9287 179.498 43.5813 179.498 45.604V57H173.726V46.492C173.726 44.8887 173.393 43.7047 172.727 42.94C172.061 42.1753 171.124 41.793 169.915 41.793C169.077 41.793 168.324 41.9903 167.658 42.385C166.992 42.755 166.474 43.3223 166.104 44.087C165.734 44.8517 165.549 45.826 165.549 47.01V57H159.777V46.492C159.777 44.8887 159.444 43.7047 158.778 42.94C158.137 42.1753 157.212 41.793 156.003 41.793C155.165 41.793 154.412 41.9903 153.746 42.385C153.08 42.755 152.562 43.3223 152.192 44.087C151.822 44.8517 151.637 45.826 151.637 47.01V57H145.865V37.094H151.378V42.533L150.342 40.942C151.033 39.5853 152.007 38.5617 153.265 37.871C154.548 37.1557 156.003 36.798 157.631 36.798C159.457 36.798 161.048 37.2667 162.404 38.204C163.786 39.1167 164.698 40.5227 165.142 42.422L163.107 41.867C163.773 40.313 164.834 39.0797 166.289 38.167C167.769 37.2543 169.459 36.798 171.358 36.798ZM194.695 57.296C192.426 57.296 190.428 56.852 188.701 55.964C186.999 55.076 185.68 53.8673 184.742 52.338C183.805 50.784 183.336 49.0203 183.336 47.047C183.336 45.049 183.793 43.2853 184.705 41.756C185.643 40.202 186.913 38.9933 188.516 38.13C190.12 37.242 191.933 36.798 193.955 36.798C195.904 36.798 197.655 37.2173 199.209 38.056C200.788 38.87 202.034 40.054 202.946 41.608C203.859 43.1373 204.315 44.975 204.315 47.121C204.315 47.343 204.303 47.602 204.278 47.898C204.254 48.1693 204.229 48.4283 204.204 48.675H188.035V45.308H201.17L198.95 46.307C198.95 45.271 198.741 44.3707 198.321 43.606C197.902 42.8413 197.322 42.2493 196.582 41.83C195.842 41.386 194.979 41.164 193.992 41.164C193.006 41.164 192.13 41.386 191.365 41.83C190.625 42.2493 190.046 42.8537 189.626 43.643C189.207 44.4077 188.997 45.3203 188.997 46.381V47.269C188.997 48.3543 189.232 49.3163 189.7 50.155C190.194 50.969 190.872 51.598 191.735 52.042C192.623 52.4613 193.659 52.671 194.843 52.671C195.904 52.671 196.829 52.5107 197.618 52.19C198.432 51.8693 199.172 51.3883 199.838 50.747L202.909 54.077C201.997 55.113 200.85 55.9147 199.468 56.482C198.087 57.0247 196.496 57.296 194.695 57.296ZM190.477 34.541L195.472 29.213H201.688L194.991 34.541H190.477ZM216.705 57.296C214.83 57.296 213.141 56.8767 211.636 56.038C210.131 55.1747 208.935 53.9783 208.047 52.449C207.184 50.9197 206.752 49.119 206.752 47.047C206.752 44.9503 207.184 43.1373 208.047 41.608C208.935 40.0787 210.131 38.8947 211.636 38.056C213.141 37.2173 214.83 36.798 216.705 36.798C218.382 36.798 219.85 37.168 221.108 37.908C222.366 38.648 223.34 39.7703 224.031 41.275C224.722 42.7797 225.067 44.7037 225.067 47.047C225.067 49.3657 224.734 51.2897 224.068 52.819C223.402 54.3237 222.44 55.446 221.182 56.186C219.949 56.926 218.456 57.296 216.705 57.296ZM217.704 52.56C218.641 52.56 219.492 52.338 220.257 51.894C221.022 51.45 221.626 50.821 222.07 50.007C222.539 49.1683 222.773 48.1817 222.773 47.047C222.773 45.8877 222.539 44.901 222.07 44.087C221.626 43.273 221.022 42.644 220.257 42.2C219.492 41.756 218.641 41.534 217.704 41.534C216.742 41.534 215.879 41.756 215.114 42.2C214.349 42.644 213.733 43.273 213.264 44.087C212.82 44.901 212.598 45.8877 212.598 47.047C212.598 48.1817 212.82 49.1683 213.264 50.007C213.733 50.821 214.349 51.45 215.114 51.894C215.879 52.338 216.742 52.56 217.704 52.56ZM222.921 57V52.93L223.032 47.01L222.662 41.127V29.546H228.434V57H222.921ZM233.776 57V37.094H239.548V57H233.776ZM236.662 34.319C235.602 34.319 234.738 34.0107 234.072 33.394C233.406 32.7773 233.073 32.0127 233.073 31.1C233.073 30.1873 233.406 29.4227 234.072 28.806C234.738 28.1893 235.602 27.881 236.662 27.881C237.723 27.881 238.586 28.177 239.252 28.769C239.918 29.3363 240.251 30.0763 240.251 30.989C240.251 31.951 239.918 32.7527 239.252 33.394C238.611 34.0107 237.748 34.319 236.662 34.319ZM254.525 57.296C252.379 57.296 250.468 56.8643 248.79 56.001C247.113 55.113 245.793 53.892 244.831 52.338C243.894 50.784 243.425 49.0203 243.425 47.047C243.425 45.049 243.894 43.2853 244.831 41.756C245.793 40.202 247.113 38.9933 248.79 38.13C250.468 37.242 252.379 36.798 254.525 36.798C256.622 36.798 258.447 37.242 260.001 38.13C261.555 38.9933 262.702 40.239 263.442 41.867L258.965 44.272C258.447 43.3347 257.794 42.644 257.004 42.2C256.24 41.756 255.401 41.534 254.488 41.534C253.502 41.534 252.614 41.756 251.824 42.2C251.035 42.644 250.406 43.273 249.937 44.087C249.493 44.901 249.271 45.8877 249.271 47.047C249.271 48.2063 249.493 49.193 249.937 50.007C250.406 50.821 251.035 51.45 251.824 51.894C252.614 52.338 253.502 52.56 254.488 52.56C255.401 52.56 256.24 52.3503 257.004 51.931C257.794 51.487 258.447 50.784 258.965 49.822L263.442 52.264C262.702 53.8673 261.555 55.113 260.001 56.001C258.447 56.8643 256.622 57.296 254.525 57.296ZM278.976 57V53.115L278.606 52.264V45.308C278.606 44.0747 278.223 43.1127 277.459 42.422C276.719 41.7313 275.572 41.386 274.018 41.386C272.957 41.386 271.909 41.5587 270.873 41.904C269.861 42.2247 268.998 42.6687 268.283 43.236L266.211 39.203C267.296 38.4383 268.603 37.8463 270.133 37.427C271.662 37.0077 273.216 36.798 274.795 36.798C277.829 36.798 280.184 37.5133 281.862 38.944C283.539 40.3747 284.378 42.607 284.378 45.641V57H278.976ZM272.908 57.296C271.354 57.296 270.022 57.037 268.912 56.519C267.802 55.9763 266.951 55.2487 266.359 54.336C265.767 53.4233 265.471 52.3997 265.471 51.265C265.471 50.081 265.754 49.045 266.322 48.157C266.914 47.269 267.839 46.5783 269.097 46.085C270.355 45.567 271.995 45.308 274.018 45.308H279.309V48.675H274.647C273.29 48.675 272.353 48.897 271.835 49.341C271.341 49.785 271.095 50.34 271.095 51.006C271.095 51.746 271.378 52.338 271.946 52.782C272.538 53.2013 273.339 53.411 274.351 53.411C275.313 53.411 276.176 53.189 276.941 52.745C277.705 52.2763 278.26 51.598 278.606 50.71L279.494 53.374C279.074 54.6567 278.31 55.631 277.2 56.297C276.09 56.963 274.659 57.296 272.908 57.296ZM289.602 57V29.546H295.374V57H289.602Z" fill="#505050"/>
<path d="M130.804 187.126C130.024 187.126 129.31 186.946 128.662 186.586C128.026 186.226 127.516 185.686 127.132 184.966C126.76 184.234 126.574 183.31 126.574 182.194C126.574 181.066 126.754 180.142 127.114 179.422C127.486 178.702 127.99 178.168 128.626 177.82C129.262 177.46 129.988 177.28 130.804 177.28C131.752 177.28 132.586 177.484 133.306 177.892C134.038 178.3 134.614 178.87 135.034 179.602C135.466 180.334 135.682 181.198 135.682 182.194C135.682 183.19 135.466 184.06 135.034 184.804C134.614 185.536 134.038 186.106 133.306 186.514C132.586 186.922 131.752 187.126 130.804 187.126ZM125.476 190.492V177.388H127.618V179.656L127.546 182.212L127.726 184.768V190.492H125.476ZM130.552 185.2C131.092 185.2 131.572 185.08 131.992 184.84C132.424 184.6 132.766 184.252 133.018 183.796C133.27 183.34 133.396 182.806 133.396 182.194C133.396 181.57 133.27 181.036 133.018 180.592C132.766 180.136 132.424 179.788 131.992 179.548C131.572 179.308 131.092 179.188 130.552 179.188C130.012 179.188 129.526 179.308 129.094 179.548C128.662 179.788 128.32 180.136 128.068 180.592C127.816 181.036 127.69 181.57 127.69 182.194C127.69 182.806 127.816 183.34 128.068 183.796C128.32 184.252 128.662 184.6 129.094 184.84C129.526 185.08 130.012 185.2 130.552 185.2ZM143.615 187V185.056L143.489 184.642V181.24C143.489 180.58 143.291 180.07 142.895 179.71C142.499 179.338 141.899 179.152 141.095 179.152C140.555 179.152 140.021 179.236 139.493 179.404C138.977 179.572 138.539 179.806 138.179 180.106L137.297 178.468C137.813 178.072 138.425 177.778 139.133 177.586C139.853 177.382 140.597 177.28 141.365 177.28C142.757 177.28 143.831 177.616 144.587 178.288C145.355 178.948 145.739 179.974 145.739 181.366V187H143.615ZM140.591 187.126C139.871 187.126 139.241 187.006 138.701 186.766C138.161 186.514 137.741 186.172 137.441 185.74C137.153 185.296 137.009 184.798 137.009 184.246C137.009 183.706 137.135 183.22 137.387 182.788C137.651 182.356 138.077 182.014 138.665 181.762C139.253 181.51 140.033 181.384 141.005 181.384H143.795V182.878H141.167C140.399 182.878 139.883 183.004 139.619 183.256C139.355 183.496 139.223 183.796 139.223 184.156C139.223 184.564 139.385 184.888 139.709 185.128C140.033 185.368 140.483 185.488 141.059 185.488C141.611 185.488 142.103 185.362 142.535 185.11C142.979 184.858 143.297 184.486 143.489 183.994L143.867 185.344C143.651 185.908 143.261 186.346 142.697 186.658C142.145 186.97 141.443 187.126 140.591 187.126ZM148.626 187V177.388H150.768V180.034L150.516 179.26C150.804 178.612 151.254 178.12 151.866 177.784C152.49 177.448 153.264 177.28 154.188 177.28V179.422C154.092 179.398 154.002 179.386 153.918 179.386C153.834 179.374 153.75 179.368 153.666 179.368C152.814 179.368 152.136 179.62 151.632 180.124C151.128 180.616 150.876 181.354 150.876 182.338V187H148.626ZM173.292 177.28C174.06 177.28 174.738 177.43 175.326 177.73C175.926 178.03 176.394 178.492 176.73 179.116C177.066 179.728 177.234 180.52 177.234 181.492V187H174.984V181.78C174.984 180.928 174.798 180.292 174.426 179.872C174.054 179.452 173.52 179.242 172.824 179.242C172.332 179.242 171.894 179.35 171.51 179.566C171.138 179.782 170.844 180.1 170.628 180.52C170.424 180.94 170.322 181.474 170.322 182.122V187H168.072V181.78C168.072 180.928 167.886 180.292 167.514 179.872C167.142 179.452 166.608 179.242 165.912 179.242C165.42 179.242 164.982 179.35 164.598 179.566C164.226 179.782 163.932 180.1 163.716 180.52C163.512 180.94 163.41 181.474 163.41 182.122V187H161.16V177.388H163.302V179.944L162.924 179.188C163.248 178.564 163.716 178.09 164.328 177.766C164.952 177.442 165.66 177.28 166.452 177.28C167.352 177.28 168.132 177.502 168.792 177.946C169.464 178.39 169.908 179.062 170.124 179.962L169.242 179.656C169.554 178.936 170.07 178.36 170.79 177.928C171.51 177.496 172.344 177.28 173.292 177.28ZM184.446 187.126C183.462 187.126 182.586 186.916 181.818 186.496C181.05 186.064 180.444 185.476 180 184.732C179.556 183.988 179.334 183.142 179.334 182.194C179.334 181.234 179.556 180.388 180 179.656C180.444 178.912 181.05 178.33 181.818 177.91C182.586 177.49 183.462 177.28 184.446 177.28C185.442 177.28 186.324 177.49 187.092 177.91C187.872 178.33 188.478 178.906 188.91 179.638C189.354 180.37 189.576 181.222 189.576 182.194C189.576 183.142 189.354 183.988 188.91 184.732C188.478 185.476 187.872 186.064 187.092 186.496C186.324 186.916 185.442 187.126 184.446 187.126ZM184.446 185.2C184.998 185.2 185.49 185.08 185.922 184.84C186.354 184.6 186.69 184.252 186.93 183.796C187.182 183.34 187.308 182.806 187.308 182.194C187.308 181.57 187.182 181.036 186.93 180.592C186.69 180.136 186.354 179.788 185.922 179.548C185.49 179.308 185.004 179.188 184.464 179.188C183.912 179.188 183.42 179.308 182.988 179.548C182.568 179.788 182.232 180.136 181.98 180.592C181.728 181.036 181.602 181.57 181.602 182.194C181.602 182.806 181.728 183.34 181.98 183.796C182.232 184.252 182.568 184.6 182.988 184.84C183.42 185.08 183.906 185.2 184.446 185.2ZM191.728 187V177.388H193.978V187H191.728ZM192.862 175.804C192.442 175.804 192.094 175.672 191.818 175.408C191.554 175.144 191.422 174.826 191.422 174.454C191.422 174.07 191.554 173.752 191.818 173.5C192.094 173.236 192.442 173.104 192.862 173.104C193.282 173.104 193.624 173.23 193.888 173.482C194.164 173.722 194.302 174.028 194.302 174.4C194.302 174.796 194.17 175.132 193.906 175.408C193.642 175.672 193.294 175.804 192.862 175.804ZM199.901 187.126C199.097 187.126 198.323 187.024 197.579 186.82C196.847 186.604 196.265 186.346 195.833 186.046L196.697 184.336C197.129 184.612 197.645 184.84 198.245 185.02C198.845 185.2 199.445 185.29 200.045 185.29C200.753 185.29 201.263 185.194 201.575 185.002C201.899 184.81 202.061 184.552 202.061 184.228C202.061 183.964 201.953 183.766 201.737 183.634C201.521 183.49 201.239 183.382 200.891 183.31C200.543 183.238 200.153 183.172 199.721 183.112C199.301 183.052 198.875 182.974 198.443 182.878C198.023 182.77 197.639 182.62 197.291 182.428C196.943 182.224 196.661 181.954 196.445 181.618C196.229 181.282 196.121 180.838 196.121 180.286C196.121 179.674 196.295 179.146 196.643 178.702C196.991 178.246 197.477 177.898 198.101 177.658C198.737 177.406 199.487 177.28 200.351 177.28C200.999 177.28 201.653 177.352 202.313 177.496C202.973 177.64 203.519 177.844 203.951 178.108L203.087 179.818C202.631 179.542 202.169 179.356 201.701 179.26C201.245 179.152 200.789 179.098 200.333 179.098C199.649 179.098 199.139 179.2 198.803 179.404C198.479 179.608 198.317 179.866 198.317 180.178C198.317 180.466 198.425 180.682 198.641 180.826C198.857 180.97 199.139 181.084 199.487 181.168C199.835 181.252 200.219 181.324 200.639 181.384C201.071 181.432 201.497 181.51 201.917 181.618C202.337 181.726 202.721 181.876 203.069 182.068C203.429 182.248 203.717 182.506 203.933 182.842C204.149 183.178 204.257 183.616 204.257 184.156C204.257 184.756 204.077 185.278 203.717 185.722C203.369 186.166 202.871 186.514 202.223 186.766C201.575 187.006 200.801 187.126 199.901 187.126Z" fill="#505050"/>
<path d="M30.32 190V185.8L41.12 175.6C41.9733 174.827 42.6 174.133 43 173.52C43.4 172.907 43.6667 172.347 43.8 171.84C43.96 171.333 44.04 170.867 44.04 170.44C44.04 169.32 43.6533 168.467 42.88 167.88C42.1333 167.267 41.0267 166.96 39.56 166.96C38.3867 166.96 37.2933 167.187 36.28 167.64C35.2933 168.093 34.4533 168.8 33.76 169.76L29.04 166.72C30.1067 165.12 31.6 163.853 33.52 162.92C35.44 161.987 37.6533 161.52 40.16 161.52C42.24 161.52 44.0533 161.867 45.6 162.56C47.1733 163.227 48.3867 164.173 49.24 165.4C50.12 166.627 50.56 168.093 50.56 169.8C50.56 170.707 50.44 171.613 50.2 172.52C49.9867 173.4 49.5333 174.333 48.84 175.32C48.1733 176.307 47.1867 177.413 45.88 178.64L36.92 187.08L35.68 184.72H51.48V190H30.32ZM66.1538 190.48C63.8604 190.48 61.8071 189.92 59.9938 188.8C58.1804 187.653 56.7538 186 55.7138 183.84C54.6738 181.68 54.1538 179.067 54.1538 176C54.1538 172.933 54.6738 170.32 55.7138 168.16C56.7538 166 58.1804 164.36 59.9938 163.24C61.8071 162.093 63.8604 161.52 66.1538 161.52C68.4738 161.52 70.5271 162.093 72.3138 163.24C74.1271 164.36 75.5538 166 76.5938 168.16C77.6338 170.32 78.1538 172.933 78.1538 176C78.1538 179.067 77.6338 181.68 76.5938 183.84C75.5538 186 74.1271 187.653 72.3138 188.8C70.5271 189.92 68.4738 190.48 66.1538 190.48ZM66.1538 185C67.2471 185 68.1938 184.693 68.9938 184.08C69.8204 183.467 70.4604 182.493 70.9138 181.16C71.3938 179.827 71.6338 178.107 71.6338 176C71.6338 173.893 71.3938 172.173 70.9138 170.84C70.4604 169.507 69.8204 168.533 68.9938 167.92C68.1938 167.307 67.2471 167 66.1538 167C65.0871 167 64.1404 167.307 63.3138 167.92C62.5138 168.533 61.8738 169.507 61.3938 170.84C60.9404 172.173 60.7138 173.893 60.7138 176C60.7138 178.107 60.9404 179.827 61.3938 181.16C61.8738 182.493 62.5138 183.467 63.3138 184.08C64.1404 184.693 65.0871 185 66.1538 185ZM80.9422 180.44V177.08H102.502V180.44H80.9422ZM80.9422 174.92V171.56H102.502V174.92H80.9422ZM99.9822 190.48C97.7955 190.48 95.7689 190.133 93.9022 189.44C92.0622 188.72 90.4622 187.707 89.1022 186.4C87.7422 185.093 86.6889 183.56 85.9422 181.8C85.1955 180.04 84.8222 178.107 84.8222 176C84.8222 173.893 85.1955 171.96 85.9422 170.2C86.6889 168.44 87.7422 166.907 89.1022 165.6C90.4622 164.293 92.0622 163.293 93.9022 162.6C95.7689 161.88 97.7955 161.52 99.9822 161.52C102.409 161.52 104.609 161.947 106.582 162.8C108.556 163.627 110.196 164.853 111.502 166.48L107.382 170.32C106.422 169.227 105.356 168.413 104.182 167.88C103.009 167.32 101.716 167.04 100.302 167.04C98.9955 167.04 97.7955 167.253 96.7022 167.68C95.6089 168.107 94.6622 168.72 93.8622 169.52C93.0622 170.32 92.4355 171.267 91.9822 172.36C91.5555 173.453 91.3422 174.667 91.3422 176C91.3422 177.333 91.5555 178.547 91.9822 179.64C92.4355 180.733 93.0622 181.68 93.8622 182.48C94.6622 183.28 95.6089 183.893 96.7022 184.32C97.7955 184.747 98.9955 184.96 100.302 184.96C101.716 184.96 103.009 184.693 104.182 184.16C105.356 183.6 106.422 182.76 107.382 181.64L111.502 185.48C110.196 187.107 108.556 188.347 106.582 189.2C104.609 190.053 102.409 190.48 99.9822 190.48Z" fill="#505050"/>
<line x1="27.5" y1="68.5" x2="129.5" y2="68.5" stroke="#56B5CB" stroke-width="3" stroke-linecap="round"/>
<defs>
<filter id="filter0_d_3094_1140" x="0" y="0" width="319" height="497" filterUnits="userSpaceOnUse" color-interpolation-filters="sRGB">
<feFlood flood-opacity="0" result="BackgroundImageFix"/>
<feColorMatrix in="SourceAlpha" type="matrix" values="0 0 0 0 0 0 0 0 0 0 0 0 0 0 0 0 0 0 127 0" result="hardAlpha"/>
<feOffset dy="4"/>
<feGaussianBlur stdDeviation="2"/>
<feComposite in2="hardAlpha" operator="out"/>
<feColorMatrix type="matrix" values="0 0 0 0 0.904167 0 0 0 0 0.904167 0 0 0 0 0.904167 0 0 0 1 0"/>
<feBlend mode="normal" in2="BackgroundImageFix" result="effect1_dropShadow_3094_1140"/>
<feBlend mode="normal" in="SourceGraphic" in2="effect1_dropShadow_3094_1140" result="shape"/>
</filter>
</defs>
</svg>
