<svg width="319" height="497" viewBox="0 0 319 497" fill="none" xmlns="http://www.w3.org/2000/svg">
<g filter="url(#filter0_d_3094_1124)">
<rect x="5" y="1" width="309" height="487" rx="10" fill="#F8F7F7"/>
<rect x="4.5" y="0.5" width="310" height="488" rx="10.5" stroke="#F1F1F1"/>
</g>
<path d="M70.692 316V303.4H72.618L78.126 312.598H77.118L82.536 303.4H84.462L84.48 316H82.266L82.248 306.874H82.716L78.108 314.56H77.064L72.384 306.874H72.924V316H70.692ZM92.1854 316.126C91.1174 316.126 90.1814 315.916 89.3774 315.496C88.5854 315.064 87.9674 314.476 87.5234 313.732C87.0914 312.988 86.8754 312.142 86.8754 311.194C86.8754 310.234 87.0854 309.388 87.5054 308.656C87.9374 307.912 88.5254 307.33 89.2694 306.91C90.0254 306.49 90.8834 306.28 91.8434 306.28C92.7794 306.28 93.6134 306.484 94.3454 306.892C95.0774 307.3 95.6534 307.876 96.0734 308.62C96.4934 309.364 96.7034 310.24 96.7034 311.248C96.7034 311.344 96.6974 311.452 96.6854 311.572C96.6854 311.692 96.6794 311.806 96.6674 311.914H88.6574V310.42H95.4794L94.5974 310.888C94.6094 310.336 94.4954 309.85 94.2554 309.43C94.0154 309.01 93.6854 308.68 93.2654 308.44C92.8574 308.2 92.3834 308.08 91.8434 308.08C91.2914 308.08 90.8054 308.2 90.3854 308.44C89.9774 308.68 89.6534 309.016 89.4134 309.448C89.1854 309.868 89.0714 310.366 89.0714 310.942V311.302C89.0714 311.878 89.2034 312.388 89.4674 312.832C89.7314 313.276 90.1034 313.618 90.5834 313.858C91.0634 314.098 91.6154 314.218 92.2394 314.218C92.7794 314.218 93.2654 314.134 93.6974 313.966C94.1294 313.798 94.5134 313.534 94.8494 313.174L96.0554 314.56C95.6234 315.064 95.0774 315.454 94.4174 315.73C93.7694 315.994 93.0254 316.126 92.1854 316.126ZM101.835 316.126C101.031 316.126 100.257 316.024 99.5127 315.82C98.7807 315.604 98.1987 315.346 97.7667 315.046L98.6307 313.336C99.0627 313.612 99.5787 313.84 100.179 314.02C100.779 314.2 101.379 314.29 101.979 314.29C102.687 314.29 103.197 314.194 103.509 314.002C103.833 313.81 103.995 313.552 103.995 313.228C103.995 312.964 103.887 312.766 103.671 312.634C103.455 312.49 103.173 312.382 102.825 312.31C102.477 312.238 102.087 312.172 101.655 312.112C101.235 312.052 100.809 311.974 100.377 311.878C99.9567 311.77 99.5727 311.62 99.2247 311.428C98.8767 311.224 98.5947 310.954 98.3787 310.618C98.1627 310.282 98.0547 309.838 98.0547 309.286C98.0547 308.674 98.2287 308.146 98.5767 307.702C98.9247 307.246 99.4107 306.898 100.035 306.658C100.671 306.406 101.421 306.28 102.285 306.28C102.933 306.28 103.587 306.352 104.247 306.496C104.907 306.64 105.453 306.844 105.885 307.108L105.021 308.818C104.565 308.542 104.103 308.356 103.635 308.26C103.179 308.152 102.723 308.098 102.267 308.098C101.583 308.098 101.073 308.2 100.737 308.404C100.413 308.608 100.251 308.866 100.251 309.178C100.251 309.466 100.359 309.682 100.575 309.826C100.791 309.97 101.073 310.084 101.421 310.168C101.769 310.252 102.153 310.324 102.573 310.384C103.005 310.432 103.431 310.51 103.851 310.618C104.271 310.726 104.655 310.876 105.003 311.068C105.363 311.248 105.651 311.506 105.867 311.842C106.083 312.178 106.191 312.616 106.191 313.156C106.191 313.756 106.011 314.278 105.651 314.722C105.303 315.166 104.805 315.514 104.157 315.766C103.509 316.006 102.735 316.126 101.835 316.126ZM111.098 316.126C110.294 316.126 109.52 316.024 108.776 315.82C108.044 315.604 107.462 315.346 107.03 315.046L107.894 313.336C108.326 313.612 108.842 313.84 109.442 314.02C110.042 314.2 110.642 314.29 111.242 314.29C111.95 314.29 112.46 314.194 112.772 314.002C113.096 313.81 113.258 313.552 113.258 313.228C113.258 312.964 113.15 312.766 112.934 312.634C112.718 312.49 112.436 312.382 112.088 312.31C111.74 312.238 111.35 312.172 110.918 312.112C110.498 312.052 110.072 311.974 109.64 311.878C109.22 311.77 108.836 311.62 108.488 311.428C108.14 311.224 107.858 310.954 107.642 310.618C107.426 310.282 107.318 309.838 107.318 309.286C107.318 308.674 107.492 308.146 107.84 307.702C108.188 307.246 108.674 306.898 109.298 306.658C109.934 306.406 110.684 306.28 111.548 306.28C112.196 306.28 112.85 306.352 113.51 306.496C114.17 306.64 114.716 306.844 115.148 307.108L114.284 308.818C113.828 308.542 113.366 308.356 112.898 308.26C112.442 308.152 111.986 308.098 111.53 308.098C110.846 308.098 110.336 308.2 110 308.404C109.676 308.608 109.514 308.866 109.514 309.178C109.514 309.466 109.622 309.682 109.838 309.826C110.054 309.97 110.336 310.084 110.684 310.168C111.032 310.252 111.416 310.324 111.836 310.384C112.268 310.432 112.694 310.51 113.114 310.618C113.534 310.726 113.918 310.876 114.266 311.068C114.626 311.248 114.914 311.506 115.13 311.842C115.346 312.178 115.454 312.616 115.454 313.156C115.454 313.756 115.274 314.278 114.914 314.722C114.566 315.166 114.068 315.514 113.42 315.766C112.772 316.006 111.998 316.126 111.098 316.126ZM123.314 316V314.056L123.188 313.642V310.24C123.188 309.58 122.99 309.07 122.594 308.71C122.198 308.338 121.598 308.152 120.794 308.152C120.254 308.152 119.72 308.236 119.192 308.404C118.676 308.572 118.238 308.806 117.878 309.106L116.996 307.468C117.512 307.072 118.124 306.778 118.832 306.586C119.552 306.382 120.296 306.28 121.064 306.28C122.456 306.28 123.53 306.616 124.286 307.288C125.054 307.948 125.438 308.974 125.438 310.366V316H123.314ZM120.29 316.126C119.57 316.126 118.94 316.006 118.4 315.766C117.86 315.514 117.44 315.172 117.14 314.74C116.852 314.296 116.708 313.798 116.708 313.246C116.708 312.706 116.834 312.22 117.086 311.788C117.35 311.356 117.776 311.014 118.364 310.762C118.952 310.51 119.732 310.384 120.704 310.384H123.494V311.878H120.866C120.098 311.878 119.582 312.004 119.318 312.256C119.054 312.496 118.922 312.796 118.922 313.156C118.922 313.564 119.084 313.888 119.408 314.128C119.732 314.368 120.182 314.488 120.758 314.488C121.31 314.488 121.802 314.362 122.234 314.11C122.678 313.858 122.996 313.486 123.188 312.994L123.566 314.344C123.35 314.908 122.96 315.346 122.396 315.658C121.844 315.97 121.142 316.126 120.29 316.126ZM132.699 319.618C131.811 319.618 130.941 319.498 130.089 319.258C129.249 319.03 128.559 318.694 128.019 318.25L129.027 316.558C129.447 316.906 129.975 317.182 130.611 317.386C131.259 317.602 131.913 317.71 132.573 317.71C133.629 317.71 134.403 317.464 134.895 316.972C135.387 316.492 135.633 315.766 135.633 314.794V313.084L135.813 310.906L135.741 308.728V306.388H137.883V314.542C137.883 316.282 137.439 317.56 136.551 318.376C135.663 319.204 134.379 319.618 132.699 319.618ZM132.411 315.568C131.499 315.568 130.671 315.376 129.927 314.992C129.195 314.596 128.613 314.05 128.181 313.354C127.761 312.658 127.551 311.842 127.551 310.906C127.551 309.982 127.761 309.172 128.181 308.476C128.613 307.78 129.195 307.24 129.927 306.856C130.671 306.472 131.499 306.28 132.411 306.28C133.227 306.28 133.959 306.442 134.607 306.766C135.255 307.09 135.771 307.594 136.155 308.278C136.551 308.962 136.749 309.838 136.749 310.906C136.749 311.974 136.551 312.856 136.155 313.552C135.771 314.236 135.255 314.746 134.607 315.082C133.959 315.406 133.227 315.568 132.411 315.568ZM132.753 313.66C133.317 313.66 133.821 313.546 134.265 313.318C134.709 313.078 135.051 312.754 135.291 312.346C135.543 311.926 135.669 311.446 135.669 310.906C135.669 310.366 135.543 309.892 135.291 309.484C135.051 309.064 134.709 308.746 134.265 308.53C133.821 308.302 133.317 308.188 132.753 308.188C132.189 308.188 131.679 308.302 131.223 308.53C130.779 308.746 130.431 309.064 130.179 309.484C129.939 309.892 129.819 310.366 129.819 310.906C129.819 311.446 129.939 311.926 130.179 312.346C130.431 312.754 130.779 313.078 131.223 313.318C131.679 313.546 132.189 313.66 132.753 313.66ZM145.359 316.126C144.291 316.126 143.355 315.916 142.551 315.496C141.759 315.064 141.141 314.476 140.697 313.732C140.265 312.988 140.049 312.142 140.049 311.194C140.049 310.234 140.259 309.388 140.679 308.656C141.111 307.912 141.699 307.33 142.443 306.91C143.199 306.49 144.057 306.28 145.017 306.28C145.953 306.28 146.787 306.484 147.519 306.892C148.251 307.3 148.827 307.876 149.247 308.62C149.667 309.364 149.877 310.24 149.877 311.248C149.877 311.344 149.871 311.452 149.859 311.572C149.859 311.692 149.853 311.806 149.841 311.914H141.831V310.42H148.653L147.771 310.888C147.783 310.336 147.669 309.85 147.429 309.43C147.189 309.01 146.859 308.68 146.439 308.44C146.031 308.2 145.557 308.08 145.017 308.08C144.465 308.08 143.979 308.2 143.559 308.44C143.151 308.68 142.827 309.016 142.587 309.448C142.359 309.868 142.245 310.366 142.245 310.942V311.302C142.245 311.878 142.377 312.388 142.641 312.832C142.905 313.276 143.277 313.618 143.757 313.858C144.237 314.098 144.789 314.218 145.413 314.218C145.953 314.218 146.439 314.134 146.871 313.966C147.303 313.798 147.687 313.534 148.023 313.174L149.229 314.56C148.797 315.064 148.251 315.454 147.591 315.73C146.943 315.994 146.199 316.126 145.359 316.126ZM152.039 316V306.388H154.181V309.034L153.929 308.26C154.217 307.612 154.667 307.12 155.279 306.784C155.903 306.448 156.677 306.28 157.601 306.28V308.422C157.505 308.398 157.415 308.386 157.331 308.386C157.247 308.374 157.163 308.368 157.079 308.368C156.227 308.368 155.549 308.62 155.045 309.124C154.541 309.616 154.289 310.354 154.289 311.338V316H152.039ZM159.509 316V306.388H161.759V316H159.509ZM160.643 304.804C160.223 304.804 159.875 304.672 159.599 304.408C159.335 304.144 159.203 303.826 159.203 303.454C159.203 303.07 159.335 302.752 159.599 302.5C159.875 302.236 160.223 302.104 160.643 302.104C161.063 302.104 161.405 302.23 161.669 302.482C161.945 302.722 162.083 303.028 162.083 303.4C162.083 303.796 161.951 304.132 161.687 304.408C161.423 304.672 161.075 304.804 160.643 304.804ZM169.23 316.126C168.162 316.126 167.226 315.916 166.422 315.496C165.63 315.064 165.012 314.476 164.568 313.732C164.136 312.988 163.92 312.142 163.92 311.194C163.92 310.234 164.13 309.388 164.55 308.656C164.982 307.912 165.57 307.33 166.314 306.91C167.07 306.49 167.928 306.28 168.888 306.28C169.824 306.28 170.658 306.484 171.39 306.892C172.122 307.3 172.698 307.876 173.118 308.62C173.538 309.364 173.748 310.24 173.748 311.248C173.748 311.344 173.742 311.452 173.73 311.572C173.73 311.692 173.724 311.806 173.712 311.914H165.702V310.42H172.524L171.642 310.888C171.654 310.336 171.54 309.85 171.3 309.43C171.06 309.01 170.73 308.68 170.31 308.44C169.902 308.2 169.428 308.08 168.888 308.08C168.336 308.08 167.85 308.2 167.43 308.44C167.022 308.68 166.698 309.016 166.458 309.448C166.23 309.868 166.116 310.366 166.116 310.942V311.302C166.116 311.878 166.248 312.388 166.512 312.832C166.776 313.276 167.148 313.618 167.628 313.858C168.108 314.098 168.66 314.218 169.284 314.218C169.824 314.218 170.31 314.134 170.742 313.966C171.174 313.798 171.558 313.534 171.894 313.174L173.1 314.56C172.668 315.064 172.122 315.454 171.462 315.73C170.814 315.994 170.07 316.126 169.23 316.126Z" fill="#505050"/>
<path d="M68.91 360L74.58 347.4H76.884L82.572 360H80.124L75.246 348.642H76.182L71.322 360H68.91ZM71.52 357.084L72.15 355.248H78.954L79.584 357.084H71.52ZM83.9584 360V346.644H86.2084V360H83.9584ZM93.6795 360.126C92.6115 360.126 91.6755 359.916 90.8715 359.496C90.0795 359.064 89.4615 358.476 89.0175 357.732C88.5855 356.988 88.3695 356.142 88.3695 355.194C88.3695 354.234 88.5795 353.388 88.9995 352.656C89.4315 351.912 90.0195 351.33 90.7635 350.91C91.5195 350.49 92.3775 350.28 93.3375 350.28C94.2735 350.28 95.1075 350.484 95.8395 350.892C96.5715 351.3 97.1475 351.876 97.5675 352.62C97.9875 353.364 98.1975 354.24 98.1975 355.248C98.1975 355.344 98.1915 355.452 98.1795 355.572C98.1795 355.692 98.1735 355.806 98.1615 355.914H90.1515V354.42H96.9735L96.0915 354.888C96.1035 354.336 95.9895 353.85 95.7495 353.43C95.5095 353.01 95.1795 352.68 94.7595 352.44C94.3515 352.2 93.8775 352.08 93.3375 352.08C92.7855 352.08 92.2995 352.2 91.8795 352.44C91.4715 352.68 91.1475 353.016 90.9075 353.448C90.6795 353.868 90.5655 354.366 90.5655 354.942V355.302C90.5655 355.878 90.6975 356.388 90.9615 356.832C91.2255 357.276 91.5975 357.618 92.0775 357.858C92.5575 358.098 93.1095 358.218 93.7335 358.218C94.2735 358.218 94.7595 358.134 95.1915 357.966C95.6235 357.798 96.0075 357.534 96.3435 357.174L97.5495 358.56C97.1175 359.064 96.5715 359.454 95.9115 359.73C95.2635 359.994 94.5195 360.126 93.6795 360.126ZM100.359 360V350.388H102.501V353.034L102.249 352.26C102.537 351.612 102.987 351.12 103.599 350.784C104.223 350.448 104.997 350.28 105.921 350.28V352.422C105.825 352.398 105.735 352.386 105.651 352.386C105.567 352.374 105.483 352.368 105.399 352.368C104.547 352.368 103.869 352.62 103.365 353.124C102.861 353.616 102.609 354.354 102.609 355.338V360H100.359ZM111.799 360.126C110.743 360.126 109.927 359.856 109.351 359.316C108.775 358.764 108.487 357.954 108.487 356.886V348.264H110.737V356.832C110.737 357.288 110.851 357.642 111.079 357.894C111.319 358.146 111.649 358.272 112.069 358.272C112.573 358.272 112.993 358.14 113.329 357.876L113.959 359.478C113.695 359.694 113.371 359.856 112.987 359.964C112.603 360.072 112.207 360.126 111.799 360.126ZM106.903 352.26V350.46H113.311V352.26H106.903ZM120.012 360.126C118.944 360.126 118.008 359.916 117.204 359.496C116.412 359.064 115.794 358.476 115.35 357.732C114.918 356.988 114.702 356.142 114.702 355.194C114.702 354.234 114.912 353.388 115.332 352.656C115.764 351.912 116.352 351.33 117.096 350.91C117.852 350.49 118.71 350.28 119.67 350.28C120.606 350.28 121.44 350.484 122.172 350.892C122.904 351.3 123.48 351.876 123.9 352.62C124.32 353.364 124.53 354.24 124.53 355.248C124.53 355.344 124.524 355.452 124.512 355.572C124.512 355.692 124.506 355.806 124.494 355.914H116.484V354.42H123.306L122.424 354.888C122.436 354.336 122.322 353.85 122.082 353.43C121.842 353.01 121.512 352.68 121.092 352.44C120.684 352.2 120.21 352.08 119.67 352.08C119.118 352.08 118.632 352.2 118.212 352.44C117.804 352.68 117.48 353.016 117.24 353.448C117.012 353.868 116.898 354.366 116.898 354.942V355.302C116.898 355.878 117.03 356.388 117.294 356.832C117.558 357.276 117.93 357.618 118.41 357.858C118.89 358.098 119.442 358.218 120.066 358.218C120.606 358.218 121.092 358.134 121.524 357.966C121.956 357.798 122.34 357.534 122.676 357.174L123.882 358.56C123.45 359.064 122.904 359.454 122.244 359.73C121.596 359.994 120.852 360.126 120.012 360.126ZM129.661 360.126C128.857 360.126 128.083 360.024 127.339 359.82C126.607 359.604 126.025 359.346 125.593 359.046L126.457 357.336C126.889 357.612 127.405 357.84 128.005 358.02C128.605 358.2 129.205 358.29 129.805 358.29C130.513 358.29 131.023 358.194 131.335 358.002C131.659 357.81 131.821 357.552 131.821 357.228C131.821 356.964 131.713 356.766 131.497 356.634C131.281 356.49 130.999 356.382 130.651 356.31C130.303 356.238 129.913 356.172 129.481 356.112C129.061 356.052 128.635 355.974 128.203 355.878C127.783 355.77 127.399 355.62 127.051 355.428C126.703 355.224 126.421 354.954 126.205 354.618C125.989 354.282 125.881 353.838 125.881 353.286C125.881 352.674 126.055 352.146 126.403 351.702C126.751 351.246 127.237 350.898 127.861 350.658C128.497 350.406 129.247 350.28 130.111 350.28C130.759 350.28 131.413 350.352 132.073 350.496C132.733 350.64 133.279 350.844 133.711 351.108L132.847 352.818C132.391 352.542 131.929 352.356 131.461 352.26C131.005 352.152 130.549 352.098 130.093 352.098C129.409 352.098 128.899 352.2 128.563 352.404C128.239 352.608 128.077 352.866 128.077 353.178C128.077 353.466 128.185 353.682 128.401 353.826C128.617 353.97 128.899 354.084 129.247 354.168C129.595 354.252 129.979 354.324 130.399 354.384C130.831 354.432 131.257 354.51 131.677 354.618C132.097 354.726 132.481 354.876 132.829 355.068C133.189 355.248 133.477 355.506 133.693 355.842C133.909 356.178 134.017 356.616 134.017 357.156C134.017 357.756 133.837 358.278 133.477 358.722C133.129 359.166 132.631 359.514 131.983 359.766C131.335 360.006 130.561 360.126 129.661 360.126Z" fill="#505050"/>
<path d="M76.578 404.18C75.594 404.18 74.688 404.024 73.86 403.712C73.044 403.388 72.33 402.938 71.718 402.362C71.106 401.774 70.632 401.084 70.296 400.292C69.96 399.5 69.792 398.636 69.792 397.7C69.792 396.764 69.96 395.9 70.296 395.108C70.632 394.316 71.106 393.632 71.718 393.056C72.342 392.468 73.068 392.018 73.896 391.706C74.724 391.382 75.63 391.22 76.614 391.22C77.682 391.22 78.642 391.394 79.494 391.742C80.358 392.09 81.084 392.6 81.672 393.272L80.196 394.712C79.704 394.22 79.17 393.86 78.594 393.632C78.03 393.392 77.406 393.272 76.722 393.272C76.062 393.272 75.45 393.38 74.886 393.596C74.322 393.812 73.836 394.118 73.428 394.514C73.02 394.91 72.702 395.378 72.474 395.918C72.258 396.458 72.15 397.052 72.15 397.7C72.15 398.336 72.258 398.924 72.474 399.464C72.702 400.004 73.02 400.478 73.428 400.886C73.836 401.282 74.316 401.588 74.868 401.804C75.42 402.02 76.032 402.128 76.704 402.128C77.328 402.128 77.928 402.032 78.504 401.84C79.092 401.636 79.65 401.3 80.178 400.832L81.51 402.578C80.85 403.106 80.082 403.508 79.206 403.784C78.342 404.048 77.466 404.18 76.578 404.18ZM79.296 402.272V397.556H81.51V402.578L79.296 402.272ZM84.3803 404V394.388H86.5223V397.034L86.2703 396.26C86.5583 395.612 87.0083 395.12 87.6203 394.784C88.2443 394.448 89.0183 394.28 89.9423 394.28V396.422C89.8463 396.398 89.7563 396.386 89.6723 396.386C89.5883 396.374 89.5043 396.368 89.4203 396.368C88.5683 396.368 87.8903 396.62 87.3863 397.124C86.8823 397.616 86.6303 398.354 86.6303 399.338V404H84.3803ZM97.0875 404V402.056L96.9615 401.642V398.24C96.9615 397.58 96.7635 397.07 96.3675 396.71C95.9715 396.338 95.3715 396.152 94.5675 396.152C94.0275 396.152 93.4935 396.236 92.9655 396.404C92.4495 396.572 92.0115 396.806 91.6515 397.106L90.7695 395.468C91.2855 395.072 91.8975 394.778 92.6055 394.586C93.3255 394.382 94.0695 394.28 94.8375 394.28C96.2295 394.28 97.3035 394.616 98.0595 395.288C98.8275 395.948 99.2115 396.974 99.2115 398.366V404H97.0875ZM94.0635 404.126C93.3435 404.126 92.7135 404.006 92.1735 403.766C91.6335 403.514 91.2135 403.172 90.9135 402.74C90.6255 402.296 90.4815 401.798 90.4815 401.246C90.4815 400.706 90.6075 400.22 90.8595 399.788C91.1235 399.356 91.5495 399.014 92.1375 398.762C92.7255 398.51 93.5055 398.384 94.4775 398.384H97.2675V399.878H94.6395C93.8715 399.878 93.3555 400.004 93.0915 400.256C92.8275 400.496 92.6955 400.796 92.6955 401.156C92.6955 401.564 92.8575 401.888 93.1815 402.128C93.5055 402.368 93.9555 402.488 94.5315 402.488C95.0835 402.488 95.5755 402.362 96.0075 402.11C96.4515 401.858 96.7695 401.486 96.9615 400.994L97.3395 402.344C97.1235 402.908 96.7335 403.346 96.1695 403.658C95.6175 403.97 94.9155 404.126 94.0635 404.126ZM107.427 404.126C106.647 404.126 105.933 403.946 105.285 403.586C104.649 403.226 104.139 402.686 103.755 401.966C103.383 401.234 103.197 400.31 103.197 399.194C103.197 398.066 103.377 397.142 103.737 396.422C104.109 395.702 104.613 395.168 105.249 394.82C105.885 394.46 106.611 394.28 107.427 394.28C108.375 394.28 109.209 394.484 109.929 394.892C110.661 395.3 111.237 395.87 111.657 396.602C112.089 397.334 112.305 398.198 112.305 399.194C112.305 400.19 112.089 401.06 111.657 401.804C111.237 402.536 110.661 403.106 109.929 403.514C109.209 403.922 108.375 404.126 107.427 404.126ZM102.099 407.492V394.388H104.241V396.656L104.169 399.212L104.349 401.768V407.492H102.099ZM107.175 402.2C107.715 402.2 108.195 402.08 108.615 401.84C109.047 401.6 109.389 401.252 109.641 400.796C109.893 400.34 110.019 399.806 110.019 399.194C110.019 398.57 109.893 398.036 109.641 397.592C109.389 397.136 109.047 396.788 108.615 396.548C108.195 396.308 107.715 396.188 107.175 396.188C106.635 396.188 106.149 396.308 105.717 396.548C105.285 396.788 104.943 397.136 104.691 397.592C104.439 398.036 104.313 398.57 104.313 399.194C104.313 399.806 104.439 400.34 104.691 400.796C104.943 401.252 105.285 401.6 105.717 401.84C106.149 402.08 106.635 402.2 107.175 402.2ZM119.893 394.28C120.661 394.28 121.345 394.43 121.945 394.73C122.557 395.03 123.037 395.492 123.385 396.116C123.733 396.728 123.907 397.52 123.907 398.492V404H121.657V398.78C121.657 397.928 121.453 397.292 121.045 396.872C120.649 396.452 120.091 396.242 119.371 396.242C118.843 396.242 118.375 396.35 117.967 396.566C117.559 396.782 117.241 397.106 117.013 397.538C116.797 397.958 116.689 398.492 116.689 399.14V404H114.439V390.644H116.689V396.98L116.203 396.188C116.539 395.576 117.025 395.108 117.661 394.784C118.309 394.448 119.053 394.28 119.893 394.28ZM126.761 404V394.388H129.011V404H126.761ZM127.895 392.804C127.475 392.804 127.127 392.672 126.851 392.408C126.587 392.144 126.455 391.826 126.455 391.454C126.455 391.07 126.587 390.752 126.851 390.5C127.127 390.236 127.475 390.104 127.895 390.104C128.315 390.104 128.657 390.23 128.921 390.482C129.197 390.722 129.335 391.028 129.335 391.4C129.335 391.796 129.203 392.132 128.939 392.408C128.675 392.672 128.327 392.804 127.895 392.804ZM136.032 404.126C135.108 404.126 134.274 403.922 133.53 403.514C132.798 403.106 132.222 402.536 131.802 401.804C131.382 401.06 131.172 400.19 131.172 399.194C131.172 398.198 131.382 397.334 131.802 396.602C132.222 395.87 132.798 395.3 133.53 394.892C134.274 394.484 135.108 394.28 136.032 394.28C136.86 394.28 137.586 394.46 138.21 394.82C138.846 395.168 139.344 395.702 139.704 396.422C140.076 397.142 140.262 398.066 140.262 399.194C140.262 400.31 140.07 401.234 139.686 401.966C139.314 402.686 138.81 403.226 138.174 403.586C137.538 403.946 136.824 404.126 136.032 404.126ZM136.284 402.2C136.824 402.2 137.31 402.08 137.742 401.84C138.174 401.6 138.516 401.252 138.768 400.796C139.02 400.34 139.146 399.806 139.146 399.194C139.146 398.57 139.02 398.036 138.768 397.592C138.516 397.136 138.174 396.788 137.742 396.548C137.31 396.308 136.824 396.188 136.284 396.188C135.744 396.188 135.258 396.308 134.826 396.548C134.406 396.788 134.07 397.136 133.818 397.592C133.566 398.036 133.44 398.57 133.44 399.194C133.44 399.806 133.566 400.34 133.818 400.796C134.07 401.252 134.406 401.6 134.826 401.84C135.258 402.08 135.744 402.2 136.284 402.2ZM139.11 407.492V401.768L139.29 399.212L139.218 396.656V394.388H141.36V407.492H139.11ZM148.372 404.126C147.556 404.126 146.836 403.976 146.212 403.676C145.588 403.364 145.102 402.896 144.754 402.272C144.406 401.636 144.232 400.838 144.232 399.878V394.388H146.482V399.572C146.482 400.436 146.674 401.084 147.058 401.516C147.454 401.936 148.012 402.146 148.732 402.146C149.26 402.146 149.716 402.038 150.1 401.822C150.496 401.606 150.802 401.282 151.018 400.85C151.246 400.418 151.36 399.884 151.36 399.248V394.388H153.61V404H151.468V401.408L151.846 402.2C151.522 402.824 151.048 403.304 150.424 403.64C149.8 403.964 149.116 404.126 148.372 404.126ZM161.074 404.126C160.006 404.126 159.07 403.916 158.266 403.496C157.474 403.064 156.856 402.476 156.412 401.732C155.98 400.988 155.764 400.142 155.764 399.194C155.764 398.234 155.974 397.388 156.394 396.656C156.826 395.912 157.414 395.33 158.158 394.91C158.914 394.49 159.772 394.28 160.732 394.28C161.668 394.28 162.502 394.484 163.234 394.892C163.966 395.3 164.542 395.876 164.962 396.62C165.382 397.364 165.592 398.24 165.592 399.248C165.592 399.344 165.586 399.452 165.574 399.572C165.574 399.692 165.568 399.806 165.556 399.914H157.546V398.42H164.368L163.486 398.888C163.498 398.336 163.384 397.85 163.144 397.43C162.904 397.01 162.574 396.68 162.154 396.44C161.746 396.2 161.272 396.08 160.732 396.08C160.18 396.08 159.694 396.2 159.274 396.44C158.866 396.68 158.542 397.016 158.302 397.448C158.074 397.868 157.96 398.366 157.96 398.942V399.302C157.96 399.878 158.092 400.388 158.356 400.832C158.62 401.276 158.992 401.618 159.472 401.858C159.952 402.098 160.504 402.218 161.128 402.218C161.668 402.218 162.154 402.134 162.586 401.966C163.018 401.798 163.402 401.534 163.738 401.174L164.944 402.56C164.512 403.064 163.966 403.454 163.306 403.73C162.658 403.994 161.914 404.126 161.074 404.126ZM176.796 404.126C175.872 404.126 175.038 403.922 174.294 403.514C173.562 403.094 172.986 402.518 172.566 401.786C172.146 401.054 171.936 400.19 171.936 399.194C171.936 398.198 172.146 397.334 172.566 396.602C172.986 395.87 173.562 395.3 174.294 394.892C175.038 394.484 175.872 394.28 176.796 394.28C177.6 394.28 178.32 394.46 178.956 394.82C179.592 395.168 180.096 395.702 180.468 396.422C180.84 397.142 181.026 398.066 181.026 399.194C181.026 400.31 180.846 401.234 180.486 401.966C180.126 402.686 179.628 403.226 178.992 403.586C178.356 403.946 177.624 404.126 176.796 404.126ZM177.066 402.2C177.606 402.2 178.086 402.08 178.506 401.84C178.938 401.6 179.28 401.252 179.532 400.796C179.796 400.34 179.928 399.806 179.928 399.194C179.928 398.57 179.796 398.036 179.532 397.592C179.28 397.136 178.938 396.788 178.506 396.548C178.086 396.308 177.606 396.188 177.066 396.188C176.526 396.188 176.04 396.308 175.608 396.548C175.188 396.788 174.846 397.136 174.582 397.592C174.33 398.036 174.204 398.57 174.204 399.194C174.204 399.806 174.33 400.34 174.582 400.796C174.846 401.252 175.188 401.6 175.608 401.84C176.04 402.08 176.526 402.2 177.066 402.2ZM179.982 404V401.732L180.072 399.176L179.892 396.62V390.644H182.124V404H179.982ZM189.603 404.126C188.535 404.126 187.599 403.916 186.795 403.496C186.003 403.064 185.385 402.476 184.941 401.732C184.509 400.988 184.293 400.142 184.293 399.194C184.293 398.234 184.503 397.388 184.923 396.656C185.355 395.912 185.943 395.33 186.687 394.91C187.443 394.49 188.301 394.28 189.261 394.28C190.197 394.28 191.031 394.484 191.763 394.892C192.495 395.3 193.071 395.876 193.491 396.62C193.911 397.364 194.121 398.24 194.121 399.248C194.121 399.344 194.115 399.452 194.103 399.572C194.103 399.692 194.097 399.806 194.085 399.914H186.075V398.42H192.897L192.015 398.888C192.027 398.336 191.913 397.85 191.673 397.43C191.433 397.01 191.103 396.68 190.683 396.44C190.275 396.2 189.801 396.08 189.261 396.08C188.709 396.08 188.223 396.2 187.803 396.44C187.395 396.68 187.071 397.016 186.831 397.448C186.603 397.868 186.489 398.366 186.489 398.942V399.302C186.489 399.878 186.621 400.388 186.885 400.832C187.149 401.276 187.521 401.618 188.001 401.858C188.481 402.098 189.033 402.218 189.657 402.218C190.197 402.218 190.683 402.134 191.115 401.966C191.547 401.798 191.931 401.534 192.267 401.174L193.473 402.56C193.041 403.064 192.495 403.454 191.835 403.73C191.187 403.994 190.443 404.126 189.603 404.126ZM205.325 404.126C204.401 404.126 203.567 403.922 202.823 403.514C202.091 403.094 201.515 402.518 201.095 401.786C200.675 401.054 200.465 400.19 200.465 399.194C200.465 398.198 200.675 397.334 201.095 396.602C201.515 395.87 202.091 395.3 202.823 394.892C203.567 394.484 204.401 394.28 205.325 394.28C206.129 394.28 206.849 394.46 207.485 394.82C208.121 395.168 208.625 395.702 208.997 396.422C209.369 397.142 209.555 398.066 209.555 399.194C209.555 400.31 209.375 401.234 209.015 401.966C208.655 402.686 208.157 403.226 207.521 403.586C206.885 403.946 206.153 404.126 205.325 404.126ZM205.595 402.2C206.135 402.2 206.615 402.08 207.035 401.84C207.467 401.6 207.809 401.252 208.061 400.796C208.325 400.34 208.457 399.806 208.457 399.194C208.457 398.57 208.325 398.036 208.061 397.592C207.809 397.136 207.467 396.788 207.035 396.548C206.615 396.308 206.135 396.188 205.595 396.188C205.055 396.188 204.569 396.308 204.137 396.548C203.717 396.788 203.375 397.136 203.111 397.592C202.859 398.036 202.733 398.57 202.733 399.194C202.733 399.806 202.859 400.34 203.111 400.796C203.375 401.252 203.717 401.6 204.137 401.84C204.569 402.08 205.055 402.2 205.595 402.2ZM208.511 404V401.732L208.601 399.176L208.421 396.62V390.644H210.653V404H208.511ZM217.935 404.126C216.951 404.126 216.075 403.916 215.307 403.496C214.539 403.064 213.933 402.476 213.489 401.732C213.045 400.988 212.823 400.142 212.823 399.194C212.823 398.234 213.045 397.388 213.489 396.656C213.933 395.912 214.539 395.33 215.307 394.91C216.075 394.49 216.951 394.28 217.935 394.28C218.931 394.28 219.813 394.49 220.581 394.91C221.361 395.33 221.967 395.906 222.399 396.638C222.843 397.37 223.065 398.222 223.065 399.194C223.065 400.142 222.843 400.988 222.399 401.732C221.967 402.476 221.361 403.064 220.581 403.496C219.813 403.916 218.931 404.126 217.935 404.126ZM217.935 402.2C218.487 402.2 218.979 402.08 219.411 401.84C219.843 401.6 220.179 401.252 220.419 400.796C220.671 400.34 220.797 399.806 220.797 399.194C220.797 398.57 220.671 398.036 220.419 397.592C220.179 397.136 219.843 396.788 219.411 396.548C218.979 396.308 218.493 396.188 217.953 396.188C217.401 396.188 216.909 396.308 216.477 396.548C216.057 396.788 215.721 397.136 215.469 397.592C215.217 398.036 215.091 398.57 215.091 399.194C215.091 399.806 215.217 400.34 215.469 400.796C215.721 401.252 216.057 401.6 216.477 401.84C216.909 402.08 217.395 402.2 217.935 402.2ZM230.67 394.28C231.438 394.28 232.122 394.43 232.722 394.73C233.334 395.03 233.814 395.492 234.162 396.116C234.51 396.728 234.684 397.52 234.684 398.492V404H232.434V398.78C232.434 397.928 232.23 397.292 231.822 396.872C231.426 396.452 230.868 396.242 230.148 396.242C229.62 396.242 229.152 396.35 228.744 396.566C228.336 396.782 228.018 397.106 227.79 397.538C227.574 397.958 227.466 398.492 227.466 399.14V404H225.216V394.388H227.358V396.98L226.98 396.188C227.316 395.576 227.802 395.108 228.438 394.784C229.086 394.448 229.83 394.28 230.67 394.28ZM242.993 394.28C243.761 394.28 244.445 394.43 245.045 394.73C245.657 395.03 246.137 395.492 246.485 396.116C246.833 396.728 247.007 397.52 247.007 398.492V404H244.757V398.78C244.757 397.928 244.553 397.292 244.145 396.872C243.749 396.452 243.191 396.242 242.471 396.242C241.943 396.242 241.475 396.35 241.067 396.566C240.659 396.782 240.341 397.106 240.113 397.538C239.897 397.958 239.789 398.492 239.789 399.14V404H237.539V394.388H239.681V396.98L239.303 396.188C239.639 395.576 240.125 395.108 240.761 394.784C241.409 394.448 242.153 394.28 242.993 394.28ZM254.396 404.126C253.328 404.126 252.392 403.916 251.588 403.496C250.796 403.064 250.178 402.476 249.734 401.732C249.302 400.988 249.086 400.142 249.086 399.194C249.086 398.234 249.296 397.388 249.716 396.656C250.148 395.912 250.736 395.33 251.48 394.91C252.236 394.49 253.094 394.28 254.054 394.28C254.99 394.28 255.824 394.484 256.556 394.892C257.288 395.3 257.864 395.876 258.284 396.62C258.704 397.364 258.914 398.24 258.914 399.248C258.914 399.344 258.908 399.452 258.896 399.572C258.896 399.692 258.89 399.806 258.878 399.914H250.868V398.42H257.69L256.808 398.888C256.82 398.336 256.706 397.85 256.466 397.43C256.226 397.01 255.896 396.68 255.476 396.44C255.068 396.2 254.594 396.08 254.054 396.08C253.502 396.08 253.016 396.2 252.596 396.44C252.188 396.68 251.864 397.016 251.624 397.448C251.396 397.868 251.282 398.366 251.282 398.942V399.302C251.282 399.878 251.414 400.388 251.678 400.832C251.942 401.276 252.314 401.618 252.794 401.858C253.274 402.098 253.826 402.218 254.45 402.218C254.99 402.218 255.476 402.134 255.908 401.966C256.34 401.798 256.724 401.534 257.06 401.174L258.266 402.56C257.834 403.064 257.288 403.454 256.628 403.73C255.98 403.994 255.236 404.126 254.396 404.126ZM252.488 393.074L254.918 390.608H257.564L254.432 393.074H252.488ZM265.594 404.126C264.526 404.126 263.59 403.916 262.786 403.496C261.994 403.064 261.376 402.476 260.932 401.732C260.5 400.988 260.284 400.142 260.284 399.194C260.284 398.234 260.494 397.388 260.914 396.656C261.346 395.912 261.934 395.33 262.678 394.91C263.434 394.49 264.292 394.28 265.252 394.28C266.188 394.28 267.022 394.484 267.754 394.892C268.486 395.3 269.062 395.876 269.482 396.62C269.902 397.364 270.112 398.24 270.112 399.248C270.112 399.344 270.106 399.452 270.094 399.572C270.094 399.692 270.088 399.806 270.076 399.914H262.066V398.42H268.888L268.006 398.888C268.018 398.336 267.904 397.85 267.664 397.43C267.424 397.01 267.094 396.68 266.674 396.44C266.266 396.2 265.792 396.08 265.252 396.08C264.7 396.08 264.214 396.2 263.794 396.44C263.386 396.68 263.062 397.016 262.822 397.448C262.594 397.868 262.48 398.366 262.48 398.942V399.302C262.48 399.878 262.612 400.388 262.876 400.832C263.14 401.276 263.512 401.618 263.992 401.858C264.472 402.098 265.024 402.218 265.648 402.218C266.188 402.218 266.674 402.134 267.106 401.966C267.538 401.798 267.922 401.534 268.258 401.174L269.464 402.56C269.032 403.064 268.486 403.454 267.826 403.73C267.178 403.994 266.434 404.126 265.594 404.126ZM275.243 404.126C274.439 404.126 273.665 404.024 272.921 403.82C272.189 403.604 271.607 403.346 271.175 403.046L272.039 401.336C272.471 401.612 272.987 401.84 273.587 402.02C274.187 402.2 274.787 402.29 275.387 402.29C276.095 402.29 276.605 402.194 276.917 402.002C277.241 401.81 277.403 401.552 277.403 401.228C277.403 400.964 277.295 400.766 277.079 400.634C276.863 400.49 276.581 400.382 276.233 400.31C275.885 400.238 275.495 400.172 275.063 400.112C274.643 400.052 274.217 399.974 273.785 399.878C273.365 399.77 272.981 399.62 272.633 399.428C272.285 399.224 272.003 398.954 271.787 398.618C271.571 398.282 271.463 397.838 271.463 397.286C271.463 396.674 271.637 396.146 271.985 395.702C272.333 395.246 272.819 394.898 273.443 394.658C274.079 394.406 274.829 394.28 275.693 394.28C276.341 394.28 276.995 394.352 277.655 394.496C278.315 394.64 278.861 394.844 279.293 395.108L278.429 396.818C277.973 396.542 277.511 396.356 277.043 396.26C276.587 396.152 276.131 396.098 275.675 396.098C274.991 396.098 274.481 396.2 274.145 396.404C273.821 396.608 273.659 396.866 273.659 397.178C273.659 397.466 273.767 397.682 273.983 397.826C274.199 397.97 274.481 398.084 274.829 398.168C275.177 398.252 275.561 398.324 275.981 398.384C276.413 398.432 276.839 398.51 277.259 398.618C277.679 398.726 278.063 398.876 278.411 399.068C278.771 399.248 279.059 399.506 279.275 399.842C279.491 400.178 279.599 400.616 279.599 401.156C279.599 401.756 279.419 402.278 279.059 402.722C278.711 403.166 278.213 403.514 277.565 403.766C276.917 404.006 276.143 404.126 275.243 404.126Z" fill="#505050"/>
<path d="M31.256 254V237.2H34.376V254H31.256ZM45.9041 241.04C46.9281 241.04 47.8401 241.24 48.6401 241.64C49.4561 242.04 50.0961 242.656 50.5601 243.488C51.0241 244.304 51.2561 245.36 51.2561 246.656V254H48.2561V247.04C48.2561 245.904 47.9841 245.056 47.4401 244.496C46.9121 243.936 46.1681 243.656 45.2081 243.656C44.5041 243.656 43.8801 243.8 43.3361 244.088C42.7921 244.376 42.3681 244.808 42.0641 245.384C41.7761 245.944 41.6321 246.656 41.6321 247.52V254H38.6321V241.184H41.4881V244.64L40.9841 243.584C41.4321 242.768 42.0801 242.144 42.9281 241.712C43.7921 241.264 44.7841 241.04 45.9041 241.04ZM60.9652 254.168C59.6212 254.168 58.4212 253.888 57.3652 253.328C56.3252 252.752 55.5092 251.968 54.9172 250.976C54.3252 249.984 54.0292 248.856 54.0292 247.592C54.0292 246.312 54.3252 245.184 54.9172 244.208C55.5092 243.216 56.3252 242.44 57.3652 241.88C58.4212 241.32 59.6212 241.04 60.9652 241.04C62.2132 241.04 63.3092 241.296 64.2532 241.808C65.2132 242.304 65.9412 243.04 66.4372 244.016L64.1332 245.36C63.7492 244.752 63.2772 244.304 62.7172 244.016C62.1732 243.728 61.5812 243.584 60.9412 243.584C60.2052 243.584 59.5412 243.744 58.9492 244.064C58.3572 244.384 57.8932 244.848 57.5572 245.456C57.2212 246.048 57.0532 246.76 57.0532 247.592C57.0532 248.424 57.2212 249.144 57.5572 249.752C57.8932 250.344 58.3572 250.8 58.9492 251.12C59.5412 251.44 60.2052 251.6 60.9412 251.6C61.5812 251.6 62.1732 251.456 62.7172 251.168C63.2772 250.88 63.7492 250.432 64.1332 249.824L66.4372 251.168C65.9412 252.128 65.2132 252.872 64.2532 253.4C63.3092 253.912 62.2132 254.168 60.9652 254.168ZM68.9133 254V236.192H71.9133V254H68.9133ZM81.2748 254.168C80.1868 254.168 79.2268 253.968 78.3948 253.568C77.5628 253.152 76.9148 252.528 76.4508 251.696C75.9868 250.848 75.7548 249.784 75.7548 248.504V241.184H78.7548V248.096C78.7548 249.248 79.0108 250.112 79.5228 250.688C80.0508 251.248 80.7948 251.528 81.7548 251.528C82.4588 251.528 83.0668 251.384 83.5788 251.096C84.1068 250.808 84.5148 250.376 84.8028 249.8C85.1068 249.224 85.2588 248.512 85.2588 247.664V241.184H88.2588V254H85.4028V250.544L85.9068 251.6C85.4748 252.432 84.8428 253.072 84.0108 253.52C83.1788 253.952 82.2668 254.168 81.2748 254.168ZM96.1468 254.168C95.0748 254.168 94.0428 254.032 93.0508 253.76C92.0748 253.472 91.2988 253.128 90.7228 252.728L91.8748 250.448C92.4508 250.816 93.1388 251.12 93.9388 251.36C94.7388 251.6 95.5388 251.72 96.3388 251.72C97.2828 251.72 97.9628 251.592 98.3788 251.336C98.8108 251.08 99.0268 250.736 99.0268 250.304C99.0268 249.952 98.8828 249.688 98.5948 249.512C98.3068 249.32 97.9308 249.176 97.4668 249.08C97.0028 248.984 96.4828 248.896 95.9068 248.816C95.3468 248.736 94.7788 248.632 94.2028 248.504C93.6428 248.36 93.1308 248.16 92.6668 247.904C92.2028 247.632 91.8268 247.272 91.5388 246.824C91.2508 246.376 91.1068 245.784 91.1068 245.048C91.1068 244.232 91.3388 243.528 91.8027 242.936C92.2668 242.328 92.9148 241.864 93.7467 241.544C94.5948 241.208 95.5948 241.04 96.7468 241.04C97.6108 241.04 98.4828 241.136 99.3628 241.328C100.243 241.52 100.971 241.792 101.547 242.144L100.395 244.424C99.7868 244.056 99.1708 243.808 98.5468 243.68C97.9388 243.536 97.3308 243.464 96.7228 243.464C95.8108 243.464 95.1308 243.6 94.6828 243.872C94.2508 244.144 94.0348 244.488 94.0348 244.904C94.0348 245.288 94.1788 245.576 94.4668 245.768C94.7548 245.96 95.1308 246.112 95.5948 246.224C96.0588 246.336 96.5708 246.432 97.1308 246.512C97.7068 246.576 98.2748 246.68 98.8348 246.824C99.3948 246.968 99.9068 247.168 100.371 247.424C100.851 247.664 101.235 248.008 101.523 248.456C101.811 248.904 101.955 249.488 101.955 250.208C101.955 251.008 101.715 251.704 101.235 252.296C100.771 252.888 100.107 253.352 99.2428 253.688C98.3788 254.008 97.3468 254.168 96.1468 254.168Z" fill="#505050"/>
<path d="M54.3333 300L38.2917 316.042L31 308.75" stroke="#97E174" stroke-width="3" stroke-linecap="round" stroke-linejoin="round"/>
<path d="M52.3333 344L36.2917 360.042L29 352.75" stroke="#97E174" stroke-width="3" stroke-linecap="round" stroke-linejoin="round"/>
<path d="M52.3333 388L36.2917 404.042L29 396.75" stroke="#97E174" stroke-width="3" stroke-linecap="round" stroke-linejoin="round"/>
<path d="M32.692 111V98.4H37.876C38.992 98.4 39.946 98.58 40.738 98.94C41.542 99.3 42.16 99.816 42.592 100.488C43.024 101.16 43.24 101.958 43.24 102.882C43.24 103.806 43.024 104.604 42.592 105.276C42.16 105.948 41.542 106.464 40.738 106.824C39.946 107.184 38.992 107.364 37.876 107.364H33.988L35.032 106.266V111H32.692ZM35.032 106.518L33.988 105.384H37.768C38.8 105.384 39.574 105.168 40.09 104.736C40.618 104.292 40.882 103.674 40.882 102.882C40.882 102.078 40.618 101.46 40.09 101.028C39.574 100.596 38.8 100.38 37.768 100.38H33.988L35.032 99.228V106.518ZM49.6456 111.126C48.6616 111.126 47.7856 110.916 47.0176 110.496C46.2496 110.064 45.6436 109.476 45.1996 108.732C44.7556 107.988 44.5336 107.142 44.5336 106.194C44.5336 105.234 44.7556 104.388 45.1996 103.656C45.6436 102.912 46.2496 102.33 47.0176 101.91C47.7856 101.49 48.6616 101.28 49.6456 101.28C50.6416 101.28 51.5236 101.49 52.2916 101.91C53.0716 102.33 53.6776 102.906 54.1096 103.638C54.5536 104.37 54.7756 105.222 54.7756 106.194C54.7756 107.142 54.5536 107.988 54.1096 108.732C53.6776 109.476 53.0716 110.064 52.2916 110.496C51.5236 110.916 50.6416 111.126 49.6456 111.126ZM49.6456 109.2C50.1976 109.2 50.6896 109.08 51.1216 108.84C51.5536 108.6 51.8896 108.252 52.1296 107.796C52.3816 107.34 52.5076 106.806 52.5076 106.194C52.5076 105.57 52.3816 105.036 52.1296 104.592C51.8896 104.136 51.5536 103.788 51.1216 103.548C50.6896 103.308 50.2036 103.188 49.6636 103.188C49.1116 103.188 48.6196 103.308 48.1876 103.548C47.7676 103.788 47.4316 104.136 47.1796 104.592C46.9276 105.036 46.8016 105.57 46.8016 106.194C46.8016 106.806 46.9276 107.34 47.1796 107.796C47.4316 108.252 47.7676 108.6 48.1876 108.84C48.6196 109.08 49.1056 109.2 49.6456 109.2ZM60.9952 111.126C60.1792 111.126 59.4592 110.976 58.8352 110.676C58.2112 110.364 57.7252 109.896 57.3772 109.272C57.0292 108.636 56.8552 107.838 56.8552 106.878V101.388H59.1052V106.572C59.1052 107.436 59.2972 108.084 59.6812 108.516C60.0772 108.936 60.6352 109.146 61.3552 109.146C61.8832 109.146 62.3392 109.038 62.7232 108.822C63.1192 108.606 63.4252 108.282 63.6412 107.85C63.8692 107.418 63.9832 106.884 63.9832 106.248V101.388H66.2332V111H64.0912V108.408L64.4692 109.2C64.1452 109.824 63.6712 110.304 63.0472 110.64C62.4232 110.964 61.7392 111.126 60.9952 111.126ZM69.1791 111V101.388H71.3211V104.034L71.0691 103.26C71.3571 102.612 71.8071 102.12 72.4191 101.784C73.0431 101.448 73.8171 101.28 74.7411 101.28V103.422C74.6451 103.398 74.5551 103.386 74.4711 103.386C74.3871 103.374 74.3031 103.368 74.2191 103.368C73.3671 103.368 72.6891 103.62 72.1851 104.124C71.6811 104.616 71.4291 105.354 71.4291 106.338V111H69.1791ZM81.7123 111V97.644H83.9623V111H81.7123ZM91.4335 111.126C90.3655 111.126 89.4295 110.916 88.6255 110.496C87.8335 110.064 87.2155 109.476 86.7715 108.732C86.3395 107.988 86.1235 107.142 86.1235 106.194C86.1235 105.234 86.3335 104.388 86.7535 103.656C87.1855 102.912 87.7735 102.33 88.5175 101.91C89.2735 101.49 90.1315 101.28 91.0915 101.28C92.0275 101.28 92.8615 101.484 93.5935 101.892C94.3255 102.3 94.9015 102.876 95.3215 103.62C95.7415 104.364 95.9515 105.24 95.9515 106.248C95.9515 106.344 95.9455 106.452 95.9335 106.572C95.9335 106.692 95.9275 106.806 95.9155 106.914H87.9055V105.42H94.7275L93.8455 105.888C93.8575 105.336 93.7435 104.85 93.5035 104.43C93.2635 104.01 92.9335 103.68 92.5135 103.44C92.1055 103.2 91.6315 103.08 91.0915 103.08C90.5395 103.08 90.0535 103.2 89.6335 103.44C89.2255 103.68 88.9015 104.016 88.6615 104.448C88.4335 104.868 88.3195 105.366 88.3195 105.942V106.302C88.3195 106.878 88.4515 107.388 88.7155 107.832C88.9795 108.276 89.3515 108.618 89.8315 108.858C90.3115 109.098 90.8635 109.218 91.4875 109.218C92.0275 109.218 92.5135 109.134 92.9455 108.966C93.3775 108.798 93.7615 108.534 94.0975 108.174L95.3035 109.56C94.8715 110.064 94.3255 110.454 93.6655 110.73C93.0175 110.994 92.2735 111.126 91.4335 111.126ZM101.083 111.126C100.279 111.126 99.5047 111.024 98.7607 110.82C98.0287 110.604 97.4467 110.346 97.0147 110.046L97.8787 108.336C98.3107 108.612 98.8267 108.84 99.4267 109.02C100.027 109.2 100.627 109.29 101.227 109.29C101.935 109.29 102.445 109.194 102.757 109.002C103.081 108.81 103.243 108.552 103.243 108.228C103.243 107.964 103.135 107.766 102.919 107.634C102.703 107.49 102.421 107.382 102.073 107.31C101.725 107.238 101.335 107.172 100.903 107.112C100.483 107.052 100.057 106.974 99.6247 106.878C99.2047 106.77 98.8207 106.62 98.4727 106.428C98.1247 106.224 97.8427 105.954 97.6267 105.618C97.4107 105.282 97.3027 104.838 97.3027 104.286C97.3027 103.674 97.4767 103.146 97.8247 102.702C98.1727 102.246 98.6587 101.898 99.2827 101.658C99.9187 101.406 100.669 101.28 101.533 101.28C102.181 101.28 102.835 101.352 103.495 101.496C104.155 101.64 104.701 101.844 105.133 102.108L104.269 103.818C103.813 103.542 103.351 103.356 102.883 103.26C102.427 103.152 101.971 103.098 101.515 103.098C100.831 103.098 100.321 103.2 99.9847 103.404C99.6607 103.608 99.4987 103.866 99.4987 104.178C99.4987 104.466 99.6067 104.682 99.8227 104.826C100.039 104.97 100.321 105.084 100.669 105.168C101.017 105.252 101.401 105.324 101.821 105.384C102.253 105.432 102.679 105.51 103.099 105.618C103.519 105.726 103.903 105.876 104.251 106.068C104.611 106.248 104.899 106.506 105.115 106.842C105.331 107.178 105.439 107.616 105.439 108.156C105.439 108.756 105.259 109.278 104.899 109.722C104.551 110.166 104.053 110.514 103.405 110.766C102.757 111.006 101.983 111.126 101.083 111.126ZM117.679 111.126C116.899 111.126 116.185 110.946 115.537 110.586C114.901 110.226 114.391 109.686 114.007 108.966C113.635 108.234 113.449 107.31 113.449 106.194C113.449 105.066 113.629 104.142 113.989 103.422C114.361 102.702 114.865 102.168 115.501 101.82C116.137 101.46 116.863 101.28 117.679 101.28C118.627 101.28 119.461 101.484 120.181 101.892C120.913 102.3 121.489 102.87 121.909 103.602C122.341 104.334 122.557 105.198 122.557 106.194C122.557 107.19 122.341 108.06 121.909 108.804C121.489 109.536 120.913 110.106 120.181 110.514C119.461 110.922 118.627 111.126 117.679 111.126ZM112.351 114.492V101.388H114.493V103.656L114.421 106.212L114.601 108.768V114.492H112.351ZM117.427 109.2C117.967 109.2 118.447 109.08 118.867 108.84C119.299 108.6 119.641 108.252 119.893 107.796C120.145 107.34 120.271 106.806 120.271 106.194C120.271 105.57 120.145 105.036 119.893 104.592C119.641 104.136 119.299 103.788 118.867 103.548C118.447 103.308 117.967 103.188 117.427 103.188C116.887 103.188 116.401 103.308 115.969 103.548C115.537 103.788 115.195 104.136 114.943 104.592C114.691 105.036 114.565 105.57 114.565 106.194C114.565 106.806 114.691 107.34 114.943 107.796C115.195 108.252 115.537 108.6 115.969 108.84C116.401 109.08 116.887 109.2 117.427 109.2ZM124.691 111V101.388H126.833V104.034L126.581 103.26C126.869 102.612 127.319 102.12 127.931 101.784C128.555 101.448 129.329 101.28 130.253 101.28V103.422C130.157 103.398 130.067 103.386 129.983 103.386C129.899 103.374 129.815 103.368 129.731 103.368C128.879 103.368 128.201 103.62 127.697 104.124C127.193 104.616 126.941 105.354 126.941 106.338V111H124.691ZM136.394 111.126C135.41 111.126 134.534 110.916 133.766 110.496C132.998 110.064 132.392 109.476 131.948 108.732C131.504 107.988 131.282 107.142 131.282 106.194C131.282 105.234 131.504 104.388 131.948 103.656C132.392 102.912 132.998 102.33 133.766 101.91C134.534 101.49 135.41 101.28 136.394 101.28C137.39 101.28 138.272 101.49 139.04 101.91C139.82 102.33 140.426 102.906 140.858 103.638C141.302 104.37 141.524 105.222 141.524 106.194C141.524 107.142 141.302 107.988 140.858 108.732C140.426 109.476 139.82 110.064 139.04 110.496C138.272 110.916 137.39 111.126 136.394 111.126ZM136.394 109.2C136.946 109.2 137.438 109.08 137.87 108.84C138.302 108.6 138.638 108.252 138.878 107.796C139.13 107.34 139.256 106.806 139.256 106.194C139.256 105.57 139.13 105.036 138.878 104.592C138.638 104.136 138.302 103.788 137.87 103.548C137.438 103.308 136.952 103.188 136.412 103.188C135.86 103.188 135.368 103.308 134.936 103.548C134.516 103.788 134.18 104.136 133.928 104.592C133.676 105.036 133.55 105.57 133.55 106.194C133.55 106.806 133.676 107.34 133.928 107.796C134.18 108.252 134.516 108.6 134.936 108.84C135.368 109.08 135.854 109.2 136.394 109.2ZM148.085 111.126C147.077 111.126 146.177 110.916 145.385 110.496C144.605 110.064 143.993 109.476 143.549 108.732C143.105 107.988 142.883 107.142 142.883 106.194C142.883 105.234 143.105 104.388 143.549 103.656C143.993 102.912 144.605 102.33 145.385 101.91C146.177 101.49 147.077 101.28 148.085 101.28C149.021 101.28 149.843 101.472 150.551 101.856C151.271 102.228 151.817 102.78 152.189 103.512L150.461 104.52C150.173 104.064 149.819 103.728 149.399 103.512C148.991 103.296 148.547 103.188 148.067 103.188C147.515 103.188 147.017 103.308 146.573 103.548C146.129 103.788 145.781 104.136 145.529 104.592C145.277 105.036 145.151 105.57 145.151 106.194C145.151 106.818 145.277 107.358 145.529 107.814C145.781 108.258 146.129 108.6 146.573 108.84C147.017 109.08 147.515 109.2 148.067 109.2C148.547 109.2 148.991 109.092 149.399 108.876C149.819 108.66 150.173 108.324 150.461 107.868L152.189 108.876C151.817 109.596 151.271 110.154 150.551 110.55C149.843 110.934 149.021 111.126 148.085 111.126ZM159.5 101.28C160.268 101.28 160.952 101.43 161.552 101.73C162.164 102.03 162.644 102.492 162.992 103.116C163.34 103.728 163.514 104.52 163.514 105.492V111H161.264V105.78C161.264 104.928 161.06 104.292 160.652 103.872C160.256 103.452 159.698 103.242 158.978 103.242C158.45 103.242 157.982 103.35 157.574 103.566C157.166 103.782 156.848 104.106 156.62 104.538C156.404 104.958 156.296 105.492 156.296 106.14V111H154.046V97.644H156.296V103.98L155.81 103.188C156.146 102.576 156.632 102.108 157.268 101.784C157.916 101.448 158.66 101.28 159.5 101.28ZM170.904 111.126C169.836 111.126 168.9 110.916 168.096 110.496C167.304 110.064 166.686 109.476 166.242 108.732C165.81 107.988 165.594 107.142 165.594 106.194C165.594 105.234 165.804 104.388 166.224 103.656C166.656 102.912 167.244 102.33 167.988 101.91C168.744 101.49 169.602 101.28 170.562 101.28C171.498 101.28 172.332 101.484 173.064 101.892C173.796 102.3 174.372 102.876 174.792 103.62C175.212 104.364 175.422 105.24 175.422 106.248C175.422 106.344 175.416 106.452 175.404 106.572C175.404 106.692 175.398 106.806 175.386 106.914H167.376V105.42H174.198L173.316 105.888C173.328 105.336 173.214 104.85 172.974 104.43C172.734 104.01 172.404 103.68 171.984 103.44C171.576 103.2 171.102 103.08 170.562 103.08C170.01 103.08 169.524 103.2 169.104 103.44C168.696 103.68 168.372 104.016 168.132 104.448C167.904 104.868 167.79 105.366 167.79 105.942V106.302C167.79 106.878 167.922 107.388 168.186 107.832C168.45 108.276 168.822 108.618 169.302 108.858C169.782 109.098 170.334 109.218 170.958 109.218C171.498 109.218 171.984 109.134 172.416 108.966C172.848 108.798 173.232 108.534 173.568 108.174L174.774 109.56C174.342 110.064 173.796 110.454 173.136 110.73C172.488 110.994 171.744 111.126 170.904 111.126ZM180.553 111.126C179.749 111.126 178.975 111.024 178.231 110.82C177.499 110.604 176.917 110.346 176.485 110.046L177.349 108.336C177.781 108.612 178.297 108.84 178.897 109.02C179.497 109.2 180.097 109.29 180.697 109.29C181.405 109.29 181.915 109.194 182.227 109.002C182.551 108.81 182.713 108.552 182.713 108.228C182.713 107.964 182.605 107.766 182.389 107.634C182.173 107.49 181.891 107.382 181.543 107.31C181.195 107.238 180.805 107.172 180.373 107.112C179.953 107.052 179.527 106.974 179.095 106.878C178.675 106.77 178.291 106.62 177.943 106.428C177.595 106.224 177.313 105.954 177.097 105.618C176.881 105.282 176.773 104.838 176.773 104.286C176.773 103.674 176.947 103.146 177.295 102.702C177.643 102.246 178.129 101.898 178.753 101.658C179.389 101.406 180.139 101.28 181.003 101.28C181.651 101.28 182.305 101.352 182.965 101.496C183.625 101.64 184.171 101.844 184.603 102.108L183.739 103.818C183.283 103.542 182.821 103.356 182.353 103.26C181.897 103.152 181.441 103.098 180.985 103.098C180.301 103.098 179.791 103.2 179.455 103.404C179.131 103.608 178.969 103.866 178.969 104.178C178.969 104.466 179.077 104.682 179.293 104.826C179.509 104.97 179.791 105.084 180.139 105.168C180.487 105.252 180.871 105.324 181.291 105.384C181.723 105.432 182.149 105.51 182.569 105.618C182.989 105.726 183.373 105.876 183.721 106.068C184.081 106.248 184.369 106.506 184.585 106.842C184.801 107.178 184.909 107.616 184.909 108.156C184.909 108.756 184.729 109.278 184.369 109.722C184.021 110.166 183.523 110.514 182.875 110.766C182.227 111.006 181.453 111.126 180.553 111.126Z" fill="#56B5CB"/>
<path d="M32.071 58V32.1H43.282C45.6007 32.1 47.5987 32.4823 49.276 33.247C50.9533 33.987 52.2483 35.06 53.161 36.466C54.0737 37.872 54.53 39.5493 54.53 41.498C54.53 43.422 54.0737 45.087 53.161 46.493C52.2483 47.8743 50.9533 48.935 49.276 49.675C47.5987 50.415 45.6007 50.785 43.282 50.785H35.401L38.065 48.158V58H32.071ZM48.536 58L42.061 48.602H48.462L55.011 58H48.536ZM38.065 48.824L35.401 46.012H42.949C44.799 46.012 46.1803 45.6173 47.093 44.828C48.0057 44.014 48.462 42.904 48.462 41.498C48.462 40.0673 48.0057 38.9573 47.093 38.168C46.1803 37.3787 44.799 36.984 42.949 36.984H35.401L38.065 34.135V48.824ZM68.751 58.296C66.4817 58.296 64.4837 57.852 62.757 56.964C61.055 56.076 59.7353 54.8673 58.798 53.338C57.8607 51.784 57.392 50.0203 57.392 48.047C57.392 46.049 57.8483 44.2853 58.761 42.756C59.6983 41.202 60.9687 39.9933 62.572 39.13C64.1753 38.242 65.9883 37.798 68.011 37.798C69.9597 37.798 71.711 38.2173 73.265 39.056C74.8437 39.87 76.0893 41.054 77.002 42.608C77.9147 44.1373 78.371 45.975 78.371 48.121C78.371 48.343 78.3587 48.602 78.334 48.898C78.3093 49.1693 78.2847 49.4283 78.26 49.675H62.091V46.308H75.226L73.006 47.307C73.006 46.271 72.7963 45.3707 72.377 44.606C71.9577 43.8413 71.378 43.2493 70.638 42.83C69.898 42.386 69.0347 42.164 68.048 42.164C67.0613 42.164 66.1857 42.386 65.421 42.83C64.681 43.2493 64.1013 43.8537 63.682 44.643C63.2627 45.4077 63.053 46.3203 63.053 47.381V48.269C63.053 49.3543 63.2873 50.3163 63.756 51.155C64.2493 51.969 64.9277 52.598 65.791 53.042C66.679 53.4613 67.715 53.671 68.899 53.671C69.9597 53.671 70.8847 53.5107 71.674 53.19C72.488 52.8693 73.228 52.3883 73.894 51.747L76.965 55.077C76.0523 56.113 74.9053 56.9147 73.524 57.482C72.1427 58.0247 70.5517 58.296 68.751 58.296ZM64.533 35.541L69.528 30.213H75.744L69.047 35.541H64.533ZM82.9168 58V37.65C82.9168 35.4053 83.5828 33.617 84.9148 32.285C86.2468 30.9283 88.1461 30.25 90.6128 30.25C91.4515 30.25 92.2531 30.3363 93.0178 30.509C93.8071 30.6817 94.4731 30.953 95.0158 31.323L93.4988 35.504C93.1781 35.282 92.8205 35.1093 92.4258 34.986C92.0311 34.8627 91.6118 34.801 91.1678 34.801C90.3291 34.801 89.6755 35.0477 89.2068 35.541C88.7628 36.0097 88.5408 36.725 88.5408 37.687V39.537L88.6888 42.016V58H82.9168ZM79.8458 42.978V38.538H93.6468V42.978H79.8458ZM106.148 58.296C103.879 58.296 101.881 57.852 100.154 56.964C98.4525 56.076 97.1328 54.8673 96.1955 53.338C95.2581 51.784 94.7895 50.0203 94.7895 48.047C94.7895 46.049 95.2458 44.2853 96.1585 42.756C97.0958 41.202 98.3661 39.9933 99.9695 39.13C101.573 38.242 103.386 37.798 105.408 37.798C107.357 37.798 109.108 38.2173 110.662 39.056C112.241 39.87 113.487 41.054 114.399 42.608C115.312 44.1373 115.768 45.975 115.768 48.121C115.768 48.343 115.756 48.602 115.731 48.898C115.707 49.1693 115.682 49.4283 115.657 49.675H99.4885V46.308H112.623L110.403 47.307C110.403 46.271 110.194 45.3707 109.774 44.606C109.355 43.8413 108.775 43.2493 108.035 42.83C107.295 42.386 106.432 42.164 105.445 42.164C104.459 42.164 103.583 42.386 102.818 42.83C102.078 43.2493 101.499 43.8537 101.079 44.643C100.66 45.4077 100.45 46.3203 100.45 47.381V48.269C100.45 49.3543 100.685 50.3163 101.153 51.155C101.647 51.969 102.325 52.598 103.188 53.042C104.076 53.4613 105.112 53.671 106.296 53.671C107.357 53.671 108.282 53.5107 109.071 53.19C109.885 52.8693 110.625 52.3883 111.291 51.747L114.362 55.077C113.45 56.113 112.303 56.9147 110.921 57.482C109.54 58.0247 107.949 58.296 106.148 58.296ZM101.93 35.541L106.925 30.213H113.141L106.444 35.541H101.93ZM119.611 58V38.094H125.124V43.718L124.347 42.09C124.939 40.684 125.889 39.6233 127.196 38.908C128.504 38.168 130.095 37.798 131.969 37.798V43.126C131.723 43.1013 131.501 43.089 131.303 43.089C131.106 43.0643 130.896 43.052 130.674 43.052C129.096 43.052 127.813 43.5083 126.826 44.421C125.864 45.309 125.383 46.7027 125.383 48.602V58H119.611ZM145.136 58.296C142.866 58.296 140.868 57.852 139.142 56.964C137.44 56.076 136.12 54.8673 135.183 53.338C134.245 51.784 133.777 50.0203 133.777 48.047C133.777 46.049 134.233 44.2853 135.146 42.756C136.083 41.202 137.353 39.9933 138.957 39.13C140.56 38.242 142.373 37.798 144.396 37.798C146.344 37.798 148.096 38.2173 149.65 39.056C151.228 39.87 152.474 41.054 153.387 42.608C154.299 44.1373 154.756 45.975 154.756 48.121C154.756 48.343 154.743 48.602 154.719 48.898C154.694 49.1693 154.669 49.4283 154.645 49.675H138.476V46.308H151.611L149.391 47.307C149.391 46.271 149.181 45.3707 148.762 44.606C148.342 43.8413 147.763 43.2493 147.023 42.83C146.283 42.386 145.419 42.164 144.433 42.164C143.446 42.164 142.57 42.386 141.806 42.83C141.066 43.2493 140.486 43.8537 140.067 44.643C139.647 45.4077 139.438 46.3203 139.438 47.381V48.269C139.438 49.3543 139.672 50.3163 140.141 51.155C140.634 51.969 141.312 52.598 142.176 53.042C143.064 53.4613 144.1 53.671 145.284 53.671C146.344 53.671 147.269 53.5107 148.059 53.19C148.873 52.8693 149.613 52.3883 150.279 51.747L153.35 55.077C152.437 56.113 151.29 56.9147 149.909 57.482C148.527 58.0247 146.936 58.296 145.136 58.296ZM170.698 37.798C172.276 37.798 173.682 38.1187 174.916 38.76C176.174 39.3767 177.16 40.3387 177.876 41.646C178.591 42.9287 178.949 44.5813 178.949 46.604V58H173.177V47.492C173.177 45.8887 172.819 44.7047 172.104 43.94C171.413 43.1753 170.426 42.793 169.144 42.793C168.231 42.793 167.405 42.9903 166.665 43.385C165.949 43.755 165.382 44.3347 164.963 45.124C164.568 45.9133 164.371 46.9247 164.371 48.158V58H158.599V38.094H164.112V43.607L163.076 41.942C163.791 40.61 164.815 39.5863 166.147 38.871C167.479 38.1557 168.996 37.798 170.698 37.798ZM192.321 58.296C189.977 58.296 188.152 57.704 186.845 56.52C185.537 55.3113 184.884 53.523 184.884 51.155V33.691H190.656V51.081C190.656 51.9197 190.878 52.5733 191.322 53.042C191.766 53.486 192.37 53.708 193.135 53.708C194.047 53.708 194.824 53.4613 195.466 52.968L197.02 57.038C196.428 57.4573 195.712 57.778 194.874 58C194.06 58.1973 193.209 58.296 192.321 58.296ZM181.813 42.978V38.538H195.614V42.978H181.813Z" fill="#505050"/>
<path d="M105.804 188.126C105.024 188.126 104.31 187.946 103.662 187.586C103.026 187.226 102.516 186.686 102.132 185.966C101.76 185.234 101.574 184.31 101.574 183.194C101.574 182.066 101.754 181.142 102.114 180.422C102.486 179.702 102.99 179.168 103.626 178.82C104.262 178.46 104.988 178.28 105.804 178.28C106.752 178.28 107.586 178.484 108.306 178.892C109.038 179.3 109.614 179.87 110.034 180.602C110.466 181.334 110.682 182.198 110.682 183.194C110.682 184.19 110.466 185.06 110.034 185.804C109.614 186.536 109.038 187.106 108.306 187.514C107.586 187.922 106.752 188.126 105.804 188.126ZM100.476 191.492V178.388H102.618V180.656L102.546 183.212L102.726 185.768V191.492H100.476ZM105.552 186.2C106.092 186.2 106.572 186.08 106.992 185.84C107.424 185.6 107.766 185.252 108.018 184.796C108.27 184.34 108.396 183.806 108.396 183.194C108.396 182.57 108.27 182.036 108.018 181.592C107.766 181.136 107.424 180.788 106.992 180.548C106.572 180.308 106.092 180.188 105.552 180.188C105.012 180.188 104.526 180.308 104.094 180.548C103.662 180.788 103.32 181.136 103.068 181.592C102.816 182.036 102.69 182.57 102.69 183.194C102.69 183.806 102.816 184.34 103.068 184.796C103.32 185.252 103.662 185.6 104.094 185.84C104.526 186.08 105.012 186.2 105.552 186.2ZM118.615 188V186.056L118.489 185.642V182.24C118.489 181.58 118.291 181.07 117.895 180.71C117.499 180.338 116.899 180.152 116.095 180.152C115.555 180.152 115.021 180.236 114.493 180.404C113.977 180.572 113.539 180.806 113.179 181.106L112.297 179.468C112.813 179.072 113.425 178.778 114.133 178.586C114.853 178.382 115.597 178.28 116.365 178.28C117.757 178.28 118.831 178.616 119.587 179.288C120.355 179.948 120.739 180.974 120.739 182.366V188H118.615ZM115.591 188.126C114.871 188.126 114.241 188.006 113.701 187.766C113.161 187.514 112.741 187.172 112.441 186.74C112.153 186.296 112.009 185.798 112.009 185.246C112.009 184.706 112.135 184.22 112.387 183.788C112.651 183.356 113.077 183.014 113.665 182.762C114.253 182.51 115.033 182.384 116.005 182.384H118.795V183.878H116.167C115.399 183.878 114.883 184.004 114.619 184.256C114.355 184.496 114.223 184.796 114.223 185.156C114.223 185.564 114.385 185.888 114.709 186.128C115.033 186.368 115.483 186.488 116.059 186.488C116.611 186.488 117.103 186.362 117.535 186.11C117.979 185.858 118.297 185.486 118.489 184.994L118.867 186.344C118.651 186.908 118.261 187.346 117.697 187.658C117.145 187.97 116.443 188.126 115.591 188.126ZM123.626 188V178.388H125.768V181.034L125.516 180.26C125.804 179.612 126.254 179.12 126.866 178.784C127.49 178.448 128.264 178.28 129.188 178.28V180.422C129.092 180.398 129.002 180.386 128.918 180.386C128.834 180.374 128.75 180.368 128.666 180.368C127.814 180.368 127.136 180.62 126.632 181.124C126.128 181.616 125.876 182.354 125.876 183.338V188H123.626ZM148.292 178.28C149.06 178.28 149.738 178.43 150.326 178.73C150.926 179.03 151.394 179.492 151.73 180.116C152.066 180.728 152.234 181.52 152.234 182.492V188H149.984V182.78C149.984 181.928 149.798 181.292 149.426 180.872C149.054 180.452 148.52 180.242 147.824 180.242C147.332 180.242 146.894 180.35 146.51 180.566C146.138 180.782 145.844 181.1 145.628 181.52C145.424 181.94 145.322 182.474 145.322 183.122V188H143.072V182.78C143.072 181.928 142.886 181.292 142.514 180.872C142.142 180.452 141.608 180.242 140.912 180.242C140.42 180.242 139.982 180.35 139.598 180.566C139.226 180.782 138.932 181.1 138.716 181.52C138.512 181.94 138.41 182.474 138.41 183.122V188H136.16V178.388H138.302V180.944L137.924 180.188C138.248 179.564 138.716 179.09 139.328 178.766C139.952 178.442 140.66 178.28 141.452 178.28C142.352 178.28 143.132 178.502 143.792 178.946C144.464 179.39 144.908 180.062 145.124 180.962L144.242 180.656C144.554 179.936 145.07 179.36 145.79 178.928C146.51 178.496 147.344 178.28 148.292 178.28ZM159.446 188.126C158.462 188.126 157.586 187.916 156.818 187.496C156.05 187.064 155.444 186.476 155 185.732C154.556 184.988 154.334 184.142 154.334 183.194C154.334 182.234 154.556 181.388 155 180.656C155.444 179.912 156.05 179.33 156.818 178.91C157.586 178.49 158.462 178.28 159.446 178.28C160.442 178.28 161.324 178.49 162.092 178.91C162.872 179.33 163.478 179.906 163.91 180.638C164.354 181.37 164.576 182.222 164.576 183.194C164.576 184.142 164.354 184.988 163.91 185.732C163.478 186.476 162.872 187.064 162.092 187.496C161.324 187.916 160.442 188.126 159.446 188.126ZM159.446 186.2C159.998 186.2 160.49 186.08 160.922 185.84C161.354 185.6 161.69 185.252 161.93 184.796C162.182 184.34 162.308 183.806 162.308 183.194C162.308 182.57 162.182 182.036 161.93 181.592C161.69 181.136 161.354 180.788 160.922 180.548C160.49 180.308 160.004 180.188 159.464 180.188C158.912 180.188 158.42 180.308 157.988 180.548C157.568 180.788 157.232 181.136 156.98 181.592C156.728 182.036 156.602 182.57 156.602 183.194C156.602 183.806 156.728 184.34 156.98 184.796C157.232 185.252 157.568 185.6 157.988 185.84C158.42 186.08 158.906 186.2 159.446 186.2ZM166.728 188V178.388H168.978V188H166.728ZM167.862 176.804C167.442 176.804 167.094 176.672 166.818 176.408C166.554 176.144 166.422 175.826 166.422 175.454C166.422 175.07 166.554 174.752 166.818 174.5C167.094 174.236 167.442 174.104 167.862 174.104C168.282 174.104 168.624 174.23 168.888 174.482C169.164 174.722 169.302 175.028 169.302 175.4C169.302 175.796 169.17 176.132 168.906 176.408C168.642 176.672 168.294 176.804 167.862 176.804ZM174.901 188.126C174.097 188.126 173.323 188.024 172.579 187.82C171.847 187.604 171.265 187.346 170.833 187.046L171.697 185.336C172.129 185.612 172.645 185.84 173.245 186.02C173.845 186.2 174.445 186.29 175.045 186.29C175.753 186.29 176.263 186.194 176.575 186.002C176.899 185.81 177.061 185.552 177.061 185.228C177.061 184.964 176.953 184.766 176.737 184.634C176.521 184.49 176.239 184.382 175.891 184.31C175.543 184.238 175.153 184.172 174.721 184.112C174.301 184.052 173.875 183.974 173.443 183.878C173.023 183.77 172.639 183.62 172.291 183.428C171.943 183.224 171.661 182.954 171.445 182.618C171.229 182.282 171.121 181.838 171.121 181.286C171.121 180.674 171.295 180.146 171.643 179.702C171.991 179.246 172.477 178.898 173.101 178.658C173.737 178.406 174.487 178.28 175.351 178.28C175.999 178.28 176.653 178.352 177.313 178.496C177.973 178.64 178.519 178.844 178.951 179.108L178.087 180.818C177.631 180.542 177.169 180.356 176.701 180.26C176.245 180.152 175.789 180.098 175.333 180.098C174.649 180.098 174.139 180.2 173.803 180.404C173.479 180.608 173.317 180.866 173.317 181.178C173.317 181.466 173.425 181.682 173.641 181.826C173.857 181.97 174.139 182.084 174.487 182.168C174.835 182.252 175.219 182.324 175.639 182.384C176.071 182.432 176.497 182.51 176.917 182.618C177.337 182.726 177.721 182.876 178.069 183.068C178.429 183.248 178.717 183.506 178.933 183.842C179.149 184.178 179.257 184.616 179.257 185.156C179.257 185.756 179.077 186.278 178.717 186.722C178.369 187.166 177.871 187.514 177.223 187.766C176.575 188.006 175.801 188.126 174.901 188.126Z" fill="#505050"/>
<path d="M40.08 190.48C38.1333 190.48 36.2 190.227 34.28 189.72C32.3867 189.187 30.76 188.44 29.4 187.48L31.96 182.52C33.0267 183.293 34.2533 183.907 35.64 184.36C37.0533 184.813 38.48 185.04 39.92 185.04C41.5467 185.04 42.8267 184.72 43.76 184.08C44.6933 183.44 45.16 182.547 45.16 181.4C45.16 180.68 44.9733 180.04 44.6 179.48C44.2267 178.92 43.56 178.493 42.6 178.2C41.6667 177.907 40.3467 177.76 38.64 177.76H31.48L32.92 162H50V167.2H35.24L38.6 164.24L37.6 175.48L34.24 172.52H40.16C42.9333 172.52 45.16 172.907 46.84 173.68C48.5467 174.427 49.7867 175.453 50.56 176.76C51.3333 178.067 51.72 179.547 51.72 181.2C51.72 182.853 51.3067 184.387 50.48 185.8C49.6533 187.187 48.3733 188.32 46.64 189.2C44.9333 190.053 42.7467 190.48 40.08 190.48ZM53.9891 180.44V177.08H75.5491V180.44H53.9891ZM53.9891 174.92V171.56H75.5491V174.92H53.9891ZM73.0291 190.48C70.8424 190.48 68.8157 190.133 66.9491 189.44C65.1091 188.72 63.5091 187.707 62.1491 186.4C60.7891 185.093 59.7357 183.56 58.9891 181.8C58.2424 180.04 57.8691 178.107 57.8691 176C57.8691 173.893 58.2424 171.96 58.9891 170.2C59.7357 168.44 60.7891 166.907 62.1491 165.6C63.5091 164.293 65.1091 163.293 66.9491 162.6C68.8157 161.88 70.8424 161.52 73.0291 161.52C75.4557 161.52 77.6557 161.947 79.6291 162.8C81.6024 163.627 83.2424 164.853 84.5491 166.48L80.4291 170.32C79.4691 169.227 78.4024 168.413 77.2291 167.88C76.0557 167.32 74.7624 167.04 73.3491 167.04C72.0424 167.04 70.8424 167.253 69.7491 167.68C68.6557 168.107 67.7091 168.72 66.9091 169.52C66.1091 170.32 65.4824 171.267 65.0291 172.36C64.6024 173.453 64.3891 174.667 64.3891 176C64.3891 177.333 64.6024 178.547 65.0291 179.64C65.4824 180.733 66.1091 181.68 66.9091 182.48C67.7091 183.28 68.6557 183.893 69.7491 184.32C70.8424 184.747 72.0424 184.96 73.3491 184.96C74.7624 184.96 76.0557 184.693 77.2291 184.16C78.4024 183.6 79.4691 182.76 80.4291 181.64L84.5491 185.48C83.2424 187.107 81.6024 188.347 79.6291 189.2C77.6557 190.053 75.4557 190.48 73.0291 190.48Z" fill="#505050"/>
<line x1="32.5" y1="69.5" x2="134.5" y2="69.5" stroke="#56B5CB" stroke-width="3" stroke-linecap="round"/>
<defs>
<filter id="filter0_d_3094_1124" x="0" y="0" width="319" height="497" filterUnits="userSpaceOnUse" color-interpolation-filters="sRGB">
<feFlood flood-opacity="0" result="BackgroundImageFix"/>
<feColorMatrix in="SourceAlpha" type="matrix" values="0 0 0 0 0 0 0 0 0 0 0 0 0 0 0 0 0 0 127 0" result="hardAlpha"/>
<feOffset dy="4"/>
<feGaussianBlur stdDeviation="2"/>
<feComposite in2="hardAlpha" operator="out"/>
<feColorMatrix type="matrix" values="0 0 0 0 0.904167 0 0 0 0 0.904167 0 0 0 0 0.904167 0 0 0 1 0"/>
<feBlend mode="normal" in2="BackgroundImageFix" result="effect1_dropShadow_3094_1124"/>
<feBlend mode="normal" in="SourceGraphic" in2="effect1_dropShadow_3094_1124" result="shape"/>
</filter>
</defs>
</svg>
