<svg width="300" height="300" viewBox="0 0 300 300" fill="none" xmlns="http://www.w3.org/2000/svg">
<path d="M53.0702 265.326C107.19 297.27 194.946 297.27 249.072 265.326C303.198 233.382 303.198 181.59 249.072 149.652C194.946 117.714 107.19 117.708 53.0642 149.652C-1.06184 181.596 -1.05584 233.4 53.0702 265.326Z" fill="#F5F5F5"/>
<path d="M234.684 258.63C249.327 258.63 261.198 251.777 261.198 243.324C261.198 234.871 249.327 228.018 234.684 228.018C220.041 228.018 208.17 234.871 208.17 243.324C208.17 251.777 220.041 258.63 234.684 258.63Z" fill="#E0E0E0"/>
<path d="M218.051 46.284L222.653 48.942C222.628 48.7429 222.614 48.5426 222.611 48.342V46.998C222.611 44.598 224.279 43.662 226.331 44.85C227.215 45.3929 227.972 46.1193 228.551 46.98C228.887 43.98 231.227 42.888 234.071 44.526C237.143 46.326 239.633 50.616 239.633 54.168V56.16C239.654 56.9554 239.494 57.7452 239.165 58.47L242.981 60.678C243.586 61.072 244.088 61.6038 244.447 62.2296C244.805 62.8554 245.011 63.5574 245.045 64.278C245.045 65.592 244.121 66.126 242.981 65.478L218.051 51.078C217.447 50.684 216.945 50.1522 216.586 49.5264C216.227 48.9006 216.022 48.1985 215.987 47.478C215.999 46.158 216.911 45.6 218.051 46.284Z" fill="#EBEBEB"/>
<path d="M198.36 59.688L201.834 61.692C201.815 61.5407 201.805 61.3885 201.804 61.236V60.228C201.804 58.428 203.064 57.714 204.612 58.608C205.28 59.0163 205.851 59.565 206.286 60.216C206.538 57.966 208.302 57.126 210.45 58.362C211.673 59.1597 212.69 60.2344 213.42 61.4989C214.15 62.7634 214.571 64.1822 214.65 65.64V67.146C214.666 67.7454 214.545 68.3405 214.296 68.886L217.176 70.554C217.629 70.8487 218.007 71.2462 218.278 71.7143C218.549 72.1824 218.706 72.7079 218.736 73.248C218.736 74.244 218.04 74.646 217.176 74.148L198.36 63.282C197.908 62.9885 197.531 62.5929 197.26 62.127C196.989 61.6611 196.831 61.138 196.8 60.6C196.8 59.592 197.502 59.19 198.36 59.688Z" fill="#EBEBEB"/>
<path d="M44.3281 173.172C43.9861 173.358 37.7281 175.14 35.3881 172.068C33.0481 168.996 36.9181 164.214 34.7401 162.468C32.5621 160.722 26.4541 162.468 24.9841 158.766C23.5141 155.064 27.8701 153.456 25.4221 149.718C23.8801 147.366 20.0881 146.046 19.7521 143.868C19.2001 140.232 25.2241 138.558 30.3841 141.996C35.5441 145.434 38.6581 143.856 40.2961 143.622C41.9341 143.388 45.4561 143.904 45.3421 149.622C45.2281 155.34 44.3281 173.172 44.3281 173.172Z" fill="#81C6D6"/>
<path d="M44.7424 165C44.661 165.001 44.5821 164.972 44.5203 164.919C44.4585 164.866 44.418 164.793 44.4064 164.712C42.6064 153.816 29.9404 144.942 23.3524 143.04C23.2649 143.015 23.1907 142.957 23.1463 142.878C23.1018 142.798 23.0907 142.705 23.1154 142.617C23.1401 142.53 23.1985 142.455 23.2778 142.411C23.3571 142.366 23.4509 142.355 23.5384 142.38C30.2764 144.33 43.2364 153.42 45.0784 164.58C45.0923 164.669 45.0704 164.76 45.0176 164.833C44.9648 164.906 44.8853 164.955 44.7964 164.97L44.7424 165Z" fill="white"/>
<path d="M29.8018 155.88C29.7263 155.883 29.6522 155.86 29.5913 155.815C29.5304 155.77 29.4863 155.706 29.4662 155.634C29.4461 155.561 29.4511 155.483 29.4804 155.414C29.5098 155.344 29.5617 155.287 29.6278 155.25C29.8318 155.124 34.7038 152.25 39.5098 153.606C39.5969 153.633 39.6705 153.692 39.7152 153.771C39.7599 153.85 39.7723 153.944 39.7498 154.032C39.7247 154.118 39.6665 154.191 39.5879 154.235C39.5092 154.279 39.4165 154.29 39.3298 154.266C34.7998 153 29.9998 155.808 29.9998 155.838C29.9393 155.871 29.8705 155.886 29.8018 155.88V155.88Z" fill="white"/>
<path d="M46.7578 177.36C46.8219 178.232 47.0905 179.078 47.5419 179.827C47.9932 180.577 48.6146 181.209 49.3558 181.674L122.154 223.674C122.959 224.082 123.849 224.295 124.752 224.295C125.655 224.295 126.545 224.082 127.35 223.674L226.95 166.164C227.735 165.75 228.392 165.129 228.85 164.369C229.309 163.609 229.551 162.738 229.551 161.85C229.551 160.962 229.309 160.091 228.85 159.331C228.392 158.571 227.735 157.95 226.95 157.536L154.158 115.536C153.353 115.127 152.463 114.915 151.56 114.915C150.657 114.915 149.767 115.127 148.962 115.536L49.3618 173.046C48.6195 173.51 47.9969 174.142 47.5445 174.892C47.0921 175.641 46.8226 176.487 46.7578 177.36V177.36Z" fill="#37474F"/>
<path d="M124.751 218.7V224.322C123.848 224.347 122.954 224.14 122.153 223.722L49.3554 181.722C48.5943 181.321 47.9531 180.725 47.4972 179.996C47.0413 179.266 46.787 178.429 46.7602 177.569C46.7333 176.709 46.935 175.857 47.3445 175.101C47.754 174.344 48.3568 173.71 49.0914 173.262C47.9274 174.096 48.0174 175.32 49.3554 176.094L122.153 218.094C122.954 218.514 123.848 218.723 124.751 218.7V218.7Z" fill="#263238"/>
<path d="M44.3217 173.136C43.5974 172.646 42.9992 171.991 42.5759 171.226C42.1525 170.461 41.9161 169.606 41.8857 168.732V81.858C41.935 80.9566 42.1959 80.0795 42.6472 79.2977C43.0986 78.5159 43.7277 77.8514 44.4837 77.358L144.084 19.854C144.857 19.4446 145.715 19.2226 146.589 19.2059C147.464 19.1893 148.33 19.3784 149.118 19.758C149.843 20.2495 150.441 20.905 150.866 21.6712C151.29 22.4374 151.528 23.2928 151.56 24.168V111.036C151.511 111.938 151.251 112.815 150.8 113.597C150.348 114.379 149.718 115.043 148.962 115.536L49.3617 173.046C48.5881 173.457 47.7283 173.679 46.8525 173.695C45.9767 173.71 45.1096 173.519 44.3217 173.136Z" fill="#455A64"/>
<path d="M49.0497 173.202C48.3049 173.538 47.4954 173.706 46.6784 173.695C45.8614 173.683 45.0569 173.492 44.3217 173.136C43.5984 172.645 43.001 171.99 42.5778 171.225C42.1546 170.46 41.9175 169.606 41.8857 168.732V81.858C41.9152 80.9546 42.1777 80.0741 42.6477 79.302L47.5197 82.11C47.0531 82.8836 46.7909 83.7632 46.7577 84.666V171.546C46.7577 173.082 47.7597 173.772 49.0497 173.202Z" fill="#263238"/>
<path d="M46.7578 84.672V171.546C46.7578 173.202 47.9218 173.874 49.3558 173.046L148.956 115.536C149.712 115.043 150.342 114.379 150.794 113.597C151.245 112.815 151.505 111.938 151.554 111.036V24.168C151.554 22.512 150.39 21.84 148.956 22.668L49.3558 80.172C48.6002 80.6657 47.9712 81.3303 47.5199 82.112C47.0686 82.8938 46.8075 83.7707 46.7578 84.672V84.672Z" fill="#37474F"/>
<path d="M49.356 176.046L122.154 218.046C122.959 218.454 123.849 218.667 124.752 218.667C125.655 218.667 126.545 218.454 127.35 218.046L226.95 160.536C228.384 159.708 228.384 158.364 226.95 157.536L154.158 115.536C153.353 115.127 152.463 114.915 151.56 114.915C150.657 114.915 149.767 115.127 148.962 115.536L49.362 173.046C47.922 173.874 47.922 175.2 49.356 176.046Z" fill="#455A64"/>
<path d="M50.7543 84.996L146.754 29.568C147.618 29.07 148.314 29.472 148.314 30.468V105.666C148.286 106.207 148.129 106.734 147.858 107.203C147.587 107.672 147.209 108.071 146.754 108.366L50.7543 163.8C49.8903 164.298 49.1943 163.896 49.1943 162.9V87.696C49.2232 87.1549 49.3795 86.6282 49.6506 86.159C49.9217 85.6897 50.2999 85.2913 50.7543 84.996V84.996Z" fill="white"/>
<path opacity="0.6" d="M50.7543 84.996L146.754 29.568C147.618 29.07 148.314 29.472 148.314 30.468V105.666C148.286 106.207 148.129 106.734 147.858 107.203C147.587 107.672 147.209 108.071 146.754 108.366L50.7543 163.8C49.8903 164.298 49.1943 163.896 49.1943 162.9V87.696C49.2232 87.1549 49.3795 86.6282 49.6506 86.159C49.9217 85.6897 50.2999 85.2913 50.7543 84.996V84.996Z" fill="#81C6D6"/>
<path d="M98.5616 80.238C101.118 78.762 103.194 79.962 103.194 82.914C103.106 84.5201 102.64 86.0829 101.836 87.4756C101.031 88.8683 99.9092 90.0518 98.5616 90.93C96.0056 92.406 93.9355 91.212 93.9355 88.26C94.0219 86.6534 94.4858 85.0898 95.2895 83.696C96.0933 82.3022 97.2143 81.1175 98.5616 80.238Z" fill="#F0F0F0"/>
<path d="M107.688 96.03C107.688 91.182 104.28 89.028 100.08 91.452L97.4576 93C93.2576 95.4 89.8496 101.322 89.8496 106.2V107.508L107.688 97.212V96.03Z" fill="#F0F0F0"/>
<path d="M116.705 98.4C116.537 98.01 116.105 97.914 115.619 98.19L84.4674 116.19C84.1329 116.41 83.8545 116.705 83.6545 117.052C83.4545 117.399 83.3384 117.788 83.3154 118.188V121.848C83.3154 122.448 83.6874 122.778 84.1914 122.64L84.2754 122.61C84.3411 122.584 84.4052 122.554 84.4674 122.52L115.619 104.52C115.955 104.301 116.235 104.006 116.435 103.659C116.635 103.312 116.75 102.922 116.771 102.522V98.88C116.777 98.7174 116.755 98.555 116.705 98.4Z" fill="#F0F0F0"/>
<path d="M87.2815 116.646C87.8815 116.292 88.3795 116.58 88.3795 117.276C88.3601 117.656 88.2504 118.027 88.0594 118.357C87.8685 118.686 87.6018 118.966 87.2815 119.172C86.6815 119.52 86.1895 119.238 86.1895 118.536C86.2091 118.157 86.3183 117.788 86.5082 117.46C86.698 117.131 86.963 116.852 87.2815 116.646V116.646Z" fill="#81C6D6"/>
<path d="M90.9056 114.552C91.5056 114.204 91.9976 114.486 91.9976 115.188C91.978 115.567 91.8687 115.936 91.6789 116.264C91.4891 116.593 91.2241 116.872 90.9056 117.078C90.3056 117.432 89.8076 117.144 89.8076 116.478C89.8223 116.092 89.9298 115.716 90.1209 115.381C90.312 115.045 90.5812 114.761 90.9056 114.552V114.552Z" fill="#81C6D6"/>
<path d="M94.5238 112.464C95.1238 112.116 95.6158 112.398 95.6158 113.094C95.5971 113.474 95.4883 113.844 95.2984 114.174C95.1085 114.503 94.843 114.783 94.5238 114.99C93.9238 115.338 93.4258 115.056 93.4258 114.36C93.4452 113.98 93.5549 113.609 93.7458 113.279C93.9367 112.95 94.2034 112.67 94.5238 112.464Z" fill="#81C6D6"/>
<path d="M98.1418 110.4C98.7418 110.046 99.2398 110.334 99.2398 111C99.2204 111.381 99.1107 111.751 98.9198 112.081C98.7289 112.41 98.4622 112.69 98.1418 112.896C97.5418 113.244 97.0498 112.962 97.0498 112.296C97.0685 111.916 97.1773 111.546 97.3672 111.216C97.557 110.887 97.8226 110.607 98.1418 110.4V110.4Z" fill="#81C6D6"/>
<path d="M101.76 108.282C102.36 107.934 102.858 108.216 102.858 108.918C102.836 109.298 102.725 109.667 102.535 109.997C102.344 110.326 102.079 110.606 101.76 110.814C101.16 111.162 100.668 110.88 100.668 110.178C100.689 109.799 100.799 109.429 100.989 109.1C101.178 108.771 101.442 108.491 101.76 108.282Z" fill="#81C6D6"/>
<path d="M105.384 106.2C105.984 105.852 106.476 106.134 106.476 106.8C106.457 107.18 106.349 107.55 106.159 107.88C105.969 108.209 105.703 108.489 105.384 108.696C104.784 109.044 104.286 108.762 104.286 108.096C104.306 107.716 104.415 107.345 104.606 107.015C104.797 106.686 105.064 106.406 105.384 106.2V106.2Z" fill="#81C6D6"/>
<path d="M109.002 104.106C109.602 103.758 110.094 104.04 110.094 104.736C110.075 105.116 109.967 105.486 109.777 105.816C109.587 106.145 109.321 106.425 109.002 106.632C108.402 106.98 107.91 106.698 107.91 106.002C107.929 105.622 108.038 105.252 108.228 104.922C108.417 104.593 108.683 104.313 109.002 104.106V104.106Z" fill="#81C6D6"/>
<path d="M112.619 102C113.219 101.652 113.717 101.934 113.717 102.636C113.696 103.016 113.585 103.385 113.394 103.715C113.203 104.044 112.938 104.324 112.619 104.532C112.019 104.88 111.527 104.598 111.527 103.896C111.549 103.517 111.66 103.148 111.849 102.819C112.039 102.49 112.302 102.209 112.619 102V102Z" fill="#81C6D6"/>
<path d="M57.8041 173.796L150.258 120.396C150.661 120.192 151.106 120.086 151.557 120.086C152.008 120.086 152.453 120.192 152.856 120.396L157.584 123.126C157.741 123.179 157.877 123.28 157.973 123.415C158.07 123.549 158.122 123.711 158.122 123.876C158.122 124.042 158.07 124.203 157.973 124.337C157.877 124.472 157.741 124.573 157.584 124.626L65.1181 178.02C64.7155 178.224 64.2705 178.33 63.8191 178.33C63.3678 178.33 62.9227 178.224 62.5201 178.02L57.8041 175.296C57.6474 175.243 57.5113 175.142 57.4149 175.007C57.3184 174.873 57.2666 174.712 57.2666 174.546C57.2666 174.381 57.3184 174.219 57.4149 174.085C57.5113 173.95 57.6474 173.849 57.8041 173.796V173.796Z" fill="#37474F"/>
<path d="M69.9895 180.834L162.443 127.434C162.846 127.23 163.291 127.124 163.742 127.124C164.194 127.124 164.639 127.23 165.041 127.434L194.129 144.234C194.286 144.287 194.422 144.388 194.519 144.523C194.615 144.657 194.667 144.818 194.667 144.984C194.667 145.149 194.615 145.311 194.519 145.445C194.422 145.58 194.286 145.681 194.129 145.734L101.783 199.05C101.379 199.253 100.934 199.358 100.481 199.358C100.029 199.358 99.5836 199.253 99.1795 199.05L69.9955 182.322C69.84 182.27 69.7047 182.17 69.6087 182.037C69.5126 181.904 69.4606 181.744 69.46 181.58C69.4593 181.416 69.51 181.256 69.605 181.122C69.6999 180.988 69.8344 180.888 69.9895 180.834V180.834Z" fill="#263238"/>
<path d="M152.868 151.47L155.766 149.796C155.886 149.724 155.88 149.604 155.766 149.532L152.4 147.6C152.328 147.563 152.249 147.544 152.169 147.544C152.088 147.544 152.009 147.563 151.938 147.6L149.04 149.274C148.92 149.34 148.926 149.46 149.04 149.538L152.388 151.47C152.461 151.51 152.544 151.531 152.628 151.531C152.712 151.531 152.794 151.51 152.868 151.47V151.47ZM147.156 144.828L144.264 146.496C144.138 146.568 144.144 146.688 144.264 146.766L147.612 148.698C147.684 148.733 147.763 148.752 147.843 148.752C147.923 148.752 148.002 148.733 148.074 148.698L150.972 147.024C151.092 146.952 151.086 146.832 150.972 146.76L147.6 144.84C147.532 144.804 147.456 144.785 147.379 144.782C147.302 144.78 147.226 144.796 147.156 144.828V144.828ZM137.802 150.228L132.906 153.054C132.78 153.126 132.792 153.246 132.906 153.324L136.248 155.256C136.32 155.291 136.399 155.31 136.479 155.31C136.559 155.31 136.638 155.291 136.71 155.256L141.612 152.43C141.732 152.358 141.726 152.238 141.612 152.166L138.264 150.228C138.192 150.193 138.113 150.174 138.033 150.174C137.953 150.174 137.874 150.193 137.802 150.228ZM142.926 147.27L140.028 148.944C139.908 149.01 139.914 149.13 140.028 149.208L143.4 151.14C143.472 151.175 143.551 151.194 143.631 151.194C143.711 151.194 143.79 151.175 143.862 151.14L146.754 149.466C146.88 149.394 146.874 149.274 146.754 149.202L143.4 147.282C143.328 147.241 143.247 147.219 143.164 147.217C143.082 147.215 143 147.233 142.926 147.27V147.27ZM131.568 153.828L128.676 155.496C128.55 155.568 128.556 155.688 128.676 155.766L132.024 157.698C132.095 157.735 132.174 157.754 132.255 157.754C132.335 157.754 132.414 157.735 132.486 157.698L135.384 156.03C135.504 155.958 135.498 155.838 135.384 155.76L132.036 153.828C131.963 153.792 131.883 153.773 131.802 153.773C131.721 153.773 131.64 153.792 131.568 153.828V153.828ZM127.338 156.27L124.446 157.938C124.32 158.01 124.326 158.13 124.446 158.208L127.8 160.14C127.872 160.175 127.951 160.194 128.031 160.194C128.111 160.194 128.19 160.175 128.262 160.14L131.16 158.466C131.28 158.394 131.274 158.274 131.16 158.202L127.8 156.282C127.729 156.243 127.651 156.222 127.57 156.22C127.49 156.218 127.41 156.235 127.338 156.27V156.27ZM140.502 164.13L143.4 162.456C143.52 162.384 143.514 162.264 143.4 162.192L140.052 160.26C139.98 160.223 139.901 160.204 139.821 160.204C139.74 160.204 139.661 160.223 139.59 160.26L136.698 161.934C136.572 162 136.584 162.12 136.698 162.198L140.04 164.13C140.111 164.167 140.19 164.186 140.271 164.186C140.351 164.186 140.43 164.167 140.502 164.13V164.13ZM136.302 166.572L139.2 164.898C139.32 164.826 139.314 164.712 139.2 164.634L135.852 162.702C135.78 162.665 135.701 162.646 135.621 162.646C135.54 162.646 135.461 162.665 135.39 162.702L132.498 164.376C132.372 164.448 132.378 164.562 132.498 164.64L135.846 166.572C135.912 166.603 135.985 166.619 136.059 166.619C136.132 166.619 136.205 166.603 136.272 166.572H136.302ZM132.072 169.014L134.97 167.34C135.09 167.274 135.084 167.154 134.97 167.076L131.622 165.144C131.55 165.107 131.471 165.088 131.391 165.088C131.31 165.088 131.231 165.107 131.16 165.144L128.22 166.8C128.094 166.872 128.1 166.992 128.22 167.064L131.568 168.996C131.639 169.038 131.72 169.061 131.803 169.064C131.885 169.067 131.967 169.05 132.042 169.014H132.072ZM127.872 171.456L130.77 169.782C130.89 169.716 130.884 169.596 130.77 169.518L127.422 167.586C127.35 167.551 127.271 167.532 127.191 167.532C127.111 167.532 127.032 167.551 126.96 167.586L124.062 169.26C123.942 169.332 123.948 169.452 124.062 169.524L127.41 171.456C127.472 171.482 127.538 171.495 127.605 171.495C127.672 171.495 127.738 171.482 127.8 171.456H127.872ZM148.698 153.912L151.59 152.238C151.716 152.166 151.71 152.052 151.59 151.974L148.2 150.042C148.128 150.005 148.049 149.986 147.969 149.986C147.888 149.986 147.809 150.005 147.738 150.042L144.84 151.716C144.72 151.788 144.726 151.902 144.84 151.98L148.2 153.9C148.267 153.935 148.342 153.954 148.417 153.956C148.493 153.958 148.569 153.943 148.638 153.912H148.698ZM144.798 161.712L151.2 157.956C151.32 157.884 151.314 157.764 151.2 157.692L143.046 153C142.974 152.963 142.895 152.944 142.815 152.944C142.734 152.944 142.655 152.963 142.584 153L139.248 154.926C139.122 154.998 139.128 155.118 139.248 155.196L143.556 157.68C143.688 157.758 143.694 157.878 143.556 157.944L140.886 159.486C140.76 159.558 140.772 159.678 140.886 159.756L144.234 161.688C144.311 161.731 144.398 161.753 144.486 161.753C144.574 161.753 144.661 161.731 144.738 161.688L144.798 161.712ZM123.198 158.712L120.3 160.386C120.18 160.452 120.186 160.572 120.3 160.65L123.6 162.6C123.672 162.635 123.751 162.654 123.831 162.654C123.911 162.654 123.99 162.635 124.062 162.6L126.954 160.926C127.08 160.854 127.074 160.734 126.954 160.662L123.6 158.724C123.526 158.68 123.441 158.656 123.355 158.654C123.269 158.652 123.184 158.672 123.108 158.712H123.198ZM118.968 161.154L116.07 162.828C115.95 162.9 115.956 163.014 116.07 163.092L119.418 165.024C119.489 165.061 119.568 165.08 119.649 165.08C119.729 165.08 119.808 165.061 119.88 165.024L122.772 163.35C122.898 163.278 122.892 163.158 122.772 163.086L119.424 161.154C119.342 161.102 119.248 161.074 119.151 161.074C119.054 161.074 118.959 161.102 118.878 161.154H118.968ZM97.8238 188.544C97.8952 188.581 97.9744 188.6 98.0548 188.6C98.1351 188.6 98.2143 188.581 98.2858 188.544L101.184 186.87C101.304 186.798 101.298 186.678 101.184 186.606L97.8358 184.674C97.7643 184.637 97.6851 184.618 97.6048 184.618C97.5244 184.618 97.4452 184.637 97.3738 184.674L94.4818 186.348C94.3558 186.414 94.3618 186.534 94.4818 186.612L97.8238 188.544ZM85.1218 180.696L82.1338 182.4C82.0138 182.466 82.0198 182.586 82.1338 182.664L85.4818 184.596C85.5536 184.631 85.6327 184.65 85.7128 184.65C85.7929 184.65 85.8719 184.631 85.9438 184.596L88.8358 182.922C88.9618 182.85 88.9558 182.73 88.8358 182.658L85.4878 180.726C85.4195 180.685 85.3426 180.662 85.2634 180.656C85.1841 180.651 85.1048 180.665 85.0318 180.696H85.1218ZM91.9318 186.426C92.0032 186.463 92.0824 186.482 92.1628 186.482C92.2431 186.482 92.3224 186.463 92.3938 186.426L95.2858 184.752C95.4118 184.68 95.3998 184.56 95.2858 184.488L91.9378 182.556C91.8663 182.519 91.7871 182.5 91.7068 182.5C91.6264 182.5 91.5472 182.519 91.4758 182.556L88.5838 184.23C88.4638 184.302 88.4698 184.416 88.5838 184.494L91.9318 186.426ZM105.294 190.026L108.192 188.352C108.312 188.28 108.306 188.16 108.192 188.088L104.844 186.156C104.772 186.119 104.693 186.1 104.613 186.1C104.532 186.1 104.453 186.119 104.382 186.156L101.4 187.8C101.274 187.866 101.28 187.986 101.4 188.064L104.748 189.996C104.816 190.036 104.893 190.06 104.972 190.067C105.051 190.073 105.13 190.061 105.204 190.032L105.294 190.026ZM100.602 192.426C100.673 192.463 100.752 192.482 100.833 192.482C100.913 192.482 100.992 192.463 101.064 192.426L103.962 190.752C104.082 190.68 104.076 190.56 103.962 190.488L100.614 188.556C100.542 188.519 100.463 188.5 100.383 188.5C100.302 188.5 100.223 188.519 100.152 188.556L97.2538 190.23C97.1338 190.296 97.1398 190.416 97.2538 190.494L100.602 192.426ZM89.3518 178.218L86.4538 179.886C86.3338 179.958 86.3398 180.078 86.4538 180.156L89.8018 182.088C89.8736 182.123 89.9527 182.142 90.0328 182.142C90.1129 182.142 90.1919 182.123 90.2638 182.088L93.1558 180.414C93.2818 180.342 93.2758 180.222 93.1558 180.15L89.8078 178.212C89.7218 178.168 89.6252 178.148 89.5288 178.156C89.4324 178.163 89.34 178.197 89.2618 178.254L89.3518 178.218ZM110.4 166.038L107.502 167.712C107.382 167.784 107.388 167.904 107.502 167.976L110.85 169.908C110.921 169.945 111 169.964 111.081 169.964C111.161 169.964 111.24 169.945 111.312 169.908L114.204 168.234C114.33 168.168 114.318 168.048 114.204 167.97L110.856 166.038C110.785 166.003 110.707 165.984 110.628 165.984C110.549 165.984 110.471 166.003 110.4 166.038V166.038ZM93.4918 175.8L90.5998 177.48C90.4738 177.552 90.4798 177.672 90.5998 177.75L93.9478 179.682C94.0192 179.719 94.0984 179.738 94.1788 179.738C94.2591 179.738 94.3384 179.719 94.4098 179.682L97.3078 178.014C97.4278 177.942 97.4218 177.822 97.3078 177.744L93.9538 175.8C93.8819 175.765 93.8029 175.746 93.7228 175.746C93.6427 175.746 93.5636 175.765 93.4918 175.8V175.8ZM114.648 163.584L111.75 165.258C111.63 165.33 111.636 165.45 111.75 165.522L115.098 167.454C115.169 167.491 115.248 167.51 115.329 167.51C115.409 167.51 115.488 167.491 115.56 167.454L118.452 165.78C118.578 165.708 118.566 165.594 118.452 165.516L115.104 163.584C115.032 163.55 114.954 163.533 114.874 163.535C114.795 163.538 114.717 163.558 114.648 163.596V163.584ZM106.2 168.48L103.308 170.154C103.182 170.226 103.194 170.346 103.308 170.418L106.656 172.35C106.727 172.387 106.806 172.406 106.887 172.406C106.967 172.406 107.046 172.387 107.118 172.35L110.01 170.682C110.13 170.61 110.124 170.49 110.01 170.412L106.662 168.48C106.59 168.445 106.511 168.426 106.431 168.426C106.351 168.426 106.272 168.445 106.2 168.48V168.48ZM101.97 170.928L99.0778 172.596C98.9518 172.668 98.9638 172.788 99.0778 172.86L102.42 174.798C102.492 174.833 102.571 174.852 102.651 174.852C102.731 174.852 102.81 174.833 102.882 174.798L105.78 173.13C105.9 173.058 105.894 172.938 105.78 172.86L102.432 170.928C102.358 170.888 102.276 170.867 102.192 170.867C102.108 170.867 102.025 170.888 101.952 170.928H101.97ZM97.7698 173.37L94.8778 175.038C94.7518 175.11 94.7578 175.23 94.8778 175.308L98.2258 177.24C98.2976 177.275 98.3767 177.294 98.4568 177.294C98.5369 177.294 98.6159 177.275 98.6878 177.24L101.586 175.572C101.706 175.5 101.7 175.38 101.586 175.302L98.1838 173.4C98.1119 173.365 98.0329 173.346 97.9528 173.346C97.8727 173.346 97.7936 173.365 97.7218 173.4L97.7698 173.37ZM119.37 176.34L122.262 174.672C122.388 174.6 122.376 174.48 122.262 174.402L118.914 172.47C118.842 172.433 118.763 172.414 118.683 172.414C118.602 172.414 118.523 172.433 118.452 172.47L115.554 174.138C115.434 174.21 115.44 174.33 115.554 174.408L118.902 176.34C118.972 176.374 119.049 176.391 119.127 176.391C119.205 176.391 119.282 176.374 119.352 176.34H119.37ZM156.528 139.428L153.6 141.102C153.48 141.168 153.486 141.288 153.6 141.366L156.948 143.298C157.02 143.333 157.099 143.352 157.179 143.352C157.259 143.352 157.338 143.333 157.41 143.298L160.302 141.624C160.428 141.552 160.422 141.432 160.302 141.36L156.954 139.428C156.885 139.394 156.809 139.376 156.732 139.376C156.655 139.376 156.579 139.394 156.51 139.428H156.528ZM151.404 142.386L148.512 144.054C148.386 144.126 148.392 144.246 148.512 144.324L151.86 146.256C151.931 146.293 152.01 146.312 152.091 146.312C152.171 146.312 152.25 146.293 152.322 146.256L155.22 144.588C155.34 144.516 155.334 144.396 155.22 144.318L151.872 142.386C151.797 142.347 151.713 142.326 151.629 142.326C151.544 142.326 151.461 142.347 151.386 142.386H151.404ZM160.758 136.986L157.86 138.654C157.74 138.726 157.746 138.846 157.86 138.924L161.208 140.856C161.28 140.891 161.359 140.91 161.439 140.91C161.519 140.91 161.598 140.891 161.67 140.856L164.562 139.182C164.688 139.11 164.682 138.99 164.562 138.918L161.214 136.98C161.14 136.944 161.058 136.925 160.976 136.926C160.894 136.927 160.813 136.948 160.74 136.986H160.758ZM138.84 159.6L141.738 157.926C141.858 157.854 141.852 157.734 141.738 157.662L138.39 155.724C138.318 155.689 138.239 155.67 138.159 155.67C138.079 155.67 138 155.689 137.928 155.724L135 157.356C134.88 157.428 134.886 157.548 135 157.626L138.348 159.558C138.42 159.605 138.503 159.633 138.588 159.641C138.674 159.648 138.761 159.634 138.84 159.6V159.6ZM165.432 134.58C165.36 134.545 165.281 134.526 165.201 134.526C165.121 134.526 165.042 134.545 164.97 134.58L162.078 136.2C161.952 136.272 161.958 136.392 162.078 136.47L165.426 138.402C165.497 138.439 165.576 138.458 165.657 138.458C165.737 138.458 165.816 138.439 165.888 138.402L168.786 136.734C168.906 136.662 168.9 136.542 168.786 136.464L165.432 134.58ZM123.6 173.898L126.492 172.23C126.618 172.158 126.612 172.038 126.492 171.96L123.144 170.028C123.072 169.993 122.993 169.974 122.913 169.974C122.833 169.974 122.754 169.993 122.682 170.028L119.784 171.702C119.664 171.774 119.67 171.894 119.784 171.966L123.132 173.904C123.205 173.939 123.285 173.957 123.366 173.956C123.448 173.955 123.528 173.935 123.6 173.898V173.898ZM175.482 143.946L178.374 142.272C178.5 142.2 178.494 142.08 178.374 142.008L175.026 140.076C174.954 140.039 174.875 140.02 174.795 140.02C174.714 140.02 174.635 140.039 174.564 140.076L171.666 141.75C171.546 141.816 171.552 141.936 171.666 142.014L175.014 143.946C175.084 143.981 175.161 143.999 175.239 143.999C175.317 143.999 175.394 143.981 175.464 143.946H175.482ZM166.482 143.628L169.374 141.954C169.5 141.882 169.494 141.762 169.374 141.69L166.026 139.758C165.954 139.721 165.875 139.702 165.795 139.702C165.714 139.702 165.635 139.721 165.564 139.758L162.6 141.42C162.48 141.486 162.486 141.606 162.6 141.684L165.948 143.616C166.023 143.662 166.11 143.687 166.198 143.69C166.287 143.692 166.374 143.67 166.452 143.628H166.482ZM170.244 137.31C170.172 137.275 170.093 137.256 170.013 137.256C169.933 137.256 169.854 137.275 169.782 137.31L166.884 138.978C166.764 139.05 166.77 139.17 166.884 139.248L170.232 141.18C170.304 141.215 170.383 141.234 170.463 141.234C170.543 141.234 170.622 141.215 170.694 141.18L173.592 139.506C173.712 139.434 173.706 139.314 173.592 139.242L170.244 137.31ZM171.132 136.8L179.262 141.492C179.334 141.527 179.413 141.546 179.493 141.546C179.573 141.546 179.652 141.527 179.724 141.492L182.622 139.818C182.742 139.746 182.736 139.626 182.622 139.554L174.492 134.856C174.42 134.821 174.341 134.802 174.261 134.802C174.181 134.802 174.102 134.821 174.03 134.856L171.138 136.524C170.964 136.602 171 136.722 171.102 136.8H171.132ZM161.322 142.2L158.4 143.862C158.28 143.934 158.286 144.048 158.4 144.126L161.748 146.058C161.819 146.095 161.898 146.114 161.979 146.114C162.059 146.114 162.138 146.095 162.21 146.058L165.102 144.384C165.228 144.312 165.222 144.198 165.102 144.12L161.754 142.2C161.682 142.163 161.603 142.144 161.523 142.144C161.442 142.144 161.363 142.163 161.292 142.2H161.322ZM129.48 160.584L126.582 162.258C126.462 162.33 126.468 162.444 126.582 162.522L129.93 164.454C130.001 164.491 130.08 164.51 130.161 164.51C130.241 164.51 130.32 164.491 130.392 164.454L133.284 162.78C133.41 162.708 133.398 162.594 133.284 162.516L129.942 160.584C129.868 160.54 129.783 160.516 129.697 160.514C129.611 160.512 129.526 160.532 129.45 160.572L129.48 160.584ZM170.772 146.4C170.843 146.437 170.922 146.456 171.003 146.456C171.083 146.456 171.162 146.437 171.234 146.4L174.126 144.726C174.252 144.654 174.246 144.54 174.126 144.462L170.778 142.53C170.706 142.493 170.627 142.474 170.547 142.474C170.466 142.474 170.387 142.493 170.316 142.53L167.4 144.18C167.28 144.252 167.286 144.366 167.4 144.444L170.772 146.4ZM133.68 158.13L130.8 159.804C130.68 159.87 130.686 159.99 130.8 160.068L134.148 162C134.219 162.037 134.298 162.056 134.379 162.056C134.459 162.056 134.538 162.037 134.61 162L137.502 160.326C137.628 160.254 137.622 160.134 137.502 160.062L134.154 158.13C134.081 158.091 133.999 158.071 133.917 158.071C133.834 158.071 133.753 158.091 133.68 158.13ZM101.964 186.102C102.036 186.137 102.115 186.156 102.195 186.156C102.275 186.156 102.354 186.137 102.426 186.102L105.324 184.428C105.444 184.356 105.438 184.236 105.324 184.164L101.976 182.232C101.904 182.195 101.825 182.176 101.745 182.176C101.664 182.176 101.585 182.195 101.514 182.232L98.6218 183.906C98.4958 183.972 98.5018 184.092 98.6218 184.17L101.964 186.102ZM95.6038 180.102L92.7058 181.8C92.5858 181.866 92.5918 181.986 92.7058 182.064L96.0538 183.996C96.1256 184.031 96.2047 184.05 96.2848 184.05C96.3649 184.05 96.4439 184.031 96.5158 183.996L99.4078 182.322C99.5338 182.25 99.5218 182.13 99.4078 182.058L96.0658 180.126C95.9953 180.087 95.9166 180.066 95.8362 180.064C95.7559 180.062 95.6762 180.079 95.6038 180.114V180.102ZM106.656 183.66L109.554 181.986C109.674 181.914 109.668 181.794 109.554 181.722L106.2 179.796C106.128 179.761 106.049 179.742 105.969 179.742C105.889 179.742 105.81 179.761 105.738 179.796L102.846 181.464C102.72 181.536 102.732 181.656 102.846 181.734L106.2 183.66C106.27 183.696 106.347 183.716 106.426 183.718C106.505 183.721 106.584 183.705 106.656 183.672V183.66ZM110.892 181.212L113.784 179.544C113.904 179.472 113.898 179.352 113.784 179.274L110.4 177.354C110.328 177.319 110.249 177.3 110.169 177.3C110.089 177.3 110.01 177.319 109.938 177.354L107.046 179.022C106.92 179.094 106.932 179.214 107.046 179.292L110.394 181.224C110.472 181.264 110.559 181.282 110.646 181.278C110.733 181.274 110.818 181.247 110.892 181.2V181.212ZM115.122 178.77L118.014 177.102C118.14 177.03 118.128 176.91 118.014 176.832L114.666 174.9C114.595 174.865 114.517 174.846 114.438 174.846C114.359 174.846 114.281 174.865 114.21 174.9L111.312 176.568C111.192 176.64 111.198 176.76 111.312 176.838L114.66 178.8C114.732 178.835 114.811 178.854 114.891 178.854C114.971 178.854 115.05 178.835 115.122 178.8V178.77ZM99.8338 177.66L96.9358 179.328C96.8158 179.4 96.8218 179.52 96.9358 179.598L100.284 181.53C100.356 181.565 100.435 181.584 100.515 181.584C100.595 181.584 100.674 181.565 100.746 181.53L103.638 179.856C103.764 179.784 103.758 179.664 103.638 179.592L100.29 177.654C100.217 177.622 100.139 177.607 100.06 177.611C99.9807 177.614 99.9035 177.635 99.8338 177.672V177.66ZM104.064 175.218L101.166 176.886C101.046 176.958 101.052 177.078 101.166 177.156L104.514 179.088C104.585 179.125 104.664 179.144 104.745 179.144C104.825 179.144 104.904 179.125 104.976 179.088L107.868 177.42C107.994 177.348 107.988 177.228 107.868 177.15L104.52 175.218C104.448 175.185 104.369 175.169 104.29 175.172C104.211 175.174 104.134 175.194 104.064 175.23V175.218ZM120.984 165.444L118.092 167.118C117.966 167.19 117.978 167.31 118.092 167.382L121.44 169.314C121.51 169.351 121.588 169.37 121.668 169.37C121.747 169.37 121.825 169.351 121.896 169.314L124.794 167.64C124.914 167.574 124.908 167.454 124.794 167.376L121.446 165.444C121.373 165.41 121.293 165.394 121.213 165.396C121.133 165.398 121.055 165.419 120.984 165.456V165.444ZM116.784 167.886L113.892 169.56C113.766 169.632 113.778 169.752 113.892 169.824L117.234 171.762C117.306 171.797 117.385 171.816 117.465 171.816C117.545 171.816 117.624 171.797 117.696 171.762L120.594 170.094C120.714 170.022 120.708 169.902 120.594 169.824L117.246 167.892C117.17 167.852 117.085 167.832 116.999 167.833C116.913 167.834 116.829 167.857 116.754 167.898L116.784 167.886ZM125.25 163.002L122.352 164.676C122.232 164.748 122.238 164.868 122.352 164.94L125.7 166.872C125.771 166.909 125.85 166.928 125.931 166.928C126.011 166.928 126.09 166.909 126.162 166.872L129.054 165.198C129.18 165.132 129.168 165.012 129.054 164.934L125.706 163.002C125.631 162.962 125.546 162.942 125.461 162.944C125.376 162.946 125.293 162.97 125.22 163.014L125.25 163.002ZM108.294 172.8L105.402 174.468C105.276 174.54 105.282 174.66 105.402 174.738L108.75 176.67C108.822 176.705 108.901 176.724 108.981 176.724C109.061 176.724 109.14 176.705 109.212 176.67L112.11 175.002C112.23 174.93 112.224 174.81 112.11 174.732L108.756 172.8C108.684 172.765 108.605 172.746 108.525 172.746C108.445 172.746 108.366 172.765 108.294 172.8V172.8ZM112.494 170.358L109.602 172.026C109.476 172.098 109.482 172.218 109.602 172.296L112.95 174.228C113.022 174.263 113.101 174.282 113.181 174.282C113.261 174.282 113.34 174.263 113.412 174.228L116.31 172.56C116.43 172.488 116.424 172.368 116.31 172.29L112.962 170.358C112.894 170.323 112.82 170.304 112.744 170.302C112.668 170.3 112.593 170.315 112.524 170.346L112.494 170.358ZM109.404 187.602L112.302 185.928C112.422 185.856 112.416 185.736 112.302 185.664L108.954 183.726C108.882 183.691 108.803 183.672 108.723 183.672C108.643 183.672 108.564 183.691 108.492 183.726L105.6 185.4C105.474 185.472 105.48 185.592 105.6 185.67L108.942 187.602C109.018 187.641 109.103 187.66 109.189 187.658C109.275 187.655 109.359 187.632 109.434 187.59L109.404 187.602ZM84.5998 185.082L81.2578 183.15C81.1863 183.113 81.1071 183.094 81.0268 183.094C80.9464 183.094 80.8672 183.113 80.7958 183.15L77.9038 184.8C77.7838 184.866 77.7898 184.986 77.9038 185.064L81.2518 186.996C81.3232 187.033 81.4024 187.052 81.4828 187.052C81.5631 187.052 81.6423 187.033 81.7138 186.996L84.6058 185.322C84.7498 185.274 84.7378 185.154 84.5998 185.082ZM90.9418 186.942L87.5998 185.01C87.5283 184.973 87.4491 184.954 87.3688 184.954C87.2884 184.954 87.2092 184.973 87.1378 185.01L82.6858 187.584C82.5658 187.656 82.5718 187.77 82.6858 187.848L86.0338 189.78C86.1052 189.817 86.1844 189.836 86.2648 189.836C86.3451 189.836 86.4243 189.817 86.4958 189.78L90.9478 187.206C91.0858 187.134 91.0798 187.02 90.9478 186.942H90.9418ZM79.4698 181.344L76.1278 179.4C76.0559 179.365 75.9769 179.346 75.8968 179.346C75.8167 179.346 75.7376 179.365 75.6658 179.4L72.1018 181.458C71.9758 181.53 71.9878 181.65 72.1018 181.728L75.4438 183.66C75.5156 183.695 75.5947 183.714 75.6748 183.714C75.7549 183.714 75.8339 183.695 75.9058 183.66L79.4698 181.602C79.6138 181.542 79.6078 181.422 79.4758 181.344H79.4698ZM82.1998 179.766C82.2712 179.803 82.3504 179.822 82.4308 179.822C82.5111 179.822 82.5903 179.803 82.6618 179.766L85.5538 178.092C85.6798 178.02 85.6678 177.906 85.5538 177.828L82.1998 175.908C82.1283 175.871 82.0491 175.852 81.9688 175.852C81.8884 175.852 81.8092 175.871 81.7378 175.908L78.8398 177.6C78.7198 177.672 78.7258 177.786 78.8398 177.864L82.1998 179.766ZM96.8398 189.06L93.4918 187.128C93.4204 187.091 93.3411 187.072 93.2608 187.072C93.1804 187.072 93.1012 187.091 93.0298 187.128L87.4618 190.344C87.3418 190.416 87.3478 190.536 87.4618 190.608L90.8098 192.54C90.8812 192.577 90.9604 192.596 91.0408 192.596C91.1211 192.596 91.2003 192.577 91.2718 192.54L96.8338 189.324C96.9838 189.252 96.9778 189.138 96.8458 189.06H96.8398ZM99.6178 192.978L96.2698 191.046C96.1983 191.009 96.1191 190.99 96.0388 190.99C95.9584 190.99 95.8792 191.009 95.8078 191.046L92.2438 193.104C92.1238 193.176 92.1298 193.296 92.2438 193.368L95.5918 195.306C95.6636 195.341 95.7427 195.36 95.8228 195.36C95.9029 195.36 95.9819 195.341 96.0538 195.306L99.6118 193.248C99.7618 193.2 99.7558 193.056 99.5998 192.978H99.6178ZM113.652 161.604C113.723 161.641 113.802 161.66 113.883 161.66C113.963 161.66 114.042 161.641 114.114 161.604L117.012 159.93C117.132 159.864 117.126 159.744 117.012 159.666L113.664 157.734C113.592 157.697 113.513 157.678 113.433 157.678C113.352 157.678 113.273 157.697 113.202 157.734L110.31 159.408C110.184 159.48 110.196 159.6 110.31 159.672L113.652 161.604ZM105.192 166.494C105.264 166.529 105.343 166.548 105.423 166.548C105.503 166.548 105.582 166.529 105.654 166.494L108.552 164.826C108.672 164.754 108.666 164.634 108.552 164.556L105.204 162.624C105.132 162.589 105.053 162.57 104.973 162.57C104.893 162.57 104.814 162.589 104.742 162.624L101.85 164.298C101.724 164.37 101.73 164.49 101.85 164.562L105.192 166.494ZM86.4298 177.324C86.5012 177.361 86.5804 177.38 86.6608 177.38C86.7411 177.38 86.8204 177.361 86.8918 177.324L89.7838 175.65C89.9098 175.578 89.9038 175.458 89.7838 175.386L86.4358 173.454C86.3643 173.417 86.2851 173.398 86.2048 173.398C86.1244 173.398 86.0452 173.417 85.9738 173.454L83.0758 175.128C82.9558 175.194 82.9618 175.314 83.0758 175.392L86.4298 177.324ZM109.422 164.046C109.493 164.083 109.572 164.102 109.653 164.102C109.733 164.102 109.812 164.083 109.884 164.046L112.782 162.372C112.902 162.306 112.896 162.186 112.782 162.108L109.422 160.2C109.35 160.165 109.271 160.146 109.191 160.146C109.111 160.146 109.032 160.165 108.96 160.2L106.068 161.874C105.942 161.946 105.948 162.066 106.068 162.138L109.422 164.046ZM100.962 168.936C101.034 168.971 101.113 168.99 101.193 168.99C101.273 168.99 101.352 168.971 101.424 168.936L104.322 167.268C104.442 167.196 104.436 167.076 104.322 166.998L100.974 165.066C100.902 165.029 100.823 165.01 100.743 165.01C100.662 165.01 100.583 165.029 100.512 165.066L97.6138 166.734C97.4938 166.806 97.4998 166.926 97.6138 167.004L100.962 168.936ZM101.94 193.29C101.868 193.253 101.789 193.234 101.709 193.234C101.628 193.234 101.549 193.253 101.478 193.29L97.0258 195.858C96.9058 195.93 96.9118 196.05 97.0258 196.128L100.374 198.06C100.446 198.095 100.525 198.114 100.605 198.114C100.685 198.114 100.764 198.095 100.836 198.06L105.288 195.492C105.408 195.42 105.402 195.3 105.288 195.222L101.94 193.29ZM94.8958 172.44C94.9672 172.477 95.0464 172.496 95.1268 172.496C95.2071 172.496 95.2863 172.477 95.3578 172.44L98.2558 170.772C98.3758 170.7 98.3698 170.58 98.2558 170.502L94.8898 168.6C94.8179 168.565 94.7389 168.546 94.6588 168.546C94.5787 168.546 94.4996 168.565 94.4278 168.6L91.5358 170.268C91.4098 170.34 91.4158 170.46 91.5358 170.538L94.8958 172.44ZM90.6958 174.882C90.7676 174.917 90.8467 174.936 90.9268 174.936C91.0069 174.936 91.0859 174.917 91.1578 174.882L94.0498 173.208C94.1758 173.136 94.1698 173.016 94.0498 172.944L90.6598 171C90.5884 170.963 90.5091 170.944 90.4288 170.944C90.3484 170.944 90.2692 170.963 90.1978 171L87.2998 172.668C87.1798 172.74 87.1858 172.86 87.2998 172.938L90.6958 174.882ZM180.36 148.038C180.288 148.003 180.209 147.984 180.129 147.984C180.049 147.984 179.97 148.003 179.898 148.038L172.77 152.154C172.65 152.226 172.656 152.346 172.77 152.424L176.118 154.356C176.19 154.391 176.269 154.41 176.349 154.41C176.429 154.41 176.508 154.391 176.58 154.356L183.702 150.24C183.828 150.174 183.822 150.054 183.702 149.976L180.36 148.038ZM171.006 153.438C170.934 153.401 170.855 153.382 170.775 153.382C170.694 153.382 170.615 153.401 170.544 153.438L167.652 155.112C167.526 155.184 167.532 155.304 167.652 155.376L171 157.308C171.071 157.345 171.15 157.364 171.231 157.364C171.311 157.364 171.39 157.345 171.462 157.308L174.36 155.634C174.48 155.568 174.474 155.448 174.36 155.37L171.006 153.438ZM113.694 185.142L116.592 183.474C116.712 183.402 116.706 183.282 116.592 183.204L113.244 181.272C113.172 181.237 113.093 181.218 113.013 181.218C112.933 181.218 112.854 181.237 112.782 181.272L109.89 182.94C109.764 183.012 109.776 183.132 109.89 183.21L113.238 185.142C113.304 185.174 113.377 185.19 113.451 185.19C113.525 185.19 113.597 185.174 113.664 185.142H113.694ZM162.546 158.322C162.474 158.285 162.395 158.266 162.315 158.266C162.234 158.266 162.155 158.285 162.084 158.322L159.186 159.99C159.066 160.062 159.072 160.182 159.186 160.26L162.534 162.192C162.606 162.227 162.685 162.246 162.765 162.246C162.845 162.246 162.924 162.227 162.996 162.192L165.888 160.524C166.014 160.452 166.008 160.332 165.888 160.254L162.546 158.322ZM184.59 145.596C184.518 145.559 184.439 145.54 184.359 145.54C184.278 145.54 184.199 145.559 184.128 145.596L181.2 147.258C181.08 147.33 181.086 147.45 181.2 147.522L184.548 149.454C184.619 149.491 184.698 149.51 184.779 149.51C184.859 149.51 184.938 149.491 185.01 149.454L187.902 147.78C188.028 147.714 188.022 147.594 187.902 147.516L184.59 145.596ZM192.168 145.086L184.008 140.4C183.936 140.363 183.857 140.344 183.777 140.344C183.696 140.344 183.617 140.363 183.546 140.4L180.654 142.074C180.528 142.14 180.534 142.26 180.654 142.338L188.796 147C188.867 147.037 188.946 147.056 189.027 147.056C189.107 147.056 189.186 147.037 189.258 147L192.156 145.326C192.276 145.278 192.27 145.164 192.138 145.086H192.168ZM146.736 167.448C146.664 167.413 146.585 167.394 146.505 167.394C146.425 167.394 146.346 167.413 146.274 167.448L142.71 169.506C142.584 169.572 142.596 169.692 142.71 169.77L146.058 171.702C146.129 171.739 146.208 171.758 146.289 171.758C146.369 171.758 146.448 171.739 146.52 171.702L150.078 169.644C150.204 169.572 150.198 169.452 150.078 169.38L146.736 167.448ZM157.422 161.28C157.35 161.245 157.271 161.226 157.191 161.226C157.111 161.226 157.032 161.245 156.96 161.28L152.508 163.854C152.382 163.926 152.394 164.046 152.508 164.118L155.856 166.05C155.927 166.087 156.006 166.106 156.087 166.106C156.167 166.106 156.246 166.087 156.318 166.05L160.77 163.476C160.89 163.41 160.884 163.29 160.77 163.212L157.422 161.28ZM136.938 173.106C136.866 173.069 136.787 173.05 136.707 173.05C136.626 173.05 136.547 173.069 136.476 173.106L112.62 186.852C112.494 186.924 112.506 187.044 112.62 187.122L115.962 189.054C116.034 189.089 116.113 189.108 116.193 189.108C116.273 189.108 116.352 189.089 116.424 189.054L140.25 175.302C140.376 175.23 140.37 175.11 140.25 175.032L136.938 173.106ZM111.774 187.632C111.702 187.597 111.623 187.578 111.543 187.578C111.463 187.578 111.384 187.597 111.312 187.632L107.748 189.69C107.628 189.756 107.634 189.876 107.748 189.954L111.096 191.886C111.167 191.923 111.246 191.942 111.327 191.942C111.407 191.942 111.486 191.923 111.558 191.886L115.122 189.828C115.242 189.756 115.236 189.636 115.122 189.564L111.774 187.632ZM141.834 170.28C141.762 170.243 141.683 170.224 141.603 170.224C141.522 170.224 141.443 170.243 141.372 170.28L137.814 172.338C137.688 172.41 137.694 172.53 137.814 172.602L141.162 174.54C141.234 174.575 141.313 174.594 141.393 174.594C141.473 174.594 141.552 174.575 141.624 174.54L145.188 172.482C145.308 172.41 145.302 172.296 145.188 172.218L141.834 170.28ZM106.878 190.464C106.806 190.427 106.727 190.408 106.647 190.408C106.566 190.408 106.487 190.427 106.416 190.464L102.852 192.522C102.726 192.594 102.738 192.714 102.852 192.786L106.2 194.724C106.271 194.759 106.349 194.778 106.428 194.778C106.507 194.778 106.585 194.759 106.656 194.724L110.22 192.666C110.346 192.594 110.34 192.48 110.22 192.402L106.878 190.464ZM151.632 164.622C151.56 164.587 151.481 164.568 151.401 164.568C151.321 164.568 151.242 164.587 151.17 164.622L147.6 166.668C147.48 166.74 147.486 166.86 147.6 166.938L150.948 168.87C151.019 168.907 151.098 168.926 151.179 168.926C151.259 168.926 151.338 168.907 151.41 168.87L154.974 166.818C155.094 166.746 155.088 166.626 154.974 166.548L151.632 164.622ZM166.776 155.88C166.704 155.845 166.625 155.826 166.545 155.826C166.465 155.826 166.386 155.845 166.314 155.88L163.416 157.554C163.296 157.626 163.302 157.746 163.416 157.818L166.764 159.756C166.836 159.791 166.915 159.81 166.995 159.81C167.075 159.81 167.154 159.791 167.226 159.756L170.118 158.088C170.244 158.016 170.238 157.896 170.118 157.818L166.776 155.88ZM176.046 149.148L178.938 147.474C179.064 147.408 179.058 147.288 178.938 147.21L175.59 145.278C175.518 145.241 175.439 145.222 175.359 145.222C175.278 145.222 175.199 145.241 175.128 145.278L172.2 146.94C172.08 147.012 172.086 147.132 172.2 147.204L175.548 149.136C175.619 149.176 175.699 149.198 175.78 149.2C175.862 149.202 175.943 149.184 176.016 149.148H176.046ZM157.128 149.028L160.026 147.354C160.146 147.282 160.14 147.162 160.026 147.09L156.678 145.158C156.606 145.121 156.527 145.102 156.447 145.102C156.366 145.102 156.287 145.121 156.216 145.158L153.324 146.826C153.198 146.898 153.204 147.018 153.324 147.096L156.672 149.028C156.739 149.058 156.811 149.073 156.885 149.073C156.958 149.073 157.031 149.058 157.098 149.028H157.128ZM147.528 165.606L155.988 160.716C156.108 160.65 156.102 160.53 155.988 160.452L152.64 158.52C152.568 158.483 152.489 158.464 152.409 158.464C152.328 158.464 152.249 158.483 152.178 158.52L143.718 163.404C143.592 163.476 143.604 163.596 143.718 163.674L147.066 165.606C147.136 165.639 147.214 165.655 147.291 165.654C147.369 165.653 147.446 165.634 147.516 165.6L147.528 165.606ZM171.336 151.578C171.407 151.615 171.486 151.634 171.567 151.634C171.647 151.634 171.726 151.615 171.798 151.578L174.69 149.91C174.816 149.838 174.804 149.718 174.69 149.64L171.348 147.708C171.276 147.673 171.197 147.654 171.117 147.654C171.037 147.654 170.958 147.673 170.886 147.708L167.958 149.4C167.838 149.472 167.844 149.592 167.958 149.664L171.336 151.578ZM167.016 148.83L169.908 147.156C170.034 147.09 170.028 146.97 169.908 146.892L166.566 144.96C166.494 144.923 166.415 144.904 166.335 144.904C166.254 144.904 166.175 144.923 166.104 144.96L163.2 146.622C163.08 146.694 163.086 146.814 163.2 146.886L166.548 148.818C166.617 148.856 166.695 148.876 166.774 148.879C166.854 148.881 166.932 148.864 167.004 148.83H167.016ZM143.292 168.03L146.19 166.356C146.31 166.284 146.304 166.164 146.19 166.092L142.8 164.178C142.728 164.141 142.649 164.122 142.569 164.122C142.488 164.122 142.409 164.141 142.338 164.178L139.446 165.852C139.32 165.918 139.332 166.038 139.446 166.116L142.788 168.048C142.863 168.088 142.948 168.11 143.034 168.11C143.12 168.11 143.204 168.088 143.28 168.048L143.292 168.03ZM162 156.978C162.071 157.015 162.15 157.034 162.231 157.034C162.311 157.034 162.39 157.015 162.462 156.978L165.354 155.304C165.48 155.238 165.474 155.118 165.354 155.04L162.006 153.108C161.934 153.071 161.855 153.052 161.775 153.052C161.694 153.052 161.615 153.071 161.544 153.108L158.604 154.8C158.484 154.872 158.49 154.992 158.604 155.064L162 156.978ZM122.16 180.258L125.052 178.59C125.178 178.518 125.166 178.398 125.052 178.32L121.662 176.4C121.59 176.363 121.511 176.344 121.431 176.344C121.35 176.344 121.271 176.363 121.2 176.4L118.302 178.068C118.182 178.14 118.188 178.26 118.302 178.338L121.65 180.27C121.725 180.307 121.808 180.325 121.891 180.322C121.975 180.32 122.057 180.298 122.13 180.258H122.16ZM126.36 177.816L129.252 176.148C129.378 176.076 129.372 175.956 129.252 175.878L125.904 173.946C125.832 173.911 125.753 173.892 125.673 173.892C125.593 173.892 125.514 173.911 125.442 173.946L122.544 175.62C122.424 175.692 122.43 175.812 122.544 175.884L125.892 177.816C125.964 177.854 126.044 177.874 126.126 177.874C126.207 177.874 126.288 177.854 126.36 177.816V177.816ZM117.9 182.7L120.792 181.032C120.918 180.96 120.906 180.84 120.792 180.762L117.444 178.83C117.372 178.795 117.293 178.776 117.213 178.776C117.133 178.776 117.054 178.795 116.982 178.83L114.09 180.498C113.97 180.57 113.976 180.69 114.09 180.768L117.438 182.7C117.51 182.735 117.589 182.754 117.669 182.754C117.749 182.754 117.828 182.735 117.9 182.7V182.7ZM134.82 172.932L137.718 171.258C137.838 171.186 137.832 171.072 137.718 170.994L134.37 169.062C134.298 169.025 134.219 169.006 134.139 169.006C134.058 169.006 133.979 169.025 133.908 169.062L131.016 170.736C130.89 170.808 130.896 170.922 131.016 171L134.364 172.932C134.434 172.968 134.513 172.986 134.592 172.986C134.671 172.986 134.749 172.968 134.82 172.932ZM130.62 175.374L133.512 173.7C133.638 173.634 133.632 173.514 133.512 173.436L130.164 171.504C130.092 171.467 130.013 171.448 129.933 171.448C129.852 171.448 129.773 171.467 129.702 171.504L126.804 173.178C126.684 173.25 126.69 173.37 126.804 173.442L130.152 175.374C130.22 175.407 130.295 175.424 130.371 175.424C130.447 175.424 130.521 175.407 130.59 175.374H130.62ZM139.08 170.49L141.978 168.816C142.098 168.744 142.092 168.624 141.978 168.552L138.6 166.62C138.528 166.583 138.449 166.564 138.369 166.564C138.288 166.564 138.209 166.583 138.138 166.62L135.246 168.294C135.12 168.36 135.126 168.48 135.246 168.558L138.594 170.49C138.664 170.526 138.743 170.545 138.822 170.545C138.901 170.545 138.979 170.526 139.05 170.49H139.08ZM158.4 134.352C158.471 134.389 158.55 134.408 158.631 134.408C158.711 134.408 158.79 134.389 158.862 134.352L161.76 132.678C161.88 132.606 161.874 132.492 161.76 132.414L160.866 131.898C160.794 131.861 160.715 131.842 160.635 131.842C160.554 131.842 160.475 131.861 160.404 131.898L157.512 133.566C157.392 133.638 157.398 133.758 157.512 133.836L158.4 134.352ZM137.586 147.792C137.658 147.827 137.737 147.846 137.817 147.846C137.897 147.846 137.976 147.827 138.048 147.792L140.94 146.124C141.066 146.052 141.06 145.932 140.94 145.854L137.598 143.922C137.526 143.885 137.447 143.866 137.367 143.866C137.286 143.866 137.207 143.885 137.136 143.922L134.238 145.59C134.118 145.662 134.124 145.782 134.238 145.86L137.586 147.792ZM146.046 142.902C146.117 142.939 146.196 142.958 146.277 142.958C146.357 142.958 146.436 142.939 146.508 142.902L149.4 141.24C149.526 141.174 149.52 141.054 149.4 140.976L146.052 139.044C145.98 139.009 145.901 138.99 145.821 138.99C145.741 138.99 145.662 139.009 145.59 139.044L142.692 140.718C142.572 140.79 142.578 140.91 142.692 140.982L146.046 142.902ZM132.42 150.774C132.492 150.809 132.571 150.828 132.651 150.828C132.731 150.828 132.81 150.809 132.882 150.774L135.774 149.106C135.9 149.034 135.888 148.914 135.774 148.836L132.432 146.904C132.36 146.869 132.281 146.85 132.201 146.85C132.121 146.85 132.042 146.869 131.97 146.904L129.072 148.572C128.952 148.644 128.958 148.764 129.072 148.842L132.42 150.774ZM141.816 145.374C141.888 145.409 141.967 145.428 142.047 145.428C142.127 145.428 142.206 145.409 142.278 145.374L145.17 143.706C145.296 143.634 145.29 143.514 145.17 143.436L141.822 141.504C141.75 141.469 141.671 141.45 141.591 141.45C141.511 141.45 141.432 141.469 141.36 141.504L138.462 143.178C138.342 143.25 138.348 143.37 138.462 143.442L141.816 145.374ZM123.96 155.682C124.031 155.717 124.109 155.736 124.188 155.736C124.267 155.736 124.345 155.717 124.416 155.682L127.314 154.008C127.434 153.936 127.428 153.816 127.314 153.744L123.954 151.8C123.882 151.765 123.803 151.746 123.723 151.746C123.643 151.746 123.564 151.765 123.492 151.8L120.6 153.456C120.474 153.528 120.486 153.648 120.6 153.726L123.96 155.682ZM128.16 153.24C128.231 153.277 128.31 153.296 128.391 153.296C128.471 153.296 128.55 153.277 128.622 153.24L131.514 151.572C131.64 151.5 131.628 151.38 131.514 151.302L128.166 149.37C128.095 149.335 128.017 149.316 127.938 149.316C127.859 149.316 127.781 149.335 127.71 149.37L124.812 151.038C124.692 151.11 124.698 151.23 124.812 151.308L128.16 153.24ZM149.91 139.26C149.981 139.297 150.06 139.316 150.141 139.316C150.221 139.316 150.3 139.297 150.372 139.26L153.264 137.586C153.39 137.52 153.384 137.4 153.264 137.322L152.4 136.8C152.328 136.765 152.249 136.746 152.169 136.746C152.089 136.746 152.01 136.765 151.938 136.8L149.046 138.468C148.92 138.54 148.926 138.66 149.046 138.738L149.91 139.26ZM162.6 131.934C162.671 131.971 162.75 131.99 162.831 131.99C162.911 131.99 162.99 131.971 163.062 131.934L165.96 130.26C166.08 130.188 166.074 130.068 165.96 129.996L165.072 129.48C165 129.445 164.921 129.426 164.841 129.426C164.761 129.426 164.682 129.445 164.61 129.48L161.712 131.154C161.592 131.226 161.598 131.346 161.712 131.418L162.6 131.934ZM169.632 135.996C169.704 136.031 169.783 136.05 169.863 136.05C169.943 136.05 170.022 136.031 170.094 135.996L172.992 134.328C173.112 134.256 173.106 134.136 172.992 134.058L169.644 132.126C169.572 132.091 169.493 132.072 169.413 132.072C169.333 132.072 169.254 132.091 169.182 132.126L166.308 133.8C166.182 133.872 166.188 133.992 166.308 134.07L169.632 135.996ZM180.21 146.73L183.102 145.056C183.228 144.984 183.222 144.87 183.102 144.792L179.754 142.86C179.682 142.823 179.603 142.804 179.523 142.804C179.442 142.804 179.363 142.823 179.292 142.86L176.4 144.498C176.28 144.57 176.286 144.684 176.4 144.762L179.748 146.694C179.823 146.739 179.908 146.764 179.995 146.766C180.083 146.768 180.169 146.747 180.246 146.706L180.21 146.73ZM154.2 136.8C154.271 136.837 154.35 136.856 154.431 136.856C154.511 136.856 154.59 136.837 154.662 136.8L157.554 135.126C157.68 135.06 157.674 134.94 157.554 134.862L156.66 134.346C156.588 134.311 156.509 134.292 156.429 134.292C156.349 134.292 156.27 134.311 156.198 134.346L153.306 136.014C153.18 136.086 153.192 136.206 153.306 136.284L154.2 136.8ZM119.73 158.1C119.801 158.137 119.88 158.156 119.961 158.156C120.041 158.156 120.12 158.137 120.192 158.1L123.09 156.426C123.21 156.354 123.204 156.234 123.09 156.162L119.742 154.23C119.67 154.193 119.591 154.174 119.511 154.174C119.43 154.174 119.351 154.193 119.28 154.23L116.4 155.904C116.274 155.97 116.286 156.09 116.4 156.168L119.73 158.1Z" fill="#455A64"/>
<path d="M138.492 183.498L167.058 167.004C167.541 166.758 168.076 166.63 168.618 166.63C169.16 166.63 169.695 166.758 170.178 167.004L186.558 176.46C187.422 176.958 187.422 177.762 186.558 178.26L157.992 194.754C157.509 195 156.974 195.128 156.432 195.128C155.89 195.128 155.355 195 154.872 194.754L138.492 185.298C137.634 184.8 137.634 183.99 138.492 183.498Z" fill="#263238"/>
<path d="M191.028 104.184H190.992L186.114 101.376C185.832 101.25 185.418 101.376 184.914 101.748C180.378 105.216 174.276 106.296 169.314 104.712C168.994 104.412 168.689 104.096 168.402 103.764L168.312 103.662C168.169 103.496 167.999 103.356 167.808 103.248L167.724 103.2L162.84 100.398C162.282 100.134 161.778 100.398 161.442 101.226C156.726 112.944 146.676 124.818 139.974 127.788C139.467 128.015 139.017 128.351 138.654 128.772C138.173 129.295 137.907 129.981 137.91 130.692L138.876 157.002C138.876 164.604 142.086 172.632 148.632 176.538L153.684 179.454L153.774 179.502C156.506 181.036 159.594 181.82 162.726 181.776C163.428 181.776 164.142 181.746 164.88 181.674C166.316 181.438 167.646 180.773 168.696 179.766C183.342 164.64 190.464 144.168 190.464 132.84L191.4 105.288C191.436 104.694 191.292 104.328 191.028 104.184Z" fill="#81C6D6"/>
<path d="M191.4 105.288L190.434 132.81C190.434 144.138 183.312 164.61 168.666 179.736C167.616 180.743 166.285 181.408 164.85 181.644C164.112 181.716 163.398 181.746 162.696 181.746C159.564 181.79 156.475 181.006 153.744 179.472L153.654 179.424L153.48 179.316C146.934 175.41 143.724 167.382 143.724 159.78L142.8 133.47C142.796 132.759 143.062 132.073 143.544 131.55C143.906 131.129 144.357 130.793 144.864 130.566C151.566 127.566 161.616 115.722 166.332 104.004C166.668 103.176 167.178 102.906 167.736 103.17L167.82 103.218C168.01 103.326 168.181 103.466 168.324 103.632V103.632L168.414 103.734C173.418 109.56 183.258 109.554 189.828 104.526C190.326 104.148 190.74 104.028 191.028 104.154H191.064C191.292 104.328 191.436 104.694 191.4 105.288Z" fill="#81C6D6"/>
<path opacity="0.4" d="M190.998 104.148C190.716 104.022 190.302 104.148 189.798 104.52C183.612 109.254 174.522 109.536 169.308 104.676C174.294 106.266 180.384 105.186 184.908 101.712C185.406 101.334 185.82 101.214 186.108 101.34L190.998 104.148Z" fill="white"/>
<path opacity="0.4" d="M167.707 103.164C167.149 102.9 166.639 103.164 166.303 103.998C161.587 115.716 151.537 127.59 144.835 130.56C144.328 130.787 143.877 131.123 143.515 131.544C143.389 131.687 143.276 131.842 143.179 132.006L138.307 129.192C138.404 129.031 138.514 128.879 138.637 128.736C138.704 128.658 138.776 128.583 138.853 128.514V128.514L138.937 128.43L139.021 128.352C139.298 128.105 139.612 127.903 139.951 127.752C146.653 124.782 156.703 112.908 161.419 101.19C161.755 100.362 162.259 100.098 162.817 100.362L167.707 103.164Z" fill="white"/>
<path d="M138.858 128.502C138.883 128.473 138.911 128.447 138.942 128.424L138.858 128.508C138.858 128.508 138.852 128.502 138.858 128.502Z" fill="#81C6D6"/>
<path opacity="0.15" d="M138.942 128.4L138.858 128.484C138.883 128.453 138.911 128.425 138.942 128.4Z" fill="black"/>
<path opacity="0.15" d="M153.756 179.466L153.666 179.424L148.614 176.502C142.068 172.596 138.858 164.568 138.858 156.966L137.892 130.656C137.882 130.138 138.026 129.628 138.306 129.192L143.178 132.006C142.902 132.441 142.76 132.948 142.77 133.464L143.736 159.774C143.736 167.376 146.946 175.374 153.492 179.31L153.666 179.418L153.756 179.466Z" fill="black"/>
<path d="M171 155.262L163.2 159.762L164.4 145.656C163.47 145.164 162.87 143.952 162.87 142.206C162.87 139.104 164.76 135.492 167.07 134.148C169.38 132.804 171.27 134.232 171.27 137.334C171.224 139.175 170.698 140.972 169.746 142.548L171 155.262Z" fill="#455A64"/>
<path d="M170.988 155.262L163.926 151.182L163.194 159.762L170.988 155.262Z" fill="#37474F"/>
<path d="M167.094 134.148C165.564 135.03 164.238 136.878 163.494 138.918L169.8 142.548C170.752 140.972 171.278 139.175 171.324 137.334C171.306 134.232 169.422 132.804 167.094 134.148Z" fill="#37474F"/>
<path d="M69.5518 237.204V239.544C69.5518 242.304 71.3518 245.058 74.9998 247.164C80.4838 250.326 88.5358 251.1 95.2858 249.486L101.55 253.086L106.35 251.994L109.632 253.896L109.812 257.862L111.612 258.888L116.058 259.278L119.25 261.078V263.316L123.264 265.626H133.464L137.118 263.52V261.156L104.514 244.698C105.897 243.344 106.705 241.509 106.77 239.574V237.174C106.278 234.882 104.37 233.7 101.328 231.942C94.0618 227.742 82.2898 227.742 75.0238 231.942C71.7358 233.862 69.8818 234.738 69.5518 237.204ZM79.5358 234.462C80.6905 233.876 81.967 233.571 83.2618 233.571C84.5565 233.571 85.833 233.876 86.9878 234.462C89.0458 235.662 89.0458 237.576 86.9878 238.764C85.833 239.35 84.5565 239.655 83.2618 239.655C81.967 239.655 80.6905 239.35 79.5358 238.764C77.4778 237.6 77.4778 235.65 79.5358 234.462Z" fill="#81C6D6"/>
<path opacity="0.1" d="M69.5518 237.204V239.544C69.5518 242.304 71.3518 245.058 74.9998 247.164C80.4838 250.326 88.5358 251.1 95.2858 249.486L101.55 253.086L106.35 251.994L109.632 253.896L109.812 257.862L111.612 258.888L116.058 259.278L119.25 261.078V263.316L123.264 265.626H133.464L137.118 263.52V261.156L104.514 244.698C105.897 243.344 106.705 241.509 106.77 239.574V237.174C106.278 234.882 104.37 233.7 101.328 231.942C94.0618 227.742 82.2898 227.742 75.0238 231.942C71.7358 233.862 69.8818 234.738 69.5518 237.204ZM79.5358 234.462C80.6905 233.876 81.967 233.571 83.2618 233.571C84.5565 233.571 85.833 233.876 86.9878 234.462C89.0458 235.662 89.0458 237.576 86.9878 238.764C85.833 239.35 84.5565 239.655 83.2618 239.655C81.967 239.655 80.6905 239.35 79.5358 238.764C77.4778 237.6 77.4778 235.65 79.5358 234.462Z" fill="black"/>
<path d="M75 244.8C80.484 247.968 88.536 248.742 95.286 247.122L101.55 250.722L106.35 249.636L109.632 251.532L109.812 255.504L111.612 256.524L116.058 256.914L119.526 258.846L119.25 260.934L123.264 263.25H133.464L137.118 261.144L104.514 242.316C108.354 238.242 107.298 233.04 101.328 229.596C94.062 225.396 82.29 225.396 75.024 229.596C67.758 233.796 67.734 240.6 75 244.8ZM79.536 232.098C80.6908 231.512 81.9673 231.207 83.262 231.207C84.5568 231.207 85.8333 231.512 86.988 232.098C89.046 233.298 89.046 235.212 86.988 236.4C85.8333 236.986 84.5568 237.291 83.262 237.291C81.9673 237.291 80.6908 236.986 79.536 236.4C77.478 235.2 77.478 233.28 79.536 232.092V232.098Z" fill="#81C6D6"/>
<path opacity="0.3" d="M88.1523 245.88C83.5383 245.88 79.2364 244.86 76.0324 243.012C73.2244 241.392 71.6104 239.274 71.6104 237.204C71.6104 235.134 73.2244 233.004 76.0324 231.39C79.2364 229.542 83.5383 228.522 88.1523 228.522C92.7663 228.522 97.0683 229.542 100.272 231.39C103.08 233.016 104.694 235.128 104.694 237.204C104.694 239.28 103.08 241.404 100.272 243.012C97.0683 244.86 92.7663 245.88 88.1523 245.88ZM88.1523 229.35C83.6823 229.35 79.5244 230.328 76.4404 232.104C73.8964 233.574 72.4384 235.434 72.4384 237.204C72.4384 238.974 73.8964 240.804 76.4404 242.298C79.5244 244.098 83.6823 245.058 88.1523 245.058C92.6223 245.058 96.7804 244.074 99.8643 242.298C102.408 240.828 103.866 238.968 103.866 237.204C103.866 235.44 102.408 233.604 99.8643 232.104C96.7804 230.328 92.6223 229.35 88.1523 229.35Z" fill="black"/>
<path opacity="0.1" d="M81.4561 247.2V249.6C86.0164 250.592 90.7399 250.559 95.286 249.504V247.14C90.7369 248.18 86.014 248.2 81.4561 247.2V247.2Z" fill="black"/>
<path opacity="0.1" d="M101.55 250.734V253.104L106.362 252.012V249.648L101.55 250.734Z" fill="black"/>
<path opacity="0.1" d="M109.644 251.544V253.914L109.824 257.88V255.516L109.644 251.544Z" fill="black"/>
<path opacity="0.1" d="M111.594 256.536V258.906L116.04 259.296V256.926L111.594 256.536Z" fill="black"/>
<path opacity="0.1" d="M133.44 263.262H123.246V265.632H133.44V263.262Z" fill="black"/>
<path opacity="0.15" d="M137.093 261.15V263.52L133.439 265.626V263.262L135.035 262.338V263.358L135.923 262.848V261.816L137.093 261.15Z" fill="black"/>
<path d="M135.924 261.816L135.036 262.338V263.358L135.924 262.848V261.816Z" fill="#81C6D6"/>
<path opacity="0.15" d="M135.924 261.816V262.848L102.486 243.54L103.368 243.024L135.924 261.816Z" fill="black"/>
<path opacity="0.15" d="M103.368 243.024V244.056L102.486 243.54L103.368 243.024Z" fill="black"/>
</svg>
